%TF.GenerationSoftware,KiCad,Pcbnew,(5.1.7)-1*%
%TF.CreationDate,2020-12-07T14:23:08+09:00*%
%TF.ProjectId,CurrentMeasure,43757272-656e-4744-9d65-61737572652e,rev?*%
%TF.SameCoordinates,Original*%
%TF.FileFunction,Paste,Top*%
%TF.FilePolarity,Positive*%
%FSLAX46Y46*%
G04 Gerber Fmt 4.6, Leading zero omitted, Abs format (unit mm)*
G04 Created by KiCad (PCBNEW (5.1.7)-1) date 2020-12-07 14:23:08*
%MOMM*%
%LPD*%
G01*
G04 APERTURE LIST*
%ADD10R,2.400000X6.000000*%
G04 APERTURE END LIST*
%TO.C,J1*%
G36*
G01*
X549975000Y-40750000D02*
X549975000Y-42950000D01*
G75*
G02*
X549725000Y-43200000I-250000J0D01*
G01*
X549225000Y-43200000D01*
G75*
G02*
X548975000Y-42950000I0J250000D01*
G01*
X548975000Y-40750000D01*
G75*
G02*
X549225000Y-40500000I250000J0D01*
G01*
X549725000Y-40500000D01*
G75*
G02*
X549975000Y-40750000I0J-250000D01*
G01*
G37*
G36*
G01*
X554925000Y-40750000D02*
X554925000Y-42950000D01*
G75*
G02*
X554675000Y-43200000I-250000J0D01*
G01*
X554175000Y-43200000D01*
G75*
G02*
X553925000Y-42950000I0J250000D01*
G01*
X553925000Y-40750000D01*
G75*
G02*
X554175000Y-40500000I250000J0D01*
G01*
X554675000Y-40500000D01*
G75*
G02*
X554925000Y-40750000I0J-250000D01*
G01*
G37*
%TD*%
%TO.C,J6*%
G36*
G01*
X568525000Y-40750000D02*
X568525000Y-42950000D01*
G75*
G02*
X568275000Y-43200000I-250000J0D01*
G01*
X567775000Y-43200000D01*
G75*
G02*
X567525000Y-42950000I0J250000D01*
G01*
X567525000Y-40750000D01*
G75*
G02*
X567775000Y-40500000I250000J0D01*
G01*
X568275000Y-40500000D01*
G75*
G02*
X568525000Y-40750000I0J-250000D01*
G01*
G37*
G36*
G01*
X573475000Y-40750000D02*
X573475000Y-42950000D01*
G75*
G02*
X573225000Y-43200000I-250000J0D01*
G01*
X572725000Y-43200000D01*
G75*
G02*
X572475000Y-42950000I0J250000D01*
G01*
X572475000Y-40750000D01*
G75*
G02*
X572725000Y-40500000I250000J0D01*
G01*
X573225000Y-40500000D01*
G75*
G02*
X573475000Y-40750000I0J-250000D01*
G01*
G37*
%TD*%
%TO.C,J7*%
G36*
G01*
X548105000Y-89150000D02*
X548105000Y-86950000D01*
G75*
G02*
X548355000Y-86700000I250000J0D01*
G01*
X548855000Y-86700000D01*
G75*
G02*
X549105000Y-86950000I0J-250000D01*
G01*
X549105000Y-89150000D01*
G75*
G02*
X548855000Y-89400000I-250000J0D01*
G01*
X548355000Y-89400000D01*
G75*
G02*
X548105000Y-89150000I0J250000D01*
G01*
G37*
G36*
G01*
X540655000Y-89150000D02*
X540655000Y-86950000D01*
G75*
G02*
X540905000Y-86700000I250000J0D01*
G01*
X541405000Y-86700000D01*
G75*
G02*
X541655000Y-86950000I0J-250000D01*
G01*
X541655000Y-89150000D01*
G75*
G02*
X541405000Y-89400000I-250000J0D01*
G01*
X540905000Y-89400000D01*
G75*
G02*
X540655000Y-89150000I0J250000D01*
G01*
G37*
%TD*%
D10*
%TO.C,J4*%
X563000000Y-43700000D03*
X559500000Y-43700000D03*
%TD*%
%TO.C,C3*%
G36*
G01*
X561600000Y-52787500D02*
X561600000Y-52312500D01*
G75*
G02*
X561837500Y-52075000I237500J0D01*
G01*
X562412500Y-52075000D01*
G75*
G02*
X562650000Y-52312500I0J-237500D01*
G01*
X562650000Y-52787500D01*
G75*
G02*
X562412500Y-53025000I-237500J0D01*
G01*
X561837500Y-53025000D01*
G75*
G02*
X561600000Y-52787500I0J237500D01*
G01*
G37*
G36*
G01*
X559850000Y-52787500D02*
X559850000Y-52312500D01*
G75*
G02*
X560087500Y-52075000I237500J0D01*
G01*
X560662500Y-52075000D01*
G75*
G02*
X560900000Y-52312500I0J-237500D01*
G01*
X560900000Y-52787500D01*
G75*
G02*
X560662500Y-53025000I-237500J0D01*
G01*
X560087500Y-53025000D01*
G75*
G02*
X559850000Y-52787500I0J237500D01*
G01*
G37*
%TD*%
%TO.C,R5*%
G36*
G01*
X563475000Y-58749900D02*
X563475000Y-55450100D01*
G75*
G02*
X563725100Y-55200000I250100J0D01*
G01*
X564749900Y-55200000D01*
G75*
G02*
X565000000Y-55450100I0J-250100D01*
G01*
X565000000Y-58749900D01*
G75*
G02*
X564749900Y-59000000I-250100J0D01*
G01*
X563725100Y-59000000D01*
G75*
G02*
X563475000Y-58749900I0J250100D01*
G01*
G37*
G36*
G01*
X557500000Y-58749900D02*
X557500000Y-55450100D01*
G75*
G02*
X557750100Y-55200000I250100J0D01*
G01*
X558774900Y-55200000D01*
G75*
G02*
X559025000Y-55450100I0J-250100D01*
G01*
X559025000Y-58749900D01*
G75*
G02*
X558774900Y-59000000I-250100J0D01*
G01*
X557750100Y-59000000D01*
G75*
G02*
X557500000Y-58749900I0J250100D01*
G01*
G37*
%TD*%
%TO.C,R10*%
G36*
G01*
X565250000Y-60144000D02*
X565250000Y-54056000D01*
G75*
G02*
X565706000Y-53600000I456000J0D01*
G01*
X567794000Y-53600000D01*
G75*
G02*
X568250000Y-54056000I0J-456000D01*
G01*
X568250000Y-60144000D01*
G75*
G02*
X567794000Y-60600000I-456000J0D01*
G01*
X565706000Y-60600000D01*
G75*
G02*
X565250000Y-60144000I0J456000D01*
G01*
G37*
G36*
G01*
X554250000Y-60144000D02*
X554250000Y-54056000D01*
G75*
G02*
X554706000Y-53600000I456000J0D01*
G01*
X556794000Y-53600000D01*
G75*
G02*
X557250000Y-54056000I0J-456000D01*
G01*
X557250000Y-60144000D01*
G75*
G02*
X556794000Y-60600000I-456000J0D01*
G01*
X554706000Y-60600000D01*
G75*
G02*
X554250000Y-60144000I0J456000D01*
G01*
G37*
%TD*%
%TO.C,C2*%
G36*
G01*
X570325000Y-65687500D02*
X570325000Y-65212500D01*
G75*
G02*
X570562500Y-64975000I237500J0D01*
G01*
X571137500Y-64975000D01*
G75*
G02*
X571375000Y-65212500I0J-237500D01*
G01*
X571375000Y-65687500D01*
G75*
G02*
X571137500Y-65925000I-237500J0D01*
G01*
X570562500Y-65925000D01*
G75*
G02*
X570325000Y-65687500I0J237500D01*
G01*
G37*
G36*
G01*
X568575000Y-65687500D02*
X568575000Y-65212500D01*
G75*
G02*
X568812500Y-64975000I237500J0D01*
G01*
X569387500Y-64975000D01*
G75*
G02*
X569625000Y-65212500I0J-237500D01*
G01*
X569625000Y-65687500D01*
G75*
G02*
X569387500Y-65925000I-237500J0D01*
G01*
X568812500Y-65925000D01*
G75*
G02*
X568575000Y-65687500I0J237500D01*
G01*
G37*
%TD*%
%TO.C,R2*%
G36*
G01*
X569625000Y-71387500D02*
X569625000Y-71862500D01*
G75*
G02*
X569387500Y-72100000I-237500J0D01*
G01*
X568812500Y-72100000D01*
G75*
G02*
X568575000Y-71862500I0J237500D01*
G01*
X568575000Y-71387500D01*
G75*
G02*
X568812500Y-71150000I237500J0D01*
G01*
X569387500Y-71150000D01*
G75*
G02*
X569625000Y-71387500I0J-237500D01*
G01*
G37*
G36*
G01*
X571375000Y-71387500D02*
X571375000Y-71862500D01*
G75*
G02*
X571137500Y-72100000I-237500J0D01*
G01*
X570562500Y-72100000D01*
G75*
G02*
X570325000Y-71862500I0J237500D01*
G01*
X570325000Y-71387500D01*
G75*
G02*
X570562500Y-71150000I237500J0D01*
G01*
X571137500Y-71150000D01*
G75*
G02*
X571375000Y-71387500I0J-237500D01*
G01*
G37*
%TD*%
%TO.C,U1*%
G36*
G01*
X559495000Y-67000000D02*
X559195000Y-67000000D01*
G75*
G02*
X559045000Y-66850000I0J150000D01*
G01*
X559045000Y-65200000D01*
G75*
G02*
X559195000Y-65050000I150000J0D01*
G01*
X559495000Y-65050000D01*
G75*
G02*
X559645000Y-65200000I0J-150000D01*
G01*
X559645000Y-66850000D01*
G75*
G02*
X559495000Y-67000000I-150000J0D01*
G01*
G37*
G36*
G01*
X560765000Y-67000000D02*
X560465000Y-67000000D01*
G75*
G02*
X560315000Y-66850000I0J150000D01*
G01*
X560315000Y-65200000D01*
G75*
G02*
X560465000Y-65050000I150000J0D01*
G01*
X560765000Y-65050000D01*
G75*
G02*
X560915000Y-65200000I0J-150000D01*
G01*
X560915000Y-66850000D01*
G75*
G02*
X560765000Y-67000000I-150000J0D01*
G01*
G37*
G36*
G01*
X562035000Y-67000000D02*
X561735000Y-67000000D01*
G75*
G02*
X561585000Y-66850000I0J150000D01*
G01*
X561585000Y-65200000D01*
G75*
G02*
X561735000Y-65050000I150000J0D01*
G01*
X562035000Y-65050000D01*
G75*
G02*
X562185000Y-65200000I0J-150000D01*
G01*
X562185000Y-66850000D01*
G75*
G02*
X562035000Y-67000000I-150000J0D01*
G01*
G37*
G36*
G01*
X563305000Y-67000000D02*
X563005000Y-67000000D01*
G75*
G02*
X562855000Y-66850000I0J150000D01*
G01*
X562855000Y-65200000D01*
G75*
G02*
X563005000Y-65050000I150000J0D01*
G01*
X563305000Y-65050000D01*
G75*
G02*
X563455000Y-65200000I0J-150000D01*
G01*
X563455000Y-66850000D01*
G75*
G02*
X563305000Y-67000000I-150000J0D01*
G01*
G37*
G36*
G01*
X563305000Y-71950000D02*
X563005000Y-71950000D01*
G75*
G02*
X562855000Y-71800000I0J150000D01*
G01*
X562855000Y-70150000D01*
G75*
G02*
X563005000Y-70000000I150000J0D01*
G01*
X563305000Y-70000000D01*
G75*
G02*
X563455000Y-70150000I0J-150000D01*
G01*
X563455000Y-71800000D01*
G75*
G02*
X563305000Y-71950000I-150000J0D01*
G01*
G37*
G36*
G01*
X562035000Y-71950000D02*
X561735000Y-71950000D01*
G75*
G02*
X561585000Y-71800000I0J150000D01*
G01*
X561585000Y-70150000D01*
G75*
G02*
X561735000Y-70000000I150000J0D01*
G01*
X562035000Y-70000000D01*
G75*
G02*
X562185000Y-70150000I0J-150000D01*
G01*
X562185000Y-71800000D01*
G75*
G02*
X562035000Y-71950000I-150000J0D01*
G01*
G37*
G36*
G01*
X560765000Y-71950000D02*
X560465000Y-71950000D01*
G75*
G02*
X560315000Y-71800000I0J150000D01*
G01*
X560315000Y-70150000D01*
G75*
G02*
X560465000Y-70000000I150000J0D01*
G01*
X560765000Y-70000000D01*
G75*
G02*
X560915000Y-70150000I0J-150000D01*
G01*
X560915000Y-71800000D01*
G75*
G02*
X560765000Y-71950000I-150000J0D01*
G01*
G37*
G36*
G01*
X559495000Y-71950000D02*
X559195000Y-71950000D01*
G75*
G02*
X559045000Y-71800000I0J150000D01*
G01*
X559045000Y-70150000D01*
G75*
G02*
X559195000Y-70000000I150000J0D01*
G01*
X559495000Y-70000000D01*
G75*
G02*
X559645000Y-70150000I0J-150000D01*
G01*
X559645000Y-71800000D01*
G75*
G02*
X559495000Y-71950000I-150000J0D01*
G01*
G37*
%TD*%
%TO.C,R9*%
G36*
G01*
X549650000Y-71762500D02*
X549650000Y-72237500D01*
G75*
G02*
X549412500Y-72475000I-237500J0D01*
G01*
X548837500Y-72475000D01*
G75*
G02*
X548600000Y-72237500I0J237500D01*
G01*
X548600000Y-71762500D01*
G75*
G02*
X548837500Y-71525000I237500J0D01*
G01*
X549412500Y-71525000D01*
G75*
G02*
X549650000Y-71762500I0J-237500D01*
G01*
G37*
G36*
G01*
X551400000Y-71762500D02*
X551400000Y-72237500D01*
G75*
G02*
X551162500Y-72475000I-237500J0D01*
G01*
X550587500Y-72475000D01*
G75*
G02*
X550350000Y-72237500I0J237500D01*
G01*
X550350000Y-71762500D01*
G75*
G02*
X550587500Y-71525000I237500J0D01*
G01*
X551162500Y-71525000D01*
G75*
G02*
X551400000Y-71762500I0J-237500D01*
G01*
G37*
%TD*%
%TO.C,R8*%
G36*
G01*
X549650000Y-69762500D02*
X549650000Y-70237500D01*
G75*
G02*
X549412500Y-70475000I-237500J0D01*
G01*
X548837500Y-70475000D01*
G75*
G02*
X548600000Y-70237500I0J237500D01*
G01*
X548600000Y-69762500D01*
G75*
G02*
X548837500Y-69525000I237500J0D01*
G01*
X549412500Y-69525000D01*
G75*
G02*
X549650000Y-69762500I0J-237500D01*
G01*
G37*
G36*
G01*
X551400000Y-69762500D02*
X551400000Y-70237500D01*
G75*
G02*
X551162500Y-70475000I-237500J0D01*
G01*
X550587500Y-70475000D01*
G75*
G02*
X550350000Y-70237500I0J237500D01*
G01*
X550350000Y-69762500D01*
G75*
G02*
X550587500Y-69525000I237500J0D01*
G01*
X551162500Y-69525000D01*
G75*
G02*
X551400000Y-69762500I0J-237500D01*
G01*
G37*
%TD*%
%TO.C,R7*%
G36*
G01*
X549650000Y-67012500D02*
X549650000Y-67487500D01*
G75*
G02*
X549412500Y-67725000I-237500J0D01*
G01*
X548837500Y-67725000D01*
G75*
G02*
X548600000Y-67487500I0J237500D01*
G01*
X548600000Y-67012500D01*
G75*
G02*
X548837500Y-66775000I237500J0D01*
G01*
X549412500Y-66775000D01*
G75*
G02*
X549650000Y-67012500I0J-237500D01*
G01*
G37*
G36*
G01*
X551400000Y-67012500D02*
X551400000Y-67487500D01*
G75*
G02*
X551162500Y-67725000I-237500J0D01*
G01*
X550587500Y-67725000D01*
G75*
G02*
X550350000Y-67487500I0J237500D01*
G01*
X550350000Y-67012500D01*
G75*
G02*
X550587500Y-66775000I237500J0D01*
G01*
X551162500Y-66775000D01*
G75*
G02*
X551400000Y-67012500I0J-237500D01*
G01*
G37*
%TD*%
%TO.C,R6*%
G36*
G01*
X549650000Y-65012500D02*
X549650000Y-65487500D01*
G75*
G02*
X549412500Y-65725000I-237500J0D01*
G01*
X548837500Y-65725000D01*
G75*
G02*
X548600000Y-65487500I0J237500D01*
G01*
X548600000Y-65012500D01*
G75*
G02*
X548837500Y-64775000I237500J0D01*
G01*
X549412500Y-64775000D01*
G75*
G02*
X549650000Y-65012500I0J-237500D01*
G01*
G37*
G36*
G01*
X551400000Y-65012500D02*
X551400000Y-65487500D01*
G75*
G02*
X551162500Y-65725000I-237500J0D01*
G01*
X550587500Y-65725000D01*
G75*
G02*
X550350000Y-65487500I0J237500D01*
G01*
X550350000Y-65012500D01*
G75*
G02*
X550587500Y-64775000I237500J0D01*
G01*
X551162500Y-64775000D01*
G75*
G02*
X551400000Y-65012500I0J-237500D01*
G01*
G37*
%TD*%
%TO.C,R4*%
G36*
G01*
X562737500Y-77150000D02*
X562262500Y-77150000D01*
G75*
G02*
X562025000Y-76912500I0J237500D01*
G01*
X562025000Y-76337500D01*
G75*
G02*
X562262500Y-76100000I237500J0D01*
G01*
X562737500Y-76100000D01*
G75*
G02*
X562975000Y-76337500I0J-237500D01*
G01*
X562975000Y-76912500D01*
G75*
G02*
X562737500Y-77150000I-237500J0D01*
G01*
G37*
G36*
G01*
X562737500Y-78900000D02*
X562262500Y-78900000D01*
G75*
G02*
X562025000Y-78662500I0J237500D01*
G01*
X562025000Y-78087500D01*
G75*
G02*
X562262500Y-77850000I237500J0D01*
G01*
X562737500Y-77850000D01*
G75*
G02*
X562975000Y-78087500I0J-237500D01*
G01*
X562975000Y-78662500D01*
G75*
G02*
X562737500Y-78900000I-237500J0D01*
G01*
G37*
%TD*%
%TO.C,R3*%
G36*
G01*
X560237500Y-77150000D02*
X559762500Y-77150000D01*
G75*
G02*
X559525000Y-76912500I0J237500D01*
G01*
X559525000Y-76337500D01*
G75*
G02*
X559762500Y-76100000I237500J0D01*
G01*
X560237500Y-76100000D01*
G75*
G02*
X560475000Y-76337500I0J-237500D01*
G01*
X560475000Y-76912500D01*
G75*
G02*
X560237500Y-77150000I-237500J0D01*
G01*
G37*
G36*
G01*
X560237500Y-78900000D02*
X559762500Y-78900000D01*
G75*
G02*
X559525000Y-78662500I0J237500D01*
G01*
X559525000Y-78087500D01*
G75*
G02*
X559762500Y-77850000I237500J0D01*
G01*
X560237500Y-77850000D01*
G75*
G02*
X560475000Y-78087500I0J-237500D01*
G01*
X560475000Y-78662500D01*
G75*
G02*
X560237500Y-78900000I-237500J0D01*
G01*
G37*
%TD*%
%TO.C,R1*%
G36*
G01*
X569625000Y-69387500D02*
X569625000Y-69862500D01*
G75*
G02*
X569387500Y-70100000I-237500J0D01*
G01*
X568812500Y-70100000D01*
G75*
G02*
X568575000Y-69862500I0J237500D01*
G01*
X568575000Y-69387500D01*
G75*
G02*
X568812500Y-69150000I237500J0D01*
G01*
X569387500Y-69150000D01*
G75*
G02*
X569625000Y-69387500I0J-237500D01*
G01*
G37*
G36*
G01*
X571375000Y-69387500D02*
X571375000Y-69862500D01*
G75*
G02*
X571137500Y-70100000I-237500J0D01*
G01*
X570562500Y-70100000D01*
G75*
G02*
X570325000Y-69862500I0J237500D01*
G01*
X570325000Y-69387500D01*
G75*
G02*
X570562500Y-69150000I237500J0D01*
G01*
X571137500Y-69150000D01*
G75*
G02*
X571375000Y-69387500I0J-237500D01*
G01*
G37*
%TD*%
%TO.C,C1*%
G36*
G01*
X570325000Y-67612500D02*
X570325000Y-67137500D01*
G75*
G02*
X570562500Y-66900000I237500J0D01*
G01*
X571137500Y-66900000D01*
G75*
G02*
X571375000Y-67137500I0J-237500D01*
G01*
X571375000Y-67612500D01*
G75*
G02*
X571137500Y-67850000I-237500J0D01*
G01*
X570562500Y-67850000D01*
G75*
G02*
X570325000Y-67612500I0J237500D01*
G01*
G37*
G36*
G01*
X568575000Y-67612500D02*
X568575000Y-67137500D01*
G75*
G02*
X568812500Y-66900000I237500J0D01*
G01*
X569387500Y-66900000D01*
G75*
G02*
X569625000Y-67137500I0J-237500D01*
G01*
X569625000Y-67612500D01*
G75*
G02*
X569387500Y-67850000I-237500J0D01*
G01*
X568812500Y-67850000D01*
G75*
G02*
X568575000Y-67612500I0J237500D01*
G01*
G37*
%TD*%
M02*
