%TF.GenerationSoftware,KiCad,Pcbnew,(5.1.7)-1*%
%TF.CreationDate,2020-12-07T14:23:08+09:00*%
%TF.ProjectId,CurrentMeasure,43757272-656e-4744-9d65-61737572652e,rev?*%
%TF.SameCoordinates,Original*%
%TF.FileFunction,Legend,Top*%
%TF.FilePolarity,Positive*%
%FSLAX46Y46*%
G04 Gerber Fmt 4.6, Leading zero omitted, Abs format (unit mm)*
G04 Created by KiCad (PCBNEW (5.1.7)-1) date 2020-12-07 14:23:08*
%MOMM*%
%LPD*%
G01*
G04 APERTURE LIST*
%ADD10C,0.100000*%
%ADD11C,0.180000*%
%ADD12C,0.050000*%
%ADD13C,0.120000*%
%ADD14C,0.010000*%
%ADD15C,0.150000*%
G04 APERTURE END LIST*
D10*
X551692857Y-54028571D02*
X552192857Y-55528571D01*
X552692857Y-54028571D01*
X553192857Y-55528571D02*
X553192857Y-54528571D01*
X553192857Y-54028571D02*
X553121428Y-54100000D01*
X553192857Y-54171428D01*
X553264285Y-54100000D01*
X553192857Y-54028571D01*
X553192857Y-54171428D01*
X569171428Y-54078571D02*
X569671428Y-55578571D01*
X570171428Y-54078571D01*
X570885714Y-55578571D02*
X570742857Y-55507142D01*
X570671428Y-55435714D01*
X570600000Y-55292857D01*
X570600000Y-54864285D01*
X570671428Y-54721428D01*
X570742857Y-54650000D01*
X570885714Y-54578571D01*
X571100000Y-54578571D01*
X571242857Y-54650000D01*
X571314285Y-54721428D01*
X571385714Y-54864285D01*
X571385714Y-55292857D01*
X571314285Y-55435714D01*
X571242857Y-55507142D01*
X571100000Y-55578571D01*
X570885714Y-55578571D01*
X559011904Y-62279761D02*
X559154761Y-62327380D01*
X559392857Y-62327380D01*
X559488095Y-62279761D01*
X559535714Y-62232142D01*
X559583333Y-62136904D01*
X559583333Y-62041666D01*
X559535714Y-61946428D01*
X559488095Y-61898809D01*
X559392857Y-61851190D01*
X559202380Y-61803571D01*
X559107142Y-61755952D01*
X559059523Y-61708333D01*
X559011904Y-61613095D01*
X559011904Y-61517857D01*
X559059523Y-61422619D01*
X559107142Y-61375000D01*
X559202380Y-61327380D01*
X559440476Y-61327380D01*
X559583333Y-61375000D01*
X560011904Y-62327380D02*
X560011904Y-61327380D01*
X560011904Y-61803571D02*
X560583333Y-61803571D01*
X560583333Y-62327380D02*
X560583333Y-61327380D01*
X561059523Y-61327380D02*
X561059523Y-62136904D01*
X561107142Y-62232142D01*
X561154761Y-62279761D01*
X561250000Y-62327380D01*
X561440476Y-62327380D01*
X561535714Y-62279761D01*
X561583333Y-62232142D01*
X561630952Y-62136904D01*
X561630952Y-61327380D01*
X562107142Y-62327380D02*
X562107142Y-61327380D01*
X562678571Y-62327380D01*
X562678571Y-61327380D01*
X563011904Y-61327380D02*
X563583333Y-61327380D01*
X563297619Y-62327380D02*
X563297619Y-61327380D01*
D11*
X568803904Y-87132619D02*
X568803904Y-86032619D01*
X569327714Y-87132619D02*
X569327714Y-86032619D01*
X569956285Y-87132619D01*
X569956285Y-86032619D01*
X570427714Y-86818333D02*
X570951523Y-86818333D01*
X570322952Y-87132619D02*
X570689619Y-86032619D01*
X571056285Y-87132619D01*
X571370571Y-86137380D02*
X571422952Y-86085000D01*
X571527714Y-86032619D01*
X571789619Y-86032619D01*
X571894380Y-86085000D01*
X571946761Y-86137380D01*
X571999142Y-86242142D01*
X571999142Y-86346904D01*
X571946761Y-86504047D01*
X571318190Y-87132619D01*
X571999142Y-87132619D01*
X573046761Y-87132619D02*
X572418190Y-87132619D01*
X572732476Y-87132619D02*
X572732476Y-86032619D01*
X572627714Y-86189761D01*
X572522952Y-86294523D01*
X572418190Y-86346904D01*
X573570571Y-87132619D02*
X573780095Y-87132619D01*
X573884857Y-87080238D01*
X573937238Y-87027857D01*
X574042000Y-86870714D01*
X574094380Y-86661190D01*
X574094380Y-86242142D01*
X574042000Y-86137380D01*
X573989619Y-86085000D01*
X573884857Y-86032619D01*
X573675333Y-86032619D01*
X573570571Y-86085000D01*
X573518190Y-86137380D01*
X573465809Y-86242142D01*
X573465809Y-86504047D01*
X573518190Y-86608809D01*
X573570571Y-86661190D01*
X573675333Y-86713571D01*
X573884857Y-86713571D01*
X573989619Y-86661190D01*
X574042000Y-86608809D01*
X574094380Y-86504047D01*
X569432476Y-88857857D02*
X569380095Y-88910238D01*
X569222952Y-88962619D01*
X569118190Y-88962619D01*
X568961047Y-88910238D01*
X568856285Y-88805476D01*
X568803904Y-88700714D01*
X568751523Y-88491190D01*
X568751523Y-88334047D01*
X568803904Y-88124523D01*
X568856285Y-88019761D01*
X568961047Y-87915000D01*
X569118190Y-87862619D01*
X569222952Y-87862619D01*
X569380095Y-87915000D01*
X569432476Y-87967380D01*
X570375333Y-88229285D02*
X570375333Y-88962619D01*
X569903904Y-88229285D02*
X569903904Y-88805476D01*
X569956285Y-88910238D01*
X570061047Y-88962619D01*
X570218190Y-88962619D01*
X570322952Y-88910238D01*
X570375333Y-88857857D01*
X570899142Y-88962619D02*
X570899142Y-88229285D01*
X570899142Y-88438809D02*
X570951523Y-88334047D01*
X571003904Y-88281666D01*
X571108666Y-88229285D01*
X571213428Y-88229285D01*
X571580095Y-88962619D02*
X571580095Y-88229285D01*
X571580095Y-88438809D02*
X571632476Y-88334047D01*
X571684857Y-88281666D01*
X571789619Y-88229285D01*
X571894380Y-88229285D01*
X572680095Y-88910238D02*
X572575333Y-88962619D01*
X572365809Y-88962619D01*
X572261047Y-88910238D01*
X572208666Y-88805476D01*
X572208666Y-88386428D01*
X572261047Y-88281666D01*
X572365809Y-88229285D01*
X572575333Y-88229285D01*
X572680095Y-88281666D01*
X572732476Y-88386428D01*
X572732476Y-88491190D01*
X572208666Y-88595952D01*
X573203904Y-88229285D02*
X573203904Y-88962619D01*
X573203904Y-88334047D02*
X573256285Y-88281666D01*
X573361047Y-88229285D01*
X573518190Y-88229285D01*
X573622952Y-88281666D01*
X573675333Y-88386428D01*
X573675333Y-88962619D01*
X574042000Y-88229285D02*
X574461047Y-88229285D01*
X574199142Y-87862619D02*
X574199142Y-88805476D01*
X574251523Y-88910238D01*
X574356285Y-88962619D01*
X574461047Y-88962619D01*
X575613428Y-88910238D02*
X575718190Y-88962619D01*
X575927714Y-88962619D01*
X576032476Y-88910238D01*
X576084857Y-88805476D01*
X576084857Y-88753095D01*
X576032476Y-88648333D01*
X575927714Y-88595952D01*
X575770571Y-88595952D01*
X575665809Y-88543571D01*
X575613428Y-88438809D01*
X575613428Y-88386428D01*
X575665809Y-88281666D01*
X575770571Y-88229285D01*
X575927714Y-88229285D01*
X576032476Y-88281666D01*
X576975333Y-88910238D02*
X576870571Y-88962619D01*
X576661047Y-88962619D01*
X576556285Y-88910238D01*
X576503904Y-88805476D01*
X576503904Y-88386428D01*
X576556285Y-88281666D01*
X576661047Y-88229285D01*
X576870571Y-88229285D01*
X576975333Y-88281666D01*
X577027714Y-88386428D01*
X577027714Y-88491190D01*
X576503904Y-88595952D01*
X577499142Y-88229285D02*
X577499142Y-88962619D01*
X577499142Y-88334047D02*
X577551523Y-88281666D01*
X577656285Y-88229285D01*
X577813428Y-88229285D01*
X577918190Y-88281666D01*
X577970571Y-88386428D01*
X577970571Y-88962619D01*
X578442000Y-88910238D02*
X578546761Y-88962619D01*
X578756285Y-88962619D01*
X578861047Y-88910238D01*
X578913428Y-88805476D01*
X578913428Y-88753095D01*
X578861047Y-88648333D01*
X578756285Y-88595952D01*
X578599142Y-88595952D01*
X578494380Y-88543571D01*
X578442000Y-88438809D01*
X578442000Y-88386428D01*
X578494380Y-88281666D01*
X578599142Y-88229285D01*
X578756285Y-88229285D01*
X578861047Y-88281666D01*
X579542000Y-88962619D02*
X579437238Y-88910238D01*
X579384857Y-88857857D01*
X579332476Y-88753095D01*
X579332476Y-88438809D01*
X579384857Y-88334047D01*
X579437238Y-88281666D01*
X579542000Y-88229285D01*
X579699142Y-88229285D01*
X579803904Y-88281666D01*
X579856285Y-88334047D01*
X579908666Y-88438809D01*
X579908666Y-88753095D01*
X579856285Y-88857857D01*
X579803904Y-88910238D01*
X579699142Y-88962619D01*
X579542000Y-88962619D01*
X580380095Y-88962619D02*
X580380095Y-88229285D01*
X580380095Y-88438809D02*
X580432476Y-88334047D01*
X580484857Y-88281666D01*
X580589619Y-88229285D01*
X580694380Y-88229285D01*
D10*
X556978571Y-79957142D02*
X558121428Y-79957142D01*
X557550000Y-80528571D02*
X557550000Y-79385714D01*
D12*
X541670238Y-75408333D02*
X542051190Y-75408333D01*
X541594047Y-75636904D02*
X541860714Y-74836904D01*
X542127380Y-75636904D01*
X542394047Y-75636904D02*
X542394047Y-74836904D01*
X542584523Y-74836904D01*
X542698809Y-74875000D01*
X542775000Y-74951190D01*
X542813095Y-75027380D01*
X542851190Y-75179761D01*
X542851190Y-75294047D01*
X542813095Y-75446428D01*
X542775000Y-75522619D01*
X542698809Y-75598809D01*
X542584523Y-75636904D01*
X542394047Y-75636904D01*
X543194047Y-75636904D02*
X543194047Y-74836904D01*
X543384523Y-74836904D01*
X543498809Y-74875000D01*
X543575000Y-74951190D01*
X543613095Y-75027380D01*
X543651190Y-75179761D01*
X543651190Y-75294047D01*
X543613095Y-75446428D01*
X543575000Y-75522619D01*
X543498809Y-75598809D01*
X543384523Y-75636904D01*
X543194047Y-75636904D01*
X544451190Y-75636904D02*
X544184523Y-75255952D01*
X543994047Y-75636904D02*
X543994047Y-74836904D01*
X544298809Y-74836904D01*
X544375000Y-74875000D01*
X544413095Y-74913095D01*
X544451190Y-74989285D01*
X544451190Y-75103571D01*
X544413095Y-75179761D01*
X544375000Y-75217857D01*
X544298809Y-75255952D01*
X543994047Y-75255952D01*
X544794047Y-75217857D02*
X545060714Y-75217857D01*
X545175000Y-75636904D02*
X544794047Y-75636904D01*
X544794047Y-74836904D01*
X545175000Y-74836904D01*
X545479761Y-75598809D02*
X545594047Y-75636904D01*
X545784523Y-75636904D01*
X545860714Y-75598809D01*
X545898809Y-75560714D01*
X545936904Y-75484523D01*
X545936904Y-75408333D01*
X545898809Y-75332142D01*
X545860714Y-75294047D01*
X545784523Y-75255952D01*
X545632142Y-75217857D01*
X545555952Y-75179761D01*
X545517857Y-75141666D01*
X545479761Y-75065476D01*
X545479761Y-74989285D01*
X545517857Y-74913095D01*
X545555952Y-74875000D01*
X545632142Y-74836904D01*
X545822619Y-74836904D01*
X545936904Y-74875000D01*
X546241666Y-75598809D02*
X546355952Y-75636904D01*
X546546428Y-75636904D01*
X546622619Y-75598809D01*
X546660714Y-75560714D01*
X546698809Y-75484523D01*
X546698809Y-75408333D01*
X546660714Y-75332142D01*
X546622619Y-75294047D01*
X546546428Y-75255952D01*
X546394047Y-75217857D01*
X546317857Y-75179761D01*
X546279761Y-75141666D01*
X546241666Y-75065476D01*
X546241666Y-74989285D01*
X546279761Y-74913095D01*
X546317857Y-74875000D01*
X546394047Y-74836904D01*
X546584523Y-74836904D01*
X546698809Y-74875000D01*
X547041666Y-75560714D02*
X547079761Y-75598809D01*
X547041666Y-75636904D01*
X547003571Y-75598809D01*
X547041666Y-75560714D01*
X547041666Y-75636904D01*
X547041666Y-75141666D02*
X547079761Y-75179761D01*
X547041666Y-75217857D01*
X547003571Y-75179761D01*
X547041666Y-75141666D01*
X547041666Y-75217857D01*
X548184523Y-74836904D02*
X548260714Y-74836904D01*
X548336904Y-74875000D01*
X548375000Y-74913095D01*
X548413095Y-74989285D01*
X548451190Y-75141666D01*
X548451190Y-75332142D01*
X548413095Y-75484523D01*
X548375000Y-75560714D01*
X548336904Y-75598809D01*
X548260714Y-75636904D01*
X548184523Y-75636904D01*
X548108333Y-75598809D01*
X548070238Y-75560714D01*
X548032142Y-75484523D01*
X547994047Y-75332142D01*
X547994047Y-75141666D01*
X548032142Y-74989285D01*
X548070238Y-74913095D01*
X548108333Y-74875000D01*
X548184523Y-74836904D01*
X548794047Y-75636904D02*
X548794047Y-74836904D01*
X548794047Y-75141666D02*
X548870238Y-75103571D01*
X549022619Y-75103571D01*
X549098809Y-75141666D01*
X549136904Y-75179761D01*
X549175000Y-75255952D01*
X549175000Y-75484523D01*
X549136904Y-75560714D01*
X549098809Y-75598809D01*
X549022619Y-75636904D01*
X548870238Y-75636904D01*
X548794047Y-75598809D01*
X549936904Y-75636904D02*
X549479761Y-75636904D01*
X549708333Y-75636904D02*
X549708333Y-74836904D01*
X549632142Y-74951190D01*
X549555952Y-75027380D01*
X549479761Y-75065476D01*
X550432142Y-74836904D02*
X550508333Y-74836904D01*
X550584523Y-74875000D01*
X550622619Y-74913095D01*
X550660714Y-74989285D01*
X550698809Y-75141666D01*
X550698809Y-75332142D01*
X550660714Y-75484523D01*
X550622619Y-75560714D01*
X550584523Y-75598809D01*
X550508333Y-75636904D01*
X550432142Y-75636904D01*
X550355952Y-75598809D01*
X550317857Y-75560714D01*
X550279761Y-75484523D01*
X550241666Y-75332142D01*
X550241666Y-75141666D01*
X550279761Y-74989285D01*
X550317857Y-74913095D01*
X550355952Y-74875000D01*
X550432142Y-74836904D01*
X551194047Y-74836904D02*
X551270238Y-74836904D01*
X551346428Y-74875000D01*
X551384523Y-74913095D01*
X551422619Y-74989285D01*
X551460714Y-75141666D01*
X551460714Y-75332142D01*
X551422619Y-75484523D01*
X551384523Y-75560714D01*
X551346428Y-75598809D01*
X551270238Y-75636904D01*
X551194047Y-75636904D01*
X551117857Y-75598809D01*
X551079761Y-75560714D01*
X551041666Y-75484523D01*
X551003571Y-75332142D01*
X551003571Y-75141666D01*
X551041666Y-74989285D01*
X551079761Y-74913095D01*
X551117857Y-74875000D01*
X551194047Y-74836904D01*
X551955952Y-74836904D02*
X552032142Y-74836904D01*
X552108333Y-74875000D01*
X552146428Y-74913095D01*
X552184523Y-74989285D01*
X552222619Y-75141666D01*
X552222619Y-75332142D01*
X552184523Y-75484523D01*
X552146428Y-75560714D01*
X552108333Y-75598809D01*
X552032142Y-75636904D01*
X551955952Y-75636904D01*
X551879761Y-75598809D01*
X551841666Y-75560714D01*
X551803571Y-75484523D01*
X551765476Y-75332142D01*
X551765476Y-75141666D01*
X551803571Y-74989285D01*
X551841666Y-74913095D01*
X551879761Y-74875000D01*
X551955952Y-74836904D01*
X552717857Y-74836904D02*
X552794047Y-74836904D01*
X552870238Y-74875000D01*
X552908333Y-74913095D01*
X552946428Y-74989285D01*
X552984523Y-75141666D01*
X552984523Y-75332142D01*
X552946428Y-75484523D01*
X552908333Y-75560714D01*
X552870238Y-75598809D01*
X552794047Y-75636904D01*
X552717857Y-75636904D01*
X552641666Y-75598809D01*
X552603571Y-75560714D01*
X552565476Y-75484523D01*
X552527380Y-75332142D01*
X552527380Y-75141666D01*
X552565476Y-74989285D01*
X552603571Y-74913095D01*
X552641666Y-74875000D01*
X552717857Y-74836904D01*
X553251190Y-75636904D02*
X553670238Y-75103571D01*
X553251190Y-75103571D02*
X553670238Y-75636904D01*
X553898809Y-75636904D02*
X554317857Y-75103571D01*
X553898809Y-75103571D02*
X554317857Y-75636904D01*
X545859880Y-70061904D02*
X545859880Y-69261904D01*
X545859880Y-69642857D02*
X546317023Y-69642857D01*
X546317023Y-70061904D02*
X546317023Y-69261904D01*
X542812261Y-71083333D02*
X543193214Y-71083333D01*
X542736071Y-71311904D02*
X543002738Y-70511904D01*
X543269404Y-71311904D01*
X543536071Y-71311904D02*
X543536071Y-70511904D01*
X543726547Y-70511904D01*
X543840833Y-70550000D01*
X543917023Y-70626190D01*
X543955119Y-70702380D01*
X543993214Y-70854761D01*
X543993214Y-70969047D01*
X543955119Y-71121428D01*
X543917023Y-71197619D01*
X543840833Y-71273809D01*
X543726547Y-71311904D01*
X543536071Y-71311904D01*
X544336071Y-71311904D02*
X544336071Y-70511904D01*
X544526547Y-70511904D01*
X544640833Y-70550000D01*
X544717023Y-70626190D01*
X544755119Y-70702380D01*
X544793214Y-70854761D01*
X544793214Y-70969047D01*
X544755119Y-71121428D01*
X544717023Y-71197619D01*
X544640833Y-71273809D01*
X544526547Y-71311904D01*
X544336071Y-71311904D01*
X545593214Y-71311904D02*
X545326547Y-70930952D01*
X545136071Y-71311904D02*
X545136071Y-70511904D01*
X545440833Y-70511904D01*
X545517023Y-70550000D01*
X545555119Y-70588095D01*
X545593214Y-70664285D01*
X545593214Y-70778571D01*
X545555119Y-70854761D01*
X545517023Y-70892857D01*
X545440833Y-70930952D01*
X545136071Y-70930952D01*
X546088452Y-70511904D02*
X546164642Y-70511904D01*
X546240833Y-70550000D01*
X546278928Y-70588095D01*
X546317023Y-70664285D01*
X546355119Y-70816666D01*
X546355119Y-71007142D01*
X546317023Y-71159523D01*
X546278928Y-71235714D01*
X546240833Y-71273809D01*
X546164642Y-71311904D01*
X546088452Y-71311904D01*
X546012261Y-71273809D01*
X545974166Y-71235714D01*
X545936071Y-71159523D01*
X545897976Y-71007142D01*
X545897976Y-70816666D01*
X545936071Y-70664285D01*
X545974166Y-70588095D01*
X546012261Y-70550000D01*
X546088452Y-70511904D01*
X546431309Y-72561904D02*
X546050357Y-72561904D01*
X546050357Y-71761904D01*
X545839880Y-65381904D02*
X545839880Y-64581904D01*
X545839880Y-64962857D02*
X546297023Y-64962857D01*
X546297023Y-65381904D02*
X546297023Y-64581904D01*
X542792261Y-66403333D02*
X543173214Y-66403333D01*
X542716071Y-66631904D02*
X542982738Y-65831904D01*
X543249404Y-66631904D01*
X543516071Y-66631904D02*
X543516071Y-65831904D01*
X543706547Y-65831904D01*
X543820833Y-65870000D01*
X543897023Y-65946190D01*
X543935119Y-66022380D01*
X543973214Y-66174761D01*
X543973214Y-66289047D01*
X543935119Y-66441428D01*
X543897023Y-66517619D01*
X543820833Y-66593809D01*
X543706547Y-66631904D01*
X543516071Y-66631904D01*
X544316071Y-66631904D02*
X544316071Y-65831904D01*
X544506547Y-65831904D01*
X544620833Y-65870000D01*
X544697023Y-65946190D01*
X544735119Y-66022380D01*
X544773214Y-66174761D01*
X544773214Y-66289047D01*
X544735119Y-66441428D01*
X544697023Y-66517619D01*
X544620833Y-66593809D01*
X544506547Y-66631904D01*
X544316071Y-66631904D01*
X545573214Y-66631904D02*
X545306547Y-66250952D01*
X545116071Y-66631904D02*
X545116071Y-65831904D01*
X545420833Y-65831904D01*
X545497023Y-65870000D01*
X545535119Y-65908095D01*
X545573214Y-65984285D01*
X545573214Y-66098571D01*
X545535119Y-66174761D01*
X545497023Y-66212857D01*
X545420833Y-66250952D01*
X545116071Y-66250952D01*
X546335119Y-66631904D02*
X545877976Y-66631904D01*
X546106547Y-66631904D02*
X546106547Y-65831904D01*
X546030357Y-65946190D01*
X545954166Y-66022380D01*
X545877976Y-66060476D01*
X546411309Y-67881904D02*
X546030357Y-67881904D01*
X546030357Y-67081904D01*
D10*
X556310714Y-76954761D02*
X556453571Y-77002380D01*
X556691666Y-77002380D01*
X556786904Y-76954761D01*
X556834523Y-76907142D01*
X556882142Y-76811904D01*
X556882142Y-76716666D01*
X556834523Y-76621428D01*
X556786904Y-76573809D01*
X556691666Y-76526190D01*
X556501190Y-76478571D01*
X556405952Y-76430952D01*
X556358333Y-76383333D01*
X556310714Y-76288095D01*
X556310714Y-76192857D01*
X556358333Y-76097619D01*
X556405952Y-76050000D01*
X556501190Y-76002380D01*
X556739285Y-76002380D01*
X556882142Y-76050000D01*
X557310714Y-77002380D02*
X557310714Y-76002380D01*
X557548809Y-76002380D01*
X557691666Y-76050000D01*
X557786904Y-76145238D01*
X557834523Y-76240476D01*
X557882142Y-76430952D01*
X557882142Y-76573809D01*
X557834523Y-76764285D01*
X557786904Y-76859523D01*
X557691666Y-76954761D01*
X557548809Y-77002380D01*
X557310714Y-77002380D01*
X558263095Y-76716666D02*
X558739285Y-76716666D01*
X558167857Y-77002380D02*
X558501190Y-76002380D01*
X558834523Y-77002380D01*
X563609523Y-77004761D02*
X563752380Y-77052380D01*
X563990476Y-77052380D01*
X564085714Y-77004761D01*
X564133333Y-76957142D01*
X564180952Y-76861904D01*
X564180952Y-76766666D01*
X564133333Y-76671428D01*
X564085714Y-76623809D01*
X563990476Y-76576190D01*
X563800000Y-76528571D01*
X563704761Y-76480952D01*
X563657142Y-76433333D01*
X563609523Y-76338095D01*
X563609523Y-76242857D01*
X563657142Y-76147619D01*
X563704761Y-76100000D01*
X563800000Y-76052380D01*
X564038095Y-76052380D01*
X564180952Y-76100000D01*
X565180952Y-76957142D02*
X565133333Y-77004761D01*
X564990476Y-77052380D01*
X564895238Y-77052380D01*
X564752380Y-77004761D01*
X564657142Y-76909523D01*
X564609523Y-76814285D01*
X564561904Y-76623809D01*
X564561904Y-76480952D01*
X564609523Y-76290476D01*
X564657142Y-76195238D01*
X564752380Y-76100000D01*
X564895238Y-76052380D01*
X564990476Y-76052380D01*
X565133333Y-76100000D01*
X565180952Y-76147619D01*
X566085714Y-77052380D02*
X565609523Y-77052380D01*
X565609523Y-76052380D01*
X570528571Y-47432142D02*
X571671428Y-47432142D01*
X571100000Y-48003571D02*
X571100000Y-46860714D01*
X579478571Y-49882142D02*
X580621428Y-49882142D01*
X580050000Y-50453571D02*
X580050000Y-49310714D01*
X544403571Y-49832142D02*
X545546428Y-49832142D01*
X544975000Y-50403571D02*
X544975000Y-49260714D01*
X552003571Y-47432142D02*
X553146428Y-47432142D01*
X552575000Y-48003571D02*
X552575000Y-46860714D01*
D13*
%TO.C,J3*%
X554640000Y-80790000D02*
X557050000Y-80790000D01*
X554640000Y-83200000D02*
X554640000Y-80790000D01*
X567560000Y-81090000D02*
X554940000Y-81090000D01*
X567560000Y-89210000D02*
X567560000Y-81090000D01*
X554940000Y-89210000D02*
X567560000Y-89210000D01*
X554940000Y-81090000D02*
X554940000Y-89210000D01*
%TO.C,J1*%
X554985000Y-43460000D02*
X554985000Y-45110000D01*
X554985000Y-45110000D02*
X553135000Y-45110000D01*
X553135000Y-45110000D02*
X553135000Y-45900000D01*
X548915000Y-43460000D02*
X548915000Y-45110000D01*
X548915000Y-45110000D02*
X550765000Y-45110000D01*
X553665000Y-40490000D02*
X550235000Y-40490000D01*
%TO.C,J6*%
X573535000Y-43460000D02*
X573535000Y-45110000D01*
X573535000Y-45110000D02*
X571685000Y-45110000D01*
X571685000Y-45110000D02*
X571685000Y-45900000D01*
X567465000Y-43460000D02*
X567465000Y-45110000D01*
X567465000Y-45110000D02*
X569315000Y-45110000D01*
X572215000Y-40490000D02*
X568785000Y-40490000D01*
%TO.C,J7*%
X540595000Y-86440000D02*
X540595000Y-84790000D01*
X540595000Y-84790000D02*
X542445000Y-84790000D01*
X542445000Y-84790000D02*
X542445000Y-84000000D01*
X549165000Y-86440000D02*
X549165000Y-84790000D01*
X549165000Y-84790000D02*
X547315000Y-84790000D01*
X541915000Y-89410000D02*
X547845000Y-89410000D01*
%TO.C,J4*%
X564260000Y-50910000D02*
X565910000Y-50910000D01*
X565910000Y-50910000D02*
X565910000Y-40390000D01*
X565910000Y-40390000D02*
X556290000Y-40390000D01*
X556290000Y-40390000D02*
X556290000Y-50910000D01*
X556290000Y-50910000D02*
X558240000Y-50910000D01*
X561740000Y-50910000D02*
X560760000Y-50910000D01*
X566210000Y-48800000D02*
X566210000Y-51210000D01*
X566210000Y-51210000D02*
X564260000Y-51210000D01*
%TO.C,C3*%
X561078733Y-53060000D02*
X561421267Y-53060000D01*
X561078733Y-52040000D02*
X561421267Y-52040000D01*
D14*
%TO.C,G\u002A\u002A\u002A*%
G36*
X573448348Y-82864116D02*
G01*
X573747248Y-82882854D01*
X573919718Y-82912046D01*
X573955000Y-82936875D01*
X573878912Y-82972193D01*
X573663428Y-82998184D01*
X573327718Y-83013182D01*
X573042187Y-83016250D01*
X572636026Y-83009633D01*
X572337126Y-82990895D01*
X572164656Y-82961703D01*
X572129375Y-82936875D01*
X572205462Y-82901556D01*
X572420946Y-82875565D01*
X572756656Y-82860567D01*
X573042187Y-82857500D01*
X573448348Y-82864116D01*
G37*
X573448348Y-82864116D02*
X573747248Y-82882854D01*
X573919718Y-82912046D01*
X573955000Y-82936875D01*
X573878912Y-82972193D01*
X573663428Y-82998184D01*
X573327718Y-83013182D01*
X573042187Y-83016250D01*
X572636026Y-83009633D01*
X572337126Y-82990895D01*
X572164656Y-82961703D01*
X572129375Y-82936875D01*
X572205462Y-82901556D01*
X572420946Y-82875565D01*
X572756656Y-82860567D01*
X573042187Y-82857500D01*
X573448348Y-82864116D01*
G36*
X573448348Y-83499116D02*
G01*
X573747248Y-83517854D01*
X573919718Y-83547046D01*
X573955000Y-83571875D01*
X573878912Y-83607193D01*
X573663428Y-83633184D01*
X573327718Y-83648182D01*
X573042187Y-83651250D01*
X572636026Y-83644633D01*
X572337126Y-83625895D01*
X572164656Y-83596703D01*
X572129375Y-83571875D01*
X572205462Y-83536556D01*
X572420946Y-83510565D01*
X572756656Y-83495567D01*
X573042187Y-83492500D01*
X573448348Y-83499116D01*
G37*
X573448348Y-83499116D02*
X573747248Y-83517854D01*
X573919718Y-83547046D01*
X573955000Y-83571875D01*
X573878912Y-83607193D01*
X573663428Y-83633184D01*
X573327718Y-83648182D01*
X573042187Y-83651250D01*
X572636026Y-83644633D01*
X572337126Y-83625895D01*
X572164656Y-83596703D01*
X572129375Y-83571875D01*
X572205462Y-83536556D01*
X572420946Y-83510565D01*
X572756656Y-83495567D01*
X573042187Y-83492500D01*
X573448348Y-83499116D01*
G36*
X577811577Y-82801397D02*
G01*
X577997799Y-82929938D01*
X578100454Y-83154895D01*
X578108958Y-83254375D01*
X578047039Y-83501630D01*
X577889741Y-83667448D01*
X577679750Y-83733432D01*
X577459751Y-83681184D01*
X577340739Y-83585468D01*
X577226643Y-83359520D01*
X577227581Y-83323119D01*
X577386567Y-83323119D01*
X577450664Y-83456625D01*
X577613814Y-83564473D01*
X577785084Y-83514653D01*
X577828500Y-83476625D01*
X577918048Y-83290970D01*
X577871164Y-83093882D01*
X577798034Y-83010728D01*
X577640116Y-82954199D01*
X577497662Y-83014681D01*
X577402528Y-83151284D01*
X577386567Y-83323119D01*
X577227581Y-83323119D01*
X577233044Y-83111304D01*
X577354531Y-82909489D01*
X577583313Y-82788253D01*
X577811577Y-82801397D01*
G37*
X577811577Y-82801397D02*
X577997799Y-82929938D01*
X578100454Y-83154895D01*
X578108958Y-83254375D01*
X578047039Y-83501630D01*
X577889741Y-83667448D01*
X577679750Y-83733432D01*
X577459751Y-83681184D01*
X577340739Y-83585468D01*
X577226643Y-83359520D01*
X577227581Y-83323119D01*
X577386567Y-83323119D01*
X577450664Y-83456625D01*
X577613814Y-83564473D01*
X577785084Y-83514653D01*
X577828500Y-83476625D01*
X577918048Y-83290970D01*
X577871164Y-83093882D01*
X577798034Y-83010728D01*
X577640116Y-82954199D01*
X577497662Y-83014681D01*
X577402528Y-83151284D01*
X577386567Y-83323119D01*
X577227581Y-83323119D01*
X577233044Y-83111304D01*
X577354531Y-82909489D01*
X577583313Y-82788253D01*
X577811577Y-82801397D01*
G36*
X580248301Y-82067255D02*
G01*
X580481181Y-82083243D01*
X580633628Y-82119922D01*
X580744769Y-82185503D01*
X580824545Y-82258579D01*
X580983929Y-82481352D01*
X580996560Y-82702752D01*
X580862229Y-82950471D01*
X580818888Y-83004209D01*
X580707750Y-83163373D01*
X580675568Y-83269191D01*
X580685288Y-83283811D01*
X580760523Y-83369244D01*
X580886590Y-83547994D01*
X581001558Y-83726324D01*
X581250942Y-84127500D01*
X580904610Y-84127500D01*
X580715516Y-84120554D01*
X580587705Y-84079002D01*
X580479519Y-83971772D01*
X580349301Y-83767791D01*
X580292733Y-83671093D01*
X580028409Y-83216787D01*
X580294296Y-83216787D01*
X580340000Y-83350761D01*
X580454143Y-83574245D01*
X580612330Y-83824372D01*
X580753361Y-83954585D01*
X580802923Y-83968082D01*
X580892516Y-83957727D01*
X580892880Y-83897479D01*
X580808113Y-83750468D01*
X580659443Y-83534046D01*
X580525215Y-83364855D01*
X580430564Y-83242030D01*
X580447001Y-83162396D01*
X580579556Y-83065369D01*
X580727129Y-82898489D01*
X580785943Y-82683550D01*
X580762046Y-82467822D01*
X580661487Y-82298575D01*
X580490318Y-82223080D01*
X580471687Y-82222499D01*
X580396869Y-82244749D01*
X580447875Y-82317750D01*
X580529918Y-82495772D01*
X580533350Y-82733588D01*
X580463643Y-82956338D01*
X580394612Y-83046673D01*
X580314233Y-83130783D01*
X580294296Y-83216787D01*
X580028409Y-83216787D01*
X580027187Y-83214687D01*
X580002493Y-83557897D01*
X580007729Y-83796763D01*
X580050709Y-83978847D01*
X580071743Y-84014303D01*
X580100926Y-84075972D01*
X580042207Y-84110519D01*
X579869495Y-84125185D01*
X579663844Y-84127500D01*
X579392149Y-84121084D01*
X579257588Y-84098522D01*
X579238937Y-84054843D01*
X579257250Y-84032250D01*
X579307280Y-83895825D01*
X579339201Y-83609384D01*
X579352222Y-83180713D01*
X579352500Y-83095625D01*
X579511250Y-83095625D01*
X579514650Y-83486447D01*
X579527140Y-83743781D01*
X579552151Y-83892788D01*
X579593113Y-83958630D01*
X579630312Y-83968750D01*
X579683606Y-83943810D01*
X579718697Y-83852216D01*
X579739016Y-83668806D01*
X579747995Y-83368420D01*
X579749375Y-83095625D01*
X579745974Y-82704802D01*
X579743754Y-82659062D01*
X579987500Y-82659062D01*
X580008857Y-82948862D01*
X580074849Y-83088760D01*
X580188353Y-83082010D01*
X580289125Y-83000375D01*
X580379247Y-82824195D01*
X580384956Y-82605350D01*
X580319983Y-82397664D01*
X580198058Y-82254959D01*
X580090687Y-82222500D01*
X580024819Y-82283924D01*
X579992380Y-82478099D01*
X579987500Y-82659062D01*
X579743754Y-82659062D01*
X579733484Y-82447468D01*
X579708473Y-82298461D01*
X579667511Y-82232619D01*
X579630312Y-82222500D01*
X579577018Y-82247439D01*
X579541927Y-82339033D01*
X579521608Y-82522443D01*
X579512629Y-82822829D01*
X579511250Y-83095625D01*
X579352500Y-83095625D01*
X579342719Y-82643910D01*
X579313906Y-82333122D01*
X579266851Y-82171048D01*
X579257250Y-82159000D01*
X579245264Y-82113126D01*
X579332672Y-82083904D01*
X579539007Y-82068417D01*
X579883807Y-82063753D01*
X579895857Y-82063750D01*
X580248301Y-82067255D01*
G37*
X580248301Y-82067255D02*
X580481181Y-82083243D01*
X580633628Y-82119922D01*
X580744769Y-82185503D01*
X580824545Y-82258579D01*
X580983929Y-82481352D01*
X580996560Y-82702752D01*
X580862229Y-82950471D01*
X580818888Y-83004209D01*
X580707750Y-83163373D01*
X580675568Y-83269191D01*
X580685288Y-83283811D01*
X580760523Y-83369244D01*
X580886590Y-83547994D01*
X581001558Y-83726324D01*
X581250942Y-84127500D01*
X580904610Y-84127500D01*
X580715516Y-84120554D01*
X580587705Y-84079002D01*
X580479519Y-83971772D01*
X580349301Y-83767791D01*
X580292733Y-83671093D01*
X580028409Y-83216787D01*
X580294296Y-83216787D01*
X580340000Y-83350761D01*
X580454143Y-83574245D01*
X580612330Y-83824372D01*
X580753361Y-83954585D01*
X580802923Y-83968082D01*
X580892516Y-83957727D01*
X580892880Y-83897479D01*
X580808113Y-83750468D01*
X580659443Y-83534046D01*
X580525215Y-83364855D01*
X580430564Y-83242030D01*
X580447001Y-83162396D01*
X580579556Y-83065369D01*
X580727129Y-82898489D01*
X580785943Y-82683550D01*
X580762046Y-82467822D01*
X580661487Y-82298575D01*
X580490318Y-82223080D01*
X580471687Y-82222499D01*
X580396869Y-82244749D01*
X580447875Y-82317750D01*
X580529918Y-82495772D01*
X580533350Y-82733588D01*
X580463643Y-82956338D01*
X580394612Y-83046673D01*
X580314233Y-83130783D01*
X580294296Y-83216787D01*
X580028409Y-83216787D01*
X580027187Y-83214687D01*
X580002493Y-83557897D01*
X580007729Y-83796763D01*
X580050709Y-83978847D01*
X580071743Y-84014303D01*
X580100926Y-84075972D01*
X580042207Y-84110519D01*
X579869495Y-84125185D01*
X579663844Y-84127500D01*
X579392149Y-84121084D01*
X579257588Y-84098522D01*
X579238937Y-84054843D01*
X579257250Y-84032250D01*
X579307280Y-83895825D01*
X579339201Y-83609384D01*
X579352222Y-83180713D01*
X579352500Y-83095625D01*
X579511250Y-83095625D01*
X579514650Y-83486447D01*
X579527140Y-83743781D01*
X579552151Y-83892788D01*
X579593113Y-83958630D01*
X579630312Y-83968750D01*
X579683606Y-83943810D01*
X579718697Y-83852216D01*
X579739016Y-83668806D01*
X579747995Y-83368420D01*
X579749375Y-83095625D01*
X579745974Y-82704802D01*
X579743754Y-82659062D01*
X579987500Y-82659062D01*
X580008857Y-82948862D01*
X580074849Y-83088760D01*
X580188353Y-83082010D01*
X580289125Y-83000375D01*
X580379247Y-82824195D01*
X580384956Y-82605350D01*
X580319983Y-82397664D01*
X580198058Y-82254959D01*
X580090687Y-82222500D01*
X580024819Y-82283924D01*
X579992380Y-82478099D01*
X579987500Y-82659062D01*
X579743754Y-82659062D01*
X579733484Y-82447468D01*
X579708473Y-82298461D01*
X579667511Y-82232619D01*
X579630312Y-82222500D01*
X579577018Y-82247439D01*
X579541927Y-82339033D01*
X579521608Y-82522443D01*
X579512629Y-82822829D01*
X579511250Y-83095625D01*
X579352500Y-83095625D01*
X579342719Y-82643910D01*
X579313906Y-82333122D01*
X579266851Y-82171048D01*
X579257250Y-82159000D01*
X579245264Y-82113126D01*
X579332672Y-82083904D01*
X579539007Y-82068417D01*
X579883807Y-82063753D01*
X579895857Y-82063750D01*
X580248301Y-82067255D01*
G36*
X575975505Y-82073380D02*
G01*
X576103228Y-82094124D01*
X576104258Y-82131939D01*
X576078281Y-82149482D01*
X576015918Y-82206720D01*
X575975189Y-82311172D01*
X575951763Y-82492338D01*
X575941310Y-82779718D01*
X575939375Y-83095625D01*
X575942732Y-83486032D01*
X575955693Y-83747278D01*
X575982587Y-83908860D01*
X576027746Y-84000280D01*
X576078281Y-84041767D01*
X576117056Y-84086255D01*
X576034584Y-84112456D01*
X575814992Y-84123914D01*
X575705218Y-84125086D01*
X575429826Y-84120125D01*
X575291609Y-84098793D01*
X575269420Y-84056378D01*
X575288500Y-84032250D01*
X575333797Y-83907943D01*
X575365150Y-83667686D01*
X575382560Y-83353665D01*
X575385147Y-83095625D01*
X575542500Y-83095625D01*
X575545900Y-83486447D01*
X575558390Y-83743781D01*
X575583401Y-83892788D01*
X575624363Y-83958630D01*
X575661562Y-83968750D01*
X575714856Y-83943810D01*
X575749947Y-83852216D01*
X575770266Y-83668806D01*
X575779245Y-83368420D01*
X575780625Y-83095625D01*
X575777224Y-82704802D01*
X575764734Y-82447468D01*
X575739723Y-82298461D01*
X575698761Y-82232619D01*
X575661562Y-82222500D01*
X575608268Y-82247439D01*
X575573177Y-82339033D01*
X575552858Y-82522443D01*
X575543879Y-82822829D01*
X575542500Y-83095625D01*
X575385147Y-83095625D01*
X575386026Y-83008065D01*
X575375548Y-82673073D01*
X575351126Y-82390875D01*
X575312760Y-82203657D01*
X575288500Y-82159000D01*
X575269895Y-82106753D01*
X575358794Y-82077489D01*
X575576342Y-82066495D01*
X575705218Y-82066163D01*
X575975505Y-82073380D01*
G37*
X575975505Y-82073380D02*
X576103228Y-82094124D01*
X576104258Y-82131939D01*
X576078281Y-82149482D01*
X576015918Y-82206720D01*
X575975189Y-82311172D01*
X575951763Y-82492338D01*
X575941310Y-82779718D01*
X575939375Y-83095625D01*
X575942732Y-83486032D01*
X575955693Y-83747278D01*
X575982587Y-83908860D01*
X576027746Y-84000280D01*
X576078281Y-84041767D01*
X576117056Y-84086255D01*
X576034584Y-84112456D01*
X575814992Y-84123914D01*
X575705218Y-84125086D01*
X575429826Y-84120125D01*
X575291609Y-84098793D01*
X575269420Y-84056378D01*
X575288500Y-84032250D01*
X575333797Y-83907943D01*
X575365150Y-83667686D01*
X575382560Y-83353665D01*
X575385147Y-83095625D01*
X575542500Y-83095625D01*
X575545900Y-83486447D01*
X575558390Y-83743781D01*
X575583401Y-83892788D01*
X575624363Y-83958630D01*
X575661562Y-83968750D01*
X575714856Y-83943810D01*
X575749947Y-83852216D01*
X575770266Y-83668806D01*
X575779245Y-83368420D01*
X575780625Y-83095625D01*
X575777224Y-82704802D01*
X575764734Y-82447468D01*
X575739723Y-82298461D01*
X575698761Y-82232619D01*
X575661562Y-82222500D01*
X575608268Y-82247439D01*
X575573177Y-82339033D01*
X575552858Y-82522443D01*
X575543879Y-82822829D01*
X575542500Y-83095625D01*
X575385147Y-83095625D01*
X575386026Y-83008065D01*
X575375548Y-82673073D01*
X575351126Y-82390875D01*
X575312760Y-82203657D01*
X575288500Y-82159000D01*
X575269895Y-82106753D01*
X575358794Y-82077489D01*
X575576342Y-82066495D01*
X575705218Y-82066163D01*
X575975505Y-82073380D01*
G36*
X569782050Y-82068805D02*
G01*
X569913963Y-82089060D01*
X569939947Y-82132152D01*
X569911038Y-82177795D01*
X569870990Y-82272563D01*
X569875756Y-82430839D01*
X569928806Y-82685161D01*
X569989323Y-82912014D01*
X570072458Y-83202875D01*
X570140622Y-83427994D01*
X570182130Y-83549196D01*
X570187516Y-83559460D01*
X570220797Y-83502146D01*
X570288181Y-83325748D01*
X570377537Y-83063049D01*
X570418754Y-82934692D01*
X570520261Y-82589624D01*
X570566236Y-82362898D01*
X570561016Y-82225829D01*
X570533897Y-82173200D01*
X570503220Y-82105611D01*
X570577214Y-82074701D01*
X570782183Y-82069878D01*
X570790124Y-82070016D01*
X570976105Y-82081204D01*
X571053974Y-82102481D01*
X571041662Y-82115087D01*
X570991746Y-82162893D01*
X570923693Y-82281948D01*
X570830738Y-82488234D01*
X570706116Y-82797732D01*
X570543060Y-83226425D01*
X570349393Y-83750468D01*
X570255147Y-83977197D01*
X570164554Y-84089376D01*
X570039504Y-84125611D01*
X569977193Y-84127500D01*
X569799514Y-84097454D01*
X569709183Y-84028281D01*
X569674289Y-83912655D01*
X569608142Y-83682613D01*
X569521768Y-83376756D01*
X569465405Y-83175000D01*
X569363106Y-82829941D01*
X569261817Y-82526565D01*
X569181131Y-82320069D01*
X569428634Y-82320069D01*
X569454180Y-82477538D01*
X569522843Y-82744387D01*
X569604975Y-83031740D01*
X569705901Y-83372122D01*
X569792932Y-83655018D01*
X569855320Y-83846122D01*
X569879854Y-83909218D01*
X569973344Y-83969528D01*
X570051062Y-83905182D01*
X570064404Y-83829843D01*
X570037611Y-83636738D01*
X569969039Y-83367287D01*
X569872659Y-83060437D01*
X569762439Y-82755137D01*
X569652349Y-82490334D01*
X569556358Y-82304975D01*
X569493549Y-82238264D01*
X569442869Y-82248229D01*
X569428634Y-82320069D01*
X569181131Y-82320069D01*
X569176776Y-82308925D01*
X569142838Y-82242343D01*
X569087392Y-82144392D01*
X569097482Y-82091000D01*
X569201506Y-82068646D01*
X569427861Y-82063807D01*
X569517889Y-82063749D01*
X569782050Y-82068805D01*
G37*
X569782050Y-82068805D02*
X569913963Y-82089060D01*
X569939947Y-82132152D01*
X569911038Y-82177795D01*
X569870990Y-82272563D01*
X569875756Y-82430839D01*
X569928806Y-82685161D01*
X569989323Y-82912014D01*
X570072458Y-83202875D01*
X570140622Y-83427994D01*
X570182130Y-83549196D01*
X570187516Y-83559460D01*
X570220797Y-83502146D01*
X570288181Y-83325748D01*
X570377537Y-83063049D01*
X570418754Y-82934692D01*
X570520261Y-82589624D01*
X570566236Y-82362898D01*
X570561016Y-82225829D01*
X570533897Y-82173200D01*
X570503220Y-82105611D01*
X570577214Y-82074701D01*
X570782183Y-82069878D01*
X570790124Y-82070016D01*
X570976105Y-82081204D01*
X571053974Y-82102481D01*
X571041662Y-82115087D01*
X570991746Y-82162893D01*
X570923693Y-82281948D01*
X570830738Y-82488234D01*
X570706116Y-82797732D01*
X570543060Y-83226425D01*
X570349393Y-83750468D01*
X570255147Y-83977197D01*
X570164554Y-84089376D01*
X570039504Y-84125611D01*
X569977193Y-84127500D01*
X569799514Y-84097454D01*
X569709183Y-84028281D01*
X569674289Y-83912655D01*
X569608142Y-83682613D01*
X569521768Y-83376756D01*
X569465405Y-83175000D01*
X569363106Y-82829941D01*
X569261817Y-82526565D01*
X569181131Y-82320069D01*
X569428634Y-82320069D01*
X569454180Y-82477538D01*
X569522843Y-82744387D01*
X569604975Y-83031740D01*
X569705901Y-83372122D01*
X569792932Y-83655018D01*
X569855320Y-83846122D01*
X569879854Y-83909218D01*
X569973344Y-83969528D01*
X570051062Y-83905182D01*
X570064404Y-83829843D01*
X570037611Y-83636738D01*
X569969039Y-83367287D01*
X569872659Y-83060437D01*
X569762439Y-82755137D01*
X569652349Y-82490334D01*
X569556358Y-82304975D01*
X569493549Y-82238264D01*
X569442869Y-82248229D01*
X569428634Y-82320069D01*
X569181131Y-82320069D01*
X569176776Y-82308925D01*
X569142838Y-82242343D01*
X569087392Y-82144392D01*
X569097482Y-82091000D01*
X569201506Y-82068646D01*
X569427861Y-82063807D01*
X569517889Y-82063749D01*
X569782050Y-82068805D01*
G36*
X578371986Y-50835524D02*
G01*
X578554391Y-51029998D01*
X578819163Y-51323294D01*
X579143440Y-51689042D01*
X579504360Y-52100873D01*
X579879062Y-52532418D01*
X580244684Y-52957309D01*
X580578364Y-53349175D01*
X580857240Y-53681648D01*
X581058451Y-53928358D01*
X581159135Y-54062937D01*
X581166406Y-54078388D01*
X581074378Y-54101775D01*
X580827020Y-54120127D01*
X580467425Y-54130957D01*
X580223828Y-54132812D01*
X579281250Y-54132812D01*
X579281250Y-59490625D01*
X572435156Y-59490625D01*
X572435156Y-57605468D01*
X577396094Y-57605468D01*
X577396094Y-54139754D01*
X576403146Y-54111478D01*
X575410198Y-54083203D01*
X576824826Y-52428154D01*
X577239512Y-51945513D01*
X577611227Y-51517688D01*
X577920702Y-51166461D01*
X578148673Y-50913614D01*
X578275871Y-50780929D01*
X578294810Y-50766240D01*
X578371986Y-50835524D01*
G37*
X578371986Y-50835524D02*
X578554391Y-51029998D01*
X578819163Y-51323294D01*
X579143440Y-51689042D01*
X579504360Y-52100873D01*
X579879062Y-52532418D01*
X580244684Y-52957309D01*
X580578364Y-53349175D01*
X580857240Y-53681648D01*
X581058451Y-53928358D01*
X581159135Y-54062937D01*
X581166406Y-54078388D01*
X581074378Y-54101775D01*
X580827020Y-54120127D01*
X580467425Y-54130957D01*
X580223828Y-54132812D01*
X579281250Y-54132812D01*
X579281250Y-59490625D01*
X572435156Y-59490625D01*
X572435156Y-57605468D01*
X577396094Y-57605468D01*
X577396094Y-54139754D01*
X576403146Y-54111478D01*
X575410198Y-54083203D01*
X576824826Y-52428154D01*
X577239512Y-51945513D01*
X577611227Y-51517688D01*
X577920702Y-51166461D01*
X578148673Y-50913614D01*
X578275871Y-50780929D01*
X578294810Y-50766240D01*
X578371986Y-50835524D01*
G36*
X551989476Y-57446986D02*
G01*
X551795002Y-57629391D01*
X551501706Y-57894163D01*
X551135958Y-58218440D01*
X550724127Y-58579360D01*
X550292582Y-58954062D01*
X549867691Y-59319684D01*
X549475825Y-59653364D01*
X549143352Y-59932240D01*
X548896642Y-60133451D01*
X548762063Y-60234135D01*
X548746612Y-60241406D01*
X548723225Y-60149378D01*
X548704873Y-59902020D01*
X548694043Y-59542425D01*
X548692188Y-59298828D01*
X548692188Y-58356250D01*
X543334375Y-58356250D01*
X543334375Y-51510156D01*
X545219532Y-51510156D01*
X545219532Y-56471094D01*
X548685246Y-56471094D01*
X548713522Y-55478146D01*
X548741797Y-54485198D01*
X550396846Y-55899826D01*
X550879487Y-56314512D01*
X551307312Y-56686227D01*
X551658539Y-56995702D01*
X551911386Y-57223673D01*
X552044071Y-57350871D01*
X552058760Y-57369810D01*
X551989476Y-57446986D01*
G37*
X551989476Y-57446986D02*
X551795002Y-57629391D01*
X551501706Y-57894163D01*
X551135958Y-58218440D01*
X550724127Y-58579360D01*
X550292582Y-58954062D01*
X549867691Y-59319684D01*
X549475825Y-59653364D01*
X549143352Y-59932240D01*
X548896642Y-60133451D01*
X548762063Y-60234135D01*
X548746612Y-60241406D01*
X548723225Y-60149378D01*
X548704873Y-59902020D01*
X548694043Y-59542425D01*
X548692188Y-59298828D01*
X548692188Y-58356250D01*
X543334375Y-58356250D01*
X543334375Y-51510156D01*
X545219532Y-51510156D01*
X545219532Y-56471094D01*
X548685246Y-56471094D01*
X548713522Y-55478146D01*
X548741797Y-54485198D01*
X550396846Y-55899826D01*
X550879487Y-56314512D01*
X551307312Y-56686227D01*
X551658539Y-56995702D01*
X551911386Y-57223673D01*
X552044071Y-57350871D01*
X552058760Y-57369810D01*
X551989476Y-57446986D01*
D13*
%TO.C,R5*%
X559197936Y-55390000D02*
X563302064Y-55390000D01*
X559197936Y-58810000D02*
X563302064Y-58810000D01*
%TO.C,R10*%
X557850000Y-54440000D02*
X564650000Y-54440000D01*
X557850000Y-59760000D02*
X564650000Y-59760000D01*
%TO.C,C2*%
X569803733Y-64940000D02*
X570146267Y-64940000D01*
X569803733Y-65960000D02*
X570146267Y-65960000D01*
%TO.C,R2*%
X570146267Y-71115000D02*
X569803733Y-71115000D01*
X570146267Y-72135000D02*
X569803733Y-72135000D01*
%TO.C,U1*%
X558690000Y-68500000D02*
X558690000Y-71950000D01*
X558690000Y-68500000D02*
X558690000Y-66550000D01*
X563810000Y-68500000D02*
X563810000Y-70450000D01*
X563810000Y-68500000D02*
X563810000Y-66550000D01*
%TO.C,R9*%
X550171267Y-71490000D02*
X549828733Y-71490000D01*
X550171267Y-72510000D02*
X549828733Y-72510000D01*
%TO.C,R8*%
X550171267Y-69490000D02*
X549828733Y-69490000D01*
X550171267Y-70510000D02*
X549828733Y-70510000D01*
%TO.C,R7*%
X550171267Y-66740000D02*
X549828733Y-66740000D01*
X550171267Y-67760000D02*
X549828733Y-67760000D01*
%TO.C,R6*%
X550171267Y-64740000D02*
X549828733Y-64740000D01*
X550171267Y-65760000D02*
X549828733Y-65760000D01*
%TO.C,R4*%
X563010000Y-77671267D02*
X563010000Y-77328733D01*
X561990000Y-77671267D02*
X561990000Y-77328733D01*
%TO.C,R3*%
X560510000Y-77671267D02*
X560510000Y-77328733D01*
X559490000Y-77671267D02*
X559490000Y-77328733D01*
%TO.C,R1*%
X570146267Y-69115000D02*
X569803733Y-69115000D01*
X570146267Y-70135000D02*
X569803733Y-70135000D01*
%TO.C,J5*%
X582860000Y-48810000D02*
X580450000Y-48810000D01*
X582860000Y-46400000D02*
X582860000Y-48810000D01*
X574940000Y-48510000D02*
X582560000Y-48510000D01*
X574940000Y-40390000D02*
X574940000Y-48510000D01*
X582560000Y-40390000D02*
X574940000Y-40390000D01*
X582560000Y-48510000D02*
X582560000Y-40390000D01*
%TO.C,J2*%
X547885000Y-48835000D02*
X545475000Y-48835000D01*
X547885000Y-46425000D02*
X547885000Y-48835000D01*
X539965000Y-48535000D02*
X547585000Y-48535000D01*
X539965000Y-40415000D02*
X539965000Y-48535000D01*
X547585000Y-40415000D02*
X539965000Y-40415000D01*
X547585000Y-48535000D02*
X547585000Y-40415000D01*
%TO.C,C1*%
X569803733Y-67885000D02*
X570146267Y-67885000D01*
X569803733Y-66865000D02*
X570146267Y-66865000D01*
%TO.C,J3*%
D15*
X553106666Y-88132380D02*
X553106666Y-88846666D01*
X553059047Y-88989523D01*
X552963809Y-89084761D01*
X552820952Y-89132380D01*
X552725714Y-89132380D01*
X553487619Y-88132380D02*
X554106666Y-88132380D01*
X553773333Y-88513333D01*
X553916190Y-88513333D01*
X554011428Y-88560952D01*
X554059047Y-88608571D01*
X554106666Y-88703809D01*
X554106666Y-88941904D01*
X554059047Y-89037142D01*
X554011428Y-89084761D01*
X553916190Y-89132380D01*
X553630476Y-89132380D01*
X553535238Y-89084761D01*
X553487619Y-89037142D01*
%TO.C,J1*%
X554066666Y-45777380D02*
X554066666Y-46491666D01*
X554019047Y-46634523D01*
X553923809Y-46729761D01*
X553780952Y-46777380D01*
X553685714Y-46777380D01*
X555066666Y-46777380D02*
X554495238Y-46777380D01*
X554780952Y-46777380D02*
X554780952Y-45777380D01*
X554685714Y-45920238D01*
X554590476Y-46015476D01*
X554495238Y-46063095D01*
%TO.C,J6*%
X567666666Y-45802380D02*
X567666666Y-46516666D01*
X567619047Y-46659523D01*
X567523809Y-46754761D01*
X567380952Y-46802380D01*
X567285714Y-46802380D01*
X568571428Y-45802380D02*
X568380952Y-45802380D01*
X568285714Y-45850000D01*
X568238095Y-45897619D01*
X568142857Y-46040476D01*
X568095238Y-46230952D01*
X568095238Y-46611904D01*
X568142857Y-46707142D01*
X568190476Y-46754761D01*
X568285714Y-46802380D01*
X568476190Y-46802380D01*
X568571428Y-46754761D01*
X568619047Y-46707142D01*
X568666666Y-46611904D01*
X568666666Y-46373809D01*
X568619047Y-46278571D01*
X568571428Y-46230952D01*
X568476190Y-46183333D01*
X568285714Y-46183333D01*
X568190476Y-46230952D01*
X568142857Y-46278571D01*
X568095238Y-46373809D01*
%TO.C,J7*%
X550436666Y-88132380D02*
X550436666Y-88846666D01*
X550389047Y-88989523D01*
X550293809Y-89084761D01*
X550150952Y-89132380D01*
X550055714Y-89132380D01*
X550817619Y-88132380D02*
X551484285Y-88132380D01*
X551055714Y-89132380D01*
%TO.C,J4*%
X567091666Y-50102380D02*
X567091666Y-50816666D01*
X567044047Y-50959523D01*
X566948809Y-51054761D01*
X566805952Y-51102380D01*
X566710714Y-51102380D01*
X567996428Y-50435714D02*
X567996428Y-51102380D01*
X567758333Y-50054761D02*
X567520238Y-50769047D01*
X568139285Y-50769047D01*
%TO.C,C3*%
X563908333Y-52907142D02*
X563860714Y-52954761D01*
X563717857Y-53002380D01*
X563622619Y-53002380D01*
X563479761Y-52954761D01*
X563384523Y-52859523D01*
X563336904Y-52764285D01*
X563289285Y-52573809D01*
X563289285Y-52430952D01*
X563336904Y-52240476D01*
X563384523Y-52145238D01*
X563479761Y-52050000D01*
X563622619Y-52002380D01*
X563717857Y-52002380D01*
X563860714Y-52050000D01*
X563908333Y-52097619D01*
X564241666Y-52002380D02*
X564860714Y-52002380D01*
X564527380Y-52383333D01*
X564670238Y-52383333D01*
X564765476Y-52430952D01*
X564813095Y-52478571D01*
X564860714Y-52573809D01*
X564860714Y-52811904D01*
X564813095Y-52907142D01*
X564765476Y-52954761D01*
X564670238Y-53002380D01*
X564384523Y-53002380D01*
X564289285Y-52954761D01*
X564241666Y-52907142D01*
%TO.C,R5*%
X569608333Y-60252380D02*
X569275000Y-59776190D01*
X569036904Y-60252380D02*
X569036904Y-59252380D01*
X569417857Y-59252380D01*
X569513095Y-59300000D01*
X569560714Y-59347619D01*
X569608333Y-59442857D01*
X569608333Y-59585714D01*
X569560714Y-59680952D01*
X569513095Y-59728571D01*
X569417857Y-59776190D01*
X569036904Y-59776190D01*
X570513095Y-59252380D02*
X570036904Y-59252380D01*
X569989285Y-59728571D01*
X570036904Y-59680952D01*
X570132142Y-59633333D01*
X570370238Y-59633333D01*
X570465476Y-59680952D01*
X570513095Y-59728571D01*
X570560714Y-59823809D01*
X570560714Y-60061904D01*
X570513095Y-60157142D01*
X570465476Y-60204761D01*
X570370238Y-60252380D01*
X570132142Y-60252380D01*
X570036904Y-60204761D01*
X569989285Y-60157142D01*
%TO.C,C2*%
X572783333Y-65807142D02*
X572735714Y-65854761D01*
X572592857Y-65902380D01*
X572497619Y-65902380D01*
X572354761Y-65854761D01*
X572259523Y-65759523D01*
X572211904Y-65664285D01*
X572164285Y-65473809D01*
X572164285Y-65330952D01*
X572211904Y-65140476D01*
X572259523Y-65045238D01*
X572354761Y-64950000D01*
X572497619Y-64902380D01*
X572592857Y-64902380D01*
X572735714Y-64950000D01*
X572783333Y-64997619D01*
X573164285Y-64997619D02*
X573211904Y-64950000D01*
X573307142Y-64902380D01*
X573545238Y-64902380D01*
X573640476Y-64950000D01*
X573688095Y-64997619D01*
X573735714Y-65092857D01*
X573735714Y-65188095D01*
X573688095Y-65330952D01*
X573116666Y-65902380D01*
X573735714Y-65902380D01*
%TO.C,R2*%
X572708333Y-72127380D02*
X572375000Y-71651190D01*
X572136904Y-72127380D02*
X572136904Y-71127380D01*
X572517857Y-71127380D01*
X572613095Y-71175000D01*
X572660714Y-71222619D01*
X572708333Y-71317857D01*
X572708333Y-71460714D01*
X572660714Y-71555952D01*
X572613095Y-71603571D01*
X572517857Y-71651190D01*
X572136904Y-71651190D01*
X573089285Y-71222619D02*
X573136904Y-71175000D01*
X573232142Y-71127380D01*
X573470238Y-71127380D01*
X573565476Y-71175000D01*
X573613095Y-71222619D01*
X573660714Y-71317857D01*
X573660714Y-71413095D01*
X573613095Y-71555952D01*
X573041666Y-72127380D01*
X573660714Y-72127380D01*
%TO.C,U1*%
X564638095Y-71052380D02*
X564638095Y-71861904D01*
X564685714Y-71957142D01*
X564733333Y-72004761D01*
X564828571Y-72052380D01*
X565019047Y-72052380D01*
X565114285Y-72004761D01*
X565161904Y-71957142D01*
X565209523Y-71861904D01*
X565209523Y-71052380D01*
X566209523Y-72052380D02*
X565638095Y-72052380D01*
X565923809Y-72052380D02*
X565923809Y-71052380D01*
X565828571Y-71195238D01*
X565733333Y-71290476D01*
X565638095Y-71338095D01*
%TO.C,R9*%
X552633333Y-72452380D02*
X552300000Y-71976190D01*
X552061904Y-72452380D02*
X552061904Y-71452380D01*
X552442857Y-71452380D01*
X552538095Y-71500000D01*
X552585714Y-71547619D01*
X552633333Y-71642857D01*
X552633333Y-71785714D01*
X552585714Y-71880952D01*
X552538095Y-71928571D01*
X552442857Y-71976190D01*
X552061904Y-71976190D01*
X553109523Y-72452380D02*
X553300000Y-72452380D01*
X553395238Y-72404761D01*
X553442857Y-72357142D01*
X553538095Y-72214285D01*
X553585714Y-72023809D01*
X553585714Y-71642857D01*
X553538095Y-71547619D01*
X553490476Y-71500000D01*
X553395238Y-71452380D01*
X553204761Y-71452380D01*
X553109523Y-71500000D01*
X553061904Y-71547619D01*
X553014285Y-71642857D01*
X553014285Y-71880952D01*
X553061904Y-71976190D01*
X553109523Y-72023809D01*
X553204761Y-72071428D01*
X553395238Y-72071428D01*
X553490476Y-72023809D01*
X553538095Y-71976190D01*
X553585714Y-71880952D01*
%TO.C,R8*%
X552633333Y-70452380D02*
X552300000Y-69976190D01*
X552061904Y-70452380D02*
X552061904Y-69452380D01*
X552442857Y-69452380D01*
X552538095Y-69500000D01*
X552585714Y-69547619D01*
X552633333Y-69642857D01*
X552633333Y-69785714D01*
X552585714Y-69880952D01*
X552538095Y-69928571D01*
X552442857Y-69976190D01*
X552061904Y-69976190D01*
X553204761Y-69880952D02*
X553109523Y-69833333D01*
X553061904Y-69785714D01*
X553014285Y-69690476D01*
X553014285Y-69642857D01*
X553061904Y-69547619D01*
X553109523Y-69500000D01*
X553204761Y-69452380D01*
X553395238Y-69452380D01*
X553490476Y-69500000D01*
X553538095Y-69547619D01*
X553585714Y-69642857D01*
X553585714Y-69690476D01*
X553538095Y-69785714D01*
X553490476Y-69833333D01*
X553395238Y-69880952D01*
X553204761Y-69880952D01*
X553109523Y-69928571D01*
X553061904Y-69976190D01*
X553014285Y-70071428D01*
X553014285Y-70261904D01*
X553061904Y-70357142D01*
X553109523Y-70404761D01*
X553204761Y-70452380D01*
X553395238Y-70452380D01*
X553490476Y-70404761D01*
X553538095Y-70357142D01*
X553585714Y-70261904D01*
X553585714Y-70071428D01*
X553538095Y-69976190D01*
X553490476Y-69928571D01*
X553395238Y-69880952D01*
%TO.C,R7*%
X552633333Y-67652380D02*
X552300000Y-67176190D01*
X552061904Y-67652380D02*
X552061904Y-66652380D01*
X552442857Y-66652380D01*
X552538095Y-66700000D01*
X552585714Y-66747619D01*
X552633333Y-66842857D01*
X552633333Y-66985714D01*
X552585714Y-67080952D01*
X552538095Y-67128571D01*
X552442857Y-67176190D01*
X552061904Y-67176190D01*
X552966666Y-66652380D02*
X553633333Y-66652380D01*
X553204761Y-67652380D01*
%TO.C,R6*%
X552633333Y-65652380D02*
X552300000Y-65176190D01*
X552061904Y-65652380D02*
X552061904Y-64652380D01*
X552442857Y-64652380D01*
X552538095Y-64700000D01*
X552585714Y-64747619D01*
X552633333Y-64842857D01*
X552633333Y-64985714D01*
X552585714Y-65080952D01*
X552538095Y-65128571D01*
X552442857Y-65176190D01*
X552061904Y-65176190D01*
X553490476Y-64652380D02*
X553300000Y-64652380D01*
X553204761Y-64700000D01*
X553157142Y-64747619D01*
X553061904Y-64890476D01*
X553014285Y-65080952D01*
X553014285Y-65461904D01*
X553061904Y-65557142D01*
X553109523Y-65604761D01*
X553204761Y-65652380D01*
X553395238Y-65652380D01*
X553490476Y-65604761D01*
X553538095Y-65557142D01*
X553585714Y-65461904D01*
X553585714Y-65223809D01*
X553538095Y-65128571D01*
X553490476Y-65080952D01*
X553395238Y-65033333D01*
X553204761Y-65033333D01*
X553109523Y-65080952D01*
X553061904Y-65128571D01*
X553014285Y-65223809D01*
%TO.C,R4*%
X564333333Y-78977380D02*
X564000000Y-78501190D01*
X563761904Y-78977380D02*
X563761904Y-77977380D01*
X564142857Y-77977380D01*
X564238095Y-78025000D01*
X564285714Y-78072619D01*
X564333333Y-78167857D01*
X564333333Y-78310714D01*
X564285714Y-78405952D01*
X564238095Y-78453571D01*
X564142857Y-78501190D01*
X563761904Y-78501190D01*
X565190476Y-78310714D02*
X565190476Y-78977380D01*
X564952380Y-77929761D02*
X564714285Y-78644047D01*
X565333333Y-78644047D01*
%TO.C,R3*%
X557883333Y-78977380D02*
X557550000Y-78501190D01*
X557311904Y-78977380D02*
X557311904Y-77977380D01*
X557692857Y-77977380D01*
X557788095Y-78025000D01*
X557835714Y-78072619D01*
X557883333Y-78167857D01*
X557883333Y-78310714D01*
X557835714Y-78405952D01*
X557788095Y-78453571D01*
X557692857Y-78501190D01*
X557311904Y-78501190D01*
X558216666Y-77977380D02*
X558835714Y-77977380D01*
X558502380Y-78358333D01*
X558645238Y-78358333D01*
X558740476Y-78405952D01*
X558788095Y-78453571D01*
X558835714Y-78548809D01*
X558835714Y-78786904D01*
X558788095Y-78882142D01*
X558740476Y-78929761D01*
X558645238Y-78977380D01*
X558359523Y-78977380D01*
X558264285Y-78929761D01*
X558216666Y-78882142D01*
%TO.C,R1*%
X572758333Y-70177380D02*
X572425000Y-69701190D01*
X572186904Y-70177380D02*
X572186904Y-69177380D01*
X572567857Y-69177380D01*
X572663095Y-69225000D01*
X572710714Y-69272619D01*
X572758333Y-69367857D01*
X572758333Y-69510714D01*
X572710714Y-69605952D01*
X572663095Y-69653571D01*
X572567857Y-69701190D01*
X572186904Y-69701190D01*
X573710714Y-70177380D02*
X573139285Y-70177380D01*
X573425000Y-70177380D02*
X573425000Y-69177380D01*
X573329761Y-69320238D01*
X573234523Y-69415476D01*
X573139285Y-69463095D01*
%TO.C,J5*%
X573156666Y-47412380D02*
X573156666Y-48126666D01*
X573109047Y-48269523D01*
X573013809Y-48364761D01*
X572870952Y-48412380D01*
X572775714Y-48412380D01*
X574109047Y-47412380D02*
X573632857Y-47412380D01*
X573585238Y-47888571D01*
X573632857Y-47840952D01*
X573728095Y-47793333D01*
X573966190Y-47793333D01*
X574061428Y-47840952D01*
X574109047Y-47888571D01*
X574156666Y-47983809D01*
X574156666Y-48221904D01*
X574109047Y-48317142D01*
X574061428Y-48364761D01*
X573966190Y-48412380D01*
X573728095Y-48412380D01*
X573632857Y-48364761D01*
X573585238Y-48317142D01*
%TO.C,J2*%
X548826666Y-47462380D02*
X548826666Y-48176666D01*
X548779047Y-48319523D01*
X548683809Y-48414761D01*
X548540952Y-48462380D01*
X548445714Y-48462380D01*
X549255238Y-47557619D02*
X549302857Y-47510000D01*
X549398095Y-47462380D01*
X549636190Y-47462380D01*
X549731428Y-47510000D01*
X549779047Y-47557619D01*
X549826666Y-47652857D01*
X549826666Y-47748095D01*
X549779047Y-47890952D01*
X549207619Y-48462380D01*
X549826666Y-48462380D01*
%TO.C,C1*%
X572808333Y-67882142D02*
X572760714Y-67929761D01*
X572617857Y-67977380D01*
X572522619Y-67977380D01*
X572379761Y-67929761D01*
X572284523Y-67834523D01*
X572236904Y-67739285D01*
X572189285Y-67548809D01*
X572189285Y-67405952D01*
X572236904Y-67215476D01*
X572284523Y-67120238D01*
X572379761Y-67025000D01*
X572522619Y-66977380D01*
X572617857Y-66977380D01*
X572760714Y-67025000D01*
X572808333Y-67072619D01*
X573760714Y-67977380D02*
X573189285Y-67977380D01*
X573475000Y-67977380D02*
X573475000Y-66977380D01*
X573379761Y-67120238D01*
X573284523Y-67215476D01*
X573189285Y-67263095D01*
%TD*%
M02*
