M48
; DRILL file {KiCad (5.1.7)-1} date 12/07/20 14:23:10
; FORMAT={-:-/ absolute / inch / decimal}
; #@! TF.CreationDate,2020-12-07T14:23:10+09:00
; #@! TF.GenerationSoftware,Kicad,Pcbnew,(5.1.7)-1
; #@! TF.FileFunction,Plated,1,2,PTH
FMAT,2
INCH
T1C0.0157
T2C0.0236
T3C0.0335
T4C0.0630
%
G90
G05
T1
X21.5354Y-2.7559
X21.5638Y-2.5685
X22.0476Y-3.1512
X22.0543Y-2.687
T2
X22.436Y-1.7736
X22.4852Y-1.7736
X21.7057Y-1.7736
X21.7549Y-1.7736
X21.3781Y-3.3406
X21.4274Y-3.3406
X21.4766Y-3.3406
X21.5258Y-3.3406
T3
X21.9488Y-3.248
X22.0472Y-3.248
X22.1457Y-3.248
X22.2441Y-3.248
X22.7362Y-1.8543
X22.8346Y-1.8543
X21.3593Y-1.8553
X21.4577Y-1.8553
T4
X22.0276Y-1.9606
X22.1654Y-1.9606
T0
M30
