%TF.GenerationSoftware,KiCad,Pcbnew,(5.1.6)-1*%
%TF.CreationDate,2020-11-04T19:59:44+09:00*%
%TF.ProjectId,FlightComputer,466c6967-6874-4436-9f6d-70757465722e,rev?*%
%TF.SameCoordinates,Original*%
%TF.FileFunction,Paste,Bot*%
%TF.FilePolarity,Positive*%
%FSLAX46Y46*%
G04 Gerber Fmt 4.6, Leading zero omitted, Abs format (unit mm)*
G04 Created by KiCad (PCBNEW (5.1.6)-1) date 2020-11-04 19:59:44*
%MOMM*%
%LPD*%
G01*
G04 APERTURE LIST*
G04 APERTURE END LIST*
%TO.C,R94*%
G36*
G01*
X65110000Y-81252500D02*
X65110000Y-81597500D01*
G75*
G02*
X64962500Y-81745000I-147500J0D01*
G01*
X64667500Y-81745000D01*
G75*
G02*
X64520000Y-81597500I0J147500D01*
G01*
X64520000Y-81252500D01*
G75*
G02*
X64667500Y-81105000I147500J0D01*
G01*
X64962500Y-81105000D01*
G75*
G02*
X65110000Y-81252500I0J-147500D01*
G01*
G37*
G36*
G01*
X66080000Y-81252500D02*
X66080000Y-81597500D01*
G75*
G02*
X65932500Y-81745000I-147500J0D01*
G01*
X65637500Y-81745000D01*
G75*
G02*
X65490000Y-81597500I0J147500D01*
G01*
X65490000Y-81252500D01*
G75*
G02*
X65637500Y-81105000I147500J0D01*
G01*
X65932500Y-81105000D01*
G75*
G02*
X66080000Y-81252500I0J-147500D01*
G01*
G37*
%TD*%
%TO.C,R91*%
G36*
G01*
X83990000Y-81597500D02*
X83990000Y-81252500D01*
G75*
G02*
X84137500Y-81105000I147500J0D01*
G01*
X84432500Y-81105000D01*
G75*
G02*
X84580000Y-81252500I0J-147500D01*
G01*
X84580000Y-81597500D01*
G75*
G02*
X84432500Y-81745000I-147500J0D01*
G01*
X84137500Y-81745000D01*
G75*
G02*
X83990000Y-81597500I0J147500D01*
G01*
G37*
G36*
G01*
X83020000Y-81597500D02*
X83020000Y-81252500D01*
G75*
G02*
X83167500Y-81105000I147500J0D01*
G01*
X83462500Y-81105000D01*
G75*
G02*
X83610000Y-81252500I0J-147500D01*
G01*
X83610000Y-81597500D01*
G75*
G02*
X83462500Y-81745000I-147500J0D01*
G01*
X83167500Y-81745000D01*
G75*
G02*
X83020000Y-81597500I0J147500D01*
G01*
G37*
%TD*%
%TO.C,R89*%
G36*
G01*
X83990000Y-83197500D02*
X83990000Y-82852500D01*
G75*
G02*
X84137500Y-82705000I147500J0D01*
G01*
X84432500Y-82705000D01*
G75*
G02*
X84580000Y-82852500I0J-147500D01*
G01*
X84580000Y-83197500D01*
G75*
G02*
X84432500Y-83345000I-147500J0D01*
G01*
X84137500Y-83345000D01*
G75*
G02*
X83990000Y-83197500I0J147500D01*
G01*
G37*
G36*
G01*
X83020000Y-83197500D02*
X83020000Y-82852500D01*
G75*
G02*
X83167500Y-82705000I147500J0D01*
G01*
X83462500Y-82705000D01*
G75*
G02*
X83610000Y-82852500I0J-147500D01*
G01*
X83610000Y-83197500D01*
G75*
G02*
X83462500Y-83345000I-147500J0D01*
G01*
X83167500Y-83345000D01*
G75*
G02*
X83020000Y-83197500I0J147500D01*
G01*
G37*
%TD*%
%TO.C,R88*%
G36*
G01*
X65110000Y-82852500D02*
X65110000Y-83197500D01*
G75*
G02*
X64962500Y-83345000I-147500J0D01*
G01*
X64667500Y-83345000D01*
G75*
G02*
X64520000Y-83197500I0J147500D01*
G01*
X64520000Y-82852500D01*
G75*
G02*
X64667500Y-82705000I147500J0D01*
G01*
X64962500Y-82705000D01*
G75*
G02*
X65110000Y-82852500I0J-147500D01*
G01*
G37*
G36*
G01*
X66080000Y-82852500D02*
X66080000Y-83197500D01*
G75*
G02*
X65932500Y-83345000I-147500J0D01*
G01*
X65637500Y-83345000D01*
G75*
G02*
X65490000Y-83197500I0J147500D01*
G01*
X65490000Y-82852500D01*
G75*
G02*
X65637500Y-82705000I147500J0D01*
G01*
X65932500Y-82705000D01*
G75*
G02*
X66080000Y-82852500I0J-147500D01*
G01*
G37*
%TD*%
%TO.C,R85*%
G36*
G01*
X83990000Y-79997500D02*
X83990000Y-79652500D01*
G75*
G02*
X84137500Y-79505000I147500J0D01*
G01*
X84432500Y-79505000D01*
G75*
G02*
X84580000Y-79652500I0J-147500D01*
G01*
X84580000Y-79997500D01*
G75*
G02*
X84432500Y-80145000I-147500J0D01*
G01*
X84137500Y-80145000D01*
G75*
G02*
X83990000Y-79997500I0J147500D01*
G01*
G37*
G36*
G01*
X83020000Y-79997500D02*
X83020000Y-79652500D01*
G75*
G02*
X83167500Y-79505000I147500J0D01*
G01*
X83462500Y-79505000D01*
G75*
G02*
X83610000Y-79652500I0J-147500D01*
G01*
X83610000Y-79997500D01*
G75*
G02*
X83462500Y-80145000I-147500J0D01*
G01*
X83167500Y-80145000D01*
G75*
G02*
X83020000Y-79997500I0J147500D01*
G01*
G37*
%TD*%
%TO.C,R82*%
G36*
G01*
X65490000Y-91997500D02*
X65490000Y-91652500D01*
G75*
G02*
X65637500Y-91505000I147500J0D01*
G01*
X65932500Y-91505000D01*
G75*
G02*
X66080000Y-91652500I0J-147500D01*
G01*
X66080000Y-91997500D01*
G75*
G02*
X65932500Y-92145000I-147500J0D01*
G01*
X65637500Y-92145000D01*
G75*
G02*
X65490000Y-91997500I0J147500D01*
G01*
G37*
G36*
G01*
X64520000Y-91997500D02*
X64520000Y-91652500D01*
G75*
G02*
X64667500Y-91505000I147500J0D01*
G01*
X64962500Y-91505000D01*
G75*
G02*
X65110000Y-91652500I0J-147500D01*
G01*
X65110000Y-91997500D01*
G75*
G02*
X64962500Y-92145000I-147500J0D01*
G01*
X64667500Y-92145000D01*
G75*
G02*
X64520000Y-91997500I0J147500D01*
G01*
G37*
%TD*%
%TO.C,R80*%
G36*
G01*
X65490000Y-90397500D02*
X65490000Y-90052500D01*
G75*
G02*
X65637500Y-89905000I147500J0D01*
G01*
X65932500Y-89905000D01*
G75*
G02*
X66080000Y-90052500I0J-147500D01*
G01*
X66080000Y-90397500D01*
G75*
G02*
X65932500Y-90545000I-147500J0D01*
G01*
X65637500Y-90545000D01*
G75*
G02*
X65490000Y-90397500I0J147500D01*
G01*
G37*
G36*
G01*
X64520000Y-90397500D02*
X64520000Y-90052500D01*
G75*
G02*
X64667500Y-89905000I147500J0D01*
G01*
X64962500Y-89905000D01*
G75*
G02*
X65110000Y-90052500I0J-147500D01*
G01*
X65110000Y-90397500D01*
G75*
G02*
X64962500Y-90545000I-147500J0D01*
G01*
X64667500Y-90545000D01*
G75*
G02*
X64520000Y-90397500I0J147500D01*
G01*
G37*
%TD*%
%TO.C,R78*%
G36*
G01*
X65110000Y-79652500D02*
X65110000Y-79997500D01*
G75*
G02*
X64962500Y-80145000I-147500J0D01*
G01*
X64667500Y-80145000D01*
G75*
G02*
X64520000Y-79997500I0J147500D01*
G01*
X64520000Y-79652500D01*
G75*
G02*
X64667500Y-79505000I147500J0D01*
G01*
X64962500Y-79505000D01*
G75*
G02*
X65110000Y-79652500I0J-147500D01*
G01*
G37*
G36*
G01*
X66080000Y-79652500D02*
X66080000Y-79997500D01*
G75*
G02*
X65932500Y-80145000I-147500J0D01*
G01*
X65637500Y-80145000D01*
G75*
G02*
X65490000Y-79997500I0J147500D01*
G01*
X65490000Y-79652500D01*
G75*
G02*
X65637500Y-79505000I147500J0D01*
G01*
X65932500Y-79505000D01*
G75*
G02*
X66080000Y-79652500I0J-147500D01*
G01*
G37*
%TD*%
%TO.C,R74*%
G36*
G01*
X83990000Y-78397500D02*
X83990000Y-78052500D01*
G75*
G02*
X84137500Y-77905000I147500J0D01*
G01*
X84432500Y-77905000D01*
G75*
G02*
X84580000Y-78052500I0J-147500D01*
G01*
X84580000Y-78397500D01*
G75*
G02*
X84432500Y-78545000I-147500J0D01*
G01*
X84137500Y-78545000D01*
G75*
G02*
X83990000Y-78397500I0J147500D01*
G01*
G37*
G36*
G01*
X83020000Y-78397500D02*
X83020000Y-78052500D01*
G75*
G02*
X83167500Y-77905000I147500J0D01*
G01*
X83462500Y-77905000D01*
G75*
G02*
X83610000Y-78052500I0J-147500D01*
G01*
X83610000Y-78397500D01*
G75*
G02*
X83462500Y-78545000I-147500J0D01*
G01*
X83167500Y-78545000D01*
G75*
G02*
X83020000Y-78397500I0J147500D01*
G01*
G37*
%TD*%
%TO.C,R73*%
G36*
G01*
X65490000Y-87997500D02*
X65490000Y-87652500D01*
G75*
G02*
X65637500Y-87505000I147500J0D01*
G01*
X65932500Y-87505000D01*
G75*
G02*
X66080000Y-87652500I0J-147500D01*
G01*
X66080000Y-87997500D01*
G75*
G02*
X65932500Y-88145000I-147500J0D01*
G01*
X65637500Y-88145000D01*
G75*
G02*
X65490000Y-87997500I0J147500D01*
G01*
G37*
G36*
G01*
X64520000Y-87997500D02*
X64520000Y-87652500D01*
G75*
G02*
X64667500Y-87505000I147500J0D01*
G01*
X64962500Y-87505000D01*
G75*
G02*
X65110000Y-87652500I0J-147500D01*
G01*
X65110000Y-87997500D01*
G75*
G02*
X64962500Y-88145000I-147500J0D01*
G01*
X64667500Y-88145000D01*
G75*
G02*
X64520000Y-87997500I0J147500D01*
G01*
G37*
%TD*%
%TO.C,R68*%
G36*
G01*
X65110000Y-78052500D02*
X65110000Y-78397500D01*
G75*
G02*
X64962500Y-78545000I-147500J0D01*
G01*
X64667500Y-78545000D01*
G75*
G02*
X64520000Y-78397500I0J147500D01*
G01*
X64520000Y-78052500D01*
G75*
G02*
X64667500Y-77905000I147500J0D01*
G01*
X64962500Y-77905000D01*
G75*
G02*
X65110000Y-78052500I0J-147500D01*
G01*
G37*
G36*
G01*
X66080000Y-78052500D02*
X66080000Y-78397500D01*
G75*
G02*
X65932500Y-78545000I-147500J0D01*
G01*
X65637500Y-78545000D01*
G75*
G02*
X65490000Y-78397500I0J147500D01*
G01*
X65490000Y-78052500D01*
G75*
G02*
X65637500Y-77905000I147500J0D01*
G01*
X65932500Y-77905000D01*
G75*
G02*
X66080000Y-78052500I0J-147500D01*
G01*
G37*
%TD*%
%TO.C,R63*%
G36*
G01*
X65110000Y-76452500D02*
X65110000Y-76797500D01*
G75*
G02*
X64962500Y-76945000I-147500J0D01*
G01*
X64667500Y-76945000D01*
G75*
G02*
X64520000Y-76797500I0J147500D01*
G01*
X64520000Y-76452500D01*
G75*
G02*
X64667500Y-76305000I147500J0D01*
G01*
X64962500Y-76305000D01*
G75*
G02*
X65110000Y-76452500I0J-147500D01*
G01*
G37*
G36*
G01*
X66080000Y-76452500D02*
X66080000Y-76797500D01*
G75*
G02*
X65932500Y-76945000I-147500J0D01*
G01*
X65637500Y-76945000D01*
G75*
G02*
X65490000Y-76797500I0J147500D01*
G01*
X65490000Y-76452500D01*
G75*
G02*
X65637500Y-76305000I147500J0D01*
G01*
X65932500Y-76305000D01*
G75*
G02*
X66080000Y-76452500I0J-147500D01*
G01*
G37*
%TD*%
%TO.C,R60*%
G36*
G01*
X83610000Y-87652500D02*
X83610000Y-87997500D01*
G75*
G02*
X83462500Y-88145000I-147500J0D01*
G01*
X83167500Y-88145000D01*
G75*
G02*
X83020000Y-87997500I0J147500D01*
G01*
X83020000Y-87652500D01*
G75*
G02*
X83167500Y-87505000I147500J0D01*
G01*
X83462500Y-87505000D01*
G75*
G02*
X83610000Y-87652500I0J-147500D01*
G01*
G37*
G36*
G01*
X84580000Y-87652500D02*
X84580000Y-87997500D01*
G75*
G02*
X84432500Y-88145000I-147500J0D01*
G01*
X84137500Y-88145000D01*
G75*
G02*
X83990000Y-87997500I0J147500D01*
G01*
X83990000Y-87652500D01*
G75*
G02*
X84137500Y-87505000I147500J0D01*
G01*
X84432500Y-87505000D01*
G75*
G02*
X84580000Y-87652500I0J-147500D01*
G01*
G37*
%TD*%
%TO.C,R59*%
G36*
G01*
X65110000Y-74852500D02*
X65110000Y-75197500D01*
G75*
G02*
X64962500Y-75345000I-147500J0D01*
G01*
X64667500Y-75345000D01*
G75*
G02*
X64520000Y-75197500I0J147500D01*
G01*
X64520000Y-74852500D01*
G75*
G02*
X64667500Y-74705000I147500J0D01*
G01*
X64962500Y-74705000D01*
G75*
G02*
X65110000Y-74852500I0J-147500D01*
G01*
G37*
G36*
G01*
X66080000Y-74852500D02*
X66080000Y-75197500D01*
G75*
G02*
X65932500Y-75345000I-147500J0D01*
G01*
X65637500Y-75345000D01*
G75*
G02*
X65490000Y-75197500I0J147500D01*
G01*
X65490000Y-74852500D01*
G75*
G02*
X65637500Y-74705000I147500J0D01*
G01*
X65932500Y-74705000D01*
G75*
G02*
X66080000Y-74852500I0J-147500D01*
G01*
G37*
%TD*%
%TO.C,R58*%
G36*
G01*
X83610000Y-89252500D02*
X83610000Y-89597500D01*
G75*
G02*
X83462500Y-89745000I-147500J0D01*
G01*
X83167500Y-89745000D01*
G75*
G02*
X83020000Y-89597500I0J147500D01*
G01*
X83020000Y-89252500D01*
G75*
G02*
X83167500Y-89105000I147500J0D01*
G01*
X83462500Y-89105000D01*
G75*
G02*
X83610000Y-89252500I0J-147500D01*
G01*
G37*
G36*
G01*
X84580000Y-89252500D02*
X84580000Y-89597500D01*
G75*
G02*
X84432500Y-89745000I-147500J0D01*
G01*
X84137500Y-89745000D01*
G75*
G02*
X83990000Y-89597500I0J147500D01*
G01*
X83990000Y-89252500D01*
G75*
G02*
X84137500Y-89105000I147500J0D01*
G01*
X84432500Y-89105000D01*
G75*
G02*
X84580000Y-89252500I0J-147500D01*
G01*
G37*
%TD*%
%TO.C,R57*%
G36*
G01*
X83990000Y-75197500D02*
X83990000Y-74852500D01*
G75*
G02*
X84137500Y-74705000I147500J0D01*
G01*
X84432500Y-74705000D01*
G75*
G02*
X84580000Y-74852500I0J-147500D01*
G01*
X84580000Y-75197500D01*
G75*
G02*
X84432500Y-75345000I-147500J0D01*
G01*
X84137500Y-75345000D01*
G75*
G02*
X83990000Y-75197500I0J147500D01*
G01*
G37*
G36*
G01*
X83020000Y-75197500D02*
X83020000Y-74852500D01*
G75*
G02*
X83167500Y-74705000I147500J0D01*
G01*
X83462500Y-74705000D01*
G75*
G02*
X83610000Y-74852500I0J-147500D01*
G01*
X83610000Y-75197500D01*
G75*
G02*
X83462500Y-75345000I-147500J0D01*
G01*
X83167500Y-75345000D01*
G75*
G02*
X83020000Y-75197500I0J147500D01*
G01*
G37*
%TD*%
%TO.C,R53*%
G36*
G01*
X83990000Y-76797500D02*
X83990000Y-76452500D01*
G75*
G02*
X84137500Y-76305000I147500J0D01*
G01*
X84432500Y-76305000D01*
G75*
G02*
X84580000Y-76452500I0J-147500D01*
G01*
X84580000Y-76797500D01*
G75*
G02*
X84432500Y-76945000I-147500J0D01*
G01*
X84137500Y-76945000D01*
G75*
G02*
X83990000Y-76797500I0J147500D01*
G01*
G37*
G36*
G01*
X83020000Y-76797500D02*
X83020000Y-76452500D01*
G75*
G02*
X83167500Y-76305000I147500J0D01*
G01*
X83462500Y-76305000D01*
G75*
G02*
X83610000Y-76452500I0J-147500D01*
G01*
X83610000Y-76797500D01*
G75*
G02*
X83462500Y-76945000I-147500J0D01*
G01*
X83167500Y-76945000D01*
G75*
G02*
X83020000Y-76797500I0J147500D01*
G01*
G37*
%TD*%
%TO.C,R52*%
G36*
G01*
X83610000Y-92452500D02*
X83610000Y-92797500D01*
G75*
G02*
X83462500Y-92945000I-147500J0D01*
G01*
X83167500Y-92945000D01*
G75*
G02*
X83020000Y-92797500I0J147500D01*
G01*
X83020000Y-92452500D01*
G75*
G02*
X83167500Y-92305000I147500J0D01*
G01*
X83462500Y-92305000D01*
G75*
G02*
X83610000Y-92452500I0J-147500D01*
G01*
G37*
G36*
G01*
X84580000Y-92452500D02*
X84580000Y-92797500D01*
G75*
G02*
X84432500Y-92945000I-147500J0D01*
G01*
X84137500Y-92945000D01*
G75*
G02*
X83990000Y-92797500I0J147500D01*
G01*
X83990000Y-92452500D01*
G75*
G02*
X84137500Y-92305000I147500J0D01*
G01*
X84432500Y-92305000D01*
G75*
G02*
X84580000Y-92452500I0J-147500D01*
G01*
G37*
%TD*%
%TO.C,R50*%
G36*
G01*
X83610000Y-94052500D02*
X83610000Y-94397500D01*
G75*
G02*
X83462500Y-94545000I-147500J0D01*
G01*
X83167500Y-94545000D01*
G75*
G02*
X83020000Y-94397500I0J147500D01*
G01*
X83020000Y-94052500D01*
G75*
G02*
X83167500Y-93905000I147500J0D01*
G01*
X83462500Y-93905000D01*
G75*
G02*
X83610000Y-94052500I0J-147500D01*
G01*
G37*
G36*
G01*
X84580000Y-94052500D02*
X84580000Y-94397500D01*
G75*
G02*
X84432500Y-94545000I-147500J0D01*
G01*
X84137500Y-94545000D01*
G75*
G02*
X83990000Y-94397500I0J147500D01*
G01*
X83990000Y-94052500D01*
G75*
G02*
X84137500Y-93905000I147500J0D01*
G01*
X84432500Y-93905000D01*
G75*
G02*
X84580000Y-94052500I0J-147500D01*
G01*
G37*
%TD*%
%TO.C,R9*%
G36*
G01*
X98727500Y-96640000D02*
X99072500Y-96640000D01*
G75*
G02*
X99220000Y-96787500I0J-147500D01*
G01*
X99220000Y-97082500D01*
G75*
G02*
X99072500Y-97230000I-147500J0D01*
G01*
X98727500Y-97230000D01*
G75*
G02*
X98580000Y-97082500I0J147500D01*
G01*
X98580000Y-96787500D01*
G75*
G02*
X98727500Y-96640000I147500J0D01*
G01*
G37*
G36*
G01*
X98727500Y-95670000D02*
X99072500Y-95670000D01*
G75*
G02*
X99220000Y-95817500I0J-147500D01*
G01*
X99220000Y-96112500D01*
G75*
G02*
X99072500Y-96260000I-147500J0D01*
G01*
X98727500Y-96260000D01*
G75*
G02*
X98580000Y-96112500I0J147500D01*
G01*
X98580000Y-95817500D01*
G75*
G02*
X98727500Y-95670000I147500J0D01*
G01*
G37*
%TD*%
%TO.C,L6*%
G36*
G01*
X111427500Y-96640000D02*
X111772500Y-96640000D01*
G75*
G02*
X111920000Y-96787500I0J-147500D01*
G01*
X111920000Y-97082500D01*
G75*
G02*
X111772500Y-97230000I-147500J0D01*
G01*
X111427500Y-97230000D01*
G75*
G02*
X111280000Y-97082500I0J147500D01*
G01*
X111280000Y-96787500D01*
G75*
G02*
X111427500Y-96640000I147500J0D01*
G01*
G37*
G36*
G01*
X111427500Y-95670000D02*
X111772500Y-95670000D01*
G75*
G02*
X111920000Y-95817500I0J-147500D01*
G01*
X111920000Y-96112500D01*
G75*
G02*
X111772500Y-96260000I-147500J0D01*
G01*
X111427500Y-96260000D01*
G75*
G02*
X111280000Y-96112500I0J147500D01*
G01*
X111280000Y-95817500D01*
G75*
G02*
X111427500Y-95670000I147500J0D01*
G01*
G37*
%TD*%
%TO.C,L5*%
G36*
G01*
X108877500Y-96640000D02*
X109222500Y-96640000D01*
G75*
G02*
X109370000Y-96787500I0J-147500D01*
G01*
X109370000Y-97082500D01*
G75*
G02*
X109222500Y-97230000I-147500J0D01*
G01*
X108877500Y-97230000D01*
G75*
G02*
X108730000Y-97082500I0J147500D01*
G01*
X108730000Y-96787500D01*
G75*
G02*
X108877500Y-96640000I147500J0D01*
G01*
G37*
G36*
G01*
X108877500Y-95670000D02*
X109222500Y-95670000D01*
G75*
G02*
X109370000Y-95817500I0J-147500D01*
G01*
X109370000Y-96112500D01*
G75*
G02*
X109222500Y-96260000I-147500J0D01*
G01*
X108877500Y-96260000D01*
G75*
G02*
X108730000Y-96112500I0J147500D01*
G01*
X108730000Y-95817500D01*
G75*
G02*
X108877500Y-95670000I147500J0D01*
G01*
G37*
%TD*%
%TO.C,L4*%
G36*
G01*
X106327500Y-96640000D02*
X106672500Y-96640000D01*
G75*
G02*
X106820000Y-96787500I0J-147500D01*
G01*
X106820000Y-97082500D01*
G75*
G02*
X106672500Y-97230000I-147500J0D01*
G01*
X106327500Y-97230000D01*
G75*
G02*
X106180000Y-97082500I0J147500D01*
G01*
X106180000Y-96787500D01*
G75*
G02*
X106327500Y-96640000I147500J0D01*
G01*
G37*
G36*
G01*
X106327500Y-95670000D02*
X106672500Y-95670000D01*
G75*
G02*
X106820000Y-95817500I0J-147500D01*
G01*
X106820000Y-96112500D01*
G75*
G02*
X106672500Y-96260000I-147500J0D01*
G01*
X106327500Y-96260000D01*
G75*
G02*
X106180000Y-96112500I0J147500D01*
G01*
X106180000Y-95817500D01*
G75*
G02*
X106327500Y-95670000I147500J0D01*
G01*
G37*
%TD*%
%TO.C,L3*%
G36*
G01*
X103777500Y-96640000D02*
X104122500Y-96640000D01*
G75*
G02*
X104270000Y-96787500I0J-147500D01*
G01*
X104270000Y-97082500D01*
G75*
G02*
X104122500Y-97230000I-147500J0D01*
G01*
X103777500Y-97230000D01*
G75*
G02*
X103630000Y-97082500I0J147500D01*
G01*
X103630000Y-96787500D01*
G75*
G02*
X103777500Y-96640000I147500J0D01*
G01*
G37*
G36*
G01*
X103777500Y-95670000D02*
X104122500Y-95670000D01*
G75*
G02*
X104270000Y-95817500I0J-147500D01*
G01*
X104270000Y-96112500D01*
G75*
G02*
X104122500Y-96260000I-147500J0D01*
G01*
X103777500Y-96260000D01*
G75*
G02*
X103630000Y-96112500I0J147500D01*
G01*
X103630000Y-95817500D01*
G75*
G02*
X103777500Y-95670000I147500J0D01*
G01*
G37*
%TD*%
%TO.C,L2*%
G36*
G01*
X96177500Y-96640000D02*
X96522500Y-96640000D01*
G75*
G02*
X96670000Y-96787500I0J-147500D01*
G01*
X96670000Y-97082500D01*
G75*
G02*
X96522500Y-97230000I-147500J0D01*
G01*
X96177500Y-97230000D01*
G75*
G02*
X96030000Y-97082500I0J147500D01*
G01*
X96030000Y-96787500D01*
G75*
G02*
X96177500Y-96640000I147500J0D01*
G01*
G37*
G36*
G01*
X96177500Y-95670000D02*
X96522500Y-95670000D01*
G75*
G02*
X96670000Y-95817500I0J-147500D01*
G01*
X96670000Y-96112500D01*
G75*
G02*
X96522500Y-96260000I-147500J0D01*
G01*
X96177500Y-96260000D01*
G75*
G02*
X96030000Y-96112500I0J147500D01*
G01*
X96030000Y-95817500D01*
G75*
G02*
X96177500Y-95670000I147500J0D01*
G01*
G37*
%TD*%
%TO.C,L1*%
G36*
G01*
X93627500Y-96640000D02*
X93972500Y-96640000D01*
G75*
G02*
X94120000Y-96787500I0J-147500D01*
G01*
X94120000Y-97082500D01*
G75*
G02*
X93972500Y-97230000I-147500J0D01*
G01*
X93627500Y-97230000D01*
G75*
G02*
X93480000Y-97082500I0J147500D01*
G01*
X93480000Y-96787500D01*
G75*
G02*
X93627500Y-96640000I147500J0D01*
G01*
G37*
G36*
G01*
X93627500Y-95670000D02*
X93972500Y-95670000D01*
G75*
G02*
X94120000Y-95817500I0J-147500D01*
G01*
X94120000Y-96112500D01*
G75*
G02*
X93972500Y-96260000I-147500J0D01*
G01*
X93627500Y-96260000D01*
G75*
G02*
X93480000Y-96112500I0J147500D01*
G01*
X93480000Y-95817500D01*
G75*
G02*
X93627500Y-95670000I147500J0D01*
G01*
G37*
%TD*%
%TO.C,C48*%
G36*
G01*
X83610000Y-84452500D02*
X83610000Y-84797500D01*
G75*
G02*
X83462500Y-84945000I-147500J0D01*
G01*
X83167500Y-84945000D01*
G75*
G02*
X83020000Y-84797500I0J147500D01*
G01*
X83020000Y-84452500D01*
G75*
G02*
X83167500Y-84305000I147500J0D01*
G01*
X83462500Y-84305000D01*
G75*
G02*
X83610000Y-84452500I0J-147500D01*
G01*
G37*
G36*
G01*
X84580000Y-84452500D02*
X84580000Y-84797500D01*
G75*
G02*
X84432500Y-84945000I-147500J0D01*
G01*
X84137500Y-84945000D01*
G75*
G02*
X83990000Y-84797500I0J147500D01*
G01*
X83990000Y-84452500D01*
G75*
G02*
X84137500Y-84305000I147500J0D01*
G01*
X84432500Y-84305000D01*
G75*
G02*
X84580000Y-84452500I0J-147500D01*
G01*
G37*
%TD*%
%TO.C,C43*%
G36*
G01*
X65490000Y-86397500D02*
X65490000Y-86052500D01*
G75*
G02*
X65637500Y-85905000I147500J0D01*
G01*
X65932500Y-85905000D01*
G75*
G02*
X66080000Y-86052500I0J-147500D01*
G01*
X66080000Y-86397500D01*
G75*
G02*
X65932500Y-86545000I-147500J0D01*
G01*
X65637500Y-86545000D01*
G75*
G02*
X65490000Y-86397500I0J147500D01*
G01*
G37*
G36*
G01*
X64520000Y-86397500D02*
X64520000Y-86052500D01*
G75*
G02*
X64667500Y-85905000I147500J0D01*
G01*
X64962500Y-85905000D01*
G75*
G02*
X65110000Y-86052500I0J-147500D01*
G01*
X65110000Y-86397500D01*
G75*
G02*
X64962500Y-86545000I-147500J0D01*
G01*
X64667500Y-86545000D01*
G75*
G02*
X64520000Y-86397500I0J147500D01*
G01*
G37*
%TD*%
%TO.C,C13*%
G36*
G01*
X110622500Y-96260000D02*
X110277500Y-96260000D01*
G75*
G02*
X110130000Y-96112500I0J147500D01*
G01*
X110130000Y-95817500D01*
G75*
G02*
X110277500Y-95670000I147500J0D01*
G01*
X110622500Y-95670000D01*
G75*
G02*
X110770000Y-95817500I0J-147500D01*
G01*
X110770000Y-96112500D01*
G75*
G02*
X110622500Y-96260000I-147500J0D01*
G01*
G37*
G36*
G01*
X110622500Y-97230000D02*
X110277500Y-97230000D01*
G75*
G02*
X110130000Y-97082500I0J147500D01*
G01*
X110130000Y-96787500D01*
G75*
G02*
X110277500Y-96640000I147500J0D01*
G01*
X110622500Y-96640000D01*
G75*
G02*
X110770000Y-96787500I0J-147500D01*
G01*
X110770000Y-97082500D01*
G75*
G02*
X110622500Y-97230000I-147500J0D01*
G01*
G37*
%TD*%
%TO.C,C12*%
G36*
G01*
X108072500Y-96260000D02*
X107727500Y-96260000D01*
G75*
G02*
X107580000Y-96112500I0J147500D01*
G01*
X107580000Y-95817500D01*
G75*
G02*
X107727500Y-95670000I147500J0D01*
G01*
X108072500Y-95670000D01*
G75*
G02*
X108220000Y-95817500I0J-147500D01*
G01*
X108220000Y-96112500D01*
G75*
G02*
X108072500Y-96260000I-147500J0D01*
G01*
G37*
G36*
G01*
X108072500Y-97230000D02*
X107727500Y-97230000D01*
G75*
G02*
X107580000Y-97082500I0J147500D01*
G01*
X107580000Y-96787500D01*
G75*
G02*
X107727500Y-96640000I147500J0D01*
G01*
X108072500Y-96640000D01*
G75*
G02*
X108220000Y-96787500I0J-147500D01*
G01*
X108220000Y-97082500D01*
G75*
G02*
X108072500Y-97230000I-147500J0D01*
G01*
G37*
%TD*%
%TO.C,C11*%
G36*
G01*
X105522500Y-96260000D02*
X105177500Y-96260000D01*
G75*
G02*
X105030000Y-96112500I0J147500D01*
G01*
X105030000Y-95817500D01*
G75*
G02*
X105177500Y-95670000I147500J0D01*
G01*
X105522500Y-95670000D01*
G75*
G02*
X105670000Y-95817500I0J-147500D01*
G01*
X105670000Y-96112500D01*
G75*
G02*
X105522500Y-96260000I-147500J0D01*
G01*
G37*
G36*
G01*
X105522500Y-97230000D02*
X105177500Y-97230000D01*
G75*
G02*
X105030000Y-97082500I0J147500D01*
G01*
X105030000Y-96787500D01*
G75*
G02*
X105177500Y-96640000I147500J0D01*
G01*
X105522500Y-96640000D01*
G75*
G02*
X105670000Y-96787500I0J-147500D01*
G01*
X105670000Y-97082500D01*
G75*
G02*
X105522500Y-97230000I-147500J0D01*
G01*
G37*
%TD*%
%TO.C,C10*%
G36*
G01*
X102972500Y-96260000D02*
X102627500Y-96260000D01*
G75*
G02*
X102480000Y-96112500I0J147500D01*
G01*
X102480000Y-95817500D01*
G75*
G02*
X102627500Y-95670000I147500J0D01*
G01*
X102972500Y-95670000D01*
G75*
G02*
X103120000Y-95817500I0J-147500D01*
G01*
X103120000Y-96112500D01*
G75*
G02*
X102972500Y-96260000I-147500J0D01*
G01*
G37*
G36*
G01*
X102972500Y-97230000D02*
X102627500Y-97230000D01*
G75*
G02*
X102480000Y-97082500I0J147500D01*
G01*
X102480000Y-96787500D01*
G75*
G02*
X102627500Y-96640000I147500J0D01*
G01*
X102972500Y-96640000D01*
G75*
G02*
X103120000Y-96787500I0J-147500D01*
G01*
X103120000Y-97082500D01*
G75*
G02*
X102972500Y-97230000I-147500J0D01*
G01*
G37*
%TD*%
%TO.C,C9*%
G36*
G01*
X105825000Y-91524999D02*
X105825000Y-92075001D01*
G75*
G02*
X105575001Y-92325000I-249999J0D01*
G01*
X104824999Y-92325000D01*
G75*
G02*
X104575000Y-92075001I0J249999D01*
G01*
X104575000Y-91524999D01*
G75*
G02*
X104824999Y-91275000I249999J0D01*
G01*
X105575001Y-91275000D01*
G75*
G02*
X105825000Y-91524999I0J-249999D01*
G01*
G37*
G36*
G01*
X107425000Y-91524999D02*
X107425000Y-92075001D01*
G75*
G02*
X107175001Y-92325000I-249999J0D01*
G01*
X106424999Y-92325000D01*
G75*
G02*
X106175000Y-92075001I0J249999D01*
G01*
X106175000Y-91524999D01*
G75*
G02*
X106424999Y-91275000I249999J0D01*
G01*
X107175001Y-91275000D01*
G75*
G02*
X107425000Y-91524999I0J-249999D01*
G01*
G37*
%TD*%
%TO.C,C8*%
G36*
G01*
X105825000Y-89674999D02*
X105825000Y-90225001D01*
G75*
G02*
X105575001Y-90475000I-249999J0D01*
G01*
X104824999Y-90475000D01*
G75*
G02*
X104575000Y-90225001I0J249999D01*
G01*
X104575000Y-89674999D01*
G75*
G02*
X104824999Y-89425000I249999J0D01*
G01*
X105575001Y-89425000D01*
G75*
G02*
X105825000Y-89674999I0J-249999D01*
G01*
G37*
G36*
G01*
X107425000Y-89674999D02*
X107425000Y-90225001D01*
G75*
G02*
X107175001Y-90475000I-249999J0D01*
G01*
X106424999Y-90475000D01*
G75*
G02*
X106175000Y-90225001I0J249999D01*
G01*
X106175000Y-89674999D01*
G75*
G02*
X106424999Y-89425000I249999J0D01*
G01*
X107175001Y-89425000D01*
G75*
G02*
X107425000Y-89674999I0J-249999D01*
G01*
G37*
%TD*%
%TO.C,C7*%
G36*
G01*
X97622500Y-96260000D02*
X97277500Y-96260000D01*
G75*
G02*
X97130000Y-96112500I0J147500D01*
G01*
X97130000Y-95817500D01*
G75*
G02*
X97277500Y-95670000I147500J0D01*
G01*
X97622500Y-95670000D01*
G75*
G02*
X97770000Y-95817500I0J-147500D01*
G01*
X97770000Y-96112500D01*
G75*
G02*
X97622500Y-96260000I-147500J0D01*
G01*
G37*
G36*
G01*
X97622500Y-97230000D02*
X97277500Y-97230000D01*
G75*
G02*
X97130000Y-97082500I0J147500D01*
G01*
X97130000Y-96787500D01*
G75*
G02*
X97277500Y-96640000I147500J0D01*
G01*
X97622500Y-96640000D01*
G75*
G02*
X97770000Y-96787500I0J-147500D01*
G01*
X97770000Y-97082500D01*
G75*
G02*
X97622500Y-97230000I-147500J0D01*
G01*
G37*
%TD*%
%TO.C,C6*%
G36*
G01*
X92822500Y-96260000D02*
X92477500Y-96260000D01*
G75*
G02*
X92330000Y-96112500I0J147500D01*
G01*
X92330000Y-95817500D01*
G75*
G02*
X92477500Y-95670000I147500J0D01*
G01*
X92822500Y-95670000D01*
G75*
G02*
X92970000Y-95817500I0J-147500D01*
G01*
X92970000Y-96112500D01*
G75*
G02*
X92822500Y-96260000I-147500J0D01*
G01*
G37*
G36*
G01*
X92822500Y-97230000D02*
X92477500Y-97230000D01*
G75*
G02*
X92330000Y-97082500I0J147500D01*
G01*
X92330000Y-96787500D01*
G75*
G02*
X92477500Y-96640000I147500J0D01*
G01*
X92822500Y-96640000D01*
G75*
G02*
X92970000Y-96787500I0J-147500D01*
G01*
X92970000Y-97082500D01*
G75*
G02*
X92822500Y-97230000I-147500J0D01*
G01*
G37*
%TD*%
M02*
