M48
; DRILL file {KiCad (5.1.7)-1} date 11/09/20 12:51:49
; FORMAT={-:-/ absolute / inch / decimal}
; #@! TF.CreationDate,2020-11-09T12:51:49+09:00
; #@! TF.GenerationSoftware,Kicad,Pcbnew,(5.1.7)-1
; #@! TF.FileFunction,Plated,1,4,PTH
FMAT,2
INCH
T1C0.0079
T2C0.0118
T3C0.0157
T4C0.0315
T5C0.0335
T6C0.0394
T7C0.0472
%
G90
G05
T1
X0.0768Y-1.2323
X0.2776Y-2.6465
X0.4535Y-1.1268
X0.5005Y-1.1422
X0.5271Y-1.1275
X0.5512Y-2.4449
X0.5571Y-1.1122
X0.5866Y-2.7205
X0.6043Y-2.4242
X0.6122Y-1.0984
X0.6457Y-2.3484
X0.6496Y-2.9291
X0.6772Y-2.8701
X0.6843Y-1.078
X0.7669Y-2.613
X0.7679Y-2.5828
X0.7913Y-0.936
X0.7913Y-2.3189
X0.7929Y-2.5276
X0.8563Y-0.6831
X0.8563Y-0.7579
X0.8563Y-0.8031
X0.9291Y-0.6142
X0.9724Y-1.687
X0.9754Y-2.0482
X1.0457Y-1.6154
X1.0657Y-1.5335
X1.1073Y-0.6831
X1.1073Y-0.7579
X1.1073Y-0.8553
X1.1073Y-0.936
X1.1405Y-0.5915
X1.149Y-0.525
X1.1845Y-1.3977
X1.185Y-0.5024
X1.188Y-1.3694
X1.1881Y-0.5348
X1.1909Y-2.3484
X1.202Y-0.4596
X1.2146Y-1.8583
X1.2146Y-1.9016
X1.2146Y-1.9862
X1.2169Y-1.7717
X1.2169Y-1.815
X1.2244Y-2.5728
X1.2295Y-1.078
X1.2402Y-2.124
X1.252Y-1.9862
X1.261Y-0.5079
X1.2631Y-1.3172
X1.2642Y-1.1919
X1.2697Y-0.4665
X1.2838Y-1.2987
X1.3051Y-1.2764
X1.3258Y-0.8917
X1.3268Y-2.2193
X1.3474Y-2.237
X1.3757Y-0.9166
X1.3933Y-1.0988
X1.4008Y-0.9217
X1.4016Y-1.3106
X1.411Y-1.3671
X1.4272Y-0.8041
X1.4319Y-1.0921
X1.4358Y-1.1193
X1.4478Y-0.8465
X1.4516Y-3.3028
X1.4622Y-1.1264
X1.4646Y-2.0075
X1.4705Y-0.7587
X1.4781Y-1.3457
X1.4862Y-1.8583
X1.4862Y-1.9016
X1.5315Y-2.7894
X1.5339Y-0.7303
X1.5343Y-2.3612
X1.5348Y-1.3248
X1.5512Y-2.3819
X1.5522Y-1.9457
X1.5575Y-1.5669
X1.5575Y-1.6575
X1.5581Y-1.3041
X1.5728Y-1.8878
X1.5772Y-2.0736
X1.5787Y-0.6783
X1.5935Y-1.9618
X1.5984Y-1.7362
X1.5984Y-2.1362
X1.6142Y-1.8986
X1.6152Y-3.3026
X1.622Y-1.7161
X1.626Y-0.7024
X1.6427Y-1.9596
X1.6594Y-1.1496
X1.6634Y-1.8789
X1.6772Y-1.4026
X1.6815Y-0.6815
X1.6998Y-2.3028
X1.7008Y-1.6299
X1.713Y-0.8317
X1.7303Y-2.2028
X1.7333Y-1.4272
X1.747Y-1.7035
X1.7648Y-2.9252
X1.7677Y-1.7657
X1.7972Y-2.7215
X1.7972Y-2.9341
X1.8091Y-2.6486
X1.8976Y-2.9409
X1.9134Y-2.7362
X1.9882Y-2.7894
X2.0148Y-2.7776
X2.0181Y-1.8665
X2.0248Y-1.8929
X2.0896Y-3.3632
X2.1063Y-3.0276
X2.1268Y-2.3319
X2.127Y-3.0118
X2.1299Y-1.387
X2.1307Y-1.3043
X2.1309Y-3.502
X2.132Y-1.3457
X2.1382Y-0.6587
X2.1498Y-1.325
X2.1507Y-1.3663
X2.1512Y-1.9067
X2.1547Y-2.0728
X2.1606Y-2.189
X2.1614Y-3.253
X2.1705Y-2.1646
X2.188Y-3.6762
X2.1913Y-2.6094
X2.1998Y-2.9882
X2.2013Y-2.8066
X2.2063Y-3.7913
X2.2067Y-3.748
X2.2207Y-3.2057
X2.2274Y-2.9409
X2.2343Y-1.5571
X2.2343Y-2.0177
X2.2356Y-2.2988
X2.2411Y-2.2108
X2.2456Y-1.8527
X2.248Y-1.939
X2.2488Y-2.785
X2.2559Y-2.0571
X2.2626Y-3.5752
X2.2638Y-0.6122
X2.2687Y-2.249
X2.2953Y-1.2697
X2.3Y-2.2583
X2.3059Y-2.6846
X2.3081Y-2.8898
X2.315Y-2.3612
X2.3189Y-0.4035
X2.3587Y-1.628
X2.375Y-0.8455
X2.3768Y-1.6496
X2.3835Y-2.0004
X2.3858Y-2.3819
X2.3984Y-2.0354
X2.4035Y-1.7427
X2.4046Y-1.7014
X2.4075Y-1.4055
X2.4104Y-1.8189
X2.4114Y-2.4697
X2.4236Y-1.5748
X2.4262Y-1.6807
X2.4262Y-1.722
X2.4469Y-1.6526
X2.45Y-3.1236
X2.4504Y-2.7366
X2.4638Y-2.2224
X2.4646Y-0.4291
X2.4729Y-2.5507
X2.476Y-2.6953
X2.498Y-1.8563
X2.5157Y-1.5394
X2.5197Y-2.9852
X2.5197Y-3.3632
X2.5197Y-3.4262
X2.5197Y-3.5207
X2.5197Y-3.6152
X2.5197Y-3.7096
X2.5199Y-3.0482
X2.5276Y-1.2362
X2.5335Y-2.5837
X2.547Y-2.2001
X2.5472Y-1.2146
X2.5472Y-1.8317
X2.5512Y-1.3917
X2.5543Y-2.4709
X2.563Y-0.4093
X2.5787Y-1.1772
X2.5837Y-2.4707
X2.5864Y-2.4973
X2.5886Y-2.1309
X2.602Y-2.5472
X2.6033Y-2.219
X2.6142Y-2.5247
X2.6193Y-1.6552
X2.6232Y-2.2402
X2.6374Y-2.1083
X2.6378Y-2.9537
X2.6378Y-3.0167
X2.6378Y-3.0797
X2.6378Y-3.1427
X2.6378Y-3.2057
X2.6378Y-3.2687
X2.6378Y-3.4577
X2.6378Y-3.5522
X2.6378Y-3.6152
X2.6437Y-2.6094
X2.6439Y-2.9156
X2.6579Y-2.7366
X2.6598Y-0.6327
X2.6713Y-2.813
X2.7Y-1.4272
X2.7047Y-2.7087
X2.7087Y-2.815
X2.7155Y-1.5155
X2.7244Y-2.1161
X2.7343Y-0.8683
X2.7362Y-2.8937
X2.7703Y-0.7024
X2.7756Y-2.5024
X2.778Y-1.6626
X2.7884Y-3.3671
X2.7902Y-1.5634
X2.7992Y-0.7
X2.8013Y-2.804
X2.8031Y-2.6016
X2.8209Y-1.3622
X2.8219Y-3.3081
X2.8362Y-2.8248
X2.8376Y-2.7667
X2.8484Y-2.7323
X2.8516Y-2.1429
X2.8575Y-2.0354
X2.8591Y-0.5522
X2.878Y-1.4134
X2.8803Y-2.0551
X2.8852Y-2.7264
X2.8937Y-2.5024
X2.899Y-0.7699
X2.9028Y-0.6787
X2.9028Y-2.804
X2.911Y-1.4547
X2.9173Y-0.5315
X2.922Y-2.8248
X2.9244Y-1.6705
X2.9256Y-1.5579
X2.9331Y-2.187
X2.9518Y-0.7699
X2.9571Y-2.8323
X2.9724Y-0.5276
X2.9764Y-2.8539
X2.9959Y-0.7795
X3.0138Y-0.378
X3.0157Y-2.8031
X3.0165Y-0.9429
X3.0188Y-2.3685
X3.022Y-2.3945
X3.0618Y-1.8209
X3.063Y-0.4035
X3.0709Y-2.3819
X3.0732Y-3.2795
X3.0858Y-1.4575
X3.0965Y-0.4232
X3.1102Y-2.6059
X3.1177Y-2.1429
X3.1309Y-0.8476
X3.1528Y-1.4577
X3.1535Y-0.9547
X3.1535Y-2.6063
X3.1614Y-0.4449
X3.163Y-1.5378
X3.1657Y-1.6126
X3.172Y-1.7972
X3.1732Y-2.0344
X3.2Y-1.5661
X3.2008Y-2.6063
X3.2051Y-0.8744
X3.2118Y-2.0929
X3.2165Y-1.3484
X3.2244Y-2.3504
X3.2264Y-1.8307
X3.2264Y-1.9685
X3.2313Y-2.9537
X3.2313Y-3.0167
X3.2313Y-3.0797
X3.2313Y-3.1427
X3.2313Y-3.2057
X3.2313Y-3.2687
X3.2323Y-3.4577
X3.2323Y-3.5207
X3.2323Y-3.6467
X3.2323Y-3.7096
X3.2382Y-1.6437
X3.2413Y-1.6705
X3.2417Y-2.4043
X3.252Y-2.6063
X3.2539Y-2.1161
X3.2549Y-2.3297
X3.2583Y-2.3756
X3.2598Y-0.8642
X3.302Y-0.3693
X3.3031Y-1.2598
X3.3189Y-0.3945
X3.3528Y-2.9852
X3.3528Y-3.0482
X3.3528Y-3.1112
X3.3528Y-3.1742
X3.3528Y-3.2057
X3.3528Y-3.2372
X3.3528Y-3.3002
X3.3528Y-3.4262
X3.3528Y-3.5522
X3.3528Y-3.6152
X3.3622Y-0.6567
X3.3843Y-2.1348
X3.3858Y-1.5171
X3.3898Y-2.4803
X3.3976Y-1.9705
X3.3986Y-1.8222
X3.4016Y-2.8386
X3.402Y-2.0929
X3.4035Y-1.874
X3.4045Y-2.4528
X3.4049Y-2.0571
X3.4094Y-2.6535
X3.4098Y-1.3445
X3.4131Y-1.9498
X3.4134Y-2.1173
X3.4213Y-2.6772
X3.423Y-2.0722
X3.4291Y-2.8022
X3.4313Y-1.9291
X3.435Y-0.8917
X3.435Y-0.9193
X3.436Y-1.3681
X3.442Y-2.0516
X3.4518Y-3.8278
X3.4567Y-1.2303
X3.4642Y-0.6421
X3.4646Y-0.8917
X3.4646Y-0.9193
X3.4724Y-2.4921
X3.4921Y-0.8917
X3.4921Y-0.9193
X3.4935Y-3.0797
X3.4937Y-2.1917
X3.5079Y-3.8159
X3.5118Y-2.8425
X3.5144Y-3.1742
X3.5181Y-2.1913
X3.5217Y-0.8917
X3.5217Y-0.9193
X3.5221Y-2.4818
X3.5319Y-1.8437
X3.565Y-2.985
X3.5709Y-3.3661
X3.5732Y-1.7997
X3.5797Y-2.9537
X3.5817Y-3.2685
X3.5945Y-1.7776
X3.6094Y-0.4144
X3.6152Y-3.0167
X3.6235Y-1.7279
X3.6299Y-3.4213
X3.6407Y-1.4774
X3.6442Y-1.7092
X3.6447Y-3.3219
X3.6535Y-3.0177
X3.6543Y-1.6839
X3.6693Y-3.2372
X3.6791Y-1.6732
X3.686Y-3.3986
X3.6953Y-3.2846
X3.7Y-0.5077
X3.7031Y-1.6433
X3.7126Y-0.7106
X3.7201Y-0.6768
X3.7234Y-3.3976
X3.7264Y-0.4417
X3.7321Y-1.6431
X3.7437Y-1.3917
X3.7689Y-1.5984
X3.7726Y-0.7313
X3.7866Y-2.7957
X3.787Y-3.228
X3.7884Y-3.4567
X3.7953Y-1.1299
X3.8282Y-3.3164
X3.8337Y-1.3907
X3.8337Y-3.2638
X3.8455Y-1.3553
X3.8744Y-0.487
X3.8799Y-1.7457
X3.8799Y-3.0772
X3.9044Y-2.1139
X3.9299Y-0.4417
X3.9311Y-1.7929
X3.9518Y-2.2324
X3.965Y-2.2567
X3.9724Y-0.4291
X3.977Y-3.4925
X3.9927Y-1.9705
X4.0004Y-0.787
X4.0004Y-1.8685
X4.0024Y-2.0449
X4.0024Y-2.0449
X4.0118Y-0.4882
X4.0211Y-1.9109
X4.0272Y-2.0725
X4.0417Y-1.9287
X4.0417Y-0.587
X4.0512Y-2.4039
X4.0559Y-3.2807
X4.0563Y-2.6689
X4.0634Y-0.8528
X4.0827Y-3.1732
X4.0939Y-2.3134
X4.0984Y-2.6811
X4.0988Y-2.3756
X4.1107Y-1.0316
X4.1146Y-2.3347
X4.1337Y-3.1427
X4.1395Y-1.032
X4.1402Y-1.0606
X4.161Y-1.0866
X4.1628Y-2.0362
X4.1671Y-2.1201
X4.1878Y-1.6114
X4.1933Y-1.2835
X4.2085Y-1.4895
X4.2106Y-1.4606
X4.3189Y-1.1102
X4.3953Y-1.3228
X4.3953Y-1.3661
X4.3953Y-1.4528
X4.4724Y-0.3976
X4.5079Y-0.3701
X4.5079Y-0.4252
X4.5098Y-3.6142
X4.5098Y-3.6555
X4.5606Y-2.5787
X4.5606Y-2.7795
X4.561Y-2.6811
X4.561Y-2.7283
X4.7992Y-0.3976
X4.9518Y-3.4941
X4.9921Y-3.7205
X5.0098Y-3.4941
X5.0433Y-3.6988
X5.0738Y-3.5059
X5.0886Y-3.6772
X5.126Y-3.5295
X5.1604Y-2.0984
X5.2628Y-2.9449
X5.3612Y-3.8386
X5.3652Y-2.9616
X5.4087Y-2.928
X5.5315Y-0.0866
X5.5315Y-0.1378
X0.6485Y-1.7885
X0.6485Y-1.8342
X0.6485Y-1.88
X0.6485Y-1.9258
X0.6485Y-1.9715
X0.6942Y-1.7885
X0.6942Y-1.8342
X0.6942Y-1.88
X0.6942Y-1.9258
X0.6942Y-1.9715
X0.74Y-1.7885
X0.74Y-1.8342
X0.74Y-1.88
X0.74Y-1.9258
X0.74Y-1.9715
X0.7858Y-1.7885
X0.7858Y-1.8342
X0.7858Y-1.88
X0.7858Y-1.9258
X0.7858Y-1.9715
X0.8315Y-1.7885
X0.8315Y-1.8342
X0.8315Y-1.88
X0.8315Y-1.9258
X0.8315Y-1.9715
X5.3346Y-3.2953
X5.3346Y-3.3346
X5.3346Y-3.374
X5.374Y-3.2953
X5.374Y-3.3346
X5.374Y-3.374
X5.4134Y-3.2953
X5.4134Y-3.3346
X5.4134Y-3.374
T2
X0.1181Y-0.1575
X0.1181Y-0.2362
X0.1181Y-0.315
X0.1181Y-0.3937
X0.1181Y-1.2598
X0.1181Y-1.3386
X0.1181Y-1.4173
X0.1181Y-1.4961
X0.1181Y-1.5748
X0.1181Y-3.0709
X0.1181Y-3.189
X0.1181Y-3.3071
X0.1181Y-3.4252
X0.122Y-1.7421
X0.1969Y-0.1575
X0.1969Y-0.2362
X0.1969Y-0.315
X0.1969Y-0.3937
X0.1969Y-1.2598
X0.1969Y-1.3386
X0.1969Y-1.4173
X0.1969Y-1.4961
X0.1969Y-1.5748
X0.1969Y-3.0709
X0.1969Y-3.189
X0.1969Y-3.3071
X0.1969Y-3.4252
X0.2559Y-0.9173
X0.2756Y-0.1575
X0.2756Y-0.2362
X0.2756Y-0.315
X0.2756Y-0.3937
X0.2756Y-1.2598
X0.2756Y-1.3386
X0.2756Y-1.4173
X0.2756Y-1.4961
X0.2756Y-1.5748
X0.2756Y-3.0709
X0.2756Y-3.189
X0.2756Y-3.3071
X0.2756Y-3.4252
X0.3484Y-0.8425
X0.3543Y-1.3512
X0.372Y-0.7087
X0.378Y-0.8425
X0.3799Y-2.0315
X0.3935Y-2.7994
X0.3976Y-1.187
X0.4055Y-0.7087
X0.4104Y-2.0315
X0.4449Y-2.7992
X0.4606Y-1.437
X0.4665Y-0.7185
X0.4754Y-0.6929
X0.4764Y-1.8661
X0.4803Y-2.0
X0.4803Y-2.311
X0.4961Y-2.6024
X0.5039Y-1.248
X0.5039Y-1.2953
X0.5039Y-1.7835
X0.5157Y-2.0472
X0.5285Y-0.7244
X0.5512Y-1.8622
X0.5551Y-0.8297
X0.5787Y-0.8612
X0.5906Y-2.0315
X0.5945Y-0.685
X0.6378Y-0.8583
X0.6545Y-0.8937
X0.6575Y-1.6457
X0.6703Y-2.19
X0.6711Y-2.1635
X0.7087Y-1.437
X0.7234Y-1.248
X0.7234Y-1.2953
X0.7244Y-2.3819
X0.7362Y-1.0315
X0.752Y-2.1024
X0.7805Y-2.1329
X0.7835Y-2.063
X0.8061Y-2.1604
X0.8268Y-3.1102
X0.8268Y-3.2283
X0.8268Y-3.3465
X0.8268Y-3.4646
X0.874Y-1.6181
X0.8937Y-2.9961
X0.9055Y-3.1102
X0.9055Y-3.2283
X0.9055Y-3.3465
X0.9055Y-3.4646
X0.9075Y-2.1496
X0.9587Y-1.7697
X0.9902Y-2.2047
X0.9902Y-2.2441
X1.0079Y-1.9882
X1.0295Y-2.2047
X1.0295Y-2.2441
X1.0354Y-3.0197
X1.0709Y-2.2047
X1.0709Y-2.2431
X1.1102Y-2.2047
X1.1102Y-2.2431
X1.1112Y-2.3819
X1.1614Y-1.6929
X1.2776Y-2.1555
X1.3061Y-0.4291
X1.3415Y-0.4291
X1.376Y-0.4291
X1.3764Y-0.0819
X1.4882Y-2.1555
X1.5157Y-1.7394
X1.5161Y-1.9858
X1.5709Y-2.2372
X1.5945Y-0.3268
X1.6693Y-2.4882
X1.7146Y-0.376
X1.7185Y-0.2795
X1.752Y-1.8425
X1.752Y-2.0256
X1.7941Y-1.6744
X1.7941Y-1.7413
X1.802Y-1.5319
X1.874Y-1.398
X1.9173Y-1.398
X1.9203Y-2.0433
X1.9203Y-2.1339
X1.9203Y-2.2736
X1.9547Y-2.937
X1.9602Y-1.4992
X1.9654Y-1.6063
X1.9941Y-1.4996
X2.0429Y-1.7413
X2.0587Y-1.8406
X2.065Y-2.0965
X2.0728Y-2.5748
X2.1102Y-2.5748
X2.1417Y-2.0098
X2.1654Y-1.4646
X2.1673Y-1.5059
X2.1673Y-1.565
X2.1752Y-1.8406
X2.1752Y-2.2146
X2.1969Y-1.6063
X2.2126Y-2.5465
X2.213Y-2.5748
X2.3744Y-1.4665
X2.3772Y-1.8346
X2.3819Y-1.185
X2.4016Y-1.3583
X2.4236Y-1.0268
X2.4409Y-2.3819
X2.4606Y-1.186
X2.5197Y-3.3947
X2.5197Y-3.5837
X2.5492Y-2.3819
X2.5551Y-0.9961
X2.5945Y-0.9961
X2.5949Y-1.1028
X2.6388Y-3.3947
X2.6388Y-3.5837
X2.6969Y-1.185
X2.765Y-0.2913
X2.7756Y-2.3681
X2.8543Y-1.185
X2.8937Y-2.3691
X3.0197Y-2.437
X3.0197Y-2.5974
X3.1102Y-2.2146
X3.1496Y-2.2146
X3.1496Y-2.3819
X3.1693Y-1.065
X3.1693Y-1.185
X3.189Y-1.3583
X3.2283Y-1.186
X3.2323Y-2.9222
X3.2323Y-3.3317
X3.2323Y-3.3947
X3.2323Y-3.4892
X3.2323Y-3.5841
X3.2323Y-3.6781
X3.2323Y-3.7411
X3.2717Y-0.9783
X3.3268Y-0.9783
X3.3583Y-3.3317
X3.363Y-1.0996
X3.4335Y-1.5925
X3.439Y-1.4862
X3.439Y-1.7421
X3.439Y-1.8996
X3.439Y-2.0177
X3.439Y-2.1555
X3.4969Y-1.8484
X3.5354Y-0.5965
X3.6476Y-3.7441
X3.6594Y-1.2394
X3.7004Y-1.5059
X3.7008Y-1.5453
X3.7402Y-1.5059
X3.7402Y-1.5453
X3.7795Y-1.5059
X3.7795Y-1.5453
X3.8024Y-1.0024
X3.8366Y-3.7441
X4.0157Y-0.0394
X4.0157Y-0.0787
X4.0157Y-0.1181
X4.0157Y-0.315
X4.0472Y-3.7441
X4.0551Y-0.0394
X4.0551Y-0.0787
X4.0551Y-0.1181
X4.0551Y-0.315
X4.0945Y-0.0394
X4.0945Y-0.0787
X4.0945Y-0.1181
X4.0945Y-0.315
X4.1339Y-0.315
X4.1339Y-0.8268
X4.1339Y-0.9055
X4.1476Y-3.7441
X4.1732Y-0.315
X4.2126Y-0.315
X4.2126Y-0.8268
X4.2126Y-0.9055
X4.2244Y-0.2047
X4.248Y-3.7441
X4.252Y-2.7559
X4.252Y-2.7953
X4.252Y-2.8346
X4.252Y-2.874
X4.2717Y-1.7028
X4.2717Y-1.7618
X4.2717Y-1.8209
X4.2913Y-0.8268
X4.2913Y-0.9055
X4.2953Y-2.7559
X4.2953Y-2.7953
X4.2953Y-2.8346
X4.2953Y-2.874
X4.3307Y-1.7028
X4.3307Y-1.7618
X4.3307Y-1.8209
X4.3484Y-3.7441
X4.3701Y-0.8268
X4.3701Y-0.9055
X4.3898Y-0.0551
X4.3898Y-0.0878
X4.3898Y-1.7028
X4.3898Y-1.7618
X4.3898Y-1.8209
X4.4094Y-0.0266
X4.4488Y-0.8268
X4.4488Y-0.9055
X4.4724Y-0.3425
X4.5472Y-2.9626
X4.5472Y-3.0118
X4.5472Y-3.061
X4.5472Y-3.1102
X4.5472Y-3.248
X4.5472Y-3.2972
X4.5472Y-3.3465
X4.5472Y-3.3957
X4.5669Y-0.3248
X4.5945Y-3.8858
X4.5965Y-2.9626
X4.5965Y-3.0118
X4.5965Y-3.061
X4.5965Y-3.1102
X4.5965Y-3.248
X4.5965Y-3.2972
X4.5965Y-3.3465
X4.5965Y-3.3957
X4.6063Y-0.3248
X4.622Y-3.8386
X4.6457Y-0.3248
X4.6732Y-2.6811
X4.685Y-0.3248
X4.7244Y-0.3248
X4.7441Y-0.0394
X4.7441Y-0.0787
X4.7441Y-0.1181
X4.7638Y-0.3248
X4.7835Y-0.0394
X4.7835Y-0.0787
X4.7835Y-0.1181
X4.8228Y-0.0394
X4.8228Y-0.0787
X4.8228Y-0.1181
X4.8819Y-0.0787
X4.8819Y-0.1575
X4.8819Y-0.2362
X4.9055Y-2.4488
X4.9173Y-3.4134
X4.9173Y-3.7441
X4.9183Y-2.9783
X4.9183Y-3.3002
X4.9331Y-3.3425
X4.9331Y-3.4537
X4.9498Y-3.0315
X4.9508Y-0.0787
X4.9508Y-0.1575
X4.9508Y-0.2362
X4.9508Y-1.7717
X4.9764Y-2.248
X5.0118Y-3.2047
X5.0197Y-0.0787
X5.0197Y-0.1575
X5.0197Y-0.2362
X5.0512Y-3.2815
X5.0787Y-0.0787
X5.0787Y-0.1575
X5.0787Y-0.2362
X5.0787Y-0.748
X5.0787Y-0.8268
X5.0787Y-0.9055
X5.0996Y-0.3996
X5.0996Y-0.4744
X5.0996Y-0.5366
X5.1024Y-2.2913
X5.1035Y-3.4122
X5.111Y-0.9961
X5.111Y-1.1961
X5.111Y-1.2394
X5.111Y-1.2835
X5.1114Y-1.0571
X5.1114Y-1.1087
X5.1114Y-1.1528
X5.1181Y-2.9094
X5.1409Y-3.4118
X5.1575Y-0.0787
X5.1575Y-0.1575
X5.1575Y-0.2362
X5.1575Y-0.748
X5.1575Y-0.8268
X5.1575Y-0.9055
X5.1772Y-3.3307
X5.185Y-3.4134
X5.2161Y-3.576
X5.217Y-3.4144
X5.2362Y-0.0787
X5.2362Y-0.1575
X5.2362Y-0.2362
X5.2362Y-0.748
X5.2362Y-0.8268
X5.2362Y-0.9055
X5.2516Y-3.4311
X5.252Y-3.4685
X5.2524Y-3.576
X5.315Y-0.748
X5.315Y-0.8268
X5.315Y-0.9055
X5.3276Y-1.3098
X5.377Y-3.5984
X5.4331Y-0.748
X5.4331Y-0.8268
X5.4331Y-0.9055
X5.4331Y-1.0945
X5.4409Y-3.4961
X5.4724Y-3.2008
X5.4724Y-3.5354
X5.4724Y-3.6969
X5.5Y-3.1094
X5.522Y-3.3954
X5.5315Y-2.1545
X5.5371Y-3.2694
X5.5394Y-0.3185
X5.55Y-3.2205
X5.5512Y-0.748
X5.5512Y-0.8268
X5.5512Y-0.9055
X5.5709Y-0.1969
X5.5906Y-3.0709
X5.5906Y-3.1102
X5.5906Y-3.1496
X5.5984Y-2.2323
X5.622Y-2.9933
X5.6299Y-0.1969
X5.6299Y-3.0709
X5.6299Y-3.1102
X5.6299Y-3.1496
X5.6496Y-0.748
X5.6496Y-0.8268
X5.6634Y-3.689
X5.6693Y-3.0709
X5.6693Y-3.1102
X5.6693Y-3.1496
X5.689Y-0.1969
X5.7559Y-3.2087
X5.7795Y-3.3583
T3
X1.5413Y-0.4173
X1.5876Y-0.4173
X3.611Y-1.1953
X3.6594Y-0.5697
X3.6594Y-1.1953
X3.7047Y-0.5697
X3.7079Y-1.1953
X3.7087Y-1.002
X3.7087Y-1.0413
X3.7087Y-1.0768
X3.752Y-0.5693
X4.2047Y-0.0472
X4.2047Y-0.0945
X4.2598Y-0.0472
X4.2598Y-0.0945
X4.3583Y-0.6969
X4.3583Y-0.748
X4.3927Y-3.1545
X4.4173Y-0.6969
X4.4173Y-0.748
X4.4417Y-2.9091
X4.4439Y-3.1545
X4.4843Y-0.0512
X4.4854Y-2.9094
X4.4862Y-3.1545
X4.5287Y-2.9106
X4.5394Y-0.1654
X4.5512Y-0.0512
X4.5551Y-0.126
X4.5591Y-0.2008
X4.6801Y-1.0935
X4.7313Y-1.4331
X4.7569Y-1.4646
X4.7825Y-1.4331
X4.9331Y-0.8858
X5.1083Y-2.1618
X5.1146Y-2.422
X5.115Y-2.6417
X5.1154Y-2.5079
X5.122Y-1.4882
X5.122Y-1.6614
X5.2193Y-0.5366
X5.3161Y-1.4276
X5.4449Y-0.437
X5.4776Y-0.5551
X5.478Y-0.6138
X5.5323Y-0.5547
X5.7476Y-0.1791
X5.7476Y-0.7579
T4
X0.0659Y-2.7559
X0.1703Y-2.7559
X0.0659Y-2.3622
X0.1703Y-2.3622
T5
X5.3543Y-0.1181
X5.3543Y-0.2165
T6
X1.3335Y-3.9173
X1.4335Y-3.9173
X1.5335Y-3.9173
X1.6335Y-3.9173
X1.7335Y-3.9173
X1.8335Y-3.9173
X1.9335Y-3.9173
X2.0335Y-3.9173
X2.1335Y-3.9173
X2.2335Y-3.9173
X1.2728Y-3.0752
X1.2728Y-3.1752
X1.2728Y-3.2752
X1.2728Y-3.3752
X1.2728Y-3.4752
X1.2728Y-3.5752
X1.2728Y-3.6752
X1.2728Y-3.7752
X1.9634Y-0.1051
X1.9634Y-0.2051
X2.0634Y-0.1051
X2.0634Y-0.2051
X2.1634Y-0.1051
X2.1634Y-0.2051
X2.2634Y-0.1051
X2.2634Y-0.2051
X2.3634Y-0.1051
X2.3634Y-0.2051
X2.4634Y-0.1051
X2.4634Y-0.2051
X2.5634Y-0.1051
X2.5634Y-0.2051
X2.6634Y-0.1051
X2.6634Y-0.2051
X2.7634Y-0.1051
X2.7634Y-0.2051
X2.8634Y-0.1051
X2.8634Y-0.2051
X2.9634Y-0.1051
X2.9634Y-0.2051
X3.0634Y-0.1051
X3.0634Y-0.2051
X3.1634Y-0.1051
X3.1634Y-0.2051
X3.2634Y-0.1051
X3.2634Y-0.2051
X3.3634Y-0.1051
X3.3634Y-0.2051
X3.4634Y-0.1051
X3.4634Y-0.2051
X3.5634Y-0.1051
X3.5634Y-0.2051
X3.6634Y-0.1051
X3.6634Y-0.2051
X3.7634Y-0.1051
X3.7634Y-0.2051
X3.8634Y-0.1051
X3.8634Y-0.2051
X3.5933Y-3.9173
X3.6933Y-3.9173
X3.7933Y-3.9173
X3.8933Y-3.9173
X3.9933Y-3.9173
X4.0933Y-3.9173
X4.1933Y-3.9173
X4.2933Y-3.9173
X4.3933Y-3.9173
X4.4933Y-3.9173
X0.6547Y-3.0752
X0.6547Y-3.1752
X0.6547Y-3.2752
X0.6547Y-3.3752
X0.6547Y-3.4752
X0.6547Y-3.5752
X0.6547Y-3.6752
X0.6547Y-3.7752
X4.7335Y-1.6287
X4.7335Y-1.7287
X4.7335Y-1.8287
X4.7335Y-1.9287
X4.7335Y-2.0287
X4.7335Y-2.1287
X4.7335Y-2.2287
X4.7335Y-2.3287
X4.7335Y-2.4287
X4.7335Y-2.5287
X4.7335Y-2.6287
X4.7335Y-2.7287
X4.7335Y-2.8287
X4.7335Y-2.9287
X4.7335Y-3.0287
X4.7335Y-3.1287
X4.7335Y-3.2287
X4.7335Y-3.3287
X4.7335Y-3.4287
X4.7335Y-3.5287
X4.8335Y-1.6287
X4.8335Y-1.7287
X4.8335Y-1.8287
X4.8335Y-1.9287
X4.8335Y-2.0287
X4.8335Y-2.1287
X4.8335Y-2.2287
X4.8335Y-2.3287
X4.8335Y-2.4287
X4.8335Y-2.5287
X4.8335Y-2.6287
X4.8335Y-2.7287
X4.8335Y-2.8287
X4.8335Y-2.9287
X4.8335Y-3.0287
X4.8335Y-3.1287
X4.8335Y-3.2287
X4.8335Y-3.3287
X4.8335Y-3.4287
X4.8335Y-3.5287
T7
X5.748Y-1.378
T0
M30
