M48
; DRILL file {KiCad (5.1.7)-1} date 12/07/20 14:22:39
; FORMAT={-:-/ absolute / inch / decimal}
; #@! TF.CreationDate,2020-12-07T14:22:39+09:00
; #@! TF.GenerationSoftware,Kicad,Pcbnew,(5.1.7)-1
; #@! TF.FileFunction,Plated,1,4,PTH
FMAT,2
INCH
T1C0.0079
T2C0.0118
T3C0.0157
T4C0.0315
T5C0.0335
T6C0.0354
T7C0.0394
T8C0.0472
%
G90
G05
T1
X0.0768Y-1.2323
X0.1927Y-1.9325
X0.1927Y-1.9616
X0.1927Y-2.0181
X0.1927Y-2.0472
X0.1929Y-2.1067
X0.1929Y-2.1673
X0.1937Y-1.9911
X0.1937Y-2.0768
X0.1939Y-2.1362
X0.1939Y-2.1969
X0.2232Y-1.9325
X0.2232Y-1.9616
X0.2232Y-1.9911
X0.2232Y-2.0181
X0.2232Y-2.0472
X0.2232Y-2.0768
X0.2234Y-2.1067
X0.2234Y-2.1362
X0.2234Y-2.1673
X0.2234Y-2.1969
X0.2547Y-1.9325
X0.2547Y-1.9616
X0.2547Y-2.0181
X0.2547Y-2.0472
X0.2549Y-2.1067
X0.2549Y-2.1673
X0.2557Y-1.9911
X0.2557Y-2.0768
X0.2559Y-2.1362
X0.2559Y-2.1969
X0.2776Y-2.6465
X0.2852Y-1.9325
X0.2852Y-1.9616
X0.2852Y-1.9911
X0.2852Y-2.0181
X0.2852Y-2.0472
X0.2852Y-2.0768
X0.2854Y-2.1067
X0.2854Y-2.1362
X0.2854Y-2.1673
X0.2854Y-2.1969
X0.4173Y-1.8504
X0.4173Y-1.8799
X0.4173Y-1.9114
X0.4478Y-1.8504
X0.4478Y-1.8799
X0.4535Y-1.1268
X0.4774Y-1.8504
X0.5Y-1.0994
X0.5005Y-1.1422
X0.5148Y-1.0728
X0.5512Y-2.4449
X0.5738Y-1.0768
X0.5758Y-2.0266
X0.5758Y-2.0551
X0.5758Y-2.0817
X0.5866Y-2.7205
X0.6043Y-2.4242
X0.6112Y-1.0778
X0.6496Y-2.9291
X0.6772Y-2.8701
X0.7563Y-2.0898
X0.7669Y-2.613
X0.7679Y-2.5828
X0.7803Y-2.1134
X0.7882Y-0.6213
X0.7913Y-2.2933
X0.7929Y-2.5276
X0.8079Y-2.1409
X0.8089Y-0.5976
X0.8228Y-1.3128
X0.8228Y-1.3415
X0.8228Y-1.372
X0.8228Y-1.3996
X0.8295Y-0.5782
X0.8455Y-2.1033
X0.8502Y-0.558
X0.8563Y-1.3128
X0.8563Y-1.3415
X0.8563Y-1.372
X0.8563Y-1.3996
X0.8709Y-0.5407
X0.874Y-2.1033
X0.874Y-2.1309
X0.8878Y-1.3128
X0.8878Y-1.3415
X0.8878Y-1.372
X0.8878Y-1.3996
X0.8915Y-0.5215
X0.9122Y-0.4965
X0.9173Y-1.3128
X0.9173Y-1.3415
X0.9173Y-1.372
X0.9173Y-1.3996
X0.9213Y-2.9291
X0.9272Y-1.7303
X0.9329Y-0.4746
X0.9449Y-2.9921
X0.9528Y-1.5591
X0.9535Y-0.4537
X0.9557Y-1.8258
X1.0382Y-1.4913
X1.0384Y-1.3738
X1.0384Y-1.4043
X1.0384Y-1.4331
X1.0384Y-1.4636
X1.0719Y-1.3738
X1.0719Y-1.4043
X1.0719Y-1.4331
X1.0719Y-1.4636
X1.0719Y-1.4911
X1.1033Y-1.3738
X1.1033Y-1.4043
X1.1033Y-1.4331
X1.1033Y-1.4636
X1.1033Y-1.4911
X1.1329Y-1.3738
X1.1329Y-1.4043
X1.1329Y-1.4331
X1.1329Y-1.4636
X1.1329Y-1.4911
X1.1579Y-2.0344
X1.1589Y-1.9419
X1.1589Y-1.9734
X1.1589Y-2.0049
X1.1843Y-1.6969
X1.1843Y-1.7254
X1.1843Y-1.7541
X1.1843Y-1.7846
X1.1854Y-2.0344
X1.1864Y-1.9419
X1.1864Y-1.9734
X1.1864Y-2.0049
X1.189Y-1.3738
X1.189Y-1.4026
X1.189Y-1.4331
X1.189Y-1.4606
X1.1906Y-1.4909
X1.2146Y-1.8583
X1.2146Y-1.9016
X1.215Y-1.9421
X1.215Y-1.9736
X1.215Y-2.0051
X1.215Y-2.0346
X1.2165Y-1.3738
X1.2165Y-1.4026
X1.2165Y-1.4331
X1.2165Y-1.4606
X1.2165Y-1.4909
X1.2165Y-1.5197
X1.2165Y-1.5502
X1.2165Y-1.5778
X1.2165Y-1.61
X1.2165Y-1.6388
X1.2165Y-1.6693
X1.2165Y-1.6969
X1.2165Y-1.7254
X1.2165Y-1.7541
X1.2165Y-1.7846
X1.2165Y-1.8122
X1.2244Y-2.5728
X1.2295Y-1.078
X1.2402Y-2.124
X1.2465Y-1.9421
X1.2465Y-1.9736
X1.2465Y-2.0051
X1.2465Y-2.0346
X1.248Y-1.3738
X1.248Y-1.4026
X1.248Y-1.4331
X1.248Y-1.4606
X1.248Y-1.4909
X1.248Y-1.5197
X1.248Y-1.5502
X1.248Y-1.5778
X1.248Y-1.61
X1.248Y-1.6388
X1.248Y-1.6693
X1.248Y-1.6969
X1.248Y-1.7254
X1.248Y-1.7541
X1.248Y-1.7846
X1.248Y-1.8122
X1.2631Y-1.3172
X1.2642Y-1.1919
X1.2838Y-1.2987
X1.3238Y-1.2764
X1.3268Y-2.2193
X1.3474Y-2.186
X1.3757Y-0.9166
X1.3933Y-1.0988
X1.4008Y-0.9217
X1.4016Y-1.3106
X1.411Y-1.3671
X1.4272Y-0.8041
X1.4319Y-1.0921
X1.4358Y-1.1193
X1.4478Y-0.8465
X1.4516Y-3.3028
X1.4622Y-1.1264
X1.4646Y-2.0075
X1.4705Y-0.7587
X1.4781Y-1.3457
X1.4882Y-2.2795
X1.4882Y-2.315
X1.499Y-1.6969
X1.499Y-1.7411
X1.499Y-1.7844
X1.5236Y-2.315
X1.5315Y-2.7894
X1.5339Y-0.7303
X1.5343Y-2.3612
X1.5348Y-1.3248
X1.5512Y-2.3819
X1.5522Y-1.9457
X1.5581Y-1.3041
X1.5591Y-2.2795
X1.5591Y-2.315
X1.5728Y-1.8878
X1.5772Y-2.0736
X1.5787Y-0.6783
X1.5866Y-2.2795
X1.5866Y-2.315
X1.5935Y-1.9618
X1.5984Y-2.1362
X1.6093Y-0.6929
X1.6142Y-1.8986
X1.6152Y-3.3026
X1.6152Y-0.8356
X1.6152Y-1.1457
X1.6427Y-1.9596
X1.6634Y-1.8789
X1.6752Y-0.6122
X1.6998Y-2.3028
X1.7008Y-1.6949
X1.7165Y-0.6368
X1.7303Y-2.2028
X1.747Y-1.7035
X1.7648Y-2.9252
X1.7677Y-1.7657
X1.7972Y-2.7215
X1.7972Y-2.9341
X1.8091Y-2.6486
X1.8976Y-2.9409
X1.9134Y-2.7362
X1.9882Y-2.7894
X2.0148Y-2.7776
X2.0181Y-1.8665
X2.0248Y-1.8929
X2.0429Y-1.1681
X2.0896Y-3.3632
X2.1063Y-3.0276
X2.1268Y-2.3319
X2.127Y-3.0118
X2.1299Y-1.387
X2.1307Y-1.3043
X2.1309Y-3.502
X2.132Y-1.3457
X2.1382Y-0.6587
X2.1498Y-1.325
X2.1507Y-1.3663
X2.1512Y-1.9067
X2.1547Y-2.0728
X2.1606Y-2.189
X2.1614Y-3.253
X2.1705Y-2.1646
X2.188Y-3.6762
X2.1913Y-2.6094
X2.1998Y-2.9882
X2.2013Y-2.8066
X2.2063Y-3.7913
X2.2067Y-3.748
X2.2207Y-3.2057
X2.2274Y-2.9409
X2.2343Y-2.0177
X2.2356Y-2.2988
X2.2411Y-2.2108
X2.2456Y-1.8527
X2.248Y-1.939
X2.2488Y-2.785
X2.2559Y-2.0571
X2.2626Y-3.5752
X2.2638Y-0.6122
X2.2687Y-2.249
X2.2953Y-1.2697
X2.3Y-2.2583
X2.3059Y-2.6846
X2.3081Y-2.8898
X2.315Y-2.3612
X2.3189Y-0.4035
X2.375Y-0.8455
X2.3807Y-1.576
X2.3807Y-1.6358
X2.3835Y-2.0004
X2.3858Y-2.3819
X2.3984Y-2.0354
X2.4035Y-1.7427
X2.4046Y-1.7014
X2.4075Y-1.4055
X2.4085Y-1.5443
X2.4104Y-1.8189
X2.4114Y-2.4697
X2.4154Y-1.576
X2.4157Y-1.6358
X2.4262Y-1.6807
X2.4262Y-1.722
X2.4441Y-2.2421
X2.4469Y-1.6526
X2.45Y-3.1236
X2.4504Y-2.7366
X2.4638Y-2.2224
X2.4646Y-0.4291
X2.4729Y-2.5507
X2.476Y-2.6953
X2.498Y-1.8563
X2.5157Y-1.5394
X2.5197Y-2.9852
X2.5197Y-3.3632
X2.5197Y-3.4262
X2.5197Y-3.5207
X2.5197Y-3.6152
X2.5197Y-3.7096
X2.5199Y-3.0482
X2.5276Y-1.2362
X2.5335Y-2.5837
X2.547Y-2.2001
X2.5472Y-1.2146
X2.5472Y-1.8317
X2.5512Y-1.3917
X2.5543Y-2.4709
X2.563Y-0.4093
X2.5787Y-1.1772
X2.5837Y-2.4707
X2.5864Y-2.4973
X2.5886Y-2.1309
X2.602Y-2.5472
X2.6033Y-2.219
X2.6142Y-2.5247
X2.6193Y-1.6552
X2.6232Y-2.2402
X2.6248Y-2.1941
X2.6374Y-2.1083
X2.6378Y-2.9537
X2.6378Y-3.0167
X2.6378Y-3.0797
X2.6378Y-3.1427
X2.6378Y-3.2057
X2.6378Y-3.2687
X2.6378Y-3.4577
X2.6378Y-3.5522
X2.6378Y-3.6152
X2.6437Y-2.6094
X2.6439Y-2.9156
X2.6579Y-2.7366
X2.6594Y-2.1941
X2.6598Y-0.6327
X2.6713Y-2.813
X2.6913Y-2.1941
X2.7Y-1.4272
X2.7047Y-2.7087
X2.7087Y-2.815
X2.7155Y-1.5155
X2.7228Y-2.1941
X2.7244Y-2.1161
X2.7362Y-2.8937
X2.7559Y-1.5699
X2.7563Y-2.1941
X2.7589Y-1.4941
X2.7756Y-2.5024
X2.7766Y-1.0394
X2.778Y-1.6626
X2.7884Y-3.3671
X2.7902Y-1.5634
X2.7909Y-2.1941
X2.7992Y-0.7
X2.8013Y-2.804
X2.8031Y-2.6016
X2.8209Y-1.3622
X2.8219Y-3.3081
X2.8228Y-2.1941
X2.8362Y-2.8248
X2.8376Y-2.7667
X2.8484Y-2.7323
X2.8516Y-2.1429
X2.8543Y-0.9894
X2.8543Y-2.1941
X2.8575Y-2.0354
X2.8591Y-0.5522
X2.8642Y-1.3618
X2.8803Y-2.0551
X2.8852Y-2.7264
X2.8854Y-2.1949
X2.8937Y-2.5024
X2.899Y-0.7699
X2.9016Y-1.4134
X2.9028Y-0.6787
X2.9028Y-2.804
X2.9039Y-1.3618
X2.911Y-1.4547
X2.9173Y-0.5315
X2.922Y-2.8248
X2.9244Y-1.6705
X2.9256Y-1.5579
X2.9331Y-2.187
X2.9425Y-1.3622
X2.9518Y-0.7699
X2.9571Y-2.8323
X2.9724Y-0.5276
X2.9764Y-1.3622
X2.9764Y-2.8539
X2.9959Y-0.7795
X2.9969Y-1.8858
X2.9972Y-1.9272
X3.0138Y-0.378
X3.0157Y-2.8031
X3.0165Y-0.9429
X3.0188Y-2.3685
X3.022Y-2.3945
X3.0327Y-1.8858
X3.0327Y-1.9272
X3.0618Y-1.8209
X3.063Y-0.4035
X3.0709Y-2.3819
X3.0732Y-3.2795
X3.0858Y-1.4575
X3.0965Y-0.4232
X3.1102Y-2.6059
X3.1177Y-2.1429
X3.1309Y-0.8476
X3.1528Y-1.4577
X3.1535Y-0.9547
X3.1535Y-2.6063
X3.1614Y-0.4449
X3.163Y-1.5378
X3.1657Y-1.6126
X3.172Y-1.7972
X3.1732Y-2.0344
X3.2Y-1.5661
X3.2008Y-2.6063
X3.2051Y-0.8744
X3.2118Y-2.0929
X3.2236Y-1.3469
X3.2244Y-2.3504
X3.2264Y-1.8307
X3.2264Y-1.9685
X3.2313Y-2.9537
X3.2313Y-3.0167
X3.2313Y-3.0797
X3.2313Y-3.1427
X3.2313Y-3.2057
X3.2313Y-3.2687
X3.2323Y-3.4577
X3.2323Y-3.5207
X3.2323Y-3.6467
X3.2323Y-3.7096
X3.2382Y-1.6437
X3.2413Y-1.6705
X3.2417Y-2.4043
X3.252Y-2.6063
X3.2539Y-2.1161
X3.2549Y-2.3297
X3.2583Y-2.3756
X3.2598Y-0.8642
X3.302Y-0.3693
X3.3031Y-1.2598
X3.3189Y-0.3945
X3.3528Y-2.9852
X3.3528Y-3.0482
X3.3528Y-3.1112
X3.3528Y-3.1742
X3.3528Y-3.2057
X3.3528Y-3.2372
X3.3528Y-3.3002
X3.3528Y-3.4262
X3.3528Y-3.5522
X3.3528Y-3.6152
X3.3622Y-0.6567
X3.3843Y-2.1348
X3.3858Y-1.5171
X3.3898Y-2.4803
X3.3976Y-1.9705
X3.3986Y-1.8222
X3.4016Y-2.8386
X3.402Y-2.0929
X3.4035Y-1.874
X3.4045Y-2.4528
X3.4049Y-2.0571
X3.4094Y-2.6535
X3.4098Y-1.3445
X3.4131Y-1.9498
X3.4134Y-2.1173
X3.4213Y-2.6772
X3.423Y-2.0722
X3.4291Y-2.8022
X3.4313Y-1.9291
X3.435Y-0.8917
X3.435Y-0.9193
X3.436Y-1.3681
X3.442Y-2.0516
X3.4518Y-3.8278
X3.4567Y-1.2303
X3.4642Y-0.6421
X3.4646Y-0.8917
X3.4646Y-0.9193
X3.4724Y-2.4921
X3.4783Y-2.2031
X3.4921Y-0.8917
X3.4921Y-0.9193
X3.4935Y-3.0797
X3.5079Y-3.8159
X3.511Y-2.2031
X3.5118Y-2.8425
X3.5144Y-3.1742
X3.5217Y-0.8917
X3.5217Y-0.9193
X3.5221Y-2.4818
X3.5319Y-1.8437
X3.565Y-2.985
X3.5709Y-3.3661
X3.5732Y-1.7997
X3.5797Y-2.9537
X3.5817Y-3.2685
X3.5945Y-1.7776
X3.6094Y-0.4144
X3.6152Y-3.0167
X3.6235Y-1.7279
X3.6299Y-3.4213
X3.6378Y-1.6152
X3.6407Y-1.4774
X3.6442Y-1.7092
X3.6447Y-3.3219
X3.6535Y-3.0177
X3.6543Y-1.6839
X3.6693Y-3.2372
X3.6791Y-1.6732
X3.686Y-3.3986
X3.6953Y-3.2846
X3.7Y-0.5077
X3.7031Y-1.6433
X3.7126Y-0.7106
X3.7201Y-0.6768
X3.7234Y-3.3976
X3.7264Y-0.4417
X3.7321Y-1.6431
X3.7437Y-1.3917
X3.7689Y-1.5984
X3.7726Y-0.7313
X3.7866Y-2.7957
X3.787Y-3.228
X3.7884Y-3.4567
X3.7963Y-1.5748
X3.8071Y-1.1604
X3.8282Y-3.3164
X3.8337Y-1.3907
X3.8337Y-3.2638
X3.8455Y-1.3553
X3.8744Y-0.487
X3.8799Y-1.7457
X3.8799Y-3.0772
X3.9044Y-2.1139
X3.9163Y-0.4144
X3.9299Y-0.4417
X3.9311Y-1.7929
X3.9518Y-2.2324
X3.965Y-2.2567
X3.977Y-3.4925
X3.9927Y-0.5108
X3.9927Y-1.9705
X4.0004Y-0.787
X4.0004Y-1.8685
X4.0024Y-2.0449
X4.0024Y-2.0449
X4.0134Y-0.5748
X4.0211Y-1.9109
X4.0272Y-2.0725
X4.0417Y-1.9287
X4.0512Y-2.4039
X4.0559Y-3.2807
X4.0563Y-2.6689
X4.0634Y-0.8528
X4.0827Y-3.1732
X4.0939Y-2.3134
X4.0984Y-0.3504
X4.0984Y-2.6811
X4.0988Y-2.3756
X4.1146Y-2.3347
X4.1337Y-3.1427
X4.134Y-1.0208
X4.1358Y-1.0482
X4.1628Y-2.0362
X4.1663Y-1.0492
X4.1671Y-2.1201
X4.1878Y-1.6114
X4.188Y-1.1339
X4.2085Y-1.4895
X4.2106Y-1.4606
X4.2258Y-0.9695
X4.2274Y-1.0482
X4.2291Y-1.9142
X4.2392Y-2.0276
X4.2687Y-1.5984
X4.3071Y-1.626
X4.374Y-0.4844
X4.4139Y-0.4617
X4.5098Y-3.6142
X4.5098Y-3.6555
X4.5606Y-2.5787
X4.5606Y-2.7795
X4.561Y-2.6811
X4.561Y-2.7283
X4.564Y-1.9301
X4.564Y-2.0276
X4.9213Y-1.188
X4.9518Y-3.4941
X4.9921Y-3.7205
X5.0098Y-3.4941
X5.0433Y-3.6988
X5.0738Y-3.5059
X5.0886Y-3.6772
X5.126Y-3.5295
X5.1604Y-2.0984
X5.2628Y-2.9449
X5.3612Y-3.8386
X5.3652Y-2.9616
X5.4087Y-2.928
X5.5315Y-0.0866
X5.5315Y-0.1378
X5.3346Y-3.2953
X5.3346Y-3.3346
X5.3346Y-3.374
X5.374Y-3.2953
X5.374Y-3.3346
X5.374Y-3.374
X5.4134Y-3.2953
X5.4134Y-3.3346
X5.4134Y-3.374
X0.6691Y-1.853
X0.6691Y-1.907
X0.713Y-1.8091
X0.713Y-1.853
X0.713Y-1.907
X0.713Y-1.9509
X0.767Y-1.8091
X0.767Y-1.853
X0.767Y-1.907
X0.767Y-1.9509
X0.8109Y-1.8524
X0.8109Y-1.9076
T2
X0.0984Y-0.5591
X0.0984Y-0.6024
X0.0984Y-0.6457
X0.0984Y-0.689
X0.0984Y-0.7323
X0.0984Y-0.7756
X0.0984Y-0.8189
X0.0984Y-0.8622
X0.1171Y-1.7707
X0.1171Y-1.8051
X0.1171Y-1.8386
X0.1299Y-1.6933
X0.1303Y-1.5606
X0.1307Y-1.5193
X0.1307Y-1.6067
X0.1307Y-1.6512
X0.1457Y-0.5591
X0.1457Y-0.6024
X0.1457Y-0.6457
X0.1457Y-0.689
X0.1457Y-0.7323
X0.1457Y-0.7756
X0.1457Y-0.8189
X0.1457Y-0.8622
X0.1585Y-1.7707
X0.1585Y-1.8051
X0.1585Y-1.8386
X0.1689Y-1.6933
X0.1693Y-1.5606
X0.1697Y-1.5193
X0.1697Y-1.6067
X0.1697Y-1.6512
X0.189Y-3.5276
X0.189Y-3.5748
X0.189Y-3.622
X0.189Y-3.6693
X0.1929Y-0.5591
X0.1929Y-0.6024
X0.1929Y-0.6457
X0.1929Y-0.689
X0.1929Y-0.7323
X0.1929Y-0.7756
X0.1929Y-0.8189
X0.1929Y-0.8622
X0.2087Y-1.6933
X0.2091Y-1.5606
X0.2094Y-1.5193
X0.2094Y-1.6067
X0.2094Y-1.6512
X0.2441Y-3.5276
X0.2441Y-3.5748
X0.2441Y-3.622
X0.2441Y-3.6693
X0.2484Y-1.6933
X0.2488Y-1.5606
X0.2492Y-1.5193
X0.2492Y-1.6067
X0.2492Y-1.6512
X0.2854Y-0.8425
X0.2874Y-0.902
X0.2874Y-1.6933
X0.2878Y-1.5606
X0.2882Y-1.5193
X0.2882Y-1.6067
X0.2882Y-1.6512
X0.2992Y-3.5276
X0.2992Y-3.5748
X0.2992Y-3.622
X0.2992Y-3.6693
X0.3091Y-0.7087
X0.315Y-0.8425
X0.3425Y-0.7087
X0.3543Y-1.3512
X0.3543Y-3.5276
X0.3543Y-3.5748
X0.3543Y-3.622
X0.3543Y-3.6693
X0.3935Y-2.7994
X0.3976Y-1.187
X0.4016Y-3.5276
X0.4016Y-3.5748
X0.4016Y-3.622
X0.4016Y-3.6693
X0.4035Y-0.7185
X0.4124Y-0.6929
X0.4449Y-2.7992
X0.4567Y-3.5276
X0.4567Y-3.5748
X0.4567Y-3.622
X0.4567Y-3.6693
X0.4606Y-1.437
X0.4626Y-2.0335
X0.4656Y-0.7244
X0.4756Y-2.2181
X0.4921Y-0.8297
X0.4961Y-2.6024
X0.5039Y-1.2598
X0.5039Y-1.2953
X0.5039Y-1.3307
X0.5118Y-3.5276
X0.5118Y-3.5748
X0.5118Y-3.622
X0.5118Y-3.6693
X0.5157Y-0.8612
X0.5165Y-1.944
X0.5236Y-2.2862
X0.5315Y-0.685
X0.5417Y-1.9629
X0.5669Y-3.5276
X0.5669Y-3.5748
X0.5669Y-3.622
X0.5669Y-3.6693
X0.5748Y-0.8583
X0.5915Y-0.8937
X0.613Y-1.602
X0.6413Y-1.6295
X0.6697Y-1.6579
X0.6713Y-2.1189
X0.6713Y-2.1484
X0.6908Y-1.9823
X0.7087Y-1.437
X0.7234Y-1.2598
X0.7234Y-1.2953
X0.7234Y-1.3307
X0.7774Y-1.6969
X0.811Y-3.5276
X0.811Y-3.5748
X0.811Y-3.622
X0.811Y-3.6693
X0.8632Y-1.6152
X0.8661Y-3.5276
X0.8661Y-3.5748
X0.8661Y-3.622
X0.8661Y-3.6693
X0.8858Y-2.0689
X0.8886Y-0.9831
X0.8976Y-1.6152
X0.9085Y-2.1093
X0.9085Y-2.1398
X0.9213Y-3.5276
X0.9213Y-3.5748
X0.9213Y-3.622
X0.9213Y-3.6693
X0.9331Y-1.6152
X0.9683Y-2.2006
X0.9683Y-2.2411
X0.9683Y-2.2805
X0.9685Y-2.1199
X0.9685Y-2.1604
X0.9764Y-3.5276
X0.9764Y-3.5748
X0.9764Y-3.622
X0.9764Y-3.6693
X1.0079Y-1.3189
X1.0079Y-2.1199
X1.0079Y-2.1604
X1.0081Y-2.2006
X1.0081Y-2.2411
X1.0081Y-2.2805
X1.0236Y-3.5276
X1.0236Y-3.5748
X1.0236Y-3.622
X1.0236Y-3.6693
X1.0315Y-0.1772
X1.0315Y-0.2146
X1.0315Y-0.252
X1.0315Y-0.2894
X1.0315Y-0.3248
X1.0315Y-0.3622
X1.0315Y-0.3976
X1.0315Y-0.435
X1.049Y-2.2006
X1.049Y-2.2411
X1.049Y-2.2795
X1.0492Y-2.1199
X1.0492Y-2.1604
X1.0669Y-0.1772
X1.0669Y-0.2146
X1.0669Y-0.252
X1.0669Y-0.2894
X1.0669Y-0.3248
X1.0669Y-0.3622
X1.0669Y-0.3976
X1.0669Y-0.435
X1.0709Y-1.8272
X1.0709Y-1.9854
X1.0787Y-3.5276
X1.0787Y-3.5748
X1.0787Y-3.622
X1.0787Y-3.6693
X1.0884Y-2.2006
X1.0884Y-2.2411
X1.0884Y-2.2795
X1.0886Y-2.1199
X1.0886Y-2.1604
X1.1063Y-0.1772
X1.1063Y-0.2146
X1.1063Y-0.252
X1.1063Y-0.2894
X1.1063Y-0.3248
X1.1063Y-0.3622
X1.1063Y-0.3976
X1.1063Y-0.435
X1.1339Y-3.5276
X1.1339Y-3.5748
X1.1339Y-3.622
X1.1339Y-3.6693
X1.1457Y-0.1772
X1.1457Y-0.1772
X1.1457Y-0.2146
X1.1457Y-0.2146
X1.1457Y-0.252
X1.1457Y-0.252
X1.1614Y-1.0043
X1.185Y-0.1772
X1.185Y-0.2146
X1.185Y-0.252
X1.189Y-3.5276
X1.189Y-3.5748
X1.189Y-3.622
X1.189Y-3.6693
X1.2776Y-2.1555
X1.3764Y-0.0819
X1.4882Y-2.1362
X1.5Y-0.0551
X1.5Y-0.0906
X1.5Y-0.1299
X1.5394Y-0.0551
X1.5394Y-0.0906
X1.5394Y-0.1299
X1.5787Y-0.0551
X1.5787Y-0.0906
X1.5787Y-0.1299
X1.6161Y-1.7628
X1.6181Y-0.0551
X1.6181Y-0.0551
X1.6181Y-0.0906
X1.6181Y-0.0906
X1.6181Y-0.1299
X1.6181Y-0.1299
X1.626Y-0.2638
X1.626Y-0.2638
X1.6575Y-0.0551
X1.6575Y-0.0906
X1.6575Y-0.1299
X1.6654Y-0.2638
X1.6693Y-2.4882
X1.6969Y-0.0551
X1.6969Y-0.0551
X1.6969Y-0.0906
X1.6969Y-0.0906
X1.6969Y-0.1299
X1.6969Y-0.1299
X1.7008Y-0.2283
X1.7008Y-0.2283
X1.7008Y-0.2638
X1.7008Y-0.2638
X1.7008Y-0.3031
X1.7008Y-0.3031
X1.7008Y-0.3425
X1.7008Y-0.3425
X1.7008Y-0.378
X1.7008Y-0.378
X1.7008Y-0.4173
X1.7008Y-0.4173
X1.7362Y-0.0551
X1.7362Y-0.0906
X1.7362Y-0.1299
X1.7362Y-0.2283
X1.7362Y-0.2638
X1.7362Y-0.3031
X1.7362Y-0.3425
X1.7362Y-0.378
X1.7362Y-0.4173
X1.752Y-1.8425
X1.752Y-2.0256
X1.7941Y-1.6744
X1.7941Y-1.7413
X1.802Y-1.5319
X1.874Y-1.398
X1.9173Y-1.398
X1.9203Y-2.0433
X1.9203Y-2.1339
X1.9203Y-2.2736
X1.9547Y-2.937
X1.9587Y-1.6063
X1.9602Y-1.4992
X1.9941Y-1.4996
X1.9945Y-1.6063
X2.0429Y-1.7413
X2.0587Y-1.8406
X2.065Y-2.0965
X2.0728Y-2.5748
X2.1102Y-2.5748
X2.1417Y-2.0098
X2.1654Y-1.4646
X2.1673Y-1.5059
X2.1673Y-1.565
X2.1752Y-1.8406
X2.1752Y-2.2146
X2.1969Y-1.6063
X2.213Y-2.5465
X2.213Y-2.5748
X2.3701Y-1.8583
X2.3701Y-1.8937
X2.3701Y-1.9291
X2.3744Y-1.4665
X2.3819Y-1.185
X2.4016Y-1.3583
X2.4016Y-1.8583
X2.4016Y-1.8937
X2.4016Y-1.9291
X2.4236Y-1.0268
X2.4409Y-2.3819
X2.4606Y-1.186
X2.5197Y-3.3947
X2.5197Y-3.5837
X2.5492Y-2.3819
X2.5551Y-0.9961
X2.5945Y-0.9961
X2.5949Y-1.1028
X2.6388Y-3.3947
X2.6388Y-3.5837
X2.6969Y-1.185
X2.7598Y-0.3543
X2.7756Y-2.3681
X2.8543Y-1.185
X2.8937Y-2.3691
X3.0197Y-2.437
X3.0197Y-2.5974
X3.0528Y-2.5974
X3.1102Y-2.2146
X3.1496Y-2.2146
X3.1496Y-2.3819
X3.1693Y-1.065
X3.1693Y-1.185
X3.189Y-1.3583
X3.2283Y-1.186
X3.2323Y-2.9222
X3.2323Y-3.3317
X3.2323Y-3.3947
X3.2323Y-3.4892
X3.2323Y-3.5841
X3.2323Y-3.6781
X3.2323Y-3.7411
X3.2717Y-0.9783
X3.3268Y-0.9783
X3.3583Y-3.3317
X3.363Y-1.0996
X3.4335Y-1.5925
X3.439Y-1.4862
X3.439Y-1.7421
X3.439Y-1.8996
X3.439Y-2.0177
X3.439Y-2.1555
X3.4969Y-1.8484
X3.5354Y-0.5965
X3.6476Y-3.7441
X3.6823Y-1.4953
X3.6827Y-1.5346
X3.722Y-1.4953
X3.722Y-1.5346
X3.7614Y-1.4953
X3.7614Y-1.5346
X3.8024Y-1.0024
X3.8366Y-3.7441
X4.0374Y-0.0709
X4.0374Y-0.1063
X4.0374Y-0.1437
X4.0374Y-0.1831
X4.0472Y-3.7441
X4.0748Y-0.0689
X4.0768Y-0.1831
X4.1142Y-0.0689
X4.1181Y-0.1831
X4.1476Y-3.7441
X4.2343Y-2.7913
X4.2343Y-2.8307
X4.2343Y-2.8701
X4.2343Y-2.9094
X4.248Y-3.7441
X4.2776Y-2.7913
X4.2776Y-2.8307
X4.2776Y-2.8701
X4.2776Y-2.9094
X4.3071Y-1.1654
X4.3071Y-1.2047
X4.3071Y-1.248
X4.3071Y-1.2874
X4.3071Y-1.3228
X4.3071Y-1.3622
X4.3071Y-1.4016
X4.3071Y-1.4409
X4.3075Y-1.4819
X4.3075Y-1.5252
X4.3209Y-2.7913
X4.3209Y-2.8307
X4.3209Y-2.8701
X4.3209Y-2.9094
X4.328Y-3.3528
X4.328Y-3.402
X4.328Y-3.4512
X4.328Y-3.5004
X4.3445Y-1.1657
X4.3445Y-1.2051
X4.3445Y-1.2484
X4.3445Y-1.2878
X4.3445Y-1.3232
X4.3445Y-1.3622
X4.3445Y-1.402
X4.3445Y-1.4409
X4.3453Y-1.4827
X4.3453Y-1.5264
X4.3484Y-3.7441
X4.3622Y-2.7913
X4.3622Y-2.8307
X4.3622Y-2.8701
X4.3622Y-2.9094
X4.374Y-3.3524
X4.374Y-3.4016
X4.374Y-3.4508
X4.374Y-3.5
X4.3819Y-1.1654
X4.3819Y-1.2047
X4.3819Y-1.248
X4.3819Y-1.2874
X4.3819Y-1.3228
X4.3819Y-1.3622
X4.3819Y-1.4016
X4.3819Y-1.4409
X4.3823Y-1.4819
X4.3823Y-1.5252
X4.4016Y-2.8307
X4.4016Y-2.8701
X4.4016Y-2.9094
X4.4173Y-3.3524
X4.4173Y-3.4016
X4.4173Y-3.4508
X4.4173Y-3.5
X4.4213Y-1.3622
X4.4213Y-1.4016
X4.4213Y-1.4409
X4.4217Y-1.4819
X4.4217Y-1.5252
X4.4594Y-1.4827
X4.4594Y-1.526
X4.4606Y-1.3622
X4.4606Y-1.4016
X4.4606Y-1.4409
X4.4626Y-3.3524
X4.4626Y-3.4016
X4.4626Y-3.4508
X4.4626Y-3.5
X4.5039Y-3.3524
X4.5039Y-3.4016
X4.5039Y-3.4508
X4.5039Y-3.5
X4.5154Y-0.6803
X4.5154Y-0.7201
X4.5154Y-0.7591
X4.5154Y-0.8024
X4.5154Y-0.8421
X4.5154Y-0.8811
X4.5154Y-0.9228
X4.5154Y-0.9665
X4.5453Y-3.3524
X4.5453Y-3.4016
X4.5453Y-3.4508
X4.5453Y-3.5
X4.5524Y-0.922
X4.5524Y-0.9654
X4.5528Y-0.6803
X4.5528Y-0.7197
X4.5528Y-0.7591
X4.5528Y-0.8024
X4.5528Y-0.8417
X4.5528Y-0.8811
X4.5876Y-0.0394
X4.5876Y-0.0787
X4.5876Y-0.1181
X4.5902Y-0.9228
X4.5902Y-0.9661
X4.5921Y-0.6803
X4.5921Y-0.7197
X4.5921Y-0.7591
X4.5921Y-0.8024
X4.5921Y-0.8417
X4.5921Y-0.8811
X4.5945Y-3.8858
X4.622Y-3.8386
X4.6289Y-0.0394
X4.6289Y-0.0787
X4.6289Y-0.1181
X4.6683Y-0.0394
X4.6683Y-0.0787
X4.6683Y-0.1181
X4.6732Y-2.6811
X4.7008Y-0.3179
X4.7008Y-0.3573
X4.7008Y-0.3967
X4.7008Y-0.4346
X4.7077Y-0.0394
X4.7077Y-0.0787
X4.7077Y-0.1181
X4.7402Y-0.2392
X4.7402Y-0.2766
X4.7402Y-0.3179
X4.7402Y-0.3573
X4.7402Y-0.3967
X4.7402Y-0.435
X4.75Y-0.0394
X4.75Y-0.0787
X4.75Y-0.1181
X4.7825Y-0.2392
X4.7825Y-0.2756
X4.7825Y-0.3179
X4.7825Y-0.3573
X4.7825Y-0.3967
X4.7825Y-0.435
X4.8437Y-1.4094
X4.8437Y-1.4488
X4.8811Y-1.4094
X4.8811Y-1.4488
X4.9055Y-2.4488
X4.9173Y-1.2835
X4.9173Y-1.3268
X4.9173Y-1.3701
X4.9173Y-1.4094
X4.9173Y-1.4488
X4.9173Y-3.4134
X4.9173Y-3.7441
X4.9183Y-2.9783
X4.9183Y-3.3002
X4.9331Y-3.3425
X4.9331Y-3.4537
X4.9498Y-3.0315
X4.9508Y-1.7717
X4.9547Y-1.2839
X4.9547Y-1.3272
X4.9547Y-1.3705
X4.9547Y-1.4094
X4.9547Y-1.4488
X4.9565Y-0.7463
X4.9565Y-0.8297
X4.9569Y-0.7896
X4.9764Y-2.248
X4.9921Y-1.2835
X4.9921Y-1.3268
X4.9921Y-1.3701
X4.9921Y-1.4094
X4.9921Y-1.4488
X4.9939Y-0.7463
X4.9939Y-0.8297
X4.9943Y-0.7896
X5.0118Y-3.2047
X5.0333Y-0.7463
X5.0333Y-0.8297
X5.0337Y-0.7896
X5.0512Y-3.2815
X5.0736Y-0.7465
X5.0736Y-0.7898
X5.0736Y-0.8295
X5.0736Y-0.8685
X5.0744Y-0.9102
X5.0744Y-0.9535
X5.0996Y-0.3996
X5.0996Y-0.4744
X5.0996Y-0.5366
X5.1024Y-2.2913
X5.1035Y-3.4122
X5.111Y-0.7465
X5.111Y-0.7898
X5.111Y-0.8295
X5.111Y-0.8685
X5.111Y-0.9961
X5.111Y-1.1961
X5.111Y-1.2394
X5.111Y-1.2835
X5.1114Y-0.9102
X5.1114Y-0.9535
X5.1114Y-1.0571
X5.1114Y-1.1087
X5.1114Y-1.1528
X5.1181Y-2.9094
X5.1409Y-3.4118
X5.1492Y-0.9102
X5.1492Y-0.9535
X5.1504Y-0.7465
X5.1504Y-0.7898
X5.1504Y-0.8295
X5.1504Y-0.8685
X5.153Y-0.0789
X5.1533Y-0.0392
X5.1533Y-0.1187
X5.1575Y-3.6949
X5.1575Y-3.7343
X5.1575Y-3.7736
X5.1772Y-3.3307
X5.185Y-3.4134
X5.1963Y-0.0789
X5.1967Y-0.0392
X5.1967Y-0.1187
X5.1969Y-3.6949
X5.1969Y-3.7343
X5.1969Y-3.7736
X5.217Y-3.4144
X5.2362Y-3.6949
X5.2362Y-3.7343
X5.2362Y-3.7736
X5.2396Y-0.0789
X5.24Y-0.0392
X5.24Y-0.1187
X5.2516Y-3.4311
X5.252Y-3.4685
X5.2756Y-3.6949
X5.2756Y-3.7343
X5.2756Y-3.7736
X5.2868Y-0.0789
X5.2872Y-0.0392
X5.2872Y-0.1187
X5.2904Y-3.5138
X5.313Y-3.4911
X5.315Y-3.6949
X5.315Y-3.7343
X5.315Y-3.7736
X5.3276Y-1.3098
X5.3301Y-0.0789
X5.3305Y-0.0392
X5.3305Y-0.1187
X5.3543Y-3.6949
X5.3543Y-3.7343
X5.3543Y-3.7736
X5.3734Y-0.0789
X5.3738Y-0.0392
X5.3738Y-0.1187
X5.377Y-3.5984
X5.4409Y-3.4961
X5.4449Y-0.437
X5.4449Y-1.0945
X5.4543Y-3.6949
X5.4543Y-3.7343
X5.4543Y-3.7736
X5.4724Y-3.5354
X5.4803Y-0.437
X5.4807Y-1.0945
X5.4937Y-3.6949
X5.4937Y-3.7343
X5.4937Y-3.7736
X5.5Y-3.1094
X5.5047Y-3.2008
X5.522Y-3.3954
X5.5315Y-2.1545
X5.5371Y-3.2694
X5.5394Y-0.3185
X5.5472Y-3.0846
X5.5472Y-3.124
X5.5472Y-3.1634
X5.55Y-3.2205
X5.5709Y-0.1969
X5.5866Y-3.0846
X5.5866Y-3.124
X5.5866Y-3.1634
X5.5984Y-2.2323
X5.622Y-2.9933
X5.626Y-3.0846
X5.626Y-3.124
X5.626Y-3.1634
X5.6299Y-0.1969
X5.637Y-3.5362
X5.637Y-3.5756
X5.637Y-3.6177
X5.6634Y-3.689
X5.6654Y-3.0846
X5.6654Y-3.124
X5.6654Y-3.1634
X5.6764Y-3.5362
X5.6764Y-3.5756
X5.6764Y-3.6177
X5.689Y-0.1969
X5.7051Y-3.0846
X5.7051Y-3.124
X5.7051Y-3.1634
X5.7157Y-3.5362
X5.7157Y-3.5756
X5.7157Y-3.6177
X5.7559Y-3.2087
X5.7571Y-3.5362
X5.7571Y-3.5756
X5.7571Y-3.6177
X5.7795Y-3.3583
X5.7965Y-3.5362
X5.7965Y-3.5756
X5.7965Y-3.6177
T3
X1.189Y-0.3764
X1.189Y-0.4331
X1.2441Y-0.3764
X1.2441Y-0.4331
X1.2992Y-0.3764
X1.2992Y-0.4331
X1.3543Y-0.3764
X1.3543Y-0.4331
X1.4094Y-0.3764
X1.4094Y-0.4331
X1.5169Y-0.378
X1.5169Y-0.4331
X1.5669Y-0.378
X1.5669Y-0.4331
X1.622Y-0.378
X1.622Y-0.4331
X3.611Y-1.1953
X3.6594Y-0.5697
X3.6594Y-1.1953
X3.7047Y-0.5697
X3.7079Y-1.1953
X3.7087Y-1.002
X3.7087Y-1.0413
X3.7087Y-1.0768
X3.752Y-0.5693
X4.2598Y-0.0945
X4.2598Y-0.1457
X4.2598Y-0.1929
X4.315Y-0.0945
X4.315Y-0.1457
X4.315Y-0.1929
X4.3701Y-0.0394
X4.3701Y-0.0935
X4.4016Y-3.1457
X4.4173Y-0.0394
X4.4173Y-0.0945
X4.4417Y-2.9091
X4.4429Y-3.1457
X4.4854Y-2.9094
X4.4862Y-2.8642
X4.4862Y-3.1457
X4.5197Y-0.1693
X4.5197Y-0.2205
X4.5197Y-0.2677
X4.5315Y-3.1457
X4.563Y-0.1693
X4.563Y-0.2205
X4.563Y-0.2677
X4.5862Y-1.748
X4.5866Y-1.2791
X4.5866Y-1.3303
X4.5866Y-1.3815
X4.5866Y-1.4362
X4.5866Y-1.4874
X4.5866Y-1.5386
X4.5866Y-1.5945
X4.5866Y-1.6457
X4.5866Y-1.6969
X4.6413Y-1.748
X4.6417Y-1.2791
X4.6417Y-1.3303
X4.6417Y-1.3815
X4.6417Y-1.4362
X4.6417Y-1.4874
X4.6417Y-1.5386
X4.6417Y-1.5945
X4.6417Y-1.6457
X4.6417Y-1.6969
X4.6693Y-0.8898
X4.6693Y-0.9488
X4.6697Y-0.6421
X4.6969Y-1.4362
X4.6969Y-1.4874
X4.6969Y-1.5386
X4.7244Y-0.8898
X4.7244Y-0.9488
X4.7287Y-0.6421
X4.752Y-1.4362
X4.752Y-1.4874
X4.752Y-1.5386
X4.7874Y-0.8898
X4.7874Y-0.9488
X4.7878Y-0.6421
X4.8469Y-0.6421
X4.8469Y-0.698
X4.8469Y-0.7571
X4.8469Y-0.8118
X5.1083Y-2.1618
X5.1146Y-2.422
X5.115Y-2.6417
X5.1154Y-2.5079
X5.122Y-1.4882
X5.122Y-1.6614
X5.2193Y-0.5366
X5.3161Y-1.4276
X5.4776Y-0.5551
X5.478Y-0.6138
X5.5323Y-0.5547
X5.5323Y-0.6134
X5.7476Y-0.1791
X5.7476Y-0.7579
T4
X0.0659Y-2.3622
X0.1703Y-2.3622
X0.0659Y-2.7559
X0.1703Y-2.7559
T5
X4.9016Y-0.0807
X5.0Y-0.0807
T6
X1.2728Y-3.0752
X1.2728Y-3.1752
X1.2728Y-3.2752
X1.2728Y-3.3752
X1.2728Y-3.4752
X1.2728Y-3.5752
X1.2728Y-3.6752
X1.2728Y-3.7752
X0.6547Y-3.0752
X0.6547Y-3.1752
X0.6547Y-3.2752
X0.6547Y-3.3752
X0.6547Y-3.4752
X0.6547Y-3.5752
X0.6547Y-3.6752
X0.6547Y-3.7752
T7
X1.9634Y-0.1051
X1.9634Y-0.2051
X2.0634Y-0.1051
X2.0634Y-0.2051
X2.1634Y-0.1051
X2.1634Y-0.2051
X2.2634Y-0.1051
X2.2634Y-0.2051
X2.3634Y-0.1051
X2.3634Y-0.2051
X2.4634Y-0.1051
X2.4634Y-0.2051
X2.5634Y-0.1051
X2.5634Y-0.2051
X2.6634Y-0.1051
X2.6634Y-0.2051
X2.7634Y-0.1051
X2.7634Y-0.2051
X2.8634Y-0.1051
X2.8634Y-0.2051
X2.9634Y-0.1051
X2.9634Y-0.2051
X3.0634Y-0.1051
X3.0634Y-0.2051
X3.1634Y-0.1051
X3.1634Y-0.2051
X3.2634Y-0.1051
X3.2634Y-0.2051
X3.3634Y-0.1051
X3.3634Y-0.2051
X3.4634Y-0.1051
X3.4634Y-0.2051
X3.5634Y-0.1051
X3.5634Y-0.2051
X3.6634Y-0.1051
X3.6634Y-0.2051
X3.7634Y-0.1051
X3.7634Y-0.2051
X3.8634Y-0.1051
X3.8634Y-0.2051
X1.3335Y-3.9173
X1.4335Y-3.9173
X1.5335Y-3.9173
X1.6335Y-3.9173
X1.7335Y-3.9173
X1.8335Y-3.9173
X1.9335Y-3.9173
X2.0335Y-3.9173
X2.1335Y-3.9173
X2.2335Y-3.9173
X3.5933Y-3.9173
X3.6933Y-3.9173
X3.7933Y-3.9173
X3.8933Y-3.9173
X3.9933Y-3.9173
X4.0933Y-3.9173
X4.1933Y-3.9173
X4.2933Y-3.9173
X4.3933Y-3.9173
X4.4933Y-3.9173
X4.7335Y-1.6287
X4.7335Y-1.7287
X4.7335Y-1.8287
X4.7335Y-1.9287
X4.7335Y-2.0287
X4.7335Y-2.1287
X4.7335Y-2.2287
X4.7335Y-2.3287
X4.7335Y-2.4287
X4.7335Y-2.5287
X4.7335Y-2.6287
X4.7335Y-2.7287
X4.7335Y-2.8287
X4.7335Y-2.9287
X4.7335Y-3.0287
X4.7335Y-3.1287
X4.7335Y-3.2287
X4.7335Y-3.3287
X4.7335Y-3.4287
X4.7335Y-3.5287
X4.8335Y-1.6287
X4.8335Y-1.7287
X4.8335Y-1.8287
X4.8335Y-1.9287
X4.8335Y-2.0287
X4.8335Y-2.1287
X4.8335Y-2.2287
X4.8335Y-2.3287
X4.8335Y-2.4287
X4.8335Y-2.5287
X4.8335Y-2.6287
X4.8335Y-2.7287
X4.8335Y-2.8287
X4.8335Y-2.9287
X4.8335Y-3.0287
X4.8335Y-3.1287
X4.8335Y-3.2287
X4.8335Y-3.3287
X4.8335Y-3.4287
X4.8335Y-3.5287
T8
X5.748Y-1.378
T0
M30
