%TF.GenerationSoftware,KiCad,Pcbnew,(5.1.6)-1*%
%TF.CreationDate,2020-11-03T20:49:50+09:00*%
%TF.ProjectId,FlightComputer,466c6967-6874-4436-9f6d-70757465722e,rev?*%
%TF.SameCoordinates,Original*%
%TF.FileFunction,Soldermask,Bot*%
%TF.FilePolarity,Negative*%
%FSLAX46Y46*%
G04 Gerber Fmt 4.6, Leading zero omitted, Abs format (unit mm)*
G04 Created by KiCad (PCBNEW (5.1.6)-1) date 2020-11-03 20:49:50*
%MOMM*%
%LPD*%
G01*
G04 APERTURE LIST*
%ADD10R,1.800000X1.800000*%
%ADD11C,1.800000*%
%ADD12C,0.900000*%
%ADD13O,1.800000X1.800000*%
%ADD14O,1.950000X1.800000*%
%ADD15C,2.500000*%
G04 APERTURE END LIST*
D10*
%TO.C,M3*%
X16630000Y-95890000D03*
D11*
X16630000Y-93350000D03*
X16630000Y-90810000D03*
X16630000Y-88270000D03*
X16630000Y-85730000D03*
X16630000Y-83190000D03*
X16630000Y-80650000D03*
X16630000Y-78110000D03*
%TD*%
%TO.C,M2*%
X32330000Y-78110000D03*
X32330000Y-80650000D03*
X32330000Y-83190000D03*
X32330000Y-85730000D03*
X32330000Y-88270000D03*
X32330000Y-90810000D03*
X32330000Y-93350000D03*
D10*
X32330000Y-95890000D03*
%TD*%
D12*
%TO.C,SW11*%
X4325000Y-60000000D03*
X1675000Y-60000000D03*
%TD*%
%TO.C,SW10*%
X4325000Y-70000000D03*
X1675000Y-70000000D03*
%TD*%
%TO.C,R94*%
G36*
G01*
X65085000Y-81227500D02*
X65085000Y-81622500D01*
G75*
G02*
X64912500Y-81795000I-172500J0D01*
G01*
X64567500Y-81795000D01*
G75*
G02*
X64395000Y-81622500I0J172500D01*
G01*
X64395000Y-81227500D01*
G75*
G02*
X64567500Y-81055000I172500J0D01*
G01*
X64912500Y-81055000D01*
G75*
G02*
X65085000Y-81227500I0J-172500D01*
G01*
G37*
G36*
G01*
X66055000Y-81227500D02*
X66055000Y-81622500D01*
G75*
G02*
X65882500Y-81795000I-172500J0D01*
G01*
X65537500Y-81795000D01*
G75*
G02*
X65365000Y-81622500I0J172500D01*
G01*
X65365000Y-81227500D01*
G75*
G02*
X65537500Y-81055000I172500J0D01*
G01*
X65882500Y-81055000D01*
G75*
G02*
X66055000Y-81227500I0J-172500D01*
G01*
G37*
%TD*%
%TO.C,R91*%
G36*
G01*
X83940000Y-81622500D02*
X83940000Y-81227500D01*
G75*
G02*
X84112500Y-81055000I172500J0D01*
G01*
X84457500Y-81055000D01*
G75*
G02*
X84630000Y-81227500I0J-172500D01*
G01*
X84630000Y-81622500D01*
G75*
G02*
X84457500Y-81795000I-172500J0D01*
G01*
X84112500Y-81795000D01*
G75*
G02*
X83940000Y-81622500I0J172500D01*
G01*
G37*
G36*
G01*
X82970000Y-81622500D02*
X82970000Y-81227500D01*
G75*
G02*
X83142500Y-81055000I172500J0D01*
G01*
X83487500Y-81055000D01*
G75*
G02*
X83660000Y-81227500I0J-172500D01*
G01*
X83660000Y-81622500D01*
G75*
G02*
X83487500Y-81795000I-172500J0D01*
G01*
X83142500Y-81795000D01*
G75*
G02*
X82970000Y-81622500I0J172500D01*
G01*
G37*
%TD*%
%TO.C,R89*%
G36*
G01*
X83940000Y-83222500D02*
X83940000Y-82827500D01*
G75*
G02*
X84112500Y-82655000I172500J0D01*
G01*
X84457500Y-82655000D01*
G75*
G02*
X84630000Y-82827500I0J-172500D01*
G01*
X84630000Y-83222500D01*
G75*
G02*
X84457500Y-83395000I-172500J0D01*
G01*
X84112500Y-83395000D01*
G75*
G02*
X83940000Y-83222500I0J172500D01*
G01*
G37*
G36*
G01*
X82970000Y-83222500D02*
X82970000Y-82827500D01*
G75*
G02*
X83142500Y-82655000I172500J0D01*
G01*
X83487500Y-82655000D01*
G75*
G02*
X83660000Y-82827500I0J-172500D01*
G01*
X83660000Y-83222500D01*
G75*
G02*
X83487500Y-83395000I-172500J0D01*
G01*
X83142500Y-83395000D01*
G75*
G02*
X82970000Y-83222500I0J172500D01*
G01*
G37*
%TD*%
%TO.C,R88*%
G36*
G01*
X65060000Y-82827500D02*
X65060000Y-83222500D01*
G75*
G02*
X64887500Y-83395000I-172500J0D01*
G01*
X64542500Y-83395000D01*
G75*
G02*
X64370000Y-83222500I0J172500D01*
G01*
X64370000Y-82827500D01*
G75*
G02*
X64542500Y-82655000I172500J0D01*
G01*
X64887500Y-82655000D01*
G75*
G02*
X65060000Y-82827500I0J-172500D01*
G01*
G37*
G36*
G01*
X66030000Y-82827500D02*
X66030000Y-83222500D01*
G75*
G02*
X65857500Y-83395000I-172500J0D01*
G01*
X65512500Y-83395000D01*
G75*
G02*
X65340000Y-83222500I0J172500D01*
G01*
X65340000Y-82827500D01*
G75*
G02*
X65512500Y-82655000I172500J0D01*
G01*
X65857500Y-82655000D01*
G75*
G02*
X66030000Y-82827500I0J-172500D01*
G01*
G37*
%TD*%
%TO.C,R85*%
G36*
G01*
X83940000Y-80022500D02*
X83940000Y-79627500D01*
G75*
G02*
X84112500Y-79455000I172500J0D01*
G01*
X84457500Y-79455000D01*
G75*
G02*
X84630000Y-79627500I0J-172500D01*
G01*
X84630000Y-80022500D01*
G75*
G02*
X84457500Y-80195000I-172500J0D01*
G01*
X84112500Y-80195000D01*
G75*
G02*
X83940000Y-80022500I0J172500D01*
G01*
G37*
G36*
G01*
X82970000Y-80022500D02*
X82970000Y-79627500D01*
G75*
G02*
X83142500Y-79455000I172500J0D01*
G01*
X83487500Y-79455000D01*
G75*
G02*
X83660000Y-79627500I0J-172500D01*
G01*
X83660000Y-80022500D01*
G75*
G02*
X83487500Y-80195000I-172500J0D01*
G01*
X83142500Y-80195000D01*
G75*
G02*
X82970000Y-80022500I0J172500D01*
G01*
G37*
%TD*%
%TO.C,R82*%
G36*
G01*
X65340000Y-92022500D02*
X65340000Y-91627500D01*
G75*
G02*
X65512500Y-91455000I172500J0D01*
G01*
X65857500Y-91455000D01*
G75*
G02*
X66030000Y-91627500I0J-172500D01*
G01*
X66030000Y-92022500D01*
G75*
G02*
X65857500Y-92195000I-172500J0D01*
G01*
X65512500Y-92195000D01*
G75*
G02*
X65340000Y-92022500I0J172500D01*
G01*
G37*
G36*
G01*
X64370000Y-92022500D02*
X64370000Y-91627500D01*
G75*
G02*
X64542500Y-91455000I172500J0D01*
G01*
X64887500Y-91455000D01*
G75*
G02*
X65060000Y-91627500I0J-172500D01*
G01*
X65060000Y-92022500D01*
G75*
G02*
X64887500Y-92195000I-172500J0D01*
G01*
X64542500Y-92195000D01*
G75*
G02*
X64370000Y-92022500I0J172500D01*
G01*
G37*
%TD*%
%TO.C,R80*%
G36*
G01*
X65340000Y-90422500D02*
X65340000Y-90027500D01*
G75*
G02*
X65512500Y-89855000I172500J0D01*
G01*
X65857500Y-89855000D01*
G75*
G02*
X66030000Y-90027500I0J-172500D01*
G01*
X66030000Y-90422500D01*
G75*
G02*
X65857500Y-90595000I-172500J0D01*
G01*
X65512500Y-90595000D01*
G75*
G02*
X65340000Y-90422500I0J172500D01*
G01*
G37*
G36*
G01*
X64370000Y-90422500D02*
X64370000Y-90027500D01*
G75*
G02*
X64542500Y-89855000I172500J0D01*
G01*
X64887500Y-89855000D01*
G75*
G02*
X65060000Y-90027500I0J-172500D01*
G01*
X65060000Y-90422500D01*
G75*
G02*
X64887500Y-90595000I-172500J0D01*
G01*
X64542500Y-90595000D01*
G75*
G02*
X64370000Y-90422500I0J172500D01*
G01*
G37*
%TD*%
%TO.C,R78*%
G36*
G01*
X65085000Y-79627500D02*
X65085000Y-80022500D01*
G75*
G02*
X64912500Y-80195000I-172500J0D01*
G01*
X64567500Y-80195000D01*
G75*
G02*
X64395000Y-80022500I0J172500D01*
G01*
X64395000Y-79627500D01*
G75*
G02*
X64567500Y-79455000I172500J0D01*
G01*
X64912500Y-79455000D01*
G75*
G02*
X65085000Y-79627500I0J-172500D01*
G01*
G37*
G36*
G01*
X66055000Y-79627500D02*
X66055000Y-80022500D01*
G75*
G02*
X65882500Y-80195000I-172500J0D01*
G01*
X65537500Y-80195000D01*
G75*
G02*
X65365000Y-80022500I0J172500D01*
G01*
X65365000Y-79627500D01*
G75*
G02*
X65537500Y-79455000I172500J0D01*
G01*
X65882500Y-79455000D01*
G75*
G02*
X66055000Y-79627500I0J-172500D01*
G01*
G37*
%TD*%
%TO.C,R74*%
G36*
G01*
X83940000Y-78422500D02*
X83940000Y-78027500D01*
G75*
G02*
X84112500Y-77855000I172500J0D01*
G01*
X84457500Y-77855000D01*
G75*
G02*
X84630000Y-78027500I0J-172500D01*
G01*
X84630000Y-78422500D01*
G75*
G02*
X84457500Y-78595000I-172500J0D01*
G01*
X84112500Y-78595000D01*
G75*
G02*
X83940000Y-78422500I0J172500D01*
G01*
G37*
G36*
G01*
X82970000Y-78422500D02*
X82970000Y-78027500D01*
G75*
G02*
X83142500Y-77855000I172500J0D01*
G01*
X83487500Y-77855000D01*
G75*
G02*
X83660000Y-78027500I0J-172500D01*
G01*
X83660000Y-78422500D01*
G75*
G02*
X83487500Y-78595000I-172500J0D01*
G01*
X83142500Y-78595000D01*
G75*
G02*
X82970000Y-78422500I0J172500D01*
G01*
G37*
%TD*%
%TO.C,R73*%
G36*
G01*
X65340000Y-88022500D02*
X65340000Y-87627500D01*
G75*
G02*
X65512500Y-87455000I172500J0D01*
G01*
X65857500Y-87455000D01*
G75*
G02*
X66030000Y-87627500I0J-172500D01*
G01*
X66030000Y-88022500D01*
G75*
G02*
X65857500Y-88195000I-172500J0D01*
G01*
X65512500Y-88195000D01*
G75*
G02*
X65340000Y-88022500I0J172500D01*
G01*
G37*
G36*
G01*
X64370000Y-88022500D02*
X64370000Y-87627500D01*
G75*
G02*
X64542500Y-87455000I172500J0D01*
G01*
X64887500Y-87455000D01*
G75*
G02*
X65060000Y-87627500I0J-172500D01*
G01*
X65060000Y-88022500D01*
G75*
G02*
X64887500Y-88195000I-172500J0D01*
G01*
X64542500Y-88195000D01*
G75*
G02*
X64370000Y-88022500I0J172500D01*
G01*
G37*
%TD*%
%TO.C,R68*%
G36*
G01*
X65085000Y-78027500D02*
X65085000Y-78422500D01*
G75*
G02*
X64912500Y-78595000I-172500J0D01*
G01*
X64567500Y-78595000D01*
G75*
G02*
X64395000Y-78422500I0J172500D01*
G01*
X64395000Y-78027500D01*
G75*
G02*
X64567500Y-77855000I172500J0D01*
G01*
X64912500Y-77855000D01*
G75*
G02*
X65085000Y-78027500I0J-172500D01*
G01*
G37*
G36*
G01*
X66055000Y-78027500D02*
X66055000Y-78422500D01*
G75*
G02*
X65882500Y-78595000I-172500J0D01*
G01*
X65537500Y-78595000D01*
G75*
G02*
X65365000Y-78422500I0J172500D01*
G01*
X65365000Y-78027500D01*
G75*
G02*
X65537500Y-77855000I172500J0D01*
G01*
X65882500Y-77855000D01*
G75*
G02*
X66055000Y-78027500I0J-172500D01*
G01*
G37*
%TD*%
%TO.C,R63*%
G36*
G01*
X65085000Y-76427500D02*
X65085000Y-76822500D01*
G75*
G02*
X64912500Y-76995000I-172500J0D01*
G01*
X64567500Y-76995000D01*
G75*
G02*
X64395000Y-76822500I0J172500D01*
G01*
X64395000Y-76427500D01*
G75*
G02*
X64567500Y-76255000I172500J0D01*
G01*
X64912500Y-76255000D01*
G75*
G02*
X65085000Y-76427500I0J-172500D01*
G01*
G37*
G36*
G01*
X66055000Y-76427500D02*
X66055000Y-76822500D01*
G75*
G02*
X65882500Y-76995000I-172500J0D01*
G01*
X65537500Y-76995000D01*
G75*
G02*
X65365000Y-76822500I0J172500D01*
G01*
X65365000Y-76427500D01*
G75*
G02*
X65537500Y-76255000I172500J0D01*
G01*
X65882500Y-76255000D01*
G75*
G02*
X66055000Y-76427500I0J-172500D01*
G01*
G37*
%TD*%
%TO.C,R60*%
G36*
G01*
X83660000Y-87627500D02*
X83660000Y-88022500D01*
G75*
G02*
X83487500Y-88195000I-172500J0D01*
G01*
X83142500Y-88195000D01*
G75*
G02*
X82970000Y-88022500I0J172500D01*
G01*
X82970000Y-87627500D01*
G75*
G02*
X83142500Y-87455000I172500J0D01*
G01*
X83487500Y-87455000D01*
G75*
G02*
X83660000Y-87627500I0J-172500D01*
G01*
G37*
G36*
G01*
X84630000Y-87627500D02*
X84630000Y-88022500D01*
G75*
G02*
X84457500Y-88195000I-172500J0D01*
G01*
X84112500Y-88195000D01*
G75*
G02*
X83940000Y-88022500I0J172500D01*
G01*
X83940000Y-87627500D01*
G75*
G02*
X84112500Y-87455000I172500J0D01*
G01*
X84457500Y-87455000D01*
G75*
G02*
X84630000Y-87627500I0J-172500D01*
G01*
G37*
%TD*%
%TO.C,R59*%
G36*
G01*
X65085000Y-74827500D02*
X65085000Y-75222500D01*
G75*
G02*
X64912500Y-75395000I-172500J0D01*
G01*
X64567500Y-75395000D01*
G75*
G02*
X64395000Y-75222500I0J172500D01*
G01*
X64395000Y-74827500D01*
G75*
G02*
X64567500Y-74655000I172500J0D01*
G01*
X64912500Y-74655000D01*
G75*
G02*
X65085000Y-74827500I0J-172500D01*
G01*
G37*
G36*
G01*
X66055000Y-74827500D02*
X66055000Y-75222500D01*
G75*
G02*
X65882500Y-75395000I-172500J0D01*
G01*
X65537500Y-75395000D01*
G75*
G02*
X65365000Y-75222500I0J172500D01*
G01*
X65365000Y-74827500D01*
G75*
G02*
X65537500Y-74655000I172500J0D01*
G01*
X65882500Y-74655000D01*
G75*
G02*
X66055000Y-74827500I0J-172500D01*
G01*
G37*
%TD*%
%TO.C,R58*%
G36*
G01*
X83660000Y-89227500D02*
X83660000Y-89622500D01*
G75*
G02*
X83487500Y-89795000I-172500J0D01*
G01*
X83142500Y-89795000D01*
G75*
G02*
X82970000Y-89622500I0J172500D01*
G01*
X82970000Y-89227500D01*
G75*
G02*
X83142500Y-89055000I172500J0D01*
G01*
X83487500Y-89055000D01*
G75*
G02*
X83660000Y-89227500I0J-172500D01*
G01*
G37*
G36*
G01*
X84630000Y-89227500D02*
X84630000Y-89622500D01*
G75*
G02*
X84457500Y-89795000I-172500J0D01*
G01*
X84112500Y-89795000D01*
G75*
G02*
X83940000Y-89622500I0J172500D01*
G01*
X83940000Y-89227500D01*
G75*
G02*
X84112500Y-89055000I172500J0D01*
G01*
X84457500Y-89055000D01*
G75*
G02*
X84630000Y-89227500I0J-172500D01*
G01*
G37*
%TD*%
%TO.C,R57*%
G36*
G01*
X83940000Y-75222500D02*
X83940000Y-74827500D01*
G75*
G02*
X84112500Y-74655000I172500J0D01*
G01*
X84457500Y-74655000D01*
G75*
G02*
X84630000Y-74827500I0J-172500D01*
G01*
X84630000Y-75222500D01*
G75*
G02*
X84457500Y-75395000I-172500J0D01*
G01*
X84112500Y-75395000D01*
G75*
G02*
X83940000Y-75222500I0J172500D01*
G01*
G37*
G36*
G01*
X82970000Y-75222500D02*
X82970000Y-74827500D01*
G75*
G02*
X83142500Y-74655000I172500J0D01*
G01*
X83487500Y-74655000D01*
G75*
G02*
X83660000Y-74827500I0J-172500D01*
G01*
X83660000Y-75222500D01*
G75*
G02*
X83487500Y-75395000I-172500J0D01*
G01*
X83142500Y-75395000D01*
G75*
G02*
X82970000Y-75222500I0J172500D01*
G01*
G37*
%TD*%
%TO.C,R53*%
G36*
G01*
X83940000Y-76822500D02*
X83940000Y-76427500D01*
G75*
G02*
X84112500Y-76255000I172500J0D01*
G01*
X84457500Y-76255000D01*
G75*
G02*
X84630000Y-76427500I0J-172500D01*
G01*
X84630000Y-76822500D01*
G75*
G02*
X84457500Y-76995000I-172500J0D01*
G01*
X84112500Y-76995000D01*
G75*
G02*
X83940000Y-76822500I0J172500D01*
G01*
G37*
G36*
G01*
X82970000Y-76822500D02*
X82970000Y-76427500D01*
G75*
G02*
X83142500Y-76255000I172500J0D01*
G01*
X83487500Y-76255000D01*
G75*
G02*
X83660000Y-76427500I0J-172500D01*
G01*
X83660000Y-76822500D01*
G75*
G02*
X83487500Y-76995000I-172500J0D01*
G01*
X83142500Y-76995000D01*
G75*
G02*
X82970000Y-76822500I0J172500D01*
G01*
G37*
%TD*%
%TO.C,R52*%
G36*
G01*
X83660000Y-92427500D02*
X83660000Y-92822500D01*
G75*
G02*
X83487500Y-92995000I-172500J0D01*
G01*
X83142500Y-92995000D01*
G75*
G02*
X82970000Y-92822500I0J172500D01*
G01*
X82970000Y-92427500D01*
G75*
G02*
X83142500Y-92255000I172500J0D01*
G01*
X83487500Y-92255000D01*
G75*
G02*
X83660000Y-92427500I0J-172500D01*
G01*
G37*
G36*
G01*
X84630000Y-92427500D02*
X84630000Y-92822500D01*
G75*
G02*
X84457500Y-92995000I-172500J0D01*
G01*
X84112500Y-92995000D01*
G75*
G02*
X83940000Y-92822500I0J172500D01*
G01*
X83940000Y-92427500D01*
G75*
G02*
X84112500Y-92255000I172500J0D01*
G01*
X84457500Y-92255000D01*
G75*
G02*
X84630000Y-92427500I0J-172500D01*
G01*
G37*
%TD*%
%TO.C,R50*%
G36*
G01*
X83660000Y-94027500D02*
X83660000Y-94422500D01*
G75*
G02*
X83487500Y-94595000I-172500J0D01*
G01*
X83142500Y-94595000D01*
G75*
G02*
X82970000Y-94422500I0J172500D01*
G01*
X82970000Y-94027500D01*
G75*
G02*
X83142500Y-93855000I172500J0D01*
G01*
X83487500Y-93855000D01*
G75*
G02*
X83660000Y-94027500I0J-172500D01*
G01*
G37*
G36*
G01*
X84630000Y-94027500D02*
X84630000Y-94422500D01*
G75*
G02*
X84457500Y-94595000I-172500J0D01*
G01*
X84112500Y-94595000D01*
G75*
G02*
X83940000Y-94422500I0J172500D01*
G01*
X83940000Y-94027500D01*
G75*
G02*
X84112500Y-93855000I172500J0D01*
G01*
X84457500Y-93855000D01*
G75*
G02*
X84630000Y-94027500I0J-172500D01*
G01*
G37*
%TD*%
%TO.C,R9*%
G36*
G01*
X98702500Y-96590000D02*
X99097500Y-96590000D01*
G75*
G02*
X99270000Y-96762500I0J-172500D01*
G01*
X99270000Y-97107500D01*
G75*
G02*
X99097500Y-97280000I-172500J0D01*
G01*
X98702500Y-97280000D01*
G75*
G02*
X98530000Y-97107500I0J172500D01*
G01*
X98530000Y-96762500D01*
G75*
G02*
X98702500Y-96590000I172500J0D01*
G01*
G37*
G36*
G01*
X98702500Y-95620000D02*
X99097500Y-95620000D01*
G75*
G02*
X99270000Y-95792500I0J-172500D01*
G01*
X99270000Y-96137500D01*
G75*
G02*
X99097500Y-96310000I-172500J0D01*
G01*
X98702500Y-96310000D01*
G75*
G02*
X98530000Y-96137500I0J172500D01*
G01*
X98530000Y-95792500D01*
G75*
G02*
X98702500Y-95620000I172500J0D01*
G01*
G37*
%TD*%
%TO.C,L6*%
G36*
G01*
X111402500Y-96590000D02*
X111797500Y-96590000D01*
G75*
G02*
X111970000Y-96762500I0J-172500D01*
G01*
X111970000Y-97107500D01*
G75*
G02*
X111797500Y-97280000I-172500J0D01*
G01*
X111402500Y-97280000D01*
G75*
G02*
X111230000Y-97107500I0J172500D01*
G01*
X111230000Y-96762500D01*
G75*
G02*
X111402500Y-96590000I172500J0D01*
G01*
G37*
G36*
G01*
X111402500Y-95620000D02*
X111797500Y-95620000D01*
G75*
G02*
X111970000Y-95792500I0J-172500D01*
G01*
X111970000Y-96137500D01*
G75*
G02*
X111797500Y-96310000I-172500J0D01*
G01*
X111402500Y-96310000D01*
G75*
G02*
X111230000Y-96137500I0J172500D01*
G01*
X111230000Y-95792500D01*
G75*
G02*
X111402500Y-95620000I172500J0D01*
G01*
G37*
%TD*%
%TO.C,L5*%
G36*
G01*
X108852500Y-96590000D02*
X109247500Y-96590000D01*
G75*
G02*
X109420000Y-96762500I0J-172500D01*
G01*
X109420000Y-97107500D01*
G75*
G02*
X109247500Y-97280000I-172500J0D01*
G01*
X108852500Y-97280000D01*
G75*
G02*
X108680000Y-97107500I0J172500D01*
G01*
X108680000Y-96762500D01*
G75*
G02*
X108852500Y-96590000I172500J0D01*
G01*
G37*
G36*
G01*
X108852500Y-95620000D02*
X109247500Y-95620000D01*
G75*
G02*
X109420000Y-95792500I0J-172500D01*
G01*
X109420000Y-96137500D01*
G75*
G02*
X109247500Y-96310000I-172500J0D01*
G01*
X108852500Y-96310000D01*
G75*
G02*
X108680000Y-96137500I0J172500D01*
G01*
X108680000Y-95792500D01*
G75*
G02*
X108852500Y-95620000I172500J0D01*
G01*
G37*
%TD*%
%TO.C,L4*%
G36*
G01*
X106302500Y-96590000D02*
X106697500Y-96590000D01*
G75*
G02*
X106870000Y-96762500I0J-172500D01*
G01*
X106870000Y-97107500D01*
G75*
G02*
X106697500Y-97280000I-172500J0D01*
G01*
X106302500Y-97280000D01*
G75*
G02*
X106130000Y-97107500I0J172500D01*
G01*
X106130000Y-96762500D01*
G75*
G02*
X106302500Y-96590000I172500J0D01*
G01*
G37*
G36*
G01*
X106302500Y-95620000D02*
X106697500Y-95620000D01*
G75*
G02*
X106870000Y-95792500I0J-172500D01*
G01*
X106870000Y-96137500D01*
G75*
G02*
X106697500Y-96310000I-172500J0D01*
G01*
X106302500Y-96310000D01*
G75*
G02*
X106130000Y-96137500I0J172500D01*
G01*
X106130000Y-95792500D01*
G75*
G02*
X106302500Y-95620000I172500J0D01*
G01*
G37*
%TD*%
%TO.C,L3*%
G36*
G01*
X103752500Y-96590000D02*
X104147500Y-96590000D01*
G75*
G02*
X104320000Y-96762500I0J-172500D01*
G01*
X104320000Y-97107500D01*
G75*
G02*
X104147500Y-97280000I-172500J0D01*
G01*
X103752500Y-97280000D01*
G75*
G02*
X103580000Y-97107500I0J172500D01*
G01*
X103580000Y-96762500D01*
G75*
G02*
X103752500Y-96590000I172500J0D01*
G01*
G37*
G36*
G01*
X103752500Y-95620000D02*
X104147500Y-95620000D01*
G75*
G02*
X104320000Y-95792500I0J-172500D01*
G01*
X104320000Y-96137500D01*
G75*
G02*
X104147500Y-96310000I-172500J0D01*
G01*
X103752500Y-96310000D01*
G75*
G02*
X103580000Y-96137500I0J172500D01*
G01*
X103580000Y-95792500D01*
G75*
G02*
X103752500Y-95620000I172500J0D01*
G01*
G37*
%TD*%
%TO.C,L2*%
G36*
G01*
X96152500Y-96590000D02*
X96547500Y-96590000D01*
G75*
G02*
X96720000Y-96762500I0J-172500D01*
G01*
X96720000Y-97107500D01*
G75*
G02*
X96547500Y-97280000I-172500J0D01*
G01*
X96152500Y-97280000D01*
G75*
G02*
X95980000Y-97107500I0J172500D01*
G01*
X95980000Y-96762500D01*
G75*
G02*
X96152500Y-96590000I172500J0D01*
G01*
G37*
G36*
G01*
X96152500Y-95620000D02*
X96547500Y-95620000D01*
G75*
G02*
X96720000Y-95792500I0J-172500D01*
G01*
X96720000Y-96137500D01*
G75*
G02*
X96547500Y-96310000I-172500J0D01*
G01*
X96152500Y-96310000D01*
G75*
G02*
X95980000Y-96137500I0J172500D01*
G01*
X95980000Y-95792500D01*
G75*
G02*
X96152500Y-95620000I172500J0D01*
G01*
G37*
%TD*%
%TO.C,L1*%
G36*
G01*
X93602500Y-96590000D02*
X93997500Y-96590000D01*
G75*
G02*
X94170000Y-96762500I0J-172500D01*
G01*
X94170000Y-97107500D01*
G75*
G02*
X93997500Y-97280000I-172500J0D01*
G01*
X93602500Y-97280000D01*
G75*
G02*
X93430000Y-97107500I0J172500D01*
G01*
X93430000Y-96762500D01*
G75*
G02*
X93602500Y-96590000I172500J0D01*
G01*
G37*
G36*
G01*
X93602500Y-95620000D02*
X93997500Y-95620000D01*
G75*
G02*
X94170000Y-95792500I0J-172500D01*
G01*
X94170000Y-96137500D01*
G75*
G02*
X93997500Y-96310000I-172500J0D01*
G01*
X93602500Y-96310000D01*
G75*
G02*
X93430000Y-96137500I0J172500D01*
G01*
X93430000Y-95792500D01*
G75*
G02*
X93602500Y-95620000I172500J0D01*
G01*
G37*
%TD*%
D13*
%TO.C,J11*%
X49870000Y-2670000D03*
X49870000Y-5210000D03*
X52410000Y-2670000D03*
X52410000Y-5210000D03*
X54950000Y-2670000D03*
X54950000Y-5210000D03*
X57490000Y-2670000D03*
X57490000Y-5210000D03*
X60030000Y-2670000D03*
X60030000Y-5210000D03*
X62570000Y-2670000D03*
X62570000Y-5210000D03*
X65110000Y-2670000D03*
X65110000Y-5210000D03*
X67650000Y-2670000D03*
X67650000Y-5210000D03*
X70190000Y-2670000D03*
X70190000Y-5210000D03*
X72730000Y-2670000D03*
X72730000Y-5210000D03*
X75270000Y-2670000D03*
X75270000Y-5210000D03*
X77810000Y-2670000D03*
X77810000Y-5210000D03*
X80350000Y-2670000D03*
X80350000Y-5210000D03*
X82890000Y-2670000D03*
X82890000Y-5210000D03*
X85430000Y-2670000D03*
X85430000Y-5210000D03*
X87970000Y-2670000D03*
X87970000Y-5210000D03*
X90510000Y-2670000D03*
X90510000Y-5210000D03*
X93050000Y-2670000D03*
X93050000Y-5210000D03*
X95590000Y-2670000D03*
X95590000Y-5210000D03*
X98130000Y-2670000D03*
D10*
X98130000Y-5210000D03*
%TD*%
D14*
%TO.C,J8*%
X136000000Y-5500000D03*
G36*
G01*
X135289706Y-2100000D02*
X136710294Y-2100000D01*
G75*
G02*
X136975000Y-2364706I0J-264706D01*
G01*
X136975000Y-3635294D01*
G75*
G02*
X136710294Y-3900000I-264706J0D01*
G01*
X135289706Y-3900000D01*
G75*
G02*
X135025000Y-3635294I0J264706D01*
G01*
X135025000Y-2364706D01*
G75*
G02*
X135289706Y-2100000I264706J0D01*
G01*
G37*
%TD*%
D13*
%TO.C,J6*%
X120230000Y-89630000D03*
X122770000Y-89630000D03*
X120230000Y-87090000D03*
X122770000Y-87090000D03*
X120230000Y-84550000D03*
X122770000Y-84550000D03*
X120230000Y-82010000D03*
X122770000Y-82010000D03*
X120230000Y-79470000D03*
X122770000Y-79470000D03*
X120230000Y-76930000D03*
X122770000Y-76930000D03*
X120230000Y-74390000D03*
X122770000Y-74390000D03*
X120230000Y-71850000D03*
X122770000Y-71850000D03*
X120230000Y-69310000D03*
X122770000Y-69310000D03*
X120230000Y-66770000D03*
X122770000Y-66770000D03*
X120230000Y-64230000D03*
X122770000Y-64230000D03*
X120230000Y-61690000D03*
X122770000Y-61690000D03*
X120230000Y-59150000D03*
X122770000Y-59150000D03*
X120230000Y-56610000D03*
X122770000Y-56610000D03*
X120230000Y-54070000D03*
X122770000Y-54070000D03*
X120230000Y-51530000D03*
X122770000Y-51530000D03*
X120230000Y-48990000D03*
X122770000Y-48990000D03*
X120230000Y-46450000D03*
X122770000Y-46450000D03*
X120230000Y-43910000D03*
X122770000Y-43910000D03*
X120230000Y-41370000D03*
D10*
X122770000Y-41370000D03*
%TD*%
D15*
%TO.C,J4*%
X146000000Y-35000000D03*
%TD*%
D13*
%TO.C,J2*%
X56730000Y-99500000D03*
X54190000Y-99500000D03*
X51650000Y-99500000D03*
X49110000Y-99500000D03*
X46570000Y-99500000D03*
X44030000Y-99500000D03*
X41490000Y-99500000D03*
X38950000Y-99500000D03*
X36410000Y-99500000D03*
D10*
X33870000Y-99500000D03*
%TD*%
D13*
%TO.C,J1*%
X114130000Y-99500000D03*
X111590000Y-99500000D03*
X109050000Y-99500000D03*
X106510000Y-99500000D03*
X103970000Y-99500000D03*
X101430000Y-99500000D03*
X98890000Y-99500000D03*
X96350000Y-99500000D03*
X93810000Y-99500000D03*
D10*
X91270000Y-99500000D03*
%TD*%
%TO.C,C48*%
G36*
G01*
X83660000Y-84427500D02*
X83660000Y-84822500D01*
G75*
G02*
X83487500Y-84995000I-172500J0D01*
G01*
X83142500Y-84995000D01*
G75*
G02*
X82970000Y-84822500I0J172500D01*
G01*
X82970000Y-84427500D01*
G75*
G02*
X83142500Y-84255000I172500J0D01*
G01*
X83487500Y-84255000D01*
G75*
G02*
X83660000Y-84427500I0J-172500D01*
G01*
G37*
G36*
G01*
X84630000Y-84427500D02*
X84630000Y-84822500D01*
G75*
G02*
X84457500Y-84995000I-172500J0D01*
G01*
X84112500Y-84995000D01*
G75*
G02*
X83940000Y-84822500I0J172500D01*
G01*
X83940000Y-84427500D01*
G75*
G02*
X84112500Y-84255000I172500J0D01*
G01*
X84457500Y-84255000D01*
G75*
G02*
X84630000Y-84427500I0J-172500D01*
G01*
G37*
%TD*%
%TO.C,C43*%
G36*
G01*
X65340000Y-86422500D02*
X65340000Y-86027500D01*
G75*
G02*
X65512500Y-85855000I172500J0D01*
G01*
X65857500Y-85855000D01*
G75*
G02*
X66030000Y-86027500I0J-172500D01*
G01*
X66030000Y-86422500D01*
G75*
G02*
X65857500Y-86595000I-172500J0D01*
G01*
X65512500Y-86595000D01*
G75*
G02*
X65340000Y-86422500I0J172500D01*
G01*
G37*
G36*
G01*
X64370000Y-86422500D02*
X64370000Y-86027500D01*
G75*
G02*
X64542500Y-85855000I172500J0D01*
G01*
X64887500Y-85855000D01*
G75*
G02*
X65060000Y-86027500I0J-172500D01*
G01*
X65060000Y-86422500D01*
G75*
G02*
X64887500Y-86595000I-172500J0D01*
G01*
X64542500Y-86595000D01*
G75*
G02*
X64370000Y-86422500I0J172500D01*
G01*
G37*
%TD*%
%TO.C,C13*%
G36*
G01*
X110647500Y-96310000D02*
X110252500Y-96310000D01*
G75*
G02*
X110080000Y-96137500I0J172500D01*
G01*
X110080000Y-95792500D01*
G75*
G02*
X110252500Y-95620000I172500J0D01*
G01*
X110647500Y-95620000D01*
G75*
G02*
X110820000Y-95792500I0J-172500D01*
G01*
X110820000Y-96137500D01*
G75*
G02*
X110647500Y-96310000I-172500J0D01*
G01*
G37*
G36*
G01*
X110647500Y-97280000D02*
X110252500Y-97280000D01*
G75*
G02*
X110080000Y-97107500I0J172500D01*
G01*
X110080000Y-96762500D01*
G75*
G02*
X110252500Y-96590000I172500J0D01*
G01*
X110647500Y-96590000D01*
G75*
G02*
X110820000Y-96762500I0J-172500D01*
G01*
X110820000Y-97107500D01*
G75*
G02*
X110647500Y-97280000I-172500J0D01*
G01*
G37*
%TD*%
%TO.C,C12*%
G36*
G01*
X108097500Y-96310000D02*
X107702500Y-96310000D01*
G75*
G02*
X107530000Y-96137500I0J172500D01*
G01*
X107530000Y-95792500D01*
G75*
G02*
X107702500Y-95620000I172500J0D01*
G01*
X108097500Y-95620000D01*
G75*
G02*
X108270000Y-95792500I0J-172500D01*
G01*
X108270000Y-96137500D01*
G75*
G02*
X108097500Y-96310000I-172500J0D01*
G01*
G37*
G36*
G01*
X108097500Y-97280000D02*
X107702500Y-97280000D01*
G75*
G02*
X107530000Y-97107500I0J172500D01*
G01*
X107530000Y-96762500D01*
G75*
G02*
X107702500Y-96590000I172500J0D01*
G01*
X108097500Y-96590000D01*
G75*
G02*
X108270000Y-96762500I0J-172500D01*
G01*
X108270000Y-97107500D01*
G75*
G02*
X108097500Y-97280000I-172500J0D01*
G01*
G37*
%TD*%
%TO.C,C11*%
G36*
G01*
X105547500Y-96310000D02*
X105152500Y-96310000D01*
G75*
G02*
X104980000Y-96137500I0J172500D01*
G01*
X104980000Y-95792500D01*
G75*
G02*
X105152500Y-95620000I172500J0D01*
G01*
X105547500Y-95620000D01*
G75*
G02*
X105720000Y-95792500I0J-172500D01*
G01*
X105720000Y-96137500D01*
G75*
G02*
X105547500Y-96310000I-172500J0D01*
G01*
G37*
G36*
G01*
X105547500Y-97280000D02*
X105152500Y-97280000D01*
G75*
G02*
X104980000Y-97107500I0J172500D01*
G01*
X104980000Y-96762500D01*
G75*
G02*
X105152500Y-96590000I172500J0D01*
G01*
X105547500Y-96590000D01*
G75*
G02*
X105720000Y-96762500I0J-172500D01*
G01*
X105720000Y-97107500D01*
G75*
G02*
X105547500Y-97280000I-172500J0D01*
G01*
G37*
%TD*%
%TO.C,C10*%
G36*
G01*
X102997500Y-96310000D02*
X102602500Y-96310000D01*
G75*
G02*
X102430000Y-96137500I0J172500D01*
G01*
X102430000Y-95792500D01*
G75*
G02*
X102602500Y-95620000I172500J0D01*
G01*
X102997500Y-95620000D01*
G75*
G02*
X103170000Y-95792500I0J-172500D01*
G01*
X103170000Y-96137500D01*
G75*
G02*
X102997500Y-96310000I-172500J0D01*
G01*
G37*
G36*
G01*
X102997500Y-97280000D02*
X102602500Y-97280000D01*
G75*
G02*
X102430000Y-97107500I0J172500D01*
G01*
X102430000Y-96762500D01*
G75*
G02*
X102602500Y-96590000I172500J0D01*
G01*
X102997500Y-96590000D01*
G75*
G02*
X103170000Y-96762500I0J-172500D01*
G01*
X103170000Y-97107500D01*
G75*
G02*
X102997500Y-97280000I-172500J0D01*
G01*
G37*
%TD*%
%TO.C,C9*%
G36*
G01*
X105875000Y-91498809D02*
X105875000Y-92101191D01*
G75*
G02*
X105601191Y-92375000I-273809J0D01*
G01*
X104798809Y-92375000D01*
G75*
G02*
X104525000Y-92101191I0J273809D01*
G01*
X104525000Y-91498809D01*
G75*
G02*
X104798809Y-91225000I273809J0D01*
G01*
X105601191Y-91225000D01*
G75*
G02*
X105875000Y-91498809I0J-273809D01*
G01*
G37*
G36*
G01*
X107475000Y-91498809D02*
X107475000Y-92101191D01*
G75*
G02*
X107201191Y-92375000I-273809J0D01*
G01*
X106398809Y-92375000D01*
G75*
G02*
X106125000Y-92101191I0J273809D01*
G01*
X106125000Y-91498809D01*
G75*
G02*
X106398809Y-91225000I273809J0D01*
G01*
X107201191Y-91225000D01*
G75*
G02*
X107475000Y-91498809I0J-273809D01*
G01*
G37*
%TD*%
%TO.C,C8*%
G36*
G01*
X105875000Y-89648809D02*
X105875000Y-90251191D01*
G75*
G02*
X105601191Y-90525000I-273809J0D01*
G01*
X104798809Y-90525000D01*
G75*
G02*
X104525000Y-90251191I0J273809D01*
G01*
X104525000Y-89648809D01*
G75*
G02*
X104798809Y-89375000I273809J0D01*
G01*
X105601191Y-89375000D01*
G75*
G02*
X105875000Y-89648809I0J-273809D01*
G01*
G37*
G36*
G01*
X107475000Y-89648809D02*
X107475000Y-90251191D01*
G75*
G02*
X107201191Y-90525000I-273809J0D01*
G01*
X106398809Y-90525000D01*
G75*
G02*
X106125000Y-90251191I0J273809D01*
G01*
X106125000Y-89648809D01*
G75*
G02*
X106398809Y-89375000I273809J0D01*
G01*
X107201191Y-89375000D01*
G75*
G02*
X107475000Y-89648809I0J-273809D01*
G01*
G37*
%TD*%
%TO.C,C7*%
G36*
G01*
X97647500Y-96310000D02*
X97252500Y-96310000D01*
G75*
G02*
X97080000Y-96137500I0J172500D01*
G01*
X97080000Y-95792500D01*
G75*
G02*
X97252500Y-95620000I172500J0D01*
G01*
X97647500Y-95620000D01*
G75*
G02*
X97820000Y-95792500I0J-172500D01*
G01*
X97820000Y-96137500D01*
G75*
G02*
X97647500Y-96310000I-172500J0D01*
G01*
G37*
G36*
G01*
X97647500Y-97280000D02*
X97252500Y-97280000D01*
G75*
G02*
X97080000Y-97107500I0J172500D01*
G01*
X97080000Y-96762500D01*
G75*
G02*
X97252500Y-96590000I172500J0D01*
G01*
X97647500Y-96590000D01*
G75*
G02*
X97820000Y-96762500I0J-172500D01*
G01*
X97820000Y-97107500D01*
G75*
G02*
X97647500Y-97280000I-172500J0D01*
G01*
G37*
%TD*%
%TO.C,C6*%
G36*
G01*
X92847500Y-96310000D02*
X92452500Y-96310000D01*
G75*
G02*
X92280000Y-96137500I0J172500D01*
G01*
X92280000Y-95792500D01*
G75*
G02*
X92452500Y-95620000I172500J0D01*
G01*
X92847500Y-95620000D01*
G75*
G02*
X93020000Y-95792500I0J-172500D01*
G01*
X93020000Y-96137500D01*
G75*
G02*
X92847500Y-96310000I-172500J0D01*
G01*
G37*
G36*
G01*
X92847500Y-97280000D02*
X92452500Y-97280000D01*
G75*
G02*
X92280000Y-97107500I0J172500D01*
G01*
X92280000Y-96762500D01*
G75*
G02*
X92452500Y-96590000I172500J0D01*
G01*
X92847500Y-96590000D01*
G75*
G02*
X93020000Y-96762500I0J-172500D01*
G01*
X93020000Y-97107500D01*
G75*
G02*
X92847500Y-97280000I-172500J0D01*
G01*
G37*
%TD*%
M02*
