M48
; DRILL file {KiCad (5.1.6)-1} date 11/04/20 19:27:17
; FORMAT={-:-/ absolute / inch / decimal}
; #@! TF.CreationDate,2020-11-04T19:27:17+09:00
; #@! TF.GenerationSoftware,Kicad,Pcbnew,(5.1.6)-1
; #@! TF.FileFunction,Plated,1,4,PTH
FMAT,2
INCH
T1C0.0079
T2C0.0118
T3C0.0157
T4C0.0315
T5C0.0335
T6C0.0394
T7C0.0472
%
G90
G05
T1
X0.0768Y-1.2323
X0.2776Y-2.6476
X0.4769Y-1.1501
X0.5005Y-1.1422
X0.5271Y-1.1275
X0.5512Y-2.4449
X0.5571Y-1.1122
X0.5866Y-2.7205
X0.6122Y-1.0984
X0.6299Y-2.4252
X0.6457Y-2.3484
X0.6496Y-2.9291
X0.6772Y-2.8701
X0.6959Y-1.0886
X0.7451Y-2.5876
X0.7704Y-2.5901
X0.7913Y-2.3189
X0.7923Y-0.94
X0.8087Y-2.5118
X0.8563Y-0.6831
X0.8563Y-0.7579
X0.8563Y-0.8031
X0.9291Y-0.6142
X0.9724Y-1.687
X0.9754Y-2.0482
X1.0295Y-1.628
X1.0453Y-1.5335
X1.1073Y-0.6831
X1.1073Y-0.7579
X1.1073Y-0.8553
X1.1073Y-0.94
X1.1405Y-0.5915
X1.1457Y-0.5512
X1.1571Y-0.5718
X1.1624Y-0.5315
X1.1758Y-0.5118
X1.1871Y-1.3712
X1.189Y-0.4921
X1.1909Y-2.3484
X1.2031Y-0.4724
X1.2111Y-1.4075
X1.2146Y-1.8583
X1.2146Y-1.9016
X1.2185Y-1.7717
X1.2185Y-1.815
X1.2244Y-1.9449
X1.2244Y-2.5728
X1.2402Y-2.124
X1.252Y-1.2392
X1.2589Y-1.0886
X1.2776Y-1.3051
X1.2992Y-1.2677
X1.3258Y-0.8917
X1.3262Y-2.2482
X1.3484Y-2.2402
X1.3563Y-0.8917
X1.3686Y-1.3016
X1.376Y-0.9114
X1.4149Y-1.093
X1.4232Y-1.3681
X1.4272Y-0.8041
X1.4341Y-1.1102
X1.4429Y-1.3484
X1.4478Y-0.8465
X1.4542Y-1.1275
X1.4606Y-3.313
X1.4646Y-2.0276
X1.4685Y-1.3169
X1.4738Y-1.1407
X1.4793Y-0.7717
X1.4862Y-1.8583
X1.4862Y-1.9016
X1.5Y-1.3189
X1.5236Y-2.3622
X1.5295Y-0.752
X1.5315Y-2.7894
X1.5512Y-2.3819
X1.5531Y-1.9272
X1.5591Y-1.5669
X1.5591Y-1.6496
X1.5728Y-1.8878
X1.5787Y-0.7234
X1.5925Y-1.9449
X1.5945Y-2.0709
X1.5984Y-1.7362
X1.6004Y-2.1535
X1.6142Y-1.8986
X1.6152Y-3.313
X1.6181Y-0.7126
X1.622Y-1.7362
X1.6339Y-0.7323
X1.6339Y-1.9587
X1.6417Y-1.1467
X1.6535Y-1.1909
X1.6535Y-1.8799
X1.6634Y-0.8307
X1.6772Y-1.4075
X1.6929Y-2.3189
X1.7008Y-1.6299
X1.7195Y-1.8366
X1.7197Y-2.0242
X1.7303Y-2.2028
X1.748Y-1.4419
X1.748Y-1.7526
X1.7648Y-2.9252
X1.7677Y-1.7657
X1.7972Y-2.7215
X1.7972Y-2.9341
X1.8091Y-2.6486
X1.8976Y-2.9409
X1.9134Y-2.7362
X1.9882Y-2.7894
X2.0148Y-2.7776
X2.0896Y-3.3632
X2.1063Y-2.9941
X2.1063Y-3.0276
X2.122Y-1.3484
X2.1268Y-2.3319
X2.1309Y-3.502
X2.1352Y-1.3681
X2.1447Y-1.3897
X2.1506Y-0.6929
X2.1551Y-1.411
X2.1614Y-3.253
X2.1634Y-1.4331
X2.188Y-3.6762
X2.1913Y-2.6094
X2.1969Y-2.0758
X2.2047Y-3.7894
X2.2067Y-3.748
X2.2077Y-2.813
X2.2077Y-2.9754
X2.2207Y-3.2057
X2.2274Y-2.9409
X2.2283Y-1.8799
X2.2295Y-2.202
X2.2303Y-2.1555
X2.2343Y-1.5571
X2.2343Y-1.9193
X2.2343Y-2.0177
X2.2366Y-2.3118
X2.2428Y-2.1755
X2.248Y-1.8602
X2.248Y-1.8996
X2.248Y-1.939
X2.251Y-2.7717
X2.2559Y-2.0571
X2.2618Y-3.5955
X2.2687Y-2.249
X2.2756Y-0.6929
X2.2874Y-2.2756
X2.2903Y-2.6869
X2.2913Y-2.9065
X2.2953Y-1.2697
X2.3189Y-0.4035
X2.3272Y-2.3622
X2.3661Y-2.0374
X2.3819Y-0.8524
X2.3835Y-2.0004
X2.3858Y-2.3819
X2.3871Y-1.7239
X2.3937Y-1.626
X2.3976Y-1.7028
X2.4055Y-1.7441
X2.4075Y-1.4055
X2.4094Y-2.7274
X2.4104Y-1.8189
X2.4114Y-2.4697
X2.4232Y-1.7638
X2.4419Y-3.1112
X2.4469Y-1.6526
X2.4594Y-2.688
X2.4606Y-1.186
X2.4638Y-2.2224
X2.4646Y-0.4291
X2.4728Y-2.5506
X2.498Y-1.8563
X2.5157Y-1.5394
X2.5197Y-2.9852
X2.5197Y-3.3632
X2.5197Y-3.4262
X2.5197Y-3.5207
X2.5197Y-3.6152
X2.5197Y-3.7096
X2.5199Y-3.0482
X2.5276Y-1.2362
X2.5335Y-2.5837
X2.5472Y-1.2146
X2.5472Y-1.8317
X2.5472Y-2.1909
X2.5512Y-1.3917
X2.563Y-0.4232
X2.5642Y-2.219
X2.5669Y-2.5482
X2.5748Y-2.2402
X2.5787Y-1.1772
X2.5787Y-2.4646
X2.5886Y-2.1309
X2.5984Y-2.4803
X2.6022Y-2.5043
X2.6142Y-2.5247
X2.615Y-1.6476
X2.6378Y-2.9537
X2.6378Y-3.0167
X2.6378Y-3.0797
X2.6378Y-3.1427
X2.6378Y-3.2057
X2.6378Y-3.2687
X2.6378Y-3.4577
X2.6378Y-3.5522
X2.6378Y-3.6152
X2.6427Y-2.6091
X2.6439Y-2.9156
X2.652Y-2.7433
X2.6526Y-2.0984
X2.6594Y-0.6929
X2.6634Y-2.7844
X2.6969Y-2.7274
X2.7Y-1.4272
X2.7155Y-1.5155
X2.7165Y-2.7077
X2.7244Y-2.1161
X2.7303Y-0.7126
X2.7362Y-2.8848
X2.748Y-0.872
X2.7756Y-2.5049
X2.778Y-1.6626
X2.7795Y-0.7323
X2.7846Y-2.6486
X2.7884Y-3.3671
X2.8012Y-1.5925
X2.8179Y-2.7874
X2.8209Y-1.3622
X2.8219Y-3.3081
X2.8376Y-2.8258
X2.8516Y-2.1429
X2.8543Y-0.5512
X2.8622Y-2.0354
X2.8738Y-2.0561
X2.876Y-2.7667
X2.877Y-2.7274
X2.878Y-1.4134
X2.8809Y-2.8258
X2.8937Y-2.5039
X2.8937Y-2.747
X2.8976Y-1.6791
X2.9134Y-0.7323
X2.9134Y-0.7913
X2.9173Y-0.5315
X2.9203Y-2.7874
X2.9256Y-1.5579
X2.9331Y-2.187
X2.937Y-0.5118
X2.9528Y-0.811
X2.9576Y-2.8257
X2.9636Y-2.8504
X2.9921Y-0.7717
X3.0083Y-1.4547
X3.0138Y-0.378
X3.0157Y-2.3878
X3.0315Y-0.9429
X3.0325Y-2.7864
X3.0374Y-2.3996
X3.063Y-0.4035
X3.0709Y-1.437
X3.0709Y-2.3819
X3.0732Y-3.2795
X3.0745Y-1.8228
X3.0906Y-1.4567
X3.0965Y-0.4232
X3.1177Y-2.1429
X3.1299Y-0.8661
X3.1535Y-0.9547
X3.1614Y-0.4449
X3.1657Y-1.6126
X3.172Y-1.7972
X3.1732Y-2.0344
X3.1803Y-1.5591
X3.1917Y-1.5374
X3.1952Y-0.8645
X3.2118Y-2.0929
X3.2165Y-1.3484
X3.2244Y-2.3504
X3.2244Y-2.3898
X3.2264Y-1.8307
X3.2264Y-1.9685
X3.2313Y-2.9537
X3.2313Y-3.0167
X3.2313Y-3.0797
X3.2313Y-3.1427
X3.2313Y-3.2057
X3.2313Y-3.2687
X3.2323Y-3.4577
X3.2323Y-3.5207
X3.2323Y-3.6467
X3.2323Y-3.7096
X3.2382Y-1.6437
X3.2402Y-2.3701
X3.2413Y-1.6705
X3.2467Y-2.2904
X3.2539Y-2.1161
X3.2598Y-0.8642
X3.3031Y-1.2598
X3.311Y-0.4154
X3.313Y-0.3583
X3.3465Y-2.9852
X3.3465Y-3.0482
X3.3465Y-3.1112
X3.3465Y-3.1742
X3.3465Y-3.2057
X3.3465Y-3.2372
X3.3465Y-3.2687
X3.3465Y-3.3002
X3.3465Y-3.4262
X3.3465Y-3.4577
X3.3465Y-3.5522
X3.3465Y-3.6152
X3.3622Y-0.6929
X3.3681Y-1.3346
X3.372Y-2.0965
X3.376Y-1.824
X3.376Y-2.688
X3.3831Y-2.4547
X3.3854Y-2.8295
X3.3878Y-1.315
X3.3907Y-2.6683
X3.3917Y-2.0768
X3.3976Y-1.9705
X3.3996Y-1.5059
X3.4006Y-2.435
X3.4035Y-1.874
X3.4049Y-2.0571
X3.4075Y-2.7864
X3.4134Y-0.6909
X3.4195Y-2.0374
X3.435Y-0.8917
X3.435Y-0.9193
X3.435Y-1.372
X3.437Y-1.3445
X3.4518Y-3.8278
X3.4555Y-1.9232
X3.4567Y-1.2303
X3.4646Y-0.8917
X3.4646Y-0.9193
X3.4854Y-2.4819
X3.4862Y-1.9429
X3.4921Y-0.8917
X3.4921Y-0.9193
X3.5079Y-3.8159
X3.5118Y-3.0681
X3.5121Y-2.8221
X3.5217Y-0.8917
X3.5217Y-0.9193
X3.5319Y-1.8437
X3.5374Y-2.497
X3.5469Y-3.1744
X3.5689Y-3.3474
X3.5732Y-1.7997
X3.5738Y-2.9852
X3.5787Y-0.4134
X3.5797Y-2.9537
X3.5817Y-3.2685
X3.5945Y-1.7776
X3.6152Y-3.0167
X3.6235Y-1.7279
X3.6398Y-1.4961
X3.6411Y-3.3931
X3.6442Y-1.7092
X3.6447Y-3.3219
X3.6535Y-3.0177
X3.6543Y-1.6839
X3.6693Y-3.2372
X3.6791Y-1.6732
X3.685Y-0.4331
X3.686Y-3.3986
X3.6953Y-3.2846
X3.7126Y-0.7106
X3.7181Y-1.5984
X3.7234Y-3.3976
X3.7272Y-1.7114
X3.7303Y-0.6909
X3.7437Y-1.3917
X3.7472Y-1.7252
X3.7657Y-0.5118
X3.7756Y-0.7323
X3.7866Y-2.7957
X3.787Y-3.228
X3.7884Y-3.4567
X3.7953Y-1.1299
X3.8337Y-1.3907
X3.8337Y-3.2638
X3.8533Y-1.3632
X3.8533Y-3.2498
X3.8799Y-1.7457
X3.8799Y-3.0772
X3.9124Y-2.1049
X3.9321Y-0.5059
X3.9321Y-1.8238
X3.9518Y-0.4449
X3.9518Y-2.2884
X3.972Y-2.3005
X3.9724Y-0.4291
X3.977Y-3.4925
X3.9917Y-1.8602
X3.9921Y-0.7766
X4.0024Y-2.0449
X4.0118Y-0.4882
X4.0118Y-1.9006
X4.0272Y-2.0654
X4.0325Y-0.5463
X4.0325Y-1.9193
X4.0472Y-2.6614
X4.0472Y-3.2402
X4.0522Y-0.8445
X4.0522Y-1.9478
X4.0561Y-2.3898
X4.0719Y-1.0098
X4.0827Y-3.1732
X4.0915Y-1.0255
X4.0915Y-2.2608
X4.0974Y-2.3701
X4.0984Y-2.6811
X4.1112Y-1.0389
X4.1309Y-1.1555
X4.1309Y-2.3307
X4.1337Y-3.1427
X4.1506Y-1.2992
X4.1506Y-2.064
X4.1506Y-2.1134
X4.1703Y-1.6152
X4.19Y-1.4793
X4.2106Y-1.4606
X4.3189Y-1.1102
X4.4016Y-1.3228
X4.4016Y-1.3661
X4.4016Y-1.4528
X4.4724Y-0.3976
X4.5079Y-0.3701
X4.5079Y-0.4252
X4.5098Y-3.6142
X4.5098Y-3.6565
X4.561Y-2.6811
X4.561Y-2.7283
X4.5614Y-2.7791
X4.5614Y-2.7791
X4.562Y-2.5778
X4.7992Y-0.3976
X4.9518Y-3.4941
X4.9921Y-3.7205
X5.0098Y-3.4941
X5.0433Y-3.6988
X5.0738Y-3.5059
X5.0886Y-3.6772
X5.126Y-3.5295
X5.1604Y-2.0984
X5.2628Y-2.9449
X5.3612Y-3.8386
X5.3652Y-2.9616
X5.5315Y-0.0866
X5.5315Y-0.1378
X5.3346Y-3.2953
X5.3346Y-3.3346
X5.3346Y-3.374
X5.374Y-3.2953
X5.374Y-3.3346
X5.374Y-3.374
X5.4134Y-3.2953
X5.4134Y-3.3346
X5.4134Y-3.374
X0.6485Y-1.7885
X0.6485Y-1.8342
X0.6485Y-1.88
X0.6485Y-1.9258
X0.6485Y-1.9715
X0.6942Y-1.7885
X0.6942Y-1.8342
X0.6942Y-1.88
X0.6942Y-1.9258
X0.6942Y-1.9715
X0.74Y-1.7885
X0.74Y-1.8342
X0.74Y-1.88
X0.74Y-1.9258
X0.74Y-1.9715
X0.7858Y-1.7885
X0.7858Y-1.8342
X0.7858Y-1.88
X0.7858Y-1.9258
X0.7858Y-1.9715
X0.8315Y-1.7885
X0.8315Y-1.8342
X0.8315Y-1.88
X0.8315Y-1.9258
X0.8315Y-1.9715
T2
X0.0984Y-0.1929
X0.0984Y-0.2461
X0.0984Y-0.2953
X0.0984Y-0.3445
X0.0984Y-0.3937
X0.122Y-1.7421
X0.1476Y-0.1929
X0.1476Y-0.2461
X0.1476Y-0.2953
X0.1476Y-0.3445
X0.1476Y-0.3937
X0.1969Y-0.1929
X0.1969Y-0.2461
X0.1969Y-0.2953
X0.1969Y-0.3445
X0.1969Y-0.3937
X0.2461Y-0.1929
X0.2461Y-0.2461
X0.2461Y-0.2953
X0.2461Y-0.3445
X0.2461Y-0.3937
X0.2559Y-0.9173
X0.3543Y-0.8386
X0.3543Y-1.3512
X0.3904Y-2.0315
X0.3935Y-2.7994
X0.4055Y-0.7087
X0.4217Y-1.2598
X0.4449Y-2.7992
X0.4606Y-1.437
X0.4764Y-1.8661
X0.4803Y-2.0
X0.4803Y-2.311
X0.4921Y-0.7087
X0.4961Y-2.6024
X0.5039Y-1.7835
X0.5157Y-2.0472
X0.5512Y-1.8622
X0.5551Y-0.8386
X0.5787Y-0.8612
X0.5787Y-1.252
X0.5827Y-1.4843
X0.5906Y-2.0315
X0.5945Y-0.685
X0.6378Y-0.8583
X0.6545Y-0.8937
X0.6545Y-1.252
X0.6575Y-1.6457
X0.6711Y-2.1635
X0.7087Y-1.437
X0.7244Y-2.3819
X0.7362Y-1.0315
X0.752Y-2.1024
X0.7805Y-2.1329
X0.7835Y-2.063
X0.8061Y-2.1604
X0.874Y-1.6181
X0.8937Y-2.9961
X0.9075Y-2.1496
X0.9587Y-1.7697
X0.9902Y-2.2047
X0.9902Y-2.2441
X1.0079Y-1.9882
X1.0295Y-2.2047
X1.0295Y-2.2441
X1.0354Y-3.0197
X1.0709Y-2.2047
X1.0709Y-2.2431
X1.1102Y-2.2047
X1.1102Y-2.2431
X1.1112Y-2.3819
X1.1614Y-1.6929
X1.2776Y-2.1555
X1.3061Y-0.4291
X1.3189Y-0.0512
X1.3415Y-0.4291
X1.376Y-0.4291
X1.4882Y-2.1555
X1.5236Y-1.7441
X1.5236Y-1.9724
X1.5709Y-2.2372
X1.5945Y-0.3268
X1.6693Y-2.4882
X1.7146Y-0.376
X1.7185Y-0.2795
X1.8031Y-1.5945
X1.8041Y-1.7411
X1.8701Y-0.9843
X1.8701Y-1.0335
X1.8701Y-1.0827
X1.874Y-1.3917
X1.9173Y-1.3917
X1.9173Y-1.5
X1.9193Y-0.9843
X1.9193Y-1.0335
X1.9193Y-1.0827
X1.9203Y-2.0433
X1.9203Y-2.1339
X1.9203Y-2.2736
X1.9547Y-2.937
X1.9685Y-0.9843
X1.9685Y-1.0335
X1.9685Y-1.0827
X2.0039Y-1.6063
X2.0177Y-0.9843
X2.0177Y-1.0335
X2.0177Y-1.0827
X2.0463Y-1.7411
X2.0587Y-1.8406
X2.065Y-2.0965
X2.0669Y-0.9843
X2.0669Y-1.0335
X2.0669Y-1.0827
X2.1102Y-2.5748
X2.1161Y-0.9843
X2.1161Y-1.0335
X2.1161Y-1.0827
X2.1417Y-2.0098
X2.1654Y-0.9843
X2.1654Y-1.0335
X2.1654Y-1.0827
X2.1654Y-1.4646
X2.1673Y-1.5059
X2.1673Y-1.565
X2.1752Y-1.8406
X2.1752Y-2.2146
X2.1969Y-1.6063
X2.213Y-2.5748
X2.3425Y-1.0276
X2.3744Y-1.4665
X2.3772Y-1.8346
X2.3819Y-1.185
X2.4016Y-1.3583
X2.4118Y-1.6669
X2.4409Y-2.3819
X2.5197Y-3.3947
X2.5197Y-3.5837
X2.5492Y-2.3819
X2.5551Y-0.9961
X2.5945Y-0.9961
X2.5945Y-1.1063
X2.6388Y-3.3947
X2.6388Y-3.5837
X2.6969Y-1.185
X2.7756Y-2.3681
X2.8543Y-1.185
X2.8937Y-2.3691
X3.0197Y-2.437
X3.0197Y-2.5974
X3.1102Y-2.2146
X3.1496Y-2.2146
X3.1496Y-2.3819
X3.1693Y-1.065
X3.1693Y-1.185
X3.189Y-1.3583
X3.2283Y-1.186
X3.2323Y-2.9222
X3.2323Y-3.3317
X3.2323Y-3.3947
X3.2323Y-3.4892
X3.2323Y-3.5841
X3.2323Y-3.6781
X3.2323Y-3.7411
X3.2717Y-0.9783
X3.3268Y-0.9783
X3.3504Y-3.3317
X3.3701Y-1.1063
X3.439Y-1.4862
X3.439Y-1.6043
X3.439Y-1.7421
X3.439Y-1.8996
X3.439Y-2.0177
X3.439Y-2.1555
X3.5354Y-0.5965
X3.6476Y-3.7441
X3.6594Y-1.1909
X3.6594Y-1.2362
X3.8024Y-1.0024
X3.8366Y-3.7441
X4.0472Y-3.7441
X4.1476Y-3.7441
X4.1693Y-0.4449
X4.2008Y-0.4449
X4.2441Y-0.2047
X4.248Y-3.7441
X4.2717Y-1.7028
X4.2717Y-1.7618
X4.2717Y-1.8209
X4.3307Y-1.7028
X4.3307Y-1.7618
X4.3307Y-1.8209
X4.3484Y-3.7441
X4.3898Y-0.0787
X4.3898Y-1.7028
X4.3898Y-1.7618
X4.3898Y-1.8209
X4.4724Y-0.3425
X4.5276Y-2.9035
X4.5276Y-2.9528
X4.5276Y-3.002
X4.5276Y-3.0512
X4.5276Y-3.248
X4.5276Y-3.2972
X4.5276Y-3.3465
X4.5276Y-3.3957
X4.5768Y-2.9035
X4.5768Y-2.9528
X4.5768Y-3.002
X4.5768Y-3.0512
X4.5768Y-3.248
X4.5768Y-3.2972
X4.5768Y-3.3465
X4.5768Y-3.3957
X4.5945Y-3.8858
X4.622Y-3.8386
X4.626Y-2.9035
X4.626Y-2.9528
X4.626Y-3.002
X4.626Y-3.0512
X4.626Y-3.248
X4.626Y-3.2972
X4.626Y-3.3465
X4.626Y-3.3957
X4.6732Y-2.6811
X4.9055Y-2.4488
X4.9173Y-3.4134
X4.9173Y-3.7441
X4.9183Y-2.9783
X4.9183Y-3.3002
X4.9331Y-3.3425
X4.9331Y-3.4537
X4.9498Y-3.0315
X4.9508Y-1.7717
X4.9764Y-2.248
X5.0118Y-3.2047
X5.0512Y-3.2815
X5.1024Y-0.3898
X5.1024Y-0.437
X5.1024Y-0.4843
X5.1024Y-2.2913
X5.1142Y-0.9961
X5.1142Y-1.0472
X5.1142Y-1.0945
X5.1142Y-1.1417
X5.1142Y-1.189
X5.1142Y-1.2835
X5.1181Y-2.9094
X5.1772Y-3.3307
X5.1772Y-3.3622
X5.185Y-3.4134
X5.2164Y-3.3276
X5.217Y-3.4144
X5.2402Y-3.5787
X5.2402Y-3.6181
X5.2516Y-3.4311
X5.252Y-3.4685
X5.315Y-1.3071
X5.377Y-3.5984
X5.4055Y-2.9173
X5.4331Y-1.0945
X5.4409Y-3.4961
X5.4724Y-3.2008
X5.4724Y-3.6969
X5.522Y-3.3954
X5.5315Y-2.1545
X5.5371Y-3.2694
X5.5394Y-0.3185
X5.5512Y-2.9567
X5.6102Y-3.1299
X5.622Y-2.1959
X5.6634Y-3.689
X5.7559Y-3.2087
X5.7795Y-3.3583
X5.7953Y-2.8307
X5.7992Y-3.0197
T3
X1.5413Y-0.4173
X1.5876Y-0.4173
X3.6594Y-0.5906
X3.7047Y-0.5906
X3.7087Y-1.002
X3.7087Y-1.0413
X3.7087Y-1.0768
X4.2047Y-0.0472
X4.2047Y-0.0945
X4.2598Y-0.0472
X4.2598Y-0.0945
X4.3583Y-0.6969
X4.3583Y-0.748
X4.4173Y-0.6969
X4.4173Y-0.748
X4.44Y-2.9104
X4.4439Y-3.1545
X4.4843Y-0.0512
X4.4862Y-3.1545
X4.5118Y-0.1654
X4.5512Y-0.0512
X4.5512Y-0.1102
X4.5512Y-0.1654
X4.6801Y-1.0935
X4.7313Y-1.4331
X4.7569Y-1.4646
X4.7825Y-1.4331
X4.9331Y-0.8858
X5.1083Y-2.1752
X5.1083Y-2.5098
X5.1083Y-2.6476
X5.1102Y-1.2362
X5.1181Y-1.4961
X5.1181Y-1.6614
X5.2165Y-0.437
X5.2362Y-2.4213
X5.315Y-1.4213
X5.4291Y-0.5591
X5.4449Y-0.437
X5.4724Y-3.5354
X5.4764Y-0.5591
X5.689Y-0.1929
X5.6929Y-0.7283
T4
X0.0659Y-2.7559
X0.1703Y-2.7559
X0.0659Y-2.3622
X0.1703Y-2.3622
T5
X5.3543Y-0.1181
X5.3543Y-0.2165
T6
X0.6547Y-3.0752
X0.6547Y-3.1752
X0.6547Y-3.2752
X0.6547Y-3.3752
X0.6547Y-3.4752
X0.6547Y-3.5752
X0.6547Y-3.6752
X0.6547Y-3.7752
X1.2728Y-3.0752
X1.2728Y-3.1752
X1.2728Y-3.2752
X1.2728Y-3.3752
X1.2728Y-3.4752
X1.2728Y-3.5752
X1.2728Y-3.6752
X1.2728Y-3.7752
X1.3335Y-3.9173
X1.4335Y-3.9173
X1.5335Y-3.9173
X1.6335Y-3.9173
X1.7335Y-3.9173
X1.8335Y-3.9173
X1.9335Y-3.9173
X2.0335Y-3.9173
X2.1335Y-3.9173
X2.2335Y-3.9173
X3.5933Y-3.9173
X3.6933Y-3.9173
X3.7933Y-3.9173
X3.8933Y-3.9173
X3.9933Y-3.9173
X4.0933Y-3.9173
X4.1933Y-3.9173
X4.2933Y-3.9173
X4.3933Y-3.9173
X4.4933Y-3.9173
X4.7335Y-1.6287
X4.7335Y-1.7287
X4.7335Y-1.8287
X4.7335Y-1.9287
X4.7335Y-2.0287
X4.7335Y-2.1287
X4.7335Y-2.2287
X4.7335Y-2.3287
X4.7335Y-2.4287
X4.7335Y-2.5287
X4.7335Y-2.6287
X4.7335Y-2.7287
X4.7335Y-2.8287
X4.7335Y-2.9287
X4.7335Y-3.0287
X4.7335Y-3.1287
X4.7335Y-3.2287
X4.7335Y-3.3287
X4.7335Y-3.4287
X4.7335Y-3.5287
X4.8335Y-1.6287
X4.8335Y-1.7287
X4.8335Y-1.8287
X4.8335Y-1.9287
X4.8335Y-2.0287
X4.8335Y-2.1287
X4.8335Y-2.2287
X4.8335Y-2.3287
X4.8335Y-2.4287
X4.8335Y-2.5287
X4.8335Y-2.6287
X4.8335Y-2.7287
X4.8335Y-2.8287
X4.8335Y-2.9287
X4.8335Y-3.0287
X4.8335Y-3.1287
X4.8335Y-3.2287
X4.8335Y-3.3287
X4.8335Y-3.4287
X4.8335Y-3.5287
X1.9634Y-0.1051
X1.9634Y-0.2051
X2.0634Y-0.1051
X2.0634Y-0.2051
X2.1634Y-0.1051
X2.1634Y-0.2051
X2.2634Y-0.1051
X2.2634Y-0.2051
X2.3634Y-0.1051
X2.3634Y-0.2051
X2.4634Y-0.1051
X2.4634Y-0.2051
X2.5634Y-0.1051
X2.5634Y-0.2051
X2.6634Y-0.1051
X2.6634Y-0.2051
X2.7634Y-0.1051
X2.7634Y-0.2051
X2.8634Y-0.1051
X2.8634Y-0.2051
X2.9634Y-0.1051
X2.9634Y-0.2051
X3.0634Y-0.1051
X3.0634Y-0.2051
X3.1634Y-0.1051
X3.1634Y-0.2051
X3.2634Y-0.1051
X3.2634Y-0.2051
X3.3634Y-0.1051
X3.3634Y-0.2051
X3.4634Y-0.1051
X3.4634Y-0.2051
X3.5634Y-0.1051
X3.5634Y-0.2051
X3.6634Y-0.1051
X3.6634Y-0.2051
X3.7634Y-0.1051
X3.7634Y-0.2051
X3.8634Y-0.1051
X3.8634Y-0.2051
T7
X5.748Y-1.378
T0
M30
