%TF.GenerationSoftware,KiCad,Pcbnew,(5.1.7)-1*%
%TF.CreationDate,2020-11-09T10:12:47+09:00*%
%TF.ProjectId,FlightComputer,466c6967-6874-4436-9f6d-70757465722e,rev?*%
%TF.SameCoordinates,Original*%
%TF.FileFunction,Soldermask,Bot*%
%TF.FilePolarity,Negative*%
%FSLAX46Y46*%
G04 Gerber Fmt 4.6, Leading zero omitted, Abs format (unit mm)*
G04 Created by KiCad (PCBNEW (5.1.7)-1) date 2020-11-09 10:12:47*
%MOMM*%
%LPD*%
G01*
G04 APERTURE LIST*
%ADD10R,1.700000X1.700000*%
%ADD11C,1.700000*%
%ADD12C,0.800000*%
%ADD13O,1.700000X1.700000*%
%ADD14O,1.850000X1.700000*%
%ADD15C,2.400000*%
G04 APERTURE END LIST*
%TO.C,R94*%
G36*
G01*
X65060000Y-81265000D02*
X65060000Y-81585000D01*
G75*
G02*
X64900000Y-81745000I-160000J0D01*
G01*
X64505000Y-81745000D01*
G75*
G02*
X64345000Y-81585000I0J160000D01*
G01*
X64345000Y-81265000D01*
G75*
G02*
X64505000Y-81105000I160000J0D01*
G01*
X64900000Y-81105000D01*
G75*
G02*
X65060000Y-81265000I0J-160000D01*
G01*
G37*
G36*
G01*
X66255000Y-81265000D02*
X66255000Y-81585000D01*
G75*
G02*
X66095000Y-81745000I-160000J0D01*
G01*
X65700000Y-81745000D01*
G75*
G02*
X65540000Y-81585000I0J160000D01*
G01*
X65540000Y-81265000D01*
G75*
G02*
X65700000Y-81105000I160000J0D01*
G01*
X66095000Y-81105000D01*
G75*
G02*
X66255000Y-81265000I0J-160000D01*
G01*
G37*
%TD*%
%TO.C,R91*%
G36*
G01*
X84040000Y-81585000D02*
X84040000Y-81265000D01*
G75*
G02*
X84200000Y-81105000I160000J0D01*
G01*
X84595000Y-81105000D01*
G75*
G02*
X84755000Y-81265000I0J-160000D01*
G01*
X84755000Y-81585000D01*
G75*
G02*
X84595000Y-81745000I-160000J0D01*
G01*
X84200000Y-81745000D01*
G75*
G02*
X84040000Y-81585000I0J160000D01*
G01*
G37*
G36*
G01*
X82845000Y-81585000D02*
X82845000Y-81265000D01*
G75*
G02*
X83005000Y-81105000I160000J0D01*
G01*
X83400000Y-81105000D01*
G75*
G02*
X83560000Y-81265000I0J-160000D01*
G01*
X83560000Y-81585000D01*
G75*
G02*
X83400000Y-81745000I-160000J0D01*
G01*
X83005000Y-81745000D01*
G75*
G02*
X82845000Y-81585000I0J160000D01*
G01*
G37*
%TD*%
%TO.C,R89*%
G36*
G01*
X84040000Y-83185000D02*
X84040000Y-82865000D01*
G75*
G02*
X84200000Y-82705000I160000J0D01*
G01*
X84595000Y-82705000D01*
G75*
G02*
X84755000Y-82865000I0J-160000D01*
G01*
X84755000Y-83185000D01*
G75*
G02*
X84595000Y-83345000I-160000J0D01*
G01*
X84200000Y-83345000D01*
G75*
G02*
X84040000Y-83185000I0J160000D01*
G01*
G37*
G36*
G01*
X82845000Y-83185000D02*
X82845000Y-82865000D01*
G75*
G02*
X83005000Y-82705000I160000J0D01*
G01*
X83400000Y-82705000D01*
G75*
G02*
X83560000Y-82865000I0J-160000D01*
G01*
X83560000Y-83185000D01*
G75*
G02*
X83400000Y-83345000I-160000J0D01*
G01*
X83005000Y-83345000D01*
G75*
G02*
X82845000Y-83185000I0J160000D01*
G01*
G37*
%TD*%
%TO.C,R88*%
G36*
G01*
X65060000Y-82865000D02*
X65060000Y-83185000D01*
G75*
G02*
X64900000Y-83345000I-160000J0D01*
G01*
X64505000Y-83345000D01*
G75*
G02*
X64345000Y-83185000I0J160000D01*
G01*
X64345000Y-82865000D01*
G75*
G02*
X64505000Y-82705000I160000J0D01*
G01*
X64900000Y-82705000D01*
G75*
G02*
X65060000Y-82865000I0J-160000D01*
G01*
G37*
G36*
G01*
X66255000Y-82865000D02*
X66255000Y-83185000D01*
G75*
G02*
X66095000Y-83345000I-160000J0D01*
G01*
X65700000Y-83345000D01*
G75*
G02*
X65540000Y-83185000I0J160000D01*
G01*
X65540000Y-82865000D01*
G75*
G02*
X65700000Y-82705000I160000J0D01*
G01*
X66095000Y-82705000D01*
G75*
G02*
X66255000Y-82865000I0J-160000D01*
G01*
G37*
%TD*%
%TO.C,R85*%
G36*
G01*
X84040000Y-79985000D02*
X84040000Y-79665000D01*
G75*
G02*
X84200000Y-79505000I160000J0D01*
G01*
X84595000Y-79505000D01*
G75*
G02*
X84755000Y-79665000I0J-160000D01*
G01*
X84755000Y-79985000D01*
G75*
G02*
X84595000Y-80145000I-160000J0D01*
G01*
X84200000Y-80145000D01*
G75*
G02*
X84040000Y-79985000I0J160000D01*
G01*
G37*
G36*
G01*
X82845000Y-79985000D02*
X82845000Y-79665000D01*
G75*
G02*
X83005000Y-79505000I160000J0D01*
G01*
X83400000Y-79505000D01*
G75*
G02*
X83560000Y-79665000I0J-160000D01*
G01*
X83560000Y-79985000D01*
G75*
G02*
X83400000Y-80145000I-160000J0D01*
G01*
X83005000Y-80145000D01*
G75*
G02*
X82845000Y-79985000I0J160000D01*
G01*
G37*
%TD*%
%TO.C,R82*%
G36*
G01*
X65540000Y-91985000D02*
X65540000Y-91665000D01*
G75*
G02*
X65700000Y-91505000I160000J0D01*
G01*
X66095000Y-91505000D01*
G75*
G02*
X66255000Y-91665000I0J-160000D01*
G01*
X66255000Y-91985000D01*
G75*
G02*
X66095000Y-92145000I-160000J0D01*
G01*
X65700000Y-92145000D01*
G75*
G02*
X65540000Y-91985000I0J160000D01*
G01*
G37*
G36*
G01*
X64345000Y-91985000D02*
X64345000Y-91665000D01*
G75*
G02*
X64505000Y-91505000I160000J0D01*
G01*
X64900000Y-91505000D01*
G75*
G02*
X65060000Y-91665000I0J-160000D01*
G01*
X65060000Y-91985000D01*
G75*
G02*
X64900000Y-92145000I-160000J0D01*
G01*
X64505000Y-92145000D01*
G75*
G02*
X64345000Y-91985000I0J160000D01*
G01*
G37*
%TD*%
%TO.C,R80*%
G36*
G01*
X65540000Y-90385000D02*
X65540000Y-90065000D01*
G75*
G02*
X65700000Y-89905000I160000J0D01*
G01*
X66095000Y-89905000D01*
G75*
G02*
X66255000Y-90065000I0J-160000D01*
G01*
X66255000Y-90385000D01*
G75*
G02*
X66095000Y-90545000I-160000J0D01*
G01*
X65700000Y-90545000D01*
G75*
G02*
X65540000Y-90385000I0J160000D01*
G01*
G37*
G36*
G01*
X64345000Y-90385000D02*
X64345000Y-90065000D01*
G75*
G02*
X64505000Y-89905000I160000J0D01*
G01*
X64900000Y-89905000D01*
G75*
G02*
X65060000Y-90065000I0J-160000D01*
G01*
X65060000Y-90385000D01*
G75*
G02*
X64900000Y-90545000I-160000J0D01*
G01*
X64505000Y-90545000D01*
G75*
G02*
X64345000Y-90385000I0J160000D01*
G01*
G37*
%TD*%
%TO.C,R78*%
G36*
G01*
X65060000Y-79665000D02*
X65060000Y-79985000D01*
G75*
G02*
X64900000Y-80145000I-160000J0D01*
G01*
X64505000Y-80145000D01*
G75*
G02*
X64345000Y-79985000I0J160000D01*
G01*
X64345000Y-79665000D01*
G75*
G02*
X64505000Y-79505000I160000J0D01*
G01*
X64900000Y-79505000D01*
G75*
G02*
X65060000Y-79665000I0J-160000D01*
G01*
G37*
G36*
G01*
X66255000Y-79665000D02*
X66255000Y-79985000D01*
G75*
G02*
X66095000Y-80145000I-160000J0D01*
G01*
X65700000Y-80145000D01*
G75*
G02*
X65540000Y-79985000I0J160000D01*
G01*
X65540000Y-79665000D01*
G75*
G02*
X65700000Y-79505000I160000J0D01*
G01*
X66095000Y-79505000D01*
G75*
G02*
X66255000Y-79665000I0J-160000D01*
G01*
G37*
%TD*%
%TO.C,R74*%
G36*
G01*
X84040000Y-78385000D02*
X84040000Y-78065000D01*
G75*
G02*
X84200000Y-77905000I160000J0D01*
G01*
X84595000Y-77905000D01*
G75*
G02*
X84755000Y-78065000I0J-160000D01*
G01*
X84755000Y-78385000D01*
G75*
G02*
X84595000Y-78545000I-160000J0D01*
G01*
X84200000Y-78545000D01*
G75*
G02*
X84040000Y-78385000I0J160000D01*
G01*
G37*
G36*
G01*
X82845000Y-78385000D02*
X82845000Y-78065000D01*
G75*
G02*
X83005000Y-77905000I160000J0D01*
G01*
X83400000Y-77905000D01*
G75*
G02*
X83560000Y-78065000I0J-160000D01*
G01*
X83560000Y-78385000D01*
G75*
G02*
X83400000Y-78545000I-160000J0D01*
G01*
X83005000Y-78545000D01*
G75*
G02*
X82845000Y-78385000I0J160000D01*
G01*
G37*
%TD*%
%TO.C,R73*%
G36*
G01*
X65540000Y-87985000D02*
X65540000Y-87665000D01*
G75*
G02*
X65700000Y-87505000I160000J0D01*
G01*
X66095000Y-87505000D01*
G75*
G02*
X66255000Y-87665000I0J-160000D01*
G01*
X66255000Y-87985000D01*
G75*
G02*
X66095000Y-88145000I-160000J0D01*
G01*
X65700000Y-88145000D01*
G75*
G02*
X65540000Y-87985000I0J160000D01*
G01*
G37*
G36*
G01*
X64345000Y-87985000D02*
X64345000Y-87665000D01*
G75*
G02*
X64505000Y-87505000I160000J0D01*
G01*
X64900000Y-87505000D01*
G75*
G02*
X65060000Y-87665000I0J-160000D01*
G01*
X65060000Y-87985000D01*
G75*
G02*
X64900000Y-88145000I-160000J0D01*
G01*
X64505000Y-88145000D01*
G75*
G02*
X64345000Y-87985000I0J160000D01*
G01*
G37*
%TD*%
%TO.C,R68*%
G36*
G01*
X65060000Y-78065000D02*
X65060000Y-78385000D01*
G75*
G02*
X64900000Y-78545000I-160000J0D01*
G01*
X64505000Y-78545000D01*
G75*
G02*
X64345000Y-78385000I0J160000D01*
G01*
X64345000Y-78065000D01*
G75*
G02*
X64505000Y-77905000I160000J0D01*
G01*
X64900000Y-77905000D01*
G75*
G02*
X65060000Y-78065000I0J-160000D01*
G01*
G37*
G36*
G01*
X66255000Y-78065000D02*
X66255000Y-78385000D01*
G75*
G02*
X66095000Y-78545000I-160000J0D01*
G01*
X65700000Y-78545000D01*
G75*
G02*
X65540000Y-78385000I0J160000D01*
G01*
X65540000Y-78065000D01*
G75*
G02*
X65700000Y-77905000I160000J0D01*
G01*
X66095000Y-77905000D01*
G75*
G02*
X66255000Y-78065000I0J-160000D01*
G01*
G37*
%TD*%
%TO.C,R63*%
G36*
G01*
X65060000Y-76465000D02*
X65060000Y-76785000D01*
G75*
G02*
X64900000Y-76945000I-160000J0D01*
G01*
X64505000Y-76945000D01*
G75*
G02*
X64345000Y-76785000I0J160000D01*
G01*
X64345000Y-76465000D01*
G75*
G02*
X64505000Y-76305000I160000J0D01*
G01*
X64900000Y-76305000D01*
G75*
G02*
X65060000Y-76465000I0J-160000D01*
G01*
G37*
G36*
G01*
X66255000Y-76465000D02*
X66255000Y-76785000D01*
G75*
G02*
X66095000Y-76945000I-160000J0D01*
G01*
X65700000Y-76945000D01*
G75*
G02*
X65540000Y-76785000I0J160000D01*
G01*
X65540000Y-76465000D01*
G75*
G02*
X65700000Y-76305000I160000J0D01*
G01*
X66095000Y-76305000D01*
G75*
G02*
X66255000Y-76465000I0J-160000D01*
G01*
G37*
%TD*%
%TO.C,R60*%
G36*
G01*
X83560000Y-87665000D02*
X83560000Y-87985000D01*
G75*
G02*
X83400000Y-88145000I-160000J0D01*
G01*
X83005000Y-88145000D01*
G75*
G02*
X82845000Y-87985000I0J160000D01*
G01*
X82845000Y-87665000D01*
G75*
G02*
X83005000Y-87505000I160000J0D01*
G01*
X83400000Y-87505000D01*
G75*
G02*
X83560000Y-87665000I0J-160000D01*
G01*
G37*
G36*
G01*
X84755000Y-87665000D02*
X84755000Y-87985000D01*
G75*
G02*
X84595000Y-88145000I-160000J0D01*
G01*
X84200000Y-88145000D01*
G75*
G02*
X84040000Y-87985000I0J160000D01*
G01*
X84040000Y-87665000D01*
G75*
G02*
X84200000Y-87505000I160000J0D01*
G01*
X84595000Y-87505000D01*
G75*
G02*
X84755000Y-87665000I0J-160000D01*
G01*
G37*
%TD*%
%TO.C,R59*%
G36*
G01*
X65060000Y-74865000D02*
X65060000Y-75185000D01*
G75*
G02*
X64900000Y-75345000I-160000J0D01*
G01*
X64505000Y-75345000D01*
G75*
G02*
X64345000Y-75185000I0J160000D01*
G01*
X64345000Y-74865000D01*
G75*
G02*
X64505000Y-74705000I160000J0D01*
G01*
X64900000Y-74705000D01*
G75*
G02*
X65060000Y-74865000I0J-160000D01*
G01*
G37*
G36*
G01*
X66255000Y-74865000D02*
X66255000Y-75185000D01*
G75*
G02*
X66095000Y-75345000I-160000J0D01*
G01*
X65700000Y-75345000D01*
G75*
G02*
X65540000Y-75185000I0J160000D01*
G01*
X65540000Y-74865000D01*
G75*
G02*
X65700000Y-74705000I160000J0D01*
G01*
X66095000Y-74705000D01*
G75*
G02*
X66255000Y-74865000I0J-160000D01*
G01*
G37*
%TD*%
%TO.C,R58*%
G36*
G01*
X83560000Y-89265000D02*
X83560000Y-89585000D01*
G75*
G02*
X83400000Y-89745000I-160000J0D01*
G01*
X83005000Y-89745000D01*
G75*
G02*
X82845000Y-89585000I0J160000D01*
G01*
X82845000Y-89265000D01*
G75*
G02*
X83005000Y-89105000I160000J0D01*
G01*
X83400000Y-89105000D01*
G75*
G02*
X83560000Y-89265000I0J-160000D01*
G01*
G37*
G36*
G01*
X84755000Y-89265000D02*
X84755000Y-89585000D01*
G75*
G02*
X84595000Y-89745000I-160000J0D01*
G01*
X84200000Y-89745000D01*
G75*
G02*
X84040000Y-89585000I0J160000D01*
G01*
X84040000Y-89265000D01*
G75*
G02*
X84200000Y-89105000I160000J0D01*
G01*
X84595000Y-89105000D01*
G75*
G02*
X84755000Y-89265000I0J-160000D01*
G01*
G37*
%TD*%
%TO.C,R57*%
G36*
G01*
X84040000Y-75185000D02*
X84040000Y-74865000D01*
G75*
G02*
X84200000Y-74705000I160000J0D01*
G01*
X84595000Y-74705000D01*
G75*
G02*
X84755000Y-74865000I0J-160000D01*
G01*
X84755000Y-75185000D01*
G75*
G02*
X84595000Y-75345000I-160000J0D01*
G01*
X84200000Y-75345000D01*
G75*
G02*
X84040000Y-75185000I0J160000D01*
G01*
G37*
G36*
G01*
X82845000Y-75185000D02*
X82845000Y-74865000D01*
G75*
G02*
X83005000Y-74705000I160000J0D01*
G01*
X83400000Y-74705000D01*
G75*
G02*
X83560000Y-74865000I0J-160000D01*
G01*
X83560000Y-75185000D01*
G75*
G02*
X83400000Y-75345000I-160000J0D01*
G01*
X83005000Y-75345000D01*
G75*
G02*
X82845000Y-75185000I0J160000D01*
G01*
G37*
%TD*%
%TO.C,R53*%
G36*
G01*
X84040000Y-76785000D02*
X84040000Y-76465000D01*
G75*
G02*
X84200000Y-76305000I160000J0D01*
G01*
X84595000Y-76305000D01*
G75*
G02*
X84755000Y-76465000I0J-160000D01*
G01*
X84755000Y-76785000D01*
G75*
G02*
X84595000Y-76945000I-160000J0D01*
G01*
X84200000Y-76945000D01*
G75*
G02*
X84040000Y-76785000I0J160000D01*
G01*
G37*
G36*
G01*
X82845000Y-76785000D02*
X82845000Y-76465000D01*
G75*
G02*
X83005000Y-76305000I160000J0D01*
G01*
X83400000Y-76305000D01*
G75*
G02*
X83560000Y-76465000I0J-160000D01*
G01*
X83560000Y-76785000D01*
G75*
G02*
X83400000Y-76945000I-160000J0D01*
G01*
X83005000Y-76945000D01*
G75*
G02*
X82845000Y-76785000I0J160000D01*
G01*
G37*
%TD*%
%TO.C,R52*%
G36*
G01*
X83560000Y-92465000D02*
X83560000Y-92785000D01*
G75*
G02*
X83400000Y-92945000I-160000J0D01*
G01*
X83005000Y-92945000D01*
G75*
G02*
X82845000Y-92785000I0J160000D01*
G01*
X82845000Y-92465000D01*
G75*
G02*
X83005000Y-92305000I160000J0D01*
G01*
X83400000Y-92305000D01*
G75*
G02*
X83560000Y-92465000I0J-160000D01*
G01*
G37*
G36*
G01*
X84755000Y-92465000D02*
X84755000Y-92785000D01*
G75*
G02*
X84595000Y-92945000I-160000J0D01*
G01*
X84200000Y-92945000D01*
G75*
G02*
X84040000Y-92785000I0J160000D01*
G01*
X84040000Y-92465000D01*
G75*
G02*
X84200000Y-92305000I160000J0D01*
G01*
X84595000Y-92305000D01*
G75*
G02*
X84755000Y-92465000I0J-160000D01*
G01*
G37*
%TD*%
%TO.C,R50*%
G36*
G01*
X83560000Y-94065000D02*
X83560000Y-94385000D01*
G75*
G02*
X83400000Y-94545000I-160000J0D01*
G01*
X83005000Y-94545000D01*
G75*
G02*
X82845000Y-94385000I0J160000D01*
G01*
X82845000Y-94065000D01*
G75*
G02*
X83005000Y-93905000I160000J0D01*
G01*
X83400000Y-93905000D01*
G75*
G02*
X83560000Y-94065000I0J-160000D01*
G01*
G37*
G36*
G01*
X84755000Y-94065000D02*
X84755000Y-94385000D01*
G75*
G02*
X84595000Y-94545000I-160000J0D01*
G01*
X84200000Y-94545000D01*
G75*
G02*
X84040000Y-94385000I0J160000D01*
G01*
X84040000Y-94065000D01*
G75*
G02*
X84200000Y-93905000I160000J0D01*
G01*
X84595000Y-93905000D01*
G75*
G02*
X84755000Y-94065000I0J-160000D01*
G01*
G37*
%TD*%
%TO.C,R9*%
G36*
G01*
X98740000Y-96690000D02*
X99060000Y-96690000D01*
G75*
G02*
X99220000Y-96850000I0J-160000D01*
G01*
X99220000Y-97245000D01*
G75*
G02*
X99060000Y-97405000I-160000J0D01*
G01*
X98740000Y-97405000D01*
G75*
G02*
X98580000Y-97245000I0J160000D01*
G01*
X98580000Y-96850000D01*
G75*
G02*
X98740000Y-96690000I160000J0D01*
G01*
G37*
G36*
G01*
X98740000Y-95495000D02*
X99060000Y-95495000D01*
G75*
G02*
X99220000Y-95655000I0J-160000D01*
G01*
X99220000Y-96050000D01*
G75*
G02*
X99060000Y-96210000I-160000J0D01*
G01*
X98740000Y-96210000D01*
G75*
G02*
X98580000Y-96050000I0J160000D01*
G01*
X98580000Y-95655000D01*
G75*
G02*
X98740000Y-95495000I160000J0D01*
G01*
G37*
%TD*%
%TO.C,L6*%
G36*
G01*
X111440000Y-96640000D02*
X111760000Y-96640000D01*
G75*
G02*
X111920000Y-96800000I0J-160000D01*
G01*
X111920000Y-97245000D01*
G75*
G02*
X111760000Y-97405000I-160000J0D01*
G01*
X111440000Y-97405000D01*
G75*
G02*
X111280000Y-97245000I0J160000D01*
G01*
X111280000Y-96800000D01*
G75*
G02*
X111440000Y-96640000I160000J0D01*
G01*
G37*
G36*
G01*
X111440000Y-95495000D02*
X111760000Y-95495000D01*
G75*
G02*
X111920000Y-95655000I0J-160000D01*
G01*
X111920000Y-96100000D01*
G75*
G02*
X111760000Y-96260000I-160000J0D01*
G01*
X111440000Y-96260000D01*
G75*
G02*
X111280000Y-96100000I0J160000D01*
G01*
X111280000Y-95655000D01*
G75*
G02*
X111440000Y-95495000I160000J0D01*
G01*
G37*
%TD*%
%TO.C,L5*%
G36*
G01*
X108890000Y-96640000D02*
X109210000Y-96640000D01*
G75*
G02*
X109370000Y-96800000I0J-160000D01*
G01*
X109370000Y-97245000D01*
G75*
G02*
X109210000Y-97405000I-160000J0D01*
G01*
X108890000Y-97405000D01*
G75*
G02*
X108730000Y-97245000I0J160000D01*
G01*
X108730000Y-96800000D01*
G75*
G02*
X108890000Y-96640000I160000J0D01*
G01*
G37*
G36*
G01*
X108890000Y-95495000D02*
X109210000Y-95495000D01*
G75*
G02*
X109370000Y-95655000I0J-160000D01*
G01*
X109370000Y-96100000D01*
G75*
G02*
X109210000Y-96260000I-160000J0D01*
G01*
X108890000Y-96260000D01*
G75*
G02*
X108730000Y-96100000I0J160000D01*
G01*
X108730000Y-95655000D01*
G75*
G02*
X108890000Y-95495000I160000J0D01*
G01*
G37*
%TD*%
%TO.C,L4*%
G36*
G01*
X106340000Y-96640000D02*
X106660000Y-96640000D01*
G75*
G02*
X106820000Y-96800000I0J-160000D01*
G01*
X106820000Y-97245000D01*
G75*
G02*
X106660000Y-97405000I-160000J0D01*
G01*
X106340000Y-97405000D01*
G75*
G02*
X106180000Y-97245000I0J160000D01*
G01*
X106180000Y-96800000D01*
G75*
G02*
X106340000Y-96640000I160000J0D01*
G01*
G37*
G36*
G01*
X106340000Y-95495000D02*
X106660000Y-95495000D01*
G75*
G02*
X106820000Y-95655000I0J-160000D01*
G01*
X106820000Y-96100000D01*
G75*
G02*
X106660000Y-96260000I-160000J0D01*
G01*
X106340000Y-96260000D01*
G75*
G02*
X106180000Y-96100000I0J160000D01*
G01*
X106180000Y-95655000D01*
G75*
G02*
X106340000Y-95495000I160000J0D01*
G01*
G37*
%TD*%
%TO.C,L3*%
G36*
G01*
X103790000Y-96640000D02*
X104110000Y-96640000D01*
G75*
G02*
X104270000Y-96800000I0J-160000D01*
G01*
X104270000Y-97245000D01*
G75*
G02*
X104110000Y-97405000I-160000J0D01*
G01*
X103790000Y-97405000D01*
G75*
G02*
X103630000Y-97245000I0J160000D01*
G01*
X103630000Y-96800000D01*
G75*
G02*
X103790000Y-96640000I160000J0D01*
G01*
G37*
G36*
G01*
X103790000Y-95495000D02*
X104110000Y-95495000D01*
G75*
G02*
X104270000Y-95655000I0J-160000D01*
G01*
X104270000Y-96100000D01*
G75*
G02*
X104110000Y-96260000I-160000J0D01*
G01*
X103790000Y-96260000D01*
G75*
G02*
X103630000Y-96100000I0J160000D01*
G01*
X103630000Y-95655000D01*
G75*
G02*
X103790000Y-95495000I160000J0D01*
G01*
G37*
%TD*%
%TO.C,L2*%
G36*
G01*
X96190000Y-96640000D02*
X96510000Y-96640000D01*
G75*
G02*
X96670000Y-96800000I0J-160000D01*
G01*
X96670000Y-97245000D01*
G75*
G02*
X96510000Y-97405000I-160000J0D01*
G01*
X96190000Y-97405000D01*
G75*
G02*
X96030000Y-97245000I0J160000D01*
G01*
X96030000Y-96800000D01*
G75*
G02*
X96190000Y-96640000I160000J0D01*
G01*
G37*
G36*
G01*
X96190000Y-95495000D02*
X96510000Y-95495000D01*
G75*
G02*
X96670000Y-95655000I0J-160000D01*
G01*
X96670000Y-96100000D01*
G75*
G02*
X96510000Y-96260000I-160000J0D01*
G01*
X96190000Y-96260000D01*
G75*
G02*
X96030000Y-96100000I0J160000D01*
G01*
X96030000Y-95655000D01*
G75*
G02*
X96190000Y-95495000I160000J0D01*
G01*
G37*
%TD*%
%TO.C,L1*%
G36*
G01*
X93640000Y-96640000D02*
X93960000Y-96640000D01*
G75*
G02*
X94120000Y-96800000I0J-160000D01*
G01*
X94120000Y-97245000D01*
G75*
G02*
X93960000Y-97405000I-160000J0D01*
G01*
X93640000Y-97405000D01*
G75*
G02*
X93480000Y-97245000I0J160000D01*
G01*
X93480000Y-96800000D01*
G75*
G02*
X93640000Y-96640000I160000J0D01*
G01*
G37*
G36*
G01*
X93640000Y-95495000D02*
X93960000Y-95495000D01*
G75*
G02*
X94120000Y-95655000I0J-160000D01*
G01*
X94120000Y-96100000D01*
G75*
G02*
X93960000Y-96260000I-160000J0D01*
G01*
X93640000Y-96260000D01*
G75*
G02*
X93480000Y-96100000I0J160000D01*
G01*
X93480000Y-95655000D01*
G75*
G02*
X93640000Y-95495000I160000J0D01*
G01*
G37*
%TD*%
%TO.C,C48*%
G36*
G01*
X83600000Y-84470000D02*
X83600000Y-84780000D01*
G75*
G02*
X83445000Y-84935000I-155000J0D01*
G01*
X83020000Y-84935000D01*
G75*
G02*
X82865000Y-84780000I0J155000D01*
G01*
X82865000Y-84470000D01*
G75*
G02*
X83020000Y-84315000I155000J0D01*
G01*
X83445000Y-84315000D01*
G75*
G02*
X83600000Y-84470000I0J-155000D01*
G01*
G37*
G36*
G01*
X84735000Y-84470000D02*
X84735000Y-84780000D01*
G75*
G02*
X84580000Y-84935000I-155000J0D01*
G01*
X84155000Y-84935000D01*
G75*
G02*
X84000000Y-84780000I0J155000D01*
G01*
X84000000Y-84470000D01*
G75*
G02*
X84155000Y-84315000I155000J0D01*
G01*
X84580000Y-84315000D01*
G75*
G02*
X84735000Y-84470000I0J-155000D01*
G01*
G37*
%TD*%
%TO.C,C43*%
G36*
G01*
X65500000Y-86380000D02*
X65500000Y-86070000D01*
G75*
G02*
X65655000Y-85915000I155000J0D01*
G01*
X66080000Y-85915000D01*
G75*
G02*
X66235000Y-86070000I0J-155000D01*
G01*
X66235000Y-86380000D01*
G75*
G02*
X66080000Y-86535000I-155000J0D01*
G01*
X65655000Y-86535000D01*
G75*
G02*
X65500000Y-86380000I0J155000D01*
G01*
G37*
G36*
G01*
X64365000Y-86380000D02*
X64365000Y-86070000D01*
G75*
G02*
X64520000Y-85915000I155000J0D01*
G01*
X64945000Y-85915000D01*
G75*
G02*
X65100000Y-86070000I0J-155000D01*
G01*
X65100000Y-86380000D01*
G75*
G02*
X64945000Y-86535000I-155000J0D01*
G01*
X64520000Y-86535000D01*
G75*
G02*
X64365000Y-86380000I0J155000D01*
G01*
G37*
%TD*%
%TO.C,C13*%
G36*
G01*
X110605000Y-96250000D02*
X110295000Y-96250000D01*
G75*
G02*
X110140000Y-96095000I0J155000D01*
G01*
X110140000Y-95670000D01*
G75*
G02*
X110295000Y-95515000I155000J0D01*
G01*
X110605000Y-95515000D01*
G75*
G02*
X110760000Y-95670000I0J-155000D01*
G01*
X110760000Y-96095000D01*
G75*
G02*
X110605000Y-96250000I-155000J0D01*
G01*
G37*
G36*
G01*
X110605000Y-97385000D02*
X110295000Y-97385000D01*
G75*
G02*
X110140000Y-97230000I0J155000D01*
G01*
X110140000Y-96805000D01*
G75*
G02*
X110295000Y-96650000I155000J0D01*
G01*
X110605000Y-96650000D01*
G75*
G02*
X110760000Y-96805000I0J-155000D01*
G01*
X110760000Y-97230000D01*
G75*
G02*
X110605000Y-97385000I-155000J0D01*
G01*
G37*
%TD*%
%TO.C,C12*%
G36*
G01*
X108055000Y-96250000D02*
X107745000Y-96250000D01*
G75*
G02*
X107590000Y-96095000I0J155000D01*
G01*
X107590000Y-95670000D01*
G75*
G02*
X107745000Y-95515000I155000J0D01*
G01*
X108055000Y-95515000D01*
G75*
G02*
X108210000Y-95670000I0J-155000D01*
G01*
X108210000Y-96095000D01*
G75*
G02*
X108055000Y-96250000I-155000J0D01*
G01*
G37*
G36*
G01*
X108055000Y-97385000D02*
X107745000Y-97385000D01*
G75*
G02*
X107590000Y-97230000I0J155000D01*
G01*
X107590000Y-96805000D01*
G75*
G02*
X107745000Y-96650000I155000J0D01*
G01*
X108055000Y-96650000D01*
G75*
G02*
X108210000Y-96805000I0J-155000D01*
G01*
X108210000Y-97230000D01*
G75*
G02*
X108055000Y-97385000I-155000J0D01*
G01*
G37*
%TD*%
%TO.C,C11*%
G36*
G01*
X105505000Y-96250000D02*
X105195000Y-96250000D01*
G75*
G02*
X105040000Y-96095000I0J155000D01*
G01*
X105040000Y-95670000D01*
G75*
G02*
X105195000Y-95515000I155000J0D01*
G01*
X105505000Y-95515000D01*
G75*
G02*
X105660000Y-95670000I0J-155000D01*
G01*
X105660000Y-96095000D01*
G75*
G02*
X105505000Y-96250000I-155000J0D01*
G01*
G37*
G36*
G01*
X105505000Y-97385000D02*
X105195000Y-97385000D01*
G75*
G02*
X105040000Y-97230000I0J155000D01*
G01*
X105040000Y-96805000D01*
G75*
G02*
X105195000Y-96650000I155000J0D01*
G01*
X105505000Y-96650000D01*
G75*
G02*
X105660000Y-96805000I0J-155000D01*
G01*
X105660000Y-97230000D01*
G75*
G02*
X105505000Y-97385000I-155000J0D01*
G01*
G37*
%TD*%
%TO.C,C10*%
G36*
G01*
X102955000Y-96250000D02*
X102645000Y-96250000D01*
G75*
G02*
X102490000Y-96095000I0J155000D01*
G01*
X102490000Y-95670000D01*
G75*
G02*
X102645000Y-95515000I155000J0D01*
G01*
X102955000Y-95515000D01*
G75*
G02*
X103110000Y-95670000I0J-155000D01*
G01*
X103110000Y-96095000D01*
G75*
G02*
X102955000Y-96250000I-155000J0D01*
G01*
G37*
G36*
G01*
X102955000Y-97385000D02*
X102645000Y-97385000D01*
G75*
G02*
X102490000Y-97230000I0J155000D01*
G01*
X102490000Y-96805000D01*
G75*
G02*
X102645000Y-96650000I155000J0D01*
G01*
X102955000Y-96650000D01*
G75*
G02*
X103110000Y-96805000I0J-155000D01*
G01*
X103110000Y-97230000D01*
G75*
G02*
X102955000Y-97385000I-155000J0D01*
G01*
G37*
%TD*%
%TO.C,C7*%
G36*
G01*
X97605000Y-96250000D02*
X97295000Y-96250000D01*
G75*
G02*
X97140000Y-96095000I0J155000D01*
G01*
X97140000Y-95670000D01*
G75*
G02*
X97295000Y-95515000I155000J0D01*
G01*
X97605000Y-95515000D01*
G75*
G02*
X97760000Y-95670000I0J-155000D01*
G01*
X97760000Y-96095000D01*
G75*
G02*
X97605000Y-96250000I-155000J0D01*
G01*
G37*
G36*
G01*
X97605000Y-97385000D02*
X97295000Y-97385000D01*
G75*
G02*
X97140000Y-97230000I0J155000D01*
G01*
X97140000Y-96805000D01*
G75*
G02*
X97295000Y-96650000I155000J0D01*
G01*
X97605000Y-96650000D01*
G75*
G02*
X97760000Y-96805000I0J-155000D01*
G01*
X97760000Y-97230000D01*
G75*
G02*
X97605000Y-97385000I-155000J0D01*
G01*
G37*
%TD*%
%TO.C,C6*%
G36*
G01*
X92805000Y-96250000D02*
X92495000Y-96250000D01*
G75*
G02*
X92340000Y-96095000I0J155000D01*
G01*
X92340000Y-95670000D01*
G75*
G02*
X92495000Y-95515000I155000J0D01*
G01*
X92805000Y-95515000D01*
G75*
G02*
X92960000Y-95670000I0J-155000D01*
G01*
X92960000Y-96095000D01*
G75*
G02*
X92805000Y-96250000I-155000J0D01*
G01*
G37*
G36*
G01*
X92805000Y-97385000D02*
X92495000Y-97385000D01*
G75*
G02*
X92340000Y-97230000I0J155000D01*
G01*
X92340000Y-96805000D01*
G75*
G02*
X92495000Y-96650000I155000J0D01*
G01*
X92805000Y-96650000D01*
G75*
G02*
X92960000Y-96805000I0J-155000D01*
G01*
X92960000Y-97230000D01*
G75*
G02*
X92805000Y-97385000I-155000J0D01*
G01*
G37*
%TD*%
D10*
%TO.C,M3*%
X16630000Y-95890000D03*
D11*
X16630000Y-93350000D03*
X16630000Y-90810000D03*
X16630000Y-88270000D03*
X16630000Y-85730000D03*
X16630000Y-83190000D03*
X16630000Y-80650000D03*
X16630000Y-78110000D03*
%TD*%
%TO.C,M2*%
X32330000Y-78110000D03*
X32330000Y-80650000D03*
X32330000Y-83190000D03*
X32330000Y-85730000D03*
X32330000Y-88270000D03*
X32330000Y-90810000D03*
X32330000Y-93350000D03*
D10*
X32330000Y-95890000D03*
%TD*%
D12*
%TO.C,SW11*%
X4325000Y-60000000D03*
X1675000Y-60000000D03*
%TD*%
%TO.C,SW10*%
X4325000Y-70000000D03*
X1675000Y-70000000D03*
%TD*%
D13*
%TO.C,J11*%
X49870000Y-2670000D03*
X49870000Y-5210000D03*
X52410000Y-2670000D03*
X52410000Y-5210000D03*
X54950000Y-2670000D03*
X54950000Y-5210000D03*
X57490000Y-2670000D03*
X57490000Y-5210000D03*
X60030000Y-2670000D03*
X60030000Y-5210000D03*
X62570000Y-2670000D03*
X62570000Y-5210000D03*
X65110000Y-2670000D03*
X65110000Y-5210000D03*
X67650000Y-2670000D03*
X67650000Y-5210000D03*
X70190000Y-2670000D03*
X70190000Y-5210000D03*
X72730000Y-2670000D03*
X72730000Y-5210000D03*
X75270000Y-2670000D03*
X75270000Y-5210000D03*
X77810000Y-2670000D03*
X77810000Y-5210000D03*
X80350000Y-2670000D03*
X80350000Y-5210000D03*
X82890000Y-2670000D03*
X82890000Y-5210000D03*
X85430000Y-2670000D03*
X85430000Y-5210000D03*
X87970000Y-2670000D03*
X87970000Y-5210000D03*
X90510000Y-2670000D03*
X90510000Y-5210000D03*
X93050000Y-2670000D03*
X93050000Y-5210000D03*
X95590000Y-2670000D03*
X95590000Y-5210000D03*
X98130000Y-2670000D03*
D10*
X98130000Y-5210000D03*
%TD*%
D14*
%TO.C,J8*%
X136000000Y-5500000D03*
G36*
G01*
X135325000Y-2150000D02*
X136675000Y-2150000D01*
G75*
G02*
X136925000Y-2400000I0J-250000D01*
G01*
X136925000Y-3600000D01*
G75*
G02*
X136675000Y-3850000I-250000J0D01*
G01*
X135325000Y-3850000D01*
G75*
G02*
X135075000Y-3600000I0J250000D01*
G01*
X135075000Y-2400000D01*
G75*
G02*
X135325000Y-2150000I250000J0D01*
G01*
G37*
%TD*%
D13*
%TO.C,J6*%
X120230000Y-89630000D03*
X122770000Y-89630000D03*
X120230000Y-87090000D03*
X122770000Y-87090000D03*
X120230000Y-84550000D03*
X122770000Y-84550000D03*
X120230000Y-82010000D03*
X122770000Y-82010000D03*
X120230000Y-79470000D03*
X122770000Y-79470000D03*
X120230000Y-76930000D03*
X122770000Y-76930000D03*
X120230000Y-74390000D03*
X122770000Y-74390000D03*
X120230000Y-71850000D03*
X122770000Y-71850000D03*
X120230000Y-69310000D03*
X122770000Y-69310000D03*
X120230000Y-66770000D03*
X122770000Y-66770000D03*
X120230000Y-64230000D03*
X122770000Y-64230000D03*
X120230000Y-61690000D03*
X122770000Y-61690000D03*
X120230000Y-59150000D03*
X122770000Y-59150000D03*
X120230000Y-56610000D03*
X122770000Y-56610000D03*
X120230000Y-54070000D03*
X122770000Y-54070000D03*
X120230000Y-51530000D03*
X122770000Y-51530000D03*
X120230000Y-48990000D03*
X122770000Y-48990000D03*
X120230000Y-46450000D03*
X122770000Y-46450000D03*
X120230000Y-43910000D03*
X122770000Y-43910000D03*
X120230000Y-41370000D03*
D10*
X122770000Y-41370000D03*
%TD*%
D15*
%TO.C,J4*%
X146000000Y-35000000D03*
%TD*%
D13*
%TO.C,J2*%
X56730000Y-99500000D03*
X54190000Y-99500000D03*
X51650000Y-99500000D03*
X49110000Y-99500000D03*
X46570000Y-99500000D03*
X44030000Y-99500000D03*
X41490000Y-99500000D03*
X38950000Y-99500000D03*
X36410000Y-99500000D03*
D10*
X33870000Y-99500000D03*
%TD*%
D13*
%TO.C,J1*%
X114130000Y-99500000D03*
X111590000Y-99500000D03*
X109050000Y-99500000D03*
X106510000Y-99500000D03*
X103970000Y-99500000D03*
X101430000Y-99500000D03*
X98890000Y-99500000D03*
X96350000Y-99500000D03*
X93810000Y-99500000D03*
D10*
X91270000Y-99500000D03*
%TD*%
%TO.C,C9*%
G36*
G01*
X105825000Y-91524999D02*
X105825000Y-92075001D01*
G75*
G02*
X105575001Y-92325000I-249999J0D01*
G01*
X104824999Y-92325000D01*
G75*
G02*
X104575000Y-92075001I0J249999D01*
G01*
X104575000Y-91524999D01*
G75*
G02*
X104824999Y-91275000I249999J0D01*
G01*
X105575001Y-91275000D01*
G75*
G02*
X105825000Y-91524999I0J-249999D01*
G01*
G37*
G36*
G01*
X107425000Y-91524999D02*
X107425000Y-92075001D01*
G75*
G02*
X107175001Y-92325000I-249999J0D01*
G01*
X106424999Y-92325000D01*
G75*
G02*
X106175000Y-92075001I0J249999D01*
G01*
X106175000Y-91524999D01*
G75*
G02*
X106424999Y-91275000I249999J0D01*
G01*
X107175001Y-91275000D01*
G75*
G02*
X107425000Y-91524999I0J-249999D01*
G01*
G37*
%TD*%
%TO.C,C8*%
G36*
G01*
X105825000Y-89674999D02*
X105825000Y-90225001D01*
G75*
G02*
X105575001Y-90475000I-249999J0D01*
G01*
X104824999Y-90475000D01*
G75*
G02*
X104575000Y-90225001I0J249999D01*
G01*
X104575000Y-89674999D01*
G75*
G02*
X104824999Y-89425000I249999J0D01*
G01*
X105575001Y-89425000D01*
G75*
G02*
X105825000Y-89674999I0J-249999D01*
G01*
G37*
G36*
G01*
X107425000Y-89674999D02*
X107425000Y-90225001D01*
G75*
G02*
X107175001Y-90475000I-249999J0D01*
G01*
X106424999Y-90475000D01*
G75*
G02*
X106175000Y-90225001I0J249999D01*
G01*
X106175000Y-89674999D01*
G75*
G02*
X106424999Y-89425000I249999J0D01*
G01*
X107175001Y-89425000D01*
G75*
G02*
X107425000Y-89674999I0J-249999D01*
G01*
G37*
%TD*%
M02*
