%TF.GenerationSoftware,KiCad,Pcbnew,(5.1.7)-1*%
%TF.CreationDate,2020-12-07T14:23:08+09:00*%
%TF.ProjectId,CurrentMeasure,43757272-656e-4744-9d65-61737572652e,rev?*%
%TF.SameCoordinates,Original*%
%TF.FileFunction,Soldermask,Top*%
%TF.FilePolarity,Negative*%
%FSLAX46Y46*%
G04 Gerber Fmt 4.6, Leading zero omitted, Abs format (unit mm)*
G04 Created by KiCad (PCBNEW (5.1.7)-1) date 2020-12-07 14:23:08*
%MOMM*%
%LPD*%
G01*
G04 APERTURE LIST*
%ADD10O,1.800000X1.950000*%
G04 APERTURE END LIST*
D10*
%TO.C,J3*%
X565000000Y-82500000D03*
X562500000Y-82500000D03*
X560000000Y-82500000D03*
G36*
G01*
X556600000Y-83210295D02*
X556600000Y-81789705D01*
G75*
G02*
X556864705Y-81525000I264705J0D01*
G01*
X558135295Y-81525000D01*
G75*
G02*
X558400000Y-81789705I0J-264705D01*
G01*
X558400000Y-83210295D01*
G75*
G02*
X558135295Y-83475000I-264705J0D01*
G01*
X556864705Y-83475000D01*
G75*
G02*
X556600000Y-83210295I0J264705D01*
G01*
G37*
%TD*%
%TO.C,J1*%
G36*
G01*
X550025000Y-40725000D02*
X550025000Y-42975000D01*
G75*
G02*
X549750000Y-43250000I-275000J0D01*
G01*
X549200000Y-43250000D01*
G75*
G02*
X548925000Y-42975000I0J275000D01*
G01*
X548925000Y-40725000D01*
G75*
G02*
X549200000Y-40450000I275000J0D01*
G01*
X549750000Y-40450000D01*
G75*
G02*
X550025000Y-40725000I0J-275000D01*
G01*
G37*
G36*
G01*
X554975000Y-40725000D02*
X554975000Y-42975000D01*
G75*
G02*
X554700000Y-43250000I-275000J0D01*
G01*
X554150000Y-43250000D01*
G75*
G02*
X553875000Y-42975000I0J275000D01*
G01*
X553875000Y-40725000D01*
G75*
G02*
X554150000Y-40450000I275000J0D01*
G01*
X554700000Y-40450000D01*
G75*
G02*
X554975000Y-40725000I0J-275000D01*
G01*
G37*
G36*
G01*
X551785000Y-44380000D02*
X551785000Y-45720000D01*
G75*
G02*
X551555000Y-45950000I-230000J0D01*
G01*
X551095000Y-45950000D01*
G75*
G02*
X550865000Y-45720000I0J230000D01*
G01*
X550865000Y-44380000D01*
G75*
G02*
X551095000Y-44150000I230000J0D01*
G01*
X551555000Y-44150000D01*
G75*
G02*
X551785000Y-44380000I0J-230000D01*
G01*
G37*
G36*
G01*
X553035000Y-44380000D02*
X553035000Y-45720000D01*
G75*
G02*
X552805000Y-45950000I-230000J0D01*
G01*
X552345000Y-45950000D01*
G75*
G02*
X552115000Y-45720000I0J230000D01*
G01*
X552115000Y-44380000D01*
G75*
G02*
X552345000Y-44150000I230000J0D01*
G01*
X552805000Y-44150000D01*
G75*
G02*
X553035000Y-44380000I0J-230000D01*
G01*
G37*
%TD*%
%TO.C,J6*%
G36*
G01*
X568575000Y-40725000D02*
X568575000Y-42975000D01*
G75*
G02*
X568300000Y-43250000I-275000J0D01*
G01*
X567750000Y-43250000D01*
G75*
G02*
X567475000Y-42975000I0J275000D01*
G01*
X567475000Y-40725000D01*
G75*
G02*
X567750000Y-40450000I275000J0D01*
G01*
X568300000Y-40450000D01*
G75*
G02*
X568575000Y-40725000I0J-275000D01*
G01*
G37*
G36*
G01*
X573525000Y-40725000D02*
X573525000Y-42975000D01*
G75*
G02*
X573250000Y-43250000I-275000J0D01*
G01*
X572700000Y-43250000D01*
G75*
G02*
X572425000Y-42975000I0J275000D01*
G01*
X572425000Y-40725000D01*
G75*
G02*
X572700000Y-40450000I275000J0D01*
G01*
X573250000Y-40450000D01*
G75*
G02*
X573525000Y-40725000I0J-275000D01*
G01*
G37*
G36*
G01*
X570335000Y-44380000D02*
X570335000Y-45720000D01*
G75*
G02*
X570105000Y-45950000I-230000J0D01*
G01*
X569645000Y-45950000D01*
G75*
G02*
X569415000Y-45720000I0J230000D01*
G01*
X569415000Y-44380000D01*
G75*
G02*
X569645000Y-44150000I230000J0D01*
G01*
X570105000Y-44150000D01*
G75*
G02*
X570335000Y-44380000I0J-230000D01*
G01*
G37*
G36*
G01*
X571585000Y-44380000D02*
X571585000Y-45720000D01*
G75*
G02*
X571355000Y-45950000I-230000J0D01*
G01*
X570895000Y-45950000D01*
G75*
G02*
X570665000Y-45720000I0J230000D01*
G01*
X570665000Y-44380000D01*
G75*
G02*
X570895000Y-44150000I230000J0D01*
G01*
X571355000Y-44150000D01*
G75*
G02*
X571585000Y-44380000I0J-230000D01*
G01*
G37*
%TD*%
%TO.C,J7*%
G36*
G01*
X548055000Y-89175000D02*
X548055000Y-86925000D01*
G75*
G02*
X548330000Y-86650000I275000J0D01*
G01*
X548880000Y-86650000D01*
G75*
G02*
X549155000Y-86925000I0J-275000D01*
G01*
X549155000Y-89175000D01*
G75*
G02*
X548880000Y-89450000I-275000J0D01*
G01*
X548330000Y-89450000D01*
G75*
G02*
X548055000Y-89175000I0J275000D01*
G01*
G37*
G36*
G01*
X540605000Y-89175000D02*
X540605000Y-86925000D01*
G75*
G02*
X540880000Y-86650000I275000J0D01*
G01*
X541430000Y-86650000D01*
G75*
G02*
X541705000Y-86925000I0J-275000D01*
G01*
X541705000Y-89175000D01*
G75*
G02*
X541430000Y-89450000I-275000J0D01*
G01*
X540880000Y-89450000D01*
G75*
G02*
X540605000Y-89175000I0J275000D01*
G01*
G37*
G36*
G01*
X546295000Y-85520000D02*
X546295000Y-84180000D01*
G75*
G02*
X546525000Y-83950000I230000J0D01*
G01*
X546985000Y-83950000D01*
G75*
G02*
X547215000Y-84180000I0J-230000D01*
G01*
X547215000Y-85520000D01*
G75*
G02*
X546985000Y-85750000I-230000J0D01*
G01*
X546525000Y-85750000D01*
G75*
G02*
X546295000Y-85520000I0J230000D01*
G01*
G37*
G36*
G01*
X545045000Y-85520000D02*
X545045000Y-84180000D01*
G75*
G02*
X545275000Y-83950000I230000J0D01*
G01*
X545735000Y-83950000D01*
G75*
G02*
X545965000Y-84180000I0J-230000D01*
G01*
X545965000Y-85520000D01*
G75*
G02*
X545735000Y-85750000I-230000J0D01*
G01*
X545275000Y-85750000D01*
G75*
G02*
X545045000Y-85520000I0J230000D01*
G01*
G37*
G36*
G01*
X543795000Y-85520000D02*
X543795000Y-84180000D01*
G75*
G02*
X544025000Y-83950000I230000J0D01*
G01*
X544485000Y-83950000D01*
G75*
G02*
X544715000Y-84180000I0J-230000D01*
G01*
X544715000Y-85520000D01*
G75*
G02*
X544485000Y-85750000I-230000J0D01*
G01*
X544025000Y-85750000D01*
G75*
G02*
X543795000Y-85520000I0J230000D01*
G01*
G37*
G36*
G01*
X542545000Y-85520000D02*
X542545000Y-84180000D01*
G75*
G02*
X542775000Y-83950000I230000J0D01*
G01*
X543235000Y-83950000D01*
G75*
G02*
X543465000Y-84180000I0J-230000D01*
G01*
X543465000Y-85520000D01*
G75*
G02*
X543235000Y-85750000I-230000J0D01*
G01*
X542775000Y-85750000D01*
G75*
G02*
X542545000Y-85520000I0J230000D01*
G01*
G37*
%TD*%
%TO.C,J4*%
G36*
G01*
X560550000Y-48975000D02*
X560550000Y-50625000D01*
G75*
G02*
X560025000Y-51150000I-525000J0D01*
G01*
X558975000Y-51150000D01*
G75*
G02*
X558450000Y-50625000I0J525000D01*
G01*
X558450000Y-48975000D01*
G75*
G02*
X558975000Y-48450000I525000J0D01*
G01*
X560025000Y-48450000D01*
G75*
G02*
X560550000Y-48975000I0J-525000D01*
G01*
G37*
G36*
G01*
X564050000Y-48975000D02*
X564050000Y-50625000D01*
G75*
G02*
X563525000Y-51150000I-525000J0D01*
G01*
X562475000Y-51150000D01*
G75*
G02*
X561950000Y-50625000I0J525000D01*
G01*
X561950000Y-48975000D01*
G75*
G02*
X562475000Y-48450000I525000J0D01*
G01*
X563525000Y-48450000D01*
G75*
G02*
X564050000Y-48975000I0J-525000D01*
G01*
G37*
G36*
G01*
X564250000Y-40700000D02*
X564250000Y-46700000D01*
G75*
G02*
X564200000Y-46750000I-50000J0D01*
G01*
X561800000Y-46750000D01*
G75*
G02*
X561750000Y-46700000I0J50000D01*
G01*
X561750000Y-40700000D01*
G75*
G02*
X561800000Y-40650000I50000J0D01*
G01*
X564200000Y-40650000D01*
G75*
G02*
X564250000Y-40700000I0J-50000D01*
G01*
G37*
G36*
G01*
X560750000Y-40700000D02*
X560750000Y-46700000D01*
G75*
G02*
X560700000Y-46750000I-50000J0D01*
G01*
X558300000Y-46750000D01*
G75*
G02*
X558250000Y-46700000I0J50000D01*
G01*
X558250000Y-40700000D01*
G75*
G02*
X558300000Y-40650000I50000J0D01*
G01*
X560700000Y-40650000D01*
G75*
G02*
X560750000Y-40700000I0J-50000D01*
G01*
G37*
%TD*%
%TO.C,C3*%
G36*
G01*
X561550000Y-52812500D02*
X561550000Y-52287500D01*
G75*
G02*
X561812500Y-52025000I262500J0D01*
G01*
X562437500Y-52025000D01*
G75*
G02*
X562700000Y-52287500I0J-262500D01*
G01*
X562700000Y-52812500D01*
G75*
G02*
X562437500Y-53075000I-262500J0D01*
G01*
X561812500Y-53075000D01*
G75*
G02*
X561550000Y-52812500I0J262500D01*
G01*
G37*
G36*
G01*
X559800000Y-52812500D02*
X559800000Y-52287500D01*
G75*
G02*
X560062500Y-52025000I262500J0D01*
G01*
X560687500Y-52025000D01*
G75*
G02*
X560950000Y-52287500I0J-262500D01*
G01*
X560950000Y-52812500D01*
G75*
G02*
X560687500Y-53075000I-262500J0D01*
G01*
X560062500Y-53075000D01*
G75*
G02*
X559800000Y-52812500I0J262500D01*
G01*
G37*
%TD*%
%TO.C,R5*%
G36*
G01*
X563425000Y-58783500D02*
X563425000Y-55416500D01*
G75*
G02*
X563691500Y-55150000I266500J0D01*
G01*
X564783500Y-55150000D01*
G75*
G02*
X565050000Y-55416500I0J-266500D01*
G01*
X565050000Y-58783500D01*
G75*
G02*
X564783500Y-59050000I-266500J0D01*
G01*
X563691500Y-59050000D01*
G75*
G02*
X563425000Y-58783500I0J266500D01*
G01*
G37*
G36*
G01*
X557450000Y-58783500D02*
X557450000Y-55416500D01*
G75*
G02*
X557716500Y-55150000I266500J0D01*
G01*
X558808500Y-55150000D01*
G75*
G02*
X559075000Y-55416500I0J-266500D01*
G01*
X559075000Y-58783500D01*
G75*
G02*
X558808500Y-59050000I-266500J0D01*
G01*
X557716500Y-59050000D01*
G75*
G02*
X557450000Y-58783500I0J266500D01*
G01*
G37*
%TD*%
%TO.C,R10*%
G36*
G01*
X565200000Y-60178800D02*
X565200000Y-54021200D01*
G75*
G02*
X565671200Y-53550000I471200J0D01*
G01*
X567828800Y-53550000D01*
G75*
G02*
X568300000Y-54021200I0J-471200D01*
G01*
X568300000Y-60178800D01*
G75*
G02*
X567828800Y-60650000I-471200J0D01*
G01*
X565671200Y-60650000D01*
G75*
G02*
X565200000Y-60178800I0J471200D01*
G01*
G37*
G36*
G01*
X554200000Y-60178800D02*
X554200000Y-54021200D01*
G75*
G02*
X554671200Y-53550000I471200J0D01*
G01*
X556828800Y-53550000D01*
G75*
G02*
X557300000Y-54021200I0J-471200D01*
G01*
X557300000Y-60178800D01*
G75*
G02*
X556828800Y-60650000I-471200J0D01*
G01*
X554671200Y-60650000D01*
G75*
G02*
X554200000Y-60178800I0J471200D01*
G01*
G37*
%TD*%
%TO.C,C2*%
G36*
G01*
X570275000Y-65712500D02*
X570275000Y-65187500D01*
G75*
G02*
X570537500Y-64925000I262500J0D01*
G01*
X571162500Y-64925000D01*
G75*
G02*
X571425000Y-65187500I0J-262500D01*
G01*
X571425000Y-65712500D01*
G75*
G02*
X571162500Y-65975000I-262500J0D01*
G01*
X570537500Y-65975000D01*
G75*
G02*
X570275000Y-65712500I0J262500D01*
G01*
G37*
G36*
G01*
X568525000Y-65712500D02*
X568525000Y-65187500D01*
G75*
G02*
X568787500Y-64925000I262500J0D01*
G01*
X569412500Y-64925000D01*
G75*
G02*
X569675000Y-65187500I0J-262500D01*
G01*
X569675000Y-65712500D01*
G75*
G02*
X569412500Y-65975000I-262500J0D01*
G01*
X568787500Y-65975000D01*
G75*
G02*
X568525000Y-65712500I0J262500D01*
G01*
G37*
%TD*%
%TO.C,R2*%
G36*
G01*
X569675000Y-71362500D02*
X569675000Y-71887500D01*
G75*
G02*
X569412500Y-72150000I-262500J0D01*
G01*
X568787500Y-72150000D01*
G75*
G02*
X568525000Y-71887500I0J262500D01*
G01*
X568525000Y-71362500D01*
G75*
G02*
X568787500Y-71100000I262500J0D01*
G01*
X569412500Y-71100000D01*
G75*
G02*
X569675000Y-71362500I0J-262500D01*
G01*
G37*
G36*
G01*
X571425000Y-71362500D02*
X571425000Y-71887500D01*
G75*
G02*
X571162500Y-72150000I-262500J0D01*
G01*
X570537500Y-72150000D01*
G75*
G02*
X570275000Y-71887500I0J262500D01*
G01*
X570275000Y-71362500D01*
G75*
G02*
X570537500Y-71100000I262500J0D01*
G01*
X571162500Y-71100000D01*
G75*
G02*
X571425000Y-71362500I0J-262500D01*
G01*
G37*
%TD*%
%TO.C,U1*%
G36*
G01*
X559520000Y-67050000D02*
X559170000Y-67050000D01*
G75*
G02*
X558995000Y-66875000I0J175000D01*
G01*
X558995000Y-65175000D01*
G75*
G02*
X559170000Y-65000000I175000J0D01*
G01*
X559520000Y-65000000D01*
G75*
G02*
X559695000Y-65175000I0J-175000D01*
G01*
X559695000Y-66875000D01*
G75*
G02*
X559520000Y-67050000I-175000J0D01*
G01*
G37*
G36*
G01*
X560790000Y-67050000D02*
X560440000Y-67050000D01*
G75*
G02*
X560265000Y-66875000I0J175000D01*
G01*
X560265000Y-65175000D01*
G75*
G02*
X560440000Y-65000000I175000J0D01*
G01*
X560790000Y-65000000D01*
G75*
G02*
X560965000Y-65175000I0J-175000D01*
G01*
X560965000Y-66875000D01*
G75*
G02*
X560790000Y-67050000I-175000J0D01*
G01*
G37*
G36*
G01*
X562060000Y-67050000D02*
X561710000Y-67050000D01*
G75*
G02*
X561535000Y-66875000I0J175000D01*
G01*
X561535000Y-65175000D01*
G75*
G02*
X561710000Y-65000000I175000J0D01*
G01*
X562060000Y-65000000D01*
G75*
G02*
X562235000Y-65175000I0J-175000D01*
G01*
X562235000Y-66875000D01*
G75*
G02*
X562060000Y-67050000I-175000J0D01*
G01*
G37*
G36*
G01*
X563330000Y-67050000D02*
X562980000Y-67050000D01*
G75*
G02*
X562805000Y-66875000I0J175000D01*
G01*
X562805000Y-65175000D01*
G75*
G02*
X562980000Y-65000000I175000J0D01*
G01*
X563330000Y-65000000D01*
G75*
G02*
X563505000Y-65175000I0J-175000D01*
G01*
X563505000Y-66875000D01*
G75*
G02*
X563330000Y-67050000I-175000J0D01*
G01*
G37*
G36*
G01*
X563330000Y-72000000D02*
X562980000Y-72000000D01*
G75*
G02*
X562805000Y-71825000I0J175000D01*
G01*
X562805000Y-70125000D01*
G75*
G02*
X562980000Y-69950000I175000J0D01*
G01*
X563330000Y-69950000D01*
G75*
G02*
X563505000Y-70125000I0J-175000D01*
G01*
X563505000Y-71825000D01*
G75*
G02*
X563330000Y-72000000I-175000J0D01*
G01*
G37*
G36*
G01*
X562060000Y-72000000D02*
X561710000Y-72000000D01*
G75*
G02*
X561535000Y-71825000I0J175000D01*
G01*
X561535000Y-70125000D01*
G75*
G02*
X561710000Y-69950000I175000J0D01*
G01*
X562060000Y-69950000D01*
G75*
G02*
X562235000Y-70125000I0J-175000D01*
G01*
X562235000Y-71825000D01*
G75*
G02*
X562060000Y-72000000I-175000J0D01*
G01*
G37*
G36*
G01*
X560790000Y-72000000D02*
X560440000Y-72000000D01*
G75*
G02*
X560265000Y-71825000I0J175000D01*
G01*
X560265000Y-70125000D01*
G75*
G02*
X560440000Y-69950000I175000J0D01*
G01*
X560790000Y-69950000D01*
G75*
G02*
X560965000Y-70125000I0J-175000D01*
G01*
X560965000Y-71825000D01*
G75*
G02*
X560790000Y-72000000I-175000J0D01*
G01*
G37*
G36*
G01*
X559520000Y-72000000D02*
X559170000Y-72000000D01*
G75*
G02*
X558995000Y-71825000I0J175000D01*
G01*
X558995000Y-70125000D01*
G75*
G02*
X559170000Y-69950000I175000J0D01*
G01*
X559520000Y-69950000D01*
G75*
G02*
X559695000Y-70125000I0J-175000D01*
G01*
X559695000Y-71825000D01*
G75*
G02*
X559520000Y-72000000I-175000J0D01*
G01*
G37*
%TD*%
%TO.C,R9*%
G36*
G01*
X549700000Y-71737500D02*
X549700000Y-72262500D01*
G75*
G02*
X549437500Y-72525000I-262500J0D01*
G01*
X548812500Y-72525000D01*
G75*
G02*
X548550000Y-72262500I0J262500D01*
G01*
X548550000Y-71737500D01*
G75*
G02*
X548812500Y-71475000I262500J0D01*
G01*
X549437500Y-71475000D01*
G75*
G02*
X549700000Y-71737500I0J-262500D01*
G01*
G37*
G36*
G01*
X551450000Y-71737500D02*
X551450000Y-72262500D01*
G75*
G02*
X551187500Y-72525000I-262500J0D01*
G01*
X550562500Y-72525000D01*
G75*
G02*
X550300000Y-72262500I0J262500D01*
G01*
X550300000Y-71737500D01*
G75*
G02*
X550562500Y-71475000I262500J0D01*
G01*
X551187500Y-71475000D01*
G75*
G02*
X551450000Y-71737500I0J-262500D01*
G01*
G37*
%TD*%
%TO.C,R8*%
G36*
G01*
X549700000Y-69737500D02*
X549700000Y-70262500D01*
G75*
G02*
X549437500Y-70525000I-262500J0D01*
G01*
X548812500Y-70525000D01*
G75*
G02*
X548550000Y-70262500I0J262500D01*
G01*
X548550000Y-69737500D01*
G75*
G02*
X548812500Y-69475000I262500J0D01*
G01*
X549437500Y-69475000D01*
G75*
G02*
X549700000Y-69737500I0J-262500D01*
G01*
G37*
G36*
G01*
X551450000Y-69737500D02*
X551450000Y-70262500D01*
G75*
G02*
X551187500Y-70525000I-262500J0D01*
G01*
X550562500Y-70525000D01*
G75*
G02*
X550300000Y-70262500I0J262500D01*
G01*
X550300000Y-69737500D01*
G75*
G02*
X550562500Y-69475000I262500J0D01*
G01*
X551187500Y-69475000D01*
G75*
G02*
X551450000Y-69737500I0J-262500D01*
G01*
G37*
%TD*%
%TO.C,R7*%
G36*
G01*
X549700000Y-66987500D02*
X549700000Y-67512500D01*
G75*
G02*
X549437500Y-67775000I-262500J0D01*
G01*
X548812500Y-67775000D01*
G75*
G02*
X548550000Y-67512500I0J262500D01*
G01*
X548550000Y-66987500D01*
G75*
G02*
X548812500Y-66725000I262500J0D01*
G01*
X549437500Y-66725000D01*
G75*
G02*
X549700000Y-66987500I0J-262500D01*
G01*
G37*
G36*
G01*
X551450000Y-66987500D02*
X551450000Y-67512500D01*
G75*
G02*
X551187500Y-67775000I-262500J0D01*
G01*
X550562500Y-67775000D01*
G75*
G02*
X550300000Y-67512500I0J262500D01*
G01*
X550300000Y-66987500D01*
G75*
G02*
X550562500Y-66725000I262500J0D01*
G01*
X551187500Y-66725000D01*
G75*
G02*
X551450000Y-66987500I0J-262500D01*
G01*
G37*
%TD*%
%TO.C,R6*%
G36*
G01*
X549700000Y-64987500D02*
X549700000Y-65512500D01*
G75*
G02*
X549437500Y-65775000I-262500J0D01*
G01*
X548812500Y-65775000D01*
G75*
G02*
X548550000Y-65512500I0J262500D01*
G01*
X548550000Y-64987500D01*
G75*
G02*
X548812500Y-64725000I262500J0D01*
G01*
X549437500Y-64725000D01*
G75*
G02*
X549700000Y-64987500I0J-262500D01*
G01*
G37*
G36*
G01*
X551450000Y-64987500D02*
X551450000Y-65512500D01*
G75*
G02*
X551187500Y-65775000I-262500J0D01*
G01*
X550562500Y-65775000D01*
G75*
G02*
X550300000Y-65512500I0J262500D01*
G01*
X550300000Y-64987500D01*
G75*
G02*
X550562500Y-64725000I262500J0D01*
G01*
X551187500Y-64725000D01*
G75*
G02*
X551450000Y-64987500I0J-262500D01*
G01*
G37*
%TD*%
%TO.C,R4*%
G36*
G01*
X562762500Y-77200000D02*
X562237500Y-77200000D01*
G75*
G02*
X561975000Y-76937500I0J262500D01*
G01*
X561975000Y-76312500D01*
G75*
G02*
X562237500Y-76050000I262500J0D01*
G01*
X562762500Y-76050000D01*
G75*
G02*
X563025000Y-76312500I0J-262500D01*
G01*
X563025000Y-76937500D01*
G75*
G02*
X562762500Y-77200000I-262500J0D01*
G01*
G37*
G36*
G01*
X562762500Y-78950000D02*
X562237500Y-78950000D01*
G75*
G02*
X561975000Y-78687500I0J262500D01*
G01*
X561975000Y-78062500D01*
G75*
G02*
X562237500Y-77800000I262500J0D01*
G01*
X562762500Y-77800000D01*
G75*
G02*
X563025000Y-78062500I0J-262500D01*
G01*
X563025000Y-78687500D01*
G75*
G02*
X562762500Y-78950000I-262500J0D01*
G01*
G37*
%TD*%
%TO.C,R3*%
G36*
G01*
X560262500Y-77200000D02*
X559737500Y-77200000D01*
G75*
G02*
X559475000Y-76937500I0J262500D01*
G01*
X559475000Y-76312500D01*
G75*
G02*
X559737500Y-76050000I262500J0D01*
G01*
X560262500Y-76050000D01*
G75*
G02*
X560525000Y-76312500I0J-262500D01*
G01*
X560525000Y-76937500D01*
G75*
G02*
X560262500Y-77200000I-262500J0D01*
G01*
G37*
G36*
G01*
X560262500Y-78950000D02*
X559737500Y-78950000D01*
G75*
G02*
X559475000Y-78687500I0J262500D01*
G01*
X559475000Y-78062500D01*
G75*
G02*
X559737500Y-77800000I262500J0D01*
G01*
X560262500Y-77800000D01*
G75*
G02*
X560525000Y-78062500I0J-262500D01*
G01*
X560525000Y-78687500D01*
G75*
G02*
X560262500Y-78950000I-262500J0D01*
G01*
G37*
%TD*%
%TO.C,R1*%
G36*
G01*
X569675000Y-69362500D02*
X569675000Y-69887500D01*
G75*
G02*
X569412500Y-70150000I-262500J0D01*
G01*
X568787500Y-70150000D01*
G75*
G02*
X568525000Y-69887500I0J262500D01*
G01*
X568525000Y-69362500D01*
G75*
G02*
X568787500Y-69100000I262500J0D01*
G01*
X569412500Y-69100000D01*
G75*
G02*
X569675000Y-69362500I0J-262500D01*
G01*
G37*
G36*
G01*
X571425000Y-69362500D02*
X571425000Y-69887500D01*
G75*
G02*
X571162500Y-70150000I-262500J0D01*
G01*
X570537500Y-70150000D01*
G75*
G02*
X570275000Y-69887500I0J262500D01*
G01*
X570275000Y-69362500D01*
G75*
G02*
X570537500Y-69100000I262500J0D01*
G01*
X571162500Y-69100000D01*
G75*
G02*
X571425000Y-69362500I0J-262500D01*
G01*
G37*
%TD*%
%TO.C,J5*%
X577500000Y-47100000D03*
G36*
G01*
X580900000Y-46389705D02*
X580900000Y-47810295D01*
G75*
G02*
X580635295Y-48075000I-264705J0D01*
G01*
X579364705Y-48075000D01*
G75*
G02*
X579100000Y-47810295I0J264705D01*
G01*
X579100000Y-46389705D01*
G75*
G02*
X579364705Y-46125000I264705J0D01*
G01*
X580635295Y-46125000D01*
G75*
G02*
X580900000Y-46389705I0J-264705D01*
G01*
G37*
%TD*%
%TO.C,J2*%
X542525000Y-47125000D03*
G36*
G01*
X545925000Y-46414705D02*
X545925000Y-47835295D01*
G75*
G02*
X545660295Y-48100000I-264705J0D01*
G01*
X544389705Y-48100000D01*
G75*
G02*
X544125000Y-47835295I0J264705D01*
G01*
X544125000Y-46414705D01*
G75*
G02*
X544389705Y-46150000I264705J0D01*
G01*
X545660295Y-46150000D01*
G75*
G02*
X545925000Y-46414705I0J-264705D01*
G01*
G37*
%TD*%
%TO.C,C1*%
G36*
G01*
X570275000Y-67637500D02*
X570275000Y-67112500D01*
G75*
G02*
X570537500Y-66850000I262500J0D01*
G01*
X571162500Y-66850000D01*
G75*
G02*
X571425000Y-67112500I0J-262500D01*
G01*
X571425000Y-67637500D01*
G75*
G02*
X571162500Y-67900000I-262500J0D01*
G01*
X570537500Y-67900000D01*
G75*
G02*
X570275000Y-67637500I0J262500D01*
G01*
G37*
G36*
G01*
X568525000Y-67637500D02*
X568525000Y-67112500D01*
G75*
G02*
X568787500Y-66850000I262500J0D01*
G01*
X569412500Y-66850000D01*
G75*
G02*
X569675000Y-67112500I0J-262500D01*
G01*
X569675000Y-67637500D01*
G75*
G02*
X569412500Y-67900000I-262500J0D01*
G01*
X568787500Y-67900000D01*
G75*
G02*
X568525000Y-67637500I0J262500D01*
G01*
G37*
%TD*%
M02*
