%TF.GenerationSoftware,KiCad,Pcbnew,(5.1.6)-1*%
%TF.CreationDate,2020-11-03T20:55:32+09:00*%
%TF.ProjectId,FlightComputer-Extra,466c6967-6874-4436-9f6d-70757465722d,rev?*%
%TF.SameCoordinates,Original*%
%TF.FileFunction,Copper,L1,Top*%
%TF.FilePolarity,Positive*%
%FSLAX46Y46*%
G04 Gerber Fmt 4.6, Leading zero omitted, Abs format (unit mm)*
G04 Created by KiCad (PCBNEW (5.1.6)-1) date 2020-11-03 20:55:32*
%MOMM*%
%LPD*%
G01*
G04 APERTURE LIST*
%TA.AperFunction,ComponentPad*%
%ADD10O,1.700000X1.850000*%
%TD*%
%TA.AperFunction,SMDPad,CuDef*%
%ADD11R,2.200000X1.000000*%
%TD*%
%TA.AperFunction,SMDPad,CuDef*%
%ADD12R,3.000000X1.000000*%
%TD*%
%TA.AperFunction,SMDPad,CuDef*%
%ADD13R,1.650000X1.800000*%
%TD*%
%TA.AperFunction,SMDPad,CuDef*%
%ADD14R,1.650000X1.600000*%
%TD*%
%TA.AperFunction,SMDPad,CuDef*%
%ADD15R,1.600000X2.500000*%
%TD*%
%TA.AperFunction,SMDPad,CuDef*%
%ADD16R,2.000000X0.900000*%
%TD*%
%TA.AperFunction,SMDPad,CuDef*%
%ADD17C,1.000000*%
%TD*%
%TA.AperFunction,ComponentPad*%
%ADD18O,1.700000X1.700000*%
%TD*%
%TA.AperFunction,ComponentPad*%
%ADD19R,1.700000X1.700000*%
%TD*%
%TA.AperFunction,ViaPad*%
%ADD20C,0.800000*%
%TD*%
%TA.AperFunction,Conductor*%
%ADD21C,0.250000*%
%TD*%
%TA.AperFunction,Conductor*%
%ADD22C,0.600000*%
%TD*%
%TA.AperFunction,Conductor*%
%ADD23C,0.400000*%
%TD*%
%TA.AperFunction,Conductor*%
%ADD24C,0.254000*%
%TD*%
G04 APERTURE END LIST*
D10*
%TO.P,J5,4*%
%TO.N,GND*%
X113000000Y-88800000D03*
%TO.P,J5,3*%
%TO.N,Net-(J5-Pad3)*%
X115500000Y-88800000D03*
%TO.P,J5,2*%
%TO.N,Net-(J5-Pad2)*%
X118000000Y-88800000D03*
%TO.P,J5,1*%
%TO.N,VCC_PERIH*%
%TA.AperFunction,ComponentPad*%
G36*
G01*
X121350000Y-88125000D02*
X121350000Y-89475000D01*
G75*
G02*
X121100000Y-89725000I-250000J0D01*
G01*
X119900000Y-89725000D01*
G75*
G02*
X119650000Y-89475000I0J250000D01*
G01*
X119650000Y-88125000D01*
G75*
G02*
X119900000Y-87875000I250000J0D01*
G01*
X121100000Y-87875000D01*
G75*
G02*
X121350000Y-88125000I0J-250000D01*
G01*
G37*
%TD.AperFunction*%
%TD*%
D11*
%TO.P,J4,3*%
%TO.N,GND*%
X79330000Y-87410000D03*
%TO.P,J4,2*%
X79330000Y-84410000D03*
D12*
%TO.P,J4,1*%
%TO.N,Net-(J4-Pad1)*%
X80330000Y-85910000D03*
%TD*%
D13*
%TO.P,J1,2*%
%TO.N,/HP_LEFT*%
X140300000Y-92300000D03*
%TO.P,J1,3*%
%TO.N,/HP_RIGHT*%
X140300000Y-88100000D03*
%TO.P,J1,4*%
%TO.N,/HP_DETECT*%
X140300000Y-85100000D03*
%TO.P,J1,10*%
%TO.N,Net-(J1-Pad10)*%
X149300000Y-92300000D03*
%TO.P,J1,11*%
%TO.N,Net-(J1-Pad11)*%
X149300000Y-88100000D03*
%TO.P,J1,12*%
%TO.N,Net-(J1-Pad12)*%
X149300000Y-85250000D03*
D14*
%TO.P,J1,1*%
%TO.N,GNDA*%
X149300000Y-82900000D03*
%TD*%
D15*
%TO.P,LS2,1*%
%TO.N,/SPK_RP*%
X199400000Y-92350000D03*
%TO.P,LS2,2*%
%TO.N,/SPK_RN*%
X185500000Y-92350000D03*
%TD*%
%TO.P,LS1,1*%
%TO.N,/SPK_LP*%
X180425000Y-92350000D03*
%TO.P,LS1,2*%
%TO.N,/SPK_LN*%
X166525000Y-92350000D03*
%TD*%
%TO.P,C3,2*%
%TO.N,VCC_PERIH*%
%TA.AperFunction,SMDPad,CuDef*%
G36*
G01*
X98670000Y-85720000D02*
X98670000Y-86060000D01*
G75*
G02*
X98530000Y-86200000I-140000J0D01*
G01*
X98250000Y-86200000D01*
G75*
G02*
X98110000Y-86060000I0J140000D01*
G01*
X98110000Y-85720000D01*
G75*
G02*
X98250000Y-85580000I140000J0D01*
G01*
X98530000Y-85580000D01*
G75*
G02*
X98670000Y-85720000I0J-140000D01*
G01*
G37*
%TD.AperFunction*%
%TO.P,C3,1*%
%TO.N,GND*%
%TA.AperFunction,SMDPad,CuDef*%
G36*
G01*
X99630000Y-85720000D02*
X99630000Y-86060000D01*
G75*
G02*
X99490000Y-86200000I-140000J0D01*
G01*
X99210000Y-86200000D01*
G75*
G02*
X99070000Y-86060000I0J140000D01*
G01*
X99070000Y-85720000D01*
G75*
G02*
X99210000Y-85580000I140000J0D01*
G01*
X99490000Y-85580000D01*
G75*
G02*
X99630000Y-85720000I0J-140000D01*
G01*
G37*
%TD.AperFunction*%
%TD*%
D16*
%TO.P,U1,9*%
%TO.N,Net-(TP3-Pad1)*%
X95700000Y-84800000D03*
%TO.P,U1,10*%
%TO.N,GND*%
X86500000Y-84800000D03*
%TO.P,U1,8*%
%TO.N,VCC_PERIH*%
X95700000Y-85900000D03*
%TO.P,U1,11*%
%TO.N,Net-(J4-Pad1)*%
X86500000Y-85900000D03*
%TO.P,U1,7*%
%TO.N,VCC_PERIH*%
X95700000Y-87000000D03*
%TO.P,U1,12*%
%TO.N,GND*%
X86500000Y-87000000D03*
%TO.P,U1,6*%
%TO.N,VCC_PERIH*%
X95700000Y-88100000D03*
%TO.P,U1,13*%
%TO.N,Net-(U1-Pad13)*%
X86500000Y-88100000D03*
%TO.P,U1,5*%
%TO.N,Net-(TP4-Pad1)*%
X95700000Y-89200000D03*
%TO.P,U1,14*%
%TO.N,Net-(C1-Pad2)*%
X86500000Y-89200000D03*
%TO.P,U1,4*%
%TO.N,Net-(TP5-Pad1)*%
X95700000Y-90300000D03*
%TO.P,U1,15*%
%TO.N,Net-(U1-Pad15)*%
X86500000Y-90300000D03*
%TO.P,U1,3*%
%TO.N,Net-(R3-Pad2)*%
X95700000Y-91400000D03*
%TO.P,U1,16*%
%TO.N,Net-(TP2-Pad1)*%
X86500000Y-91400000D03*
%TO.P,U1,2*%
%TO.N,Net-(R2-Pad2)*%
X95700000Y-92500000D03*
%TO.P,U1,17*%
%TO.N,Net-(TP1-Pad1)*%
X86500000Y-92500000D03*
%TO.P,U1,1*%
%TO.N,GND*%
X95700000Y-93600000D03*
%TO.P,U1,18*%
%TO.N,Net-(U1-Pad18)*%
X86500000Y-93600000D03*
%TD*%
D17*
%TO.P,TP5,1*%
%TO.N,Net-(TP5-Pad1)*%
X103500000Y-90300000D03*
%TD*%
%TO.P,TP4,1*%
%TO.N,Net-(TP4-Pad1)*%
X103500000Y-88200000D03*
%TD*%
%TO.P,TP3,1*%
%TO.N,Net-(TP3-Pad1)*%
X103500000Y-84800000D03*
%TD*%
%TO.P,TP2,1*%
%TO.N,Net-(TP2-Pad1)*%
X79200000Y-91400000D03*
%TD*%
%TO.P,TP1,1*%
%TO.N,Net-(TP1-Pad1)*%
X79200000Y-93600000D03*
%TD*%
%TO.P,R5,2*%
%TO.N,/DEBUG_TX*%
%TA.AperFunction,SMDPad,CuDef*%
G36*
G01*
X117415000Y-93740000D02*
X117785000Y-93740000D01*
G75*
G02*
X117920000Y-93875000I0J-135000D01*
G01*
X117920000Y-94145000D01*
G75*
G02*
X117785000Y-94280000I-135000J0D01*
G01*
X117415000Y-94280000D01*
G75*
G02*
X117280000Y-94145000I0J135000D01*
G01*
X117280000Y-93875000D01*
G75*
G02*
X117415000Y-93740000I135000J0D01*
G01*
G37*
%TD.AperFunction*%
%TO.P,R5,1*%
%TO.N,Net-(J5-Pad3)*%
%TA.AperFunction,SMDPad,CuDef*%
G36*
G01*
X117415000Y-92720000D02*
X117785000Y-92720000D01*
G75*
G02*
X117920000Y-92855000I0J-135000D01*
G01*
X117920000Y-93125000D01*
G75*
G02*
X117785000Y-93260000I-135000J0D01*
G01*
X117415000Y-93260000D01*
G75*
G02*
X117280000Y-93125000I0J135000D01*
G01*
X117280000Y-92855000D01*
G75*
G02*
X117415000Y-92720000I135000J0D01*
G01*
G37*
%TD.AperFunction*%
%TD*%
%TO.P,R4,2*%
%TO.N,/DEBUG_RX*%
%TA.AperFunction,SMDPad,CuDef*%
G36*
G01*
X114835000Y-93740000D02*
X115205000Y-93740000D01*
G75*
G02*
X115340000Y-93875000I0J-135000D01*
G01*
X115340000Y-94145000D01*
G75*
G02*
X115205000Y-94280000I-135000J0D01*
G01*
X114835000Y-94280000D01*
G75*
G02*
X114700000Y-94145000I0J135000D01*
G01*
X114700000Y-93875000D01*
G75*
G02*
X114835000Y-93740000I135000J0D01*
G01*
G37*
%TD.AperFunction*%
%TO.P,R4,1*%
%TO.N,Net-(J5-Pad2)*%
%TA.AperFunction,SMDPad,CuDef*%
G36*
G01*
X114835000Y-92720000D02*
X115205000Y-92720000D01*
G75*
G02*
X115340000Y-92855000I0J-135000D01*
G01*
X115340000Y-93125000D01*
G75*
G02*
X115205000Y-93260000I-135000J0D01*
G01*
X114835000Y-93260000D01*
G75*
G02*
X114700000Y-93125000I0J135000D01*
G01*
X114700000Y-92855000D01*
G75*
G02*
X114835000Y-92720000I135000J0D01*
G01*
G37*
%TD.AperFunction*%
%TD*%
%TO.P,R3,2*%
%TO.N,Net-(R3-Pad2)*%
%TA.AperFunction,SMDPad,CuDef*%
G36*
G01*
X107585000Y-93280000D02*
X107215000Y-93280000D01*
G75*
G02*
X107080000Y-93145000I0J135000D01*
G01*
X107080000Y-92875000D01*
G75*
G02*
X107215000Y-92740000I135000J0D01*
G01*
X107585000Y-92740000D01*
G75*
G02*
X107720000Y-92875000I0J-135000D01*
G01*
X107720000Y-93145000D01*
G75*
G02*
X107585000Y-93280000I-135000J0D01*
G01*
G37*
%TD.AperFunction*%
%TO.P,R3,1*%
%TO.N,/GPS_RX*%
%TA.AperFunction,SMDPad,CuDef*%
G36*
G01*
X107585000Y-94300000D02*
X107215000Y-94300000D01*
G75*
G02*
X107080000Y-94165000I0J135000D01*
G01*
X107080000Y-93895000D01*
G75*
G02*
X107215000Y-93760000I135000J0D01*
G01*
X107585000Y-93760000D01*
G75*
G02*
X107720000Y-93895000I0J-135000D01*
G01*
X107720000Y-94165000D01*
G75*
G02*
X107585000Y-94300000I-135000J0D01*
G01*
G37*
%TD.AperFunction*%
%TD*%
%TO.P,R2,2*%
%TO.N,Net-(R2-Pad2)*%
%TA.AperFunction,SMDPad,CuDef*%
G36*
G01*
X110155000Y-93260000D02*
X109785000Y-93260000D01*
G75*
G02*
X109650000Y-93125000I0J135000D01*
G01*
X109650000Y-92855000D01*
G75*
G02*
X109785000Y-92720000I135000J0D01*
G01*
X110155000Y-92720000D01*
G75*
G02*
X110290000Y-92855000I0J-135000D01*
G01*
X110290000Y-93125000D01*
G75*
G02*
X110155000Y-93260000I-135000J0D01*
G01*
G37*
%TD.AperFunction*%
%TO.P,R2,1*%
%TO.N,/GPS_TX*%
%TA.AperFunction,SMDPad,CuDef*%
G36*
G01*
X110155000Y-94280000D02*
X109785000Y-94280000D01*
G75*
G02*
X109650000Y-94145000I0J135000D01*
G01*
X109650000Y-93875000D01*
G75*
G02*
X109785000Y-93740000I135000J0D01*
G01*
X110155000Y-93740000D01*
G75*
G02*
X110290000Y-93875000I0J-135000D01*
G01*
X110290000Y-94145000D01*
G75*
G02*
X110155000Y-94280000I-135000J0D01*
G01*
G37*
%TD.AperFunction*%
%TD*%
%TO.P,R1,2*%
%TO.N,Net-(J1-Pad12)*%
%TA.AperFunction,SMDPad,CuDef*%
G36*
G01*
X151790000Y-85055000D02*
X151790000Y-85425000D01*
G75*
G02*
X151655000Y-85560000I-135000J0D01*
G01*
X151385000Y-85560000D01*
G75*
G02*
X151250000Y-85425000I0J135000D01*
G01*
X151250000Y-85055000D01*
G75*
G02*
X151385000Y-84920000I135000J0D01*
G01*
X151655000Y-84920000D01*
G75*
G02*
X151790000Y-85055000I0J-135000D01*
G01*
G37*
%TD.AperFunction*%
%TO.P,R1,1*%
%TO.N,VCC_3V3*%
%TA.AperFunction,SMDPad,CuDef*%
G36*
G01*
X152810000Y-85055000D02*
X152810000Y-85425000D01*
G75*
G02*
X152675000Y-85560000I-135000J0D01*
G01*
X152405000Y-85560000D01*
G75*
G02*
X152270000Y-85425000I0J135000D01*
G01*
X152270000Y-85055000D01*
G75*
G02*
X152405000Y-84920000I135000J0D01*
G01*
X152675000Y-84920000D01*
G75*
G02*
X152810000Y-85055000I0J-135000D01*
G01*
G37*
%TD.AperFunction*%
%TD*%
%TO.P,L1,2*%
%TO.N,Net-(J4-Pad1)*%
%TA.AperFunction,SMDPad,CuDef*%
G36*
G01*
X83792500Y-86190000D02*
X83447500Y-86190000D01*
G75*
G02*
X83300000Y-86042500I0J147500D01*
G01*
X83300000Y-85747500D01*
G75*
G02*
X83447500Y-85600000I147500J0D01*
G01*
X83792500Y-85600000D01*
G75*
G02*
X83940000Y-85747500I0J-147500D01*
G01*
X83940000Y-86042500D01*
G75*
G02*
X83792500Y-86190000I-147500J0D01*
G01*
G37*
%TD.AperFunction*%
%TO.P,L1,1*%
%TO.N,Net-(C1-Pad2)*%
%TA.AperFunction,SMDPad,CuDef*%
G36*
G01*
X83792500Y-87160000D02*
X83447500Y-87160000D01*
G75*
G02*
X83300000Y-87012500I0J147500D01*
G01*
X83300000Y-86717500D01*
G75*
G02*
X83447500Y-86570000I147500J0D01*
G01*
X83792500Y-86570000D01*
G75*
G02*
X83940000Y-86717500I0J-147500D01*
G01*
X83940000Y-87012500D01*
G75*
G02*
X83792500Y-87160000I-147500J0D01*
G01*
G37*
%TD.AperFunction*%
%TD*%
D18*
%TO.P,J3,10*%
%TO.N,GND*%
X122660000Y-96400000D03*
%TO.P,J3,9*%
%TO.N,Net-(J3-Pad9)*%
X120120000Y-96400000D03*
%TO.P,J3,8*%
%TO.N,/DEBUG_TX*%
X117580000Y-96400000D03*
%TO.P,J3,7*%
%TO.N,/DEBUG_RX*%
X115040000Y-96400000D03*
%TO.P,J3,6*%
%TO.N,Net-(J3-Pad6)*%
X112500000Y-96400000D03*
%TO.P,J3,5*%
%TO.N,/GPS_TX*%
X109960000Y-96400000D03*
%TO.P,J3,4*%
%TO.N,/GPS_RX*%
X107420000Y-96400000D03*
%TO.P,J3,3*%
%TO.N,Net-(J3-Pad3)*%
X104880000Y-96400000D03*
%TO.P,J3,2*%
%TO.N,VCC_PERIH*%
X102340000Y-96400000D03*
D19*
%TO.P,J3,1*%
X99800000Y-96400000D03*
%TD*%
D18*
%TO.P,J2,10*%
%TO.N,GNDA*%
X180060000Y-96500000D03*
%TO.P,J2,9*%
%TO.N,/SPK_RN*%
X177520000Y-96500000D03*
%TO.P,J2,8*%
%TO.N,/SPK_RP*%
X174980000Y-96500000D03*
%TO.P,J2,7*%
%TO.N,/SPK_LN*%
X172440000Y-96500000D03*
%TO.P,J2,6*%
%TO.N,/SPK_LP*%
X169900000Y-96500000D03*
%TO.P,J2,5*%
%TO.N,Net-(J2-Pad5)*%
X167360000Y-96500000D03*
%TO.P,J2,4*%
%TO.N,/HP_DETECT*%
X164820000Y-96500000D03*
%TO.P,J2,3*%
%TO.N,/HP_RIGHT*%
X162280000Y-96500000D03*
%TO.P,J2,2*%
%TO.N,/HP_LEFT*%
X159740000Y-96500000D03*
D19*
%TO.P,J2,1*%
%TO.N,VCC_3V3*%
X157200000Y-96500000D03*
%TD*%
%TO.P,C2,2*%
%TO.N,VCC_PERIH*%
%TA.AperFunction,SMDPad,CuDef*%
G36*
G01*
X98670000Y-86800000D02*
X98670000Y-87140000D01*
G75*
G02*
X98530000Y-87280000I-140000J0D01*
G01*
X98250000Y-87280000D01*
G75*
G02*
X98110000Y-87140000I0J140000D01*
G01*
X98110000Y-86800000D01*
G75*
G02*
X98250000Y-86660000I140000J0D01*
G01*
X98530000Y-86660000D01*
G75*
G02*
X98670000Y-86800000I0J-140000D01*
G01*
G37*
%TD.AperFunction*%
%TO.P,C2,1*%
%TO.N,GND*%
%TA.AperFunction,SMDPad,CuDef*%
G36*
G01*
X99630000Y-86800000D02*
X99630000Y-87140000D01*
G75*
G02*
X99490000Y-87280000I-140000J0D01*
G01*
X99210000Y-87280000D01*
G75*
G02*
X99070000Y-87140000I0J140000D01*
G01*
X99070000Y-86800000D01*
G75*
G02*
X99210000Y-86660000I140000J0D01*
G01*
X99490000Y-86660000D01*
G75*
G02*
X99630000Y-86800000I0J-140000D01*
G01*
G37*
%TD.AperFunction*%
%TD*%
%TO.P,C1,2*%
%TO.N,Net-(C1-Pad2)*%
%TA.AperFunction,SMDPad,CuDef*%
G36*
G01*
X83340000Y-88150000D02*
X83340000Y-87810000D01*
G75*
G02*
X83480000Y-87670000I140000J0D01*
G01*
X83760000Y-87670000D01*
G75*
G02*
X83900000Y-87810000I0J-140000D01*
G01*
X83900000Y-88150000D01*
G75*
G02*
X83760000Y-88290000I-140000J0D01*
G01*
X83480000Y-88290000D01*
G75*
G02*
X83340000Y-88150000I0J140000D01*
G01*
G37*
%TD.AperFunction*%
%TO.P,C1,1*%
%TO.N,GND*%
%TA.AperFunction,SMDPad,CuDef*%
G36*
G01*
X82380000Y-88150000D02*
X82380000Y-87810000D01*
G75*
G02*
X82520000Y-87670000I140000J0D01*
G01*
X82800000Y-87670000D01*
G75*
G02*
X82940000Y-87810000I0J-140000D01*
G01*
X82940000Y-88150000D01*
G75*
G02*
X82800000Y-88290000I-140000J0D01*
G01*
X82520000Y-88290000D01*
G75*
G02*
X82380000Y-88150000I0J140000D01*
G01*
G37*
%TD.AperFunction*%
%TD*%
D20*
%TO.N,VCC_PERIH*%
X93790000Y-85890000D03*
%TO.N,/HP_LEFT*%
X140200000Y-94540000D03*
%TO.N,/HP_RIGHT*%
X143570000Y-96320000D03*
%TO.N,/HP_DETECT*%
X154340000Y-90440000D03*
%TO.N,/SPK_RN*%
X182730000Y-90010000D03*
%TO.N,/SPK_RP*%
X194600000Y-88470000D03*
%TO.N,/SPK_LP*%
X173420000Y-92310000D03*
%TO.N,Net-(J5-Pad2)*%
X115010000Y-92110000D03*
%TO.N,Net-(R2-Pad2)*%
X99960000Y-92510000D03*
X104880000Y-91860000D03*
%TD*%
D21*
%TO.N,Net-(C1-Pad2)*%
X83620000Y-87980000D02*
X83620000Y-86865000D01*
X86500000Y-89200000D02*
X83980000Y-89200000D01*
X83620000Y-88840000D02*
X83620000Y-87980000D01*
X83980000Y-89200000D02*
X83620000Y-88840000D01*
%TO.N,VCC_PERIH*%
X98390000Y-86970000D02*
X95730000Y-86970000D01*
X95730000Y-86970000D02*
X95700000Y-87000000D01*
D22*
X95700000Y-88100000D02*
X95700000Y-87000000D01*
X95700000Y-87000000D02*
X95700000Y-85900000D01*
X95700000Y-85900000D02*
X93800000Y-85900000D01*
X93800000Y-85900000D02*
X93790000Y-85890000D01*
D21*
X98390000Y-85890000D02*
X95710000Y-85890000D01*
X95710000Y-85890000D02*
X95700000Y-85900000D01*
D22*
%TO.N,/HP_LEFT*%
X140300000Y-94440000D02*
X140300000Y-92300000D01*
X140200000Y-94540000D02*
X140300000Y-94440000D01*
%TO.N,/HP_RIGHT*%
X138150000Y-88100000D02*
X140300000Y-88100000D01*
X137560000Y-94930000D02*
X137560000Y-88690000D01*
X138950000Y-96320000D02*
X137560000Y-94930000D01*
X137560000Y-88690000D02*
X138150000Y-88100000D01*
X143570000Y-96320000D02*
X138950000Y-96320000D01*
%TO.N,/HP_DETECT*%
X137600000Y-97710000D02*
X135680000Y-95790000D01*
X135680000Y-95790000D02*
X135680000Y-86410000D01*
X135680000Y-86410000D02*
X136990000Y-85100000D01*
X136990000Y-85100000D02*
X140300000Y-85100000D01*
X154340000Y-90440000D02*
X153060000Y-90440000D01*
X153060000Y-90440000D02*
X152500000Y-91000000D01*
X152500000Y-97245000D02*
X152035000Y-97710000D01*
X152500000Y-91000000D02*
X152500000Y-97245000D01*
X152035000Y-97710000D02*
X137600000Y-97710000D01*
D23*
%TO.N,Net-(J1-Pad12)*%
X149310000Y-85240000D02*
X149300000Y-85250000D01*
X151520000Y-85240000D02*
X149310000Y-85240000D01*
D22*
%TO.N,/SPK_RN*%
X182730000Y-90010000D02*
X182740000Y-90020000D01*
X185500000Y-91000000D02*
X184520000Y-90020000D01*
X185500000Y-92350000D02*
X185500000Y-91000000D01*
X182740000Y-90020000D02*
X184520000Y-90020000D01*
%TO.N,/SPK_RP*%
X197825000Y-92350000D02*
X196840000Y-91365000D01*
X199400000Y-92350000D02*
X197825000Y-92350000D01*
X196840000Y-89550000D02*
X196840000Y-91365000D01*
X195760000Y-88470000D02*
X196840000Y-89550000D01*
X194600000Y-88470000D02*
X195760000Y-88470000D01*
%TO.N,/SPK_LN*%
X172440000Y-96500000D02*
X172440000Y-93630000D01*
X166470000Y-92330000D02*
X166450000Y-92350000D01*
X171160000Y-92350000D02*
X171417500Y-92607500D01*
X166525000Y-92350000D02*
X171160000Y-92350000D01*
X171417500Y-92607500D02*
X171140000Y-92330000D01*
X172440000Y-93630000D02*
X171417500Y-92607500D01*
%TO.N,/SPK_LP*%
X173460000Y-92350000D02*
X173420000Y-92310000D01*
X180425000Y-92350000D02*
X173460000Y-92350000D01*
D23*
%TO.N,VCC_3V3*%
X156280000Y-85240000D02*
X157200000Y-86160000D01*
X152540000Y-85240000D02*
X156280000Y-85240000D01*
X157200000Y-86160000D02*
X157200000Y-96500000D01*
D21*
%TO.N,/DEBUG_TX*%
X117580000Y-96400000D02*
X117580000Y-94030000D01*
X117580000Y-94030000D02*
X117600000Y-94010000D01*
%TO.N,/DEBUG_RX*%
X115040000Y-96400000D02*
X115040000Y-94030000D01*
X115040000Y-94030000D02*
X115020000Y-94010000D01*
%TO.N,/GPS_TX*%
X109960000Y-96400000D02*
X109960000Y-94020000D01*
X109960000Y-94020000D02*
X109970000Y-94010000D01*
%TO.N,/GPS_RX*%
X107420000Y-96400000D02*
X107420000Y-94050000D01*
X107420000Y-94050000D02*
X107400000Y-94030000D01*
%TO.N,Net-(J4-Pad1)*%
X83620000Y-85895000D02*
X86495000Y-85895000D01*
X86495000Y-85895000D02*
X86500000Y-85900000D01*
X80330000Y-85910000D02*
X83605000Y-85910000D01*
X83605000Y-85910000D02*
X83620000Y-85895000D01*
%TO.N,Net-(J5-Pad3)*%
X117600000Y-92990000D02*
X117600000Y-92040000D01*
X115500000Y-90890000D02*
X115500000Y-88800000D01*
X116050000Y-91440000D02*
X115500000Y-90890000D01*
X117000000Y-91440000D02*
X116050000Y-91440000D01*
X117600000Y-92040000D02*
X117000000Y-91440000D01*
%TO.N,Net-(J5-Pad2)*%
X115020000Y-92990000D02*
X115020000Y-92120000D01*
X115020000Y-92120000D02*
X115010000Y-92110000D01*
%TO.N,Net-(R2-Pad2)*%
X109970000Y-92990000D02*
X109970000Y-92210000D01*
X99950000Y-92500000D02*
X95700000Y-92500000D01*
X99960000Y-92510000D02*
X99950000Y-92500000D01*
X104910000Y-91890000D02*
X104880000Y-91860000D01*
X109650000Y-91890000D02*
X104910000Y-91890000D01*
X109970000Y-92210000D02*
X109650000Y-91890000D01*
%TO.N,Net-(R3-Pad2)*%
X107400000Y-93010000D02*
X102470000Y-93010000D01*
X100860000Y-91400000D02*
X95700000Y-91400000D01*
X102470000Y-93010000D02*
X100860000Y-91400000D01*
%TO.N,Net-(TP1-Pad1)*%
X86500000Y-92500000D02*
X83500000Y-92500000D01*
X79200000Y-93600000D02*
X82400000Y-93600000D01*
X82400000Y-93600000D02*
X83500000Y-92500000D01*
%TO.N,Net-(TP2-Pad1)*%
X86500000Y-91400000D02*
X79200000Y-91400000D01*
%TO.N,Net-(TP3-Pad1)*%
X95700000Y-84800000D02*
X103500000Y-84800000D01*
%TO.N,Net-(TP4-Pad1)*%
X95700000Y-89200000D02*
X100330000Y-89200000D01*
X101330000Y-88200000D02*
X103500000Y-88200000D01*
X100330000Y-89200000D02*
X101330000Y-88200000D01*
%TO.N,Net-(TP5-Pad1)*%
X95700000Y-90300000D02*
X103500000Y-90300000D01*
%TD*%
D24*
%TO.N,GND*%
G36*
X141023001Y-83670451D02*
G01*
X139475000Y-83670451D01*
X139371690Y-83680626D01*
X139272350Y-83710761D01*
X139180798Y-83759696D01*
X139100552Y-83825552D01*
X139034696Y-83905798D01*
X138985761Y-83997350D01*
X138955626Y-84096690D01*
X138945451Y-84200000D01*
X138945451Y-84273000D01*
X137030614Y-84273000D01*
X136990000Y-84269000D01*
X136949386Y-84273000D01*
X136949376Y-84273000D01*
X136827880Y-84284966D01*
X136671990Y-84332255D01*
X136638792Y-84350000D01*
X136528320Y-84409048D01*
X136433948Y-84486498D01*
X136402394Y-84512394D01*
X136376499Y-84543947D01*
X135123948Y-85796499D01*
X135092395Y-85822394D01*
X135066500Y-85853947D01*
X135066498Y-85853949D01*
X134989048Y-85948321D01*
X134939804Y-86040451D01*
X134912256Y-86091990D01*
X134864967Y-86247880D01*
X134858372Y-86314847D01*
X134849000Y-86410000D01*
X134853001Y-86450624D01*
X134853000Y-95749386D01*
X134849000Y-95790000D01*
X134853000Y-95830614D01*
X134853000Y-95830623D01*
X134864966Y-95952119D01*
X134912255Y-96108009D01*
X134912256Y-96108010D01*
X134989048Y-96251679D01*
X135040725Y-96314647D01*
X135092394Y-96377606D01*
X135123952Y-96403505D01*
X136986499Y-98266053D01*
X137012394Y-98297606D01*
X137043337Y-98323000D01*
X76577001Y-98323000D01*
X76577001Y-87910000D01*
X77700450Y-87910000D01*
X77710625Y-88013310D01*
X77740760Y-88112650D01*
X77789695Y-88204202D01*
X77855552Y-88284448D01*
X77935798Y-88350305D01*
X78027350Y-88399240D01*
X78126690Y-88429375D01*
X78230000Y-88439550D01*
X79125250Y-88437000D01*
X79257000Y-88305250D01*
X79257000Y-87483000D01*
X79403000Y-87483000D01*
X79403000Y-88305250D01*
X79534750Y-88437000D01*
X80430000Y-88439550D01*
X80533310Y-88429375D01*
X80632650Y-88399240D01*
X80724202Y-88350305D01*
X80797682Y-88290000D01*
X81850450Y-88290000D01*
X81860625Y-88393310D01*
X81890760Y-88492650D01*
X81939695Y-88584202D01*
X82005552Y-88664448D01*
X82085798Y-88730305D01*
X82177350Y-88779240D01*
X82276690Y-88809375D01*
X82380000Y-88819550D01*
X82455250Y-88817000D01*
X82587000Y-88685250D01*
X82587000Y-88053000D01*
X81984750Y-88053000D01*
X81853000Y-88184750D01*
X81850450Y-88290000D01*
X80797682Y-88290000D01*
X80804448Y-88284448D01*
X80870305Y-88204202D01*
X80919240Y-88112650D01*
X80949375Y-88013310D01*
X80959550Y-87910000D01*
X80957478Y-87670000D01*
X81850450Y-87670000D01*
X81853000Y-87775250D01*
X81984750Y-87907000D01*
X82587000Y-87907000D01*
X82587000Y-87274750D01*
X82455250Y-87143000D01*
X82380000Y-87140450D01*
X82276690Y-87150625D01*
X82177350Y-87180760D01*
X82085798Y-87229695D01*
X82005552Y-87295552D01*
X81939695Y-87375798D01*
X81890760Y-87467350D01*
X81860625Y-87566690D01*
X81850450Y-87670000D01*
X80957478Y-87670000D01*
X80957000Y-87614750D01*
X80825250Y-87483000D01*
X79403000Y-87483000D01*
X79257000Y-87483000D01*
X77834750Y-87483000D01*
X77703000Y-87614750D01*
X77700450Y-87910000D01*
X76577001Y-87910000D01*
X76577000Y-84910000D01*
X77700450Y-84910000D01*
X77710625Y-85013310D01*
X77740760Y-85112650D01*
X77789695Y-85204202D01*
X77855552Y-85284448D01*
X77935798Y-85350305D01*
X78027350Y-85399240D01*
X78126690Y-85429375D01*
X78230000Y-85439550D01*
X78300451Y-85439349D01*
X78300451Y-86380651D01*
X78230000Y-86380450D01*
X78126690Y-86390625D01*
X78027350Y-86420760D01*
X77935798Y-86469695D01*
X77855552Y-86535552D01*
X77789695Y-86615798D01*
X77740760Y-86707350D01*
X77710625Y-86806690D01*
X77700450Y-86910000D01*
X77703000Y-87205250D01*
X77834750Y-87337000D01*
X79257000Y-87337000D01*
X79257000Y-87317000D01*
X79403000Y-87317000D01*
X79403000Y-87337000D01*
X80825250Y-87337000D01*
X80957000Y-87205250D01*
X80959295Y-86939549D01*
X81830000Y-86939549D01*
X81933310Y-86929374D01*
X82032650Y-86899239D01*
X82124202Y-86850304D01*
X82204448Y-86784448D01*
X82270304Y-86704202D01*
X82319239Y-86612650D01*
X82334604Y-86562000D01*
X82790563Y-86562000D01*
X82783460Y-86585414D01*
X82770451Y-86717500D01*
X82770451Y-87012500D01*
X82783460Y-87144586D01*
X82802011Y-87205739D01*
X82733000Y-87274750D01*
X82733000Y-87907000D01*
X82753000Y-87907000D01*
X82753000Y-88053000D01*
X82733000Y-88053000D01*
X82733000Y-88685250D01*
X82864750Y-88817000D01*
X82940000Y-88819550D01*
X82967123Y-88816879D01*
X82964846Y-88840000D01*
X82977435Y-88967814D01*
X83002086Y-89049076D01*
X83014717Y-89090716D01*
X83075259Y-89203983D01*
X83156736Y-89303264D01*
X83181619Y-89323685D01*
X83496315Y-89638381D01*
X83516736Y-89663264D01*
X83616016Y-89744741D01*
X83729283Y-89805283D01*
X83739150Y-89808276D01*
X83852185Y-89842565D01*
X83980000Y-89855154D01*
X84012022Y-89852000D01*
X84970451Y-89852000D01*
X84970451Y-90748000D01*
X79999510Y-90748000D01*
X79997723Y-90745326D01*
X79854674Y-90602277D01*
X79686467Y-90489885D01*
X79499565Y-90412467D01*
X79301151Y-90373000D01*
X79098849Y-90373000D01*
X78900435Y-90412467D01*
X78713533Y-90489885D01*
X78545326Y-90602277D01*
X78402277Y-90745326D01*
X78289885Y-90913533D01*
X78212467Y-91100435D01*
X78173000Y-91298849D01*
X78173000Y-91501151D01*
X78212467Y-91699565D01*
X78289885Y-91886467D01*
X78402277Y-92054674D01*
X78545326Y-92197723D01*
X78713533Y-92310115D01*
X78900435Y-92387533D01*
X79098849Y-92427000D01*
X79301151Y-92427000D01*
X79499565Y-92387533D01*
X79686467Y-92310115D01*
X79854674Y-92197723D01*
X79997723Y-92054674D01*
X79999510Y-92052000D01*
X83024209Y-92052000D01*
X83016320Y-92061613D01*
X82129934Y-92948000D01*
X79999510Y-92948000D01*
X79997723Y-92945326D01*
X79854674Y-92802277D01*
X79686467Y-92689885D01*
X79499565Y-92612467D01*
X79301151Y-92573000D01*
X79098849Y-92573000D01*
X78900435Y-92612467D01*
X78713533Y-92689885D01*
X78545326Y-92802277D01*
X78402277Y-92945326D01*
X78289885Y-93113533D01*
X78212467Y-93300435D01*
X78173000Y-93498849D01*
X78173000Y-93701151D01*
X78212467Y-93899565D01*
X78289885Y-94086467D01*
X78402277Y-94254674D01*
X78545326Y-94397723D01*
X78713533Y-94510115D01*
X78900435Y-94587533D01*
X79098849Y-94627000D01*
X79301151Y-94627000D01*
X79499565Y-94587533D01*
X79686467Y-94510115D01*
X79854674Y-94397723D01*
X79997723Y-94254674D01*
X79999510Y-94252000D01*
X82367978Y-94252000D01*
X82400000Y-94255154D01*
X82432022Y-94252000D01*
X82527814Y-94242565D01*
X82650717Y-94205283D01*
X82763984Y-94144741D01*
X82863264Y-94063264D01*
X82883685Y-94038381D01*
X83770067Y-93152000D01*
X84970451Y-93152000D01*
X84970451Y-94050000D01*
X84980626Y-94153310D01*
X85010761Y-94252650D01*
X85059696Y-94344202D01*
X85125552Y-94424448D01*
X85205798Y-94490304D01*
X85297350Y-94539239D01*
X85396690Y-94569374D01*
X85500000Y-94579549D01*
X87500000Y-94579549D01*
X87603310Y-94569374D01*
X87702650Y-94539239D01*
X87794202Y-94490304D01*
X87874448Y-94424448D01*
X87940304Y-94344202D01*
X87989239Y-94252650D01*
X88019374Y-94153310D01*
X88029549Y-94050000D01*
X94170450Y-94050000D01*
X94180625Y-94153310D01*
X94210760Y-94252650D01*
X94259695Y-94344202D01*
X94325552Y-94424448D01*
X94405798Y-94490305D01*
X94497350Y-94539240D01*
X94596690Y-94569375D01*
X94700000Y-94579550D01*
X95495250Y-94577000D01*
X95627000Y-94445250D01*
X95627000Y-93673000D01*
X95773000Y-93673000D01*
X95773000Y-94445250D01*
X95904750Y-94577000D01*
X96700000Y-94579550D01*
X96803310Y-94569375D01*
X96902650Y-94539240D01*
X96994202Y-94490305D01*
X97074448Y-94424448D01*
X97140305Y-94344202D01*
X97189240Y-94252650D01*
X97219375Y-94153310D01*
X97229550Y-94050000D01*
X97227000Y-93804750D01*
X97095250Y-93673000D01*
X95773000Y-93673000D01*
X95627000Y-93673000D01*
X94304750Y-93673000D01*
X94173000Y-93804750D01*
X94170450Y-94050000D01*
X88029549Y-94050000D01*
X88029549Y-93150000D01*
X88019700Y-93050000D01*
X88029549Y-92950000D01*
X88029549Y-92050000D01*
X88019700Y-91950000D01*
X88029549Y-91850000D01*
X88029549Y-90950000D01*
X88019700Y-90850000D01*
X88029549Y-90750000D01*
X88029549Y-89850000D01*
X88019700Y-89750000D01*
X88029549Y-89650000D01*
X88029549Y-88750000D01*
X88019700Y-88650000D01*
X88029549Y-88550000D01*
X88029549Y-87650000D01*
X88019701Y-87550005D01*
X88029550Y-87450000D01*
X88027000Y-87204750D01*
X87895250Y-87073000D01*
X86573000Y-87073000D01*
X86573000Y-87093000D01*
X86427000Y-87093000D01*
X86427000Y-87073000D01*
X85104750Y-87073000D01*
X84973000Y-87204750D01*
X84970450Y-87450000D01*
X84980299Y-87550005D01*
X84970451Y-87650000D01*
X84970451Y-88548000D01*
X84295357Y-88548000D01*
X84316710Y-88521981D01*
X84378583Y-88406225D01*
X84416684Y-88280623D01*
X84429549Y-88150000D01*
X84429549Y-87810000D01*
X84416684Y-87679377D01*
X84378583Y-87553775D01*
X84316710Y-87438019D01*
X84315819Y-87436933D01*
X84355446Y-87388648D01*
X84418012Y-87271595D01*
X84456540Y-87144586D01*
X84469549Y-87012500D01*
X84469549Y-86717500D01*
X84456540Y-86585414D01*
X84444887Y-86547000D01*
X84970745Y-86547000D01*
X84970450Y-86550000D01*
X84973000Y-86795250D01*
X85104750Y-86927000D01*
X86427000Y-86927000D01*
X86427000Y-86907000D01*
X86573000Y-86907000D01*
X86573000Y-86927000D01*
X87895250Y-86927000D01*
X88027000Y-86795250D01*
X88029550Y-86550000D01*
X88019701Y-86449995D01*
X88029549Y-86350000D01*
X88029549Y-85798699D01*
X92863000Y-85798699D01*
X92863000Y-85981301D01*
X92898624Y-86160396D01*
X92968504Y-86329099D01*
X93069952Y-86480928D01*
X93199072Y-86610048D01*
X93350901Y-86711496D01*
X93519604Y-86781376D01*
X93698699Y-86817000D01*
X93881301Y-86817000D01*
X94060396Y-86781376D01*
X94170451Y-86735789D01*
X94170451Y-87450000D01*
X94180300Y-87550000D01*
X94170451Y-87650000D01*
X94170451Y-88550000D01*
X94180300Y-88650000D01*
X94170451Y-88750000D01*
X94170451Y-89650000D01*
X94180300Y-89750000D01*
X94170451Y-89850000D01*
X94170451Y-90750000D01*
X94180300Y-90850000D01*
X94170451Y-90950000D01*
X94170451Y-91850000D01*
X94180300Y-91950000D01*
X94170451Y-92050000D01*
X94170451Y-92950000D01*
X94180299Y-93049995D01*
X94170450Y-93150000D01*
X94173000Y-93395250D01*
X94304750Y-93527000D01*
X95627000Y-93527000D01*
X95627000Y-93507000D01*
X95773000Y-93507000D01*
X95773000Y-93527000D01*
X97095250Y-93527000D01*
X97227000Y-93395250D01*
X97229529Y-93152000D01*
X99291024Y-93152000D01*
X99369072Y-93230048D01*
X99520901Y-93331496D01*
X99689604Y-93401376D01*
X99868699Y-93437000D01*
X100051301Y-93437000D01*
X100230396Y-93401376D01*
X100399099Y-93331496D01*
X100550928Y-93230048D01*
X100680048Y-93100928D01*
X100781496Y-92949099D01*
X100851376Y-92780396D01*
X100887000Y-92601301D01*
X100887000Y-92418699D01*
X100869710Y-92331776D01*
X101986320Y-93448387D01*
X102006736Y-93473264D01*
X102106016Y-93554741D01*
X102219283Y-93615283D01*
X102342185Y-93652565D01*
X102470000Y-93665154D01*
X102502022Y-93662000D01*
X106594572Y-93662000D01*
X106563220Y-93765353D01*
X106550451Y-93895000D01*
X106550451Y-94165000D01*
X106563220Y-94294647D01*
X106601037Y-94419312D01*
X106662448Y-94534204D01*
X106745093Y-94634907D01*
X106768001Y-94653707D01*
X106768001Y-95179613D01*
X106767746Y-95179718D01*
X106542213Y-95330414D01*
X106350414Y-95522213D01*
X106199718Y-95747746D01*
X106150000Y-95867776D01*
X106100282Y-95747746D01*
X105949586Y-95522213D01*
X105757787Y-95330414D01*
X105532254Y-95179718D01*
X105281656Y-95075917D01*
X105015623Y-95023000D01*
X104744377Y-95023000D01*
X104478344Y-95075917D01*
X104227746Y-95179718D01*
X104002213Y-95330414D01*
X103810414Y-95522213D01*
X103659718Y-95747746D01*
X103610000Y-95867776D01*
X103560282Y-95747746D01*
X103409586Y-95522213D01*
X103217787Y-95330414D01*
X102992254Y-95179718D01*
X102741656Y-95075917D01*
X102475623Y-95023000D01*
X102204377Y-95023000D01*
X101938344Y-95075917D01*
X101687746Y-95179718D01*
X101462213Y-95330414D01*
X101270414Y-95522213D01*
X101179549Y-95658202D01*
X101179549Y-95550000D01*
X101169374Y-95446690D01*
X101139239Y-95347350D01*
X101090304Y-95255798D01*
X101024448Y-95175552D01*
X100944202Y-95109696D01*
X100852650Y-95060761D01*
X100753310Y-95030626D01*
X100650000Y-95020451D01*
X98950000Y-95020451D01*
X98846690Y-95030626D01*
X98747350Y-95060761D01*
X98655798Y-95109696D01*
X98575552Y-95175552D01*
X98509696Y-95255798D01*
X98460761Y-95347350D01*
X98430626Y-95446690D01*
X98420451Y-95550000D01*
X98420451Y-97250000D01*
X98430626Y-97353310D01*
X98460761Y-97452650D01*
X98509696Y-97544202D01*
X98575552Y-97624448D01*
X98655798Y-97690304D01*
X98747350Y-97739239D01*
X98846690Y-97769374D01*
X98950000Y-97779549D01*
X100650000Y-97779549D01*
X100753310Y-97769374D01*
X100852650Y-97739239D01*
X100944202Y-97690304D01*
X101024448Y-97624448D01*
X101090304Y-97544202D01*
X101139239Y-97452650D01*
X101169374Y-97353310D01*
X101179549Y-97250000D01*
X101179549Y-97141798D01*
X101270414Y-97277787D01*
X101462213Y-97469586D01*
X101687746Y-97620282D01*
X101938344Y-97724083D01*
X102204377Y-97777000D01*
X102475623Y-97777000D01*
X102741656Y-97724083D01*
X102992254Y-97620282D01*
X103217787Y-97469586D01*
X103409586Y-97277787D01*
X103560282Y-97052254D01*
X103610000Y-96932224D01*
X103659718Y-97052254D01*
X103810414Y-97277787D01*
X104002213Y-97469586D01*
X104227746Y-97620282D01*
X104478344Y-97724083D01*
X104744377Y-97777000D01*
X105015623Y-97777000D01*
X105281656Y-97724083D01*
X105532254Y-97620282D01*
X105757787Y-97469586D01*
X105949586Y-97277787D01*
X106100282Y-97052254D01*
X106150000Y-96932224D01*
X106199718Y-97052254D01*
X106350414Y-97277787D01*
X106542213Y-97469586D01*
X106767746Y-97620282D01*
X107018344Y-97724083D01*
X107284377Y-97777000D01*
X107555623Y-97777000D01*
X107821656Y-97724083D01*
X108072254Y-97620282D01*
X108297787Y-97469586D01*
X108489586Y-97277787D01*
X108640282Y-97052254D01*
X108690000Y-96932224D01*
X108739718Y-97052254D01*
X108890414Y-97277787D01*
X109082213Y-97469586D01*
X109307746Y-97620282D01*
X109558344Y-97724083D01*
X109824377Y-97777000D01*
X110095623Y-97777000D01*
X110361656Y-97724083D01*
X110612254Y-97620282D01*
X110837787Y-97469586D01*
X111029586Y-97277787D01*
X111180282Y-97052254D01*
X111230000Y-96932224D01*
X111279718Y-97052254D01*
X111430414Y-97277787D01*
X111622213Y-97469586D01*
X111847746Y-97620282D01*
X112098344Y-97724083D01*
X112364377Y-97777000D01*
X112635623Y-97777000D01*
X112901656Y-97724083D01*
X113152254Y-97620282D01*
X113377787Y-97469586D01*
X113569586Y-97277787D01*
X113720282Y-97052254D01*
X113770000Y-96932224D01*
X113819718Y-97052254D01*
X113970414Y-97277787D01*
X114162213Y-97469586D01*
X114387746Y-97620282D01*
X114638344Y-97724083D01*
X114904377Y-97777000D01*
X115175623Y-97777000D01*
X115441656Y-97724083D01*
X115692254Y-97620282D01*
X115917787Y-97469586D01*
X116109586Y-97277787D01*
X116260282Y-97052254D01*
X116310000Y-96932224D01*
X116359718Y-97052254D01*
X116510414Y-97277787D01*
X116702213Y-97469586D01*
X116927746Y-97620282D01*
X117178344Y-97724083D01*
X117444377Y-97777000D01*
X117715623Y-97777000D01*
X117981656Y-97724083D01*
X118232254Y-97620282D01*
X118457787Y-97469586D01*
X118649586Y-97277787D01*
X118800282Y-97052254D01*
X118850000Y-96932224D01*
X118899718Y-97052254D01*
X119050414Y-97277787D01*
X119242213Y-97469586D01*
X119467746Y-97620282D01*
X119718344Y-97724083D01*
X119984377Y-97777000D01*
X120255623Y-97777000D01*
X120521656Y-97724083D01*
X120772254Y-97620282D01*
X120997787Y-97469586D01*
X121189586Y-97277787D01*
X121340282Y-97052254D01*
X121390739Y-96930441D01*
X121395191Y-96944422D01*
X121525705Y-97180713D01*
X121699810Y-97387002D01*
X121910814Y-97555361D01*
X122150609Y-97679320D01*
X122372791Y-97746715D01*
X122587000Y-97643108D01*
X122587000Y-96473000D01*
X122733000Y-96473000D01*
X122733000Y-97643108D01*
X122947209Y-97746715D01*
X123169391Y-97679320D01*
X123409186Y-97555361D01*
X123620190Y-97387002D01*
X123794295Y-97180713D01*
X123924809Y-96944422D01*
X124006718Y-96687209D01*
X123903317Y-96473000D01*
X122733000Y-96473000D01*
X122587000Y-96473000D01*
X122567000Y-96473000D01*
X122567000Y-96327000D01*
X122587000Y-96327000D01*
X122587000Y-95156892D01*
X122733000Y-95156892D01*
X122733000Y-96327000D01*
X123903317Y-96327000D01*
X124006718Y-96112791D01*
X123924809Y-95855578D01*
X123794295Y-95619287D01*
X123620190Y-95412998D01*
X123409186Y-95244639D01*
X123169391Y-95120680D01*
X122947209Y-95053285D01*
X122733000Y-95156892D01*
X122587000Y-95156892D01*
X122372791Y-95053285D01*
X122150609Y-95120680D01*
X121910814Y-95244639D01*
X121699810Y-95412998D01*
X121525705Y-95619287D01*
X121395191Y-95855578D01*
X121390739Y-95869559D01*
X121340282Y-95747746D01*
X121189586Y-95522213D01*
X120997787Y-95330414D01*
X120772254Y-95179718D01*
X120521656Y-95075917D01*
X120255623Y-95023000D01*
X119984377Y-95023000D01*
X119718344Y-95075917D01*
X119467746Y-95179718D01*
X119242213Y-95330414D01*
X119050414Y-95522213D01*
X118899718Y-95747746D01*
X118850000Y-95867776D01*
X118800282Y-95747746D01*
X118649586Y-95522213D01*
X118457787Y-95330414D01*
X118232254Y-95179718D01*
X118232000Y-95179613D01*
X118232000Y-94633706D01*
X118254907Y-94614907D01*
X118337552Y-94514204D01*
X118398963Y-94399312D01*
X118436780Y-94274647D01*
X118449549Y-94145000D01*
X118449549Y-93875000D01*
X118436780Y-93745353D01*
X118398963Y-93620688D01*
X118337552Y-93505796D01*
X118332795Y-93500000D01*
X118337552Y-93494204D01*
X118398963Y-93379312D01*
X118436780Y-93254647D01*
X118449549Y-93125000D01*
X118449549Y-92855000D01*
X118436780Y-92725353D01*
X118398963Y-92600688D01*
X118337552Y-92485796D01*
X118254907Y-92385093D01*
X118252000Y-92382707D01*
X118252000Y-92072021D01*
X118255154Y-92039999D01*
X118242565Y-91912185D01*
X118205283Y-91789283D01*
X118194281Y-91768699D01*
X118144741Y-91676016D01*
X118063264Y-91576736D01*
X118038386Y-91556320D01*
X117483684Y-91001618D01*
X117463264Y-90976736D01*
X117363984Y-90895259D01*
X117250717Y-90834717D01*
X117127814Y-90797435D01*
X117032022Y-90788000D01*
X117000000Y-90784846D01*
X116967978Y-90788000D01*
X116320067Y-90788000D01*
X116152000Y-90619934D01*
X116152000Y-90087861D01*
X116268720Y-90025473D01*
X116478396Y-89853397D01*
X116650473Y-89643721D01*
X116750000Y-89457519D01*
X116849527Y-89643720D01*
X117021603Y-89853396D01*
X117231279Y-90025473D01*
X117470495Y-90153337D01*
X117730061Y-90232075D01*
X118000000Y-90258662D01*
X118269938Y-90232075D01*
X118529504Y-90153337D01*
X118768720Y-90025473D01*
X118978396Y-89853397D01*
X119143175Y-89652614D01*
X119179791Y-89773320D01*
X119251829Y-89908094D01*
X119348776Y-90026224D01*
X119466906Y-90123171D01*
X119601680Y-90195209D01*
X119747918Y-90239570D01*
X119900000Y-90254549D01*
X121100000Y-90254549D01*
X121252082Y-90239570D01*
X121398320Y-90195209D01*
X121533094Y-90123171D01*
X121651224Y-90026224D01*
X121748171Y-89908094D01*
X121820209Y-89773320D01*
X121864570Y-89627082D01*
X121879549Y-89475000D01*
X121879549Y-88125000D01*
X121864570Y-87972918D01*
X121820209Y-87826680D01*
X121748171Y-87691906D01*
X121651224Y-87573776D01*
X121533094Y-87476829D01*
X121398320Y-87404791D01*
X121252082Y-87360430D01*
X121100000Y-87345451D01*
X119900000Y-87345451D01*
X119747918Y-87360430D01*
X119601680Y-87404791D01*
X119466906Y-87476829D01*
X119348776Y-87573776D01*
X119251829Y-87691906D01*
X119179791Y-87826680D01*
X119143175Y-87947387D01*
X118978397Y-87746603D01*
X118768721Y-87574527D01*
X118529505Y-87446663D01*
X118269939Y-87367925D01*
X118000000Y-87341338D01*
X117730062Y-87367925D01*
X117470496Y-87446663D01*
X117231280Y-87574527D01*
X117021604Y-87746603D01*
X116849527Y-87956279D01*
X116750000Y-88142481D01*
X116650473Y-87956280D01*
X116478397Y-87746603D01*
X116268721Y-87574527D01*
X116029505Y-87446663D01*
X115769939Y-87367925D01*
X115500000Y-87341338D01*
X115230062Y-87367925D01*
X114970496Y-87446663D01*
X114731280Y-87574527D01*
X114521604Y-87746603D01*
X114349527Y-87956279D01*
X114245037Y-88151766D01*
X114175175Y-88007197D01*
X114012558Y-87791724D01*
X113811029Y-87612116D01*
X113578332Y-87475276D01*
X113323410Y-87386462D01*
X113287209Y-87378285D01*
X113073000Y-87481892D01*
X113073000Y-88727000D01*
X113093000Y-88727000D01*
X113093000Y-88873000D01*
X113073000Y-88873000D01*
X113073000Y-90118108D01*
X113287209Y-90221715D01*
X113323410Y-90213538D01*
X113578332Y-90124724D01*
X113811029Y-89987884D01*
X114012558Y-89808276D01*
X114175175Y-89592803D01*
X114245037Y-89448234D01*
X114349527Y-89643720D01*
X114521603Y-89853396D01*
X114731279Y-90025473D01*
X114848000Y-90087862D01*
X114848000Y-90857978D01*
X114844846Y-90890000D01*
X114857435Y-91017814D01*
X114875091Y-91076017D01*
X114894717Y-91140716D01*
X114917451Y-91183248D01*
X114739604Y-91218624D01*
X114570901Y-91288504D01*
X114419072Y-91389952D01*
X114289952Y-91519072D01*
X114188504Y-91670901D01*
X114118624Y-91839604D01*
X114083000Y-92018699D01*
X114083000Y-92201301D01*
X114118624Y-92380396D01*
X114188504Y-92549099D01*
X114221898Y-92599077D01*
X114221037Y-92600688D01*
X114183220Y-92725353D01*
X114170451Y-92855000D01*
X114170451Y-93125000D01*
X114183220Y-93254647D01*
X114221037Y-93379312D01*
X114282448Y-93494204D01*
X114287205Y-93500000D01*
X114282448Y-93505796D01*
X114221037Y-93620688D01*
X114183220Y-93745353D01*
X114170451Y-93875000D01*
X114170451Y-94145000D01*
X114183220Y-94274647D01*
X114221037Y-94399312D01*
X114282448Y-94514204D01*
X114365093Y-94614907D01*
X114388001Y-94633707D01*
X114388001Y-95179613D01*
X114387746Y-95179718D01*
X114162213Y-95330414D01*
X113970414Y-95522213D01*
X113819718Y-95747746D01*
X113770000Y-95867776D01*
X113720282Y-95747746D01*
X113569586Y-95522213D01*
X113377787Y-95330414D01*
X113152254Y-95179718D01*
X112901656Y-95075917D01*
X112635623Y-95023000D01*
X112364377Y-95023000D01*
X112098344Y-95075917D01*
X111847746Y-95179718D01*
X111622213Y-95330414D01*
X111430414Y-95522213D01*
X111279718Y-95747746D01*
X111230000Y-95867776D01*
X111180282Y-95747746D01*
X111029586Y-95522213D01*
X110837787Y-95330414D01*
X110612254Y-95179718D01*
X110612000Y-95179613D01*
X110612000Y-94625500D01*
X110624907Y-94614907D01*
X110707552Y-94514204D01*
X110768963Y-94399312D01*
X110806780Y-94274647D01*
X110819549Y-94145000D01*
X110819549Y-93875000D01*
X110806780Y-93745353D01*
X110768963Y-93620688D01*
X110707552Y-93505796D01*
X110702795Y-93500000D01*
X110707552Y-93494204D01*
X110768963Y-93379312D01*
X110806780Y-93254647D01*
X110819549Y-93125000D01*
X110819549Y-92855000D01*
X110806780Y-92725353D01*
X110768963Y-92600688D01*
X110707552Y-92485796D01*
X110624907Y-92385093D01*
X110622000Y-92382707D01*
X110622000Y-92242014D01*
X110625153Y-92209999D01*
X110622000Y-92177985D01*
X110622000Y-92177978D01*
X110613532Y-92092000D01*
X110612565Y-92082185D01*
X110575283Y-91959283D01*
X110572090Y-91953310D01*
X110514741Y-91846016D01*
X110433264Y-91746736D01*
X110408381Y-91726315D01*
X110133685Y-91451619D01*
X110113264Y-91426736D01*
X110013984Y-91345259D01*
X109900717Y-91284717D01*
X109777814Y-91247435D01*
X109682022Y-91238000D01*
X109650000Y-91234846D01*
X109617978Y-91238000D01*
X105568976Y-91238000D01*
X105470928Y-91139952D01*
X105319099Y-91038504D01*
X105150396Y-90968624D01*
X104971301Y-90933000D01*
X104788699Y-90933000D01*
X104609604Y-90968624D01*
X104440901Y-91038504D01*
X104289072Y-91139952D01*
X104159952Y-91269072D01*
X104058504Y-91420901D01*
X103988624Y-91589604D01*
X103953000Y-91768699D01*
X103953000Y-91951301D01*
X103988624Y-92130396D01*
X104058504Y-92299099D01*
X104097860Y-92358000D01*
X102740067Y-92358000D01*
X101343685Y-90961619D01*
X101335791Y-90952000D01*
X102700490Y-90952000D01*
X102702277Y-90954674D01*
X102845326Y-91097723D01*
X103013533Y-91210115D01*
X103200435Y-91287533D01*
X103398849Y-91327000D01*
X103601151Y-91327000D01*
X103799565Y-91287533D01*
X103986467Y-91210115D01*
X104154674Y-91097723D01*
X104297723Y-90954674D01*
X104410115Y-90786467D01*
X104487533Y-90599565D01*
X104527000Y-90401151D01*
X104527000Y-90198849D01*
X104487533Y-90000435D01*
X104410115Y-89813533D01*
X104297723Y-89645326D01*
X104154674Y-89502277D01*
X103986467Y-89389885D01*
X103799565Y-89312467D01*
X103601151Y-89273000D01*
X103398849Y-89273000D01*
X103200435Y-89312467D01*
X103013533Y-89389885D01*
X102845326Y-89502277D01*
X102702277Y-89645326D01*
X102700490Y-89648000D01*
X100805791Y-89648000D01*
X100813685Y-89638382D01*
X101600067Y-88852000D01*
X102700490Y-88852000D01*
X102702277Y-88854674D01*
X102845326Y-88997723D01*
X103013533Y-89110115D01*
X103200435Y-89187533D01*
X103398849Y-89227000D01*
X103601151Y-89227000D01*
X103799565Y-89187533D01*
X103986467Y-89110115D01*
X104018901Y-89088443D01*
X111639588Y-89088443D01*
X111707369Y-89349745D01*
X111824825Y-89592803D01*
X111987442Y-89808276D01*
X112188971Y-89987884D01*
X112421668Y-90124724D01*
X112676590Y-90213538D01*
X112712791Y-90221715D01*
X112927000Y-90118108D01*
X112927000Y-88873000D01*
X111754697Y-88873000D01*
X111639588Y-89088443D01*
X104018901Y-89088443D01*
X104154674Y-88997723D01*
X104297723Y-88854674D01*
X104410115Y-88686467D01*
X104482565Y-88511557D01*
X111639588Y-88511557D01*
X111754697Y-88727000D01*
X112927000Y-88727000D01*
X112927000Y-87481892D01*
X112712791Y-87378285D01*
X112676590Y-87386462D01*
X112421668Y-87475276D01*
X112188971Y-87612116D01*
X111987442Y-87791724D01*
X111824825Y-88007197D01*
X111707369Y-88250255D01*
X111639588Y-88511557D01*
X104482565Y-88511557D01*
X104487533Y-88499565D01*
X104527000Y-88301151D01*
X104527000Y-88098849D01*
X104487533Y-87900435D01*
X104410115Y-87713533D01*
X104297723Y-87545326D01*
X104154674Y-87402277D01*
X103986467Y-87289885D01*
X103799565Y-87212467D01*
X103601151Y-87173000D01*
X103398849Y-87173000D01*
X103200435Y-87212467D01*
X103013533Y-87289885D01*
X102845326Y-87402277D01*
X102702277Y-87545326D01*
X102700490Y-87548000D01*
X101362022Y-87548000D01*
X101330000Y-87544846D01*
X101202185Y-87557435D01*
X101171676Y-87566690D01*
X101079283Y-87594717D01*
X100966016Y-87655259D01*
X100866736Y-87736736D01*
X100846320Y-87761613D01*
X100059934Y-88548000D01*
X97229549Y-88548000D01*
X97229549Y-87650000D01*
X97226791Y-87622000D01*
X97786984Y-87622000D01*
X97878019Y-87696710D01*
X97993775Y-87758583D01*
X98119377Y-87796684D01*
X98250000Y-87809549D01*
X98530000Y-87809549D01*
X98660623Y-87796684D01*
X98786225Y-87758583D01*
X98816818Y-87742231D01*
X98867350Y-87769240D01*
X98966690Y-87799375D01*
X99070000Y-87809550D01*
X99145250Y-87807000D01*
X99277000Y-87675250D01*
X99277000Y-87043000D01*
X99423000Y-87043000D01*
X99423000Y-87675250D01*
X99554750Y-87807000D01*
X99630000Y-87809550D01*
X99733310Y-87799375D01*
X99832650Y-87769240D01*
X99924202Y-87720305D01*
X100004448Y-87654448D01*
X100070305Y-87574202D01*
X100119240Y-87482650D01*
X100149375Y-87383310D01*
X100159550Y-87280000D01*
X100157000Y-87174750D01*
X100025250Y-87043000D01*
X99423000Y-87043000D01*
X99277000Y-87043000D01*
X99257000Y-87043000D01*
X99257000Y-86897000D01*
X99277000Y-86897000D01*
X99277000Y-85963000D01*
X99423000Y-85963000D01*
X99423000Y-86897000D01*
X100025250Y-86897000D01*
X100157000Y-86765250D01*
X100159550Y-86660000D01*
X100149375Y-86556690D01*
X100119240Y-86457350D01*
X100104621Y-86430000D01*
X100119240Y-86402650D01*
X100149375Y-86303310D01*
X100159550Y-86200000D01*
X100157000Y-86094750D01*
X100025250Y-85963000D01*
X99423000Y-85963000D01*
X99277000Y-85963000D01*
X99257000Y-85963000D01*
X99257000Y-85817000D01*
X99277000Y-85817000D01*
X99277000Y-85797000D01*
X99423000Y-85797000D01*
X99423000Y-85817000D01*
X100025250Y-85817000D01*
X100157000Y-85685250D01*
X100159550Y-85580000D01*
X100149375Y-85476690D01*
X100141885Y-85452000D01*
X102700490Y-85452000D01*
X102702277Y-85454674D01*
X102845326Y-85597723D01*
X103013533Y-85710115D01*
X103200435Y-85787533D01*
X103398849Y-85827000D01*
X103601151Y-85827000D01*
X103799565Y-85787533D01*
X103986467Y-85710115D01*
X104154674Y-85597723D01*
X104297723Y-85454674D01*
X104410115Y-85286467D01*
X104487533Y-85099565D01*
X104527000Y-84901151D01*
X104527000Y-84698849D01*
X104487533Y-84500435D01*
X104410115Y-84313533D01*
X104297723Y-84145326D01*
X104154674Y-84002277D01*
X103986467Y-83889885D01*
X103799565Y-83812467D01*
X103601151Y-83773000D01*
X103398849Y-83773000D01*
X103200435Y-83812467D01*
X103013533Y-83889885D01*
X102845326Y-84002277D01*
X102702277Y-84145326D01*
X102700490Y-84148000D01*
X97189436Y-84148000D01*
X97189239Y-84147350D01*
X97140304Y-84055798D01*
X97074448Y-83975552D01*
X96994202Y-83909696D01*
X96902650Y-83860761D01*
X96803310Y-83830626D01*
X96700000Y-83820451D01*
X94700000Y-83820451D01*
X94596690Y-83830626D01*
X94497350Y-83860761D01*
X94405798Y-83909696D01*
X94325552Y-83975552D01*
X94259696Y-84055798D01*
X94210761Y-84147350D01*
X94180626Y-84246690D01*
X94170451Y-84350000D01*
X94170451Y-85044211D01*
X94060396Y-84998624D01*
X93881301Y-84963000D01*
X93698699Y-84963000D01*
X93519604Y-84998624D01*
X93350901Y-85068504D01*
X93199072Y-85169952D01*
X93069952Y-85299072D01*
X92968504Y-85450901D01*
X92898624Y-85619604D01*
X92863000Y-85798699D01*
X88029549Y-85798699D01*
X88029549Y-85450000D01*
X88019701Y-85350005D01*
X88029550Y-85250000D01*
X88027000Y-85004750D01*
X87895250Y-84873000D01*
X86573000Y-84873000D01*
X86573000Y-84893000D01*
X86427000Y-84893000D01*
X86427000Y-84873000D01*
X85104750Y-84873000D01*
X84973000Y-85004750D01*
X84970523Y-85243000D01*
X84239865Y-85243000D01*
X84168648Y-85184554D01*
X84051595Y-85121988D01*
X83924586Y-85083460D01*
X83792500Y-85070451D01*
X83447500Y-85070451D01*
X83315414Y-85083460D01*
X83188405Y-85121988D01*
X83071352Y-85184554D01*
X82981858Y-85258000D01*
X82334604Y-85258000D01*
X82319239Y-85207350D01*
X82270304Y-85115798D01*
X82204448Y-85035552D01*
X82124202Y-84969696D01*
X82032650Y-84920761D01*
X81933310Y-84890626D01*
X81830000Y-84880451D01*
X80959295Y-84880451D01*
X80957000Y-84614750D01*
X80825250Y-84483000D01*
X79403000Y-84483000D01*
X79403000Y-84503000D01*
X79257000Y-84503000D01*
X79257000Y-84483000D01*
X77834750Y-84483000D01*
X77703000Y-84614750D01*
X77700450Y-84910000D01*
X76577000Y-84910000D01*
X76577000Y-84350000D01*
X84970450Y-84350000D01*
X84973000Y-84595250D01*
X85104750Y-84727000D01*
X86427000Y-84727000D01*
X86427000Y-83954750D01*
X86573000Y-83954750D01*
X86573000Y-84727000D01*
X87895250Y-84727000D01*
X88027000Y-84595250D01*
X88029550Y-84350000D01*
X88019375Y-84246690D01*
X87989240Y-84147350D01*
X87940305Y-84055798D01*
X87874448Y-83975552D01*
X87794202Y-83909695D01*
X87702650Y-83860760D01*
X87603310Y-83830625D01*
X87500000Y-83820450D01*
X86704750Y-83823000D01*
X86573000Y-83954750D01*
X86427000Y-83954750D01*
X86295250Y-83823000D01*
X85500000Y-83820450D01*
X85396690Y-83830625D01*
X85297350Y-83860760D01*
X85205798Y-83909695D01*
X85125552Y-83975552D01*
X85059695Y-84055798D01*
X85010760Y-84147350D01*
X84980625Y-84246690D01*
X84970450Y-84350000D01*
X76577000Y-84350000D01*
X76577000Y-83910000D01*
X77700450Y-83910000D01*
X77703000Y-84205250D01*
X77834750Y-84337000D01*
X79257000Y-84337000D01*
X79257000Y-83514750D01*
X79403000Y-83514750D01*
X79403000Y-84337000D01*
X80825250Y-84337000D01*
X80957000Y-84205250D01*
X80959550Y-83910000D01*
X80949375Y-83806690D01*
X80919240Y-83707350D01*
X80870305Y-83615798D01*
X80804448Y-83535552D01*
X80724202Y-83469695D01*
X80632650Y-83420760D01*
X80533310Y-83390625D01*
X80430000Y-83380450D01*
X79534750Y-83383000D01*
X79403000Y-83514750D01*
X79257000Y-83514750D01*
X79125250Y-83383000D01*
X78230000Y-83380450D01*
X78126690Y-83390625D01*
X78027350Y-83420760D01*
X77935798Y-83469695D01*
X77855552Y-83535552D01*
X77789695Y-83615798D01*
X77740760Y-83707350D01*
X77710625Y-83806690D01*
X77700450Y-83910000D01*
X76577000Y-83910000D01*
X76576999Y-82677001D01*
X141023001Y-82677001D01*
X141023001Y-83670451D01*
G37*
X141023001Y-83670451D02*
X139475000Y-83670451D01*
X139371690Y-83680626D01*
X139272350Y-83710761D01*
X139180798Y-83759696D01*
X139100552Y-83825552D01*
X139034696Y-83905798D01*
X138985761Y-83997350D01*
X138955626Y-84096690D01*
X138945451Y-84200000D01*
X138945451Y-84273000D01*
X137030614Y-84273000D01*
X136990000Y-84269000D01*
X136949386Y-84273000D01*
X136949376Y-84273000D01*
X136827880Y-84284966D01*
X136671990Y-84332255D01*
X136638792Y-84350000D01*
X136528320Y-84409048D01*
X136433948Y-84486498D01*
X136402394Y-84512394D01*
X136376499Y-84543947D01*
X135123948Y-85796499D01*
X135092395Y-85822394D01*
X135066500Y-85853947D01*
X135066498Y-85853949D01*
X134989048Y-85948321D01*
X134939804Y-86040451D01*
X134912256Y-86091990D01*
X134864967Y-86247880D01*
X134858372Y-86314847D01*
X134849000Y-86410000D01*
X134853001Y-86450624D01*
X134853000Y-95749386D01*
X134849000Y-95790000D01*
X134853000Y-95830614D01*
X134853000Y-95830623D01*
X134864966Y-95952119D01*
X134912255Y-96108009D01*
X134912256Y-96108010D01*
X134989048Y-96251679D01*
X135040725Y-96314647D01*
X135092394Y-96377606D01*
X135123952Y-96403505D01*
X136986499Y-98266053D01*
X137012394Y-98297606D01*
X137043337Y-98323000D01*
X76577001Y-98323000D01*
X76577001Y-87910000D01*
X77700450Y-87910000D01*
X77710625Y-88013310D01*
X77740760Y-88112650D01*
X77789695Y-88204202D01*
X77855552Y-88284448D01*
X77935798Y-88350305D01*
X78027350Y-88399240D01*
X78126690Y-88429375D01*
X78230000Y-88439550D01*
X79125250Y-88437000D01*
X79257000Y-88305250D01*
X79257000Y-87483000D01*
X79403000Y-87483000D01*
X79403000Y-88305250D01*
X79534750Y-88437000D01*
X80430000Y-88439550D01*
X80533310Y-88429375D01*
X80632650Y-88399240D01*
X80724202Y-88350305D01*
X80797682Y-88290000D01*
X81850450Y-88290000D01*
X81860625Y-88393310D01*
X81890760Y-88492650D01*
X81939695Y-88584202D01*
X82005552Y-88664448D01*
X82085798Y-88730305D01*
X82177350Y-88779240D01*
X82276690Y-88809375D01*
X82380000Y-88819550D01*
X82455250Y-88817000D01*
X82587000Y-88685250D01*
X82587000Y-88053000D01*
X81984750Y-88053000D01*
X81853000Y-88184750D01*
X81850450Y-88290000D01*
X80797682Y-88290000D01*
X80804448Y-88284448D01*
X80870305Y-88204202D01*
X80919240Y-88112650D01*
X80949375Y-88013310D01*
X80959550Y-87910000D01*
X80957478Y-87670000D01*
X81850450Y-87670000D01*
X81853000Y-87775250D01*
X81984750Y-87907000D01*
X82587000Y-87907000D01*
X82587000Y-87274750D01*
X82455250Y-87143000D01*
X82380000Y-87140450D01*
X82276690Y-87150625D01*
X82177350Y-87180760D01*
X82085798Y-87229695D01*
X82005552Y-87295552D01*
X81939695Y-87375798D01*
X81890760Y-87467350D01*
X81860625Y-87566690D01*
X81850450Y-87670000D01*
X80957478Y-87670000D01*
X80957000Y-87614750D01*
X80825250Y-87483000D01*
X79403000Y-87483000D01*
X79257000Y-87483000D01*
X77834750Y-87483000D01*
X77703000Y-87614750D01*
X77700450Y-87910000D01*
X76577001Y-87910000D01*
X76577000Y-84910000D01*
X77700450Y-84910000D01*
X77710625Y-85013310D01*
X77740760Y-85112650D01*
X77789695Y-85204202D01*
X77855552Y-85284448D01*
X77935798Y-85350305D01*
X78027350Y-85399240D01*
X78126690Y-85429375D01*
X78230000Y-85439550D01*
X78300451Y-85439349D01*
X78300451Y-86380651D01*
X78230000Y-86380450D01*
X78126690Y-86390625D01*
X78027350Y-86420760D01*
X77935798Y-86469695D01*
X77855552Y-86535552D01*
X77789695Y-86615798D01*
X77740760Y-86707350D01*
X77710625Y-86806690D01*
X77700450Y-86910000D01*
X77703000Y-87205250D01*
X77834750Y-87337000D01*
X79257000Y-87337000D01*
X79257000Y-87317000D01*
X79403000Y-87317000D01*
X79403000Y-87337000D01*
X80825250Y-87337000D01*
X80957000Y-87205250D01*
X80959295Y-86939549D01*
X81830000Y-86939549D01*
X81933310Y-86929374D01*
X82032650Y-86899239D01*
X82124202Y-86850304D01*
X82204448Y-86784448D01*
X82270304Y-86704202D01*
X82319239Y-86612650D01*
X82334604Y-86562000D01*
X82790563Y-86562000D01*
X82783460Y-86585414D01*
X82770451Y-86717500D01*
X82770451Y-87012500D01*
X82783460Y-87144586D01*
X82802011Y-87205739D01*
X82733000Y-87274750D01*
X82733000Y-87907000D01*
X82753000Y-87907000D01*
X82753000Y-88053000D01*
X82733000Y-88053000D01*
X82733000Y-88685250D01*
X82864750Y-88817000D01*
X82940000Y-88819550D01*
X82967123Y-88816879D01*
X82964846Y-88840000D01*
X82977435Y-88967814D01*
X83002086Y-89049076D01*
X83014717Y-89090716D01*
X83075259Y-89203983D01*
X83156736Y-89303264D01*
X83181619Y-89323685D01*
X83496315Y-89638381D01*
X83516736Y-89663264D01*
X83616016Y-89744741D01*
X83729283Y-89805283D01*
X83739150Y-89808276D01*
X83852185Y-89842565D01*
X83980000Y-89855154D01*
X84012022Y-89852000D01*
X84970451Y-89852000D01*
X84970451Y-90748000D01*
X79999510Y-90748000D01*
X79997723Y-90745326D01*
X79854674Y-90602277D01*
X79686467Y-90489885D01*
X79499565Y-90412467D01*
X79301151Y-90373000D01*
X79098849Y-90373000D01*
X78900435Y-90412467D01*
X78713533Y-90489885D01*
X78545326Y-90602277D01*
X78402277Y-90745326D01*
X78289885Y-90913533D01*
X78212467Y-91100435D01*
X78173000Y-91298849D01*
X78173000Y-91501151D01*
X78212467Y-91699565D01*
X78289885Y-91886467D01*
X78402277Y-92054674D01*
X78545326Y-92197723D01*
X78713533Y-92310115D01*
X78900435Y-92387533D01*
X79098849Y-92427000D01*
X79301151Y-92427000D01*
X79499565Y-92387533D01*
X79686467Y-92310115D01*
X79854674Y-92197723D01*
X79997723Y-92054674D01*
X79999510Y-92052000D01*
X83024209Y-92052000D01*
X83016320Y-92061613D01*
X82129934Y-92948000D01*
X79999510Y-92948000D01*
X79997723Y-92945326D01*
X79854674Y-92802277D01*
X79686467Y-92689885D01*
X79499565Y-92612467D01*
X79301151Y-92573000D01*
X79098849Y-92573000D01*
X78900435Y-92612467D01*
X78713533Y-92689885D01*
X78545326Y-92802277D01*
X78402277Y-92945326D01*
X78289885Y-93113533D01*
X78212467Y-93300435D01*
X78173000Y-93498849D01*
X78173000Y-93701151D01*
X78212467Y-93899565D01*
X78289885Y-94086467D01*
X78402277Y-94254674D01*
X78545326Y-94397723D01*
X78713533Y-94510115D01*
X78900435Y-94587533D01*
X79098849Y-94627000D01*
X79301151Y-94627000D01*
X79499565Y-94587533D01*
X79686467Y-94510115D01*
X79854674Y-94397723D01*
X79997723Y-94254674D01*
X79999510Y-94252000D01*
X82367978Y-94252000D01*
X82400000Y-94255154D01*
X82432022Y-94252000D01*
X82527814Y-94242565D01*
X82650717Y-94205283D01*
X82763984Y-94144741D01*
X82863264Y-94063264D01*
X82883685Y-94038381D01*
X83770067Y-93152000D01*
X84970451Y-93152000D01*
X84970451Y-94050000D01*
X84980626Y-94153310D01*
X85010761Y-94252650D01*
X85059696Y-94344202D01*
X85125552Y-94424448D01*
X85205798Y-94490304D01*
X85297350Y-94539239D01*
X85396690Y-94569374D01*
X85500000Y-94579549D01*
X87500000Y-94579549D01*
X87603310Y-94569374D01*
X87702650Y-94539239D01*
X87794202Y-94490304D01*
X87874448Y-94424448D01*
X87940304Y-94344202D01*
X87989239Y-94252650D01*
X88019374Y-94153310D01*
X88029549Y-94050000D01*
X94170450Y-94050000D01*
X94180625Y-94153310D01*
X94210760Y-94252650D01*
X94259695Y-94344202D01*
X94325552Y-94424448D01*
X94405798Y-94490305D01*
X94497350Y-94539240D01*
X94596690Y-94569375D01*
X94700000Y-94579550D01*
X95495250Y-94577000D01*
X95627000Y-94445250D01*
X95627000Y-93673000D01*
X95773000Y-93673000D01*
X95773000Y-94445250D01*
X95904750Y-94577000D01*
X96700000Y-94579550D01*
X96803310Y-94569375D01*
X96902650Y-94539240D01*
X96994202Y-94490305D01*
X97074448Y-94424448D01*
X97140305Y-94344202D01*
X97189240Y-94252650D01*
X97219375Y-94153310D01*
X97229550Y-94050000D01*
X97227000Y-93804750D01*
X97095250Y-93673000D01*
X95773000Y-93673000D01*
X95627000Y-93673000D01*
X94304750Y-93673000D01*
X94173000Y-93804750D01*
X94170450Y-94050000D01*
X88029549Y-94050000D01*
X88029549Y-93150000D01*
X88019700Y-93050000D01*
X88029549Y-92950000D01*
X88029549Y-92050000D01*
X88019700Y-91950000D01*
X88029549Y-91850000D01*
X88029549Y-90950000D01*
X88019700Y-90850000D01*
X88029549Y-90750000D01*
X88029549Y-89850000D01*
X88019700Y-89750000D01*
X88029549Y-89650000D01*
X88029549Y-88750000D01*
X88019700Y-88650000D01*
X88029549Y-88550000D01*
X88029549Y-87650000D01*
X88019701Y-87550005D01*
X88029550Y-87450000D01*
X88027000Y-87204750D01*
X87895250Y-87073000D01*
X86573000Y-87073000D01*
X86573000Y-87093000D01*
X86427000Y-87093000D01*
X86427000Y-87073000D01*
X85104750Y-87073000D01*
X84973000Y-87204750D01*
X84970450Y-87450000D01*
X84980299Y-87550005D01*
X84970451Y-87650000D01*
X84970451Y-88548000D01*
X84295357Y-88548000D01*
X84316710Y-88521981D01*
X84378583Y-88406225D01*
X84416684Y-88280623D01*
X84429549Y-88150000D01*
X84429549Y-87810000D01*
X84416684Y-87679377D01*
X84378583Y-87553775D01*
X84316710Y-87438019D01*
X84315819Y-87436933D01*
X84355446Y-87388648D01*
X84418012Y-87271595D01*
X84456540Y-87144586D01*
X84469549Y-87012500D01*
X84469549Y-86717500D01*
X84456540Y-86585414D01*
X84444887Y-86547000D01*
X84970745Y-86547000D01*
X84970450Y-86550000D01*
X84973000Y-86795250D01*
X85104750Y-86927000D01*
X86427000Y-86927000D01*
X86427000Y-86907000D01*
X86573000Y-86907000D01*
X86573000Y-86927000D01*
X87895250Y-86927000D01*
X88027000Y-86795250D01*
X88029550Y-86550000D01*
X88019701Y-86449995D01*
X88029549Y-86350000D01*
X88029549Y-85798699D01*
X92863000Y-85798699D01*
X92863000Y-85981301D01*
X92898624Y-86160396D01*
X92968504Y-86329099D01*
X93069952Y-86480928D01*
X93199072Y-86610048D01*
X93350901Y-86711496D01*
X93519604Y-86781376D01*
X93698699Y-86817000D01*
X93881301Y-86817000D01*
X94060396Y-86781376D01*
X94170451Y-86735789D01*
X94170451Y-87450000D01*
X94180300Y-87550000D01*
X94170451Y-87650000D01*
X94170451Y-88550000D01*
X94180300Y-88650000D01*
X94170451Y-88750000D01*
X94170451Y-89650000D01*
X94180300Y-89750000D01*
X94170451Y-89850000D01*
X94170451Y-90750000D01*
X94180300Y-90850000D01*
X94170451Y-90950000D01*
X94170451Y-91850000D01*
X94180300Y-91950000D01*
X94170451Y-92050000D01*
X94170451Y-92950000D01*
X94180299Y-93049995D01*
X94170450Y-93150000D01*
X94173000Y-93395250D01*
X94304750Y-93527000D01*
X95627000Y-93527000D01*
X95627000Y-93507000D01*
X95773000Y-93507000D01*
X95773000Y-93527000D01*
X97095250Y-93527000D01*
X97227000Y-93395250D01*
X97229529Y-93152000D01*
X99291024Y-93152000D01*
X99369072Y-93230048D01*
X99520901Y-93331496D01*
X99689604Y-93401376D01*
X99868699Y-93437000D01*
X100051301Y-93437000D01*
X100230396Y-93401376D01*
X100399099Y-93331496D01*
X100550928Y-93230048D01*
X100680048Y-93100928D01*
X100781496Y-92949099D01*
X100851376Y-92780396D01*
X100887000Y-92601301D01*
X100887000Y-92418699D01*
X100869710Y-92331776D01*
X101986320Y-93448387D01*
X102006736Y-93473264D01*
X102106016Y-93554741D01*
X102219283Y-93615283D01*
X102342185Y-93652565D01*
X102470000Y-93665154D01*
X102502022Y-93662000D01*
X106594572Y-93662000D01*
X106563220Y-93765353D01*
X106550451Y-93895000D01*
X106550451Y-94165000D01*
X106563220Y-94294647D01*
X106601037Y-94419312D01*
X106662448Y-94534204D01*
X106745093Y-94634907D01*
X106768001Y-94653707D01*
X106768001Y-95179613D01*
X106767746Y-95179718D01*
X106542213Y-95330414D01*
X106350414Y-95522213D01*
X106199718Y-95747746D01*
X106150000Y-95867776D01*
X106100282Y-95747746D01*
X105949586Y-95522213D01*
X105757787Y-95330414D01*
X105532254Y-95179718D01*
X105281656Y-95075917D01*
X105015623Y-95023000D01*
X104744377Y-95023000D01*
X104478344Y-95075917D01*
X104227746Y-95179718D01*
X104002213Y-95330414D01*
X103810414Y-95522213D01*
X103659718Y-95747746D01*
X103610000Y-95867776D01*
X103560282Y-95747746D01*
X103409586Y-95522213D01*
X103217787Y-95330414D01*
X102992254Y-95179718D01*
X102741656Y-95075917D01*
X102475623Y-95023000D01*
X102204377Y-95023000D01*
X101938344Y-95075917D01*
X101687746Y-95179718D01*
X101462213Y-95330414D01*
X101270414Y-95522213D01*
X101179549Y-95658202D01*
X101179549Y-95550000D01*
X101169374Y-95446690D01*
X101139239Y-95347350D01*
X101090304Y-95255798D01*
X101024448Y-95175552D01*
X100944202Y-95109696D01*
X100852650Y-95060761D01*
X100753310Y-95030626D01*
X100650000Y-95020451D01*
X98950000Y-95020451D01*
X98846690Y-95030626D01*
X98747350Y-95060761D01*
X98655798Y-95109696D01*
X98575552Y-95175552D01*
X98509696Y-95255798D01*
X98460761Y-95347350D01*
X98430626Y-95446690D01*
X98420451Y-95550000D01*
X98420451Y-97250000D01*
X98430626Y-97353310D01*
X98460761Y-97452650D01*
X98509696Y-97544202D01*
X98575552Y-97624448D01*
X98655798Y-97690304D01*
X98747350Y-97739239D01*
X98846690Y-97769374D01*
X98950000Y-97779549D01*
X100650000Y-97779549D01*
X100753310Y-97769374D01*
X100852650Y-97739239D01*
X100944202Y-97690304D01*
X101024448Y-97624448D01*
X101090304Y-97544202D01*
X101139239Y-97452650D01*
X101169374Y-97353310D01*
X101179549Y-97250000D01*
X101179549Y-97141798D01*
X101270414Y-97277787D01*
X101462213Y-97469586D01*
X101687746Y-97620282D01*
X101938344Y-97724083D01*
X102204377Y-97777000D01*
X102475623Y-97777000D01*
X102741656Y-97724083D01*
X102992254Y-97620282D01*
X103217787Y-97469586D01*
X103409586Y-97277787D01*
X103560282Y-97052254D01*
X103610000Y-96932224D01*
X103659718Y-97052254D01*
X103810414Y-97277787D01*
X104002213Y-97469586D01*
X104227746Y-97620282D01*
X104478344Y-97724083D01*
X104744377Y-97777000D01*
X105015623Y-97777000D01*
X105281656Y-97724083D01*
X105532254Y-97620282D01*
X105757787Y-97469586D01*
X105949586Y-97277787D01*
X106100282Y-97052254D01*
X106150000Y-96932224D01*
X106199718Y-97052254D01*
X106350414Y-97277787D01*
X106542213Y-97469586D01*
X106767746Y-97620282D01*
X107018344Y-97724083D01*
X107284377Y-97777000D01*
X107555623Y-97777000D01*
X107821656Y-97724083D01*
X108072254Y-97620282D01*
X108297787Y-97469586D01*
X108489586Y-97277787D01*
X108640282Y-97052254D01*
X108690000Y-96932224D01*
X108739718Y-97052254D01*
X108890414Y-97277787D01*
X109082213Y-97469586D01*
X109307746Y-97620282D01*
X109558344Y-97724083D01*
X109824377Y-97777000D01*
X110095623Y-97777000D01*
X110361656Y-97724083D01*
X110612254Y-97620282D01*
X110837787Y-97469586D01*
X111029586Y-97277787D01*
X111180282Y-97052254D01*
X111230000Y-96932224D01*
X111279718Y-97052254D01*
X111430414Y-97277787D01*
X111622213Y-97469586D01*
X111847746Y-97620282D01*
X112098344Y-97724083D01*
X112364377Y-97777000D01*
X112635623Y-97777000D01*
X112901656Y-97724083D01*
X113152254Y-97620282D01*
X113377787Y-97469586D01*
X113569586Y-97277787D01*
X113720282Y-97052254D01*
X113770000Y-96932224D01*
X113819718Y-97052254D01*
X113970414Y-97277787D01*
X114162213Y-97469586D01*
X114387746Y-97620282D01*
X114638344Y-97724083D01*
X114904377Y-97777000D01*
X115175623Y-97777000D01*
X115441656Y-97724083D01*
X115692254Y-97620282D01*
X115917787Y-97469586D01*
X116109586Y-97277787D01*
X116260282Y-97052254D01*
X116310000Y-96932224D01*
X116359718Y-97052254D01*
X116510414Y-97277787D01*
X116702213Y-97469586D01*
X116927746Y-97620282D01*
X117178344Y-97724083D01*
X117444377Y-97777000D01*
X117715623Y-97777000D01*
X117981656Y-97724083D01*
X118232254Y-97620282D01*
X118457787Y-97469586D01*
X118649586Y-97277787D01*
X118800282Y-97052254D01*
X118850000Y-96932224D01*
X118899718Y-97052254D01*
X119050414Y-97277787D01*
X119242213Y-97469586D01*
X119467746Y-97620282D01*
X119718344Y-97724083D01*
X119984377Y-97777000D01*
X120255623Y-97777000D01*
X120521656Y-97724083D01*
X120772254Y-97620282D01*
X120997787Y-97469586D01*
X121189586Y-97277787D01*
X121340282Y-97052254D01*
X121390739Y-96930441D01*
X121395191Y-96944422D01*
X121525705Y-97180713D01*
X121699810Y-97387002D01*
X121910814Y-97555361D01*
X122150609Y-97679320D01*
X122372791Y-97746715D01*
X122587000Y-97643108D01*
X122587000Y-96473000D01*
X122733000Y-96473000D01*
X122733000Y-97643108D01*
X122947209Y-97746715D01*
X123169391Y-97679320D01*
X123409186Y-97555361D01*
X123620190Y-97387002D01*
X123794295Y-97180713D01*
X123924809Y-96944422D01*
X124006718Y-96687209D01*
X123903317Y-96473000D01*
X122733000Y-96473000D01*
X122587000Y-96473000D01*
X122567000Y-96473000D01*
X122567000Y-96327000D01*
X122587000Y-96327000D01*
X122587000Y-95156892D01*
X122733000Y-95156892D01*
X122733000Y-96327000D01*
X123903317Y-96327000D01*
X124006718Y-96112791D01*
X123924809Y-95855578D01*
X123794295Y-95619287D01*
X123620190Y-95412998D01*
X123409186Y-95244639D01*
X123169391Y-95120680D01*
X122947209Y-95053285D01*
X122733000Y-95156892D01*
X122587000Y-95156892D01*
X122372791Y-95053285D01*
X122150609Y-95120680D01*
X121910814Y-95244639D01*
X121699810Y-95412998D01*
X121525705Y-95619287D01*
X121395191Y-95855578D01*
X121390739Y-95869559D01*
X121340282Y-95747746D01*
X121189586Y-95522213D01*
X120997787Y-95330414D01*
X120772254Y-95179718D01*
X120521656Y-95075917D01*
X120255623Y-95023000D01*
X119984377Y-95023000D01*
X119718344Y-95075917D01*
X119467746Y-95179718D01*
X119242213Y-95330414D01*
X119050414Y-95522213D01*
X118899718Y-95747746D01*
X118850000Y-95867776D01*
X118800282Y-95747746D01*
X118649586Y-95522213D01*
X118457787Y-95330414D01*
X118232254Y-95179718D01*
X118232000Y-95179613D01*
X118232000Y-94633706D01*
X118254907Y-94614907D01*
X118337552Y-94514204D01*
X118398963Y-94399312D01*
X118436780Y-94274647D01*
X118449549Y-94145000D01*
X118449549Y-93875000D01*
X118436780Y-93745353D01*
X118398963Y-93620688D01*
X118337552Y-93505796D01*
X118332795Y-93500000D01*
X118337552Y-93494204D01*
X118398963Y-93379312D01*
X118436780Y-93254647D01*
X118449549Y-93125000D01*
X118449549Y-92855000D01*
X118436780Y-92725353D01*
X118398963Y-92600688D01*
X118337552Y-92485796D01*
X118254907Y-92385093D01*
X118252000Y-92382707D01*
X118252000Y-92072021D01*
X118255154Y-92039999D01*
X118242565Y-91912185D01*
X118205283Y-91789283D01*
X118194281Y-91768699D01*
X118144741Y-91676016D01*
X118063264Y-91576736D01*
X118038386Y-91556320D01*
X117483684Y-91001618D01*
X117463264Y-90976736D01*
X117363984Y-90895259D01*
X117250717Y-90834717D01*
X117127814Y-90797435D01*
X117032022Y-90788000D01*
X117000000Y-90784846D01*
X116967978Y-90788000D01*
X116320067Y-90788000D01*
X116152000Y-90619934D01*
X116152000Y-90087861D01*
X116268720Y-90025473D01*
X116478396Y-89853397D01*
X116650473Y-89643721D01*
X116750000Y-89457519D01*
X116849527Y-89643720D01*
X117021603Y-89853396D01*
X117231279Y-90025473D01*
X117470495Y-90153337D01*
X117730061Y-90232075D01*
X118000000Y-90258662D01*
X118269938Y-90232075D01*
X118529504Y-90153337D01*
X118768720Y-90025473D01*
X118978396Y-89853397D01*
X119143175Y-89652614D01*
X119179791Y-89773320D01*
X119251829Y-89908094D01*
X119348776Y-90026224D01*
X119466906Y-90123171D01*
X119601680Y-90195209D01*
X119747918Y-90239570D01*
X119900000Y-90254549D01*
X121100000Y-90254549D01*
X121252082Y-90239570D01*
X121398320Y-90195209D01*
X121533094Y-90123171D01*
X121651224Y-90026224D01*
X121748171Y-89908094D01*
X121820209Y-89773320D01*
X121864570Y-89627082D01*
X121879549Y-89475000D01*
X121879549Y-88125000D01*
X121864570Y-87972918D01*
X121820209Y-87826680D01*
X121748171Y-87691906D01*
X121651224Y-87573776D01*
X121533094Y-87476829D01*
X121398320Y-87404791D01*
X121252082Y-87360430D01*
X121100000Y-87345451D01*
X119900000Y-87345451D01*
X119747918Y-87360430D01*
X119601680Y-87404791D01*
X119466906Y-87476829D01*
X119348776Y-87573776D01*
X119251829Y-87691906D01*
X119179791Y-87826680D01*
X119143175Y-87947387D01*
X118978397Y-87746603D01*
X118768721Y-87574527D01*
X118529505Y-87446663D01*
X118269939Y-87367925D01*
X118000000Y-87341338D01*
X117730062Y-87367925D01*
X117470496Y-87446663D01*
X117231280Y-87574527D01*
X117021604Y-87746603D01*
X116849527Y-87956279D01*
X116750000Y-88142481D01*
X116650473Y-87956280D01*
X116478397Y-87746603D01*
X116268721Y-87574527D01*
X116029505Y-87446663D01*
X115769939Y-87367925D01*
X115500000Y-87341338D01*
X115230062Y-87367925D01*
X114970496Y-87446663D01*
X114731280Y-87574527D01*
X114521604Y-87746603D01*
X114349527Y-87956279D01*
X114245037Y-88151766D01*
X114175175Y-88007197D01*
X114012558Y-87791724D01*
X113811029Y-87612116D01*
X113578332Y-87475276D01*
X113323410Y-87386462D01*
X113287209Y-87378285D01*
X113073000Y-87481892D01*
X113073000Y-88727000D01*
X113093000Y-88727000D01*
X113093000Y-88873000D01*
X113073000Y-88873000D01*
X113073000Y-90118108D01*
X113287209Y-90221715D01*
X113323410Y-90213538D01*
X113578332Y-90124724D01*
X113811029Y-89987884D01*
X114012558Y-89808276D01*
X114175175Y-89592803D01*
X114245037Y-89448234D01*
X114349527Y-89643720D01*
X114521603Y-89853396D01*
X114731279Y-90025473D01*
X114848000Y-90087862D01*
X114848000Y-90857978D01*
X114844846Y-90890000D01*
X114857435Y-91017814D01*
X114875091Y-91076017D01*
X114894717Y-91140716D01*
X114917451Y-91183248D01*
X114739604Y-91218624D01*
X114570901Y-91288504D01*
X114419072Y-91389952D01*
X114289952Y-91519072D01*
X114188504Y-91670901D01*
X114118624Y-91839604D01*
X114083000Y-92018699D01*
X114083000Y-92201301D01*
X114118624Y-92380396D01*
X114188504Y-92549099D01*
X114221898Y-92599077D01*
X114221037Y-92600688D01*
X114183220Y-92725353D01*
X114170451Y-92855000D01*
X114170451Y-93125000D01*
X114183220Y-93254647D01*
X114221037Y-93379312D01*
X114282448Y-93494204D01*
X114287205Y-93500000D01*
X114282448Y-93505796D01*
X114221037Y-93620688D01*
X114183220Y-93745353D01*
X114170451Y-93875000D01*
X114170451Y-94145000D01*
X114183220Y-94274647D01*
X114221037Y-94399312D01*
X114282448Y-94514204D01*
X114365093Y-94614907D01*
X114388001Y-94633707D01*
X114388001Y-95179613D01*
X114387746Y-95179718D01*
X114162213Y-95330414D01*
X113970414Y-95522213D01*
X113819718Y-95747746D01*
X113770000Y-95867776D01*
X113720282Y-95747746D01*
X113569586Y-95522213D01*
X113377787Y-95330414D01*
X113152254Y-95179718D01*
X112901656Y-95075917D01*
X112635623Y-95023000D01*
X112364377Y-95023000D01*
X112098344Y-95075917D01*
X111847746Y-95179718D01*
X111622213Y-95330414D01*
X111430414Y-95522213D01*
X111279718Y-95747746D01*
X111230000Y-95867776D01*
X111180282Y-95747746D01*
X111029586Y-95522213D01*
X110837787Y-95330414D01*
X110612254Y-95179718D01*
X110612000Y-95179613D01*
X110612000Y-94625500D01*
X110624907Y-94614907D01*
X110707552Y-94514204D01*
X110768963Y-94399312D01*
X110806780Y-94274647D01*
X110819549Y-94145000D01*
X110819549Y-93875000D01*
X110806780Y-93745353D01*
X110768963Y-93620688D01*
X110707552Y-93505796D01*
X110702795Y-93500000D01*
X110707552Y-93494204D01*
X110768963Y-93379312D01*
X110806780Y-93254647D01*
X110819549Y-93125000D01*
X110819549Y-92855000D01*
X110806780Y-92725353D01*
X110768963Y-92600688D01*
X110707552Y-92485796D01*
X110624907Y-92385093D01*
X110622000Y-92382707D01*
X110622000Y-92242014D01*
X110625153Y-92209999D01*
X110622000Y-92177985D01*
X110622000Y-92177978D01*
X110613532Y-92092000D01*
X110612565Y-92082185D01*
X110575283Y-91959283D01*
X110572090Y-91953310D01*
X110514741Y-91846016D01*
X110433264Y-91746736D01*
X110408381Y-91726315D01*
X110133685Y-91451619D01*
X110113264Y-91426736D01*
X110013984Y-91345259D01*
X109900717Y-91284717D01*
X109777814Y-91247435D01*
X109682022Y-91238000D01*
X109650000Y-91234846D01*
X109617978Y-91238000D01*
X105568976Y-91238000D01*
X105470928Y-91139952D01*
X105319099Y-91038504D01*
X105150396Y-90968624D01*
X104971301Y-90933000D01*
X104788699Y-90933000D01*
X104609604Y-90968624D01*
X104440901Y-91038504D01*
X104289072Y-91139952D01*
X104159952Y-91269072D01*
X104058504Y-91420901D01*
X103988624Y-91589604D01*
X103953000Y-91768699D01*
X103953000Y-91951301D01*
X103988624Y-92130396D01*
X104058504Y-92299099D01*
X104097860Y-92358000D01*
X102740067Y-92358000D01*
X101343685Y-90961619D01*
X101335791Y-90952000D01*
X102700490Y-90952000D01*
X102702277Y-90954674D01*
X102845326Y-91097723D01*
X103013533Y-91210115D01*
X103200435Y-91287533D01*
X103398849Y-91327000D01*
X103601151Y-91327000D01*
X103799565Y-91287533D01*
X103986467Y-91210115D01*
X104154674Y-91097723D01*
X104297723Y-90954674D01*
X104410115Y-90786467D01*
X104487533Y-90599565D01*
X104527000Y-90401151D01*
X104527000Y-90198849D01*
X104487533Y-90000435D01*
X104410115Y-89813533D01*
X104297723Y-89645326D01*
X104154674Y-89502277D01*
X103986467Y-89389885D01*
X103799565Y-89312467D01*
X103601151Y-89273000D01*
X103398849Y-89273000D01*
X103200435Y-89312467D01*
X103013533Y-89389885D01*
X102845326Y-89502277D01*
X102702277Y-89645326D01*
X102700490Y-89648000D01*
X100805791Y-89648000D01*
X100813685Y-89638382D01*
X101600067Y-88852000D01*
X102700490Y-88852000D01*
X102702277Y-88854674D01*
X102845326Y-88997723D01*
X103013533Y-89110115D01*
X103200435Y-89187533D01*
X103398849Y-89227000D01*
X103601151Y-89227000D01*
X103799565Y-89187533D01*
X103986467Y-89110115D01*
X104018901Y-89088443D01*
X111639588Y-89088443D01*
X111707369Y-89349745D01*
X111824825Y-89592803D01*
X111987442Y-89808276D01*
X112188971Y-89987884D01*
X112421668Y-90124724D01*
X112676590Y-90213538D01*
X112712791Y-90221715D01*
X112927000Y-90118108D01*
X112927000Y-88873000D01*
X111754697Y-88873000D01*
X111639588Y-89088443D01*
X104018901Y-89088443D01*
X104154674Y-88997723D01*
X104297723Y-88854674D01*
X104410115Y-88686467D01*
X104482565Y-88511557D01*
X111639588Y-88511557D01*
X111754697Y-88727000D01*
X112927000Y-88727000D01*
X112927000Y-87481892D01*
X112712791Y-87378285D01*
X112676590Y-87386462D01*
X112421668Y-87475276D01*
X112188971Y-87612116D01*
X111987442Y-87791724D01*
X111824825Y-88007197D01*
X111707369Y-88250255D01*
X111639588Y-88511557D01*
X104482565Y-88511557D01*
X104487533Y-88499565D01*
X104527000Y-88301151D01*
X104527000Y-88098849D01*
X104487533Y-87900435D01*
X104410115Y-87713533D01*
X104297723Y-87545326D01*
X104154674Y-87402277D01*
X103986467Y-87289885D01*
X103799565Y-87212467D01*
X103601151Y-87173000D01*
X103398849Y-87173000D01*
X103200435Y-87212467D01*
X103013533Y-87289885D01*
X102845326Y-87402277D01*
X102702277Y-87545326D01*
X102700490Y-87548000D01*
X101362022Y-87548000D01*
X101330000Y-87544846D01*
X101202185Y-87557435D01*
X101171676Y-87566690D01*
X101079283Y-87594717D01*
X100966016Y-87655259D01*
X100866736Y-87736736D01*
X100846320Y-87761613D01*
X100059934Y-88548000D01*
X97229549Y-88548000D01*
X97229549Y-87650000D01*
X97226791Y-87622000D01*
X97786984Y-87622000D01*
X97878019Y-87696710D01*
X97993775Y-87758583D01*
X98119377Y-87796684D01*
X98250000Y-87809549D01*
X98530000Y-87809549D01*
X98660623Y-87796684D01*
X98786225Y-87758583D01*
X98816818Y-87742231D01*
X98867350Y-87769240D01*
X98966690Y-87799375D01*
X99070000Y-87809550D01*
X99145250Y-87807000D01*
X99277000Y-87675250D01*
X99277000Y-87043000D01*
X99423000Y-87043000D01*
X99423000Y-87675250D01*
X99554750Y-87807000D01*
X99630000Y-87809550D01*
X99733310Y-87799375D01*
X99832650Y-87769240D01*
X99924202Y-87720305D01*
X100004448Y-87654448D01*
X100070305Y-87574202D01*
X100119240Y-87482650D01*
X100149375Y-87383310D01*
X100159550Y-87280000D01*
X100157000Y-87174750D01*
X100025250Y-87043000D01*
X99423000Y-87043000D01*
X99277000Y-87043000D01*
X99257000Y-87043000D01*
X99257000Y-86897000D01*
X99277000Y-86897000D01*
X99277000Y-85963000D01*
X99423000Y-85963000D01*
X99423000Y-86897000D01*
X100025250Y-86897000D01*
X100157000Y-86765250D01*
X100159550Y-86660000D01*
X100149375Y-86556690D01*
X100119240Y-86457350D01*
X100104621Y-86430000D01*
X100119240Y-86402650D01*
X100149375Y-86303310D01*
X100159550Y-86200000D01*
X100157000Y-86094750D01*
X100025250Y-85963000D01*
X99423000Y-85963000D01*
X99277000Y-85963000D01*
X99257000Y-85963000D01*
X99257000Y-85817000D01*
X99277000Y-85817000D01*
X99277000Y-85797000D01*
X99423000Y-85797000D01*
X99423000Y-85817000D01*
X100025250Y-85817000D01*
X100157000Y-85685250D01*
X100159550Y-85580000D01*
X100149375Y-85476690D01*
X100141885Y-85452000D01*
X102700490Y-85452000D01*
X102702277Y-85454674D01*
X102845326Y-85597723D01*
X103013533Y-85710115D01*
X103200435Y-85787533D01*
X103398849Y-85827000D01*
X103601151Y-85827000D01*
X103799565Y-85787533D01*
X103986467Y-85710115D01*
X104154674Y-85597723D01*
X104297723Y-85454674D01*
X104410115Y-85286467D01*
X104487533Y-85099565D01*
X104527000Y-84901151D01*
X104527000Y-84698849D01*
X104487533Y-84500435D01*
X104410115Y-84313533D01*
X104297723Y-84145326D01*
X104154674Y-84002277D01*
X103986467Y-83889885D01*
X103799565Y-83812467D01*
X103601151Y-83773000D01*
X103398849Y-83773000D01*
X103200435Y-83812467D01*
X103013533Y-83889885D01*
X102845326Y-84002277D01*
X102702277Y-84145326D01*
X102700490Y-84148000D01*
X97189436Y-84148000D01*
X97189239Y-84147350D01*
X97140304Y-84055798D01*
X97074448Y-83975552D01*
X96994202Y-83909696D01*
X96902650Y-83860761D01*
X96803310Y-83830626D01*
X96700000Y-83820451D01*
X94700000Y-83820451D01*
X94596690Y-83830626D01*
X94497350Y-83860761D01*
X94405798Y-83909696D01*
X94325552Y-83975552D01*
X94259696Y-84055798D01*
X94210761Y-84147350D01*
X94180626Y-84246690D01*
X94170451Y-84350000D01*
X94170451Y-85044211D01*
X94060396Y-84998624D01*
X93881301Y-84963000D01*
X93698699Y-84963000D01*
X93519604Y-84998624D01*
X93350901Y-85068504D01*
X93199072Y-85169952D01*
X93069952Y-85299072D01*
X92968504Y-85450901D01*
X92898624Y-85619604D01*
X92863000Y-85798699D01*
X88029549Y-85798699D01*
X88029549Y-85450000D01*
X88019701Y-85350005D01*
X88029550Y-85250000D01*
X88027000Y-85004750D01*
X87895250Y-84873000D01*
X86573000Y-84873000D01*
X86573000Y-84893000D01*
X86427000Y-84893000D01*
X86427000Y-84873000D01*
X85104750Y-84873000D01*
X84973000Y-85004750D01*
X84970523Y-85243000D01*
X84239865Y-85243000D01*
X84168648Y-85184554D01*
X84051595Y-85121988D01*
X83924586Y-85083460D01*
X83792500Y-85070451D01*
X83447500Y-85070451D01*
X83315414Y-85083460D01*
X83188405Y-85121988D01*
X83071352Y-85184554D01*
X82981858Y-85258000D01*
X82334604Y-85258000D01*
X82319239Y-85207350D01*
X82270304Y-85115798D01*
X82204448Y-85035552D01*
X82124202Y-84969696D01*
X82032650Y-84920761D01*
X81933310Y-84890626D01*
X81830000Y-84880451D01*
X80959295Y-84880451D01*
X80957000Y-84614750D01*
X80825250Y-84483000D01*
X79403000Y-84483000D01*
X79403000Y-84503000D01*
X79257000Y-84503000D01*
X79257000Y-84483000D01*
X77834750Y-84483000D01*
X77703000Y-84614750D01*
X77700450Y-84910000D01*
X76577000Y-84910000D01*
X76577000Y-84350000D01*
X84970450Y-84350000D01*
X84973000Y-84595250D01*
X85104750Y-84727000D01*
X86427000Y-84727000D01*
X86427000Y-83954750D01*
X86573000Y-83954750D01*
X86573000Y-84727000D01*
X87895250Y-84727000D01*
X88027000Y-84595250D01*
X88029550Y-84350000D01*
X88019375Y-84246690D01*
X87989240Y-84147350D01*
X87940305Y-84055798D01*
X87874448Y-83975552D01*
X87794202Y-83909695D01*
X87702650Y-83860760D01*
X87603310Y-83830625D01*
X87500000Y-83820450D01*
X86704750Y-83823000D01*
X86573000Y-83954750D01*
X86427000Y-83954750D01*
X86295250Y-83823000D01*
X85500000Y-83820450D01*
X85396690Y-83830625D01*
X85297350Y-83860760D01*
X85205798Y-83909695D01*
X85125552Y-83975552D01*
X85059695Y-84055798D01*
X85010760Y-84147350D01*
X84980625Y-84246690D01*
X84970450Y-84350000D01*
X76577000Y-84350000D01*
X76577000Y-83910000D01*
X77700450Y-83910000D01*
X77703000Y-84205250D01*
X77834750Y-84337000D01*
X79257000Y-84337000D01*
X79257000Y-83514750D01*
X79403000Y-83514750D01*
X79403000Y-84337000D01*
X80825250Y-84337000D01*
X80957000Y-84205250D01*
X80959550Y-83910000D01*
X80949375Y-83806690D01*
X80919240Y-83707350D01*
X80870305Y-83615798D01*
X80804448Y-83535552D01*
X80724202Y-83469695D01*
X80632650Y-83420760D01*
X80533310Y-83390625D01*
X80430000Y-83380450D01*
X79534750Y-83383000D01*
X79403000Y-83514750D01*
X79257000Y-83514750D01*
X79125250Y-83383000D01*
X78230000Y-83380450D01*
X78126690Y-83390625D01*
X78027350Y-83420760D01*
X77935798Y-83469695D01*
X77855552Y-83535552D01*
X77789695Y-83615798D01*
X77740760Y-83707350D01*
X77710625Y-83806690D01*
X77700450Y-83910000D01*
X76577000Y-83910000D01*
X76576999Y-82677001D01*
X141023001Y-82677001D01*
X141023001Y-83670451D01*
%TO.N,GNDA*%
G36*
X203323001Y-97023001D02*
G01*
X183580794Y-97023001D01*
X183550000Y-97019968D01*
X183519206Y-97023001D01*
X183427087Y-97032074D01*
X183308897Y-97067926D01*
X183199972Y-97126148D01*
X183104499Y-97204500D01*
X183026147Y-97299973D01*
X182967925Y-97408898D01*
X182932073Y-97527088D01*
X182919967Y-97650001D01*
X182923000Y-97680795D01*
X182923001Y-98323000D01*
X152591663Y-98323000D01*
X152622606Y-98297606D01*
X152648505Y-98266048D01*
X153056053Y-97858501D01*
X153087606Y-97832606D01*
X153113502Y-97801052D01*
X153190952Y-97706681D01*
X153267744Y-97563011D01*
X153267745Y-97563010D01*
X153315034Y-97407120D01*
X153327000Y-97285624D01*
X153327000Y-97285612D01*
X153331000Y-97245001D01*
X153327000Y-97204390D01*
X153327000Y-91342554D01*
X153402554Y-91267000D01*
X153914189Y-91267000D01*
X154069604Y-91331376D01*
X154248699Y-91367000D01*
X154431301Y-91367000D01*
X154610396Y-91331376D01*
X154779099Y-91261496D01*
X154930928Y-91160048D01*
X155060048Y-91030928D01*
X155161496Y-90879099D01*
X155231376Y-90710396D01*
X155267000Y-90531301D01*
X155267000Y-90348699D01*
X155231376Y-90169604D01*
X155161496Y-90000901D01*
X155060048Y-89849072D01*
X154930928Y-89719952D01*
X154779099Y-89618504D01*
X154610396Y-89548624D01*
X154431301Y-89513000D01*
X154248699Y-89513000D01*
X154069604Y-89548624D01*
X153914189Y-89613000D01*
X153100614Y-89613000D01*
X153060000Y-89609000D01*
X153019386Y-89613000D01*
X153019376Y-89613000D01*
X152897880Y-89624966D01*
X152808432Y-89652100D01*
X152741989Y-89672255D01*
X152598320Y-89749048D01*
X152503948Y-89826497D01*
X152503941Y-89826504D01*
X152472394Y-89852394D01*
X152446503Y-89883942D01*
X151943951Y-90386495D01*
X151912394Y-90412394D01*
X151873603Y-90459661D01*
X151809048Y-90538321D01*
X151772015Y-90607606D01*
X151732255Y-90681991D01*
X151684966Y-90837881D01*
X151673000Y-90959377D01*
X151673000Y-90959386D01*
X151669000Y-91000000D01*
X151673000Y-91040614D01*
X151673001Y-96883000D01*
X144907000Y-96883000D01*
X144907000Y-95277001D01*
X146517068Y-95277001D01*
X146520085Y-95281408D01*
X146551554Y-95328771D01*
X146557128Y-95335507D01*
X146557131Y-95335512D01*
X146557135Y-95335516D01*
X146619861Y-95410269D01*
X146660446Y-95450012D01*
X146700502Y-95490349D01*
X146707286Y-95495882D01*
X146707291Y-95495886D01*
X146707296Y-95495889D01*
X146783337Y-95557028D01*
X146830851Y-95588121D01*
X146878000Y-95619923D01*
X146885729Y-95624033D01*
X146972208Y-95669243D01*
X147024896Y-95690530D01*
X147077286Y-95712553D01*
X147085667Y-95715084D01*
X147179279Y-95742635D01*
X147235056Y-95753275D01*
X147290772Y-95764712D01*
X147299484Y-95765566D01*
X147396666Y-95774410D01*
X147453458Y-95774013D01*
X147510317Y-95774410D01*
X147519029Y-95773555D01*
X147519032Y-95773555D01*
X147519035Y-95773554D01*
X147616078Y-95763355D01*
X147671729Y-95751932D01*
X147727573Y-95741278D01*
X147735943Y-95738751D01*
X147735948Y-95738750D01*
X147735952Y-95738748D01*
X147829172Y-95709891D01*
X147881535Y-95687879D01*
X147934240Y-95666585D01*
X147941970Y-95662475D01*
X148027809Y-95616063D01*
X148074894Y-95584304D01*
X148122479Y-95553165D01*
X148129263Y-95547632D01*
X148204452Y-95485430D01*
X148244480Y-95445122D01*
X148285099Y-95405344D01*
X148290679Y-95398598D01*
X148352354Y-95322976D01*
X148383787Y-95275664D01*
X148415903Y-95228761D01*
X148420067Y-95221060D01*
X148465880Y-95134900D01*
X148487539Y-95082352D01*
X148509924Y-95030124D01*
X148512513Y-95021761D01*
X148540718Y-94928342D01*
X148551753Y-94872611D01*
X148563572Y-94817006D01*
X148564486Y-94808306D01*
X148564487Y-94808303D01*
X148564487Y-94808300D01*
X148574009Y-94711183D01*
X148574009Y-94711162D01*
X148577000Y-94680794D01*
X148577000Y-93729549D01*
X150125000Y-93729549D01*
X150228310Y-93719374D01*
X150327650Y-93689239D01*
X150419202Y-93640304D01*
X150499448Y-93574448D01*
X150565304Y-93494202D01*
X150614239Y-93402650D01*
X150644374Y-93303310D01*
X150654549Y-93200000D01*
X150654549Y-91400000D01*
X150644374Y-91296690D01*
X150614239Y-91197350D01*
X150565304Y-91105798D01*
X150499448Y-91025552D01*
X150419202Y-90959696D01*
X150327650Y-90910761D01*
X150228310Y-90880626D01*
X150125000Y-90870451D01*
X149391337Y-90870451D01*
X149421788Y-90823918D01*
X149453601Y-90776752D01*
X149457710Y-90769023D01*
X149511961Y-90665249D01*
X149533237Y-90612588D01*
X149555270Y-90560174D01*
X149557800Y-90551793D01*
X149590862Y-90439458D01*
X149601514Y-90383619D01*
X149612937Y-90327969D01*
X149613792Y-90319256D01*
X149624405Y-90202638D01*
X149624008Y-90145845D01*
X149624405Y-90088986D01*
X149623550Y-90080273D01*
X149611310Y-89963816D01*
X149599889Y-89908173D01*
X149589235Y-89852326D01*
X149586705Y-89843946D01*
X149552078Y-89732083D01*
X149530050Y-89679681D01*
X149508769Y-89627008D01*
X149504659Y-89619279D01*
X149504658Y-89619276D01*
X149504655Y-89619271D01*
X149456143Y-89529549D01*
X150125000Y-89529549D01*
X150228310Y-89519374D01*
X150327650Y-89489239D01*
X150419202Y-89440304D01*
X150499448Y-89374448D01*
X150565304Y-89294202D01*
X150614239Y-89202650D01*
X150644374Y-89103310D01*
X150654549Y-89000000D01*
X150654549Y-87200000D01*
X150644374Y-87096690D01*
X150614239Y-86997350D01*
X150565304Y-86905798D01*
X150499448Y-86825552D01*
X150419202Y-86759696D01*
X150327650Y-86710761D01*
X150228310Y-86680626D01*
X150171187Y-86675000D01*
X150228310Y-86669374D01*
X150327650Y-86639239D01*
X150419202Y-86590304D01*
X150499448Y-86524448D01*
X150565304Y-86444202D01*
X150614239Y-86352650D01*
X150644374Y-86253310D01*
X150654549Y-86150000D01*
X150654549Y-85967000D01*
X151002938Y-85967000D01*
X151015796Y-85977552D01*
X151130688Y-86038963D01*
X151255353Y-86076780D01*
X151385000Y-86089549D01*
X151655000Y-86089549D01*
X151784647Y-86076780D01*
X151909312Y-86038963D01*
X152024204Y-85977552D01*
X152030000Y-85972795D01*
X152035796Y-85977552D01*
X152150688Y-86038963D01*
X152275353Y-86076780D01*
X152405000Y-86089549D01*
X152675000Y-86089549D01*
X152804647Y-86076780D01*
X152929312Y-86038963D01*
X153044204Y-85977552D01*
X153057062Y-85967000D01*
X155978868Y-85967000D01*
X156473000Y-86461133D01*
X156473001Y-95120451D01*
X156350000Y-95120451D01*
X156246690Y-95130626D01*
X156147350Y-95160761D01*
X156055798Y-95209696D01*
X155975552Y-95275552D01*
X155909696Y-95355798D01*
X155860761Y-95447350D01*
X155830626Y-95546690D01*
X155820451Y-95650000D01*
X155820451Y-97350000D01*
X155830626Y-97453310D01*
X155860761Y-97552650D01*
X155909696Y-97644202D01*
X155975552Y-97724448D01*
X156055798Y-97790304D01*
X156147350Y-97839239D01*
X156246690Y-97869374D01*
X156350000Y-97879549D01*
X158050000Y-97879549D01*
X158153310Y-97869374D01*
X158252650Y-97839239D01*
X158344202Y-97790304D01*
X158424448Y-97724448D01*
X158490304Y-97644202D01*
X158539239Y-97552650D01*
X158569374Y-97453310D01*
X158579549Y-97350000D01*
X158579549Y-97241798D01*
X158670414Y-97377787D01*
X158862213Y-97569586D01*
X159087746Y-97720282D01*
X159338344Y-97824083D01*
X159604377Y-97877000D01*
X159875623Y-97877000D01*
X160141656Y-97824083D01*
X160392254Y-97720282D01*
X160617787Y-97569586D01*
X160809586Y-97377787D01*
X160960282Y-97152254D01*
X161010000Y-97032224D01*
X161059718Y-97152254D01*
X161210414Y-97377787D01*
X161402213Y-97569586D01*
X161627746Y-97720282D01*
X161878344Y-97824083D01*
X162144377Y-97877000D01*
X162415623Y-97877000D01*
X162681656Y-97824083D01*
X162932254Y-97720282D01*
X163157787Y-97569586D01*
X163349586Y-97377787D01*
X163500282Y-97152254D01*
X163550000Y-97032224D01*
X163599718Y-97152254D01*
X163750414Y-97377787D01*
X163942213Y-97569586D01*
X164167746Y-97720282D01*
X164418344Y-97824083D01*
X164684377Y-97877000D01*
X164955623Y-97877000D01*
X165221656Y-97824083D01*
X165472254Y-97720282D01*
X165697787Y-97569586D01*
X165889586Y-97377787D01*
X166040282Y-97152254D01*
X166090000Y-97032224D01*
X166139718Y-97152254D01*
X166290414Y-97377787D01*
X166482213Y-97569586D01*
X166707746Y-97720282D01*
X166958344Y-97824083D01*
X167224377Y-97877000D01*
X167495623Y-97877000D01*
X167761656Y-97824083D01*
X168012254Y-97720282D01*
X168237787Y-97569586D01*
X168429586Y-97377787D01*
X168580282Y-97152254D01*
X168630000Y-97032224D01*
X168679718Y-97152254D01*
X168830414Y-97377787D01*
X169022213Y-97569586D01*
X169247746Y-97720282D01*
X169498344Y-97824083D01*
X169764377Y-97877000D01*
X170035623Y-97877000D01*
X170301656Y-97824083D01*
X170552254Y-97720282D01*
X170777787Y-97569586D01*
X170969586Y-97377787D01*
X171120282Y-97152254D01*
X171170000Y-97032224D01*
X171219718Y-97152254D01*
X171370414Y-97377787D01*
X171562213Y-97569586D01*
X171787746Y-97720282D01*
X172038344Y-97824083D01*
X172304377Y-97877000D01*
X172575623Y-97877000D01*
X172841656Y-97824083D01*
X173092254Y-97720282D01*
X173317787Y-97569586D01*
X173509586Y-97377787D01*
X173660282Y-97152254D01*
X173710000Y-97032224D01*
X173759718Y-97152254D01*
X173910414Y-97377787D01*
X174102213Y-97569586D01*
X174327746Y-97720282D01*
X174578344Y-97824083D01*
X174844377Y-97877000D01*
X175115623Y-97877000D01*
X175381656Y-97824083D01*
X175632254Y-97720282D01*
X175857787Y-97569586D01*
X176049586Y-97377787D01*
X176200282Y-97152254D01*
X176250000Y-97032224D01*
X176299718Y-97152254D01*
X176450414Y-97377787D01*
X176642213Y-97569586D01*
X176867746Y-97720282D01*
X177118344Y-97824083D01*
X177384377Y-97877000D01*
X177655623Y-97877000D01*
X177921656Y-97824083D01*
X178172254Y-97720282D01*
X178397787Y-97569586D01*
X178589586Y-97377787D01*
X178740282Y-97152254D01*
X178790739Y-97030441D01*
X178795191Y-97044422D01*
X178925705Y-97280713D01*
X179099810Y-97487002D01*
X179310814Y-97655361D01*
X179550609Y-97779320D01*
X179772791Y-97846715D01*
X179987000Y-97743108D01*
X179987000Y-96573000D01*
X180133000Y-96573000D01*
X180133000Y-97743108D01*
X180347209Y-97846715D01*
X180569391Y-97779320D01*
X180809186Y-97655361D01*
X181020190Y-97487002D01*
X181194295Y-97280713D01*
X181324809Y-97044422D01*
X181406718Y-96787209D01*
X181303317Y-96573000D01*
X180133000Y-96573000D01*
X179987000Y-96573000D01*
X179967000Y-96573000D01*
X179967000Y-96427000D01*
X179987000Y-96427000D01*
X179987000Y-95256892D01*
X180133000Y-95256892D01*
X180133000Y-96427000D01*
X181303317Y-96427000D01*
X181406718Y-96212791D01*
X181324809Y-95955578D01*
X181194295Y-95719287D01*
X181020190Y-95512998D01*
X180809186Y-95344639D01*
X180569391Y-95220680D01*
X180347209Y-95153285D01*
X180133000Y-95256892D01*
X179987000Y-95256892D01*
X179772791Y-95153285D01*
X179550609Y-95220680D01*
X179310814Y-95344639D01*
X179099810Y-95512998D01*
X178925705Y-95719287D01*
X178795191Y-95955578D01*
X178790739Y-95969559D01*
X178740282Y-95847746D01*
X178589586Y-95622213D01*
X178397787Y-95430414D01*
X178172254Y-95279718D01*
X177921656Y-95175917D01*
X177655623Y-95123000D01*
X177384377Y-95123000D01*
X177118344Y-95175917D01*
X176867746Y-95279718D01*
X176642213Y-95430414D01*
X176450414Y-95622213D01*
X176299718Y-95847746D01*
X176250000Y-95967776D01*
X176200282Y-95847746D01*
X176049586Y-95622213D01*
X175857787Y-95430414D01*
X175632254Y-95279718D01*
X175381656Y-95175917D01*
X175115623Y-95123000D01*
X174844377Y-95123000D01*
X174578344Y-95175917D01*
X174327746Y-95279718D01*
X174102213Y-95430414D01*
X173910414Y-95622213D01*
X173759718Y-95847746D01*
X173710000Y-95967776D01*
X173660282Y-95847746D01*
X173509586Y-95622213D01*
X173317787Y-95430414D01*
X173267000Y-95396479D01*
X173267000Y-93670610D01*
X173271000Y-93629999D01*
X173267000Y-93589388D01*
X173267000Y-93589376D01*
X173255034Y-93467880D01*
X173207745Y-93311990D01*
X173148341Y-93200853D01*
X173149604Y-93201376D01*
X173328699Y-93237000D01*
X173511301Y-93237000D01*
X173690396Y-93201376D01*
X173749244Y-93177000D01*
X179095451Y-93177000D01*
X179095451Y-93600000D01*
X179105626Y-93703310D01*
X179135761Y-93802650D01*
X179184696Y-93894202D01*
X179250552Y-93974448D01*
X179330798Y-94040304D01*
X179422350Y-94089239D01*
X179521690Y-94119374D01*
X179625000Y-94129549D01*
X181225000Y-94129549D01*
X181328310Y-94119374D01*
X181427650Y-94089239D01*
X181519202Y-94040304D01*
X181599448Y-93974448D01*
X181665304Y-93894202D01*
X181714239Y-93802650D01*
X181744374Y-93703310D01*
X181754549Y-93600000D01*
X181754549Y-91100000D01*
X181744374Y-90996690D01*
X181714239Y-90897350D01*
X181665304Y-90805798D01*
X181599448Y-90725552D01*
X181519202Y-90659696D01*
X181427650Y-90610761D01*
X181328310Y-90580626D01*
X181225000Y-90570451D01*
X179625000Y-90570451D01*
X179521690Y-90580626D01*
X179422350Y-90610761D01*
X179330798Y-90659696D01*
X179250552Y-90725552D01*
X179184696Y-90805798D01*
X179135761Y-90897350D01*
X179105626Y-90996690D01*
X179095451Y-91100000D01*
X179095451Y-91523000D01*
X173910726Y-91523000D01*
X173859099Y-91488504D01*
X173690396Y-91418624D01*
X173511301Y-91383000D01*
X173328699Y-91383000D01*
X173149604Y-91418624D01*
X172980901Y-91488504D01*
X172829072Y-91589952D01*
X172699952Y-91719072D01*
X172598504Y-91870901D01*
X172528624Y-92039604D01*
X172493000Y-92218699D01*
X172493000Y-92401301D01*
X172520846Y-92541292D01*
X171973551Y-91993998D01*
X171773505Y-91793952D01*
X171747606Y-91762394D01*
X171716048Y-91736495D01*
X171696051Y-91716498D01*
X171601679Y-91639048D01*
X171458010Y-91562256D01*
X171302120Y-91514967D01*
X171140000Y-91499000D01*
X170977880Y-91514967D01*
X170951399Y-91523000D01*
X167854549Y-91523000D01*
X167854549Y-91100000D01*
X167844374Y-90996690D01*
X167814239Y-90897350D01*
X167765304Y-90805798D01*
X167699448Y-90725552D01*
X167619202Y-90659696D01*
X167527650Y-90610761D01*
X167428310Y-90580626D01*
X167325000Y-90570451D01*
X165725000Y-90570451D01*
X165621690Y-90580626D01*
X165522350Y-90610761D01*
X165430798Y-90659696D01*
X165350552Y-90725552D01*
X165284696Y-90805798D01*
X165235761Y-90897350D01*
X165205626Y-90996690D01*
X165195451Y-91100000D01*
X165195451Y-93600000D01*
X165205626Y-93703310D01*
X165235761Y-93802650D01*
X165284696Y-93894202D01*
X165350552Y-93974448D01*
X165430798Y-94040304D01*
X165522350Y-94089239D01*
X165621690Y-94119374D01*
X165725000Y-94129549D01*
X167325000Y-94129549D01*
X167428310Y-94119374D01*
X167527650Y-94089239D01*
X167619202Y-94040304D01*
X167699448Y-93974448D01*
X167765304Y-93894202D01*
X167814239Y-93802650D01*
X167844374Y-93703310D01*
X167854549Y-93600000D01*
X167854549Y-93177000D01*
X170817447Y-93177000D01*
X171613001Y-93972555D01*
X171613000Y-95396479D01*
X171562213Y-95430414D01*
X171370414Y-95622213D01*
X171219718Y-95847746D01*
X171170000Y-95967776D01*
X171120282Y-95847746D01*
X170969586Y-95622213D01*
X170777787Y-95430414D01*
X170552254Y-95279718D01*
X170301656Y-95175917D01*
X170035623Y-95123000D01*
X169764377Y-95123000D01*
X169498344Y-95175917D01*
X169247746Y-95279718D01*
X169022213Y-95430414D01*
X168830414Y-95622213D01*
X168679718Y-95847746D01*
X168630000Y-95967776D01*
X168580282Y-95847746D01*
X168429586Y-95622213D01*
X168237787Y-95430414D01*
X168012254Y-95279718D01*
X167761656Y-95175917D01*
X167495623Y-95123000D01*
X167224377Y-95123000D01*
X166958344Y-95175917D01*
X166707746Y-95279718D01*
X166482213Y-95430414D01*
X166290414Y-95622213D01*
X166139718Y-95847746D01*
X166090000Y-95967776D01*
X166040282Y-95847746D01*
X165889586Y-95622213D01*
X165697787Y-95430414D01*
X165472254Y-95279718D01*
X165221656Y-95175917D01*
X164955623Y-95123000D01*
X164684377Y-95123000D01*
X164418344Y-95175917D01*
X164167746Y-95279718D01*
X163942213Y-95430414D01*
X163750414Y-95622213D01*
X163599718Y-95847746D01*
X163550000Y-95967776D01*
X163500282Y-95847746D01*
X163349586Y-95622213D01*
X163157787Y-95430414D01*
X162932254Y-95279718D01*
X162681656Y-95175917D01*
X162415623Y-95123000D01*
X162144377Y-95123000D01*
X161878344Y-95175917D01*
X161627746Y-95279718D01*
X161402213Y-95430414D01*
X161210414Y-95622213D01*
X161059718Y-95847746D01*
X161010000Y-95967776D01*
X160960282Y-95847746D01*
X160809586Y-95622213D01*
X160617787Y-95430414D01*
X160392254Y-95279718D01*
X160141656Y-95175917D01*
X159875623Y-95123000D01*
X159604377Y-95123000D01*
X159338344Y-95175917D01*
X159087746Y-95279718D01*
X158862213Y-95430414D01*
X158670414Y-95622213D01*
X158579549Y-95758202D01*
X158579549Y-95650000D01*
X158569374Y-95546690D01*
X158539239Y-95447350D01*
X158490304Y-95355798D01*
X158424448Y-95275552D01*
X158344202Y-95209696D01*
X158252650Y-95160761D01*
X158153310Y-95130626D01*
X158050000Y-95120451D01*
X157927000Y-95120451D01*
X157927000Y-89918699D01*
X181803000Y-89918699D01*
X181803000Y-90101301D01*
X181838624Y-90280396D01*
X181908504Y-90449099D01*
X182009952Y-90600928D01*
X182139072Y-90730048D01*
X182290901Y-90831496D01*
X182459604Y-90901376D01*
X182638699Y-90937000D01*
X182821301Y-90937000D01*
X183000396Y-90901376D01*
X183131670Y-90847000D01*
X184177446Y-90847000D01*
X184216695Y-90886248D01*
X184210761Y-90897350D01*
X184180626Y-90996690D01*
X184170451Y-91100000D01*
X184170451Y-93600000D01*
X184180626Y-93703310D01*
X184210761Y-93802650D01*
X184259696Y-93894202D01*
X184325552Y-93974448D01*
X184405798Y-94040304D01*
X184497350Y-94089239D01*
X184596690Y-94119374D01*
X184700000Y-94129549D01*
X186300000Y-94129549D01*
X186403310Y-94119374D01*
X186502650Y-94089239D01*
X186594202Y-94040304D01*
X186674448Y-93974448D01*
X186740304Y-93894202D01*
X186789239Y-93802650D01*
X186819374Y-93703310D01*
X186829549Y-93600000D01*
X186829549Y-91100000D01*
X186819374Y-90996690D01*
X186789239Y-90897350D01*
X186740304Y-90805798D01*
X186674448Y-90725552D01*
X186594202Y-90659696D01*
X186502650Y-90610761D01*
X186403310Y-90580626D01*
X186300000Y-90570451D01*
X186208127Y-90570451D01*
X186190952Y-90538319D01*
X186113502Y-90443947D01*
X186113496Y-90443941D01*
X186087606Y-90412394D01*
X186056058Y-90386503D01*
X185133505Y-89463952D01*
X185107606Y-89432394D01*
X184981679Y-89329048D01*
X184838010Y-89252255D01*
X184682120Y-89204966D01*
X184560624Y-89193000D01*
X184560614Y-89193000D01*
X184520000Y-89189000D01*
X184479386Y-89193000D01*
X183175828Y-89193000D01*
X183169099Y-89188504D01*
X183000396Y-89118624D01*
X182821301Y-89083000D01*
X182638699Y-89083000D01*
X182459604Y-89118624D01*
X182290901Y-89188504D01*
X182139072Y-89289952D01*
X182009952Y-89419072D01*
X181908504Y-89570901D01*
X181838624Y-89739604D01*
X181803000Y-89918699D01*
X157927000Y-89918699D01*
X157927000Y-88378699D01*
X193673000Y-88378699D01*
X193673000Y-88561301D01*
X193708624Y-88740396D01*
X193778504Y-88909099D01*
X193879952Y-89060928D01*
X194009072Y-89190048D01*
X194160901Y-89291496D01*
X194329604Y-89361376D01*
X194508699Y-89397000D01*
X194691301Y-89397000D01*
X194870396Y-89361376D01*
X195025811Y-89297000D01*
X195417447Y-89297000D01*
X196013000Y-89892555D01*
X196013001Y-91324377D01*
X196009000Y-91365000D01*
X196024967Y-91527120D01*
X196072256Y-91683010D01*
X196149048Y-91826679D01*
X196226498Y-91921051D01*
X196252395Y-91952606D01*
X196283947Y-91978500D01*
X197211503Y-92906058D01*
X197237394Y-92937606D01*
X197268941Y-92963496D01*
X197268947Y-92963502D01*
X197363319Y-93040951D01*
X197363321Y-93040952D01*
X197506990Y-93117745D01*
X197662880Y-93165034D01*
X197784376Y-93177000D01*
X197784388Y-93177000D01*
X197824999Y-93181000D01*
X197865610Y-93177000D01*
X198070451Y-93177000D01*
X198070451Y-93600000D01*
X198080626Y-93703310D01*
X198110761Y-93802650D01*
X198159696Y-93894202D01*
X198225552Y-93974448D01*
X198305798Y-94040304D01*
X198397350Y-94089239D01*
X198496690Y-94119374D01*
X198600000Y-94129549D01*
X200200000Y-94129549D01*
X200303310Y-94119374D01*
X200402650Y-94089239D01*
X200494202Y-94040304D01*
X200574448Y-93974448D01*
X200640304Y-93894202D01*
X200689239Y-93802650D01*
X200719374Y-93703310D01*
X200729549Y-93600000D01*
X200729549Y-91100000D01*
X200719374Y-90996690D01*
X200689239Y-90897350D01*
X200640304Y-90805798D01*
X200574448Y-90725552D01*
X200494202Y-90659696D01*
X200402650Y-90610761D01*
X200303310Y-90580626D01*
X200200000Y-90570451D01*
X198600000Y-90570451D01*
X198496690Y-90580626D01*
X198397350Y-90610761D01*
X198305798Y-90659696D01*
X198225552Y-90725552D01*
X198159696Y-90805798D01*
X198110761Y-90897350D01*
X198080626Y-90996690D01*
X198070451Y-91100000D01*
X198070451Y-91425897D01*
X197667000Y-91022446D01*
X197667000Y-89590614D01*
X197671000Y-89550000D01*
X197667000Y-89509386D01*
X197667000Y-89509376D01*
X197655034Y-89387880D01*
X197607745Y-89231990D01*
X197550033Y-89124018D01*
X197530952Y-89088320D01*
X197453503Y-88993948D01*
X197453496Y-88993941D01*
X197427606Y-88962394D01*
X197396059Y-88936504D01*
X196373505Y-87913952D01*
X196347606Y-87882394D01*
X196221679Y-87779048D01*
X196078010Y-87702255D01*
X195922120Y-87654966D01*
X195800624Y-87643000D01*
X195800614Y-87643000D01*
X195760000Y-87639000D01*
X195719386Y-87643000D01*
X195025811Y-87643000D01*
X194870396Y-87578624D01*
X194691301Y-87543000D01*
X194508699Y-87543000D01*
X194329604Y-87578624D01*
X194160901Y-87648504D01*
X194009072Y-87749952D01*
X193879952Y-87879072D01*
X193778504Y-88030901D01*
X193708624Y-88199604D01*
X193673000Y-88378699D01*
X157927000Y-88378699D01*
X157927000Y-86195705D01*
X157930517Y-86159999D01*
X157922320Y-86076780D01*
X157916480Y-86017483D01*
X157874910Y-85880443D01*
X157807403Y-85754147D01*
X157716553Y-85643446D01*
X157688816Y-85620683D01*
X156819326Y-84751193D01*
X156796554Y-84723446D01*
X156685853Y-84632597D01*
X156559557Y-84565090D01*
X156422517Y-84523520D01*
X156315708Y-84513000D01*
X156280000Y-84509483D01*
X156244292Y-84513000D01*
X153057062Y-84513000D01*
X153044204Y-84502448D01*
X152929312Y-84441037D01*
X152804647Y-84403220D01*
X152675000Y-84390451D01*
X152405000Y-84390451D01*
X152275353Y-84403220D01*
X152150688Y-84441037D01*
X152035796Y-84502448D01*
X152030000Y-84507205D01*
X152024204Y-84502448D01*
X151909312Y-84441037D01*
X151784647Y-84403220D01*
X151655000Y-84390451D01*
X151385000Y-84390451D01*
X151255353Y-84403220D01*
X151130688Y-84441037D01*
X151015796Y-84502448D01*
X151002938Y-84513000D01*
X150654549Y-84513000D01*
X150654549Y-84350000D01*
X150644374Y-84246690D01*
X150614239Y-84147350D01*
X150565304Y-84055798D01*
X150540029Y-84025000D01*
X150565305Y-83994202D01*
X150614240Y-83902650D01*
X150644375Y-83803310D01*
X150654550Y-83700000D01*
X150652000Y-83104750D01*
X150520250Y-82973000D01*
X149373000Y-82973000D01*
X149373000Y-82993000D01*
X149227000Y-82993000D01*
X149227000Y-82973000D01*
X149207000Y-82973000D01*
X149207000Y-82827000D01*
X149227000Y-82827000D01*
X149227000Y-82807000D01*
X149373000Y-82807000D01*
X149373000Y-82827000D01*
X150520250Y-82827000D01*
X150652000Y-82695250D01*
X150652078Y-82677001D01*
X203323000Y-82677001D01*
X203323001Y-97023001D01*
G37*
X203323001Y-97023001D02*
X183580794Y-97023001D01*
X183550000Y-97019968D01*
X183519206Y-97023001D01*
X183427087Y-97032074D01*
X183308897Y-97067926D01*
X183199972Y-97126148D01*
X183104499Y-97204500D01*
X183026147Y-97299973D01*
X182967925Y-97408898D01*
X182932073Y-97527088D01*
X182919967Y-97650001D01*
X182923000Y-97680795D01*
X182923001Y-98323000D01*
X152591663Y-98323000D01*
X152622606Y-98297606D01*
X152648505Y-98266048D01*
X153056053Y-97858501D01*
X153087606Y-97832606D01*
X153113502Y-97801052D01*
X153190952Y-97706681D01*
X153267744Y-97563011D01*
X153267745Y-97563010D01*
X153315034Y-97407120D01*
X153327000Y-97285624D01*
X153327000Y-97285612D01*
X153331000Y-97245001D01*
X153327000Y-97204390D01*
X153327000Y-91342554D01*
X153402554Y-91267000D01*
X153914189Y-91267000D01*
X154069604Y-91331376D01*
X154248699Y-91367000D01*
X154431301Y-91367000D01*
X154610396Y-91331376D01*
X154779099Y-91261496D01*
X154930928Y-91160048D01*
X155060048Y-91030928D01*
X155161496Y-90879099D01*
X155231376Y-90710396D01*
X155267000Y-90531301D01*
X155267000Y-90348699D01*
X155231376Y-90169604D01*
X155161496Y-90000901D01*
X155060048Y-89849072D01*
X154930928Y-89719952D01*
X154779099Y-89618504D01*
X154610396Y-89548624D01*
X154431301Y-89513000D01*
X154248699Y-89513000D01*
X154069604Y-89548624D01*
X153914189Y-89613000D01*
X153100614Y-89613000D01*
X153060000Y-89609000D01*
X153019386Y-89613000D01*
X153019376Y-89613000D01*
X152897880Y-89624966D01*
X152808432Y-89652100D01*
X152741989Y-89672255D01*
X152598320Y-89749048D01*
X152503948Y-89826497D01*
X152503941Y-89826504D01*
X152472394Y-89852394D01*
X152446503Y-89883942D01*
X151943951Y-90386495D01*
X151912394Y-90412394D01*
X151873603Y-90459661D01*
X151809048Y-90538321D01*
X151772015Y-90607606D01*
X151732255Y-90681991D01*
X151684966Y-90837881D01*
X151673000Y-90959377D01*
X151673000Y-90959386D01*
X151669000Y-91000000D01*
X151673000Y-91040614D01*
X151673001Y-96883000D01*
X144907000Y-96883000D01*
X144907000Y-95277001D01*
X146517068Y-95277001D01*
X146520085Y-95281408D01*
X146551554Y-95328771D01*
X146557128Y-95335507D01*
X146557131Y-95335512D01*
X146557135Y-95335516D01*
X146619861Y-95410269D01*
X146660446Y-95450012D01*
X146700502Y-95490349D01*
X146707286Y-95495882D01*
X146707291Y-95495886D01*
X146707296Y-95495889D01*
X146783337Y-95557028D01*
X146830851Y-95588121D01*
X146878000Y-95619923D01*
X146885729Y-95624033D01*
X146972208Y-95669243D01*
X147024896Y-95690530D01*
X147077286Y-95712553D01*
X147085667Y-95715084D01*
X147179279Y-95742635D01*
X147235056Y-95753275D01*
X147290772Y-95764712D01*
X147299484Y-95765566D01*
X147396666Y-95774410D01*
X147453458Y-95774013D01*
X147510317Y-95774410D01*
X147519029Y-95773555D01*
X147519032Y-95773555D01*
X147519035Y-95773554D01*
X147616078Y-95763355D01*
X147671729Y-95751932D01*
X147727573Y-95741278D01*
X147735943Y-95738751D01*
X147735948Y-95738750D01*
X147735952Y-95738748D01*
X147829172Y-95709891D01*
X147881535Y-95687879D01*
X147934240Y-95666585D01*
X147941970Y-95662475D01*
X148027809Y-95616063D01*
X148074894Y-95584304D01*
X148122479Y-95553165D01*
X148129263Y-95547632D01*
X148204452Y-95485430D01*
X148244480Y-95445122D01*
X148285099Y-95405344D01*
X148290679Y-95398598D01*
X148352354Y-95322976D01*
X148383787Y-95275664D01*
X148415903Y-95228761D01*
X148420067Y-95221060D01*
X148465880Y-95134900D01*
X148487539Y-95082352D01*
X148509924Y-95030124D01*
X148512513Y-95021761D01*
X148540718Y-94928342D01*
X148551753Y-94872611D01*
X148563572Y-94817006D01*
X148564486Y-94808306D01*
X148564487Y-94808303D01*
X148564487Y-94808300D01*
X148574009Y-94711183D01*
X148574009Y-94711162D01*
X148577000Y-94680794D01*
X148577000Y-93729549D01*
X150125000Y-93729549D01*
X150228310Y-93719374D01*
X150327650Y-93689239D01*
X150419202Y-93640304D01*
X150499448Y-93574448D01*
X150565304Y-93494202D01*
X150614239Y-93402650D01*
X150644374Y-93303310D01*
X150654549Y-93200000D01*
X150654549Y-91400000D01*
X150644374Y-91296690D01*
X150614239Y-91197350D01*
X150565304Y-91105798D01*
X150499448Y-91025552D01*
X150419202Y-90959696D01*
X150327650Y-90910761D01*
X150228310Y-90880626D01*
X150125000Y-90870451D01*
X149391337Y-90870451D01*
X149421788Y-90823918D01*
X149453601Y-90776752D01*
X149457710Y-90769023D01*
X149511961Y-90665249D01*
X149533237Y-90612588D01*
X149555270Y-90560174D01*
X149557800Y-90551793D01*
X149590862Y-90439458D01*
X149601514Y-90383619D01*
X149612937Y-90327969D01*
X149613792Y-90319256D01*
X149624405Y-90202638D01*
X149624008Y-90145845D01*
X149624405Y-90088986D01*
X149623550Y-90080273D01*
X149611310Y-89963816D01*
X149599889Y-89908173D01*
X149589235Y-89852326D01*
X149586705Y-89843946D01*
X149552078Y-89732083D01*
X149530050Y-89679681D01*
X149508769Y-89627008D01*
X149504659Y-89619279D01*
X149504658Y-89619276D01*
X149504655Y-89619271D01*
X149456143Y-89529549D01*
X150125000Y-89529549D01*
X150228310Y-89519374D01*
X150327650Y-89489239D01*
X150419202Y-89440304D01*
X150499448Y-89374448D01*
X150565304Y-89294202D01*
X150614239Y-89202650D01*
X150644374Y-89103310D01*
X150654549Y-89000000D01*
X150654549Y-87200000D01*
X150644374Y-87096690D01*
X150614239Y-86997350D01*
X150565304Y-86905798D01*
X150499448Y-86825552D01*
X150419202Y-86759696D01*
X150327650Y-86710761D01*
X150228310Y-86680626D01*
X150171187Y-86675000D01*
X150228310Y-86669374D01*
X150327650Y-86639239D01*
X150419202Y-86590304D01*
X150499448Y-86524448D01*
X150565304Y-86444202D01*
X150614239Y-86352650D01*
X150644374Y-86253310D01*
X150654549Y-86150000D01*
X150654549Y-85967000D01*
X151002938Y-85967000D01*
X151015796Y-85977552D01*
X151130688Y-86038963D01*
X151255353Y-86076780D01*
X151385000Y-86089549D01*
X151655000Y-86089549D01*
X151784647Y-86076780D01*
X151909312Y-86038963D01*
X152024204Y-85977552D01*
X152030000Y-85972795D01*
X152035796Y-85977552D01*
X152150688Y-86038963D01*
X152275353Y-86076780D01*
X152405000Y-86089549D01*
X152675000Y-86089549D01*
X152804647Y-86076780D01*
X152929312Y-86038963D01*
X153044204Y-85977552D01*
X153057062Y-85967000D01*
X155978868Y-85967000D01*
X156473000Y-86461133D01*
X156473001Y-95120451D01*
X156350000Y-95120451D01*
X156246690Y-95130626D01*
X156147350Y-95160761D01*
X156055798Y-95209696D01*
X155975552Y-95275552D01*
X155909696Y-95355798D01*
X155860761Y-95447350D01*
X155830626Y-95546690D01*
X155820451Y-95650000D01*
X155820451Y-97350000D01*
X155830626Y-97453310D01*
X155860761Y-97552650D01*
X155909696Y-97644202D01*
X155975552Y-97724448D01*
X156055798Y-97790304D01*
X156147350Y-97839239D01*
X156246690Y-97869374D01*
X156350000Y-97879549D01*
X158050000Y-97879549D01*
X158153310Y-97869374D01*
X158252650Y-97839239D01*
X158344202Y-97790304D01*
X158424448Y-97724448D01*
X158490304Y-97644202D01*
X158539239Y-97552650D01*
X158569374Y-97453310D01*
X158579549Y-97350000D01*
X158579549Y-97241798D01*
X158670414Y-97377787D01*
X158862213Y-97569586D01*
X159087746Y-97720282D01*
X159338344Y-97824083D01*
X159604377Y-97877000D01*
X159875623Y-97877000D01*
X160141656Y-97824083D01*
X160392254Y-97720282D01*
X160617787Y-97569586D01*
X160809586Y-97377787D01*
X160960282Y-97152254D01*
X161010000Y-97032224D01*
X161059718Y-97152254D01*
X161210414Y-97377787D01*
X161402213Y-97569586D01*
X161627746Y-97720282D01*
X161878344Y-97824083D01*
X162144377Y-97877000D01*
X162415623Y-97877000D01*
X162681656Y-97824083D01*
X162932254Y-97720282D01*
X163157787Y-97569586D01*
X163349586Y-97377787D01*
X163500282Y-97152254D01*
X163550000Y-97032224D01*
X163599718Y-97152254D01*
X163750414Y-97377787D01*
X163942213Y-97569586D01*
X164167746Y-97720282D01*
X164418344Y-97824083D01*
X164684377Y-97877000D01*
X164955623Y-97877000D01*
X165221656Y-97824083D01*
X165472254Y-97720282D01*
X165697787Y-97569586D01*
X165889586Y-97377787D01*
X166040282Y-97152254D01*
X166090000Y-97032224D01*
X166139718Y-97152254D01*
X166290414Y-97377787D01*
X166482213Y-97569586D01*
X166707746Y-97720282D01*
X166958344Y-97824083D01*
X167224377Y-97877000D01*
X167495623Y-97877000D01*
X167761656Y-97824083D01*
X168012254Y-97720282D01*
X168237787Y-97569586D01*
X168429586Y-97377787D01*
X168580282Y-97152254D01*
X168630000Y-97032224D01*
X168679718Y-97152254D01*
X168830414Y-97377787D01*
X169022213Y-97569586D01*
X169247746Y-97720282D01*
X169498344Y-97824083D01*
X169764377Y-97877000D01*
X170035623Y-97877000D01*
X170301656Y-97824083D01*
X170552254Y-97720282D01*
X170777787Y-97569586D01*
X170969586Y-97377787D01*
X171120282Y-97152254D01*
X171170000Y-97032224D01*
X171219718Y-97152254D01*
X171370414Y-97377787D01*
X171562213Y-97569586D01*
X171787746Y-97720282D01*
X172038344Y-97824083D01*
X172304377Y-97877000D01*
X172575623Y-97877000D01*
X172841656Y-97824083D01*
X173092254Y-97720282D01*
X173317787Y-97569586D01*
X173509586Y-97377787D01*
X173660282Y-97152254D01*
X173710000Y-97032224D01*
X173759718Y-97152254D01*
X173910414Y-97377787D01*
X174102213Y-97569586D01*
X174327746Y-97720282D01*
X174578344Y-97824083D01*
X174844377Y-97877000D01*
X175115623Y-97877000D01*
X175381656Y-97824083D01*
X175632254Y-97720282D01*
X175857787Y-97569586D01*
X176049586Y-97377787D01*
X176200282Y-97152254D01*
X176250000Y-97032224D01*
X176299718Y-97152254D01*
X176450414Y-97377787D01*
X176642213Y-97569586D01*
X176867746Y-97720282D01*
X177118344Y-97824083D01*
X177384377Y-97877000D01*
X177655623Y-97877000D01*
X177921656Y-97824083D01*
X178172254Y-97720282D01*
X178397787Y-97569586D01*
X178589586Y-97377787D01*
X178740282Y-97152254D01*
X178790739Y-97030441D01*
X178795191Y-97044422D01*
X178925705Y-97280713D01*
X179099810Y-97487002D01*
X179310814Y-97655361D01*
X179550609Y-97779320D01*
X179772791Y-97846715D01*
X179987000Y-97743108D01*
X179987000Y-96573000D01*
X180133000Y-96573000D01*
X180133000Y-97743108D01*
X180347209Y-97846715D01*
X180569391Y-97779320D01*
X180809186Y-97655361D01*
X181020190Y-97487002D01*
X181194295Y-97280713D01*
X181324809Y-97044422D01*
X181406718Y-96787209D01*
X181303317Y-96573000D01*
X180133000Y-96573000D01*
X179987000Y-96573000D01*
X179967000Y-96573000D01*
X179967000Y-96427000D01*
X179987000Y-96427000D01*
X179987000Y-95256892D01*
X180133000Y-95256892D01*
X180133000Y-96427000D01*
X181303317Y-96427000D01*
X181406718Y-96212791D01*
X181324809Y-95955578D01*
X181194295Y-95719287D01*
X181020190Y-95512998D01*
X180809186Y-95344639D01*
X180569391Y-95220680D01*
X180347209Y-95153285D01*
X180133000Y-95256892D01*
X179987000Y-95256892D01*
X179772791Y-95153285D01*
X179550609Y-95220680D01*
X179310814Y-95344639D01*
X179099810Y-95512998D01*
X178925705Y-95719287D01*
X178795191Y-95955578D01*
X178790739Y-95969559D01*
X178740282Y-95847746D01*
X178589586Y-95622213D01*
X178397787Y-95430414D01*
X178172254Y-95279718D01*
X177921656Y-95175917D01*
X177655623Y-95123000D01*
X177384377Y-95123000D01*
X177118344Y-95175917D01*
X176867746Y-95279718D01*
X176642213Y-95430414D01*
X176450414Y-95622213D01*
X176299718Y-95847746D01*
X176250000Y-95967776D01*
X176200282Y-95847746D01*
X176049586Y-95622213D01*
X175857787Y-95430414D01*
X175632254Y-95279718D01*
X175381656Y-95175917D01*
X175115623Y-95123000D01*
X174844377Y-95123000D01*
X174578344Y-95175917D01*
X174327746Y-95279718D01*
X174102213Y-95430414D01*
X173910414Y-95622213D01*
X173759718Y-95847746D01*
X173710000Y-95967776D01*
X173660282Y-95847746D01*
X173509586Y-95622213D01*
X173317787Y-95430414D01*
X173267000Y-95396479D01*
X173267000Y-93670610D01*
X173271000Y-93629999D01*
X173267000Y-93589388D01*
X173267000Y-93589376D01*
X173255034Y-93467880D01*
X173207745Y-93311990D01*
X173148341Y-93200853D01*
X173149604Y-93201376D01*
X173328699Y-93237000D01*
X173511301Y-93237000D01*
X173690396Y-93201376D01*
X173749244Y-93177000D01*
X179095451Y-93177000D01*
X179095451Y-93600000D01*
X179105626Y-93703310D01*
X179135761Y-93802650D01*
X179184696Y-93894202D01*
X179250552Y-93974448D01*
X179330798Y-94040304D01*
X179422350Y-94089239D01*
X179521690Y-94119374D01*
X179625000Y-94129549D01*
X181225000Y-94129549D01*
X181328310Y-94119374D01*
X181427650Y-94089239D01*
X181519202Y-94040304D01*
X181599448Y-93974448D01*
X181665304Y-93894202D01*
X181714239Y-93802650D01*
X181744374Y-93703310D01*
X181754549Y-93600000D01*
X181754549Y-91100000D01*
X181744374Y-90996690D01*
X181714239Y-90897350D01*
X181665304Y-90805798D01*
X181599448Y-90725552D01*
X181519202Y-90659696D01*
X181427650Y-90610761D01*
X181328310Y-90580626D01*
X181225000Y-90570451D01*
X179625000Y-90570451D01*
X179521690Y-90580626D01*
X179422350Y-90610761D01*
X179330798Y-90659696D01*
X179250552Y-90725552D01*
X179184696Y-90805798D01*
X179135761Y-90897350D01*
X179105626Y-90996690D01*
X179095451Y-91100000D01*
X179095451Y-91523000D01*
X173910726Y-91523000D01*
X173859099Y-91488504D01*
X173690396Y-91418624D01*
X173511301Y-91383000D01*
X173328699Y-91383000D01*
X173149604Y-91418624D01*
X172980901Y-91488504D01*
X172829072Y-91589952D01*
X172699952Y-91719072D01*
X172598504Y-91870901D01*
X172528624Y-92039604D01*
X172493000Y-92218699D01*
X172493000Y-92401301D01*
X172520846Y-92541292D01*
X171973551Y-91993998D01*
X171773505Y-91793952D01*
X171747606Y-91762394D01*
X171716048Y-91736495D01*
X171696051Y-91716498D01*
X171601679Y-91639048D01*
X171458010Y-91562256D01*
X171302120Y-91514967D01*
X171140000Y-91499000D01*
X170977880Y-91514967D01*
X170951399Y-91523000D01*
X167854549Y-91523000D01*
X167854549Y-91100000D01*
X167844374Y-90996690D01*
X167814239Y-90897350D01*
X167765304Y-90805798D01*
X167699448Y-90725552D01*
X167619202Y-90659696D01*
X167527650Y-90610761D01*
X167428310Y-90580626D01*
X167325000Y-90570451D01*
X165725000Y-90570451D01*
X165621690Y-90580626D01*
X165522350Y-90610761D01*
X165430798Y-90659696D01*
X165350552Y-90725552D01*
X165284696Y-90805798D01*
X165235761Y-90897350D01*
X165205626Y-90996690D01*
X165195451Y-91100000D01*
X165195451Y-93600000D01*
X165205626Y-93703310D01*
X165235761Y-93802650D01*
X165284696Y-93894202D01*
X165350552Y-93974448D01*
X165430798Y-94040304D01*
X165522350Y-94089239D01*
X165621690Y-94119374D01*
X165725000Y-94129549D01*
X167325000Y-94129549D01*
X167428310Y-94119374D01*
X167527650Y-94089239D01*
X167619202Y-94040304D01*
X167699448Y-93974448D01*
X167765304Y-93894202D01*
X167814239Y-93802650D01*
X167844374Y-93703310D01*
X167854549Y-93600000D01*
X167854549Y-93177000D01*
X170817447Y-93177000D01*
X171613001Y-93972555D01*
X171613000Y-95396479D01*
X171562213Y-95430414D01*
X171370414Y-95622213D01*
X171219718Y-95847746D01*
X171170000Y-95967776D01*
X171120282Y-95847746D01*
X170969586Y-95622213D01*
X170777787Y-95430414D01*
X170552254Y-95279718D01*
X170301656Y-95175917D01*
X170035623Y-95123000D01*
X169764377Y-95123000D01*
X169498344Y-95175917D01*
X169247746Y-95279718D01*
X169022213Y-95430414D01*
X168830414Y-95622213D01*
X168679718Y-95847746D01*
X168630000Y-95967776D01*
X168580282Y-95847746D01*
X168429586Y-95622213D01*
X168237787Y-95430414D01*
X168012254Y-95279718D01*
X167761656Y-95175917D01*
X167495623Y-95123000D01*
X167224377Y-95123000D01*
X166958344Y-95175917D01*
X166707746Y-95279718D01*
X166482213Y-95430414D01*
X166290414Y-95622213D01*
X166139718Y-95847746D01*
X166090000Y-95967776D01*
X166040282Y-95847746D01*
X165889586Y-95622213D01*
X165697787Y-95430414D01*
X165472254Y-95279718D01*
X165221656Y-95175917D01*
X164955623Y-95123000D01*
X164684377Y-95123000D01*
X164418344Y-95175917D01*
X164167746Y-95279718D01*
X163942213Y-95430414D01*
X163750414Y-95622213D01*
X163599718Y-95847746D01*
X163550000Y-95967776D01*
X163500282Y-95847746D01*
X163349586Y-95622213D01*
X163157787Y-95430414D01*
X162932254Y-95279718D01*
X162681656Y-95175917D01*
X162415623Y-95123000D01*
X162144377Y-95123000D01*
X161878344Y-95175917D01*
X161627746Y-95279718D01*
X161402213Y-95430414D01*
X161210414Y-95622213D01*
X161059718Y-95847746D01*
X161010000Y-95967776D01*
X160960282Y-95847746D01*
X160809586Y-95622213D01*
X160617787Y-95430414D01*
X160392254Y-95279718D01*
X160141656Y-95175917D01*
X159875623Y-95123000D01*
X159604377Y-95123000D01*
X159338344Y-95175917D01*
X159087746Y-95279718D01*
X158862213Y-95430414D01*
X158670414Y-95622213D01*
X158579549Y-95758202D01*
X158579549Y-95650000D01*
X158569374Y-95546690D01*
X158539239Y-95447350D01*
X158490304Y-95355798D01*
X158424448Y-95275552D01*
X158344202Y-95209696D01*
X158252650Y-95160761D01*
X158153310Y-95130626D01*
X158050000Y-95120451D01*
X157927000Y-95120451D01*
X157927000Y-89918699D01*
X181803000Y-89918699D01*
X181803000Y-90101301D01*
X181838624Y-90280396D01*
X181908504Y-90449099D01*
X182009952Y-90600928D01*
X182139072Y-90730048D01*
X182290901Y-90831496D01*
X182459604Y-90901376D01*
X182638699Y-90937000D01*
X182821301Y-90937000D01*
X183000396Y-90901376D01*
X183131670Y-90847000D01*
X184177446Y-90847000D01*
X184216695Y-90886248D01*
X184210761Y-90897350D01*
X184180626Y-90996690D01*
X184170451Y-91100000D01*
X184170451Y-93600000D01*
X184180626Y-93703310D01*
X184210761Y-93802650D01*
X184259696Y-93894202D01*
X184325552Y-93974448D01*
X184405798Y-94040304D01*
X184497350Y-94089239D01*
X184596690Y-94119374D01*
X184700000Y-94129549D01*
X186300000Y-94129549D01*
X186403310Y-94119374D01*
X186502650Y-94089239D01*
X186594202Y-94040304D01*
X186674448Y-93974448D01*
X186740304Y-93894202D01*
X186789239Y-93802650D01*
X186819374Y-93703310D01*
X186829549Y-93600000D01*
X186829549Y-91100000D01*
X186819374Y-90996690D01*
X186789239Y-90897350D01*
X186740304Y-90805798D01*
X186674448Y-90725552D01*
X186594202Y-90659696D01*
X186502650Y-90610761D01*
X186403310Y-90580626D01*
X186300000Y-90570451D01*
X186208127Y-90570451D01*
X186190952Y-90538319D01*
X186113502Y-90443947D01*
X186113496Y-90443941D01*
X186087606Y-90412394D01*
X186056058Y-90386503D01*
X185133505Y-89463952D01*
X185107606Y-89432394D01*
X184981679Y-89329048D01*
X184838010Y-89252255D01*
X184682120Y-89204966D01*
X184560624Y-89193000D01*
X184560614Y-89193000D01*
X184520000Y-89189000D01*
X184479386Y-89193000D01*
X183175828Y-89193000D01*
X183169099Y-89188504D01*
X183000396Y-89118624D01*
X182821301Y-89083000D01*
X182638699Y-89083000D01*
X182459604Y-89118624D01*
X182290901Y-89188504D01*
X182139072Y-89289952D01*
X182009952Y-89419072D01*
X181908504Y-89570901D01*
X181838624Y-89739604D01*
X181803000Y-89918699D01*
X157927000Y-89918699D01*
X157927000Y-88378699D01*
X193673000Y-88378699D01*
X193673000Y-88561301D01*
X193708624Y-88740396D01*
X193778504Y-88909099D01*
X193879952Y-89060928D01*
X194009072Y-89190048D01*
X194160901Y-89291496D01*
X194329604Y-89361376D01*
X194508699Y-89397000D01*
X194691301Y-89397000D01*
X194870396Y-89361376D01*
X195025811Y-89297000D01*
X195417447Y-89297000D01*
X196013000Y-89892555D01*
X196013001Y-91324377D01*
X196009000Y-91365000D01*
X196024967Y-91527120D01*
X196072256Y-91683010D01*
X196149048Y-91826679D01*
X196226498Y-91921051D01*
X196252395Y-91952606D01*
X196283947Y-91978500D01*
X197211503Y-92906058D01*
X197237394Y-92937606D01*
X197268941Y-92963496D01*
X197268947Y-92963502D01*
X197363319Y-93040951D01*
X197363321Y-93040952D01*
X197506990Y-93117745D01*
X197662880Y-93165034D01*
X197784376Y-93177000D01*
X197784388Y-93177000D01*
X197824999Y-93181000D01*
X197865610Y-93177000D01*
X198070451Y-93177000D01*
X198070451Y-93600000D01*
X198080626Y-93703310D01*
X198110761Y-93802650D01*
X198159696Y-93894202D01*
X198225552Y-93974448D01*
X198305798Y-94040304D01*
X198397350Y-94089239D01*
X198496690Y-94119374D01*
X198600000Y-94129549D01*
X200200000Y-94129549D01*
X200303310Y-94119374D01*
X200402650Y-94089239D01*
X200494202Y-94040304D01*
X200574448Y-93974448D01*
X200640304Y-93894202D01*
X200689239Y-93802650D01*
X200719374Y-93703310D01*
X200729549Y-93600000D01*
X200729549Y-91100000D01*
X200719374Y-90996690D01*
X200689239Y-90897350D01*
X200640304Y-90805798D01*
X200574448Y-90725552D01*
X200494202Y-90659696D01*
X200402650Y-90610761D01*
X200303310Y-90580626D01*
X200200000Y-90570451D01*
X198600000Y-90570451D01*
X198496690Y-90580626D01*
X198397350Y-90610761D01*
X198305798Y-90659696D01*
X198225552Y-90725552D01*
X198159696Y-90805798D01*
X198110761Y-90897350D01*
X198080626Y-90996690D01*
X198070451Y-91100000D01*
X198070451Y-91425897D01*
X197667000Y-91022446D01*
X197667000Y-89590614D01*
X197671000Y-89550000D01*
X197667000Y-89509386D01*
X197667000Y-89509376D01*
X197655034Y-89387880D01*
X197607745Y-89231990D01*
X197550033Y-89124018D01*
X197530952Y-89088320D01*
X197453503Y-88993948D01*
X197453496Y-88993941D01*
X197427606Y-88962394D01*
X197396059Y-88936504D01*
X196373505Y-87913952D01*
X196347606Y-87882394D01*
X196221679Y-87779048D01*
X196078010Y-87702255D01*
X195922120Y-87654966D01*
X195800624Y-87643000D01*
X195800614Y-87643000D01*
X195760000Y-87639000D01*
X195719386Y-87643000D01*
X195025811Y-87643000D01*
X194870396Y-87578624D01*
X194691301Y-87543000D01*
X194508699Y-87543000D01*
X194329604Y-87578624D01*
X194160901Y-87648504D01*
X194009072Y-87749952D01*
X193879952Y-87879072D01*
X193778504Y-88030901D01*
X193708624Y-88199604D01*
X193673000Y-88378699D01*
X157927000Y-88378699D01*
X157927000Y-86195705D01*
X157930517Y-86159999D01*
X157922320Y-86076780D01*
X157916480Y-86017483D01*
X157874910Y-85880443D01*
X157807403Y-85754147D01*
X157716553Y-85643446D01*
X157688816Y-85620683D01*
X156819326Y-84751193D01*
X156796554Y-84723446D01*
X156685853Y-84632597D01*
X156559557Y-84565090D01*
X156422517Y-84523520D01*
X156315708Y-84513000D01*
X156280000Y-84509483D01*
X156244292Y-84513000D01*
X153057062Y-84513000D01*
X153044204Y-84502448D01*
X152929312Y-84441037D01*
X152804647Y-84403220D01*
X152675000Y-84390451D01*
X152405000Y-84390451D01*
X152275353Y-84403220D01*
X152150688Y-84441037D01*
X152035796Y-84502448D01*
X152030000Y-84507205D01*
X152024204Y-84502448D01*
X151909312Y-84441037D01*
X151784647Y-84403220D01*
X151655000Y-84390451D01*
X151385000Y-84390451D01*
X151255353Y-84403220D01*
X151130688Y-84441037D01*
X151015796Y-84502448D01*
X151002938Y-84513000D01*
X150654549Y-84513000D01*
X150654549Y-84350000D01*
X150644374Y-84246690D01*
X150614239Y-84147350D01*
X150565304Y-84055798D01*
X150540029Y-84025000D01*
X150565305Y-83994202D01*
X150614240Y-83902650D01*
X150644375Y-83803310D01*
X150654550Y-83700000D01*
X150652000Y-83104750D01*
X150520250Y-82973000D01*
X149373000Y-82973000D01*
X149373000Y-82993000D01*
X149227000Y-82993000D01*
X149227000Y-82973000D01*
X149207000Y-82973000D01*
X149207000Y-82827000D01*
X149227000Y-82827000D01*
X149227000Y-82807000D01*
X149373000Y-82807000D01*
X149373000Y-82827000D01*
X150520250Y-82827000D01*
X150652000Y-82695250D01*
X150652078Y-82677001D01*
X203323000Y-82677001D01*
X203323001Y-97023001D01*
%TD*%
M02*
