%TF.GenerationSoftware,KiCad,Pcbnew,(5.1.6)-1*%
%TF.CreationDate,2020-11-07T16:44:32+09:00*%
%TF.ProjectId,FlightComputer-Extra,466c6967-6874-4436-9f6d-70757465722d,rev?*%
%TF.SameCoordinates,Original*%
%TF.FileFunction,Copper,L2,Bot*%
%TF.FilePolarity,Positive*%
%FSLAX46Y46*%
G04 Gerber Fmt 4.6, Leading zero omitted, Abs format (unit mm)*
G04 Created by KiCad (PCBNEW (5.1.6)-1) date 2020-11-07 16:44:32*
%MOMM*%
%LPD*%
G01*
G04 APERTURE LIST*
%TA.AperFunction,ComponentPad*%
%ADD10O,1.700000X1.850000*%
%TD*%
%TA.AperFunction,ComponentPad*%
%ADD11O,1.700000X1.700000*%
%TD*%
%TA.AperFunction,ComponentPad*%
%ADD12R,1.700000X1.700000*%
%TD*%
%TA.AperFunction,ViaPad*%
%ADD13C,0.800000*%
%TD*%
%TA.AperFunction,Conductor*%
%ADD14C,0.600000*%
%TD*%
%TA.AperFunction,Conductor*%
%ADD15C,0.250000*%
%TD*%
G04 APERTURE END LIST*
D10*
%TO.P,J5,4*%
%TO.N,GND*%
X113000000Y-88800000D03*
%TO.P,J5,3*%
%TO.N,Net-(J5-Pad3)*%
X115500000Y-88800000D03*
%TO.P,J5,2*%
%TO.N,Net-(J5-Pad2)*%
X118000000Y-88800000D03*
%TO.P,J5,1*%
%TO.N,VCC_PERIH*%
%TA.AperFunction,ComponentPad*%
G36*
G01*
X121350000Y-88125000D02*
X121350000Y-89475000D01*
G75*
G02*
X121100000Y-89725000I-250000J0D01*
G01*
X119900000Y-89725000D01*
G75*
G02*
X119650000Y-89475000I0J250000D01*
G01*
X119650000Y-88125000D01*
G75*
G02*
X119900000Y-87875000I250000J0D01*
G01*
X121100000Y-87875000D01*
G75*
G02*
X121350000Y-88125000I0J-250000D01*
G01*
G37*
%TD.AperFunction*%
%TD*%
D11*
%TO.P,J3,10*%
%TO.N,GND*%
X122660000Y-96400000D03*
%TO.P,J3,9*%
%TO.N,Net-(J3-Pad9)*%
X120120000Y-96400000D03*
%TO.P,J3,8*%
%TO.N,/DEBUG_TX*%
X117580000Y-96400000D03*
%TO.P,J3,7*%
%TO.N,/DEBUG_RX*%
X115040000Y-96400000D03*
%TO.P,J3,6*%
%TO.N,Net-(J3-Pad6)*%
X112500000Y-96400000D03*
%TO.P,J3,5*%
%TO.N,/GPS_TX*%
X109960000Y-96400000D03*
%TO.P,J3,4*%
%TO.N,/GPS_RX*%
X107420000Y-96400000D03*
%TO.P,J3,3*%
%TO.N,Net-(J3-Pad3)*%
X104880000Y-96400000D03*
%TO.P,J3,2*%
%TO.N,VCC_PERIH*%
X102340000Y-96400000D03*
D12*
%TO.P,J3,1*%
X99800000Y-96400000D03*
%TD*%
D11*
%TO.P,J2,10*%
%TO.N,GNDA*%
X180060000Y-96500000D03*
%TO.P,J2,9*%
%TO.N,/SPK_RN*%
X177520000Y-96500000D03*
%TO.P,J2,8*%
%TO.N,/SPK_RP*%
X174980000Y-96500000D03*
%TO.P,J2,7*%
%TO.N,/SPK_LN*%
X172440000Y-96500000D03*
%TO.P,J2,6*%
%TO.N,/SPK_LP*%
X169900000Y-96500000D03*
%TO.P,J2,5*%
%TO.N,Net-(J2-Pad5)*%
X167360000Y-96500000D03*
%TO.P,J2,4*%
%TO.N,/HP_DETECT*%
X164820000Y-96500000D03*
%TO.P,J2,3*%
%TO.N,/HP_RIGHT*%
X162280000Y-96500000D03*
%TO.P,J2,2*%
%TO.N,/HP_LEFT*%
X159740000Y-96500000D03*
D12*
%TO.P,J2,1*%
%TO.N,VCC_3V3*%
X157200000Y-96500000D03*
%TD*%
D13*
%TO.N,VCC_PERIH*%
X93790000Y-85890000D03*
%TO.N,/HP_LEFT*%
X140200000Y-94540000D03*
%TO.N,/HP_RIGHT*%
X143570000Y-96320000D03*
%TO.N,/HP_DETECT*%
X154340000Y-90440000D03*
%TO.N,/SPK_RN*%
X182730000Y-90010000D03*
%TO.N,/SPK_RP*%
X194600000Y-88470000D03*
%TO.N,/SPK_LP*%
X173420000Y-92310000D03*
%TO.N,Net-(J5-Pad2)*%
X115020000Y-91780000D03*
%TO.N,Net-(R2-Pad2)*%
X99960000Y-92510000D03*
X104880000Y-91860000D03*
%TD*%
D14*
%TO.N,VCC_PERIH*%
X99800000Y-96400000D02*
X102340000Y-96400000D01*
X102340000Y-96400000D02*
X102340000Y-94460000D01*
X120500000Y-92970000D02*
X120500000Y-88800000D01*
X119690000Y-93780000D02*
X120500000Y-92970000D01*
X103020000Y-93780000D02*
X119690000Y-93780000D01*
X102340000Y-94460000D02*
X103020000Y-93780000D01*
X99790000Y-96410000D02*
X99800000Y-96400000D01*
X93680000Y-96410000D02*
X99790000Y-96410000D01*
X93190000Y-95920000D02*
X93680000Y-96410000D01*
X93190000Y-86490000D02*
X93190000Y-95920000D01*
X93790000Y-85890000D02*
X93190000Y-86490000D01*
%TO.N,/HP_LEFT*%
X159740000Y-96500000D02*
X159740000Y-94620000D01*
X140200000Y-97040000D02*
X140200000Y-94540000D01*
X140970000Y-97810000D02*
X140200000Y-97040000D01*
X152480000Y-97810000D02*
X140970000Y-97810000D01*
X153410000Y-96880000D02*
X152480000Y-97810000D01*
X153410000Y-95060000D02*
X153410000Y-96880000D01*
X154630000Y-93840000D02*
X153410000Y-95060000D01*
X158960000Y-93840000D02*
X154630000Y-93840000D01*
X159740000Y-94620000D02*
X158960000Y-93840000D01*
%TO.N,/HP_RIGHT*%
X151200000Y-96320000D02*
X143570000Y-96320000D01*
X162280000Y-96500000D02*
X162280000Y-94300000D01*
X162280000Y-94300000D02*
X160370000Y-92390000D01*
X151990000Y-95530000D02*
X151200000Y-96320000D01*
X160370000Y-92390000D02*
X153335000Y-92390000D01*
X153335000Y-92390000D02*
X151990000Y-93735000D01*
X151990000Y-93735000D02*
X151990000Y-95530000D01*
%TO.N,/HP_DETECT*%
X164820000Y-92095000D02*
X163165000Y-90440000D01*
X164820000Y-96500000D02*
X164820000Y-92095000D01*
X163165000Y-90440000D02*
X154340000Y-90440000D01*
%TO.N,/SPK_RN*%
X177520000Y-96500000D02*
X177520000Y-91175000D01*
X177520000Y-91175000D02*
X178685000Y-90010000D01*
X178685000Y-90010000D02*
X182730000Y-90010000D01*
%TO.N,/SPK_RP*%
X174980000Y-96500000D02*
X174980000Y-89810000D01*
X176320000Y-88470000D02*
X194600000Y-88470000D01*
X174980000Y-89810000D02*
X176320000Y-88470000D01*
%TO.N,/SPK_LP*%
X169900000Y-96500000D02*
X169900000Y-93300000D01*
X170890000Y-92310000D02*
X169900000Y-93300000D01*
X173420000Y-92310000D02*
X170890000Y-92310000D01*
D15*
%TO.N,Net-(J5-Pad2)*%
X118000000Y-90800000D02*
X118000000Y-88800000D01*
X117540000Y-91260000D02*
X118000000Y-90800000D01*
X115020000Y-91780000D02*
X115540000Y-91260000D01*
X115540000Y-91260000D02*
X117540000Y-91260000D01*
%TO.N,Net-(R2-Pad2)*%
X101785000Y-92510000D02*
X102435000Y-91860000D01*
X99960000Y-92510000D02*
X101785000Y-92510000D01*
X102435000Y-91860000D02*
X104880000Y-91860000D01*
%TD*%
M02*
