M48
; DRILL file {KiCad (5.1.6)-1} date 11/07/20 16:44:37
; FORMAT={-:-/ absolute / inch / decimal}
; #@! TF.CreationDate,2020-11-07T16:44:37+09:00
; #@! TF.GenerationSoftware,Kicad,Pcbnew,(5.1.6)-1
; #@! TF.FileFunction,Plated,1,2,PTH
FMAT,2
INCH
T1C0.0157
T2C0.0335
T3C0.0394
%
G90
G05
T1
X3.6925Y-3.3815
X3.9354Y-3.6421
X4.1291Y-3.6165
X4.5283Y-3.6134
X5.5197Y-3.722
X5.6524Y-3.7921
X6.0764Y-3.5606
X6.8276Y-3.6343
X7.1941Y-3.5437
X7.6614Y-3.4831
T2
X4.4488Y-3.4961
X4.5472Y-3.4961
X4.6457Y-3.4961
X4.7441Y-3.4961
T3
X3.9291Y-3.7953
X4.0291Y-3.7953
X4.1291Y-3.7953
X4.2291Y-3.7953
X4.3291Y-3.7953
X4.4291Y-3.7953
X4.5291Y-3.7953
X4.6291Y-3.7953
X4.7291Y-3.7953
X4.8291Y-3.7953
X6.189Y-3.7992
X6.289Y-3.7992
X6.389Y-3.7992
X6.489Y-3.7992
X6.589Y-3.7992
X6.689Y-3.7992
X6.789Y-3.7992
X6.889Y-3.7992
X6.989Y-3.7992
X7.089Y-3.7992
T0
M30
