%TF.GenerationSoftware,KiCad,Pcbnew,(5.1.6)-1*%
%TF.CreationDate,2020-11-03T20:55:32+09:00*%
%TF.ProjectId,FlightComputer-Extra,466c6967-6874-4436-9f6d-70757465722d,rev?*%
%TF.SameCoordinates,Original*%
%TF.FileFunction,Legend,Top*%
%TF.FilePolarity,Positive*%
%FSLAX46Y46*%
G04 Gerber Fmt 4.6, Leading zero omitted, Abs format (unit mm)*
G04 Created by KiCad (PCBNEW (5.1.6)-1) date 2020-11-03 20:55:32*
%MOMM*%
%LPD*%
G01*
G04 APERTURE LIST*
%ADD10C,0.080000*%
%ADD11C,0.100000*%
%ADD12C,0.120000*%
%ADD13C,0.150000*%
G04 APERTURE END LIST*
D10*
X104885714Y-90596428D02*
X104542857Y-90596428D01*
X104714285Y-90596428D02*
X104714285Y-89996428D01*
X104657142Y-90082142D01*
X104600000Y-90139285D01*
X104542857Y-90167857D01*
X105142857Y-90596428D02*
X105142857Y-89996428D01*
X105371428Y-89996428D01*
X105428571Y-90025000D01*
X105457142Y-90053571D01*
X105485714Y-90110714D01*
X105485714Y-90196428D01*
X105457142Y-90253571D01*
X105428571Y-90282142D01*
X105371428Y-90310714D01*
X105142857Y-90310714D01*
X105742857Y-90596428D02*
X105742857Y-89996428D01*
X105971428Y-89996428D01*
X106028571Y-90025000D01*
X106057142Y-90053571D01*
X106085714Y-90110714D01*
X106085714Y-90196428D01*
X106057142Y-90253571D01*
X106028571Y-90282142D01*
X105971428Y-90310714D01*
X105742857Y-90310714D01*
X106314285Y-90567857D02*
X106400000Y-90596428D01*
X106542857Y-90596428D01*
X106600000Y-90567857D01*
X106628571Y-90539285D01*
X106657142Y-90482142D01*
X106657142Y-90425000D01*
X106628571Y-90367857D01*
X106600000Y-90339285D01*
X106542857Y-90310714D01*
X106428571Y-90282142D01*
X106371428Y-90253571D01*
X106342857Y-90225000D01*
X106314285Y-90167857D01*
X106314285Y-90110714D01*
X106342857Y-90053571D01*
X106371428Y-90025000D01*
X106428571Y-89996428D01*
X106571428Y-89996428D01*
X106657142Y-90025000D01*
X104650000Y-87896428D02*
X104792857Y-88496428D01*
X104907142Y-88067857D01*
X105021428Y-88496428D01*
X105164285Y-87896428D01*
X105364285Y-88325000D02*
X105650000Y-88325000D01*
X105307142Y-88496428D02*
X105507142Y-87896428D01*
X105707142Y-88496428D01*
X105907142Y-88496428D02*
X105907142Y-87896428D01*
X106250000Y-88496428D02*
X105992857Y-88153571D01*
X106250000Y-87896428D02*
X105907142Y-88239285D01*
X106507142Y-88182142D02*
X106707142Y-88182142D01*
X106792857Y-88496428D02*
X106507142Y-88496428D01*
X106507142Y-87896428D01*
X106792857Y-87896428D01*
X107050000Y-87896428D02*
X107050000Y-88382142D01*
X107078571Y-88439285D01*
X107107142Y-88467857D01*
X107164285Y-88496428D01*
X107278571Y-88496428D01*
X107335714Y-88467857D01*
X107364285Y-88439285D01*
X107392857Y-88382142D01*
X107392857Y-87896428D01*
X107678571Y-88496428D02*
X107678571Y-87896428D01*
X107907142Y-87896428D01*
X107964285Y-87925000D01*
X107992857Y-87953571D01*
X108021428Y-88010714D01*
X108021428Y-88096428D01*
X107992857Y-88153571D01*
X107964285Y-88182142D01*
X107907142Y-88210714D01*
X107678571Y-88210714D01*
X104657142Y-84671428D02*
X104657142Y-85071428D01*
X104657142Y-84728571D02*
X104685714Y-84700000D01*
X104742857Y-84671428D01*
X104828571Y-84671428D01*
X104885714Y-84700000D01*
X104914285Y-84757142D01*
X104914285Y-85071428D01*
X105542857Y-85071428D02*
X105342857Y-84785714D01*
X105200000Y-85071428D02*
X105200000Y-84471428D01*
X105428571Y-84471428D01*
X105485714Y-84500000D01*
X105514285Y-84528571D01*
X105542857Y-84585714D01*
X105542857Y-84671428D01*
X105514285Y-84728571D01*
X105485714Y-84757142D01*
X105428571Y-84785714D01*
X105200000Y-84785714D01*
X105771428Y-85042857D02*
X105857142Y-85071428D01*
X106000000Y-85071428D01*
X106057142Y-85042857D01*
X106085714Y-85014285D01*
X106114285Y-84957142D01*
X106114285Y-84900000D01*
X106085714Y-84842857D01*
X106057142Y-84814285D01*
X106000000Y-84785714D01*
X105885714Y-84757142D01*
X105828571Y-84728571D01*
X105800000Y-84700000D01*
X105771428Y-84642857D01*
X105771428Y-84585714D01*
X105800000Y-84528571D01*
X105828571Y-84500000D01*
X105885714Y-84471428D01*
X106028571Y-84471428D01*
X106114285Y-84500000D01*
X106285714Y-84471428D02*
X106628571Y-84471428D01*
X106457142Y-85071428D02*
X106457142Y-84471428D01*
X80285714Y-93842857D02*
X80371428Y-93871428D01*
X80514285Y-93871428D01*
X80571428Y-93842857D01*
X80600000Y-93814285D01*
X80628571Y-93757142D01*
X80628571Y-93700000D01*
X80600000Y-93642857D01*
X80571428Y-93614285D01*
X80514285Y-93585714D01*
X80400000Y-93557142D01*
X80342857Y-93528571D01*
X80314285Y-93500000D01*
X80285714Y-93442857D01*
X80285714Y-93385714D01*
X80314285Y-93328571D01*
X80342857Y-93300000D01*
X80400000Y-93271428D01*
X80542857Y-93271428D01*
X80628571Y-93300000D01*
X81228571Y-93814285D02*
X81200000Y-93842857D01*
X81114285Y-93871428D01*
X81057142Y-93871428D01*
X80971428Y-93842857D01*
X80914285Y-93785714D01*
X80885714Y-93728571D01*
X80857142Y-93614285D01*
X80857142Y-93528571D01*
X80885714Y-93414285D01*
X80914285Y-93357142D01*
X80971428Y-93300000D01*
X81057142Y-93271428D01*
X81114285Y-93271428D01*
X81200000Y-93300000D01*
X81228571Y-93328571D01*
X81771428Y-93871428D02*
X81485714Y-93871428D01*
X81485714Y-93271428D01*
X80296428Y-91642857D02*
X80382142Y-91671428D01*
X80525000Y-91671428D01*
X80582142Y-91642857D01*
X80610714Y-91614285D01*
X80639285Y-91557142D01*
X80639285Y-91500000D01*
X80610714Y-91442857D01*
X80582142Y-91414285D01*
X80525000Y-91385714D01*
X80410714Y-91357142D01*
X80353571Y-91328571D01*
X80325000Y-91300000D01*
X80296428Y-91242857D01*
X80296428Y-91185714D01*
X80325000Y-91128571D01*
X80353571Y-91100000D01*
X80410714Y-91071428D01*
X80553571Y-91071428D01*
X80639285Y-91100000D01*
X80896428Y-91671428D02*
X80896428Y-91071428D01*
X81039285Y-91071428D01*
X81125000Y-91100000D01*
X81182142Y-91157142D01*
X81210714Y-91214285D01*
X81239285Y-91328571D01*
X81239285Y-91414285D01*
X81210714Y-91528571D01*
X81182142Y-91585714D01*
X81125000Y-91642857D01*
X81039285Y-91671428D01*
X80896428Y-91671428D01*
X81467857Y-91500000D02*
X81753571Y-91500000D01*
X81410714Y-91671428D02*
X81610714Y-91071428D01*
X81810714Y-91671428D01*
D11*
X124652380Y-89011904D02*
X124652380Y-88211904D01*
X124842857Y-88211904D01*
X124957142Y-88250000D01*
X125033333Y-88326190D01*
X125071428Y-88402380D01*
X125109523Y-88554761D01*
X125109523Y-88669047D01*
X125071428Y-88821428D01*
X125033333Y-88897619D01*
X124957142Y-88973809D01*
X124842857Y-89011904D01*
X124652380Y-89011904D01*
X125719047Y-88592857D02*
X125833333Y-88630952D01*
X125871428Y-88669047D01*
X125909523Y-88745238D01*
X125909523Y-88859523D01*
X125871428Y-88935714D01*
X125833333Y-88973809D01*
X125757142Y-89011904D01*
X125452380Y-89011904D01*
X125452380Y-88211904D01*
X125719047Y-88211904D01*
X125795238Y-88250000D01*
X125833333Y-88288095D01*
X125871428Y-88364285D01*
X125871428Y-88440476D01*
X125833333Y-88516666D01*
X125795238Y-88554761D01*
X125719047Y-88592857D01*
X125452380Y-88592857D01*
X126671428Y-88250000D02*
X126595238Y-88211904D01*
X126480952Y-88211904D01*
X126366666Y-88250000D01*
X126290476Y-88326190D01*
X126252380Y-88402380D01*
X126214285Y-88554761D01*
X126214285Y-88669047D01*
X126252380Y-88821428D01*
X126290476Y-88897619D01*
X126366666Y-88973809D01*
X126480952Y-89011904D01*
X126557142Y-89011904D01*
X126671428Y-88973809D01*
X126709523Y-88935714D01*
X126709523Y-88669047D01*
X126557142Y-88669047D01*
X127623809Y-88173809D02*
X126938095Y-89202380D01*
X127890476Y-89011904D02*
X127890476Y-88211904D01*
X128195238Y-88211904D01*
X128271428Y-88250000D01*
X128309523Y-88288095D01*
X128347619Y-88364285D01*
X128347619Y-88478571D01*
X128309523Y-88554761D01*
X128271428Y-88592857D01*
X128195238Y-88630952D01*
X127890476Y-88630952D01*
X129147619Y-89011904D02*
X128880952Y-88630952D01*
X128690476Y-89011904D02*
X128690476Y-88211904D01*
X128995238Y-88211904D01*
X129071428Y-88250000D01*
X129109523Y-88288095D01*
X129147619Y-88364285D01*
X129147619Y-88478571D01*
X129109523Y-88554761D01*
X129071428Y-88592857D01*
X128995238Y-88630952D01*
X128690476Y-88630952D01*
X129642857Y-88211904D02*
X129795238Y-88211904D01*
X129871428Y-88250000D01*
X129947619Y-88326190D01*
X129985714Y-88478571D01*
X129985714Y-88745238D01*
X129947619Y-88897619D01*
X129871428Y-88973809D01*
X129795238Y-89011904D01*
X129642857Y-89011904D01*
X129566666Y-88973809D01*
X129490476Y-88897619D01*
X129452380Y-88745238D01*
X129452380Y-88478571D01*
X129490476Y-88326190D01*
X129566666Y-88250000D01*
X129642857Y-88211904D01*
X130747619Y-88250000D02*
X130671428Y-88211904D01*
X130557142Y-88211904D01*
X130442857Y-88250000D01*
X130366666Y-88326190D01*
X130328571Y-88402380D01*
X130290476Y-88554761D01*
X130290476Y-88669047D01*
X130328571Y-88821428D01*
X130366666Y-88897619D01*
X130442857Y-88973809D01*
X130557142Y-89011904D01*
X130633333Y-89011904D01*
X130747619Y-88973809D01*
X130785714Y-88935714D01*
X130785714Y-88669047D01*
X130633333Y-88669047D01*
X124233333Y-89550000D02*
X124157142Y-89511904D01*
X124042857Y-89511904D01*
X123928571Y-89550000D01*
X123852380Y-89626190D01*
X123814285Y-89702380D01*
X123776190Y-89854761D01*
X123776190Y-89969047D01*
X123814285Y-90121428D01*
X123852380Y-90197619D01*
X123928571Y-90273809D01*
X124042857Y-90311904D01*
X124119047Y-90311904D01*
X124233333Y-90273809D01*
X124271428Y-90235714D01*
X124271428Y-89969047D01*
X124119047Y-89969047D01*
X124614285Y-89778571D02*
X124614285Y-90311904D01*
X124614285Y-89854761D02*
X124652380Y-89816666D01*
X124728571Y-89778571D01*
X124842857Y-89778571D01*
X124919047Y-89816666D01*
X124957142Y-89892857D01*
X124957142Y-90311904D01*
X125680952Y-90311904D02*
X125680952Y-89511904D01*
X125680952Y-90273809D02*
X125604761Y-90311904D01*
X125452380Y-90311904D01*
X125376190Y-90273809D01*
X125338095Y-90235714D01*
X125300000Y-90159523D01*
X125300000Y-89930952D01*
X125338095Y-89854761D01*
X125376190Y-89816666D01*
X125452380Y-89778571D01*
X125604761Y-89778571D01*
X125680952Y-89816666D01*
X126100000Y-90273809D02*
X126100000Y-90311904D01*
X126061904Y-90388095D01*
X126023809Y-90426190D01*
X126328571Y-89511904D02*
X126785714Y-89511904D01*
X126557142Y-90311904D02*
X126557142Y-89511904D01*
X126976190Y-90311904D02*
X127395238Y-89778571D01*
X126976190Y-89778571D02*
X127395238Y-90311904D01*
X127738095Y-90273809D02*
X127738095Y-90311904D01*
X127700000Y-90388095D01*
X127661904Y-90426190D01*
X128538095Y-90311904D02*
X128271428Y-89930952D01*
X128080952Y-90311904D02*
X128080952Y-89511904D01*
X128385714Y-89511904D01*
X128461904Y-89550000D01*
X128500000Y-89588095D01*
X128538095Y-89664285D01*
X128538095Y-89778571D01*
X128500000Y-89854761D01*
X128461904Y-89892857D01*
X128385714Y-89930952D01*
X128080952Y-89930952D01*
X128804761Y-90311904D02*
X129223809Y-89778571D01*
X128804761Y-89778571D02*
X129223809Y-90311904D01*
X129566666Y-90273809D02*
X129566666Y-90311904D01*
X129528571Y-90388095D01*
X129490476Y-90426190D01*
X129795238Y-89511904D02*
X130061904Y-90311904D01*
X130328571Y-89511904D01*
X130938095Y-90273809D02*
X130861904Y-90311904D01*
X130709523Y-90311904D01*
X130633333Y-90273809D01*
X130595238Y-90235714D01*
X130557142Y-90159523D01*
X130557142Y-89930952D01*
X130595238Y-89854761D01*
X130633333Y-89816666D01*
X130709523Y-89778571D01*
X130861904Y-89778571D01*
X130938095Y-89816666D01*
X131623809Y-90273809D02*
X131547619Y-90311904D01*
X131395238Y-90311904D01*
X131319047Y-90273809D01*
X131280952Y-90235714D01*
X131242857Y-90159523D01*
X131242857Y-89930952D01*
X131280952Y-89854761D01*
X131319047Y-89816666D01*
X131395238Y-89778571D01*
X131547619Y-89778571D01*
X131623809Y-89816666D01*
D12*
%TO.C,J5*%
X123060000Y-90210000D02*
X123060000Y-82090000D01*
X123060000Y-82090000D02*
X110440000Y-82090000D01*
X110440000Y-82090000D02*
X110440000Y-90210000D01*
X110440000Y-90210000D02*
X123060000Y-90210000D01*
X123360000Y-88100000D02*
X123360000Y-90510000D01*
X123360000Y-90510000D02*
X120950000Y-90510000D01*
%TO.C,J4*%
X81930000Y-88510000D02*
X76730000Y-88510000D01*
X81930000Y-83310000D02*
X81930000Y-88510000D01*
X76730000Y-83310000D02*
X81930000Y-83310000D01*
X76730000Y-88510000D02*
X76730000Y-83310000D01*
%TO.C,J1*%
X146800000Y-82100000D02*
X148100000Y-82100000D01*
X146800000Y-80900000D02*
X146800000Y-82100000D01*
X142800000Y-80900000D02*
X146800000Y-80900000D01*
X142800000Y-82100000D02*
X142800000Y-80900000D01*
X141500000Y-82100000D02*
X142800000Y-82100000D01*
X141500000Y-94700000D02*
X141500000Y-82100000D01*
X148100000Y-94700000D02*
X141500000Y-94700000D01*
X148100000Y-82100000D02*
X148100000Y-94700000D01*
D13*
%TO.C,LS2*%
X198450000Y-83900000D02*
X198450000Y-91900000D01*
X198450000Y-91900000D02*
X186450000Y-91900000D01*
X186450000Y-91900000D02*
X186450000Y-83900000D01*
X186450000Y-83900000D02*
X198450000Y-83900000D01*
X199950000Y-82400000D02*
X199950000Y-93400000D01*
X199950000Y-93400000D02*
X184950000Y-93400000D01*
X184950000Y-93400000D02*
X184950000Y-82400000D01*
X184950000Y-82400000D02*
X199950000Y-82400000D01*
%TO.C,LS1*%
X179475000Y-83900000D02*
X179475000Y-91900000D01*
X179475000Y-91900000D02*
X167475000Y-91900000D01*
X167475000Y-91900000D02*
X167475000Y-83900000D01*
X167475000Y-83900000D02*
X179475000Y-83900000D01*
X180975000Y-82400000D02*
X180975000Y-93400000D01*
X180975000Y-93400000D02*
X165975000Y-93400000D01*
X165975000Y-93400000D02*
X165975000Y-82400000D01*
X165975000Y-82400000D02*
X180975000Y-82400000D01*
D12*
%TO.C,C3*%
X98977836Y-85530000D02*
X98762164Y-85530000D01*
X98977836Y-86250000D02*
X98762164Y-86250000D01*
%TO.C,U1*%
X97200000Y-93750000D02*
X96400000Y-94550000D01*
X96400000Y-94550000D02*
X85000000Y-94550000D01*
X85000000Y-94550000D02*
X85000000Y-83850000D01*
X85000000Y-83850000D02*
X97200000Y-83850000D01*
X97200000Y-83850000D02*
X97200000Y-93750000D01*
%TO.C,TP5*%
X104200000Y-90300000D02*
G75*
G03*
X104200000Y-90300000I-700000J0D01*
G01*
%TO.C,TP4*%
X104200000Y-88200000D02*
G75*
G03*
X104200000Y-88200000I-700000J0D01*
G01*
%TO.C,TP3*%
X104200000Y-84800000D02*
G75*
G03*
X104200000Y-84800000I-700000J0D01*
G01*
%TO.C,TP2*%
X79900000Y-91400000D02*
G75*
G03*
X79900000Y-91400000I-700000J0D01*
G01*
%TO.C,TP1*%
X79900000Y-93600000D02*
G75*
G03*
X79900000Y-93600000I-700000J0D01*
G01*
%TO.C,R5*%
X117980000Y-93346359D02*
X117980000Y-93653641D01*
X117220000Y-93346359D02*
X117220000Y-93653641D01*
%TO.C,R4*%
X115400000Y-93346359D02*
X115400000Y-93653641D01*
X114640000Y-93346359D02*
X114640000Y-93653641D01*
%TO.C,R3*%
X107020000Y-93673641D02*
X107020000Y-93366359D01*
X107780000Y-93673641D02*
X107780000Y-93366359D01*
%TO.C,R2*%
X109590000Y-93653641D02*
X109590000Y-93346359D01*
X110350000Y-93653641D02*
X110350000Y-93346359D01*
%TO.C,R1*%
X152183641Y-85620000D02*
X151876359Y-85620000D01*
X152183641Y-84860000D02*
X151876359Y-84860000D01*
%TO.C,J3*%
X123990000Y-97730000D02*
X123990000Y-95070000D01*
X101070000Y-97730000D02*
X123990000Y-97730000D01*
X101070000Y-95070000D02*
X123990000Y-95070000D01*
X101070000Y-97730000D02*
X101070000Y-95070000D01*
X99800000Y-97730000D02*
X98470000Y-97730000D01*
X98470000Y-97730000D02*
X98470000Y-96400000D01*
%TO.C,J2*%
X181390000Y-97830000D02*
X181390000Y-95170000D01*
X158470000Y-97830000D02*
X181390000Y-97830000D01*
X158470000Y-95170000D02*
X181390000Y-95170000D01*
X158470000Y-97830000D02*
X158470000Y-95170000D01*
X157200000Y-97830000D02*
X155870000Y-97830000D01*
X155870000Y-97830000D02*
X155870000Y-96500000D01*
%TO.C,C2*%
X98977836Y-87330000D02*
X98762164Y-87330000D01*
X98977836Y-86610000D02*
X98762164Y-86610000D01*
%TO.C,C1*%
X83032164Y-87620000D02*
X83247836Y-87620000D01*
X83032164Y-88340000D02*
X83247836Y-88340000D01*
%TO.C,J5*%
D10*
X122050000Y-90946428D02*
X122050000Y-91375000D01*
X122021428Y-91460714D01*
X121964285Y-91517857D01*
X121878571Y-91546428D01*
X121821428Y-91546428D01*
X122621428Y-90946428D02*
X122335714Y-90946428D01*
X122307142Y-91232142D01*
X122335714Y-91203571D01*
X122392857Y-91175000D01*
X122535714Y-91175000D01*
X122592857Y-91203571D01*
X122621428Y-91232142D01*
X122650000Y-91289285D01*
X122650000Y-91432142D01*
X122621428Y-91489285D01*
X122592857Y-91517857D01*
X122535714Y-91546428D01*
X122392857Y-91546428D01*
X122335714Y-91517857D01*
X122307142Y-91489285D01*
%TO.C,J4*%
X80850000Y-88821428D02*
X80850000Y-89250000D01*
X80821428Y-89335714D01*
X80764285Y-89392857D01*
X80678571Y-89421428D01*
X80621428Y-89421428D01*
X81392857Y-89021428D02*
X81392857Y-89421428D01*
X81250000Y-88792857D02*
X81107142Y-89221428D01*
X81478571Y-89221428D01*
%TO.C,J1*%
X149150000Y-94311428D02*
X149150000Y-94740000D01*
X149121428Y-94825714D01*
X149064285Y-94882857D01*
X148978571Y-94911428D01*
X148921428Y-94911428D01*
X149750000Y-94911428D02*
X149407142Y-94911428D01*
X149578571Y-94911428D02*
X149578571Y-94311428D01*
X149521428Y-94397142D01*
X149464285Y-94454285D01*
X149407142Y-94482857D01*
%TO.C,LS2*%
X201114285Y-93421428D02*
X200828571Y-93421428D01*
X200828571Y-92821428D01*
X201285714Y-93392857D02*
X201371428Y-93421428D01*
X201514285Y-93421428D01*
X201571428Y-93392857D01*
X201600000Y-93364285D01*
X201628571Y-93307142D01*
X201628571Y-93250000D01*
X201600000Y-93192857D01*
X201571428Y-93164285D01*
X201514285Y-93135714D01*
X201400000Y-93107142D01*
X201342857Y-93078571D01*
X201314285Y-93050000D01*
X201285714Y-92992857D01*
X201285714Y-92935714D01*
X201314285Y-92878571D01*
X201342857Y-92850000D01*
X201400000Y-92821428D01*
X201542857Y-92821428D01*
X201628571Y-92850000D01*
X201857142Y-92878571D02*
X201885714Y-92850000D01*
X201942857Y-92821428D01*
X202085714Y-92821428D01*
X202142857Y-92850000D01*
X202171428Y-92878571D01*
X202200000Y-92935714D01*
X202200000Y-92992857D01*
X202171428Y-93078571D01*
X201828571Y-93421428D01*
X202200000Y-93421428D01*
%TO.C,LS1*%
X182139285Y-93421428D02*
X181853571Y-93421428D01*
X181853571Y-92821428D01*
X182310714Y-93392857D02*
X182396428Y-93421428D01*
X182539285Y-93421428D01*
X182596428Y-93392857D01*
X182625000Y-93364285D01*
X182653571Y-93307142D01*
X182653571Y-93250000D01*
X182625000Y-93192857D01*
X182596428Y-93164285D01*
X182539285Y-93135714D01*
X182425000Y-93107142D01*
X182367857Y-93078571D01*
X182339285Y-93050000D01*
X182310714Y-92992857D01*
X182310714Y-92935714D01*
X182339285Y-92878571D01*
X182367857Y-92850000D01*
X182425000Y-92821428D01*
X182567857Y-92821428D01*
X182653571Y-92850000D01*
X183225000Y-93421428D02*
X182882142Y-93421428D01*
X183053571Y-93421428D02*
X183053571Y-92821428D01*
X182996428Y-92907142D01*
X182939285Y-92964285D01*
X182882142Y-92992857D01*
%TO.C,C3*%
X100550000Y-86089285D02*
X100521428Y-86117857D01*
X100435714Y-86146428D01*
X100378571Y-86146428D01*
X100292857Y-86117857D01*
X100235714Y-86060714D01*
X100207142Y-86003571D01*
X100178571Y-85889285D01*
X100178571Y-85803571D01*
X100207142Y-85689285D01*
X100235714Y-85632142D01*
X100292857Y-85575000D01*
X100378571Y-85546428D01*
X100435714Y-85546428D01*
X100521428Y-85575000D01*
X100550000Y-85603571D01*
X100750000Y-85546428D02*
X101121428Y-85546428D01*
X100921428Y-85775000D01*
X101007142Y-85775000D01*
X101064285Y-85803571D01*
X101092857Y-85832142D01*
X101121428Y-85889285D01*
X101121428Y-86032142D01*
X101092857Y-86089285D01*
X101064285Y-86117857D01*
X101007142Y-86146428D01*
X100835714Y-86146428D01*
X100778571Y-86117857D01*
X100750000Y-86089285D01*
%TO.C,U1*%
X94392857Y-95171428D02*
X94392857Y-95657142D01*
X94421428Y-95714285D01*
X94450000Y-95742857D01*
X94507142Y-95771428D01*
X94621428Y-95771428D01*
X94678571Y-95742857D01*
X94707142Y-95714285D01*
X94735714Y-95657142D01*
X94735714Y-95171428D01*
X95335714Y-95771428D02*
X94992857Y-95771428D01*
X95164285Y-95771428D02*
X95164285Y-95171428D01*
X95107142Y-95257142D01*
X95050000Y-95314285D01*
X94992857Y-95342857D01*
%TO.C,R5*%
X118650000Y-93771428D02*
X118450000Y-93485714D01*
X118307142Y-93771428D02*
X118307142Y-93171428D01*
X118535714Y-93171428D01*
X118592857Y-93200000D01*
X118621428Y-93228571D01*
X118650000Y-93285714D01*
X118650000Y-93371428D01*
X118621428Y-93428571D01*
X118592857Y-93457142D01*
X118535714Y-93485714D01*
X118307142Y-93485714D01*
X119192857Y-93171428D02*
X118907142Y-93171428D01*
X118878571Y-93457142D01*
X118907142Y-93428571D01*
X118964285Y-93400000D01*
X119107142Y-93400000D01*
X119164285Y-93428571D01*
X119192857Y-93457142D01*
X119221428Y-93514285D01*
X119221428Y-93657142D01*
X119192857Y-93714285D01*
X119164285Y-93742857D01*
X119107142Y-93771428D01*
X118964285Y-93771428D01*
X118907142Y-93742857D01*
X118878571Y-93714285D01*
%TO.C,R4*%
X113700000Y-93771428D02*
X113500000Y-93485714D01*
X113357142Y-93771428D02*
X113357142Y-93171428D01*
X113585714Y-93171428D01*
X113642857Y-93200000D01*
X113671428Y-93228571D01*
X113700000Y-93285714D01*
X113700000Y-93371428D01*
X113671428Y-93428571D01*
X113642857Y-93457142D01*
X113585714Y-93485714D01*
X113357142Y-93485714D01*
X114214285Y-93371428D02*
X114214285Y-93771428D01*
X114071428Y-93142857D02*
X113928571Y-93571428D01*
X114300000Y-93571428D01*
%TO.C,R3*%
X107300000Y-92296428D02*
X107100000Y-92010714D01*
X106957142Y-92296428D02*
X106957142Y-91696428D01*
X107185714Y-91696428D01*
X107242857Y-91725000D01*
X107271428Y-91753571D01*
X107300000Y-91810714D01*
X107300000Y-91896428D01*
X107271428Y-91953571D01*
X107242857Y-91982142D01*
X107185714Y-92010714D01*
X106957142Y-92010714D01*
X107500000Y-91696428D02*
X107871428Y-91696428D01*
X107671428Y-91925000D01*
X107757142Y-91925000D01*
X107814285Y-91953571D01*
X107842857Y-91982142D01*
X107871428Y-92039285D01*
X107871428Y-92182142D01*
X107842857Y-92239285D01*
X107814285Y-92267857D01*
X107757142Y-92296428D01*
X107585714Y-92296428D01*
X107528571Y-92267857D01*
X107500000Y-92239285D01*
%TO.C,R2*%
X109875000Y-92321428D02*
X109675000Y-92035714D01*
X109532142Y-92321428D02*
X109532142Y-91721428D01*
X109760714Y-91721428D01*
X109817857Y-91750000D01*
X109846428Y-91778571D01*
X109875000Y-91835714D01*
X109875000Y-91921428D01*
X109846428Y-91978571D01*
X109817857Y-92007142D01*
X109760714Y-92035714D01*
X109532142Y-92035714D01*
X110103571Y-91778571D02*
X110132142Y-91750000D01*
X110189285Y-91721428D01*
X110332142Y-91721428D01*
X110389285Y-91750000D01*
X110417857Y-91778571D01*
X110446428Y-91835714D01*
X110446428Y-91892857D01*
X110417857Y-91978571D01*
X110075000Y-92321428D01*
X110446428Y-92321428D01*
%TO.C,R1*%
X153625000Y-85496428D02*
X153425000Y-85210714D01*
X153282142Y-85496428D02*
X153282142Y-84896428D01*
X153510714Y-84896428D01*
X153567857Y-84925000D01*
X153596428Y-84953571D01*
X153625000Y-85010714D01*
X153625000Y-85096428D01*
X153596428Y-85153571D01*
X153567857Y-85182142D01*
X153510714Y-85210714D01*
X153282142Y-85210714D01*
X154196428Y-85496428D02*
X153853571Y-85496428D01*
X154025000Y-85496428D02*
X154025000Y-84896428D01*
X153967857Y-84982142D01*
X153910714Y-85039285D01*
X153853571Y-85067857D01*
%TO.C,L1*%
X83500000Y-85146428D02*
X83214285Y-85146428D01*
X83214285Y-84546428D01*
X84014285Y-85146428D02*
X83671428Y-85146428D01*
X83842857Y-85146428D02*
X83842857Y-84546428D01*
X83785714Y-84632142D01*
X83728571Y-84689285D01*
X83671428Y-84717857D01*
%TO.C,J3*%
X125070000Y-96091428D02*
X125070000Y-96520000D01*
X125041428Y-96605714D01*
X124984285Y-96662857D01*
X124898571Y-96691428D01*
X124841428Y-96691428D01*
X125298571Y-96091428D02*
X125670000Y-96091428D01*
X125470000Y-96320000D01*
X125555714Y-96320000D01*
X125612857Y-96348571D01*
X125641428Y-96377142D01*
X125670000Y-96434285D01*
X125670000Y-96577142D01*
X125641428Y-96634285D01*
X125612857Y-96662857D01*
X125555714Y-96691428D01*
X125384285Y-96691428D01*
X125327142Y-96662857D01*
X125298571Y-96634285D01*
%TO.C,J2*%
X182150000Y-97021428D02*
X182150000Y-97450000D01*
X182121428Y-97535714D01*
X182064285Y-97592857D01*
X181978571Y-97621428D01*
X181921428Y-97621428D01*
X182407142Y-97078571D02*
X182435714Y-97050000D01*
X182492857Y-97021428D01*
X182635714Y-97021428D01*
X182692857Y-97050000D01*
X182721428Y-97078571D01*
X182750000Y-97135714D01*
X182750000Y-97192857D01*
X182721428Y-97278571D01*
X182378571Y-97621428D01*
X182750000Y-97621428D01*
%TO.C,C2*%
X100550000Y-87164285D02*
X100521428Y-87192857D01*
X100435714Y-87221428D01*
X100378571Y-87221428D01*
X100292857Y-87192857D01*
X100235714Y-87135714D01*
X100207142Y-87078571D01*
X100178571Y-86964285D01*
X100178571Y-86878571D01*
X100207142Y-86764285D01*
X100235714Y-86707142D01*
X100292857Y-86650000D01*
X100378571Y-86621428D01*
X100435714Y-86621428D01*
X100521428Y-86650000D01*
X100550000Y-86678571D01*
X100778571Y-86678571D02*
X100807142Y-86650000D01*
X100864285Y-86621428D01*
X101007142Y-86621428D01*
X101064285Y-86650000D01*
X101092857Y-86678571D01*
X101121428Y-86735714D01*
X101121428Y-86792857D01*
X101092857Y-86878571D01*
X100750000Y-87221428D01*
X101121428Y-87221428D01*
%TO.C,C1*%
X83025000Y-89214285D02*
X82996428Y-89242857D01*
X82910714Y-89271428D01*
X82853571Y-89271428D01*
X82767857Y-89242857D01*
X82710714Y-89185714D01*
X82682142Y-89128571D01*
X82653571Y-89014285D01*
X82653571Y-88928571D01*
X82682142Y-88814285D01*
X82710714Y-88757142D01*
X82767857Y-88700000D01*
X82853571Y-88671428D01*
X82910714Y-88671428D01*
X82996428Y-88700000D01*
X83025000Y-88728571D01*
X83596428Y-89271428D02*
X83253571Y-89271428D01*
X83425000Y-89271428D02*
X83425000Y-88671428D01*
X83367857Y-88757142D01*
X83310714Y-88814285D01*
X83253571Y-88842857D01*
%TD*%
M02*
