  0
SECTION
  2
HEADER
  9
$ACADVER
  1
AC1009
  9
$INSBASE
 10
0.0
 20
0.0
 30
0.0
  9
$EXTMIN
 10
0.0
 20
0.0
 30
0.0
  9
$EXTMAX
 10
0.0
 20
0.0
 30
0.0
  0
ENDSEC
  0
SECTION
  2
TABLES
  0
TABLE
  2
VPORT
 70
0
  0
ENDTAB
  0
TABLE
  2
LTYPE
 70
1
  0
LTYPE
  2
CONTINUOUS
 70
0
  3
Solid line
 72
65
 73
0
 40
0.0
  0
ENDTAB
  0
TABLE
  2
LAYER
 70
1
  0
LAYER
  2
0
 70
64
 62
7
  6
continuous
  0
ENDTAB
  0
TABLE
  2
STYLE
 70
1
  0
STYLE
  2
STANDARD
 70
0
 40
0
 41
1.0
 50
0.0
 71
0
 42
1
 3
ARIAL.TTF
 4

  0
ENDTAB
  0
TABLE
  2
VIEW
 70
0
  0
ENDTAB
  0
ENDSEC
  0
SECTION
  2
BLOCKS
  0
BLOCK
  8
0
  2
PAD035
 70
0
 10
0.0
 20
0.0
 30
0.0
  3
PAD035
  0
ARC
  8
0
 62
0
 10
-54.79999999999998
 20
1.249999999999996
 30
0.0
 40
0.6000000000000023
 50
-180.0
 51
-0.0
  0
LINE
  8
0
 62
0
 10
-55.399999999999984
 20
1.699999999999996
 30
0.0
 11
-55.399999999999984
 21
1.2499999999999958
 31
0.0
  0
LINE
  8
0
 62
0
 10
-54.19999999999998
 20
1.249999999999996
 30
0.0
 11
-54.19999999999998
 21
1.7000000000000002
 31
0.0
  0
LINE
  8
0
 62
0
 10
-54.19999999999998
 20
1.7000000000000002
 30
0.0
 11
-50.299999999999976
 21
1.7000000000000002
 31
0.0
  0
ARC
  8
0
 62
0
 10
-50.299999999999976
 20
2.2
 30
0.0
 40
0.5000000000000001
 50
-90.0
 51
90.0
  0
LINE
  8
0
 62
0
 10
-50.299999999999976
 20
2.7
 30
0.0
 11
-50.299999999999976
 21
6.999999999999999
 31
0.0
  0
ARC
  8
0
 62
0
 10
-50.299999999999976
 20
7.5
 30
0.0
 40
0.5000000000000006
 50
-90.0
 51
90.0
  0
LINE
  8
0
 62
0
 10
-50.299999999999976
 20
8.0
 30
0.0
 11
-54.19999999999998
 21
7.999999999999991
 31
0.0
  0
LINE
  8
0
 62
0
 10
-54.19999999999998
 20
7.999999999999991
 30
0.0
 11
-54.19999999999998
 21
8.450000000000001
 31
0.0
  0
ARC
  8
0
 62
0
 10
-54.79999999999998
 20
8.450000000000001
 30
0.0
 40
0.5999999999999988
 50
-0.0
 51
-180.0
  0
LINE
  8
0
 62
0
 10
-55.399999999999984
 20
8.450000000000001
 30
0.0
 11
-55.399999999999984
 21
8.000000000000002
 31
0.0
  0
LINE
  8
0
 62
0
 10
-55.399999999999984
 20
8.000000000000002
 30
0.0
 11
-62.899999999999984
 21
8.000000000000002
 31
0.0
  0
LINE
  8
0
 62
0
 10
-62.899999999999984
 20
26.0
 30
0.0
 11
-62.899999999999984
 21
8.0
 31
0.0
  0
LINE
  8
0
 62
0
 10
-62.899999999999984
 20
45.0
 30
0.0
 11
-62.899999999999984
 21
41.0
 31
0.0
  0
LINE
  8
0
 62
0
 10
-62.899999999999984
 20
64.0
 30
0.0
 11
-62.899999999999984
 21
60.0
 31
0.0
  0
LINE
  8
0
 62
0
 10
-62.899999999999984
 20
64.0
 30
0.0
 11
-47.29999999999998
 21
64.0
 31
0.0
  0
LINE
  8
0
 62
0
 10
-47.29999999999998
 20
64.0
 30
0.0
 11
-47.29999999999998
 21
43.6
 31
0.0
  0
LINE
  8
0
 62
0
 10
-47.29999999999998
 20
43.6
 30
0.0
 11
-46.0
 21
43.6
 31
0.0
  0
LINE
  8
0
 62
0
 10
-46.0
 20
43.6
 30
0.0
 11
-46.0
 21
-63.99999999999999
 31
0.0
  0
LINE
  8
0
 62
0
 10
-46.0
 20
-63.99999999999999
 30
0.0
 11
-62.899999999999984
 21
-64.0
 31
0.0
  0
LINE
  8
0
 62
0
 10
-62.899999999999984
 20
-64.0
 30
0.0
 11
-62.899999999999984
 21
-29.0
 31
0.0
  0
LINE
  8
0
 62
0
 10
-62.899999999999984
 20
-17.0
 30
0.0
 11
-62.899999999999984
 21
1.7000000000000028
 31
0.0
  0
LINE
  8
0
 62
0
 10
-62.899999999999984
 20
1.6999999999999977
 30
0.0
 11
-55.399999999999984
 21
1.699999999999996
 31
0.0
  0
LINE
  8
0
 62
0
 10
-51.89999999999999
 20
26.0
 30
0.0
 11
-62.89999999999999
 21
26.0
 31
0.0
  0
LINE
  8
0
 62
0
 10
-51.89999999999999
 20
41.0
 30
0.0
 11
-51.89999999999999
 21
26.0
 31
0.0
  0
LINE
  8
0
 62
0
 10
-62.89999999999999
 20
41.0
 30
0.0
 11
-51.89999999999999
 21
41.0
 31
0.0
  0
LINE
  8
0
 62
0
 10
-51.899999999999984
 20
45.0
 30
0.0
 11
-62.899999999999984
 21
45.0
 31
0.0
  0
LINE
  8
0
 62
0
 10
-51.899999999999984
 20
60.0
 30
0.0
 11
-51.899999999999984
 21
45.0
 31
0.0
  0
LINE
  8
0
 62
0
 10
-62.899999999999984
 20
60.0
 30
0.0
 11
-51.899999999999984
 21
60.0
 31
0.0
  0
LINE
  8
0
 62
0
 10
-54.899999999999984
 20
-29.000000000000004
 30
0.0
 11
-62.899999999999984
 21
-29.000000000000004
 31
0.0
  0
LINE
  8
0
 62
0
 10
-54.899999999999984
 20
-17.000000000000004
 30
0.0
 11
-54.899999999999984
 21
-29.000000000000004
 31
0.0
  0
LINE
  8
0
 62
0
 10
-62.899999999999984
 20
-17.000000000000004
 30
0.0
 11
-54.899999999999984
 21
-17.000000000000004
 31
0.0
  0
LINE
  8
0
 62
0
 10
-49.77
 20
-41.4
 30
0.0
 11
-49.77
 21
-16.0
 31
0.0
  0
LINE
  8
0
 62
0
 10
-47.23
 20
-41.4
 30
0.0
 11
-49.77
 21
-41.4
 31
0.0
  0
LINE
  8
0
 62
0
 10
-49.77
 20
-16.0
 30
0.0
 11
-47.23
 21
-16.0
 31
0.0
  0
LINE
  8
0
 62
0
 10
-47.23
 20
-16.0
 30
0.0
 11
-47.23
 21
-41.4
 31
0.0
  0
LINE
  8
0
 62
0
 10
-49.77
 20
16.0
 30
0.0
 11
-49.77
 21
41.4
 31
0.0
  0
LINE
  8
0
 62
0
 10
-47.23
 20
16.0
 30
0.0
 11
-49.77
 21
16.0
 31
0.0
  0
LINE
  8
0
 62
0
 10
-49.77
 20
41.4
 30
0.0
 11
-47.23
 21
41.4
 31
0.0
  0
LINE
  8
0
 62
0
 10
-47.23
 20
41.4
 30
0.0
 11
-47.23
 21
16.0
 31
0.0
  0
LINE
  8
0
 62
0
 10
-51.199999999999974
 20
-43.9
 30
0.0
 11
-51.199999999999974
 21
-54.0
 31
0.0
  0
LINE
  8
0
 62
0
 10
-60.89999999999998
 20
-43.9
 30
0.0
 11
-51.199999999999974
 21
-43.9
 31
0.0
  0
LINE
  8
0
 62
0
 10
-51.199999999999974
 20
-54.0
 30
0.0
 11
-60.89999999999998
 21
-54.0
 31
0.0
  0
LINE
  8
0
 62
0
 10
-60.89999999999998
 20
-54.0
 30
0.0
 11
-60.89999999999998
 21
-43.9
 31
0.0
  0
LINE
  8
0
 62
0
 10
-62.899999999999984
 20
-29.000000000000004
 30
0.0
 11
-62.899999999999984
 21
-17.000000000000004
 31
0.0
  0
LINE
  8
0
 62
0
 10
-62.899999999999984
 20
45.0
 30
0.0
 11
-62.899999999999984
 21
60.0
 31
0.0
  0
LINE
  8
0
 62
0
 10
-62.89999999999999
 20
26.0
 30
0.0
 11
-62.89999999999999
 21
41.0
 31
0.0
  0
ENDBLK
  0
ENDSEC
  0
SECTION
  2
ENTITIES
  0
INSERT
  2
PAD035
  8
0
 62
0
 10
0.0
 20
0.0
 30
0.0
  0
ENDSEC
  0
EOF
