  0
SECTION
  2
HEADER
  9
$ACADVER
  1
AC1009
  9
$INSBASE
 10
0.0
 20
0.0
 30
0.0
  9
$EXTMIN
 10
0.0
 20
0.0
 30
0.0
  9
$EXTMAX
 10
0.0
 20
0.0
 30
0.0
  0
ENDSEC
  0
SECTION
  2
TABLES
  0
TABLE
  2
VPORT
 70
0
  0
ENDTAB
  0
TABLE
  2
LTYPE
 70
1
  0
LTYPE
  2
CONTINUOUS
 70
0
  3
Solid line
 72
65
 73
0
 40
0.0
  0
ENDTAB
  0
TABLE
  2
LAYER
 70
1
  0
LAYER
  2
0
 70
64
 62
7
  6
continuous
  0
ENDTAB
  0
TABLE
  2
STYLE
 70
1
  0
STYLE
  2
STANDARD
 70
0
 40
0
 41
1.0
 50
0.0
 71
0
 42
1
 3
ARIAL.TTF
 4

  0
ENDTAB
  0
TABLE
  2
VIEW
 70
0
  0
ENDTAB
  0
ENDSEC
  0
SECTION
  2
BLOCKS
  0
BLOCK
  8
0
  2
BODY008
 70
0
 10
0.0
 20
0.0
 30
0.0
  3
BODY008
  0
LINE
  8
0
 62
0
 10
57.31999999999999
 20
74.0
 30
0.0
 11
75.10000000000002
 21
74.0
 31
0.0
  0
LINE
  8
0
 62
0
 10
57.31999999999999
 20
74.0
 30
0.0
 11
57.31999999999999
 21
68.0
 31
0.0
  0
LINE
  8
0
 62
0
 10
75.10000000000002
 20
64.0
 30
0.0
 11
75.10000000000002
 21
74.0
 31
0.0
  0
LINE
  8
0
 62
0
 10
57.31999999999999
 20
68.0
 30
0.0
 11
43.12
 21
68.0
 31
0.0
  0
LINE
  8
0
 62
0
 10
85.10000000000002
 20
64.0
 30
0.0
 11
75.10000000000002
 21
64.0
 31
0.0
  0
LINE
  8
0
 62
0
 10
43.12
 20
-68.0
 30
0.0
 11
43.12
 21
68.0
 31
0.0
  0
LINE
  8
0
 62
0
 10
85.10000000000002
 20
64.0
 30
0.0
 11
85.10000000000002
 21
-64.0
 31
0.0
  0
LINE
  8
0
 62
0
 10
43.12
 20
-68.0
 30
0.0
 11
57.31999999999999
 21
-68.0
 31
0.0
  0
LINE
  8
0
 62
0
 10
75.10000000000002
 20
-64.0
 30
0.0
 11
85.10000000000002
 21
-64.0
 31
0.0
  0
LINE
  8
0
 62
0
 10
57.31999999999999
 20
-68.0
 30
0.0
 11
57.31999999999999
 21
-74.0
 31
0.0
  0
LINE
  8
0
 62
0
 10
75.10000000000002
 20
-74.0
 30
0.0
 11
75.10000000000002
 21
-64.0
 31
0.0
  0
LINE
  8
0
 62
0
 10
75.10000000000002
 20
-74.0
 30
0.0
 11
57.31999999999999
 21
-74.0
 31
0.0
  0
LINE
  8
0
 62
0
 10
72.0
 20
-49.5
 30
0.0
 11
76.5
 21
-49.5
 31
0.0
  0
LINE
  8
0
 62
0
 10
72.0
 20
-54.0
 30
0.0
 11
72.0
 21
-49.5
 31
0.0
  0
LINE
  8
0
 62
0
 10
76.5
 20
-49.5
 30
0.0
 11
76.5
 21
-54.0
 31
0.0
  0
LINE
  8
0
 62
0
 10
76.5
 20
-54.0
 30
0.0
 11
72.0
 21
-54.0
 31
0.0
  0
LINE
  8
0
 62
0
 10
78.62000000000002
 20
-15.600000000000001
 30
0.0
 11
83.70000000000002
 21
-15.600000000000001
 31
0.0
  0
LINE
  8
0
 62
0
 10
83.70000000000002
 20
-15.600000000000001
 30
0.0
 11
83.70000000000002
 21
-41.0
 31
0.0
  0
LINE
  8
0
 62
0
 10
83.70000000000002
 20
-41.0
 30
0.0
 11
78.62000000000002
 21
-41.0
 31
0.0
  0
LINE
  8
0
 62
0
 10
78.62000000000002
 20
-41.0
 30
0.0
 11
78.62000000000002
 21
-15.600000000000001
 31
0.0
  0
LINE
  8
0
 62
0
 10
65.8
 20
14.75
 30
0.0
 11
70.3
 21
14.75
 31
0.0
  0
LINE
  8
0
 62
0
 10
65.8
 20
10.25
 30
0.0
 11
65.8
 21
14.75
 31
0.0
  0
LINE
  8
0
 62
0
 10
70.3
 20
14.75
 30
0.0
 11
70.3
 21
10.25
 31
0.0
  0
LINE
  8
0
 62
0
 10
70.3
 20
10.25
 30
0.0
 11
65.8
 21
10.25
 31
0.0
  0
LINE
  8
0
 62
0
 10
65.8
 20
2.25
 30
0.0
 11
70.3
 21
2.25
 31
0.0
  0
LINE
  8
0
 62
0
 10
65.8
 20
-2.25
 30
0.0
 11
65.8
 21
2.25
 31
0.0
  0
LINE
  8
0
 62
0
 10
70.3
 20
2.25
 30
0.0
 11
70.3
 21
-2.25
 31
0.0
  0
LINE
  8
0
 62
0
 10
70.3
 20
-2.25
 30
0.0
 11
65.8
 21
-2.25
 31
0.0
  0
LINE
  8
0
 62
0
 10
74.8
 20
2.25
 30
0.0
 11
79.3
 21
2.25
 31
0.0
  0
LINE
  8
0
 62
0
 10
74.8
 20
-2.25
 30
0.0
 11
74.8
 21
2.25
 31
0.0
  0
LINE
  8
0
 62
0
 10
79.3
 20
2.25
 30
0.0
 11
79.3
 21
-2.25
 31
0.0
  0
LINE
  8
0
 62
0
 10
79.3
 20
-2.25
 30
0.0
 11
74.8
 21
-2.25
 31
0.0
  0
LINE
  8
0
 62
0
 10
65.8
 20
-10.25
 30
0.0
 11
70.3
 21
-10.25
 31
0.0
  0
LINE
  8
0
 62
0
 10
65.8
 20
-14.75
 30
0.0
 11
65.8
 21
-10.25
 31
0.0
  0
LINE
  8
0
 62
0
 10
70.3
 20
-10.25
 30
0.0
 11
70.3
 21
-14.75
 31
0.0
  0
LINE
  8
0
 62
0
 10
70.3
 20
-14.75
 30
0.0
 11
65.8
 21
-14.75
 31
0.0
  0
LINE
  8
0
 62
0
 10
59.5
 20
-49.5
 30
0.0
 11
64.0
 21
-49.5
 31
0.0
  0
LINE
  8
0
 62
0
 10
59.5
 20
-54.0
 30
0.0
 11
59.5
 21
-49.5
 31
0.0
  0
LINE
  8
0
 62
0
 10
64.0
 20
-49.5
 30
0.0
 11
64.0
 21
-54.0
 31
0.0
  0
LINE
  8
0
 62
0
 10
64.0
 20
-54.0
 30
0.0
 11
59.5
 21
-54.0
 31
0.0
  0
LINE
  8
0
 62
0
 10
56.8
 20
2.25
 30
0.0
 11
61.3
 21
2.25
 31
0.0
  0
LINE
  8
0
 62
0
 10
56.8
 20
-2.25
 30
0.0
 11
56.8
 21
2.25
 31
0.0
  0
LINE
  8
0
 62
0
 10
61.3
 20
2.25
 30
0.0
 11
61.3
 21
-2.25
 31
0.0
  0
LINE
  8
0
 62
0
 10
61.3
 20
-2.25
 30
0.0
 11
56.8
 21
-2.25
 31
0.0
  0
LINE
  8
0
 62
0
 10
44.519999999999996
 20
25.4
 30
0.0
 11
49.599999999999994
 21
25.4
 31
0.0
  0
LINE
  8
0
 62
0
 10
49.599999999999994
 20
25.4
 30
0.0
 11
49.599999999999994
 21
-25.4
 31
0.0
  0
LINE
  8
0
 62
0
 10
49.599999999999994
 20
-25.4
 30
0.0
 11
44.519999999999996
 21
-25.4
 31
0.0
  0
LINE
  8
0
 62
0
 10
44.519999999999996
 20
-25.4
 30
0.0
 11
44.519999999999996
 21
25.4
 31
0.0
  0
LINE
  8
0
 62
0
 10
72.0
 20
54.0
 30
0.0
 11
76.5
 21
54.0
 31
0.0
  0
LINE
  8
0
 62
0
 10
72.0
 20
49.5
 30
0.0
 11
72.0
 21
54.0
 31
0.0
  0
LINE
  8
0
 62
0
 10
76.5
 20
54.0
 30
0.0
 11
76.5
 21
49.5
 31
0.0
  0
LINE
  8
0
 62
0
 10
76.5
 20
49.5
 30
0.0
 11
72.0
 21
49.5
 31
0.0
  0
LINE
  8
0
 62
0
 10
59.5
 20
54.0
 30
0.0
 11
64.0
 21
54.0
 31
0.0
  0
LINE
  8
0
 62
0
 10
59.5
 20
49.5
 30
0.0
 11
59.5
 21
54.0
 31
0.0
  0
LINE
  8
0
 62
0
 10
64.0
 20
54.0
 30
0.0
 11
64.0
 21
49.5
 31
0.0
  0
LINE
  8
0
 62
0
 10
64.0
 20
49.5
 30
0.0
 11
59.5
 21
49.5
 31
0.0
  0
CIRCLE
  8
0
 62
0
 10
74.25
 20
-51.74
 30
0.0
 40
1.4
  0
CIRCLE
  8
0
 62
0
 10
68.05
 20
12.5
 30
0.0
 40
1.4
  0
CIRCLE
  8
0
 62
0
 10
68.05
 20
-1.2e-16
 30
0.0
 40
1.4
  0
CIRCLE
  8
0
 62
0
 10
77.05
 20
-1.2e-16
 30
0.0
 40
1.4
  0
CIRCLE
  8
0
 62
0
 10
68.05
 20
-12.5
 30
0.0
 40
1.4
  0
CIRCLE
  8
0
 62
0
 10
61.74
 20
-51.74
 30
0.0
 40
1.4
  0
CIRCLE
  8
0
 62
0
 10
59.05
 20
-1.2e-16
 30
0.0
 40
1.4
  0
CIRCLE
  8
0
 62
0
 10
74.25
 20
51.75
 30
0.0
 40
1.4
  0
CIRCLE
  8
0
 62
0
 10
61.74
 20
51.75
 30
0.0
 40
1.4
  0
ENDBLK
  0
BLOCK
  8
0
  2
PAD021
 70
0
 10
0.0
 20
0.0
 30
0.0
  3
PAD021
  0
LINE
  8
0
 62
0
 10
57.31999999999999
 20
74.0
 30
0.0
 11
75.10000000000002
 21
74.0
 31
0.0
  0
LINE
  8
0
 62
0
 10
57.31999999999999
 20
74.0
 30
0.0
 11
57.31999999999999
 21
68.0
 31
0.0
  0
LINE
  8
0
 62
0
 10
75.10000000000002
 20
64.0
 30
0.0
 11
75.10000000000002
 21
74.0
 31
0.0
  0
LINE
  8
0
 62
0
 10
57.31999999999999
 20
68.0
 30
0.0
 11
43.12
 21
68.0
 31
0.0
  0
LINE
  8
0
 62
0
 10
85.10000000000002
 20
64.0
 30
0.0
 11
75.10000000000002
 21
64.0
 31
0.0
  0
LINE
  8
0
 62
0
 10
43.12
 20
-68.0
 30
0.0
 11
43.12
 21
68.0
 31
0.0
  0
LINE
  8
0
 62
0
 10
85.10000000000002
 20
64.0
 30
0.0
 11
85.10000000000002
 21
-64.0
 31
0.0
  0
LINE
  8
0
 62
0
 10
43.12
 20
-68.0
 30
0.0
 11
57.31999999999999
 21
-68.0
 31
0.0
  0
LINE
  8
0
 62
0
 10
75.10000000000002
 20
-64.0
 30
0.0
 11
85.10000000000002
 21
-64.0
 31
0.0
  0
LINE
  8
0
 62
0
 10
57.31999999999999
 20
-68.0
 30
0.0
 11
57.31999999999999
 21
-74.0
 31
0.0
  0
LINE
  8
0
 62
0
 10
75.10000000000002
 20
-74.0
 30
0.0
 11
75.10000000000002
 21
-64.0
 31
0.0
  0
LINE
  8
0
 62
0
 10
75.10000000000002
 20
-74.0
 30
0.0
 11
57.31999999999999
 21
-74.0
 31
0.0
  0
LINE
  8
0
 62
0
 10
72.0
 20
-49.5
 30
0.0
 11
76.5
 21
-49.5
 31
0.0
  0
LINE
  8
0
 62
0
 10
72.0
 20
-54.0
 30
0.0
 11
72.0
 21
-49.5
 31
0.0
  0
LINE
  8
0
 62
0
 10
76.5
 20
-49.5
 30
0.0
 11
76.5
 21
-54.0
 31
0.0
  0
LINE
  8
0
 62
0
 10
76.5
 20
-54.0
 30
0.0
 11
72.0
 21
-54.0
 31
0.0
  0
LINE
  8
0
 62
0
 10
78.62000000000002
 20
-15.600000000000001
 30
0.0
 11
83.70000000000002
 21
-15.600000000000001
 31
0.0
  0
LINE
  8
0
 62
0
 10
83.70000000000002
 20
-15.600000000000001
 30
0.0
 11
83.70000000000002
 21
-41.0
 31
0.0
  0
LINE
  8
0
 62
0
 10
83.70000000000002
 20
-41.0
 30
0.0
 11
78.62000000000002
 21
-41.0
 31
0.0
  0
LINE
  8
0
 62
0
 10
78.62000000000002
 20
-41.0
 30
0.0
 11
78.62000000000002
 21
-15.600000000000001
 31
0.0
  0
LINE
  8
0
 62
0
 10
65.8
 20
14.75
 30
0.0
 11
70.3
 21
14.75
 31
0.0
  0
LINE
  8
0
 62
0
 10
65.8
 20
10.25
 30
0.0
 11
65.8
 21
14.75
 31
0.0
  0
LINE
  8
0
 62
0
 10
70.3
 20
14.75
 30
0.0
 11
70.3
 21
10.25
 31
0.0
  0
LINE
  8
0
 62
0
 10
70.3
 20
10.25
 30
0.0
 11
65.8
 21
10.25
 31
0.0
  0
LINE
  8
0
 62
0
 10
65.8
 20
2.25
 30
0.0
 11
70.3
 21
2.25
 31
0.0
  0
LINE
  8
0
 62
0
 10
65.8
 20
-2.25
 30
0.0
 11
65.8
 21
2.25
 31
0.0
  0
LINE
  8
0
 62
0
 10
70.3
 20
2.25
 30
0.0
 11
70.3
 21
-2.25
 31
0.0
  0
LINE
  8
0
 62
0
 10
70.3
 20
-2.25
 30
0.0
 11
65.8
 21
-2.25
 31
0.0
  0
LINE
  8
0
 62
0
 10
74.8
 20
2.25
 30
0.0
 11
79.3
 21
2.25
 31
0.0
  0
LINE
  8
0
 62
0
 10
74.8
 20
-2.25
 30
0.0
 11
74.8
 21
2.25
 31
0.0
  0
LINE
  8
0
 62
0
 10
79.3
 20
2.25
 30
0.0
 11
79.3
 21
-2.25
 31
0.0
  0
LINE
  8
0
 62
0
 10
79.3
 20
-2.25
 30
0.0
 11
74.8
 21
-2.25
 31
0.0
  0
LINE
  8
0
 62
0
 10
65.8
 20
-10.25
 30
0.0
 11
70.3
 21
-10.25
 31
0.0
  0
LINE
  8
0
 62
0
 10
65.8
 20
-14.75
 30
0.0
 11
65.8
 21
-10.25
 31
0.0
  0
LINE
  8
0
 62
0
 10
70.3
 20
-10.25
 30
0.0
 11
70.3
 21
-14.75
 31
0.0
  0
LINE
  8
0
 62
0
 10
70.3
 20
-14.75
 30
0.0
 11
65.8
 21
-14.75
 31
0.0
  0
LINE
  8
0
 62
0
 10
59.5
 20
-49.5
 30
0.0
 11
64.0
 21
-49.5
 31
0.0
  0
LINE
  8
0
 62
0
 10
59.5
 20
-54.0
 30
0.0
 11
59.5
 21
-49.5
 31
0.0
  0
LINE
  8
0
 62
0
 10
64.0
 20
-49.5
 30
0.0
 11
64.0
 21
-54.0
 31
0.0
  0
LINE
  8
0
 62
0
 10
64.0
 20
-54.0
 30
0.0
 11
59.5
 21
-54.0
 31
0.0
  0
LINE
  8
0
 62
0
 10
56.8
 20
2.25
 30
0.0
 11
61.3
 21
2.25
 31
0.0
  0
LINE
  8
0
 62
0
 10
56.8
 20
-2.25
 30
0.0
 11
56.8
 21
2.25
 31
0.0
  0
LINE
  8
0
 62
0
 10
61.3
 20
2.25
 30
0.0
 11
61.3
 21
-2.25
 31
0.0
  0
LINE
  8
0
 62
0
 10
61.3
 20
-2.25
 30
0.0
 11
56.8
 21
-2.25
 31
0.0
  0
LINE
  8
0
 62
0
 10
44.519999999999996
 20
25.4
 30
0.0
 11
49.599999999999994
 21
25.4
 31
0.0
  0
LINE
  8
0
 62
0
 10
49.599999999999994
 20
25.4
 30
0.0
 11
49.599999999999994
 21
-25.4
 31
0.0
  0
LINE
  8
0
 62
0
 10
49.599999999999994
 20
-25.4
 30
0.0
 11
44.519999999999996
 21
-25.4
 31
0.0
  0
LINE
  8
0
 62
0
 10
44.519999999999996
 20
-25.4
 30
0.0
 11
44.519999999999996
 21
25.4
 31
0.0
  0
LINE
  8
0
 62
0
 10
72.0
 20
54.0
 30
0.0
 11
76.5
 21
54.0
 31
0.0
  0
LINE
  8
0
 62
0
 10
72.0
 20
49.5
 30
0.0
 11
72.0
 21
54.0
 31
0.0
  0
LINE
  8
0
 62
0
 10
76.5
 20
54.0
 30
0.0
 11
76.5
 21
49.5
 31
0.0
  0
LINE
  8
0
 62
0
 10
76.5
 20
49.5
 30
0.0
 11
72.0
 21
49.5
 31
0.0
  0
LINE
  8
0
 62
0
 10
59.5
 20
54.0
 30
0.0
 11
64.0
 21
54.0
 31
0.0
  0
LINE
  8
0
 62
0
 10
59.5
 20
49.5
 30
0.0
 11
59.5
 21
54.0
 31
0.0
  0
LINE
  8
0
 62
0
 10
64.0
 20
54.0
 30
0.0
 11
64.0
 21
49.5
 31
0.0
  0
LINE
  8
0
 62
0
 10
64.0
 20
49.5
 30
0.0
 11
59.5
 21
49.5
 31
0.0
  0
CIRCLE
  8
0
 62
0
 10
74.25
 20
-51.74
 30
0.0
 40
1.4
  0
CIRCLE
  8
0
 62
0
 10
68.05
 20
12.5
 30
0.0
 40
1.4
  0
CIRCLE
  8
0
 62
0
 10
68.05
 20
-1.2e-16
 30
0.0
 40
1.4
  0
CIRCLE
  8
0
 62
0
 10
77.05
 20
-1.2e-16
 30
0.0
 40
1.4
  0
CIRCLE
  8
0
 62
0
 10
68.05
 20
-12.5
 30
0.0
 40
1.4
  0
CIRCLE
  8
0
 62
0
 10
61.74
 20
-51.74
 30
0.0
 40
1.4
  0
CIRCLE
  8
0
 62
0
 10
59.05
 20
-1.2e-16
 30
0.0
 40
1.4
  0
CIRCLE
  8
0
 62
0
 10
74.25
 20
51.75
 30
0.0
 40
1.4
  0
CIRCLE
  8
0
 62
0
 10
61.74
 20
51.75
 30
0.0
 40
1.4
  0
ENDBLK
  0
ENDSEC
  0
SECTION
  2
ENTITIES
  0
INSERT
  2
BODY008
  8
0
 62
0
 10
0.0
 20
0.0
 30
0.0
  0
INSERT
  2
PAD021
  8
0
 62
0
 10
0.0
 20
0.0
 30
0.0
  0
ENDSEC
  0
EOF
