%TF.GenerationSoftware,KiCad,Pcbnew,(5.1.6)-1*%
%TF.CreationDate,2020-11-03T20:56:16+09:00*%
%TF.ProjectId,FlightComputer-Keypad,466c6967-6874-4436-9f6d-70757465722d,rev?*%
%TF.SameCoordinates,Original*%
%TF.FileFunction,Legend,Top*%
%TF.FilePolarity,Positive*%
%FSLAX46Y46*%
G04 Gerber Fmt 4.6, Leading zero omitted, Abs format (unit mm)*
G04 Created by KiCad (PCBNEW (5.1.6)-1) date 2020-11-03 20:56:16*
%MOMM*%
%LPD*%
G01*
G04 APERTURE LIST*
%ADD10C,0.200000*%
%ADD11C,0.010000*%
%ADD12C,0.120000*%
%ADD13C,0.090000*%
G04 APERTURE END LIST*
D10*
X135958333Y-101377380D02*
X135958333Y-102091666D01*
X135910714Y-102234523D01*
X135815476Y-102329761D01*
X135672619Y-102377380D01*
X135577380Y-102377380D01*
X136291666Y-101377380D02*
X136863095Y-101377380D01*
X136577380Y-102377380D02*
X136577380Y-101377380D01*
X137148809Y-102091666D02*
X137625000Y-102091666D01*
X137053571Y-102377380D02*
X137386904Y-101377380D01*
X137720238Y-102377380D01*
X138577380Y-101425000D02*
X138482142Y-101377380D01*
X138339285Y-101377380D01*
X138196428Y-101425000D01*
X138101190Y-101520238D01*
X138053571Y-101615476D01*
X138005952Y-101805952D01*
X138005952Y-101948809D01*
X138053571Y-102139285D01*
X138101190Y-102234523D01*
X138196428Y-102329761D01*
X138339285Y-102377380D01*
X138434523Y-102377380D01*
X138577380Y-102329761D01*
X138625000Y-102282142D01*
X138625000Y-101948809D01*
X138434523Y-101948809D01*
X96394047Y-87078571D02*
X96060714Y-87078571D01*
X96060714Y-87602380D02*
X96060714Y-86602380D01*
X96536904Y-86602380D01*
X96917857Y-86602380D02*
X96917857Y-87411904D01*
X96965476Y-87507142D01*
X97013095Y-87554761D01*
X97108333Y-87602380D01*
X97298809Y-87602380D01*
X97394047Y-87554761D01*
X97441666Y-87507142D01*
X97489285Y-87411904D01*
X97489285Y-86602380D01*
X97965476Y-87602380D02*
X97965476Y-86602380D01*
X98536904Y-87602380D01*
X98536904Y-86602380D01*
X99584523Y-87507142D02*
X99536904Y-87554761D01*
X99394047Y-87602380D01*
X99298809Y-87602380D01*
X99155952Y-87554761D01*
X99060714Y-87459523D01*
X99013095Y-87364285D01*
X98965476Y-87173809D01*
X98965476Y-87030952D01*
X99013095Y-86840476D01*
X99060714Y-86745238D01*
X99155952Y-86650000D01*
X99298809Y-86602380D01*
X99394047Y-86602380D01*
X99536904Y-86650000D01*
X99584523Y-86697619D01*
X100536904Y-87602380D02*
X99965476Y-87602380D01*
X100251190Y-87602380D02*
X100251190Y-86602380D01*
X100155952Y-86745238D01*
X100060714Y-86840476D01*
X99965476Y-86888095D01*
X200116666Y-87677380D02*
X200116666Y-86677380D01*
X200450000Y-87391666D01*
X200783333Y-86677380D01*
X200783333Y-87677380D01*
X201259523Y-87153571D02*
X201592857Y-87153571D01*
X201735714Y-87677380D02*
X201259523Y-87677380D01*
X201259523Y-86677380D01*
X201735714Y-86677380D01*
X202164285Y-87677380D02*
X202164285Y-86677380D01*
X202735714Y-87677380D01*
X202735714Y-86677380D01*
X203211904Y-86677380D02*
X203211904Y-87486904D01*
X203259523Y-87582142D01*
X203307142Y-87629761D01*
X203402380Y-87677380D01*
X203592857Y-87677380D01*
X203688095Y-87629761D01*
X203735714Y-87582142D01*
X203783333Y-87486904D01*
X203783333Y-86677380D01*
X136622619Y-93902380D02*
X136146428Y-93902380D01*
X136146428Y-92902380D01*
X136955952Y-93378571D02*
X137289285Y-93378571D01*
X137432142Y-93902380D02*
X136955952Y-93902380D01*
X136955952Y-92902380D01*
X137432142Y-92902380D01*
X138194047Y-93378571D02*
X137860714Y-93378571D01*
X137860714Y-93902380D02*
X137860714Y-92902380D01*
X138336904Y-92902380D01*
X138575000Y-92902380D02*
X139146428Y-92902380D01*
X138860714Y-93902380D02*
X138860714Y-92902380D01*
X149289285Y-83802380D02*
X149289285Y-84611904D01*
X149336904Y-84707142D01*
X149384523Y-84754761D01*
X149479761Y-84802380D01*
X149670238Y-84802380D01*
X149765476Y-84754761D01*
X149813095Y-84707142D01*
X149860714Y-84611904D01*
X149860714Y-83802380D01*
X150336904Y-84802380D02*
X150336904Y-83802380D01*
X150717857Y-83802380D01*
X150813095Y-83850000D01*
X150860714Y-83897619D01*
X150908333Y-83992857D01*
X150908333Y-84135714D01*
X150860714Y-84230952D01*
X150813095Y-84278571D01*
X150717857Y-84326190D01*
X150336904Y-84326190D01*
X148003571Y-93378571D02*
X148336904Y-93378571D01*
X148479761Y-93902380D02*
X148003571Y-93902380D01*
X148003571Y-92902380D01*
X148479761Y-92902380D01*
X148908333Y-93902380D02*
X148908333Y-92902380D01*
X149479761Y-93902380D01*
X149479761Y-92902380D01*
X149813095Y-92902380D02*
X150384523Y-92902380D01*
X150098809Y-93902380D02*
X150098809Y-92902380D01*
X150717857Y-93378571D02*
X151051190Y-93378571D01*
X151194047Y-93902380D02*
X150717857Y-93902380D01*
X150717857Y-92902380D01*
X151194047Y-92902380D01*
X152194047Y-93902380D02*
X151860714Y-93426190D01*
X151622619Y-93902380D02*
X151622619Y-92902380D01*
X152003571Y-92902380D01*
X152098809Y-92950000D01*
X152146428Y-92997619D01*
X152194047Y-93092857D01*
X152194047Y-93235714D01*
X152146428Y-93330952D01*
X152098809Y-93378571D01*
X152003571Y-93426190D01*
X151622619Y-93426190D01*
X148194047Y-102902380D02*
X148194047Y-101902380D01*
X148432142Y-101902380D01*
X148575000Y-101950000D01*
X148670238Y-102045238D01*
X148717857Y-102140476D01*
X148765476Y-102330952D01*
X148765476Y-102473809D01*
X148717857Y-102664285D01*
X148670238Y-102759523D01*
X148575000Y-102854761D01*
X148432142Y-102902380D01*
X148194047Y-102902380D01*
X149384523Y-101902380D02*
X149575000Y-101902380D01*
X149670238Y-101950000D01*
X149765476Y-102045238D01*
X149813095Y-102235714D01*
X149813095Y-102569047D01*
X149765476Y-102759523D01*
X149670238Y-102854761D01*
X149575000Y-102902380D01*
X149384523Y-102902380D01*
X149289285Y-102854761D01*
X149194047Y-102759523D01*
X149146428Y-102569047D01*
X149146428Y-102235714D01*
X149194047Y-102045238D01*
X149289285Y-101950000D01*
X149384523Y-101902380D01*
X150146428Y-101902380D02*
X150384523Y-102902380D01*
X150575000Y-102188095D01*
X150765476Y-102902380D01*
X151003571Y-101902380D01*
X151384523Y-102902380D02*
X151384523Y-101902380D01*
X151955952Y-102902380D01*
X151955952Y-101902380D01*
X161341666Y-93902380D02*
X161008333Y-93426190D01*
X160770238Y-93902380D02*
X160770238Y-92902380D01*
X161151190Y-92902380D01*
X161246428Y-92950000D01*
X161294047Y-92997619D01*
X161341666Y-93092857D01*
X161341666Y-93235714D01*
X161294047Y-93330952D01*
X161246428Y-93378571D01*
X161151190Y-93426190D01*
X160770238Y-93426190D01*
X161770238Y-93902380D02*
X161770238Y-92902380D01*
X162770238Y-92950000D02*
X162675000Y-92902380D01*
X162532142Y-92902380D01*
X162389285Y-92950000D01*
X162294047Y-93045238D01*
X162246428Y-93140476D01*
X162198809Y-93330952D01*
X162198809Y-93473809D01*
X162246428Y-93664285D01*
X162294047Y-93759523D01*
X162389285Y-93854761D01*
X162532142Y-93902380D01*
X162627380Y-93902380D01*
X162770238Y-93854761D01*
X162817857Y-93807142D01*
X162817857Y-93473809D01*
X162627380Y-93473809D01*
X163246428Y-93902380D02*
X163246428Y-92902380D01*
X163246428Y-93378571D02*
X163817857Y-93378571D01*
X163817857Y-93902380D02*
X163817857Y-92902380D01*
X164151190Y-92902380D02*
X164722619Y-92902380D01*
X164436904Y-93902380D02*
X164436904Y-92902380D01*
X199203571Y-99478571D02*
X199536904Y-99478571D01*
X199679761Y-100002380D02*
X199203571Y-100002380D01*
X199203571Y-99002380D01*
X199679761Y-99002380D01*
X200060714Y-99954761D02*
X200203571Y-100002380D01*
X200441666Y-100002380D01*
X200536904Y-99954761D01*
X200584523Y-99907142D01*
X200632142Y-99811904D01*
X200632142Y-99716666D01*
X200584523Y-99621428D01*
X200536904Y-99573809D01*
X200441666Y-99526190D01*
X200251190Y-99478571D01*
X200155952Y-99430952D01*
X200108333Y-99383333D01*
X200060714Y-99288095D01*
X200060714Y-99192857D01*
X200108333Y-99097619D01*
X200155952Y-99050000D01*
X200251190Y-99002380D01*
X200489285Y-99002380D01*
X200632142Y-99050000D01*
X201632142Y-99907142D02*
X201584523Y-99954761D01*
X201441666Y-100002380D01*
X201346428Y-100002380D01*
X201203571Y-99954761D01*
X201108333Y-99859523D01*
X201060714Y-99764285D01*
X201013095Y-99573809D01*
X201013095Y-99430952D01*
X201060714Y-99240476D01*
X201108333Y-99145238D01*
X201203571Y-99050000D01*
X201346428Y-99002380D01*
X201441666Y-99002380D01*
X201584523Y-99050000D01*
X201632142Y-99097619D01*
X202013095Y-99716666D02*
X202489285Y-99716666D01*
X201917857Y-100002380D02*
X202251190Y-99002380D01*
X202584523Y-100002380D01*
X202917857Y-100002380D02*
X202917857Y-99002380D01*
X203298809Y-99002380D01*
X203394047Y-99050000D01*
X203441666Y-99097619D01*
X203489285Y-99192857D01*
X203489285Y-99335714D01*
X203441666Y-99430952D01*
X203394047Y-99478571D01*
X203298809Y-99526190D01*
X202917857Y-99526190D01*
X203917857Y-99478571D02*
X204251190Y-99478571D01*
X204394047Y-100002380D02*
X203917857Y-100002380D01*
X203917857Y-99002380D01*
X204394047Y-99002380D01*
X96469047Y-99728571D02*
X96135714Y-99728571D01*
X96135714Y-100252380D02*
X96135714Y-99252380D01*
X96611904Y-99252380D01*
X96992857Y-99252380D02*
X96992857Y-100061904D01*
X97040476Y-100157142D01*
X97088095Y-100204761D01*
X97183333Y-100252380D01*
X97373809Y-100252380D01*
X97469047Y-100204761D01*
X97516666Y-100157142D01*
X97564285Y-100061904D01*
X97564285Y-99252380D01*
X98040476Y-100252380D02*
X98040476Y-99252380D01*
X98611904Y-100252380D01*
X98611904Y-99252380D01*
X99659523Y-100157142D02*
X99611904Y-100204761D01*
X99469047Y-100252380D01*
X99373809Y-100252380D01*
X99230952Y-100204761D01*
X99135714Y-100109523D01*
X99088095Y-100014285D01*
X99040476Y-99823809D01*
X99040476Y-99680952D01*
X99088095Y-99490476D01*
X99135714Y-99395238D01*
X99230952Y-99300000D01*
X99373809Y-99252380D01*
X99469047Y-99252380D01*
X99611904Y-99300000D01*
X99659523Y-99347619D01*
X100040476Y-99347619D02*
X100088095Y-99300000D01*
X100183333Y-99252380D01*
X100421428Y-99252380D01*
X100516666Y-99300000D01*
X100564285Y-99347619D01*
X100611904Y-99442857D01*
X100611904Y-99538095D01*
X100564285Y-99680952D01*
X99992857Y-100252380D01*
X100611904Y-100252380D01*
D11*
%TO.C,G\u002A\u002A\u002A*%
G36*
X173452627Y-95649315D02*
G01*
X173780373Y-95690550D01*
X173825167Y-95699821D01*
X174371420Y-95841391D01*
X174918897Y-96023038D01*
X175446199Y-96236109D01*
X175931930Y-96471954D01*
X176354691Y-96721922D01*
X176356946Y-96723415D01*
X176585271Y-96892226D01*
X176829455Y-97102322D01*
X177069545Y-97334032D01*
X177285590Y-97567689D01*
X177457640Y-97783622D01*
X177508324Y-97858500D01*
X177649918Y-98115709D01*
X177768767Y-98397318D01*
X177857183Y-98679506D01*
X177907473Y-98938454D01*
X177914819Y-99117563D01*
X177874675Y-99173157D01*
X177758470Y-99254752D01*
X177564710Y-99363324D01*
X177445372Y-99424479D01*
X177261988Y-99514194D01*
X177103475Y-99587545D01*
X176986449Y-99637129D01*
X176927526Y-99655541D01*
X176926788Y-99655533D01*
X176863293Y-99633779D01*
X176755179Y-99579810D01*
X176661500Y-99526373D01*
X176536984Y-99455290D01*
X176361505Y-99359857D01*
X176159918Y-99253410D01*
X175986908Y-99164386D01*
X175013391Y-98713857D01*
X174032852Y-98346792D01*
X173046368Y-98063533D01*
X172055020Y-97864424D01*
X171750833Y-97820360D01*
X171507516Y-97796187D01*
X171200983Y-97777733D01*
X170852502Y-97765208D01*
X170483344Y-97758822D01*
X170114780Y-97758784D01*
X169768079Y-97765306D01*
X169464512Y-97778596D01*
X169253167Y-97795706D01*
X168554224Y-97897107D01*
X167846599Y-98048346D01*
X167156428Y-98242601D01*
X166509851Y-98473048D01*
X166264897Y-98575761D01*
X166029966Y-98676118D01*
X165868500Y-98737767D01*
X165778809Y-98760992D01*
X165759205Y-98746079D01*
X165808000Y-98693311D01*
X165871262Y-98642172D01*
X165976563Y-98561216D01*
X166056485Y-98499739D01*
X166078167Y-98483045D01*
X166338395Y-98290213D01*
X166657453Y-98066623D01*
X167020134Y-97822596D01*
X167411236Y-97568454D01*
X167623333Y-97434135D01*
X168331113Y-97025217D01*
X169100598Y-96645681D01*
X169911251Y-96304800D01*
X170742533Y-96011848D01*
X170843959Y-95979963D01*
X171270527Y-95863994D01*
X171722955Y-95770248D01*
X172184311Y-95700316D01*
X172637664Y-95655789D01*
X173066080Y-95638258D01*
X173452627Y-95649315D01*
G37*
X173452627Y-95649315D02*
X173780373Y-95690550D01*
X173825167Y-95699821D01*
X174371420Y-95841391D01*
X174918897Y-96023038D01*
X175446199Y-96236109D01*
X175931930Y-96471954D01*
X176354691Y-96721922D01*
X176356946Y-96723415D01*
X176585271Y-96892226D01*
X176829455Y-97102322D01*
X177069545Y-97334032D01*
X177285590Y-97567689D01*
X177457640Y-97783622D01*
X177508324Y-97858500D01*
X177649918Y-98115709D01*
X177768767Y-98397318D01*
X177857183Y-98679506D01*
X177907473Y-98938454D01*
X177914819Y-99117563D01*
X177874675Y-99173157D01*
X177758470Y-99254752D01*
X177564710Y-99363324D01*
X177445372Y-99424479D01*
X177261988Y-99514194D01*
X177103475Y-99587545D01*
X176986449Y-99637129D01*
X176927526Y-99655541D01*
X176926788Y-99655533D01*
X176863293Y-99633779D01*
X176755179Y-99579810D01*
X176661500Y-99526373D01*
X176536984Y-99455290D01*
X176361505Y-99359857D01*
X176159918Y-99253410D01*
X175986908Y-99164386D01*
X175013391Y-98713857D01*
X174032852Y-98346792D01*
X173046368Y-98063533D01*
X172055020Y-97864424D01*
X171750833Y-97820360D01*
X171507516Y-97796187D01*
X171200983Y-97777733D01*
X170852502Y-97765208D01*
X170483344Y-97758822D01*
X170114780Y-97758784D01*
X169768079Y-97765306D01*
X169464512Y-97778596D01*
X169253167Y-97795706D01*
X168554224Y-97897107D01*
X167846599Y-98048346D01*
X167156428Y-98242601D01*
X166509851Y-98473048D01*
X166264897Y-98575761D01*
X166029966Y-98676118D01*
X165868500Y-98737767D01*
X165778809Y-98760992D01*
X165759205Y-98746079D01*
X165808000Y-98693311D01*
X165871262Y-98642172D01*
X165976563Y-98561216D01*
X166056485Y-98499739D01*
X166078167Y-98483045D01*
X166338395Y-98290213D01*
X166657453Y-98066623D01*
X167020134Y-97822596D01*
X167411236Y-97568454D01*
X167623333Y-97434135D01*
X168331113Y-97025217D01*
X169100598Y-96645681D01*
X169911251Y-96304800D01*
X170742533Y-96011848D01*
X170843959Y-95979963D01*
X171270527Y-95863994D01*
X171722955Y-95770248D01*
X172184311Y-95700316D01*
X172637664Y-95655789D01*
X173066080Y-95638258D01*
X173452627Y-95649315D01*
G36*
X168145066Y-100410519D02*
G01*
X168261309Y-100497089D01*
X168330281Y-100617556D01*
X168342763Y-100752437D01*
X168289537Y-100882245D01*
X168250351Y-100926017D01*
X168120673Y-100996957D01*
X167966617Y-101012255D01*
X167822168Y-100972345D01*
X167751982Y-100919684D01*
X167677793Y-100787471D01*
X167672722Y-100645525D01*
X167727244Y-100515477D01*
X167831834Y-100418962D01*
X167976969Y-100377611D01*
X167990769Y-100377333D01*
X168145066Y-100410519D01*
G37*
X168145066Y-100410519D02*
X168261309Y-100497089D01*
X168330281Y-100617556D01*
X168342763Y-100752437D01*
X168289537Y-100882245D01*
X168250351Y-100926017D01*
X168120673Y-100996957D01*
X167966617Y-101012255D01*
X167822168Y-100972345D01*
X167751982Y-100919684D01*
X167677793Y-100787471D01*
X167672722Y-100645525D01*
X167727244Y-100515477D01*
X167831834Y-100418962D01*
X167976969Y-100377611D01*
X167990769Y-100377333D01*
X168145066Y-100410519D01*
G36*
X172525045Y-95332380D02*
G01*
X172536498Y-95332746D01*
X172669449Y-95344841D01*
X172723052Y-95365707D01*
X172701282Y-95389075D01*
X172608111Y-95408679D01*
X172482771Y-95417502D01*
X172295870Y-95429852D01*
X172049810Y-95456070D01*
X171768441Y-95493345D01*
X171531737Y-95529596D01*
X171445088Y-95543255D01*
X171304311Y-95565003D01*
X171138989Y-95590273D01*
X171129570Y-95591704D01*
X170947296Y-95625993D01*
X170722122Y-95677835D01*
X170491571Y-95738316D01*
X170396167Y-95765945D01*
X170212673Y-95820632D01*
X170054814Y-95866920D01*
X169943206Y-95898806D01*
X169904027Y-95909252D01*
X169828303Y-95933576D01*
X169705802Y-95979169D01*
X169607694Y-96018105D01*
X169432056Y-96089506D01*
X169245950Y-96164966D01*
X169168500Y-96196297D01*
X169060621Y-96244149D01*
X168893441Y-96323440D01*
X168682630Y-96426269D01*
X168443856Y-96544732D01*
X168192790Y-96670927D01*
X167945102Y-96796951D01*
X167716460Y-96914902D01*
X167522535Y-97016877D01*
X167378996Y-97094974D01*
X167327000Y-97125009D01*
X167230178Y-97186124D01*
X167078421Y-97285164D01*
X166886607Y-97412153D01*
X166669614Y-97557115D01*
X166442322Y-97710075D01*
X166219608Y-97861057D01*
X166016352Y-98000084D01*
X165852356Y-98113734D01*
X165708064Y-98217552D01*
X165535236Y-98346125D01*
X165354006Y-98484004D01*
X165184510Y-98615739D01*
X165046883Y-98725882D01*
X164971889Y-98789290D01*
X164913448Y-98838966D01*
X164815030Y-98920338D01*
X164741545Y-98980333D01*
X164540053Y-99154990D01*
X164311571Y-99370719D01*
X164076401Y-99606810D01*
X163854844Y-99842553D01*
X163667201Y-100057238D01*
X163583990Y-100161214D01*
X163330206Y-100521234D01*
X163141284Y-100854735D01*
X163008739Y-101177486D01*
X162971889Y-101298777D01*
X162928000Y-101457156D01*
X162901218Y-101559126D01*
X162887375Y-101630224D01*
X162882298Y-101695991D01*
X162881816Y-101781965D01*
X162882000Y-101849200D01*
X162882000Y-102051068D01*
X162352402Y-102314867D01*
X162154625Y-102410777D01*
X161979349Y-102490936D01*
X161842619Y-102548360D01*
X161760478Y-102576063D01*
X161749152Y-102577540D01*
X161662270Y-102555218D01*
X161557647Y-102503456D01*
X161441169Y-102392710D01*
X161340819Y-102229934D01*
X161272325Y-102047762D01*
X161251417Y-101878832D01*
X161252055Y-101869381D01*
X161319728Y-101489492D01*
X161458952Y-101084995D01*
X161663533Y-100664811D01*
X161927277Y-100237861D01*
X162243991Y-99813067D01*
X162607482Y-99399350D01*
X163011554Y-99005630D01*
X163450016Y-98640830D01*
X163541227Y-98572172D01*
X164161701Y-98138901D01*
X164840890Y-97710822D01*
X165556889Y-97299881D01*
X166287792Y-96918028D01*
X167011695Y-96577210D01*
X167706694Y-96289375D01*
X167771500Y-96264814D01*
X168192182Y-96111287D01*
X168613761Y-95965816D01*
X169022107Y-95832774D01*
X169403091Y-95716536D01*
X169742584Y-95621475D01*
X170026455Y-95551963D01*
X170163333Y-95524493D01*
X170258100Y-95506717D01*
X170403908Y-95478276D01*
X170565500Y-95446068D01*
X170973774Y-95380557D01*
X171428795Y-95340212D01*
X171942055Y-95324373D01*
X172525045Y-95332380D01*
G37*
X172525045Y-95332380D02*
X172536498Y-95332746D01*
X172669449Y-95344841D01*
X172723052Y-95365707D01*
X172701282Y-95389075D01*
X172608111Y-95408679D01*
X172482771Y-95417502D01*
X172295870Y-95429852D01*
X172049810Y-95456070D01*
X171768441Y-95493345D01*
X171531737Y-95529596D01*
X171445088Y-95543255D01*
X171304311Y-95565003D01*
X171138989Y-95590273D01*
X171129570Y-95591704D01*
X170947296Y-95625993D01*
X170722122Y-95677835D01*
X170491571Y-95738316D01*
X170396167Y-95765945D01*
X170212673Y-95820632D01*
X170054814Y-95866920D01*
X169943206Y-95898806D01*
X169904027Y-95909252D01*
X169828303Y-95933576D01*
X169705802Y-95979169D01*
X169607694Y-96018105D01*
X169432056Y-96089506D01*
X169245950Y-96164966D01*
X169168500Y-96196297D01*
X169060621Y-96244149D01*
X168893441Y-96323440D01*
X168682630Y-96426269D01*
X168443856Y-96544732D01*
X168192790Y-96670927D01*
X167945102Y-96796951D01*
X167716460Y-96914902D01*
X167522535Y-97016877D01*
X167378996Y-97094974D01*
X167327000Y-97125009D01*
X167230178Y-97186124D01*
X167078421Y-97285164D01*
X166886607Y-97412153D01*
X166669614Y-97557115D01*
X166442322Y-97710075D01*
X166219608Y-97861057D01*
X166016352Y-98000084D01*
X165852356Y-98113734D01*
X165708064Y-98217552D01*
X165535236Y-98346125D01*
X165354006Y-98484004D01*
X165184510Y-98615739D01*
X165046883Y-98725882D01*
X164971889Y-98789290D01*
X164913448Y-98838966D01*
X164815030Y-98920338D01*
X164741545Y-98980333D01*
X164540053Y-99154990D01*
X164311571Y-99370719D01*
X164076401Y-99606810D01*
X163854844Y-99842553D01*
X163667201Y-100057238D01*
X163583990Y-100161214D01*
X163330206Y-100521234D01*
X163141284Y-100854735D01*
X163008739Y-101177486D01*
X162971889Y-101298777D01*
X162928000Y-101457156D01*
X162901218Y-101559126D01*
X162887375Y-101630224D01*
X162882298Y-101695991D01*
X162881816Y-101781965D01*
X162882000Y-101849200D01*
X162882000Y-102051068D01*
X162352402Y-102314867D01*
X162154625Y-102410777D01*
X161979349Y-102490936D01*
X161842619Y-102548360D01*
X161760478Y-102576063D01*
X161749152Y-102577540D01*
X161662270Y-102555218D01*
X161557647Y-102503456D01*
X161441169Y-102392710D01*
X161340819Y-102229934D01*
X161272325Y-102047762D01*
X161251417Y-101878832D01*
X161252055Y-101869381D01*
X161319728Y-101489492D01*
X161458952Y-101084995D01*
X161663533Y-100664811D01*
X161927277Y-100237861D01*
X162243991Y-99813067D01*
X162607482Y-99399350D01*
X163011554Y-99005630D01*
X163450016Y-98640830D01*
X163541227Y-98572172D01*
X164161701Y-98138901D01*
X164840890Y-97710822D01*
X165556889Y-97299881D01*
X166287792Y-96918028D01*
X167011695Y-96577210D01*
X167706694Y-96289375D01*
X167771500Y-96264814D01*
X168192182Y-96111287D01*
X168613761Y-95965816D01*
X169022107Y-95832774D01*
X169403091Y-95716536D01*
X169742584Y-95621475D01*
X170026455Y-95551963D01*
X170163333Y-95524493D01*
X170258100Y-95506717D01*
X170403908Y-95478276D01*
X170565500Y-95446068D01*
X170973774Y-95380557D01*
X171428795Y-95340212D01*
X171942055Y-95324373D01*
X172525045Y-95332380D01*
G36*
X191216342Y-101310019D02*
G01*
X191311018Y-101317992D01*
X191356688Y-101338456D01*
X191371183Y-101377282D01*
X191372333Y-101413224D01*
X191372333Y-101517781D01*
X191526407Y-101413224D01*
X191722810Y-101324554D01*
X191865074Y-101308666D01*
X192049667Y-101308666D01*
X192049667Y-101895423D01*
X191912553Y-101856099D01*
X191736865Y-101841079D01*
X191576482Y-101890172D01*
X191456795Y-101994144D01*
X191435097Y-102029757D01*
X191399344Y-102144908D01*
X191378745Y-102327129D01*
X191372333Y-102576564D01*
X191372333Y-103002000D01*
X190737333Y-103002000D01*
X190737333Y-101308666D01*
X191054833Y-101308666D01*
X191216342Y-101310019D01*
G37*
X191216342Y-101310019D02*
X191311018Y-101317992D01*
X191356688Y-101338456D01*
X191371183Y-101377282D01*
X191372333Y-101413224D01*
X191372333Y-101517781D01*
X191526407Y-101413224D01*
X191722810Y-101324554D01*
X191865074Y-101308666D01*
X192049667Y-101308666D01*
X192049667Y-101895423D01*
X191912553Y-101856099D01*
X191736865Y-101841079D01*
X191576482Y-101890172D01*
X191456795Y-101994144D01*
X191435097Y-102029757D01*
X191399344Y-102144908D01*
X191378745Y-102327129D01*
X191372333Y-102576564D01*
X191372333Y-103002000D01*
X190737333Y-103002000D01*
X190737333Y-101308666D01*
X191054833Y-101308666D01*
X191216342Y-101310019D01*
G36*
X188028000Y-101308666D02*
G01*
X188366667Y-101308666D01*
X188366667Y-101541500D01*
X188364310Y-101674651D01*
X188350174Y-101743962D01*
X188313662Y-101770250D01*
X188248133Y-101774333D01*
X188164880Y-101780559D01*
X188105629Y-101807341D01*
X188066352Y-101866834D01*
X188043025Y-101971195D01*
X188031621Y-102132577D01*
X188028115Y-102363137D01*
X188028000Y-102438966D01*
X188028000Y-103002000D01*
X187393000Y-103002000D01*
X187393000Y-102388166D01*
X187392410Y-102148838D01*
X187389465Y-101981386D01*
X187382401Y-101873020D01*
X187369454Y-101810953D01*
X187348859Y-101782394D01*
X187318853Y-101774556D01*
X187308333Y-101774333D01*
X187259404Y-101764227D01*
X187233915Y-101720532D01*
X187224570Y-101623184D01*
X187223667Y-101541500D01*
X187227341Y-101406946D01*
X187243230Y-101336850D01*
X187278630Y-101311149D01*
X187308333Y-101308666D01*
X187355621Y-101299398D01*
X187381173Y-101258686D01*
X187391443Y-101167167D01*
X187393000Y-101054666D01*
X187393000Y-100800666D01*
X188028000Y-100800666D01*
X188028000Y-101308666D01*
G37*
X188028000Y-101308666D02*
X188366667Y-101308666D01*
X188366667Y-101541500D01*
X188364310Y-101674651D01*
X188350174Y-101743962D01*
X188313662Y-101770250D01*
X188248133Y-101774333D01*
X188164880Y-101780559D01*
X188105629Y-101807341D01*
X188066352Y-101866834D01*
X188043025Y-101971195D01*
X188031621Y-102132577D01*
X188028115Y-102363137D01*
X188028000Y-102438966D01*
X188028000Y-103002000D01*
X187393000Y-103002000D01*
X187393000Y-102388166D01*
X187392410Y-102148838D01*
X187389465Y-101981386D01*
X187382401Y-101873020D01*
X187369454Y-101810953D01*
X187348859Y-101782394D01*
X187318853Y-101774556D01*
X187308333Y-101774333D01*
X187259404Y-101764227D01*
X187233915Y-101720532D01*
X187224570Y-101623184D01*
X187223667Y-101541500D01*
X187227341Y-101406946D01*
X187243230Y-101336850D01*
X187278630Y-101311149D01*
X187308333Y-101308666D01*
X187355621Y-101299398D01*
X187381173Y-101258686D01*
X187391443Y-101167167D01*
X187393000Y-101054666D01*
X187393000Y-100800666D01*
X188028000Y-100800666D01*
X188028000Y-101308666D01*
G36*
X181969903Y-101291297D02*
G01*
X182086217Y-101335541D01*
X182178528Y-101387129D01*
X182247202Y-101450320D01*
X182295647Y-101537615D01*
X182327270Y-101661510D01*
X182345479Y-101834507D01*
X182353682Y-102069102D01*
X182355333Y-102322564D01*
X182355333Y-103002000D01*
X181762667Y-103002000D01*
X181762667Y-102583958D01*
X181758961Y-102320284D01*
X181746046Y-102127611D01*
X181721225Y-101992523D01*
X181681800Y-101901605D01*
X181625075Y-101841442D01*
X181611474Y-101831957D01*
X181518039Y-101791477D01*
X181429383Y-101813847D01*
X181423255Y-101817065D01*
X181331442Y-101897820D01*
X181267437Y-102031971D01*
X181228775Y-102228401D01*
X181212993Y-102495990D01*
X181212333Y-102577306D01*
X181212333Y-103002000D01*
X180628373Y-103002000D01*
X180613436Y-102469080D01*
X180606224Y-102246628D01*
X180597283Y-102092824D01*
X180583618Y-101991657D01*
X180562231Y-101927118D01*
X180530127Y-101883199D01*
X180498560Y-101855247D01*
X180411282Y-101792532D01*
X180345927Y-101783331D01*
X180266775Y-101828530D01*
X180223209Y-101862072D01*
X180176833Y-101901551D01*
X180145505Y-101944470D01*
X180126275Y-102007066D01*
X180116193Y-102105578D01*
X180112307Y-102256243D01*
X180111667Y-102475297D01*
X180111667Y-103002000D01*
X179476667Y-103002000D01*
X179476667Y-101308666D01*
X179794167Y-101308666D01*
X179961188Y-101311907D01*
X180059250Y-101323728D01*
X180103888Y-101347280D01*
X180111667Y-101373027D01*
X180123257Y-101407176D01*
X180170070Y-101402431D01*
X180270169Y-101356510D01*
X180279313Y-101351860D01*
X180451116Y-101292574D01*
X180645066Y-101268064D01*
X180825823Y-101280393D01*
X180929366Y-101313956D01*
X181031253Y-101379287D01*
X181117083Y-101448336D01*
X181212333Y-101535091D01*
X181307583Y-101448336D01*
X181509887Y-101317263D01*
X181735375Y-101264234D01*
X181969903Y-101291297D01*
G37*
X181969903Y-101291297D02*
X182086217Y-101335541D01*
X182178528Y-101387129D01*
X182247202Y-101450320D01*
X182295647Y-101537615D01*
X182327270Y-101661510D01*
X182345479Y-101834507D01*
X182353682Y-102069102D01*
X182355333Y-102322564D01*
X182355333Y-103002000D01*
X181762667Y-103002000D01*
X181762667Y-102583958D01*
X181758961Y-102320284D01*
X181746046Y-102127611D01*
X181721225Y-101992523D01*
X181681800Y-101901605D01*
X181625075Y-101841442D01*
X181611474Y-101831957D01*
X181518039Y-101791477D01*
X181429383Y-101813847D01*
X181423255Y-101817065D01*
X181331442Y-101897820D01*
X181267437Y-102031971D01*
X181228775Y-102228401D01*
X181212993Y-102495990D01*
X181212333Y-102577306D01*
X181212333Y-103002000D01*
X180628373Y-103002000D01*
X180613436Y-102469080D01*
X180606224Y-102246628D01*
X180597283Y-102092824D01*
X180583618Y-101991657D01*
X180562231Y-101927118D01*
X180530127Y-101883199D01*
X180498560Y-101855247D01*
X180411282Y-101792532D01*
X180345927Y-101783331D01*
X180266775Y-101828530D01*
X180223209Y-101862072D01*
X180176833Y-101901551D01*
X180145505Y-101944470D01*
X180126275Y-102007066D01*
X180116193Y-102105578D01*
X180112307Y-102256243D01*
X180111667Y-102475297D01*
X180111667Y-103002000D01*
X179476667Y-103002000D01*
X179476667Y-101308666D01*
X179794167Y-101308666D01*
X179961188Y-101311907D01*
X180059250Y-101323728D01*
X180103888Y-101347280D01*
X180111667Y-101373027D01*
X180123257Y-101407176D01*
X180170070Y-101402431D01*
X180270169Y-101356510D01*
X180279313Y-101351860D01*
X180451116Y-101292574D01*
X180645066Y-101268064D01*
X180825823Y-101280393D01*
X180929366Y-101313956D01*
X181031253Y-101379287D01*
X181117083Y-101448336D01*
X181212333Y-101535091D01*
X181307583Y-101448336D01*
X181509887Y-101317263D01*
X181735375Y-101264234D01*
X181969903Y-101291297D01*
G36*
X173931000Y-101308666D02*
G01*
X174269667Y-101308666D01*
X174269667Y-101769222D01*
X173952167Y-101795500D01*
X173928675Y-103002000D01*
X173296000Y-103002000D01*
X173296000Y-101774333D01*
X173190167Y-101774333D01*
X173129554Y-101768289D01*
X173097993Y-101736345D01*
X173086067Y-101657781D01*
X173084333Y-101541500D01*
X173087080Y-101408151D01*
X173101601Y-101338718D01*
X173137311Y-101312481D01*
X173190167Y-101308666D01*
X173248821Y-101303288D01*
X173280488Y-101273900D01*
X173293452Y-101200620D01*
X173295997Y-101063569D01*
X173296000Y-101054666D01*
X173296000Y-100800666D01*
X173931000Y-100800666D01*
X173931000Y-101308666D01*
G37*
X173931000Y-101308666D02*
X174269667Y-101308666D01*
X174269667Y-101769222D01*
X173952167Y-101795500D01*
X173928675Y-103002000D01*
X173296000Y-103002000D01*
X173296000Y-101774333D01*
X173190167Y-101774333D01*
X173129554Y-101768289D01*
X173097993Y-101736345D01*
X173086067Y-101657781D01*
X173084333Y-101541500D01*
X173087080Y-101408151D01*
X173101601Y-101338718D01*
X173137311Y-101312481D01*
X173190167Y-101308666D01*
X173248821Y-101303288D01*
X173280488Y-101273900D01*
X173293452Y-101200620D01*
X173295997Y-101063569D01*
X173296000Y-101054666D01*
X173296000Y-100800666D01*
X173931000Y-100800666D01*
X173931000Y-101308666D01*
G36*
X171645000Y-100843000D02*
G01*
X171646353Y-101056003D01*
X171650069Y-101235046D01*
X171655632Y-101364981D01*
X171662529Y-101430661D01*
X171665143Y-101435666D01*
X171710854Y-101415702D01*
X171798872Y-101366217D01*
X171823893Y-101351158D01*
X172010818Y-101279679D01*
X172220318Y-101266389D01*
X172428320Y-101306430D01*
X172610747Y-101394946D01*
X172743525Y-101527078D01*
X172750506Y-101538111D01*
X172781241Y-101598552D01*
X172803021Y-101672651D01*
X172817325Y-101775228D01*
X172825629Y-101921103D01*
X172829412Y-102125096D01*
X172830175Y-102337104D01*
X172830333Y-103005709D01*
X172523417Y-102993271D01*
X172216500Y-102980833D01*
X172195333Y-102431631D01*
X172186009Y-102206943D01*
X172176330Y-102051959D01*
X172163150Y-101951763D01*
X172143324Y-101891436D01*
X172113706Y-101856063D01*
X172071153Y-101830728D01*
X172068333Y-101829308D01*
X171922416Y-101796404D01*
X171787156Y-101846691D01*
X171719083Y-101909701D01*
X171686413Y-101961036D01*
X171664719Y-102036019D01*
X171651961Y-102150870D01*
X171646099Y-102321809D01*
X171645000Y-102498689D01*
X171645000Y-103002000D01*
X171010000Y-103002000D01*
X171010000Y-100250333D01*
X171645000Y-100250333D01*
X171645000Y-100843000D01*
G37*
X171645000Y-100843000D02*
X171646353Y-101056003D01*
X171650069Y-101235046D01*
X171655632Y-101364981D01*
X171662529Y-101430661D01*
X171665143Y-101435666D01*
X171710854Y-101415702D01*
X171798872Y-101366217D01*
X171823893Y-101351158D01*
X172010818Y-101279679D01*
X172220318Y-101266389D01*
X172428320Y-101306430D01*
X172610747Y-101394946D01*
X172743525Y-101527078D01*
X172750506Y-101538111D01*
X172781241Y-101598552D01*
X172803021Y-101672651D01*
X172817325Y-101775228D01*
X172825629Y-101921103D01*
X172829412Y-102125096D01*
X172830175Y-102337104D01*
X172830333Y-103005709D01*
X172523417Y-102993271D01*
X172216500Y-102980833D01*
X172195333Y-102431631D01*
X172186009Y-102206943D01*
X172176330Y-102051959D01*
X172163150Y-101951763D01*
X172143324Y-101891436D01*
X172113706Y-101856063D01*
X172071153Y-101830728D01*
X172068333Y-101829308D01*
X171922416Y-101796404D01*
X171787156Y-101846691D01*
X171719083Y-101909701D01*
X171686413Y-101961036D01*
X171664719Y-102036019D01*
X171651961Y-102150870D01*
X171646099Y-102321809D01*
X171645000Y-102498689D01*
X171645000Y-103002000D01*
X171010000Y-103002000D01*
X171010000Y-100250333D01*
X171645000Y-100250333D01*
X171645000Y-100843000D01*
G36*
X168300667Y-103002000D02*
G01*
X167665667Y-103002000D01*
X167665667Y-101308666D01*
X168300667Y-101308666D01*
X168300667Y-103002000D01*
G37*
X168300667Y-103002000D02*
X167665667Y-103002000D01*
X167665667Y-101308666D01*
X168300667Y-101308666D01*
X168300667Y-103002000D01*
G36*
X167284667Y-103002000D02*
G01*
X166649667Y-103002000D01*
X166649667Y-100250333D01*
X167284667Y-100250333D01*
X167284667Y-103002000D01*
G37*
X167284667Y-103002000D02*
X166649667Y-103002000D01*
X166649667Y-100250333D01*
X167284667Y-100250333D01*
X167284667Y-103002000D01*
G36*
X166353333Y-101012333D02*
G01*
X165994989Y-101012333D01*
X165791322Y-101018822D01*
X165658718Y-101044843D01*
X165584130Y-101100223D01*
X165554513Y-101194792D01*
X165556820Y-101338379D01*
X165557135Y-101342208D01*
X165570167Y-101499166D01*
X165919417Y-101511462D01*
X166268667Y-101523757D01*
X166268667Y-102028333D01*
X165952656Y-102028333D01*
X165790306Y-102031872D01*
X165678587Y-102051364D01*
X165608048Y-102100123D01*
X165569242Y-102191460D01*
X165552719Y-102338688D01*
X165549030Y-102555120D01*
X165549000Y-102597050D01*
X165549000Y-103002000D01*
X164914000Y-103002000D01*
X164914000Y-100504333D01*
X166353333Y-100504333D01*
X166353333Y-101012333D01*
G37*
X166353333Y-101012333D02*
X165994989Y-101012333D01*
X165791322Y-101018822D01*
X165658718Y-101044843D01*
X165584130Y-101100223D01*
X165554513Y-101194792D01*
X165556820Y-101338379D01*
X165557135Y-101342208D01*
X165570167Y-101499166D01*
X165919417Y-101511462D01*
X166268667Y-101523757D01*
X166268667Y-102028333D01*
X165952656Y-102028333D01*
X165790306Y-102031872D01*
X165678587Y-102051364D01*
X165608048Y-102100123D01*
X165569242Y-102191460D01*
X165552719Y-102338688D01*
X165549030Y-102555120D01*
X165549000Y-102597050D01*
X165549000Y-103002000D01*
X164914000Y-103002000D01*
X164914000Y-100504333D01*
X166353333Y-100504333D01*
X166353333Y-101012333D01*
G36*
X189549960Y-101273408D02*
G01*
X189739295Y-101293192D01*
X189881723Y-101334244D01*
X190014344Y-101407276D01*
X190014972Y-101407691D01*
X190177487Y-101559784D01*
X190304937Y-101765015D01*
X190382162Y-101994228D01*
X190398253Y-102144750D01*
X190398667Y-102324666D01*
X189804671Y-102324666D01*
X189547377Y-102326738D01*
X189365104Y-102335175D01*
X189248260Y-102353313D01*
X189187252Y-102384487D01*
X189172490Y-102432031D01*
X189194381Y-102499279D01*
X189210588Y-102531203D01*
X189296592Y-102610414D01*
X189429996Y-102647900D01*
X189582197Y-102639248D01*
X189683157Y-102604104D01*
X189793968Y-102567126D01*
X189935877Y-102543844D01*
X190085977Y-102534598D01*
X190221358Y-102539728D01*
X190319112Y-102559573D01*
X190356333Y-102594124D01*
X190321396Y-102690945D01*
X190230471Y-102801752D01*
X190104390Y-102904928D01*
X189999827Y-102964055D01*
X189829544Y-103013766D01*
X189612855Y-103039122D01*
X189383187Y-103039676D01*
X189173966Y-103014980D01*
X189044000Y-102976841D01*
X188809334Y-102835838D01*
X188643920Y-102646127D01*
X188547772Y-102407733D01*
X188520470Y-102155333D01*
X188537360Y-101940410D01*
X189171000Y-101940410D01*
X189211543Y-101965524D01*
X189326793Y-101981163D01*
X189488500Y-101986000D01*
X189659272Y-101982104D01*
X189759215Y-101968743D01*
X189801878Y-101943408D01*
X189806000Y-101927189D01*
X189770178Y-101830929D01*
X189681168Y-101737039D01*
X189566650Y-101672959D01*
X189542482Y-101665983D01*
X189451312Y-101661309D01*
X189366097Y-101705651D01*
X189299065Y-101766755D01*
X189219732Y-101855954D01*
X189174797Y-101925607D01*
X189171000Y-101940410D01*
X188537360Y-101940410D01*
X188539192Y-101917100D01*
X188602956Y-101729902D01*
X188723156Y-101567081D01*
X188805373Y-101488765D01*
X188990302Y-101361145D01*
X189199205Y-101290280D01*
X189453236Y-101270049D01*
X189549960Y-101273408D01*
G37*
X189549960Y-101273408D02*
X189739295Y-101293192D01*
X189881723Y-101334244D01*
X190014344Y-101407276D01*
X190014972Y-101407691D01*
X190177487Y-101559784D01*
X190304937Y-101765015D01*
X190382162Y-101994228D01*
X190398253Y-102144750D01*
X190398667Y-102324666D01*
X189804671Y-102324666D01*
X189547377Y-102326738D01*
X189365104Y-102335175D01*
X189248260Y-102353313D01*
X189187252Y-102384487D01*
X189172490Y-102432031D01*
X189194381Y-102499279D01*
X189210588Y-102531203D01*
X189296592Y-102610414D01*
X189429996Y-102647900D01*
X189582197Y-102639248D01*
X189683157Y-102604104D01*
X189793968Y-102567126D01*
X189935877Y-102543844D01*
X190085977Y-102534598D01*
X190221358Y-102539728D01*
X190319112Y-102559573D01*
X190356333Y-102594124D01*
X190321396Y-102690945D01*
X190230471Y-102801752D01*
X190104390Y-102904928D01*
X189999827Y-102964055D01*
X189829544Y-103013766D01*
X189612855Y-103039122D01*
X189383187Y-103039676D01*
X189173966Y-103014980D01*
X189044000Y-102976841D01*
X188809334Y-102835838D01*
X188643920Y-102646127D01*
X188547772Y-102407733D01*
X188520470Y-102155333D01*
X188537360Y-101940410D01*
X189171000Y-101940410D01*
X189211543Y-101965524D01*
X189326793Y-101981163D01*
X189488500Y-101986000D01*
X189659272Y-101982104D01*
X189759215Y-101968743D01*
X189801878Y-101943408D01*
X189806000Y-101927189D01*
X189770178Y-101830929D01*
X189681168Y-101737039D01*
X189566650Y-101672959D01*
X189542482Y-101665983D01*
X189451312Y-101661309D01*
X189366097Y-101705651D01*
X189299065Y-101766755D01*
X189219732Y-101855954D01*
X189174797Y-101925607D01*
X189171000Y-101940410D01*
X188537360Y-101940410D01*
X188539192Y-101917100D01*
X188602956Y-101729902D01*
X188723156Y-101567081D01*
X188805373Y-101488765D01*
X188990302Y-101361145D01*
X189199205Y-101290280D01*
X189453236Y-101270049D01*
X189549960Y-101273408D01*
G36*
X185742000Y-101829742D02*
G01*
X185744825Y-102078354D01*
X185756402Y-102255729D01*
X185781382Y-102375196D01*
X185824416Y-102450086D01*
X185890154Y-102493728D01*
X185982610Y-102519326D01*
X186092784Y-102524434D01*
X186182891Y-102477047D01*
X186226027Y-102437154D01*
X186271926Y-102387170D01*
X186302664Y-102334689D01*
X186321273Y-102262446D01*
X186330786Y-102153175D01*
X186334235Y-101989612D01*
X186334667Y-101818590D01*
X186334667Y-101308666D01*
X186969667Y-101308666D01*
X186969667Y-101789721D01*
X186959784Y-102162563D01*
X186930249Y-102456146D01*
X186881227Y-102669409D01*
X186812885Y-102801292D01*
X186810563Y-102803952D01*
X186652457Y-102927032D01*
X186433688Y-103005381D01*
X186148394Y-103040813D01*
X186036720Y-103043403D01*
X185833553Y-103038928D01*
X185685710Y-103020960D01*
X185564282Y-102984540D01*
X185486728Y-102949083D01*
X185351063Y-102860387D01*
X185233781Y-102750480D01*
X185202592Y-102709989D01*
X185165294Y-102647939D01*
X185139165Y-102582220D01*
X185122237Y-102496944D01*
X185112545Y-102376222D01*
X185108123Y-102204166D01*
X185107006Y-101964886D01*
X185107000Y-101937406D01*
X185107000Y-101308666D01*
X185742000Y-101308666D01*
X185742000Y-101829742D01*
G37*
X185742000Y-101829742D02*
X185744825Y-102078354D01*
X185756402Y-102255729D01*
X185781382Y-102375196D01*
X185824416Y-102450086D01*
X185890154Y-102493728D01*
X185982610Y-102519326D01*
X186092784Y-102524434D01*
X186182891Y-102477047D01*
X186226027Y-102437154D01*
X186271926Y-102387170D01*
X186302664Y-102334689D01*
X186321273Y-102262446D01*
X186330786Y-102153175D01*
X186334235Y-101989612D01*
X186334667Y-101818590D01*
X186334667Y-101308666D01*
X186969667Y-101308666D01*
X186969667Y-101789721D01*
X186959784Y-102162563D01*
X186930249Y-102456146D01*
X186881227Y-102669409D01*
X186812885Y-102801292D01*
X186810563Y-102803952D01*
X186652457Y-102927032D01*
X186433688Y-103005381D01*
X186148394Y-103040813D01*
X186036720Y-103043403D01*
X185833553Y-103038928D01*
X185685710Y-103020960D01*
X185564282Y-102984540D01*
X185486728Y-102949083D01*
X185351063Y-102860387D01*
X185233781Y-102750480D01*
X185202592Y-102709989D01*
X185165294Y-102647939D01*
X185139165Y-102582220D01*
X185122237Y-102496944D01*
X185112545Y-102376222D01*
X185108123Y-102204166D01*
X185107006Y-101964886D01*
X185107000Y-101937406D01*
X185107000Y-101308666D01*
X185742000Y-101308666D01*
X185742000Y-101829742D01*
G36*
X178312392Y-101280018D02*
G01*
X178574603Y-101343261D01*
X178794789Y-101468401D01*
X178817229Y-101486336D01*
X178997861Y-101678028D01*
X179101386Y-101896774D01*
X179132742Y-102154161D01*
X179130204Y-102220993D01*
X179077260Y-102493041D01*
X178958514Y-102713548D01*
X178777385Y-102879730D01*
X178537289Y-102988804D01*
X178241645Y-103037983D01*
X178124271Y-103040515D01*
X177946378Y-103033267D01*
X177783160Y-103017859D01*
X177668983Y-102997572D01*
X177666204Y-102996786D01*
X177506376Y-102916949D01*
X177345464Y-102781591D01*
X177207620Y-102616011D01*
X177116997Y-102445505D01*
X177105776Y-102409775D01*
X177078243Y-102196016D01*
X177724471Y-102196016D01*
X177730435Y-102246504D01*
X177775149Y-102324173D01*
X177859520Y-102416020D01*
X177881310Y-102435203D01*
X177992055Y-102509546D01*
X178099094Y-102527592D01*
X178156658Y-102521177D01*
X178280446Y-102484636D01*
X178377393Y-102429220D01*
X178378851Y-102427919D01*
X178469579Y-102300166D01*
X178491491Y-102160618D01*
X178455879Y-102024882D01*
X178374038Y-101908565D01*
X178257260Y-101827271D01*
X178116838Y-101796609D01*
X177964068Y-101832184D01*
X177952063Y-101838145D01*
X177837406Y-101931688D01*
X177755834Y-102061495D01*
X177724471Y-102196016D01*
X177078243Y-102196016D01*
X177070385Y-102135013D01*
X177111674Y-101884009D01*
X177223067Y-101665121D01*
X177397992Y-101486707D01*
X177629873Y-101357126D01*
X177912135Y-101284735D01*
X177997637Y-101275970D01*
X178312392Y-101280018D01*
G37*
X178312392Y-101280018D02*
X178574603Y-101343261D01*
X178794789Y-101468401D01*
X178817229Y-101486336D01*
X178997861Y-101678028D01*
X179101386Y-101896774D01*
X179132742Y-102154161D01*
X179130204Y-102220993D01*
X179077260Y-102493041D01*
X178958514Y-102713548D01*
X178777385Y-102879730D01*
X178537289Y-102988804D01*
X178241645Y-103037983D01*
X178124271Y-103040515D01*
X177946378Y-103033267D01*
X177783160Y-103017859D01*
X177668983Y-102997572D01*
X177666204Y-102996786D01*
X177506376Y-102916949D01*
X177345464Y-102781591D01*
X177207620Y-102616011D01*
X177116997Y-102445505D01*
X177105776Y-102409775D01*
X177078243Y-102196016D01*
X177724471Y-102196016D01*
X177730435Y-102246504D01*
X177775149Y-102324173D01*
X177859520Y-102416020D01*
X177881310Y-102435203D01*
X177992055Y-102509546D01*
X178099094Y-102527592D01*
X178156658Y-102521177D01*
X178280446Y-102484636D01*
X178377393Y-102429220D01*
X178378851Y-102427919D01*
X178469579Y-102300166D01*
X178491491Y-102160618D01*
X178455879Y-102024882D01*
X178374038Y-101908565D01*
X178257260Y-101827271D01*
X178116838Y-101796609D01*
X177964068Y-101832184D01*
X177952063Y-101838145D01*
X177837406Y-101931688D01*
X177755834Y-102061495D01*
X177724471Y-102196016D01*
X177078243Y-102196016D01*
X177070385Y-102135013D01*
X177111674Y-101884009D01*
X177223067Y-101665121D01*
X177397992Y-101486707D01*
X177629873Y-101357126D01*
X177912135Y-101284735D01*
X177997637Y-101275970D01*
X178312392Y-101280018D01*
G36*
X176567560Y-101276926D02*
G01*
X176701077Y-101307618D01*
X176761414Y-101337833D01*
X176794013Y-101385373D01*
X176807287Y-101473423D01*
X176809667Y-101606804D01*
X176807330Y-101748222D01*
X176796098Y-101822512D01*
X176769635Y-101847174D01*
X176725000Y-101840686D01*
X176608877Y-101807761D01*
X176556761Y-101792994D01*
X176442687Y-101796893D01*
X176310852Y-101849860D01*
X176195417Y-101934086D01*
X176138199Y-102011198D01*
X176093904Y-102164280D01*
X176121644Y-102295374D01*
X176190225Y-102394130D01*
X176319706Y-102483828D01*
X176491771Y-102517417D01*
X176682297Y-102490933D01*
X176714417Y-102480305D01*
X176765677Y-102466307D01*
X176794186Y-102482219D01*
X176806608Y-102544745D01*
X176809608Y-102670589D01*
X176809667Y-102719043D01*
X176806119Y-102862610D01*
X176785473Y-102955934D01*
X176732727Y-103009879D01*
X176632877Y-103035309D01*
X176470921Y-103043088D01*
X176361242Y-103043755D01*
X176144154Y-103027056D01*
X175965455Y-102970054D01*
X175923025Y-102948992D01*
X175706839Y-102789426D01*
X175554439Y-102577891D01*
X175472971Y-102325351D01*
X175463486Y-102244000D01*
X175461738Y-102078388D01*
X175476727Y-101922849D01*
X175493522Y-101849381D01*
X175586589Y-101675872D01*
X175738002Y-101509869D01*
X175923296Y-101376498D01*
X175984167Y-101345536D01*
X176158622Y-101293097D01*
X176366111Y-101269538D01*
X176567560Y-101276926D01*
G37*
X176567560Y-101276926D02*
X176701077Y-101307618D01*
X176761414Y-101337833D01*
X176794013Y-101385373D01*
X176807287Y-101473423D01*
X176809667Y-101606804D01*
X176807330Y-101748222D01*
X176796098Y-101822512D01*
X176769635Y-101847174D01*
X176725000Y-101840686D01*
X176608877Y-101807761D01*
X176556761Y-101792994D01*
X176442687Y-101796893D01*
X176310852Y-101849860D01*
X176195417Y-101934086D01*
X176138199Y-102011198D01*
X176093904Y-102164280D01*
X176121644Y-102295374D01*
X176190225Y-102394130D01*
X176319706Y-102483828D01*
X176491771Y-102517417D01*
X176682297Y-102490933D01*
X176714417Y-102480305D01*
X176765677Y-102466307D01*
X176794186Y-102482219D01*
X176806608Y-102544745D01*
X176809608Y-102670589D01*
X176809667Y-102719043D01*
X176806119Y-102862610D01*
X176785473Y-102955934D01*
X176732727Y-103009879D01*
X176632877Y-103035309D01*
X176470921Y-103043088D01*
X176361242Y-103043755D01*
X176144154Y-103027056D01*
X175965455Y-102970054D01*
X175923025Y-102948992D01*
X175706839Y-102789426D01*
X175554439Y-102577891D01*
X175472971Y-102325351D01*
X175463486Y-102244000D01*
X175461738Y-102078388D01*
X175476727Y-101922849D01*
X175493522Y-101849381D01*
X175586589Y-101675872D01*
X175738002Y-101509869D01*
X175923296Y-101376498D01*
X175984167Y-101345536D01*
X176158622Y-101293097D01*
X176366111Y-101269538D01*
X176567560Y-101276926D01*
G36*
X184211425Y-101326760D02*
G01*
X184421780Y-101440311D01*
X184598105Y-101603285D01*
X184674298Y-101712594D01*
X184726290Y-101817035D01*
X184753886Y-101923033D01*
X184762328Y-102060697D01*
X184759324Y-102200772D01*
X184730301Y-102454862D01*
X184658275Y-102651421D01*
X184532851Y-102811051D01*
X184396714Y-102919464D01*
X184233140Y-102994332D01*
X184029922Y-103035538D01*
X183820871Y-103040314D01*
X183639799Y-103005892D01*
X183591722Y-102985343D01*
X183497568Y-102939774D01*
X183440139Y-102917715D01*
X183436935Y-102917333D01*
X183427585Y-102956816D01*
X183420028Y-103063873D01*
X183415120Y-103221418D01*
X183413667Y-103383000D01*
X183413667Y-103848666D01*
X182778667Y-103848666D01*
X182778667Y-102116612D01*
X183391370Y-102116612D01*
X183397570Y-102268052D01*
X183470534Y-102402908D01*
X183602697Y-102497654D01*
X183754317Y-102520284D01*
X183912545Y-102478476D01*
X184038083Y-102385851D01*
X184117797Y-102240480D01*
X184122454Y-102088448D01*
X184057139Y-101950411D01*
X183926934Y-101847025D01*
X183902794Y-101836063D01*
X183739097Y-101800403D01*
X183595238Y-101843288D01*
X183461292Y-101967743D01*
X183458251Y-101971587D01*
X183391370Y-102116612D01*
X182778667Y-102116612D01*
X182778667Y-101308666D01*
X183096167Y-101308666D01*
X183264479Y-101312146D01*
X183363223Y-101324525D01*
X183407283Y-101348713D01*
X183413667Y-101370738D01*
X183427853Y-101402416D01*
X183481225Y-101389312D01*
X183563202Y-101344583D01*
X183763434Y-101272701D01*
X183985742Y-101268825D01*
X184211425Y-101326760D01*
G37*
X184211425Y-101326760D02*
X184421780Y-101440311D01*
X184598105Y-101603285D01*
X184674298Y-101712594D01*
X184726290Y-101817035D01*
X184753886Y-101923033D01*
X184762328Y-102060697D01*
X184759324Y-102200772D01*
X184730301Y-102454862D01*
X184658275Y-102651421D01*
X184532851Y-102811051D01*
X184396714Y-102919464D01*
X184233140Y-102994332D01*
X184029922Y-103035538D01*
X183820871Y-103040314D01*
X183639799Y-103005892D01*
X183591722Y-102985343D01*
X183497568Y-102939774D01*
X183440139Y-102917715D01*
X183436935Y-102917333D01*
X183427585Y-102956816D01*
X183420028Y-103063873D01*
X183415120Y-103221418D01*
X183413667Y-103383000D01*
X183413667Y-103848666D01*
X182778667Y-103848666D01*
X182778667Y-102116612D01*
X183391370Y-102116612D01*
X183397570Y-102268052D01*
X183470534Y-102402908D01*
X183602697Y-102497654D01*
X183754317Y-102520284D01*
X183912545Y-102478476D01*
X184038083Y-102385851D01*
X184117797Y-102240480D01*
X184122454Y-102088448D01*
X184057139Y-101950411D01*
X183926934Y-101847025D01*
X183902794Y-101836063D01*
X183739097Y-101800403D01*
X183595238Y-101843288D01*
X183461292Y-101967743D01*
X183458251Y-101971587D01*
X183391370Y-102116612D01*
X182778667Y-102116612D01*
X182778667Y-101308666D01*
X183096167Y-101308666D01*
X183264479Y-101312146D01*
X183363223Y-101324525D01*
X183407283Y-101348713D01*
X183413667Y-101370738D01*
X183427853Y-101402416D01*
X183481225Y-101389312D01*
X183563202Y-101344583D01*
X183763434Y-101272701D01*
X183985742Y-101268825D01*
X184211425Y-101326760D01*
G36*
X169793902Y-101330617D02*
G01*
X169835877Y-101351082D01*
X169936076Y-101399895D01*
X169982822Y-101405487D01*
X169994000Y-101372248D01*
X170010568Y-101338719D01*
X170070496Y-101319038D01*
X170189115Y-101310133D01*
X170311500Y-101308666D01*
X170629000Y-101308666D01*
X170628764Y-102208250D01*
X170626398Y-102514738D01*
X170619853Y-102788257D01*
X170609704Y-103015721D01*
X170596526Y-103184041D01*
X170581747Y-103277166D01*
X170496063Y-103453076D01*
X170351650Y-103617110D01*
X170173508Y-103744828D01*
X170049686Y-103797331D01*
X169843660Y-103836993D01*
X169609530Y-103848108D01*
X169379434Y-103831787D01*
X169185515Y-103789142D01*
X169126167Y-103765392D01*
X168891884Y-103621453D01*
X168731851Y-103452287D01*
X168662654Y-103308916D01*
X168652050Y-103261598D01*
X168666388Y-103233300D01*
X168721449Y-103219137D01*
X168833016Y-103214222D01*
X168970308Y-103213666D01*
X169203112Y-103224286D01*
X169372254Y-103254962D01*
X169428244Y-103276905D01*
X169579350Y-103332978D01*
X169716670Y-103322976D01*
X169821639Y-103278732D01*
X169941195Y-103185647D01*
X169990727Y-103056348D01*
X169994000Y-102998537D01*
X169983057Y-102935273D01*
X169939334Y-102925838D01*
X169846491Y-102968526D01*
X169824667Y-102980833D01*
X169652839Y-103037017D01*
X169443179Y-103044639D01*
X169223447Y-103008675D01*
X169021404Y-102934095D01*
X168864811Y-102825875D01*
X168845521Y-102805421D01*
X168720308Y-102604190D01*
X168651834Y-102365455D01*
X168639225Y-102110724D01*
X168640080Y-102105695D01*
X169286511Y-102105695D01*
X169293016Y-102259516D01*
X169342363Y-102360620D01*
X169465945Y-102470641D01*
X169622427Y-102518493D01*
X169784714Y-102501032D01*
X169913331Y-102426881D01*
X170001095Y-102301659D01*
X170021520Y-102163270D01*
X169986066Y-102027570D01*
X169906191Y-101910417D01*
X169793356Y-101827669D01*
X169659019Y-101795183D01*
X169514641Y-101828817D01*
X169490573Y-101841865D01*
X169354002Y-101960745D01*
X169286511Y-102105695D01*
X168640080Y-102105695D01*
X168681608Y-101861506D01*
X168778110Y-101639309D01*
X168898910Y-101490603D01*
X169098949Y-101357458D01*
X169330939Y-101284007D01*
X169570662Y-101273858D01*
X169793902Y-101330617D01*
G37*
X169793902Y-101330617D02*
X169835877Y-101351082D01*
X169936076Y-101399895D01*
X169982822Y-101405487D01*
X169994000Y-101372248D01*
X170010568Y-101338719D01*
X170070496Y-101319038D01*
X170189115Y-101310133D01*
X170311500Y-101308666D01*
X170629000Y-101308666D01*
X170628764Y-102208250D01*
X170626398Y-102514738D01*
X170619853Y-102788257D01*
X170609704Y-103015721D01*
X170596526Y-103184041D01*
X170581747Y-103277166D01*
X170496063Y-103453076D01*
X170351650Y-103617110D01*
X170173508Y-103744828D01*
X170049686Y-103797331D01*
X169843660Y-103836993D01*
X169609530Y-103848108D01*
X169379434Y-103831787D01*
X169185515Y-103789142D01*
X169126167Y-103765392D01*
X168891884Y-103621453D01*
X168731851Y-103452287D01*
X168662654Y-103308916D01*
X168652050Y-103261598D01*
X168666388Y-103233300D01*
X168721449Y-103219137D01*
X168833016Y-103214222D01*
X168970308Y-103213666D01*
X169203112Y-103224286D01*
X169372254Y-103254962D01*
X169428244Y-103276905D01*
X169579350Y-103332978D01*
X169716670Y-103322976D01*
X169821639Y-103278732D01*
X169941195Y-103185647D01*
X169990727Y-103056348D01*
X169994000Y-102998537D01*
X169983057Y-102935273D01*
X169939334Y-102925838D01*
X169846491Y-102968526D01*
X169824667Y-102980833D01*
X169652839Y-103037017D01*
X169443179Y-103044639D01*
X169223447Y-103008675D01*
X169021404Y-102934095D01*
X168864811Y-102825875D01*
X168845521Y-102805421D01*
X168720308Y-102604190D01*
X168651834Y-102365455D01*
X168639225Y-102110724D01*
X168640080Y-102105695D01*
X169286511Y-102105695D01*
X169293016Y-102259516D01*
X169342363Y-102360620D01*
X169465945Y-102470641D01*
X169622427Y-102518493D01*
X169784714Y-102501032D01*
X169913331Y-102426881D01*
X170001095Y-102301659D01*
X170021520Y-102163270D01*
X169986066Y-102027570D01*
X169906191Y-101910417D01*
X169793356Y-101827669D01*
X169659019Y-101795183D01*
X169514641Y-101828817D01*
X169490573Y-101841865D01*
X169354002Y-101960745D01*
X169286511Y-102105695D01*
X168640080Y-102105695D01*
X168681608Y-101861506D01*
X168778110Y-101639309D01*
X168898910Y-101490603D01*
X169098949Y-101357458D01*
X169330939Y-101284007D01*
X169570662Y-101273858D01*
X169793902Y-101330617D01*
D12*
%TO.C,J2*%
X134585000Y-100560000D02*
X134585000Y-101890000D01*
X133255000Y-100560000D02*
X134585000Y-100560000D01*
X134585000Y-103160000D02*
X134585000Y-105760000D01*
X131985000Y-103160000D02*
X134585000Y-103160000D01*
X131985000Y-100560000D02*
X131985000Y-103160000D01*
X134585000Y-105760000D02*
X109065000Y-105760000D01*
X131985000Y-100560000D02*
X109065000Y-100560000D01*
X109065000Y-100560000D02*
X109065000Y-105760000D01*
%TO.C,SW3*%
X139025000Y-90050000D02*
G75*
G03*
X139025000Y-90050000I-1400000J0D01*
G01*
X139875000Y-92300000D02*
X135375000Y-92300000D01*
X135375000Y-92300000D02*
X135375000Y-87800000D01*
X135375000Y-87800000D02*
X139875000Y-87800000D01*
X139875000Y-87800000D02*
X139875000Y-92300000D01*
%TO.C,SW9*%
X99775000Y-96250000D02*
G75*
G03*
X99775000Y-96250000I-1400000J0D01*
G01*
X100625000Y-98500000D02*
X96125000Y-98500000D01*
X96125000Y-98500000D02*
X96125000Y-94000000D01*
X96125000Y-94000000D02*
X100625000Y-94000000D01*
X100625000Y-94000000D02*
X100625000Y-98500000D01*
%TO.C,SW8*%
X99775000Y-83750000D02*
G75*
G03*
X99775000Y-83750000I-1400000J0D01*
G01*
X100625000Y-86000000D02*
X96125000Y-86000000D01*
X96125000Y-86000000D02*
X96125000Y-81500000D01*
X96125000Y-81500000D02*
X100625000Y-81500000D01*
X100625000Y-81500000D02*
X100625000Y-86000000D01*
%TO.C,SW7*%
X203275000Y-96250000D02*
G75*
G03*
X203275000Y-96250000I-1400000J0D01*
G01*
X204125000Y-98500000D02*
X199625000Y-98500000D01*
X199625000Y-98500000D02*
X199625000Y-94000000D01*
X199625000Y-94000000D02*
X204125000Y-94000000D01*
X204125000Y-94000000D02*
X204125000Y-98500000D01*
%TO.C,SW6*%
X203275000Y-83750000D02*
G75*
G03*
X203275000Y-83750000I-1400000J0D01*
G01*
X204125000Y-86000000D02*
X199625000Y-86000000D01*
X199625000Y-86000000D02*
X199625000Y-81500000D01*
X199625000Y-81500000D02*
X204125000Y-81500000D01*
X204125000Y-81500000D02*
X204125000Y-86000000D01*
%TO.C,SW5*%
X151525000Y-90050000D02*
G75*
G03*
X151525000Y-90050000I-1400000J0D01*
G01*
X152375000Y-92300000D02*
X147875000Y-92300000D01*
X147875000Y-92300000D02*
X147875000Y-87800000D01*
X147875000Y-87800000D02*
X152375000Y-87800000D01*
X152375000Y-87800000D02*
X152375000Y-92300000D01*
%TO.C,SW4*%
X164025000Y-90050000D02*
G75*
G03*
X164025000Y-90050000I-1400000J0D01*
G01*
X164875000Y-92300000D02*
X160375000Y-92300000D01*
X160375000Y-92300000D02*
X160375000Y-87800000D01*
X160375000Y-87800000D02*
X164875000Y-87800000D01*
X164875000Y-87800000D02*
X164875000Y-92300000D01*
%TO.C,SW2*%
X151525000Y-99050000D02*
G75*
G03*
X151525000Y-99050000I-1400000J0D01*
G01*
X152375000Y-101300000D02*
X147875000Y-101300000D01*
X147875000Y-101300000D02*
X147875000Y-96800000D01*
X147875000Y-96800000D02*
X152375000Y-96800000D01*
X152375000Y-96800000D02*
X152375000Y-101300000D01*
%TO.C,SW1*%
X151525000Y-81050000D02*
G75*
G03*
X151525000Y-81050000I-1400000J0D01*
G01*
X152375000Y-83300000D02*
X147875000Y-83300000D01*
X147875000Y-83300000D02*
X147875000Y-78800000D01*
X147875000Y-78800000D02*
X152375000Y-78800000D01*
X152375000Y-78800000D02*
X152375000Y-83300000D01*
%TO.C,J1*%
X175585000Y-66460000D02*
X175585000Y-67790000D01*
X174255000Y-66460000D02*
X175585000Y-66460000D01*
X175585000Y-69060000D02*
X175585000Y-71660000D01*
X172985000Y-69060000D02*
X175585000Y-69060000D01*
X172985000Y-66460000D02*
X172985000Y-69060000D01*
X175585000Y-71660000D02*
X124665000Y-71660000D01*
X172985000Y-66460000D02*
X124665000Y-66460000D01*
X124665000Y-66460000D02*
X124665000Y-71660000D01*
%TO.C,J2*%
D13*
X135875000Y-104971428D02*
X135875000Y-105400000D01*
X135846428Y-105485714D01*
X135789285Y-105542857D01*
X135703571Y-105571428D01*
X135646428Y-105571428D01*
X136132142Y-105028571D02*
X136160714Y-105000000D01*
X136217857Y-104971428D01*
X136360714Y-104971428D01*
X136417857Y-105000000D01*
X136446428Y-105028571D01*
X136475000Y-105085714D01*
X136475000Y-105142857D01*
X136446428Y-105228571D01*
X136103571Y-105571428D01*
X136475000Y-105571428D01*
%TO.C,SW3*%
X136775000Y-86992857D02*
X136860714Y-87021428D01*
X137003571Y-87021428D01*
X137060714Y-86992857D01*
X137089285Y-86964285D01*
X137117857Y-86907142D01*
X137117857Y-86850000D01*
X137089285Y-86792857D01*
X137060714Y-86764285D01*
X137003571Y-86735714D01*
X136889285Y-86707142D01*
X136832142Y-86678571D01*
X136803571Y-86650000D01*
X136775000Y-86592857D01*
X136775000Y-86535714D01*
X136803571Y-86478571D01*
X136832142Y-86450000D01*
X136889285Y-86421428D01*
X137032142Y-86421428D01*
X137117857Y-86450000D01*
X137317857Y-86421428D02*
X137460714Y-87021428D01*
X137575000Y-86592857D01*
X137689285Y-87021428D01*
X137832142Y-86421428D01*
X138003571Y-86421428D02*
X138375000Y-86421428D01*
X138175000Y-86650000D01*
X138260714Y-86650000D01*
X138317857Y-86678571D01*
X138346428Y-86707142D01*
X138375000Y-86764285D01*
X138375000Y-86907142D01*
X138346428Y-86964285D01*
X138317857Y-86992857D01*
X138260714Y-87021428D01*
X138089285Y-87021428D01*
X138032142Y-86992857D01*
X138003571Y-86964285D01*
%TO.C,SW9*%
X97525000Y-93242857D02*
X97610714Y-93271428D01*
X97753571Y-93271428D01*
X97810714Y-93242857D01*
X97839285Y-93214285D01*
X97867857Y-93157142D01*
X97867857Y-93100000D01*
X97839285Y-93042857D01*
X97810714Y-93014285D01*
X97753571Y-92985714D01*
X97639285Y-92957142D01*
X97582142Y-92928571D01*
X97553571Y-92900000D01*
X97525000Y-92842857D01*
X97525000Y-92785714D01*
X97553571Y-92728571D01*
X97582142Y-92700000D01*
X97639285Y-92671428D01*
X97782142Y-92671428D01*
X97867857Y-92700000D01*
X98067857Y-92671428D02*
X98210714Y-93271428D01*
X98325000Y-92842857D01*
X98439285Y-93271428D01*
X98582142Y-92671428D01*
X98839285Y-93271428D02*
X98953571Y-93271428D01*
X99010714Y-93242857D01*
X99039285Y-93214285D01*
X99096428Y-93128571D01*
X99125000Y-93014285D01*
X99125000Y-92785714D01*
X99096428Y-92728571D01*
X99067857Y-92700000D01*
X99010714Y-92671428D01*
X98896428Y-92671428D01*
X98839285Y-92700000D01*
X98810714Y-92728571D01*
X98782142Y-92785714D01*
X98782142Y-92928571D01*
X98810714Y-92985714D01*
X98839285Y-93014285D01*
X98896428Y-93042857D01*
X99010714Y-93042857D01*
X99067857Y-93014285D01*
X99096428Y-92985714D01*
X99125000Y-92928571D01*
%TO.C,SW8*%
X97625001Y-80752857D02*
X97710715Y-80781428D01*
X97853572Y-80781428D01*
X97910715Y-80752857D01*
X97939286Y-80724285D01*
X97967858Y-80667142D01*
X97967858Y-80610000D01*
X97939286Y-80552857D01*
X97910715Y-80524285D01*
X97853572Y-80495714D01*
X97739286Y-80467142D01*
X97682143Y-80438571D01*
X97653572Y-80410000D01*
X97625001Y-80352857D01*
X97625001Y-80295714D01*
X97653572Y-80238571D01*
X97682143Y-80210000D01*
X97739286Y-80181428D01*
X97882143Y-80181428D01*
X97967858Y-80210000D01*
X98167858Y-80181428D02*
X98310715Y-80781428D01*
X98425001Y-80352857D01*
X98539286Y-80781428D01*
X98682143Y-80181428D01*
X98996429Y-80438571D02*
X98939286Y-80410000D01*
X98910715Y-80381428D01*
X98882143Y-80324285D01*
X98882143Y-80295714D01*
X98910715Y-80238571D01*
X98939286Y-80210000D01*
X98996429Y-80181428D01*
X99110715Y-80181428D01*
X99167858Y-80210000D01*
X99196429Y-80238571D01*
X99225001Y-80295714D01*
X99225001Y-80324285D01*
X99196429Y-80381428D01*
X99167858Y-80410000D01*
X99110715Y-80438571D01*
X98996429Y-80438571D01*
X98939286Y-80467142D01*
X98910715Y-80495714D01*
X98882143Y-80552857D01*
X98882143Y-80667142D01*
X98910715Y-80724285D01*
X98939286Y-80752857D01*
X98996429Y-80781428D01*
X99110715Y-80781428D01*
X99167858Y-80752857D01*
X99196429Y-80724285D01*
X99225001Y-80667142D01*
X99225001Y-80552857D01*
X99196429Y-80495714D01*
X99167858Y-80467142D01*
X99110715Y-80438571D01*
%TO.C,SW7*%
X200975000Y-93292857D02*
X201060714Y-93321428D01*
X201203571Y-93321428D01*
X201260714Y-93292857D01*
X201289285Y-93264285D01*
X201317857Y-93207142D01*
X201317857Y-93150000D01*
X201289285Y-93092857D01*
X201260714Y-93064285D01*
X201203571Y-93035714D01*
X201089285Y-93007142D01*
X201032142Y-92978571D01*
X201003571Y-92950000D01*
X200975000Y-92892857D01*
X200975000Y-92835714D01*
X201003571Y-92778571D01*
X201032142Y-92750000D01*
X201089285Y-92721428D01*
X201232142Y-92721428D01*
X201317857Y-92750000D01*
X201517857Y-92721428D02*
X201660714Y-93321428D01*
X201775000Y-92892857D01*
X201889285Y-93321428D01*
X202032142Y-92721428D01*
X202203571Y-92721428D02*
X202603571Y-92721428D01*
X202346428Y-93321428D01*
%TO.C,SW6*%
X201025000Y-80992857D02*
X201110714Y-81021428D01*
X201253571Y-81021428D01*
X201310714Y-80992857D01*
X201339285Y-80964285D01*
X201367857Y-80907142D01*
X201367857Y-80850000D01*
X201339285Y-80792857D01*
X201310714Y-80764285D01*
X201253571Y-80735714D01*
X201139285Y-80707142D01*
X201082142Y-80678571D01*
X201053571Y-80650000D01*
X201025000Y-80592857D01*
X201025000Y-80535714D01*
X201053571Y-80478571D01*
X201082142Y-80450000D01*
X201139285Y-80421428D01*
X201282142Y-80421428D01*
X201367857Y-80450000D01*
X201567857Y-80421428D02*
X201710714Y-81021428D01*
X201825000Y-80592857D01*
X201939285Y-81021428D01*
X202082142Y-80421428D01*
X202567857Y-80421428D02*
X202453571Y-80421428D01*
X202396428Y-80450000D01*
X202367857Y-80478571D01*
X202310714Y-80564285D01*
X202282142Y-80678571D01*
X202282142Y-80907142D01*
X202310714Y-80964285D01*
X202339285Y-80992857D01*
X202396428Y-81021428D01*
X202510714Y-81021428D01*
X202567857Y-80992857D01*
X202596428Y-80964285D01*
X202625000Y-80907142D01*
X202625000Y-80764285D01*
X202596428Y-80707142D01*
X202567857Y-80678571D01*
X202510714Y-80650000D01*
X202396428Y-80650000D01*
X202339285Y-80678571D01*
X202310714Y-80707142D01*
X202282142Y-80764285D01*
%TO.C,SW5*%
X149325000Y-86992857D02*
X149410714Y-87021428D01*
X149553571Y-87021428D01*
X149610714Y-86992857D01*
X149639285Y-86964285D01*
X149667857Y-86907142D01*
X149667857Y-86850000D01*
X149639285Y-86792857D01*
X149610714Y-86764285D01*
X149553571Y-86735714D01*
X149439285Y-86707142D01*
X149382142Y-86678571D01*
X149353571Y-86650000D01*
X149325000Y-86592857D01*
X149325000Y-86535714D01*
X149353571Y-86478571D01*
X149382142Y-86450000D01*
X149439285Y-86421428D01*
X149582142Y-86421428D01*
X149667857Y-86450000D01*
X149867857Y-86421428D02*
X150010714Y-87021428D01*
X150125000Y-86592857D01*
X150239285Y-87021428D01*
X150382142Y-86421428D01*
X150896428Y-86421428D02*
X150610714Y-86421428D01*
X150582142Y-86707142D01*
X150610714Y-86678571D01*
X150667857Y-86650000D01*
X150810714Y-86650000D01*
X150867857Y-86678571D01*
X150896428Y-86707142D01*
X150925000Y-86764285D01*
X150925000Y-86907142D01*
X150896428Y-86964285D01*
X150867857Y-86992857D01*
X150810714Y-87021428D01*
X150667857Y-87021428D01*
X150610714Y-86992857D01*
X150582142Y-86964285D01*
%TO.C,SW4*%
X161775000Y-87142857D02*
X161860714Y-87171428D01*
X162003571Y-87171428D01*
X162060714Y-87142857D01*
X162089285Y-87114285D01*
X162117857Y-87057142D01*
X162117857Y-87000000D01*
X162089285Y-86942857D01*
X162060714Y-86914285D01*
X162003571Y-86885714D01*
X161889285Y-86857142D01*
X161832142Y-86828571D01*
X161803571Y-86800000D01*
X161775000Y-86742857D01*
X161775000Y-86685714D01*
X161803571Y-86628571D01*
X161832142Y-86600000D01*
X161889285Y-86571428D01*
X162032142Y-86571428D01*
X162117857Y-86600000D01*
X162317857Y-86571428D02*
X162460714Y-87171428D01*
X162575000Y-86742857D01*
X162689285Y-87171428D01*
X162832142Y-86571428D01*
X163317857Y-86771428D02*
X163317857Y-87171428D01*
X163175000Y-86542857D02*
X163032142Y-86971428D01*
X163403571Y-86971428D01*
%TO.C,SW2*%
X149175000Y-95992857D02*
X149260714Y-96021428D01*
X149403571Y-96021428D01*
X149460714Y-95992857D01*
X149489285Y-95964285D01*
X149517857Y-95907142D01*
X149517857Y-95850000D01*
X149489285Y-95792857D01*
X149460714Y-95764285D01*
X149403571Y-95735714D01*
X149289285Y-95707142D01*
X149232142Y-95678571D01*
X149203571Y-95650000D01*
X149175000Y-95592857D01*
X149175000Y-95535714D01*
X149203571Y-95478571D01*
X149232142Y-95450000D01*
X149289285Y-95421428D01*
X149432142Y-95421428D01*
X149517857Y-95450000D01*
X149717857Y-95421428D02*
X149860714Y-96021428D01*
X149975000Y-95592857D01*
X150089285Y-96021428D01*
X150232142Y-95421428D01*
X150432142Y-95478571D02*
X150460714Y-95450000D01*
X150517857Y-95421428D01*
X150660714Y-95421428D01*
X150717857Y-95450000D01*
X150746428Y-95478571D01*
X150775000Y-95535714D01*
X150775000Y-95592857D01*
X150746428Y-95678571D01*
X150403571Y-96021428D01*
X150775000Y-96021428D01*
%TO.C,SW1*%
X149275000Y-78092857D02*
X149360714Y-78121428D01*
X149503571Y-78121428D01*
X149560714Y-78092857D01*
X149589285Y-78064285D01*
X149617857Y-78007142D01*
X149617857Y-77950000D01*
X149589285Y-77892857D01*
X149560714Y-77864285D01*
X149503571Y-77835714D01*
X149389285Y-77807142D01*
X149332142Y-77778571D01*
X149303571Y-77750000D01*
X149275000Y-77692857D01*
X149275000Y-77635714D01*
X149303571Y-77578571D01*
X149332142Y-77550000D01*
X149389285Y-77521428D01*
X149532142Y-77521428D01*
X149617857Y-77550000D01*
X149817857Y-77521428D02*
X149960714Y-78121428D01*
X150075000Y-77692857D01*
X150189285Y-78121428D01*
X150332142Y-77521428D01*
X150875000Y-78121428D02*
X150532142Y-78121428D01*
X150703571Y-78121428D02*
X150703571Y-77521428D01*
X150646428Y-77607142D01*
X150589285Y-77664285D01*
X150532142Y-77692857D01*
%TO.C,R27*%
X123989285Y-100371428D02*
X123789285Y-100085714D01*
X123646428Y-100371428D02*
X123646428Y-99771428D01*
X123875000Y-99771428D01*
X123932142Y-99800000D01*
X123960714Y-99828571D01*
X123989285Y-99885714D01*
X123989285Y-99971428D01*
X123960714Y-100028571D01*
X123932142Y-100057142D01*
X123875000Y-100085714D01*
X123646428Y-100085714D01*
X124217857Y-99828571D02*
X124246428Y-99800000D01*
X124303571Y-99771428D01*
X124446428Y-99771428D01*
X124503571Y-99800000D01*
X124532142Y-99828571D01*
X124560714Y-99885714D01*
X124560714Y-99942857D01*
X124532142Y-100028571D01*
X124189285Y-100371428D01*
X124560714Y-100371428D01*
X124760714Y-99771428D02*
X125160714Y-99771428D01*
X124903571Y-100371428D01*
%TO.C,R26*%
X115074285Y-97471428D02*
X114874285Y-97185714D01*
X114731428Y-97471428D02*
X114731428Y-96871428D01*
X114960000Y-96871428D01*
X115017142Y-96900000D01*
X115045714Y-96928571D01*
X115074285Y-96985714D01*
X115074285Y-97071428D01*
X115045714Y-97128571D01*
X115017142Y-97157142D01*
X114960000Y-97185714D01*
X114731428Y-97185714D01*
X115302857Y-96928571D02*
X115331428Y-96900000D01*
X115388571Y-96871428D01*
X115531428Y-96871428D01*
X115588571Y-96900000D01*
X115617142Y-96928571D01*
X115645714Y-96985714D01*
X115645714Y-97042857D01*
X115617142Y-97128571D01*
X115274285Y-97471428D01*
X115645714Y-97471428D01*
X116160000Y-96871428D02*
X116045714Y-96871428D01*
X115988571Y-96900000D01*
X115960000Y-96928571D01*
X115902857Y-97014285D01*
X115874285Y-97128571D01*
X115874285Y-97357142D01*
X115902857Y-97414285D01*
X115931428Y-97442857D01*
X115988571Y-97471428D01*
X116102857Y-97471428D01*
X116160000Y-97442857D01*
X116188571Y-97414285D01*
X116217142Y-97357142D01*
X116217142Y-97214285D01*
X116188571Y-97157142D01*
X116160000Y-97128571D01*
X116102857Y-97100000D01*
X115988571Y-97100000D01*
X115931428Y-97128571D01*
X115902857Y-97157142D01*
X115874285Y-97214285D01*
%TO.C,R25*%
X117594285Y-97471428D02*
X117394285Y-97185714D01*
X117251428Y-97471428D02*
X117251428Y-96871428D01*
X117480000Y-96871428D01*
X117537142Y-96900000D01*
X117565714Y-96928571D01*
X117594285Y-96985714D01*
X117594285Y-97071428D01*
X117565714Y-97128571D01*
X117537142Y-97157142D01*
X117480000Y-97185714D01*
X117251428Y-97185714D01*
X117822857Y-96928571D02*
X117851428Y-96900000D01*
X117908571Y-96871428D01*
X118051428Y-96871428D01*
X118108571Y-96900000D01*
X118137142Y-96928571D01*
X118165714Y-96985714D01*
X118165714Y-97042857D01*
X118137142Y-97128571D01*
X117794285Y-97471428D01*
X118165714Y-97471428D01*
X118708571Y-96871428D02*
X118422857Y-96871428D01*
X118394285Y-97157142D01*
X118422857Y-97128571D01*
X118480000Y-97100000D01*
X118622857Y-97100000D01*
X118680000Y-97128571D01*
X118708571Y-97157142D01*
X118737142Y-97214285D01*
X118737142Y-97357142D01*
X118708571Y-97414285D01*
X118680000Y-97442857D01*
X118622857Y-97471428D01*
X118480000Y-97471428D01*
X118422857Y-97442857D01*
X118394285Y-97414285D01*
%TO.C,R24*%
X122709285Y-97471428D02*
X122509285Y-97185714D01*
X122366428Y-97471428D02*
X122366428Y-96871428D01*
X122595000Y-96871428D01*
X122652142Y-96900000D01*
X122680714Y-96928571D01*
X122709285Y-96985714D01*
X122709285Y-97071428D01*
X122680714Y-97128571D01*
X122652142Y-97157142D01*
X122595000Y-97185714D01*
X122366428Y-97185714D01*
X122937857Y-96928571D02*
X122966428Y-96900000D01*
X123023571Y-96871428D01*
X123166428Y-96871428D01*
X123223571Y-96900000D01*
X123252142Y-96928571D01*
X123280714Y-96985714D01*
X123280714Y-97042857D01*
X123252142Y-97128571D01*
X122909285Y-97471428D01*
X123280714Y-97471428D01*
X123795000Y-97071428D02*
X123795000Y-97471428D01*
X123652142Y-96842857D02*
X123509285Y-97271428D01*
X123880714Y-97271428D01*
%TO.C,R23*%
X125264285Y-97471428D02*
X125064285Y-97185714D01*
X124921428Y-97471428D02*
X124921428Y-96871428D01*
X125150000Y-96871428D01*
X125207142Y-96900000D01*
X125235714Y-96928571D01*
X125264285Y-96985714D01*
X125264285Y-97071428D01*
X125235714Y-97128571D01*
X125207142Y-97157142D01*
X125150000Y-97185714D01*
X124921428Y-97185714D01*
X125492857Y-96928571D02*
X125521428Y-96900000D01*
X125578571Y-96871428D01*
X125721428Y-96871428D01*
X125778571Y-96900000D01*
X125807142Y-96928571D01*
X125835714Y-96985714D01*
X125835714Y-97042857D01*
X125807142Y-97128571D01*
X125464285Y-97471428D01*
X125835714Y-97471428D01*
X126035714Y-96871428D02*
X126407142Y-96871428D01*
X126207142Y-97100000D01*
X126292857Y-97100000D01*
X126350000Y-97128571D01*
X126378571Y-97157142D01*
X126407142Y-97214285D01*
X126407142Y-97357142D01*
X126378571Y-97414285D01*
X126350000Y-97442857D01*
X126292857Y-97471428D01*
X126121428Y-97471428D01*
X126064285Y-97442857D01*
X126035714Y-97414285D01*
%TO.C,R22*%
X127789285Y-97471428D02*
X127589285Y-97185714D01*
X127446428Y-97471428D02*
X127446428Y-96871428D01*
X127675000Y-96871428D01*
X127732142Y-96900000D01*
X127760714Y-96928571D01*
X127789285Y-96985714D01*
X127789285Y-97071428D01*
X127760714Y-97128571D01*
X127732142Y-97157142D01*
X127675000Y-97185714D01*
X127446428Y-97185714D01*
X128017857Y-96928571D02*
X128046428Y-96900000D01*
X128103571Y-96871428D01*
X128246428Y-96871428D01*
X128303571Y-96900000D01*
X128332142Y-96928571D01*
X128360714Y-96985714D01*
X128360714Y-97042857D01*
X128332142Y-97128571D01*
X127989285Y-97471428D01*
X128360714Y-97471428D01*
X128589285Y-96928571D02*
X128617857Y-96900000D01*
X128675000Y-96871428D01*
X128817857Y-96871428D01*
X128875000Y-96900000D01*
X128903571Y-96928571D01*
X128932142Y-96985714D01*
X128932142Y-97042857D01*
X128903571Y-97128571D01*
X128560714Y-97471428D01*
X128932142Y-97471428D01*
%TO.C,R21*%
X130339285Y-100381428D02*
X130139285Y-100095714D01*
X129996428Y-100381428D02*
X129996428Y-99781428D01*
X130225000Y-99781428D01*
X130282142Y-99810000D01*
X130310714Y-99838571D01*
X130339285Y-99895714D01*
X130339285Y-99981428D01*
X130310714Y-100038571D01*
X130282142Y-100067142D01*
X130225000Y-100095714D01*
X129996428Y-100095714D01*
X130567857Y-99838571D02*
X130596428Y-99810000D01*
X130653571Y-99781428D01*
X130796428Y-99781428D01*
X130853571Y-99810000D01*
X130882142Y-99838571D01*
X130910714Y-99895714D01*
X130910714Y-99952857D01*
X130882142Y-100038571D01*
X130539285Y-100381428D01*
X130910714Y-100381428D01*
X131482142Y-100381428D02*
X131139285Y-100381428D01*
X131310714Y-100381428D02*
X131310714Y-99781428D01*
X131253571Y-99867142D01*
X131196428Y-99924285D01*
X131139285Y-99952857D01*
%TO.C,R20*%
X131649285Y-97491428D02*
X131449285Y-97205714D01*
X131306428Y-97491428D02*
X131306428Y-96891428D01*
X131535000Y-96891428D01*
X131592142Y-96920000D01*
X131620714Y-96948571D01*
X131649285Y-97005714D01*
X131649285Y-97091428D01*
X131620714Y-97148571D01*
X131592142Y-97177142D01*
X131535000Y-97205714D01*
X131306428Y-97205714D01*
X131877857Y-96948571D02*
X131906428Y-96920000D01*
X131963571Y-96891428D01*
X132106428Y-96891428D01*
X132163571Y-96920000D01*
X132192142Y-96948571D01*
X132220714Y-97005714D01*
X132220714Y-97062857D01*
X132192142Y-97148571D01*
X131849285Y-97491428D01*
X132220714Y-97491428D01*
X132592142Y-96891428D02*
X132649285Y-96891428D01*
X132706428Y-96920000D01*
X132735000Y-96948571D01*
X132763571Y-97005714D01*
X132792142Y-97120000D01*
X132792142Y-97262857D01*
X132763571Y-97377142D01*
X132735000Y-97434285D01*
X132706428Y-97462857D01*
X132649285Y-97491428D01*
X132592142Y-97491428D01*
X132535000Y-97462857D01*
X132506428Y-97434285D01*
X132477857Y-97377142D01*
X132449285Y-97262857D01*
X132449285Y-97120000D01*
X132477857Y-97005714D01*
X132506428Y-96948571D01*
X132535000Y-96920000D01*
X132592142Y-96891428D01*
%TO.C,R19*%
X126539285Y-100346428D02*
X126339285Y-100060714D01*
X126196428Y-100346428D02*
X126196428Y-99746428D01*
X126425000Y-99746428D01*
X126482142Y-99775000D01*
X126510714Y-99803571D01*
X126539285Y-99860714D01*
X126539285Y-99946428D01*
X126510714Y-100003571D01*
X126482142Y-100032142D01*
X126425000Y-100060714D01*
X126196428Y-100060714D01*
X127110714Y-100346428D02*
X126767857Y-100346428D01*
X126939285Y-100346428D02*
X126939285Y-99746428D01*
X126882142Y-99832142D01*
X126825000Y-99889285D01*
X126767857Y-99917857D01*
X127396428Y-100346428D02*
X127510714Y-100346428D01*
X127567857Y-100317857D01*
X127596428Y-100289285D01*
X127653571Y-100203571D01*
X127682142Y-100089285D01*
X127682142Y-99860714D01*
X127653571Y-99803571D01*
X127625000Y-99775000D01*
X127567857Y-99746428D01*
X127453571Y-99746428D01*
X127396428Y-99775000D01*
X127367857Y-99803571D01*
X127339285Y-99860714D01*
X127339285Y-100003571D01*
X127367857Y-100060714D01*
X127396428Y-100089285D01*
X127453571Y-100117857D01*
X127567857Y-100117857D01*
X127625000Y-100089285D01*
X127653571Y-100060714D01*
X127682142Y-100003571D01*
%TO.C,R18*%
X90139285Y-96521428D02*
X89939285Y-96235714D01*
X89796428Y-96521428D02*
X89796428Y-95921428D01*
X90025000Y-95921428D01*
X90082142Y-95950000D01*
X90110714Y-95978571D01*
X90139285Y-96035714D01*
X90139285Y-96121428D01*
X90110714Y-96178571D01*
X90082142Y-96207142D01*
X90025000Y-96235714D01*
X89796428Y-96235714D01*
X90710714Y-96521428D02*
X90367857Y-96521428D01*
X90539285Y-96521428D02*
X90539285Y-95921428D01*
X90482142Y-96007142D01*
X90425000Y-96064285D01*
X90367857Y-96092857D01*
X91053571Y-96178571D02*
X90996428Y-96150000D01*
X90967857Y-96121428D01*
X90939285Y-96064285D01*
X90939285Y-96035714D01*
X90967857Y-95978571D01*
X90996428Y-95950000D01*
X91053571Y-95921428D01*
X91167857Y-95921428D01*
X91225000Y-95950000D01*
X91253571Y-95978571D01*
X91282142Y-96035714D01*
X91282142Y-96064285D01*
X91253571Y-96121428D01*
X91225000Y-96150000D01*
X91167857Y-96178571D01*
X91053571Y-96178571D01*
X90996428Y-96207142D01*
X90967857Y-96235714D01*
X90939285Y-96292857D01*
X90939285Y-96407142D01*
X90967857Y-96464285D01*
X90996428Y-96492857D01*
X91053571Y-96521428D01*
X91167857Y-96521428D01*
X91225000Y-96492857D01*
X91253571Y-96464285D01*
X91282142Y-96407142D01*
X91282142Y-96292857D01*
X91253571Y-96235714D01*
X91225000Y-96207142D01*
X91167857Y-96178571D01*
%TO.C,R17*%
X90139285Y-84021428D02*
X89939285Y-83735714D01*
X89796428Y-84021428D02*
X89796428Y-83421428D01*
X90025000Y-83421428D01*
X90082142Y-83450000D01*
X90110714Y-83478571D01*
X90139285Y-83535714D01*
X90139285Y-83621428D01*
X90110714Y-83678571D01*
X90082142Y-83707142D01*
X90025000Y-83735714D01*
X89796428Y-83735714D01*
X90710714Y-84021428D02*
X90367857Y-84021428D01*
X90539285Y-84021428D02*
X90539285Y-83421428D01*
X90482142Y-83507142D01*
X90425000Y-83564285D01*
X90367857Y-83592857D01*
X90910714Y-83421428D02*
X91310714Y-83421428D01*
X91053571Y-84021428D01*
%TO.C,R16*%
X194089285Y-96521428D02*
X193889285Y-96235714D01*
X193746428Y-96521428D02*
X193746428Y-95921428D01*
X193975000Y-95921428D01*
X194032142Y-95950000D01*
X194060714Y-95978571D01*
X194089285Y-96035714D01*
X194089285Y-96121428D01*
X194060714Y-96178571D01*
X194032142Y-96207142D01*
X193975000Y-96235714D01*
X193746428Y-96235714D01*
X194660714Y-96521428D02*
X194317857Y-96521428D01*
X194489285Y-96521428D02*
X194489285Y-95921428D01*
X194432142Y-96007142D01*
X194375000Y-96064285D01*
X194317857Y-96092857D01*
X195175000Y-95921428D02*
X195060714Y-95921428D01*
X195003571Y-95950000D01*
X194975000Y-95978571D01*
X194917857Y-96064285D01*
X194889285Y-96178571D01*
X194889285Y-96407142D01*
X194917857Y-96464285D01*
X194946428Y-96492857D01*
X195003571Y-96521428D01*
X195117857Y-96521428D01*
X195175000Y-96492857D01*
X195203571Y-96464285D01*
X195232142Y-96407142D01*
X195232142Y-96264285D01*
X195203571Y-96207142D01*
X195175000Y-96178571D01*
X195117857Y-96150000D01*
X195003571Y-96150000D01*
X194946428Y-96178571D01*
X194917857Y-96207142D01*
X194889285Y-96264285D01*
%TO.C,R15*%
X194039285Y-84021428D02*
X193839285Y-83735714D01*
X193696428Y-84021428D02*
X193696428Y-83421428D01*
X193925000Y-83421428D01*
X193982142Y-83450000D01*
X194010714Y-83478571D01*
X194039285Y-83535714D01*
X194039285Y-83621428D01*
X194010714Y-83678571D01*
X193982142Y-83707142D01*
X193925000Y-83735714D01*
X193696428Y-83735714D01*
X194610714Y-84021428D02*
X194267857Y-84021428D01*
X194439285Y-84021428D02*
X194439285Y-83421428D01*
X194382142Y-83507142D01*
X194325000Y-83564285D01*
X194267857Y-83592857D01*
X195153571Y-83421428D02*
X194867857Y-83421428D01*
X194839285Y-83707142D01*
X194867857Y-83678571D01*
X194925000Y-83650000D01*
X195067857Y-83650000D01*
X195125000Y-83678571D01*
X195153571Y-83707142D01*
X195182142Y-83764285D01*
X195182142Y-83907142D01*
X195153571Y-83964285D01*
X195125000Y-83992857D01*
X195067857Y-84021428D01*
X194925000Y-84021428D01*
X194867857Y-83992857D01*
X194839285Y-83964285D01*
%TO.C,R14*%
X90189285Y-94971428D02*
X89989285Y-94685714D01*
X89846428Y-94971428D02*
X89846428Y-94371428D01*
X90075000Y-94371428D01*
X90132142Y-94400000D01*
X90160714Y-94428571D01*
X90189285Y-94485714D01*
X90189285Y-94571428D01*
X90160714Y-94628571D01*
X90132142Y-94657142D01*
X90075000Y-94685714D01*
X89846428Y-94685714D01*
X90760714Y-94971428D02*
X90417857Y-94971428D01*
X90589285Y-94971428D02*
X90589285Y-94371428D01*
X90532142Y-94457142D01*
X90475000Y-94514285D01*
X90417857Y-94542857D01*
X91275000Y-94571428D02*
X91275000Y-94971428D01*
X91132142Y-94342857D02*
X90989285Y-94771428D01*
X91360714Y-94771428D01*
%TO.C,R13*%
X90139285Y-82421428D02*
X89939285Y-82135714D01*
X89796428Y-82421428D02*
X89796428Y-81821428D01*
X90025000Y-81821428D01*
X90082142Y-81850000D01*
X90110714Y-81878571D01*
X90139285Y-81935714D01*
X90139285Y-82021428D01*
X90110714Y-82078571D01*
X90082142Y-82107142D01*
X90025000Y-82135714D01*
X89796428Y-82135714D01*
X90710714Y-82421428D02*
X90367857Y-82421428D01*
X90539285Y-82421428D02*
X90539285Y-81821428D01*
X90482142Y-81907142D01*
X90425000Y-81964285D01*
X90367857Y-81992857D01*
X90910714Y-81821428D02*
X91282142Y-81821428D01*
X91082142Y-82050000D01*
X91167857Y-82050000D01*
X91225000Y-82078571D01*
X91253571Y-82107142D01*
X91282142Y-82164285D01*
X91282142Y-82307142D01*
X91253571Y-82364285D01*
X91225000Y-82392857D01*
X91167857Y-82421428D01*
X90996428Y-82421428D01*
X90939285Y-82392857D01*
X90910714Y-82364285D01*
%TO.C,R12*%
X194089285Y-94921428D02*
X193889285Y-94635714D01*
X193746428Y-94921428D02*
X193746428Y-94321428D01*
X193975000Y-94321428D01*
X194032142Y-94350000D01*
X194060714Y-94378571D01*
X194089285Y-94435714D01*
X194089285Y-94521428D01*
X194060714Y-94578571D01*
X194032142Y-94607142D01*
X193975000Y-94635714D01*
X193746428Y-94635714D01*
X194660714Y-94921428D02*
X194317857Y-94921428D01*
X194489285Y-94921428D02*
X194489285Y-94321428D01*
X194432142Y-94407142D01*
X194375000Y-94464285D01*
X194317857Y-94492857D01*
X194889285Y-94378571D02*
X194917857Y-94350000D01*
X194975000Y-94321428D01*
X195117857Y-94321428D01*
X195175000Y-94350000D01*
X195203571Y-94378571D01*
X195232142Y-94435714D01*
X195232142Y-94492857D01*
X195203571Y-94578571D01*
X194860714Y-94921428D01*
X195232142Y-94921428D01*
%TO.C,R11*%
X194039285Y-82371428D02*
X193839285Y-82085714D01*
X193696428Y-82371428D02*
X193696428Y-81771428D01*
X193925000Y-81771428D01*
X193982142Y-81800000D01*
X194010714Y-81828571D01*
X194039285Y-81885714D01*
X194039285Y-81971428D01*
X194010714Y-82028571D01*
X193982142Y-82057142D01*
X193925000Y-82085714D01*
X193696428Y-82085714D01*
X194610714Y-82371428D02*
X194267857Y-82371428D01*
X194439285Y-82371428D02*
X194439285Y-81771428D01*
X194382142Y-81857142D01*
X194325000Y-81914285D01*
X194267857Y-81942857D01*
X195182142Y-82371428D02*
X194839285Y-82371428D01*
X195010714Y-82371428D02*
X195010714Y-81771428D01*
X194953571Y-81857142D01*
X194896428Y-81914285D01*
X194839285Y-81942857D01*
%TO.C,R10*%
X142139285Y-90171428D02*
X141939285Y-89885714D01*
X141796428Y-90171428D02*
X141796428Y-89571428D01*
X142025000Y-89571428D01*
X142082142Y-89600000D01*
X142110714Y-89628571D01*
X142139285Y-89685714D01*
X142139285Y-89771428D01*
X142110714Y-89828571D01*
X142082142Y-89857142D01*
X142025000Y-89885714D01*
X141796428Y-89885714D01*
X142710714Y-90171428D02*
X142367857Y-90171428D01*
X142539285Y-90171428D02*
X142539285Y-89571428D01*
X142482142Y-89657142D01*
X142425000Y-89714285D01*
X142367857Y-89742857D01*
X143082142Y-89571428D02*
X143139285Y-89571428D01*
X143196428Y-89600000D01*
X143225000Y-89628571D01*
X143253571Y-89685714D01*
X143282142Y-89800000D01*
X143282142Y-89942857D01*
X143253571Y-90057142D01*
X143225000Y-90114285D01*
X143196428Y-90142857D01*
X143139285Y-90171428D01*
X143082142Y-90171428D01*
X143025000Y-90142857D01*
X142996428Y-90114285D01*
X142967857Y-90057142D01*
X142939285Y-89942857D01*
X142939285Y-89800000D01*
X142967857Y-89685714D01*
X142996428Y-89628571D01*
X143025000Y-89600000D01*
X143082142Y-89571428D01*
%TO.C,R9*%
X155225000Y-90321428D02*
X155025000Y-90035714D01*
X154882142Y-90321428D02*
X154882142Y-89721428D01*
X155110714Y-89721428D01*
X155167857Y-89750000D01*
X155196428Y-89778571D01*
X155225000Y-89835714D01*
X155225000Y-89921428D01*
X155196428Y-89978571D01*
X155167857Y-90007142D01*
X155110714Y-90035714D01*
X154882142Y-90035714D01*
X155510714Y-90321428D02*
X155625000Y-90321428D01*
X155682142Y-90292857D01*
X155710714Y-90264285D01*
X155767857Y-90178571D01*
X155796428Y-90064285D01*
X155796428Y-89835714D01*
X155767857Y-89778571D01*
X155739285Y-89750000D01*
X155682142Y-89721428D01*
X155567857Y-89721428D01*
X155510714Y-89750000D01*
X155482142Y-89778571D01*
X155453571Y-89835714D01*
X155453571Y-89978571D01*
X155482142Y-90035714D01*
X155510714Y-90064285D01*
X155567857Y-90092857D01*
X155682142Y-90092857D01*
X155739285Y-90064285D01*
X155767857Y-90035714D01*
X155796428Y-89978571D01*
%TO.C,R8*%
X130125000Y-90321428D02*
X129925000Y-90035714D01*
X129782142Y-90321428D02*
X129782142Y-89721428D01*
X130010714Y-89721428D01*
X130067857Y-89750000D01*
X130096428Y-89778571D01*
X130125000Y-89835714D01*
X130125000Y-89921428D01*
X130096428Y-89978571D01*
X130067857Y-90007142D01*
X130010714Y-90035714D01*
X129782142Y-90035714D01*
X130467857Y-89978571D02*
X130410714Y-89950000D01*
X130382142Y-89921428D01*
X130353571Y-89864285D01*
X130353571Y-89835714D01*
X130382142Y-89778571D01*
X130410714Y-89750000D01*
X130467857Y-89721428D01*
X130582142Y-89721428D01*
X130639285Y-89750000D01*
X130667857Y-89778571D01*
X130696428Y-89835714D01*
X130696428Y-89864285D01*
X130667857Y-89921428D01*
X130639285Y-89950000D01*
X130582142Y-89978571D01*
X130467857Y-89978571D01*
X130410714Y-90007142D01*
X130382142Y-90035714D01*
X130353571Y-90092857D01*
X130353571Y-90207142D01*
X130382142Y-90264285D01*
X130410714Y-90292857D01*
X130467857Y-90321428D01*
X130582142Y-90321428D01*
X130639285Y-90292857D01*
X130667857Y-90264285D01*
X130696428Y-90207142D01*
X130696428Y-90092857D01*
X130667857Y-90035714D01*
X130639285Y-90007142D01*
X130582142Y-89978571D01*
%TO.C,R7*%
X142775000Y-99321428D02*
X142575000Y-99035714D01*
X142432142Y-99321428D02*
X142432142Y-98721428D01*
X142660714Y-98721428D01*
X142717857Y-98750000D01*
X142746428Y-98778571D01*
X142775000Y-98835714D01*
X142775000Y-98921428D01*
X142746428Y-98978571D01*
X142717857Y-99007142D01*
X142660714Y-99035714D01*
X142432142Y-99035714D01*
X142975000Y-98721428D02*
X143375000Y-98721428D01*
X143117857Y-99321428D01*
%TO.C,R6*%
X142725000Y-81321428D02*
X142525000Y-81035714D01*
X142382142Y-81321428D02*
X142382142Y-80721428D01*
X142610714Y-80721428D01*
X142667857Y-80750000D01*
X142696428Y-80778571D01*
X142725000Y-80835714D01*
X142725000Y-80921428D01*
X142696428Y-80978571D01*
X142667857Y-81007142D01*
X142610714Y-81035714D01*
X142382142Y-81035714D01*
X143239285Y-80721428D02*
X143125000Y-80721428D01*
X143067857Y-80750000D01*
X143039285Y-80778571D01*
X142982142Y-80864285D01*
X142953571Y-80978571D01*
X142953571Y-81207142D01*
X142982142Y-81264285D01*
X143010714Y-81292857D01*
X143067857Y-81321428D01*
X143182142Y-81321428D01*
X143239285Y-81292857D01*
X143267857Y-81264285D01*
X143296428Y-81207142D01*
X143296428Y-81064285D01*
X143267857Y-81007142D01*
X143239285Y-80978571D01*
X143182142Y-80950000D01*
X143067857Y-80950000D01*
X143010714Y-80978571D01*
X142982142Y-81007142D01*
X142953571Y-81064285D01*
%TO.C,R5*%
X142775000Y-88721428D02*
X142575000Y-88435714D01*
X142432142Y-88721428D02*
X142432142Y-88121428D01*
X142660714Y-88121428D01*
X142717857Y-88150000D01*
X142746428Y-88178571D01*
X142775000Y-88235714D01*
X142775000Y-88321428D01*
X142746428Y-88378571D01*
X142717857Y-88407142D01*
X142660714Y-88435714D01*
X142432142Y-88435714D01*
X143317857Y-88121428D02*
X143032142Y-88121428D01*
X143003571Y-88407142D01*
X143032142Y-88378571D01*
X143089285Y-88350000D01*
X143232142Y-88350000D01*
X143289285Y-88378571D01*
X143317857Y-88407142D01*
X143346428Y-88464285D01*
X143346428Y-88607142D01*
X143317857Y-88664285D01*
X143289285Y-88692857D01*
X143232142Y-88721428D01*
X143089285Y-88721428D01*
X143032142Y-88692857D01*
X143003571Y-88664285D01*
%TO.C,R4*%
X155225000Y-88721428D02*
X155025000Y-88435714D01*
X154882142Y-88721428D02*
X154882142Y-88121428D01*
X155110714Y-88121428D01*
X155167857Y-88150000D01*
X155196428Y-88178571D01*
X155225000Y-88235714D01*
X155225000Y-88321428D01*
X155196428Y-88378571D01*
X155167857Y-88407142D01*
X155110714Y-88435714D01*
X154882142Y-88435714D01*
X155739285Y-88321428D02*
X155739285Y-88721428D01*
X155596428Y-88092857D02*
X155453571Y-88521428D01*
X155825000Y-88521428D01*
%TO.C,R3*%
X130125000Y-88721428D02*
X129925000Y-88435714D01*
X129782142Y-88721428D02*
X129782142Y-88121428D01*
X130010714Y-88121428D01*
X130067857Y-88150000D01*
X130096428Y-88178571D01*
X130125000Y-88235714D01*
X130125000Y-88321428D01*
X130096428Y-88378571D01*
X130067857Y-88407142D01*
X130010714Y-88435714D01*
X129782142Y-88435714D01*
X130325000Y-88121428D02*
X130696428Y-88121428D01*
X130496428Y-88350000D01*
X130582142Y-88350000D01*
X130639285Y-88378571D01*
X130667857Y-88407142D01*
X130696428Y-88464285D01*
X130696428Y-88607142D01*
X130667857Y-88664285D01*
X130639285Y-88692857D01*
X130582142Y-88721428D01*
X130410714Y-88721428D01*
X130353571Y-88692857D01*
X130325000Y-88664285D01*
%TO.C,R2*%
X142725000Y-97921428D02*
X142525000Y-97635714D01*
X142382142Y-97921428D02*
X142382142Y-97321428D01*
X142610714Y-97321428D01*
X142667857Y-97350000D01*
X142696428Y-97378571D01*
X142725000Y-97435714D01*
X142725000Y-97521428D01*
X142696428Y-97578571D01*
X142667857Y-97607142D01*
X142610714Y-97635714D01*
X142382142Y-97635714D01*
X142953571Y-97378571D02*
X142982142Y-97350000D01*
X143039285Y-97321428D01*
X143182142Y-97321428D01*
X143239285Y-97350000D01*
X143267857Y-97378571D01*
X143296428Y-97435714D01*
X143296428Y-97492857D01*
X143267857Y-97578571D01*
X142925000Y-97921428D01*
X143296428Y-97921428D01*
%TO.C,R1*%
X142675000Y-79721428D02*
X142475000Y-79435714D01*
X142332142Y-79721428D02*
X142332142Y-79121428D01*
X142560714Y-79121428D01*
X142617857Y-79150000D01*
X142646428Y-79178571D01*
X142675000Y-79235714D01*
X142675000Y-79321428D01*
X142646428Y-79378571D01*
X142617857Y-79407142D01*
X142560714Y-79435714D01*
X142332142Y-79435714D01*
X143246428Y-79721428D02*
X142903571Y-79721428D01*
X143075000Y-79721428D02*
X143075000Y-79121428D01*
X143017857Y-79207142D01*
X142960714Y-79264285D01*
X142903571Y-79292857D01*
%TO.C,J1*%
X176850000Y-70921428D02*
X176850000Y-71350000D01*
X176821428Y-71435714D01*
X176764285Y-71492857D01*
X176678571Y-71521428D01*
X176621428Y-71521428D01*
X177450000Y-71521428D02*
X177107142Y-71521428D01*
X177278571Y-71521428D02*
X177278571Y-70921428D01*
X177221428Y-71007142D01*
X177164285Y-71064285D01*
X177107142Y-71092857D01*
%TO.C,C9*%
X90675000Y-98014285D02*
X90646428Y-98042857D01*
X90560714Y-98071428D01*
X90503571Y-98071428D01*
X90417857Y-98042857D01*
X90360714Y-97985714D01*
X90332142Y-97928571D01*
X90303571Y-97814285D01*
X90303571Y-97728571D01*
X90332142Y-97614285D01*
X90360714Y-97557142D01*
X90417857Y-97500000D01*
X90503571Y-97471428D01*
X90560714Y-97471428D01*
X90646428Y-97500000D01*
X90675000Y-97528571D01*
X90960714Y-98071428D02*
X91075000Y-98071428D01*
X91132142Y-98042857D01*
X91160714Y-98014285D01*
X91217857Y-97928571D01*
X91246428Y-97814285D01*
X91246428Y-97585714D01*
X91217857Y-97528571D01*
X91189285Y-97500000D01*
X91132142Y-97471428D01*
X91017857Y-97471428D01*
X90960714Y-97500000D01*
X90932142Y-97528571D01*
X90903571Y-97585714D01*
X90903571Y-97728571D01*
X90932142Y-97785714D01*
X90960714Y-97814285D01*
X91017857Y-97842857D01*
X91132142Y-97842857D01*
X91189285Y-97814285D01*
X91217857Y-97785714D01*
X91246428Y-97728571D01*
%TO.C,C8*%
X90775000Y-85564285D02*
X90746428Y-85592857D01*
X90660714Y-85621428D01*
X90603571Y-85621428D01*
X90517857Y-85592857D01*
X90460714Y-85535714D01*
X90432142Y-85478571D01*
X90403571Y-85364285D01*
X90403571Y-85278571D01*
X90432142Y-85164285D01*
X90460714Y-85107142D01*
X90517857Y-85050000D01*
X90603571Y-85021428D01*
X90660714Y-85021428D01*
X90746428Y-85050000D01*
X90775000Y-85078571D01*
X91117857Y-85278571D02*
X91060714Y-85250000D01*
X91032142Y-85221428D01*
X91003571Y-85164285D01*
X91003571Y-85135714D01*
X91032142Y-85078571D01*
X91060714Y-85050000D01*
X91117857Y-85021428D01*
X91232142Y-85021428D01*
X91289285Y-85050000D01*
X91317857Y-85078571D01*
X91346428Y-85135714D01*
X91346428Y-85164285D01*
X91317857Y-85221428D01*
X91289285Y-85250000D01*
X91232142Y-85278571D01*
X91117857Y-85278571D01*
X91060714Y-85307142D01*
X91032142Y-85335714D01*
X91003571Y-85392857D01*
X91003571Y-85507142D01*
X91032142Y-85564285D01*
X91060714Y-85592857D01*
X91117857Y-85621428D01*
X91232142Y-85621428D01*
X91289285Y-85592857D01*
X91317857Y-85564285D01*
X91346428Y-85507142D01*
X91346428Y-85392857D01*
X91317857Y-85335714D01*
X91289285Y-85307142D01*
X91232142Y-85278571D01*
%TO.C,C7*%
X194700000Y-98064285D02*
X194671428Y-98092857D01*
X194585714Y-98121428D01*
X194528571Y-98121428D01*
X194442857Y-98092857D01*
X194385714Y-98035714D01*
X194357142Y-97978571D01*
X194328571Y-97864285D01*
X194328571Y-97778571D01*
X194357142Y-97664285D01*
X194385714Y-97607142D01*
X194442857Y-97550000D01*
X194528571Y-97521428D01*
X194585714Y-97521428D01*
X194671428Y-97550000D01*
X194700000Y-97578571D01*
X194900000Y-97521428D02*
X195300000Y-97521428D01*
X195042857Y-98121428D01*
%TO.C,C6*%
X194675000Y-85514285D02*
X194646428Y-85542857D01*
X194560714Y-85571428D01*
X194503571Y-85571428D01*
X194417857Y-85542857D01*
X194360714Y-85485714D01*
X194332142Y-85428571D01*
X194303571Y-85314285D01*
X194303571Y-85228571D01*
X194332142Y-85114285D01*
X194360714Y-85057142D01*
X194417857Y-85000000D01*
X194503571Y-84971428D01*
X194560714Y-84971428D01*
X194646428Y-85000000D01*
X194675000Y-85028571D01*
X195189285Y-84971428D02*
X195075000Y-84971428D01*
X195017857Y-85000000D01*
X194989285Y-85028571D01*
X194932142Y-85114285D01*
X194903571Y-85228571D01*
X194903571Y-85457142D01*
X194932142Y-85514285D01*
X194960714Y-85542857D01*
X195017857Y-85571428D01*
X195132142Y-85571428D01*
X195189285Y-85542857D01*
X195217857Y-85514285D01*
X195246428Y-85457142D01*
X195246428Y-85314285D01*
X195217857Y-85257142D01*
X195189285Y-85228571D01*
X195132142Y-85200000D01*
X195017857Y-85200000D01*
X194960714Y-85228571D01*
X194932142Y-85257142D01*
X194903571Y-85314285D01*
%TO.C,C5*%
X142725000Y-91864285D02*
X142696428Y-91892857D01*
X142610714Y-91921428D01*
X142553571Y-91921428D01*
X142467857Y-91892857D01*
X142410714Y-91835714D01*
X142382142Y-91778571D01*
X142353571Y-91664285D01*
X142353571Y-91578571D01*
X142382142Y-91464285D01*
X142410714Y-91407142D01*
X142467857Y-91350000D01*
X142553571Y-91321428D01*
X142610714Y-91321428D01*
X142696428Y-91350000D01*
X142725000Y-91378571D01*
X143267857Y-91321428D02*
X142982142Y-91321428D01*
X142953571Y-91607142D01*
X142982142Y-91578571D01*
X143039285Y-91550000D01*
X143182142Y-91550000D01*
X143239285Y-91578571D01*
X143267857Y-91607142D01*
X143296428Y-91664285D01*
X143296428Y-91807142D01*
X143267857Y-91864285D01*
X143239285Y-91892857D01*
X143182142Y-91921428D01*
X143039285Y-91921428D01*
X142982142Y-91892857D01*
X142953571Y-91864285D01*
%TO.C,C4*%
X155225000Y-91864285D02*
X155196428Y-91892857D01*
X155110714Y-91921428D01*
X155053571Y-91921428D01*
X154967857Y-91892857D01*
X154910714Y-91835714D01*
X154882142Y-91778571D01*
X154853571Y-91664285D01*
X154853571Y-91578571D01*
X154882142Y-91464285D01*
X154910714Y-91407142D01*
X154967857Y-91350000D01*
X155053571Y-91321428D01*
X155110714Y-91321428D01*
X155196428Y-91350000D01*
X155225000Y-91378571D01*
X155739285Y-91521428D02*
X155739285Y-91921428D01*
X155596428Y-91292857D02*
X155453571Y-91721428D01*
X155825000Y-91721428D01*
%TO.C,C3*%
X130075000Y-91864285D02*
X130046428Y-91892857D01*
X129960714Y-91921428D01*
X129903571Y-91921428D01*
X129817857Y-91892857D01*
X129760714Y-91835714D01*
X129732142Y-91778571D01*
X129703571Y-91664285D01*
X129703571Y-91578571D01*
X129732142Y-91464285D01*
X129760714Y-91407142D01*
X129817857Y-91350000D01*
X129903571Y-91321428D01*
X129960714Y-91321428D01*
X130046428Y-91350000D01*
X130075000Y-91378571D01*
X130275000Y-91321428D02*
X130646428Y-91321428D01*
X130446428Y-91550000D01*
X130532142Y-91550000D01*
X130589285Y-91578571D01*
X130617857Y-91607142D01*
X130646428Y-91664285D01*
X130646428Y-91807142D01*
X130617857Y-91864285D01*
X130589285Y-91892857D01*
X130532142Y-91921428D01*
X130360714Y-91921428D01*
X130303571Y-91892857D01*
X130275000Y-91864285D01*
%TO.C,C2*%
X142725000Y-100864285D02*
X142696428Y-100892857D01*
X142610714Y-100921428D01*
X142553571Y-100921428D01*
X142467857Y-100892857D01*
X142410714Y-100835714D01*
X142382142Y-100778571D01*
X142353571Y-100664285D01*
X142353571Y-100578571D01*
X142382142Y-100464285D01*
X142410714Y-100407142D01*
X142467857Y-100350000D01*
X142553571Y-100321428D01*
X142610714Y-100321428D01*
X142696428Y-100350000D01*
X142725000Y-100378571D01*
X142953571Y-100378571D02*
X142982142Y-100350000D01*
X143039285Y-100321428D01*
X143182142Y-100321428D01*
X143239285Y-100350000D01*
X143267857Y-100378571D01*
X143296428Y-100435714D01*
X143296428Y-100492857D01*
X143267857Y-100578571D01*
X142925000Y-100921428D01*
X143296428Y-100921428D01*
%TO.C,C1*%
X142725000Y-82864285D02*
X142696428Y-82892857D01*
X142610714Y-82921428D01*
X142553571Y-82921428D01*
X142467857Y-82892857D01*
X142410714Y-82835714D01*
X142382142Y-82778571D01*
X142353571Y-82664285D01*
X142353571Y-82578571D01*
X142382142Y-82464285D01*
X142410714Y-82407142D01*
X142467857Y-82350000D01*
X142553571Y-82321428D01*
X142610714Y-82321428D01*
X142696428Y-82350000D01*
X142725000Y-82378571D01*
X143296428Y-82921428D02*
X142953571Y-82921428D01*
X143125000Y-82921428D02*
X143125000Y-82321428D01*
X143067857Y-82407142D01*
X143010714Y-82464285D01*
X142953571Y-82492857D01*
%TD*%
M02*
