%TF.GenerationSoftware,KiCad,Pcbnew,(5.1.6)-1*%
%TF.CreationDate,2020-11-03T20:56:16+09:00*%
%TF.ProjectId,FlightComputer-Keypad,466c6967-6874-4436-9f6d-70757465722d,rev?*%
%TF.SameCoordinates,Original*%
%TF.FileFunction,Paste,Top*%
%TF.FilePolarity,Positive*%
%FSLAX46Y46*%
G04 Gerber Fmt 4.6, Leading zero omitted, Abs format (unit mm)*
G04 Created by KiCad (PCBNEW (5.1.6)-1) date 2020-11-03 20:56:16*
%MOMM*%
%LPD*%
G01*
G04 APERTURE LIST*
%ADD10R,1.600000X1.000000*%
G04 APERTURE END LIST*
D10*
%TO.C,SW3*%
X134825000Y-91650000D03*
X134825000Y-88450000D03*
X140425000Y-91650000D03*
X140425000Y-88450000D03*
%TD*%
%TO.C,SW9*%
X95575000Y-97850000D03*
X95575000Y-94650000D03*
X101175000Y-97850000D03*
X101175000Y-94650000D03*
%TD*%
%TO.C,SW8*%
X95575000Y-85350000D03*
X95575000Y-82150000D03*
X101175000Y-85350000D03*
X101175000Y-82150000D03*
%TD*%
%TO.C,SW7*%
X199075000Y-97850000D03*
X199075000Y-94650000D03*
X204675000Y-97850000D03*
X204675000Y-94650000D03*
%TD*%
%TO.C,SW6*%
X199075000Y-85350000D03*
X199075000Y-82150000D03*
X204675000Y-85350000D03*
X204675000Y-82150000D03*
%TD*%
%TO.C,SW5*%
X147325000Y-91650000D03*
X147325000Y-88450000D03*
X152925000Y-91650000D03*
X152925000Y-88450000D03*
%TD*%
%TO.C,SW4*%
X159825000Y-91650000D03*
X159825000Y-88450000D03*
X165425000Y-91650000D03*
X165425000Y-88450000D03*
%TD*%
%TO.C,SW2*%
X147325000Y-100650000D03*
X147325000Y-97450000D03*
X152925000Y-100650000D03*
X152925000Y-97450000D03*
%TD*%
%TO.C,SW1*%
X147325000Y-82650000D03*
X147325000Y-79450000D03*
X152925000Y-82650000D03*
X152925000Y-79450000D03*
%TD*%
%TO.C,R27*%
G36*
G01*
X124202500Y-98840000D02*
X124547500Y-98840000D01*
G75*
G02*
X124695000Y-98987500I0J-147500D01*
G01*
X124695000Y-99282500D01*
G75*
G02*
X124547500Y-99430000I-147500J0D01*
G01*
X124202500Y-99430000D01*
G75*
G02*
X124055000Y-99282500I0J147500D01*
G01*
X124055000Y-98987500D01*
G75*
G02*
X124202500Y-98840000I147500J0D01*
G01*
G37*
G36*
G01*
X124202500Y-97870000D02*
X124547500Y-97870000D01*
G75*
G02*
X124695000Y-98017500I0J-147500D01*
G01*
X124695000Y-98312500D01*
G75*
G02*
X124547500Y-98460000I-147500J0D01*
G01*
X124202500Y-98460000D01*
G75*
G02*
X124055000Y-98312500I0J147500D01*
G01*
X124055000Y-98017500D01*
G75*
G02*
X124202500Y-97870000I147500J0D01*
G01*
G37*
%TD*%
%TO.C,R26*%
G36*
G01*
X115312500Y-98840000D02*
X115657500Y-98840000D01*
G75*
G02*
X115805000Y-98987500I0J-147500D01*
G01*
X115805000Y-99282500D01*
G75*
G02*
X115657500Y-99430000I-147500J0D01*
G01*
X115312500Y-99430000D01*
G75*
G02*
X115165000Y-99282500I0J147500D01*
G01*
X115165000Y-98987500D01*
G75*
G02*
X115312500Y-98840000I147500J0D01*
G01*
G37*
G36*
G01*
X115312500Y-97870000D02*
X115657500Y-97870000D01*
G75*
G02*
X115805000Y-98017500I0J-147500D01*
G01*
X115805000Y-98312500D01*
G75*
G02*
X115657500Y-98460000I-147500J0D01*
G01*
X115312500Y-98460000D01*
G75*
G02*
X115165000Y-98312500I0J147500D01*
G01*
X115165000Y-98017500D01*
G75*
G02*
X115312500Y-97870000I147500J0D01*
G01*
G37*
%TD*%
%TO.C,R25*%
G36*
G01*
X117832500Y-98840000D02*
X118177500Y-98840000D01*
G75*
G02*
X118325000Y-98987500I0J-147500D01*
G01*
X118325000Y-99282500D01*
G75*
G02*
X118177500Y-99430000I-147500J0D01*
G01*
X117832500Y-99430000D01*
G75*
G02*
X117685000Y-99282500I0J147500D01*
G01*
X117685000Y-98987500D01*
G75*
G02*
X117832500Y-98840000I147500J0D01*
G01*
G37*
G36*
G01*
X117832500Y-97870000D02*
X118177500Y-97870000D01*
G75*
G02*
X118325000Y-98017500I0J-147500D01*
G01*
X118325000Y-98312500D01*
G75*
G02*
X118177500Y-98460000I-147500J0D01*
G01*
X117832500Y-98460000D01*
G75*
G02*
X117685000Y-98312500I0J147500D01*
G01*
X117685000Y-98017500D01*
G75*
G02*
X117832500Y-97870000I147500J0D01*
G01*
G37*
%TD*%
%TO.C,R24*%
G36*
G01*
X122922500Y-98840000D02*
X123267500Y-98840000D01*
G75*
G02*
X123415000Y-98987500I0J-147500D01*
G01*
X123415000Y-99282500D01*
G75*
G02*
X123267500Y-99430000I-147500J0D01*
G01*
X122922500Y-99430000D01*
G75*
G02*
X122775000Y-99282500I0J147500D01*
G01*
X122775000Y-98987500D01*
G75*
G02*
X122922500Y-98840000I147500J0D01*
G01*
G37*
G36*
G01*
X122922500Y-97870000D02*
X123267500Y-97870000D01*
G75*
G02*
X123415000Y-98017500I0J-147500D01*
G01*
X123415000Y-98312500D01*
G75*
G02*
X123267500Y-98460000I-147500J0D01*
G01*
X122922500Y-98460000D01*
G75*
G02*
X122775000Y-98312500I0J147500D01*
G01*
X122775000Y-98017500D01*
G75*
G02*
X122922500Y-97870000I147500J0D01*
G01*
G37*
%TD*%
%TO.C,R23*%
G36*
G01*
X125477500Y-98840000D02*
X125822500Y-98840000D01*
G75*
G02*
X125970000Y-98987500I0J-147500D01*
G01*
X125970000Y-99282500D01*
G75*
G02*
X125822500Y-99430000I-147500J0D01*
G01*
X125477500Y-99430000D01*
G75*
G02*
X125330000Y-99282500I0J147500D01*
G01*
X125330000Y-98987500D01*
G75*
G02*
X125477500Y-98840000I147500J0D01*
G01*
G37*
G36*
G01*
X125477500Y-97870000D02*
X125822500Y-97870000D01*
G75*
G02*
X125970000Y-98017500I0J-147500D01*
G01*
X125970000Y-98312500D01*
G75*
G02*
X125822500Y-98460000I-147500J0D01*
G01*
X125477500Y-98460000D01*
G75*
G02*
X125330000Y-98312500I0J147500D01*
G01*
X125330000Y-98017500D01*
G75*
G02*
X125477500Y-97870000I147500J0D01*
G01*
G37*
%TD*%
%TO.C,R22*%
G36*
G01*
X128002500Y-98840000D02*
X128347500Y-98840000D01*
G75*
G02*
X128495000Y-98987500I0J-147500D01*
G01*
X128495000Y-99282500D01*
G75*
G02*
X128347500Y-99430000I-147500J0D01*
G01*
X128002500Y-99430000D01*
G75*
G02*
X127855000Y-99282500I0J147500D01*
G01*
X127855000Y-98987500D01*
G75*
G02*
X128002500Y-98840000I147500J0D01*
G01*
G37*
G36*
G01*
X128002500Y-97870000D02*
X128347500Y-97870000D01*
G75*
G02*
X128495000Y-98017500I0J-147500D01*
G01*
X128495000Y-98312500D01*
G75*
G02*
X128347500Y-98460000I-147500J0D01*
G01*
X128002500Y-98460000D01*
G75*
G02*
X127855000Y-98312500I0J147500D01*
G01*
X127855000Y-98017500D01*
G75*
G02*
X128002500Y-97870000I147500J0D01*
G01*
G37*
%TD*%
%TO.C,R21*%
G36*
G01*
X130552500Y-98850000D02*
X130897500Y-98850000D01*
G75*
G02*
X131045000Y-98997500I0J-147500D01*
G01*
X131045000Y-99292500D01*
G75*
G02*
X130897500Y-99440000I-147500J0D01*
G01*
X130552500Y-99440000D01*
G75*
G02*
X130405000Y-99292500I0J147500D01*
G01*
X130405000Y-98997500D01*
G75*
G02*
X130552500Y-98850000I147500J0D01*
G01*
G37*
G36*
G01*
X130552500Y-97880000D02*
X130897500Y-97880000D01*
G75*
G02*
X131045000Y-98027500I0J-147500D01*
G01*
X131045000Y-98322500D01*
G75*
G02*
X130897500Y-98470000I-147500J0D01*
G01*
X130552500Y-98470000D01*
G75*
G02*
X130405000Y-98322500I0J147500D01*
G01*
X130405000Y-98027500D01*
G75*
G02*
X130552500Y-97880000I147500J0D01*
G01*
G37*
%TD*%
%TO.C,R20*%
G36*
G01*
X132197500Y-98460000D02*
X131852500Y-98460000D01*
G75*
G02*
X131705000Y-98312500I0J147500D01*
G01*
X131705000Y-98017500D01*
G75*
G02*
X131852500Y-97870000I147500J0D01*
G01*
X132197500Y-97870000D01*
G75*
G02*
X132345000Y-98017500I0J-147500D01*
G01*
X132345000Y-98312500D01*
G75*
G02*
X132197500Y-98460000I-147500J0D01*
G01*
G37*
G36*
G01*
X132197500Y-99430000D02*
X131852500Y-99430000D01*
G75*
G02*
X131705000Y-99282500I0J147500D01*
G01*
X131705000Y-98987500D01*
G75*
G02*
X131852500Y-98840000I147500J0D01*
G01*
X132197500Y-98840000D01*
G75*
G02*
X132345000Y-98987500I0J-147500D01*
G01*
X132345000Y-99282500D01*
G75*
G02*
X132197500Y-99430000I-147500J0D01*
G01*
G37*
%TD*%
%TO.C,R19*%
G36*
G01*
X126752500Y-98840000D02*
X127097500Y-98840000D01*
G75*
G02*
X127245000Y-98987500I0J-147500D01*
G01*
X127245000Y-99282500D01*
G75*
G02*
X127097500Y-99430000I-147500J0D01*
G01*
X126752500Y-99430000D01*
G75*
G02*
X126605000Y-99282500I0J147500D01*
G01*
X126605000Y-98987500D01*
G75*
G02*
X126752500Y-98840000I147500J0D01*
G01*
G37*
G36*
G01*
X126752500Y-97870000D02*
X127097500Y-97870000D01*
G75*
G02*
X127245000Y-98017500I0J-147500D01*
G01*
X127245000Y-98312500D01*
G75*
G02*
X127097500Y-98460000I-147500J0D01*
G01*
X126752500Y-98460000D01*
G75*
G02*
X126605000Y-98312500I0J147500D01*
G01*
X126605000Y-98017500D01*
G75*
G02*
X126752500Y-97870000I147500J0D01*
G01*
G37*
%TD*%
%TO.C,R18*%
G36*
G01*
X93065000Y-96422500D02*
X93065000Y-96077500D01*
G75*
G02*
X93212500Y-95930000I147500J0D01*
G01*
X93507500Y-95930000D01*
G75*
G02*
X93655000Y-96077500I0J-147500D01*
G01*
X93655000Y-96422500D01*
G75*
G02*
X93507500Y-96570000I-147500J0D01*
G01*
X93212500Y-96570000D01*
G75*
G02*
X93065000Y-96422500I0J147500D01*
G01*
G37*
G36*
G01*
X92095000Y-96422500D02*
X92095000Y-96077500D01*
G75*
G02*
X92242500Y-95930000I147500J0D01*
G01*
X92537500Y-95930000D01*
G75*
G02*
X92685000Y-96077500I0J-147500D01*
G01*
X92685000Y-96422500D01*
G75*
G02*
X92537500Y-96570000I-147500J0D01*
G01*
X92242500Y-96570000D01*
G75*
G02*
X92095000Y-96422500I0J147500D01*
G01*
G37*
%TD*%
%TO.C,R17*%
G36*
G01*
X93065000Y-83922500D02*
X93065000Y-83577500D01*
G75*
G02*
X93212500Y-83430000I147500J0D01*
G01*
X93507500Y-83430000D01*
G75*
G02*
X93655000Y-83577500I0J-147500D01*
G01*
X93655000Y-83922500D01*
G75*
G02*
X93507500Y-84070000I-147500J0D01*
G01*
X93212500Y-84070000D01*
G75*
G02*
X93065000Y-83922500I0J147500D01*
G01*
G37*
G36*
G01*
X92095000Y-83922500D02*
X92095000Y-83577500D01*
G75*
G02*
X92242500Y-83430000I147500J0D01*
G01*
X92537500Y-83430000D01*
G75*
G02*
X92685000Y-83577500I0J-147500D01*
G01*
X92685000Y-83922500D01*
G75*
G02*
X92537500Y-84070000I-147500J0D01*
G01*
X92242500Y-84070000D01*
G75*
G02*
X92095000Y-83922500I0J147500D01*
G01*
G37*
%TD*%
%TO.C,R16*%
G36*
G01*
X196665000Y-96422500D02*
X196665000Y-96077500D01*
G75*
G02*
X196812500Y-95930000I147500J0D01*
G01*
X197107500Y-95930000D01*
G75*
G02*
X197255000Y-96077500I0J-147500D01*
G01*
X197255000Y-96422500D01*
G75*
G02*
X197107500Y-96570000I-147500J0D01*
G01*
X196812500Y-96570000D01*
G75*
G02*
X196665000Y-96422500I0J147500D01*
G01*
G37*
G36*
G01*
X195695000Y-96422500D02*
X195695000Y-96077500D01*
G75*
G02*
X195842500Y-95930000I147500J0D01*
G01*
X196137500Y-95930000D01*
G75*
G02*
X196285000Y-96077500I0J-147500D01*
G01*
X196285000Y-96422500D01*
G75*
G02*
X196137500Y-96570000I-147500J0D01*
G01*
X195842500Y-96570000D01*
G75*
G02*
X195695000Y-96422500I0J147500D01*
G01*
G37*
%TD*%
%TO.C,R15*%
G36*
G01*
X196665000Y-83922500D02*
X196665000Y-83577500D01*
G75*
G02*
X196812500Y-83430000I147500J0D01*
G01*
X197107500Y-83430000D01*
G75*
G02*
X197255000Y-83577500I0J-147500D01*
G01*
X197255000Y-83922500D01*
G75*
G02*
X197107500Y-84070000I-147500J0D01*
G01*
X196812500Y-84070000D01*
G75*
G02*
X196665000Y-83922500I0J147500D01*
G01*
G37*
G36*
G01*
X195695000Y-83922500D02*
X195695000Y-83577500D01*
G75*
G02*
X195842500Y-83430000I147500J0D01*
G01*
X196137500Y-83430000D01*
G75*
G02*
X196285000Y-83577500I0J-147500D01*
G01*
X196285000Y-83922500D01*
G75*
G02*
X196137500Y-84070000I-147500J0D01*
G01*
X195842500Y-84070000D01*
G75*
G02*
X195695000Y-83922500I0J147500D01*
G01*
G37*
%TD*%
%TO.C,R14*%
G36*
G01*
X92685000Y-94477500D02*
X92685000Y-94822500D01*
G75*
G02*
X92537500Y-94970000I-147500J0D01*
G01*
X92242500Y-94970000D01*
G75*
G02*
X92095000Y-94822500I0J147500D01*
G01*
X92095000Y-94477500D01*
G75*
G02*
X92242500Y-94330000I147500J0D01*
G01*
X92537500Y-94330000D01*
G75*
G02*
X92685000Y-94477500I0J-147500D01*
G01*
G37*
G36*
G01*
X93655000Y-94477500D02*
X93655000Y-94822500D01*
G75*
G02*
X93507500Y-94970000I-147500J0D01*
G01*
X93212500Y-94970000D01*
G75*
G02*
X93065000Y-94822500I0J147500D01*
G01*
X93065000Y-94477500D01*
G75*
G02*
X93212500Y-94330000I147500J0D01*
G01*
X93507500Y-94330000D01*
G75*
G02*
X93655000Y-94477500I0J-147500D01*
G01*
G37*
%TD*%
%TO.C,R13*%
G36*
G01*
X92685000Y-81977500D02*
X92685000Y-82322500D01*
G75*
G02*
X92537500Y-82470000I-147500J0D01*
G01*
X92242500Y-82470000D01*
G75*
G02*
X92095000Y-82322500I0J147500D01*
G01*
X92095000Y-81977500D01*
G75*
G02*
X92242500Y-81830000I147500J0D01*
G01*
X92537500Y-81830000D01*
G75*
G02*
X92685000Y-81977500I0J-147500D01*
G01*
G37*
G36*
G01*
X93655000Y-81977500D02*
X93655000Y-82322500D01*
G75*
G02*
X93507500Y-82470000I-147500J0D01*
G01*
X93212500Y-82470000D01*
G75*
G02*
X93065000Y-82322500I0J147500D01*
G01*
X93065000Y-81977500D01*
G75*
G02*
X93212500Y-81830000I147500J0D01*
G01*
X93507500Y-81830000D01*
G75*
G02*
X93655000Y-81977500I0J-147500D01*
G01*
G37*
%TD*%
%TO.C,R12*%
G36*
G01*
X196285000Y-94477500D02*
X196285000Y-94822500D01*
G75*
G02*
X196137500Y-94970000I-147500J0D01*
G01*
X195842500Y-94970000D01*
G75*
G02*
X195695000Y-94822500I0J147500D01*
G01*
X195695000Y-94477500D01*
G75*
G02*
X195842500Y-94330000I147500J0D01*
G01*
X196137500Y-94330000D01*
G75*
G02*
X196285000Y-94477500I0J-147500D01*
G01*
G37*
G36*
G01*
X197255000Y-94477500D02*
X197255000Y-94822500D01*
G75*
G02*
X197107500Y-94970000I-147500J0D01*
G01*
X196812500Y-94970000D01*
G75*
G02*
X196665000Y-94822500I0J147500D01*
G01*
X196665000Y-94477500D01*
G75*
G02*
X196812500Y-94330000I147500J0D01*
G01*
X197107500Y-94330000D01*
G75*
G02*
X197255000Y-94477500I0J-147500D01*
G01*
G37*
%TD*%
%TO.C,R11*%
G36*
G01*
X196285000Y-81977500D02*
X196285000Y-82322500D01*
G75*
G02*
X196137500Y-82470000I-147500J0D01*
G01*
X195842500Y-82470000D01*
G75*
G02*
X195695000Y-82322500I0J147500D01*
G01*
X195695000Y-81977500D01*
G75*
G02*
X195842500Y-81830000I147500J0D01*
G01*
X196137500Y-81830000D01*
G75*
G02*
X196285000Y-81977500I0J-147500D01*
G01*
G37*
G36*
G01*
X197255000Y-81977500D02*
X197255000Y-82322500D01*
G75*
G02*
X197107500Y-82470000I-147500J0D01*
G01*
X196812500Y-82470000D01*
G75*
G02*
X196665000Y-82322500I0J147500D01*
G01*
X196665000Y-81977500D01*
G75*
G02*
X196812500Y-81830000I147500J0D01*
G01*
X197107500Y-81830000D01*
G75*
G02*
X197255000Y-81977500I0J-147500D01*
G01*
G37*
%TD*%
%TO.C,R10*%
G36*
G01*
X144865000Y-90122500D02*
X144865000Y-89777500D01*
G75*
G02*
X145012500Y-89630000I147500J0D01*
G01*
X145307500Y-89630000D01*
G75*
G02*
X145455000Y-89777500I0J-147500D01*
G01*
X145455000Y-90122500D01*
G75*
G02*
X145307500Y-90270000I-147500J0D01*
G01*
X145012500Y-90270000D01*
G75*
G02*
X144865000Y-90122500I0J147500D01*
G01*
G37*
G36*
G01*
X143895000Y-90122500D02*
X143895000Y-89777500D01*
G75*
G02*
X144042500Y-89630000I147500J0D01*
G01*
X144337500Y-89630000D01*
G75*
G02*
X144485000Y-89777500I0J-147500D01*
G01*
X144485000Y-90122500D01*
G75*
G02*
X144337500Y-90270000I-147500J0D01*
G01*
X144042500Y-90270000D01*
G75*
G02*
X143895000Y-90122500I0J147500D01*
G01*
G37*
%TD*%
%TO.C,R9*%
G36*
G01*
X157265000Y-90222500D02*
X157265000Y-89877500D01*
G75*
G02*
X157412500Y-89730000I147500J0D01*
G01*
X157707500Y-89730000D01*
G75*
G02*
X157855000Y-89877500I0J-147500D01*
G01*
X157855000Y-90222500D01*
G75*
G02*
X157707500Y-90370000I-147500J0D01*
G01*
X157412500Y-90370000D01*
G75*
G02*
X157265000Y-90222500I0J147500D01*
G01*
G37*
G36*
G01*
X156295000Y-90222500D02*
X156295000Y-89877500D01*
G75*
G02*
X156442500Y-89730000I147500J0D01*
G01*
X156737500Y-89730000D01*
G75*
G02*
X156885000Y-89877500I0J-147500D01*
G01*
X156885000Y-90222500D01*
G75*
G02*
X156737500Y-90370000I-147500J0D01*
G01*
X156442500Y-90370000D01*
G75*
G02*
X156295000Y-90222500I0J147500D01*
G01*
G37*
%TD*%
%TO.C,R8*%
G36*
G01*
X132265000Y-90222500D02*
X132265000Y-89877500D01*
G75*
G02*
X132412500Y-89730000I147500J0D01*
G01*
X132707500Y-89730000D01*
G75*
G02*
X132855000Y-89877500I0J-147500D01*
G01*
X132855000Y-90222500D01*
G75*
G02*
X132707500Y-90370000I-147500J0D01*
G01*
X132412500Y-90370000D01*
G75*
G02*
X132265000Y-90222500I0J147500D01*
G01*
G37*
G36*
G01*
X131295000Y-90222500D02*
X131295000Y-89877500D01*
G75*
G02*
X131442500Y-89730000I147500J0D01*
G01*
X131737500Y-89730000D01*
G75*
G02*
X131885000Y-89877500I0J-147500D01*
G01*
X131885000Y-90222500D01*
G75*
G02*
X131737500Y-90370000I-147500J0D01*
G01*
X131442500Y-90370000D01*
G75*
G02*
X131295000Y-90222500I0J147500D01*
G01*
G37*
%TD*%
%TO.C,R7*%
G36*
G01*
X144865000Y-99222500D02*
X144865000Y-98877500D01*
G75*
G02*
X145012500Y-98730000I147500J0D01*
G01*
X145307500Y-98730000D01*
G75*
G02*
X145455000Y-98877500I0J-147500D01*
G01*
X145455000Y-99222500D01*
G75*
G02*
X145307500Y-99370000I-147500J0D01*
G01*
X145012500Y-99370000D01*
G75*
G02*
X144865000Y-99222500I0J147500D01*
G01*
G37*
G36*
G01*
X143895000Y-99222500D02*
X143895000Y-98877500D01*
G75*
G02*
X144042500Y-98730000I147500J0D01*
G01*
X144337500Y-98730000D01*
G75*
G02*
X144485000Y-98877500I0J-147500D01*
G01*
X144485000Y-99222500D01*
G75*
G02*
X144337500Y-99370000I-147500J0D01*
G01*
X144042500Y-99370000D01*
G75*
G02*
X143895000Y-99222500I0J147500D01*
G01*
G37*
%TD*%
%TO.C,R6*%
G36*
G01*
X144765000Y-81222500D02*
X144765000Y-80877500D01*
G75*
G02*
X144912500Y-80730000I147500J0D01*
G01*
X145207500Y-80730000D01*
G75*
G02*
X145355000Y-80877500I0J-147500D01*
G01*
X145355000Y-81222500D01*
G75*
G02*
X145207500Y-81370000I-147500J0D01*
G01*
X144912500Y-81370000D01*
G75*
G02*
X144765000Y-81222500I0J147500D01*
G01*
G37*
G36*
G01*
X143795000Y-81222500D02*
X143795000Y-80877500D01*
G75*
G02*
X143942500Y-80730000I147500J0D01*
G01*
X144237500Y-80730000D01*
G75*
G02*
X144385000Y-80877500I0J-147500D01*
G01*
X144385000Y-81222500D01*
G75*
G02*
X144237500Y-81370000I-147500J0D01*
G01*
X143942500Y-81370000D01*
G75*
G02*
X143795000Y-81222500I0J147500D01*
G01*
G37*
%TD*%
%TO.C,R5*%
G36*
G01*
X144485000Y-88277500D02*
X144485000Y-88622500D01*
G75*
G02*
X144337500Y-88770000I-147500J0D01*
G01*
X144042500Y-88770000D01*
G75*
G02*
X143895000Y-88622500I0J147500D01*
G01*
X143895000Y-88277500D01*
G75*
G02*
X144042500Y-88130000I147500J0D01*
G01*
X144337500Y-88130000D01*
G75*
G02*
X144485000Y-88277500I0J-147500D01*
G01*
G37*
G36*
G01*
X145455000Y-88277500D02*
X145455000Y-88622500D01*
G75*
G02*
X145307500Y-88770000I-147500J0D01*
G01*
X145012500Y-88770000D01*
G75*
G02*
X144865000Y-88622500I0J147500D01*
G01*
X144865000Y-88277500D01*
G75*
G02*
X145012500Y-88130000I147500J0D01*
G01*
X145307500Y-88130000D01*
G75*
G02*
X145455000Y-88277500I0J-147500D01*
G01*
G37*
%TD*%
%TO.C,R4*%
G36*
G01*
X156885000Y-88277500D02*
X156885000Y-88622500D01*
G75*
G02*
X156737500Y-88770000I-147500J0D01*
G01*
X156442500Y-88770000D01*
G75*
G02*
X156295000Y-88622500I0J147500D01*
G01*
X156295000Y-88277500D01*
G75*
G02*
X156442500Y-88130000I147500J0D01*
G01*
X156737500Y-88130000D01*
G75*
G02*
X156885000Y-88277500I0J-147500D01*
G01*
G37*
G36*
G01*
X157855000Y-88277500D02*
X157855000Y-88622500D01*
G75*
G02*
X157707500Y-88770000I-147500J0D01*
G01*
X157412500Y-88770000D01*
G75*
G02*
X157265000Y-88622500I0J147500D01*
G01*
X157265000Y-88277500D01*
G75*
G02*
X157412500Y-88130000I147500J0D01*
G01*
X157707500Y-88130000D01*
G75*
G02*
X157855000Y-88277500I0J-147500D01*
G01*
G37*
%TD*%
%TO.C,R3*%
G36*
G01*
X131885000Y-88277500D02*
X131885000Y-88622500D01*
G75*
G02*
X131737500Y-88770000I-147500J0D01*
G01*
X131442500Y-88770000D01*
G75*
G02*
X131295000Y-88622500I0J147500D01*
G01*
X131295000Y-88277500D01*
G75*
G02*
X131442500Y-88130000I147500J0D01*
G01*
X131737500Y-88130000D01*
G75*
G02*
X131885000Y-88277500I0J-147500D01*
G01*
G37*
G36*
G01*
X132855000Y-88277500D02*
X132855000Y-88622500D01*
G75*
G02*
X132707500Y-88770000I-147500J0D01*
G01*
X132412500Y-88770000D01*
G75*
G02*
X132265000Y-88622500I0J147500D01*
G01*
X132265000Y-88277500D01*
G75*
G02*
X132412500Y-88130000I147500J0D01*
G01*
X132707500Y-88130000D01*
G75*
G02*
X132855000Y-88277500I0J-147500D01*
G01*
G37*
%TD*%
%TO.C,R2*%
G36*
G01*
X144485000Y-97477500D02*
X144485000Y-97822500D01*
G75*
G02*
X144337500Y-97970000I-147500J0D01*
G01*
X144042500Y-97970000D01*
G75*
G02*
X143895000Y-97822500I0J147500D01*
G01*
X143895000Y-97477500D01*
G75*
G02*
X144042500Y-97330000I147500J0D01*
G01*
X144337500Y-97330000D01*
G75*
G02*
X144485000Y-97477500I0J-147500D01*
G01*
G37*
G36*
G01*
X145455000Y-97477500D02*
X145455000Y-97822500D01*
G75*
G02*
X145307500Y-97970000I-147500J0D01*
G01*
X145012500Y-97970000D01*
G75*
G02*
X144865000Y-97822500I0J147500D01*
G01*
X144865000Y-97477500D01*
G75*
G02*
X145012500Y-97330000I147500J0D01*
G01*
X145307500Y-97330000D01*
G75*
G02*
X145455000Y-97477500I0J-147500D01*
G01*
G37*
%TD*%
%TO.C,R1*%
G36*
G01*
X144385000Y-79277500D02*
X144385000Y-79622500D01*
G75*
G02*
X144237500Y-79770000I-147500J0D01*
G01*
X143942500Y-79770000D01*
G75*
G02*
X143795000Y-79622500I0J147500D01*
G01*
X143795000Y-79277500D01*
G75*
G02*
X143942500Y-79130000I147500J0D01*
G01*
X144237500Y-79130000D01*
G75*
G02*
X144385000Y-79277500I0J-147500D01*
G01*
G37*
G36*
G01*
X145355000Y-79277500D02*
X145355000Y-79622500D01*
G75*
G02*
X145207500Y-79770000I-147500J0D01*
G01*
X144912500Y-79770000D01*
G75*
G02*
X144765000Y-79622500I0J147500D01*
G01*
X144765000Y-79277500D01*
G75*
G02*
X144912500Y-79130000I147500J0D01*
G01*
X145207500Y-79130000D01*
G75*
G02*
X145355000Y-79277500I0J-147500D01*
G01*
G37*
%TD*%
%TO.C,C9*%
G36*
G01*
X92685000Y-97677500D02*
X92685000Y-98022500D01*
G75*
G02*
X92537500Y-98170000I-147500J0D01*
G01*
X92242500Y-98170000D01*
G75*
G02*
X92095000Y-98022500I0J147500D01*
G01*
X92095000Y-97677500D01*
G75*
G02*
X92242500Y-97530000I147500J0D01*
G01*
X92537500Y-97530000D01*
G75*
G02*
X92685000Y-97677500I0J-147500D01*
G01*
G37*
G36*
G01*
X93655000Y-97677500D02*
X93655000Y-98022500D01*
G75*
G02*
X93507500Y-98170000I-147500J0D01*
G01*
X93212500Y-98170000D01*
G75*
G02*
X93065000Y-98022500I0J147500D01*
G01*
X93065000Y-97677500D01*
G75*
G02*
X93212500Y-97530000I147500J0D01*
G01*
X93507500Y-97530000D01*
G75*
G02*
X93655000Y-97677500I0J-147500D01*
G01*
G37*
%TD*%
%TO.C,C8*%
G36*
G01*
X92685000Y-85177500D02*
X92685000Y-85522500D01*
G75*
G02*
X92537500Y-85670000I-147500J0D01*
G01*
X92242500Y-85670000D01*
G75*
G02*
X92095000Y-85522500I0J147500D01*
G01*
X92095000Y-85177500D01*
G75*
G02*
X92242500Y-85030000I147500J0D01*
G01*
X92537500Y-85030000D01*
G75*
G02*
X92685000Y-85177500I0J-147500D01*
G01*
G37*
G36*
G01*
X93655000Y-85177500D02*
X93655000Y-85522500D01*
G75*
G02*
X93507500Y-85670000I-147500J0D01*
G01*
X93212500Y-85670000D01*
G75*
G02*
X93065000Y-85522500I0J147500D01*
G01*
X93065000Y-85177500D01*
G75*
G02*
X93212500Y-85030000I147500J0D01*
G01*
X93507500Y-85030000D01*
G75*
G02*
X93655000Y-85177500I0J-147500D01*
G01*
G37*
%TD*%
%TO.C,C7*%
G36*
G01*
X196285000Y-97677500D02*
X196285000Y-98022500D01*
G75*
G02*
X196137500Y-98170000I-147500J0D01*
G01*
X195842500Y-98170000D01*
G75*
G02*
X195695000Y-98022500I0J147500D01*
G01*
X195695000Y-97677500D01*
G75*
G02*
X195842500Y-97530000I147500J0D01*
G01*
X196137500Y-97530000D01*
G75*
G02*
X196285000Y-97677500I0J-147500D01*
G01*
G37*
G36*
G01*
X197255000Y-97677500D02*
X197255000Y-98022500D01*
G75*
G02*
X197107500Y-98170000I-147500J0D01*
G01*
X196812500Y-98170000D01*
G75*
G02*
X196665000Y-98022500I0J147500D01*
G01*
X196665000Y-97677500D01*
G75*
G02*
X196812500Y-97530000I147500J0D01*
G01*
X197107500Y-97530000D01*
G75*
G02*
X197255000Y-97677500I0J-147500D01*
G01*
G37*
%TD*%
%TO.C,C6*%
G36*
G01*
X196285000Y-85177500D02*
X196285000Y-85522500D01*
G75*
G02*
X196137500Y-85670000I-147500J0D01*
G01*
X195842500Y-85670000D01*
G75*
G02*
X195695000Y-85522500I0J147500D01*
G01*
X195695000Y-85177500D01*
G75*
G02*
X195842500Y-85030000I147500J0D01*
G01*
X196137500Y-85030000D01*
G75*
G02*
X196285000Y-85177500I0J-147500D01*
G01*
G37*
G36*
G01*
X197255000Y-85177500D02*
X197255000Y-85522500D01*
G75*
G02*
X197107500Y-85670000I-147500J0D01*
G01*
X196812500Y-85670000D01*
G75*
G02*
X196665000Y-85522500I0J147500D01*
G01*
X196665000Y-85177500D01*
G75*
G02*
X196812500Y-85030000I147500J0D01*
G01*
X197107500Y-85030000D01*
G75*
G02*
X197255000Y-85177500I0J-147500D01*
G01*
G37*
%TD*%
%TO.C,C5*%
G36*
G01*
X144485000Y-91477500D02*
X144485000Y-91822500D01*
G75*
G02*
X144337500Y-91970000I-147500J0D01*
G01*
X144042500Y-91970000D01*
G75*
G02*
X143895000Y-91822500I0J147500D01*
G01*
X143895000Y-91477500D01*
G75*
G02*
X144042500Y-91330000I147500J0D01*
G01*
X144337500Y-91330000D01*
G75*
G02*
X144485000Y-91477500I0J-147500D01*
G01*
G37*
G36*
G01*
X145455000Y-91477500D02*
X145455000Y-91822500D01*
G75*
G02*
X145307500Y-91970000I-147500J0D01*
G01*
X145012500Y-91970000D01*
G75*
G02*
X144865000Y-91822500I0J147500D01*
G01*
X144865000Y-91477500D01*
G75*
G02*
X145012500Y-91330000I147500J0D01*
G01*
X145307500Y-91330000D01*
G75*
G02*
X145455000Y-91477500I0J-147500D01*
G01*
G37*
%TD*%
%TO.C,C4*%
G36*
G01*
X156885000Y-91477500D02*
X156885000Y-91822500D01*
G75*
G02*
X156737500Y-91970000I-147500J0D01*
G01*
X156442500Y-91970000D01*
G75*
G02*
X156295000Y-91822500I0J147500D01*
G01*
X156295000Y-91477500D01*
G75*
G02*
X156442500Y-91330000I147500J0D01*
G01*
X156737500Y-91330000D01*
G75*
G02*
X156885000Y-91477500I0J-147500D01*
G01*
G37*
G36*
G01*
X157855000Y-91477500D02*
X157855000Y-91822500D01*
G75*
G02*
X157707500Y-91970000I-147500J0D01*
G01*
X157412500Y-91970000D01*
G75*
G02*
X157265000Y-91822500I0J147500D01*
G01*
X157265000Y-91477500D01*
G75*
G02*
X157412500Y-91330000I147500J0D01*
G01*
X157707500Y-91330000D01*
G75*
G02*
X157855000Y-91477500I0J-147500D01*
G01*
G37*
%TD*%
%TO.C,C3*%
G36*
G01*
X131885000Y-91477500D02*
X131885000Y-91822500D01*
G75*
G02*
X131737500Y-91970000I-147500J0D01*
G01*
X131442500Y-91970000D01*
G75*
G02*
X131295000Y-91822500I0J147500D01*
G01*
X131295000Y-91477500D01*
G75*
G02*
X131442500Y-91330000I147500J0D01*
G01*
X131737500Y-91330000D01*
G75*
G02*
X131885000Y-91477500I0J-147500D01*
G01*
G37*
G36*
G01*
X132855000Y-91477500D02*
X132855000Y-91822500D01*
G75*
G02*
X132707500Y-91970000I-147500J0D01*
G01*
X132412500Y-91970000D01*
G75*
G02*
X132265000Y-91822500I0J147500D01*
G01*
X132265000Y-91477500D01*
G75*
G02*
X132412500Y-91330000I147500J0D01*
G01*
X132707500Y-91330000D01*
G75*
G02*
X132855000Y-91477500I0J-147500D01*
G01*
G37*
%TD*%
%TO.C,C2*%
G36*
G01*
X144485000Y-100477500D02*
X144485000Y-100822500D01*
G75*
G02*
X144337500Y-100970000I-147500J0D01*
G01*
X144042500Y-100970000D01*
G75*
G02*
X143895000Y-100822500I0J147500D01*
G01*
X143895000Y-100477500D01*
G75*
G02*
X144042500Y-100330000I147500J0D01*
G01*
X144337500Y-100330000D01*
G75*
G02*
X144485000Y-100477500I0J-147500D01*
G01*
G37*
G36*
G01*
X145455000Y-100477500D02*
X145455000Y-100822500D01*
G75*
G02*
X145307500Y-100970000I-147500J0D01*
G01*
X145012500Y-100970000D01*
G75*
G02*
X144865000Y-100822500I0J147500D01*
G01*
X144865000Y-100477500D01*
G75*
G02*
X145012500Y-100330000I147500J0D01*
G01*
X145307500Y-100330000D01*
G75*
G02*
X145455000Y-100477500I0J-147500D01*
G01*
G37*
%TD*%
%TO.C,C1*%
G36*
G01*
X144385000Y-82477500D02*
X144385000Y-82822500D01*
G75*
G02*
X144237500Y-82970000I-147500J0D01*
G01*
X143942500Y-82970000D01*
G75*
G02*
X143795000Y-82822500I0J147500D01*
G01*
X143795000Y-82477500D01*
G75*
G02*
X143942500Y-82330000I147500J0D01*
G01*
X144237500Y-82330000D01*
G75*
G02*
X144385000Y-82477500I0J-147500D01*
G01*
G37*
G36*
G01*
X145355000Y-82477500D02*
X145355000Y-82822500D01*
G75*
G02*
X145207500Y-82970000I-147500J0D01*
G01*
X144912500Y-82970000D01*
G75*
G02*
X144765000Y-82822500I0J147500D01*
G01*
X144765000Y-82477500D01*
G75*
G02*
X144912500Y-82330000I147500J0D01*
G01*
X145207500Y-82330000D01*
G75*
G02*
X145355000Y-82477500I0J-147500D01*
G01*
G37*
%TD*%
M02*
