%TF.GenerationSoftware,KiCad,Pcbnew,(5.1.6)-1*%
%TF.CreationDate,2020-11-03T20:56:16+09:00*%
%TF.ProjectId,FlightComputer-Keypad,466c6967-6874-4436-9f6d-70757465722d,rev?*%
%TF.SameCoordinates,Original*%
%TF.FileFunction,Copper,L2,Bot*%
%TF.FilePolarity,Positive*%
%FSLAX46Y46*%
G04 Gerber Fmt 4.6, Leading zero omitted, Abs format (unit mm)*
G04 Created by KiCad (PCBNEW (5.1.6)-1) date 2020-11-03 20:56:16*
%MOMM*%
%LPD*%
G01*
G04 APERTURE LIST*
%TA.AperFunction,ComponentPad*%
%ADD10O,1.700000X1.700000*%
%TD*%
%TA.AperFunction,ComponentPad*%
%ADD11R,1.700000X1.700000*%
%TD*%
%TA.AperFunction,ViaPad*%
%ADD12C,0.600000*%
%TD*%
%TA.AperFunction,ViaPad*%
%ADD13C,0.800000*%
%TD*%
%TA.AperFunction,Conductor*%
%ADD14C,0.400000*%
%TD*%
%TA.AperFunction,Conductor*%
%ADD15C,0.254000*%
%TD*%
G04 APERTURE END LIST*
D10*
%TO.P,J2,20*%
%TO.N,GND*%
X110395000Y-104430000D03*
%TO.P,J2,19*%
%TO.N,Net-(J2-Pad19)*%
X110395000Y-101890000D03*
%TO.P,J2,18*%
%TO.N,GND*%
X112935000Y-104430000D03*
%TO.P,J2,17*%
%TO.N,Net-(J2-Pad17)*%
X112935000Y-101890000D03*
%TO.P,J2,16*%
%TO.N,GND*%
X115475000Y-104430000D03*
%TO.P,J2,15*%
%TO.N,Net-(J2-Pad15)*%
X115475000Y-101890000D03*
%TO.P,J2,14*%
%TO.N,GND*%
X118015000Y-104430000D03*
%TO.P,J2,13*%
%TO.N,Net-(J2-Pad13)*%
X118015000Y-101890000D03*
%TO.P,J2,12*%
%TO.N,GND*%
X120555000Y-104430000D03*
%TO.P,J2,11*%
%TO.N,Net-(J2-Pad11)*%
X120555000Y-101890000D03*
%TO.P,J2,10*%
%TO.N,GND*%
X123095000Y-104430000D03*
%TO.P,J2,9*%
%TO.N,Net-(J2-Pad9)*%
X123095000Y-101890000D03*
%TO.P,J2,8*%
%TO.N,GND*%
X125635000Y-104430000D03*
%TO.P,J2,7*%
%TO.N,Net-(J2-Pad7)*%
X125635000Y-101890000D03*
%TO.P,J2,6*%
%TO.N,GND*%
X128175000Y-104430000D03*
%TO.P,J2,5*%
%TO.N,Net-(J2-Pad5)*%
X128175000Y-101890000D03*
%TO.P,J2,4*%
%TO.N,GND*%
X130715000Y-104430000D03*
%TO.P,J2,3*%
%TO.N,Net-(J2-Pad3)*%
X130715000Y-101890000D03*
%TO.P,J2,2*%
%TO.N,VCC_MCU*%
X133255000Y-104430000D03*
D11*
%TO.P,J2,1*%
X133255000Y-101890000D03*
%TD*%
D10*
%TO.P,J1,40*%
%TO.N,GND*%
X125995000Y-70330000D03*
%TO.P,J1,39*%
X125995000Y-67790000D03*
%TO.P,J1,38*%
%TO.N,Net-(J1-Pad38)*%
X128535000Y-70330000D03*
%TO.P,J1,37*%
%TO.N,Net-(J1-Pad37)*%
X128535000Y-67790000D03*
%TO.P,J1,36*%
%TO.N,/nRESET*%
X131075000Y-70330000D03*
%TO.P,J1,35*%
X131075000Y-67790000D03*
%TO.P,J1,34*%
%TO.N,/TDO*%
X133615000Y-70330000D03*
%TO.P,J1,33*%
X133615000Y-67790000D03*
%TO.P,J1,32*%
%TO.N,/TCLK*%
X136155000Y-70330000D03*
%TO.P,J1,31*%
X136155000Y-67790000D03*
%TO.P,J1,30*%
%TO.N,/TMS*%
X138695000Y-70330000D03*
%TO.P,J1,29*%
X138695000Y-67790000D03*
%TO.P,J1,28*%
%TO.N,/TDI*%
X141235000Y-70330000D03*
%TO.P,J1,27*%
X141235000Y-67790000D03*
%TO.P,J1,26*%
%TO.N,/TRST*%
X143775000Y-70330000D03*
%TO.P,J1,25*%
X143775000Y-67790000D03*
%TO.P,J1,24*%
%TO.N,Net-(J1-Pad24)*%
X146315000Y-70330000D03*
%TO.P,J1,23*%
%TO.N,Net-(J1-Pad23)*%
X146315000Y-67790000D03*
%TO.P,J1,22*%
%TO.N,/KEY_FUNC2*%
X148855000Y-70330000D03*
%TO.P,J1,21*%
X148855000Y-67790000D03*
%TO.P,J1,20*%
%TO.N,/KEY_FUNC1*%
X151395000Y-70330000D03*
%TO.P,J1,19*%
X151395000Y-67790000D03*
%TO.P,J1,18*%
%TO.N,/KEY_ESCAPE*%
X153935000Y-70330000D03*
%TO.P,J1,17*%
X153935000Y-67790000D03*
%TO.P,J1,16*%
%TO.N,/KEY_MENU*%
X156475000Y-70330000D03*
%TO.P,J1,15*%
X156475000Y-67790000D03*
%TO.P,J1,14*%
%TO.N,/KEY_ENTER*%
X159015000Y-70330000D03*
%TO.P,J1,13*%
X159015000Y-67790000D03*
%TO.P,J1,12*%
%TO.N,/KEY_DOWN*%
X161555000Y-70330000D03*
%TO.P,J1,11*%
X161555000Y-67790000D03*
%TO.P,J1,10*%
%TO.N,/KEY_UP*%
X164095000Y-70330000D03*
%TO.P,J1,9*%
X164095000Y-67790000D03*
%TO.P,J1,8*%
%TO.N,/KEY_RIGHT*%
X166635000Y-70330000D03*
%TO.P,J1,7*%
X166635000Y-67790000D03*
%TO.P,J1,6*%
%TO.N,/KEY_LEFT*%
X169175000Y-70330000D03*
%TO.P,J1,5*%
X169175000Y-67790000D03*
%TO.P,J1,4*%
%TO.N,Net-(J1-Pad4)*%
X171715000Y-70330000D03*
%TO.P,J1,3*%
%TO.N,Net-(J1-Pad3)*%
X171715000Y-67790000D03*
%TO.P,J1,2*%
%TO.N,VCC_MCU*%
X174255000Y-70330000D03*
D11*
%TO.P,J1,1*%
X174255000Y-67790000D03*
%TD*%
D12*
%TO.N,GND*%
X195990000Y-84565000D03*
X195975000Y-97050000D03*
X156575000Y-90850000D03*
X144175000Y-90850000D03*
X144175000Y-99850000D03*
X144075000Y-81850000D03*
X131575000Y-90850000D03*
X92375000Y-97050000D03*
X92375000Y-84550000D03*
D13*
%TO.N,/nRESET*%
X129129000Y-78338229D03*
X115500000Y-82573000D03*
%TO.N,/TDO*%
X117995000Y-82630000D03*
X131238229Y-79138229D03*
%TO.N,/TCLK*%
X123100000Y-82673000D03*
X132636771Y-79938229D03*
%TO.N,/TMS*%
X134138229Y-80738229D03*
X125650000Y-82663000D03*
%TO.N,/TDI*%
X135250000Y-95200000D03*
X128175000Y-95700000D03*
%TO.N,/TRST*%
X130725000Y-97100000D03*
X136100000Y-96275000D03*
%TO.N,/KEY_FUNC2*%
X89275000Y-76850000D03*
X148825000Y-75150000D03*
%TO.N,/KEY_FUNC1*%
X94175000Y-74050000D03*
X151375000Y-72850000D03*
%TO.N,/KEY_ESCAPE*%
X191075000Y-75850000D03*
X153875000Y-74150000D03*
%TO.N,/KEY_UP*%
X145375000Y-77750000D03*
X162825000Y-77750000D03*
%TO.N,/KEY_LEFT*%
X134175000Y-85350000D03*
X167375000Y-85350000D03*
%TO.N,/KEY_MENU*%
X156475000Y-72850000D03*
X192525000Y-73550000D03*
%TD*%
D14*
%TO.N,/nRESET*%
X129129000Y-78338229D02*
X116258771Y-78338229D01*
X115500000Y-79097000D02*
X115500000Y-82573000D01*
X116258771Y-78338229D02*
X115500000Y-79097000D01*
%TO.N,/TDO*%
X131238229Y-79138229D02*
X118760771Y-79138229D01*
X117995000Y-79904000D02*
X118760771Y-79138229D01*
X117995000Y-82630000D02*
X117995000Y-79904000D01*
%TO.N,/TCLK*%
X123100000Y-80641000D02*
X123100000Y-82673000D01*
X123802771Y-79938229D02*
X123100000Y-80641000D01*
X132636771Y-79938229D02*
X123802771Y-79938229D01*
%TO.N,/TMS*%
X134138229Y-80738229D02*
X126304771Y-80738229D01*
X125650000Y-81393000D02*
X125650000Y-82663000D01*
X126304771Y-80738229D02*
X125650000Y-81393000D01*
%TO.N,/TDI*%
X128675000Y-95200000D02*
X128175000Y-95700000D01*
X135250000Y-95200000D02*
X128675000Y-95200000D01*
%TO.N,/TRST*%
X136100000Y-96275000D02*
X131575000Y-96275000D01*
X130775000Y-97075000D02*
X130775000Y-97100000D01*
X131550000Y-96275000D02*
X131575000Y-96275000D01*
X130725000Y-97100000D02*
X131550000Y-96275000D01*
%TO.N,/KEY_FUNC2*%
X90075000Y-76050000D02*
X89275000Y-76850000D01*
X147925000Y-76050000D02*
X147600000Y-76050000D01*
X148825000Y-75150000D02*
X147925000Y-76050000D01*
X147600000Y-76050000D02*
X90075000Y-76050000D01*
X147875000Y-76050000D02*
X147600000Y-76050000D01*
%TO.N,/KEY_FUNC1*%
X150175000Y-74050000D02*
X150050000Y-74050000D01*
X151375000Y-72850000D02*
X150175000Y-74050000D01*
X150050000Y-74050000D02*
X94175000Y-74050000D01*
%TO.N,/KEY_ESCAPE*%
X190375000Y-75150000D02*
X191075000Y-75850000D01*
X154875000Y-75150000D02*
X190375000Y-75150000D01*
X154875000Y-75150000D02*
X153875000Y-74150000D01*
%TO.N,/KEY_UP*%
X145375000Y-77750000D02*
X162825000Y-77750000D01*
%TO.N,/KEY_LEFT*%
X167375000Y-85350000D02*
X134175000Y-85350000D01*
%TO.N,/KEY_MENU*%
X157175000Y-73550000D02*
X156475000Y-72850000D01*
X192525000Y-73550000D02*
X157175000Y-73550000D01*
%TD*%
D15*
%TO.N,GND*%
G36*
X217498001Y-79289195D02*
G01*
X217494967Y-79319999D01*
X217507073Y-79442912D01*
X217542925Y-79561102D01*
X217601147Y-79670027D01*
X217679499Y-79765500D01*
X217774972Y-79843852D01*
X217883897Y-79902074D01*
X218002087Y-79937926D01*
X218094206Y-79946999D01*
X218125000Y-79950032D01*
X218155794Y-79946999D01*
X223498000Y-79946999D01*
X223498001Y-96473000D01*
X214155794Y-96473000D01*
X214125000Y-96469967D01*
X214094206Y-96473000D01*
X214002087Y-96482073D01*
X213883897Y-96517925D01*
X213774972Y-96576147D01*
X213679499Y-96654499D01*
X213601147Y-96749972D01*
X213542925Y-96858897D01*
X213507073Y-96977087D01*
X213494967Y-97100000D01*
X213498000Y-97130793D01*
X213498001Y-106473000D01*
X86752000Y-106473000D01*
X86752000Y-104786891D01*
X108953519Y-104786891D01*
X109050843Y-105061252D01*
X109199822Y-105311355D01*
X109394731Y-105527588D01*
X109628080Y-105701641D01*
X109890901Y-105826825D01*
X110038110Y-105871476D01*
X110268000Y-105750155D01*
X110268000Y-104557000D01*
X110522000Y-104557000D01*
X110522000Y-105750155D01*
X110751890Y-105871476D01*
X110899099Y-105826825D01*
X111161920Y-105701641D01*
X111395269Y-105527588D01*
X111590178Y-105311355D01*
X111665000Y-105185745D01*
X111739822Y-105311355D01*
X111934731Y-105527588D01*
X112168080Y-105701641D01*
X112430901Y-105826825D01*
X112578110Y-105871476D01*
X112808000Y-105750155D01*
X112808000Y-104557000D01*
X113062000Y-104557000D01*
X113062000Y-105750155D01*
X113291890Y-105871476D01*
X113439099Y-105826825D01*
X113701920Y-105701641D01*
X113935269Y-105527588D01*
X114130178Y-105311355D01*
X114205000Y-105185745D01*
X114279822Y-105311355D01*
X114474731Y-105527588D01*
X114708080Y-105701641D01*
X114970901Y-105826825D01*
X115118110Y-105871476D01*
X115348000Y-105750155D01*
X115348000Y-104557000D01*
X115602000Y-104557000D01*
X115602000Y-105750155D01*
X115831890Y-105871476D01*
X115979099Y-105826825D01*
X116241920Y-105701641D01*
X116475269Y-105527588D01*
X116670178Y-105311355D01*
X116745000Y-105185745D01*
X116819822Y-105311355D01*
X117014731Y-105527588D01*
X117248080Y-105701641D01*
X117510901Y-105826825D01*
X117658110Y-105871476D01*
X117888000Y-105750155D01*
X117888000Y-104557000D01*
X118142000Y-104557000D01*
X118142000Y-105750155D01*
X118371890Y-105871476D01*
X118519099Y-105826825D01*
X118781920Y-105701641D01*
X119015269Y-105527588D01*
X119210178Y-105311355D01*
X119285000Y-105185745D01*
X119359822Y-105311355D01*
X119554731Y-105527588D01*
X119788080Y-105701641D01*
X120050901Y-105826825D01*
X120198110Y-105871476D01*
X120428000Y-105750155D01*
X120428000Y-104557000D01*
X120682000Y-104557000D01*
X120682000Y-105750155D01*
X120911890Y-105871476D01*
X121059099Y-105826825D01*
X121321920Y-105701641D01*
X121555269Y-105527588D01*
X121750178Y-105311355D01*
X121825000Y-105185745D01*
X121899822Y-105311355D01*
X122094731Y-105527588D01*
X122328080Y-105701641D01*
X122590901Y-105826825D01*
X122738110Y-105871476D01*
X122968000Y-105750155D01*
X122968000Y-104557000D01*
X123222000Y-104557000D01*
X123222000Y-105750155D01*
X123451890Y-105871476D01*
X123599099Y-105826825D01*
X123861920Y-105701641D01*
X124095269Y-105527588D01*
X124290178Y-105311355D01*
X124365000Y-105185745D01*
X124439822Y-105311355D01*
X124634731Y-105527588D01*
X124868080Y-105701641D01*
X125130901Y-105826825D01*
X125278110Y-105871476D01*
X125508000Y-105750155D01*
X125508000Y-104557000D01*
X125762000Y-104557000D01*
X125762000Y-105750155D01*
X125991890Y-105871476D01*
X126139099Y-105826825D01*
X126401920Y-105701641D01*
X126635269Y-105527588D01*
X126830178Y-105311355D01*
X126905000Y-105185745D01*
X126979822Y-105311355D01*
X127174731Y-105527588D01*
X127408080Y-105701641D01*
X127670901Y-105826825D01*
X127818110Y-105871476D01*
X128048000Y-105750155D01*
X128048000Y-104557000D01*
X128302000Y-104557000D01*
X128302000Y-105750155D01*
X128531890Y-105871476D01*
X128679099Y-105826825D01*
X128941920Y-105701641D01*
X129175269Y-105527588D01*
X129370178Y-105311355D01*
X129445000Y-105185745D01*
X129519822Y-105311355D01*
X129714731Y-105527588D01*
X129948080Y-105701641D01*
X130210901Y-105826825D01*
X130358110Y-105871476D01*
X130588000Y-105750155D01*
X130588000Y-104557000D01*
X128302000Y-104557000D01*
X128048000Y-104557000D01*
X125762000Y-104557000D01*
X125508000Y-104557000D01*
X123222000Y-104557000D01*
X122968000Y-104557000D01*
X120682000Y-104557000D01*
X120428000Y-104557000D01*
X118142000Y-104557000D01*
X117888000Y-104557000D01*
X115602000Y-104557000D01*
X115348000Y-104557000D01*
X113062000Y-104557000D01*
X112808000Y-104557000D01*
X110522000Y-104557000D01*
X110268000Y-104557000D01*
X109074186Y-104557000D01*
X108953519Y-104786891D01*
X86752000Y-104786891D01*
X86752000Y-104073109D01*
X108953519Y-104073109D01*
X109074186Y-104303000D01*
X110268000Y-104303000D01*
X110268000Y-104283000D01*
X110522000Y-104283000D01*
X110522000Y-104303000D01*
X112808000Y-104303000D01*
X112808000Y-104283000D01*
X113062000Y-104283000D01*
X113062000Y-104303000D01*
X115348000Y-104303000D01*
X115348000Y-104283000D01*
X115602000Y-104283000D01*
X115602000Y-104303000D01*
X117888000Y-104303000D01*
X117888000Y-104283000D01*
X118142000Y-104283000D01*
X118142000Y-104303000D01*
X120428000Y-104303000D01*
X120428000Y-104283000D01*
X120682000Y-104283000D01*
X120682000Y-104303000D01*
X122968000Y-104303000D01*
X122968000Y-104283000D01*
X123222000Y-104283000D01*
X123222000Y-104303000D01*
X125508000Y-104303000D01*
X125508000Y-104283000D01*
X125762000Y-104283000D01*
X125762000Y-104303000D01*
X128048000Y-104303000D01*
X128048000Y-104283000D01*
X128302000Y-104283000D01*
X128302000Y-104303000D01*
X130588000Y-104303000D01*
X130588000Y-104283000D01*
X130842000Y-104283000D01*
X130842000Y-104303000D01*
X130862000Y-104303000D01*
X130862000Y-104557000D01*
X130842000Y-104557000D01*
X130842000Y-105750155D01*
X131071890Y-105871476D01*
X131219099Y-105826825D01*
X131481920Y-105701641D01*
X131715269Y-105527588D01*
X131910178Y-105311355D01*
X132041025Y-105091692D01*
X132185414Y-105307787D01*
X132377213Y-105499586D01*
X132602746Y-105650282D01*
X132853344Y-105754083D01*
X133119377Y-105807000D01*
X133390623Y-105807000D01*
X133656656Y-105754083D01*
X133907254Y-105650282D01*
X134132787Y-105499586D01*
X134324586Y-105307787D01*
X134475282Y-105082254D01*
X134579083Y-104831656D01*
X134632000Y-104565623D01*
X134632000Y-104294377D01*
X134579083Y-104028344D01*
X134475282Y-103777746D01*
X134324586Y-103552213D01*
X134132787Y-103360414D01*
X133996798Y-103269549D01*
X134105000Y-103269549D01*
X134208310Y-103259374D01*
X134307650Y-103229239D01*
X134399202Y-103180304D01*
X134479448Y-103114448D01*
X134545304Y-103034202D01*
X134594239Y-102942650D01*
X134624374Y-102843310D01*
X134634549Y-102740000D01*
X134634549Y-101040000D01*
X134624374Y-100936690D01*
X134594239Y-100837350D01*
X134545304Y-100745798D01*
X134479448Y-100665552D01*
X134399202Y-100599696D01*
X134307650Y-100550761D01*
X134208310Y-100520626D01*
X134105000Y-100510451D01*
X132405000Y-100510451D01*
X132301690Y-100520626D01*
X132202350Y-100550761D01*
X132110798Y-100599696D01*
X132030552Y-100665552D01*
X131964696Y-100745798D01*
X131915761Y-100837350D01*
X131885626Y-100936690D01*
X131875451Y-101040000D01*
X131875451Y-101148202D01*
X131784586Y-101012213D01*
X131592787Y-100820414D01*
X131367254Y-100669718D01*
X131116656Y-100565917D01*
X130850623Y-100513000D01*
X130579377Y-100513000D01*
X130313344Y-100565917D01*
X130062746Y-100669718D01*
X129837213Y-100820414D01*
X129645414Y-101012213D01*
X129494718Y-101237746D01*
X129445000Y-101357776D01*
X129395282Y-101237746D01*
X129244586Y-101012213D01*
X129052787Y-100820414D01*
X128827254Y-100669718D01*
X128576656Y-100565917D01*
X128310623Y-100513000D01*
X128039377Y-100513000D01*
X127773344Y-100565917D01*
X127522746Y-100669718D01*
X127297213Y-100820414D01*
X127105414Y-101012213D01*
X126954718Y-101237746D01*
X126905000Y-101357776D01*
X126855282Y-101237746D01*
X126704586Y-101012213D01*
X126512787Y-100820414D01*
X126287254Y-100669718D01*
X126036656Y-100565917D01*
X125770623Y-100513000D01*
X125499377Y-100513000D01*
X125233344Y-100565917D01*
X124982746Y-100669718D01*
X124757213Y-100820414D01*
X124565414Y-101012213D01*
X124414718Y-101237746D01*
X124365000Y-101357776D01*
X124315282Y-101237746D01*
X124164586Y-101012213D01*
X123972787Y-100820414D01*
X123747254Y-100669718D01*
X123496656Y-100565917D01*
X123230623Y-100513000D01*
X122959377Y-100513000D01*
X122693344Y-100565917D01*
X122442746Y-100669718D01*
X122217213Y-100820414D01*
X122025414Y-101012213D01*
X121874718Y-101237746D01*
X121825000Y-101357776D01*
X121775282Y-101237746D01*
X121624586Y-101012213D01*
X121432787Y-100820414D01*
X121207254Y-100669718D01*
X120956656Y-100565917D01*
X120690623Y-100513000D01*
X120419377Y-100513000D01*
X120153344Y-100565917D01*
X119902746Y-100669718D01*
X119677213Y-100820414D01*
X119485414Y-101012213D01*
X119334718Y-101237746D01*
X119285000Y-101357776D01*
X119235282Y-101237746D01*
X119084586Y-101012213D01*
X118892787Y-100820414D01*
X118667254Y-100669718D01*
X118416656Y-100565917D01*
X118150623Y-100513000D01*
X117879377Y-100513000D01*
X117613344Y-100565917D01*
X117362746Y-100669718D01*
X117137213Y-100820414D01*
X116945414Y-101012213D01*
X116794718Y-101237746D01*
X116745000Y-101357776D01*
X116695282Y-101237746D01*
X116544586Y-101012213D01*
X116352787Y-100820414D01*
X116127254Y-100669718D01*
X115876656Y-100565917D01*
X115610623Y-100513000D01*
X115339377Y-100513000D01*
X115073344Y-100565917D01*
X114822746Y-100669718D01*
X114597213Y-100820414D01*
X114405414Y-101012213D01*
X114254718Y-101237746D01*
X114205000Y-101357776D01*
X114155282Y-101237746D01*
X114004586Y-101012213D01*
X113812787Y-100820414D01*
X113587254Y-100669718D01*
X113336656Y-100565917D01*
X113070623Y-100513000D01*
X112799377Y-100513000D01*
X112533344Y-100565917D01*
X112282746Y-100669718D01*
X112057213Y-100820414D01*
X111865414Y-101012213D01*
X111714718Y-101237746D01*
X111665000Y-101357776D01*
X111615282Y-101237746D01*
X111464586Y-101012213D01*
X111272787Y-100820414D01*
X111047254Y-100669718D01*
X110796656Y-100565917D01*
X110530623Y-100513000D01*
X110259377Y-100513000D01*
X109993344Y-100565917D01*
X109742746Y-100669718D01*
X109517213Y-100820414D01*
X109325414Y-101012213D01*
X109174718Y-101237746D01*
X109070917Y-101488344D01*
X109018000Y-101754377D01*
X109018000Y-102025623D01*
X109070917Y-102291656D01*
X109174718Y-102542254D01*
X109325414Y-102767787D01*
X109517213Y-102959586D01*
X109737032Y-103106464D01*
X109628080Y-103158359D01*
X109394731Y-103332412D01*
X109199822Y-103548645D01*
X109050843Y-103798748D01*
X108953519Y-104073109D01*
X86752000Y-104073109D01*
X86752000Y-97130793D01*
X86755033Y-97100000D01*
X86742927Y-96977087D01*
X86707075Y-96858897D01*
X86648853Y-96749972D01*
X86570501Y-96654499D01*
X86475028Y-96576147D01*
X86366103Y-96517925D01*
X86247913Y-96482073D01*
X86155794Y-96473000D01*
X86125000Y-96469967D01*
X86094206Y-96473000D01*
X76752000Y-96473000D01*
X76752000Y-95608699D01*
X127248000Y-95608699D01*
X127248000Y-95791301D01*
X127283624Y-95970396D01*
X127353504Y-96139099D01*
X127454952Y-96290928D01*
X127584072Y-96420048D01*
X127735901Y-96521496D01*
X127904604Y-96591376D01*
X128083699Y-96627000D01*
X128266301Y-96627000D01*
X128445396Y-96591376D01*
X128614099Y-96521496D01*
X128765928Y-96420048D01*
X128895048Y-96290928D01*
X128996496Y-96139099D01*
X129066376Y-95970396D01*
X129075008Y-95927000D01*
X130869867Y-95927000D01*
X130621426Y-96175441D01*
X130454604Y-96208624D01*
X130285901Y-96278504D01*
X130134072Y-96379952D01*
X130004952Y-96509072D01*
X129903504Y-96660901D01*
X129833624Y-96829604D01*
X129798000Y-97008699D01*
X129798000Y-97191301D01*
X129833624Y-97370396D01*
X129903504Y-97539099D01*
X130004952Y-97690928D01*
X130134072Y-97820048D01*
X130285901Y-97921496D01*
X130454604Y-97991376D01*
X130633699Y-98027000D01*
X130816301Y-98027000D01*
X130995396Y-97991376D01*
X131164099Y-97921496D01*
X131315928Y-97820048D01*
X131445048Y-97690928D01*
X131546496Y-97539099D01*
X131616376Y-97370396D01*
X131649559Y-97203574D01*
X131851133Y-97002000D01*
X135519476Y-97002000D01*
X135660901Y-97096496D01*
X135829604Y-97166376D01*
X136008699Y-97202000D01*
X136191301Y-97202000D01*
X136370396Y-97166376D01*
X136539099Y-97096496D01*
X136690928Y-96995048D01*
X136820048Y-96865928D01*
X136921496Y-96714099D01*
X136991376Y-96545396D01*
X137027000Y-96366301D01*
X137027000Y-96183699D01*
X136991376Y-96004604D01*
X136921496Y-95835901D01*
X136820048Y-95684072D01*
X136690928Y-95554952D01*
X136539099Y-95453504D01*
X136370396Y-95383624D01*
X136191301Y-95348000D01*
X136165722Y-95348000D01*
X136177000Y-95291301D01*
X136177000Y-95108699D01*
X136141376Y-94929604D01*
X136071496Y-94760901D01*
X135970048Y-94609072D01*
X135840928Y-94479952D01*
X135689099Y-94378504D01*
X135520396Y-94308624D01*
X135341301Y-94273000D01*
X135158699Y-94273000D01*
X134979604Y-94308624D01*
X134810901Y-94378504D01*
X134669476Y-94473000D01*
X128710708Y-94473000D01*
X128675000Y-94469483D01*
X128532482Y-94483520D01*
X128395443Y-94525090D01*
X128269147Y-94592597D01*
X128158446Y-94683446D01*
X128135683Y-94711184D01*
X128071425Y-94775441D01*
X127904604Y-94808624D01*
X127735901Y-94878504D01*
X127584072Y-94979952D01*
X127454952Y-95109072D01*
X127353504Y-95260901D01*
X127283624Y-95429604D01*
X127248000Y-95608699D01*
X76752000Y-95608699D01*
X76752000Y-85258699D01*
X133248000Y-85258699D01*
X133248000Y-85441301D01*
X133283624Y-85620396D01*
X133353504Y-85789099D01*
X133454952Y-85940928D01*
X133584072Y-86070048D01*
X133735901Y-86171496D01*
X133904604Y-86241376D01*
X134083699Y-86277000D01*
X134266301Y-86277000D01*
X134445396Y-86241376D01*
X134614099Y-86171496D01*
X134755524Y-86077000D01*
X166794476Y-86077000D01*
X166935901Y-86171496D01*
X167104604Y-86241376D01*
X167283699Y-86277000D01*
X167466301Y-86277000D01*
X167645396Y-86241376D01*
X167814099Y-86171496D01*
X167965928Y-86070048D01*
X168095048Y-85940928D01*
X168196496Y-85789099D01*
X168266376Y-85620396D01*
X168302000Y-85441301D01*
X168302000Y-85258699D01*
X168266376Y-85079604D01*
X168196496Y-84910901D01*
X168095048Y-84759072D01*
X167965928Y-84629952D01*
X167814099Y-84528504D01*
X167645396Y-84458624D01*
X167466301Y-84423000D01*
X167283699Y-84423000D01*
X167104604Y-84458624D01*
X166935901Y-84528504D01*
X166794476Y-84623000D01*
X134755524Y-84623000D01*
X134614099Y-84528504D01*
X134445396Y-84458624D01*
X134266301Y-84423000D01*
X134083699Y-84423000D01*
X133904604Y-84458624D01*
X133735901Y-84528504D01*
X133584072Y-84629952D01*
X133454952Y-84759072D01*
X133353504Y-84910901D01*
X133283624Y-85079604D01*
X133248000Y-85258699D01*
X76752000Y-85258699D01*
X76752000Y-82481699D01*
X114573000Y-82481699D01*
X114573000Y-82664301D01*
X114608624Y-82843396D01*
X114678504Y-83012099D01*
X114779952Y-83163928D01*
X114909072Y-83293048D01*
X115060901Y-83394496D01*
X115229604Y-83464376D01*
X115408699Y-83500000D01*
X115591301Y-83500000D01*
X115770396Y-83464376D01*
X115939099Y-83394496D01*
X116090928Y-83293048D01*
X116220048Y-83163928D01*
X116321496Y-83012099D01*
X116391376Y-82843396D01*
X116427000Y-82664301D01*
X116427000Y-82481699D01*
X116391376Y-82302604D01*
X116321496Y-82133901D01*
X116227000Y-81992476D01*
X116227000Y-79398132D01*
X116559904Y-79065229D01*
X117805638Y-79065229D01*
X117506188Y-79364679D01*
X117478447Y-79387446D01*
X117432929Y-79442911D01*
X117387598Y-79498147D01*
X117320090Y-79624444D01*
X117278520Y-79761483D01*
X117264483Y-79904000D01*
X117268001Y-79939718D01*
X117268000Y-82049476D01*
X117173504Y-82190901D01*
X117103624Y-82359604D01*
X117068000Y-82538699D01*
X117068000Y-82721301D01*
X117103624Y-82900396D01*
X117173504Y-83069099D01*
X117274952Y-83220928D01*
X117404072Y-83350048D01*
X117555901Y-83451496D01*
X117724604Y-83521376D01*
X117903699Y-83557000D01*
X118086301Y-83557000D01*
X118265396Y-83521376D01*
X118434099Y-83451496D01*
X118585928Y-83350048D01*
X118715048Y-83220928D01*
X118816496Y-83069099D01*
X118886376Y-82900396D01*
X118922000Y-82721301D01*
X118922000Y-82538699D01*
X118886376Y-82359604D01*
X118816496Y-82190901D01*
X118722000Y-82049476D01*
X118722000Y-80205133D01*
X119061904Y-79865229D01*
X122847639Y-79865229D01*
X122611189Y-80101679D01*
X122583446Y-80124447D01*
X122503654Y-80221675D01*
X122492598Y-80235147D01*
X122425090Y-80361444D01*
X122383520Y-80498483D01*
X122369483Y-80641000D01*
X122373000Y-80676708D01*
X122373001Y-82092475D01*
X122278504Y-82233901D01*
X122208624Y-82402604D01*
X122173000Y-82581699D01*
X122173000Y-82764301D01*
X122208624Y-82943396D01*
X122278504Y-83112099D01*
X122379952Y-83263928D01*
X122509072Y-83393048D01*
X122660901Y-83494496D01*
X122829604Y-83564376D01*
X123008699Y-83600000D01*
X123191301Y-83600000D01*
X123370396Y-83564376D01*
X123539099Y-83494496D01*
X123690928Y-83393048D01*
X123820048Y-83263928D01*
X123921496Y-83112099D01*
X123991376Y-82943396D01*
X124027000Y-82764301D01*
X124027000Y-82581699D01*
X123991376Y-82402604D01*
X123921496Y-82233901D01*
X123827000Y-82092476D01*
X123827000Y-80942132D01*
X124103904Y-80665229D01*
X125349639Y-80665229D01*
X125161189Y-80853679D01*
X125133446Y-80876447D01*
X125042597Y-80987148D01*
X125026221Y-81017786D01*
X124975090Y-81113444D01*
X124933520Y-81250483D01*
X124919483Y-81393000D01*
X124923000Y-81428708D01*
X124923001Y-82082476D01*
X124828504Y-82223901D01*
X124758624Y-82392604D01*
X124723000Y-82571699D01*
X124723000Y-82754301D01*
X124758624Y-82933396D01*
X124828504Y-83102099D01*
X124929952Y-83253928D01*
X125059072Y-83383048D01*
X125210901Y-83484496D01*
X125379604Y-83554376D01*
X125558699Y-83590000D01*
X125741301Y-83590000D01*
X125920396Y-83554376D01*
X126089099Y-83484496D01*
X126240928Y-83383048D01*
X126370048Y-83253928D01*
X126471496Y-83102099D01*
X126541376Y-82933396D01*
X126577000Y-82754301D01*
X126577000Y-82571699D01*
X126541376Y-82392604D01*
X126471496Y-82223901D01*
X126377000Y-82082476D01*
X126377000Y-81694132D01*
X126605904Y-81465229D01*
X133557705Y-81465229D01*
X133699130Y-81559725D01*
X133867833Y-81629605D01*
X134046928Y-81665229D01*
X134229530Y-81665229D01*
X134408625Y-81629605D01*
X134577328Y-81559725D01*
X134729157Y-81458277D01*
X134858277Y-81329157D01*
X134959725Y-81177328D01*
X135029605Y-81008625D01*
X135065229Y-80829530D01*
X135065229Y-80646928D01*
X135029605Y-80467833D01*
X134959725Y-80299130D01*
X134858277Y-80147301D01*
X134729157Y-80018181D01*
X134577328Y-79916733D01*
X134408625Y-79846853D01*
X134229530Y-79811229D01*
X134046928Y-79811229D01*
X133867833Y-79846853D01*
X133699130Y-79916733D01*
X133563771Y-80007176D01*
X133563771Y-79846928D01*
X133528147Y-79667833D01*
X133458267Y-79499130D01*
X133356819Y-79347301D01*
X133227699Y-79218181D01*
X133075870Y-79116733D01*
X132907167Y-79046853D01*
X132728072Y-79011229D01*
X132545470Y-79011229D01*
X132366375Y-79046853D01*
X132197672Y-79116733D01*
X132165229Y-79138411D01*
X132165229Y-79046928D01*
X132129605Y-78867833D01*
X132059725Y-78699130D01*
X131958277Y-78547301D01*
X131829157Y-78418181D01*
X131677328Y-78316733D01*
X131508625Y-78246853D01*
X131329530Y-78211229D01*
X131146928Y-78211229D01*
X130967833Y-78246853D01*
X130799130Y-78316733D01*
X130657705Y-78411229D01*
X130056000Y-78411229D01*
X130056000Y-78246928D01*
X130020376Y-78067833D01*
X129950496Y-77899130D01*
X129849048Y-77747301D01*
X129760446Y-77658699D01*
X144448000Y-77658699D01*
X144448000Y-77841301D01*
X144483624Y-78020396D01*
X144553504Y-78189099D01*
X144654952Y-78340928D01*
X144784072Y-78470048D01*
X144935901Y-78571496D01*
X145104604Y-78641376D01*
X145283699Y-78677000D01*
X145466301Y-78677000D01*
X145645396Y-78641376D01*
X145814099Y-78571496D01*
X145955524Y-78477000D01*
X162244476Y-78477000D01*
X162385901Y-78571496D01*
X162554604Y-78641376D01*
X162733699Y-78677000D01*
X162916301Y-78677000D01*
X163095396Y-78641376D01*
X163264099Y-78571496D01*
X163415928Y-78470048D01*
X163545048Y-78340928D01*
X163646496Y-78189099D01*
X163716376Y-78020396D01*
X163752000Y-77841301D01*
X163752000Y-77658699D01*
X163716376Y-77479604D01*
X163646496Y-77310901D01*
X163545048Y-77159072D01*
X163415928Y-77029952D01*
X163264099Y-76928504D01*
X163095396Y-76858624D01*
X162916301Y-76823000D01*
X162733699Y-76823000D01*
X162554604Y-76858624D01*
X162385901Y-76928504D01*
X162244476Y-77023000D01*
X145955524Y-77023000D01*
X145814099Y-76928504D01*
X145645396Y-76858624D01*
X145466301Y-76823000D01*
X145283699Y-76823000D01*
X145104604Y-76858624D01*
X144935901Y-76928504D01*
X144784072Y-77029952D01*
X144654952Y-77159072D01*
X144553504Y-77310901D01*
X144483624Y-77479604D01*
X144448000Y-77658699D01*
X129760446Y-77658699D01*
X129719928Y-77618181D01*
X129568099Y-77516733D01*
X129399396Y-77446853D01*
X129220301Y-77411229D01*
X129037699Y-77411229D01*
X128858604Y-77446853D01*
X128689901Y-77516733D01*
X128548476Y-77611229D01*
X116294478Y-77611229D01*
X116258770Y-77607712D01*
X116116253Y-77621749D01*
X116084358Y-77631424D01*
X115979214Y-77663319D01*
X115852918Y-77730826D01*
X115742217Y-77821675D01*
X115719450Y-77849418D01*
X115011189Y-78557679D01*
X114983446Y-78580447D01*
X114892597Y-78691148D01*
X114846533Y-78777328D01*
X114825090Y-78817444D01*
X114783520Y-78954483D01*
X114769483Y-79097000D01*
X114773000Y-79132708D01*
X114773001Y-81992475D01*
X114678504Y-82133901D01*
X114608624Y-82302604D01*
X114573000Y-82481699D01*
X76752000Y-82481699D01*
X76752000Y-79946999D01*
X82094206Y-79946999D01*
X82125000Y-79950032D01*
X82155794Y-79946999D01*
X82247913Y-79937926D01*
X82366103Y-79902074D01*
X82475028Y-79843852D01*
X82570501Y-79765500D01*
X82648853Y-79670027D01*
X82707075Y-79561102D01*
X82742927Y-79442912D01*
X82755033Y-79319999D01*
X82752000Y-79289205D01*
X82752000Y-76758699D01*
X88348000Y-76758699D01*
X88348000Y-76941301D01*
X88383624Y-77120396D01*
X88453504Y-77289099D01*
X88554952Y-77440928D01*
X88684072Y-77570048D01*
X88835901Y-77671496D01*
X89004604Y-77741376D01*
X89183699Y-77777000D01*
X89366301Y-77777000D01*
X89545396Y-77741376D01*
X89714099Y-77671496D01*
X89865928Y-77570048D01*
X89995048Y-77440928D01*
X90096496Y-77289099D01*
X90166376Y-77120396D01*
X90199559Y-76953574D01*
X90376133Y-76777000D01*
X147889292Y-76777000D01*
X147925000Y-76780517D01*
X148067517Y-76766480D01*
X148093168Y-76758699D01*
X148204557Y-76724910D01*
X148330853Y-76657403D01*
X148441554Y-76566554D01*
X148464325Y-76538807D01*
X148928574Y-76074559D01*
X149095396Y-76041376D01*
X149264099Y-75971496D01*
X149415928Y-75870048D01*
X149545048Y-75740928D01*
X149646496Y-75589099D01*
X149716376Y-75420396D01*
X149752000Y-75241301D01*
X149752000Y-75058699D01*
X149716376Y-74879604D01*
X149673875Y-74777000D01*
X150139292Y-74777000D01*
X150175000Y-74780517D01*
X150317517Y-74766480D01*
X150454557Y-74724910D01*
X150580853Y-74657403D01*
X150691554Y-74566554D01*
X150714326Y-74538806D01*
X151194433Y-74058699D01*
X152948000Y-74058699D01*
X152948000Y-74241301D01*
X152983624Y-74420396D01*
X153053504Y-74589099D01*
X153154952Y-74740928D01*
X153284072Y-74870048D01*
X153435901Y-74971496D01*
X153604604Y-75041376D01*
X153771426Y-75074559D01*
X154335679Y-75638812D01*
X154358446Y-75666554D01*
X154469147Y-75757403D01*
X154595443Y-75824910D01*
X154732482Y-75866480D01*
X154875000Y-75880517D01*
X154910708Y-75877000D01*
X190073868Y-75877000D01*
X190150441Y-75953574D01*
X190183624Y-76120396D01*
X190253504Y-76289099D01*
X190354952Y-76440928D01*
X190484072Y-76570048D01*
X190635901Y-76671496D01*
X190804604Y-76741376D01*
X190983699Y-76777000D01*
X191166301Y-76777000D01*
X191345396Y-76741376D01*
X191514099Y-76671496D01*
X191665928Y-76570048D01*
X191795048Y-76440928D01*
X191896496Y-76289099D01*
X191966376Y-76120396D01*
X192002000Y-75941301D01*
X192002000Y-75758699D01*
X191966376Y-75579604D01*
X191896496Y-75410901D01*
X191795048Y-75259072D01*
X191665928Y-75129952D01*
X191514099Y-75028504D01*
X191345396Y-74958624D01*
X191178574Y-74925441D01*
X190914325Y-74661193D01*
X190891554Y-74633446D01*
X190780853Y-74542597D01*
X190654557Y-74475090D01*
X190517517Y-74433520D01*
X190410708Y-74423000D01*
X190375000Y-74419483D01*
X190339292Y-74423000D01*
X155176133Y-74423000D01*
X154799559Y-74046426D01*
X154766376Y-73879604D01*
X154696496Y-73710901D01*
X154595048Y-73559072D01*
X154465928Y-73429952D01*
X154314099Y-73328504D01*
X154145396Y-73258624D01*
X153966301Y-73223000D01*
X153783699Y-73223000D01*
X153604604Y-73258624D01*
X153435901Y-73328504D01*
X153284072Y-73429952D01*
X153154952Y-73559072D01*
X153053504Y-73710901D01*
X152983624Y-73879604D01*
X152948000Y-74058699D01*
X151194433Y-74058699D01*
X151478574Y-73774559D01*
X151645396Y-73741376D01*
X151814099Y-73671496D01*
X151965928Y-73570048D01*
X152095048Y-73440928D01*
X152196496Y-73289099D01*
X152266376Y-73120396D01*
X152302000Y-72941301D01*
X152302000Y-72758699D01*
X155548000Y-72758699D01*
X155548000Y-72941301D01*
X155583624Y-73120396D01*
X155653504Y-73289099D01*
X155754952Y-73440928D01*
X155884072Y-73570048D01*
X156035901Y-73671496D01*
X156204604Y-73741376D01*
X156371426Y-73774559D01*
X156635679Y-74038811D01*
X156658446Y-74066554D01*
X156769147Y-74157403D01*
X156895443Y-74224910D01*
X157032483Y-74266480D01*
X157139292Y-74277000D01*
X157139294Y-74277000D01*
X157174999Y-74280517D01*
X157210705Y-74277000D01*
X191944476Y-74277000D01*
X192085901Y-74371496D01*
X192254604Y-74441376D01*
X192433699Y-74477000D01*
X192616301Y-74477000D01*
X192795396Y-74441376D01*
X192964099Y-74371496D01*
X193115928Y-74270048D01*
X193245048Y-74140928D01*
X193346496Y-73989099D01*
X193416376Y-73820396D01*
X193452000Y-73641301D01*
X193452000Y-73458699D01*
X193416376Y-73279604D01*
X193346496Y-73110901D01*
X193245048Y-72959072D01*
X193115928Y-72829952D01*
X192964099Y-72728504D01*
X192795396Y-72658624D01*
X192616301Y-72623000D01*
X192433699Y-72623000D01*
X192254604Y-72658624D01*
X192085901Y-72728504D01*
X191944476Y-72823000D01*
X157476133Y-72823000D01*
X157399559Y-72746426D01*
X157366376Y-72579604D01*
X157296496Y-72410901D01*
X157195048Y-72259072D01*
X157065928Y-72129952D01*
X156914099Y-72028504D01*
X156745396Y-71958624D01*
X156566301Y-71923000D01*
X156383699Y-71923000D01*
X156204604Y-71958624D01*
X156035901Y-72028504D01*
X155884072Y-72129952D01*
X155754952Y-72259072D01*
X155653504Y-72410901D01*
X155583624Y-72579604D01*
X155548000Y-72758699D01*
X152302000Y-72758699D01*
X152266376Y-72579604D01*
X152196496Y-72410901D01*
X152095048Y-72259072D01*
X151965928Y-72129952D01*
X151814099Y-72028504D01*
X151645396Y-71958624D01*
X151466301Y-71923000D01*
X151283699Y-71923000D01*
X151104604Y-71958624D01*
X150935901Y-72028504D01*
X150784072Y-72129952D01*
X150654952Y-72259072D01*
X150553504Y-72410901D01*
X150483624Y-72579604D01*
X150450441Y-72746426D01*
X149873868Y-73323000D01*
X94755524Y-73323000D01*
X94614099Y-73228504D01*
X94445396Y-73158624D01*
X94266301Y-73123000D01*
X94083699Y-73123000D01*
X93904604Y-73158624D01*
X93735901Y-73228504D01*
X93584072Y-73329952D01*
X93454952Y-73459072D01*
X93353504Y-73610901D01*
X93283624Y-73779604D01*
X93248000Y-73958699D01*
X93248000Y-74141301D01*
X93283624Y-74320396D01*
X93353504Y-74489099D01*
X93454952Y-74640928D01*
X93584072Y-74770048D01*
X93735901Y-74871496D01*
X93904604Y-74941376D01*
X94083699Y-74977000D01*
X94266301Y-74977000D01*
X94445396Y-74941376D01*
X94614099Y-74871496D01*
X94755524Y-74777000D01*
X147976125Y-74777000D01*
X147933624Y-74879604D01*
X147900441Y-75046426D01*
X147623868Y-75323000D01*
X90110708Y-75323000D01*
X90075000Y-75319483D01*
X89932482Y-75333520D01*
X89841292Y-75361182D01*
X89795443Y-75375090D01*
X89669147Y-75442597D01*
X89558446Y-75533446D01*
X89535683Y-75561183D01*
X89171426Y-75925441D01*
X89004604Y-75958624D01*
X88835901Y-76028504D01*
X88684072Y-76129952D01*
X88554952Y-76259072D01*
X88453504Y-76410901D01*
X88383624Y-76579604D01*
X88348000Y-76758699D01*
X82752000Y-76758699D01*
X82752000Y-70686891D01*
X124553519Y-70686891D01*
X124650843Y-70961252D01*
X124799822Y-71211355D01*
X124994731Y-71427588D01*
X125228080Y-71601641D01*
X125490901Y-71726825D01*
X125638110Y-71771476D01*
X125868000Y-71650155D01*
X125868000Y-70457000D01*
X124674186Y-70457000D01*
X124553519Y-70686891D01*
X82752000Y-70686891D01*
X82752000Y-68146891D01*
X124553519Y-68146891D01*
X124650843Y-68421252D01*
X124799822Y-68671355D01*
X124994731Y-68887588D01*
X125225880Y-69060000D01*
X124994731Y-69232412D01*
X124799822Y-69448645D01*
X124650843Y-69698748D01*
X124553519Y-69973109D01*
X124674186Y-70203000D01*
X125868000Y-70203000D01*
X125868000Y-67917000D01*
X124674186Y-67917000D01*
X124553519Y-68146891D01*
X82752000Y-68146891D01*
X82752000Y-67433109D01*
X124553519Y-67433109D01*
X124674186Y-67663000D01*
X125868000Y-67663000D01*
X125868000Y-66469845D01*
X126122000Y-66469845D01*
X126122000Y-67663000D01*
X126142000Y-67663000D01*
X126142000Y-67917000D01*
X126122000Y-67917000D01*
X126122000Y-70203000D01*
X126142000Y-70203000D01*
X126142000Y-70457000D01*
X126122000Y-70457000D01*
X126122000Y-71650155D01*
X126351890Y-71771476D01*
X126499099Y-71726825D01*
X126761920Y-71601641D01*
X126995269Y-71427588D01*
X127190178Y-71211355D01*
X127321025Y-70991692D01*
X127465414Y-71207787D01*
X127657213Y-71399586D01*
X127882746Y-71550282D01*
X128133344Y-71654083D01*
X128399377Y-71707000D01*
X128670623Y-71707000D01*
X128936656Y-71654083D01*
X129187254Y-71550282D01*
X129412787Y-71399586D01*
X129604586Y-71207787D01*
X129755282Y-70982254D01*
X129805000Y-70862224D01*
X129854718Y-70982254D01*
X130005414Y-71207787D01*
X130197213Y-71399586D01*
X130422746Y-71550282D01*
X130673344Y-71654083D01*
X130939377Y-71707000D01*
X131210623Y-71707000D01*
X131476656Y-71654083D01*
X131727254Y-71550282D01*
X131952787Y-71399586D01*
X132144586Y-71207787D01*
X132295282Y-70982254D01*
X132345000Y-70862224D01*
X132394718Y-70982254D01*
X132545414Y-71207787D01*
X132737213Y-71399586D01*
X132962746Y-71550282D01*
X133213344Y-71654083D01*
X133479377Y-71707000D01*
X133750623Y-71707000D01*
X134016656Y-71654083D01*
X134267254Y-71550282D01*
X134492787Y-71399586D01*
X134684586Y-71207787D01*
X134835282Y-70982254D01*
X134885000Y-70862224D01*
X134934718Y-70982254D01*
X135085414Y-71207787D01*
X135277213Y-71399586D01*
X135502746Y-71550282D01*
X135753344Y-71654083D01*
X136019377Y-71707000D01*
X136290623Y-71707000D01*
X136556656Y-71654083D01*
X136807254Y-71550282D01*
X137032787Y-71399586D01*
X137224586Y-71207787D01*
X137375282Y-70982254D01*
X137425000Y-70862224D01*
X137474718Y-70982254D01*
X137625414Y-71207787D01*
X137817213Y-71399586D01*
X138042746Y-71550282D01*
X138293344Y-71654083D01*
X138559377Y-71707000D01*
X138830623Y-71707000D01*
X139096656Y-71654083D01*
X139347254Y-71550282D01*
X139572787Y-71399586D01*
X139764586Y-71207787D01*
X139915282Y-70982254D01*
X139965000Y-70862224D01*
X140014718Y-70982254D01*
X140165414Y-71207787D01*
X140357213Y-71399586D01*
X140582746Y-71550282D01*
X140833344Y-71654083D01*
X141099377Y-71707000D01*
X141370623Y-71707000D01*
X141636656Y-71654083D01*
X141887254Y-71550282D01*
X142112787Y-71399586D01*
X142304586Y-71207787D01*
X142455282Y-70982254D01*
X142505000Y-70862224D01*
X142554718Y-70982254D01*
X142705414Y-71207787D01*
X142897213Y-71399586D01*
X143122746Y-71550282D01*
X143373344Y-71654083D01*
X143639377Y-71707000D01*
X143910623Y-71707000D01*
X144176656Y-71654083D01*
X144427254Y-71550282D01*
X144652787Y-71399586D01*
X144844586Y-71207787D01*
X144995282Y-70982254D01*
X145045000Y-70862224D01*
X145094718Y-70982254D01*
X145245414Y-71207787D01*
X145437213Y-71399586D01*
X145662746Y-71550282D01*
X145913344Y-71654083D01*
X146179377Y-71707000D01*
X146450623Y-71707000D01*
X146716656Y-71654083D01*
X146967254Y-71550282D01*
X147192787Y-71399586D01*
X147384586Y-71207787D01*
X147535282Y-70982254D01*
X147585000Y-70862224D01*
X147634718Y-70982254D01*
X147785414Y-71207787D01*
X147977213Y-71399586D01*
X148202746Y-71550282D01*
X148453344Y-71654083D01*
X148719377Y-71707000D01*
X148990623Y-71707000D01*
X149256656Y-71654083D01*
X149507254Y-71550282D01*
X149732787Y-71399586D01*
X149924586Y-71207787D01*
X150075282Y-70982254D01*
X150125000Y-70862224D01*
X150174718Y-70982254D01*
X150325414Y-71207787D01*
X150517213Y-71399586D01*
X150742746Y-71550282D01*
X150993344Y-71654083D01*
X151259377Y-71707000D01*
X151530623Y-71707000D01*
X151796656Y-71654083D01*
X152047254Y-71550282D01*
X152272787Y-71399586D01*
X152464586Y-71207787D01*
X152615282Y-70982254D01*
X152665000Y-70862224D01*
X152714718Y-70982254D01*
X152865414Y-71207787D01*
X153057213Y-71399586D01*
X153282746Y-71550282D01*
X153533344Y-71654083D01*
X153799377Y-71707000D01*
X154070623Y-71707000D01*
X154336656Y-71654083D01*
X154587254Y-71550282D01*
X154812787Y-71399586D01*
X155004586Y-71207787D01*
X155155282Y-70982254D01*
X155205000Y-70862224D01*
X155254718Y-70982254D01*
X155405414Y-71207787D01*
X155597213Y-71399586D01*
X155822746Y-71550282D01*
X156073344Y-71654083D01*
X156339377Y-71707000D01*
X156610623Y-71707000D01*
X156876656Y-71654083D01*
X157127254Y-71550282D01*
X157352787Y-71399586D01*
X157544586Y-71207787D01*
X157695282Y-70982254D01*
X157745000Y-70862224D01*
X157794718Y-70982254D01*
X157945414Y-71207787D01*
X158137213Y-71399586D01*
X158362746Y-71550282D01*
X158613344Y-71654083D01*
X158879377Y-71707000D01*
X159150623Y-71707000D01*
X159416656Y-71654083D01*
X159667254Y-71550282D01*
X159892787Y-71399586D01*
X160084586Y-71207787D01*
X160235282Y-70982254D01*
X160285000Y-70862224D01*
X160334718Y-70982254D01*
X160485414Y-71207787D01*
X160677213Y-71399586D01*
X160902746Y-71550282D01*
X161153344Y-71654083D01*
X161419377Y-71707000D01*
X161690623Y-71707000D01*
X161956656Y-71654083D01*
X162207254Y-71550282D01*
X162432787Y-71399586D01*
X162624586Y-71207787D01*
X162775282Y-70982254D01*
X162825000Y-70862224D01*
X162874718Y-70982254D01*
X163025414Y-71207787D01*
X163217213Y-71399586D01*
X163442746Y-71550282D01*
X163693344Y-71654083D01*
X163959377Y-71707000D01*
X164230623Y-71707000D01*
X164496656Y-71654083D01*
X164747254Y-71550282D01*
X164972787Y-71399586D01*
X165164586Y-71207787D01*
X165315282Y-70982254D01*
X165365000Y-70862224D01*
X165414718Y-70982254D01*
X165565414Y-71207787D01*
X165757213Y-71399586D01*
X165982746Y-71550282D01*
X166233344Y-71654083D01*
X166499377Y-71707000D01*
X166770623Y-71707000D01*
X167036656Y-71654083D01*
X167287254Y-71550282D01*
X167512787Y-71399586D01*
X167704586Y-71207787D01*
X167855282Y-70982254D01*
X167905000Y-70862224D01*
X167954718Y-70982254D01*
X168105414Y-71207787D01*
X168297213Y-71399586D01*
X168522746Y-71550282D01*
X168773344Y-71654083D01*
X169039377Y-71707000D01*
X169310623Y-71707000D01*
X169576656Y-71654083D01*
X169827254Y-71550282D01*
X170052787Y-71399586D01*
X170244586Y-71207787D01*
X170395282Y-70982254D01*
X170445000Y-70862224D01*
X170494718Y-70982254D01*
X170645414Y-71207787D01*
X170837213Y-71399586D01*
X171062746Y-71550282D01*
X171313344Y-71654083D01*
X171579377Y-71707000D01*
X171850623Y-71707000D01*
X172116656Y-71654083D01*
X172367254Y-71550282D01*
X172592787Y-71399586D01*
X172784586Y-71207787D01*
X172935282Y-70982254D01*
X172985000Y-70862224D01*
X173034718Y-70982254D01*
X173185414Y-71207787D01*
X173377213Y-71399586D01*
X173602746Y-71550282D01*
X173853344Y-71654083D01*
X174119377Y-71707000D01*
X174390623Y-71707000D01*
X174656656Y-71654083D01*
X174907254Y-71550282D01*
X175132787Y-71399586D01*
X175324586Y-71207787D01*
X175475282Y-70982254D01*
X175579083Y-70731656D01*
X175632000Y-70465623D01*
X175632000Y-70194377D01*
X175579083Y-69928344D01*
X175475282Y-69677746D01*
X175324586Y-69452213D01*
X175132787Y-69260414D01*
X174996798Y-69169549D01*
X175105000Y-69169549D01*
X175208310Y-69159374D01*
X175307650Y-69129239D01*
X175399202Y-69080304D01*
X175479448Y-69014448D01*
X175545304Y-68934202D01*
X175594239Y-68842650D01*
X175624374Y-68743310D01*
X175634549Y-68640000D01*
X175634549Y-66940000D01*
X175624374Y-66836690D01*
X175594239Y-66737350D01*
X175545304Y-66645798D01*
X175479448Y-66565552D01*
X175399202Y-66499696D01*
X175307650Y-66450761D01*
X175208310Y-66420626D01*
X175105000Y-66410451D01*
X173405000Y-66410451D01*
X173301690Y-66420626D01*
X173202350Y-66450761D01*
X173110798Y-66499696D01*
X173030552Y-66565552D01*
X172964696Y-66645798D01*
X172915761Y-66737350D01*
X172885626Y-66836690D01*
X172875451Y-66940000D01*
X172875451Y-67048202D01*
X172784586Y-66912213D01*
X172592787Y-66720414D01*
X172367254Y-66569718D01*
X172116656Y-66465917D01*
X171850623Y-66413000D01*
X171579377Y-66413000D01*
X171313344Y-66465917D01*
X171062746Y-66569718D01*
X170837213Y-66720414D01*
X170645414Y-66912213D01*
X170494718Y-67137746D01*
X170445000Y-67257776D01*
X170395282Y-67137746D01*
X170244586Y-66912213D01*
X170052787Y-66720414D01*
X169827254Y-66569718D01*
X169576656Y-66465917D01*
X169310623Y-66413000D01*
X169039377Y-66413000D01*
X168773344Y-66465917D01*
X168522746Y-66569718D01*
X168297213Y-66720414D01*
X168105414Y-66912213D01*
X167954718Y-67137746D01*
X167905000Y-67257776D01*
X167855282Y-67137746D01*
X167704586Y-66912213D01*
X167512787Y-66720414D01*
X167287254Y-66569718D01*
X167036656Y-66465917D01*
X166770623Y-66413000D01*
X166499377Y-66413000D01*
X166233344Y-66465917D01*
X165982746Y-66569718D01*
X165757213Y-66720414D01*
X165565414Y-66912213D01*
X165414718Y-67137746D01*
X165365000Y-67257776D01*
X165315282Y-67137746D01*
X165164586Y-66912213D01*
X164972787Y-66720414D01*
X164747254Y-66569718D01*
X164496656Y-66465917D01*
X164230623Y-66413000D01*
X163959377Y-66413000D01*
X163693344Y-66465917D01*
X163442746Y-66569718D01*
X163217213Y-66720414D01*
X163025414Y-66912213D01*
X162874718Y-67137746D01*
X162825000Y-67257776D01*
X162775282Y-67137746D01*
X162624586Y-66912213D01*
X162432787Y-66720414D01*
X162207254Y-66569718D01*
X161956656Y-66465917D01*
X161690623Y-66413000D01*
X161419377Y-66413000D01*
X161153344Y-66465917D01*
X160902746Y-66569718D01*
X160677213Y-66720414D01*
X160485414Y-66912213D01*
X160334718Y-67137746D01*
X160285000Y-67257776D01*
X160235282Y-67137746D01*
X160084586Y-66912213D01*
X159892787Y-66720414D01*
X159667254Y-66569718D01*
X159416656Y-66465917D01*
X159150623Y-66413000D01*
X158879377Y-66413000D01*
X158613344Y-66465917D01*
X158362746Y-66569718D01*
X158137213Y-66720414D01*
X157945414Y-66912213D01*
X157794718Y-67137746D01*
X157745000Y-67257776D01*
X157695282Y-67137746D01*
X157544586Y-66912213D01*
X157352787Y-66720414D01*
X157127254Y-66569718D01*
X156876656Y-66465917D01*
X156610623Y-66413000D01*
X156339377Y-66413000D01*
X156073344Y-66465917D01*
X155822746Y-66569718D01*
X155597213Y-66720414D01*
X155405414Y-66912213D01*
X155254718Y-67137746D01*
X155205000Y-67257776D01*
X155155282Y-67137746D01*
X155004586Y-66912213D01*
X154812787Y-66720414D01*
X154587254Y-66569718D01*
X154336656Y-66465917D01*
X154070623Y-66413000D01*
X153799377Y-66413000D01*
X153533344Y-66465917D01*
X153282746Y-66569718D01*
X153057213Y-66720414D01*
X152865414Y-66912213D01*
X152714718Y-67137746D01*
X152665000Y-67257776D01*
X152615282Y-67137746D01*
X152464586Y-66912213D01*
X152272787Y-66720414D01*
X152047254Y-66569718D01*
X151796656Y-66465917D01*
X151530623Y-66413000D01*
X151259377Y-66413000D01*
X150993344Y-66465917D01*
X150742746Y-66569718D01*
X150517213Y-66720414D01*
X150325414Y-66912213D01*
X150174718Y-67137746D01*
X150125000Y-67257776D01*
X150075282Y-67137746D01*
X149924586Y-66912213D01*
X149732787Y-66720414D01*
X149507254Y-66569718D01*
X149256656Y-66465917D01*
X148990623Y-66413000D01*
X148719377Y-66413000D01*
X148453344Y-66465917D01*
X148202746Y-66569718D01*
X147977213Y-66720414D01*
X147785414Y-66912213D01*
X147634718Y-67137746D01*
X147585000Y-67257776D01*
X147535282Y-67137746D01*
X147384586Y-66912213D01*
X147192787Y-66720414D01*
X146967254Y-66569718D01*
X146716656Y-66465917D01*
X146450623Y-66413000D01*
X146179377Y-66413000D01*
X145913344Y-66465917D01*
X145662746Y-66569718D01*
X145437213Y-66720414D01*
X145245414Y-66912213D01*
X145094718Y-67137746D01*
X145045000Y-67257776D01*
X144995282Y-67137746D01*
X144844586Y-66912213D01*
X144652787Y-66720414D01*
X144427254Y-66569718D01*
X144176656Y-66465917D01*
X143910623Y-66413000D01*
X143639377Y-66413000D01*
X143373344Y-66465917D01*
X143122746Y-66569718D01*
X142897213Y-66720414D01*
X142705414Y-66912213D01*
X142554718Y-67137746D01*
X142505000Y-67257776D01*
X142455282Y-67137746D01*
X142304586Y-66912213D01*
X142112787Y-66720414D01*
X141887254Y-66569718D01*
X141636656Y-66465917D01*
X141370623Y-66413000D01*
X141099377Y-66413000D01*
X140833344Y-66465917D01*
X140582746Y-66569718D01*
X140357213Y-66720414D01*
X140165414Y-66912213D01*
X140014718Y-67137746D01*
X139965000Y-67257776D01*
X139915282Y-67137746D01*
X139764586Y-66912213D01*
X139572787Y-66720414D01*
X139347254Y-66569718D01*
X139096656Y-66465917D01*
X138830623Y-66413000D01*
X138559377Y-66413000D01*
X138293344Y-66465917D01*
X138042746Y-66569718D01*
X137817213Y-66720414D01*
X137625414Y-66912213D01*
X137474718Y-67137746D01*
X137425000Y-67257776D01*
X137375282Y-67137746D01*
X137224586Y-66912213D01*
X137032787Y-66720414D01*
X136807254Y-66569718D01*
X136556656Y-66465917D01*
X136290623Y-66413000D01*
X136019377Y-66413000D01*
X135753344Y-66465917D01*
X135502746Y-66569718D01*
X135277213Y-66720414D01*
X135085414Y-66912213D01*
X134934718Y-67137746D01*
X134885000Y-67257776D01*
X134835282Y-67137746D01*
X134684586Y-66912213D01*
X134492787Y-66720414D01*
X134267254Y-66569718D01*
X134016656Y-66465917D01*
X133750623Y-66413000D01*
X133479377Y-66413000D01*
X133213344Y-66465917D01*
X132962746Y-66569718D01*
X132737213Y-66720414D01*
X132545414Y-66912213D01*
X132394718Y-67137746D01*
X132345000Y-67257776D01*
X132295282Y-67137746D01*
X132144586Y-66912213D01*
X131952787Y-66720414D01*
X131727254Y-66569718D01*
X131476656Y-66465917D01*
X131210623Y-66413000D01*
X130939377Y-66413000D01*
X130673344Y-66465917D01*
X130422746Y-66569718D01*
X130197213Y-66720414D01*
X130005414Y-66912213D01*
X129854718Y-67137746D01*
X129805000Y-67257776D01*
X129755282Y-67137746D01*
X129604586Y-66912213D01*
X129412787Y-66720414D01*
X129187254Y-66569718D01*
X128936656Y-66465917D01*
X128670623Y-66413000D01*
X128399377Y-66413000D01*
X128133344Y-66465917D01*
X127882746Y-66569718D01*
X127657213Y-66720414D01*
X127465414Y-66912213D01*
X127321025Y-67128308D01*
X127190178Y-66908645D01*
X126995269Y-66692412D01*
X126761920Y-66518359D01*
X126499099Y-66393175D01*
X126351890Y-66348524D01*
X126122000Y-66469845D01*
X125868000Y-66469845D01*
X125638110Y-66348524D01*
X125490901Y-66393175D01*
X125228080Y-66518359D01*
X124994731Y-66692412D01*
X124799822Y-66908645D01*
X124650843Y-67158748D01*
X124553519Y-67433109D01*
X82752000Y-67433109D01*
X82752000Y-65747000D01*
X217498000Y-65747000D01*
X217498001Y-79289195D01*
G37*
X217498001Y-79289195D02*
X217494967Y-79319999D01*
X217507073Y-79442912D01*
X217542925Y-79561102D01*
X217601147Y-79670027D01*
X217679499Y-79765500D01*
X217774972Y-79843852D01*
X217883897Y-79902074D01*
X218002087Y-79937926D01*
X218094206Y-79946999D01*
X218125000Y-79950032D01*
X218155794Y-79946999D01*
X223498000Y-79946999D01*
X223498001Y-96473000D01*
X214155794Y-96473000D01*
X214125000Y-96469967D01*
X214094206Y-96473000D01*
X214002087Y-96482073D01*
X213883897Y-96517925D01*
X213774972Y-96576147D01*
X213679499Y-96654499D01*
X213601147Y-96749972D01*
X213542925Y-96858897D01*
X213507073Y-96977087D01*
X213494967Y-97100000D01*
X213498000Y-97130793D01*
X213498001Y-106473000D01*
X86752000Y-106473000D01*
X86752000Y-104786891D01*
X108953519Y-104786891D01*
X109050843Y-105061252D01*
X109199822Y-105311355D01*
X109394731Y-105527588D01*
X109628080Y-105701641D01*
X109890901Y-105826825D01*
X110038110Y-105871476D01*
X110268000Y-105750155D01*
X110268000Y-104557000D01*
X110522000Y-104557000D01*
X110522000Y-105750155D01*
X110751890Y-105871476D01*
X110899099Y-105826825D01*
X111161920Y-105701641D01*
X111395269Y-105527588D01*
X111590178Y-105311355D01*
X111665000Y-105185745D01*
X111739822Y-105311355D01*
X111934731Y-105527588D01*
X112168080Y-105701641D01*
X112430901Y-105826825D01*
X112578110Y-105871476D01*
X112808000Y-105750155D01*
X112808000Y-104557000D01*
X113062000Y-104557000D01*
X113062000Y-105750155D01*
X113291890Y-105871476D01*
X113439099Y-105826825D01*
X113701920Y-105701641D01*
X113935269Y-105527588D01*
X114130178Y-105311355D01*
X114205000Y-105185745D01*
X114279822Y-105311355D01*
X114474731Y-105527588D01*
X114708080Y-105701641D01*
X114970901Y-105826825D01*
X115118110Y-105871476D01*
X115348000Y-105750155D01*
X115348000Y-104557000D01*
X115602000Y-104557000D01*
X115602000Y-105750155D01*
X115831890Y-105871476D01*
X115979099Y-105826825D01*
X116241920Y-105701641D01*
X116475269Y-105527588D01*
X116670178Y-105311355D01*
X116745000Y-105185745D01*
X116819822Y-105311355D01*
X117014731Y-105527588D01*
X117248080Y-105701641D01*
X117510901Y-105826825D01*
X117658110Y-105871476D01*
X117888000Y-105750155D01*
X117888000Y-104557000D01*
X118142000Y-104557000D01*
X118142000Y-105750155D01*
X118371890Y-105871476D01*
X118519099Y-105826825D01*
X118781920Y-105701641D01*
X119015269Y-105527588D01*
X119210178Y-105311355D01*
X119285000Y-105185745D01*
X119359822Y-105311355D01*
X119554731Y-105527588D01*
X119788080Y-105701641D01*
X120050901Y-105826825D01*
X120198110Y-105871476D01*
X120428000Y-105750155D01*
X120428000Y-104557000D01*
X120682000Y-104557000D01*
X120682000Y-105750155D01*
X120911890Y-105871476D01*
X121059099Y-105826825D01*
X121321920Y-105701641D01*
X121555269Y-105527588D01*
X121750178Y-105311355D01*
X121825000Y-105185745D01*
X121899822Y-105311355D01*
X122094731Y-105527588D01*
X122328080Y-105701641D01*
X122590901Y-105826825D01*
X122738110Y-105871476D01*
X122968000Y-105750155D01*
X122968000Y-104557000D01*
X123222000Y-104557000D01*
X123222000Y-105750155D01*
X123451890Y-105871476D01*
X123599099Y-105826825D01*
X123861920Y-105701641D01*
X124095269Y-105527588D01*
X124290178Y-105311355D01*
X124365000Y-105185745D01*
X124439822Y-105311355D01*
X124634731Y-105527588D01*
X124868080Y-105701641D01*
X125130901Y-105826825D01*
X125278110Y-105871476D01*
X125508000Y-105750155D01*
X125508000Y-104557000D01*
X125762000Y-104557000D01*
X125762000Y-105750155D01*
X125991890Y-105871476D01*
X126139099Y-105826825D01*
X126401920Y-105701641D01*
X126635269Y-105527588D01*
X126830178Y-105311355D01*
X126905000Y-105185745D01*
X126979822Y-105311355D01*
X127174731Y-105527588D01*
X127408080Y-105701641D01*
X127670901Y-105826825D01*
X127818110Y-105871476D01*
X128048000Y-105750155D01*
X128048000Y-104557000D01*
X128302000Y-104557000D01*
X128302000Y-105750155D01*
X128531890Y-105871476D01*
X128679099Y-105826825D01*
X128941920Y-105701641D01*
X129175269Y-105527588D01*
X129370178Y-105311355D01*
X129445000Y-105185745D01*
X129519822Y-105311355D01*
X129714731Y-105527588D01*
X129948080Y-105701641D01*
X130210901Y-105826825D01*
X130358110Y-105871476D01*
X130588000Y-105750155D01*
X130588000Y-104557000D01*
X128302000Y-104557000D01*
X128048000Y-104557000D01*
X125762000Y-104557000D01*
X125508000Y-104557000D01*
X123222000Y-104557000D01*
X122968000Y-104557000D01*
X120682000Y-104557000D01*
X120428000Y-104557000D01*
X118142000Y-104557000D01*
X117888000Y-104557000D01*
X115602000Y-104557000D01*
X115348000Y-104557000D01*
X113062000Y-104557000D01*
X112808000Y-104557000D01*
X110522000Y-104557000D01*
X110268000Y-104557000D01*
X109074186Y-104557000D01*
X108953519Y-104786891D01*
X86752000Y-104786891D01*
X86752000Y-104073109D01*
X108953519Y-104073109D01*
X109074186Y-104303000D01*
X110268000Y-104303000D01*
X110268000Y-104283000D01*
X110522000Y-104283000D01*
X110522000Y-104303000D01*
X112808000Y-104303000D01*
X112808000Y-104283000D01*
X113062000Y-104283000D01*
X113062000Y-104303000D01*
X115348000Y-104303000D01*
X115348000Y-104283000D01*
X115602000Y-104283000D01*
X115602000Y-104303000D01*
X117888000Y-104303000D01*
X117888000Y-104283000D01*
X118142000Y-104283000D01*
X118142000Y-104303000D01*
X120428000Y-104303000D01*
X120428000Y-104283000D01*
X120682000Y-104283000D01*
X120682000Y-104303000D01*
X122968000Y-104303000D01*
X122968000Y-104283000D01*
X123222000Y-104283000D01*
X123222000Y-104303000D01*
X125508000Y-104303000D01*
X125508000Y-104283000D01*
X125762000Y-104283000D01*
X125762000Y-104303000D01*
X128048000Y-104303000D01*
X128048000Y-104283000D01*
X128302000Y-104283000D01*
X128302000Y-104303000D01*
X130588000Y-104303000D01*
X130588000Y-104283000D01*
X130842000Y-104283000D01*
X130842000Y-104303000D01*
X130862000Y-104303000D01*
X130862000Y-104557000D01*
X130842000Y-104557000D01*
X130842000Y-105750155D01*
X131071890Y-105871476D01*
X131219099Y-105826825D01*
X131481920Y-105701641D01*
X131715269Y-105527588D01*
X131910178Y-105311355D01*
X132041025Y-105091692D01*
X132185414Y-105307787D01*
X132377213Y-105499586D01*
X132602746Y-105650282D01*
X132853344Y-105754083D01*
X133119377Y-105807000D01*
X133390623Y-105807000D01*
X133656656Y-105754083D01*
X133907254Y-105650282D01*
X134132787Y-105499586D01*
X134324586Y-105307787D01*
X134475282Y-105082254D01*
X134579083Y-104831656D01*
X134632000Y-104565623D01*
X134632000Y-104294377D01*
X134579083Y-104028344D01*
X134475282Y-103777746D01*
X134324586Y-103552213D01*
X134132787Y-103360414D01*
X133996798Y-103269549D01*
X134105000Y-103269549D01*
X134208310Y-103259374D01*
X134307650Y-103229239D01*
X134399202Y-103180304D01*
X134479448Y-103114448D01*
X134545304Y-103034202D01*
X134594239Y-102942650D01*
X134624374Y-102843310D01*
X134634549Y-102740000D01*
X134634549Y-101040000D01*
X134624374Y-100936690D01*
X134594239Y-100837350D01*
X134545304Y-100745798D01*
X134479448Y-100665552D01*
X134399202Y-100599696D01*
X134307650Y-100550761D01*
X134208310Y-100520626D01*
X134105000Y-100510451D01*
X132405000Y-100510451D01*
X132301690Y-100520626D01*
X132202350Y-100550761D01*
X132110798Y-100599696D01*
X132030552Y-100665552D01*
X131964696Y-100745798D01*
X131915761Y-100837350D01*
X131885626Y-100936690D01*
X131875451Y-101040000D01*
X131875451Y-101148202D01*
X131784586Y-101012213D01*
X131592787Y-100820414D01*
X131367254Y-100669718D01*
X131116656Y-100565917D01*
X130850623Y-100513000D01*
X130579377Y-100513000D01*
X130313344Y-100565917D01*
X130062746Y-100669718D01*
X129837213Y-100820414D01*
X129645414Y-101012213D01*
X129494718Y-101237746D01*
X129445000Y-101357776D01*
X129395282Y-101237746D01*
X129244586Y-101012213D01*
X129052787Y-100820414D01*
X128827254Y-100669718D01*
X128576656Y-100565917D01*
X128310623Y-100513000D01*
X128039377Y-100513000D01*
X127773344Y-100565917D01*
X127522746Y-100669718D01*
X127297213Y-100820414D01*
X127105414Y-101012213D01*
X126954718Y-101237746D01*
X126905000Y-101357776D01*
X126855282Y-101237746D01*
X126704586Y-101012213D01*
X126512787Y-100820414D01*
X126287254Y-100669718D01*
X126036656Y-100565917D01*
X125770623Y-100513000D01*
X125499377Y-100513000D01*
X125233344Y-100565917D01*
X124982746Y-100669718D01*
X124757213Y-100820414D01*
X124565414Y-101012213D01*
X124414718Y-101237746D01*
X124365000Y-101357776D01*
X124315282Y-101237746D01*
X124164586Y-101012213D01*
X123972787Y-100820414D01*
X123747254Y-100669718D01*
X123496656Y-100565917D01*
X123230623Y-100513000D01*
X122959377Y-100513000D01*
X122693344Y-100565917D01*
X122442746Y-100669718D01*
X122217213Y-100820414D01*
X122025414Y-101012213D01*
X121874718Y-101237746D01*
X121825000Y-101357776D01*
X121775282Y-101237746D01*
X121624586Y-101012213D01*
X121432787Y-100820414D01*
X121207254Y-100669718D01*
X120956656Y-100565917D01*
X120690623Y-100513000D01*
X120419377Y-100513000D01*
X120153344Y-100565917D01*
X119902746Y-100669718D01*
X119677213Y-100820414D01*
X119485414Y-101012213D01*
X119334718Y-101237746D01*
X119285000Y-101357776D01*
X119235282Y-101237746D01*
X119084586Y-101012213D01*
X118892787Y-100820414D01*
X118667254Y-100669718D01*
X118416656Y-100565917D01*
X118150623Y-100513000D01*
X117879377Y-100513000D01*
X117613344Y-100565917D01*
X117362746Y-100669718D01*
X117137213Y-100820414D01*
X116945414Y-101012213D01*
X116794718Y-101237746D01*
X116745000Y-101357776D01*
X116695282Y-101237746D01*
X116544586Y-101012213D01*
X116352787Y-100820414D01*
X116127254Y-100669718D01*
X115876656Y-100565917D01*
X115610623Y-100513000D01*
X115339377Y-100513000D01*
X115073344Y-100565917D01*
X114822746Y-100669718D01*
X114597213Y-100820414D01*
X114405414Y-101012213D01*
X114254718Y-101237746D01*
X114205000Y-101357776D01*
X114155282Y-101237746D01*
X114004586Y-101012213D01*
X113812787Y-100820414D01*
X113587254Y-100669718D01*
X113336656Y-100565917D01*
X113070623Y-100513000D01*
X112799377Y-100513000D01*
X112533344Y-100565917D01*
X112282746Y-100669718D01*
X112057213Y-100820414D01*
X111865414Y-101012213D01*
X111714718Y-101237746D01*
X111665000Y-101357776D01*
X111615282Y-101237746D01*
X111464586Y-101012213D01*
X111272787Y-100820414D01*
X111047254Y-100669718D01*
X110796656Y-100565917D01*
X110530623Y-100513000D01*
X110259377Y-100513000D01*
X109993344Y-100565917D01*
X109742746Y-100669718D01*
X109517213Y-100820414D01*
X109325414Y-101012213D01*
X109174718Y-101237746D01*
X109070917Y-101488344D01*
X109018000Y-101754377D01*
X109018000Y-102025623D01*
X109070917Y-102291656D01*
X109174718Y-102542254D01*
X109325414Y-102767787D01*
X109517213Y-102959586D01*
X109737032Y-103106464D01*
X109628080Y-103158359D01*
X109394731Y-103332412D01*
X109199822Y-103548645D01*
X109050843Y-103798748D01*
X108953519Y-104073109D01*
X86752000Y-104073109D01*
X86752000Y-97130793D01*
X86755033Y-97100000D01*
X86742927Y-96977087D01*
X86707075Y-96858897D01*
X86648853Y-96749972D01*
X86570501Y-96654499D01*
X86475028Y-96576147D01*
X86366103Y-96517925D01*
X86247913Y-96482073D01*
X86155794Y-96473000D01*
X86125000Y-96469967D01*
X86094206Y-96473000D01*
X76752000Y-96473000D01*
X76752000Y-95608699D01*
X127248000Y-95608699D01*
X127248000Y-95791301D01*
X127283624Y-95970396D01*
X127353504Y-96139099D01*
X127454952Y-96290928D01*
X127584072Y-96420048D01*
X127735901Y-96521496D01*
X127904604Y-96591376D01*
X128083699Y-96627000D01*
X128266301Y-96627000D01*
X128445396Y-96591376D01*
X128614099Y-96521496D01*
X128765928Y-96420048D01*
X128895048Y-96290928D01*
X128996496Y-96139099D01*
X129066376Y-95970396D01*
X129075008Y-95927000D01*
X130869867Y-95927000D01*
X130621426Y-96175441D01*
X130454604Y-96208624D01*
X130285901Y-96278504D01*
X130134072Y-96379952D01*
X130004952Y-96509072D01*
X129903504Y-96660901D01*
X129833624Y-96829604D01*
X129798000Y-97008699D01*
X129798000Y-97191301D01*
X129833624Y-97370396D01*
X129903504Y-97539099D01*
X130004952Y-97690928D01*
X130134072Y-97820048D01*
X130285901Y-97921496D01*
X130454604Y-97991376D01*
X130633699Y-98027000D01*
X130816301Y-98027000D01*
X130995396Y-97991376D01*
X131164099Y-97921496D01*
X131315928Y-97820048D01*
X131445048Y-97690928D01*
X131546496Y-97539099D01*
X131616376Y-97370396D01*
X131649559Y-97203574D01*
X131851133Y-97002000D01*
X135519476Y-97002000D01*
X135660901Y-97096496D01*
X135829604Y-97166376D01*
X136008699Y-97202000D01*
X136191301Y-97202000D01*
X136370396Y-97166376D01*
X136539099Y-97096496D01*
X136690928Y-96995048D01*
X136820048Y-96865928D01*
X136921496Y-96714099D01*
X136991376Y-96545396D01*
X137027000Y-96366301D01*
X137027000Y-96183699D01*
X136991376Y-96004604D01*
X136921496Y-95835901D01*
X136820048Y-95684072D01*
X136690928Y-95554952D01*
X136539099Y-95453504D01*
X136370396Y-95383624D01*
X136191301Y-95348000D01*
X136165722Y-95348000D01*
X136177000Y-95291301D01*
X136177000Y-95108699D01*
X136141376Y-94929604D01*
X136071496Y-94760901D01*
X135970048Y-94609072D01*
X135840928Y-94479952D01*
X135689099Y-94378504D01*
X135520396Y-94308624D01*
X135341301Y-94273000D01*
X135158699Y-94273000D01*
X134979604Y-94308624D01*
X134810901Y-94378504D01*
X134669476Y-94473000D01*
X128710708Y-94473000D01*
X128675000Y-94469483D01*
X128532482Y-94483520D01*
X128395443Y-94525090D01*
X128269147Y-94592597D01*
X128158446Y-94683446D01*
X128135683Y-94711184D01*
X128071425Y-94775441D01*
X127904604Y-94808624D01*
X127735901Y-94878504D01*
X127584072Y-94979952D01*
X127454952Y-95109072D01*
X127353504Y-95260901D01*
X127283624Y-95429604D01*
X127248000Y-95608699D01*
X76752000Y-95608699D01*
X76752000Y-85258699D01*
X133248000Y-85258699D01*
X133248000Y-85441301D01*
X133283624Y-85620396D01*
X133353504Y-85789099D01*
X133454952Y-85940928D01*
X133584072Y-86070048D01*
X133735901Y-86171496D01*
X133904604Y-86241376D01*
X134083699Y-86277000D01*
X134266301Y-86277000D01*
X134445396Y-86241376D01*
X134614099Y-86171496D01*
X134755524Y-86077000D01*
X166794476Y-86077000D01*
X166935901Y-86171496D01*
X167104604Y-86241376D01*
X167283699Y-86277000D01*
X167466301Y-86277000D01*
X167645396Y-86241376D01*
X167814099Y-86171496D01*
X167965928Y-86070048D01*
X168095048Y-85940928D01*
X168196496Y-85789099D01*
X168266376Y-85620396D01*
X168302000Y-85441301D01*
X168302000Y-85258699D01*
X168266376Y-85079604D01*
X168196496Y-84910901D01*
X168095048Y-84759072D01*
X167965928Y-84629952D01*
X167814099Y-84528504D01*
X167645396Y-84458624D01*
X167466301Y-84423000D01*
X167283699Y-84423000D01*
X167104604Y-84458624D01*
X166935901Y-84528504D01*
X166794476Y-84623000D01*
X134755524Y-84623000D01*
X134614099Y-84528504D01*
X134445396Y-84458624D01*
X134266301Y-84423000D01*
X134083699Y-84423000D01*
X133904604Y-84458624D01*
X133735901Y-84528504D01*
X133584072Y-84629952D01*
X133454952Y-84759072D01*
X133353504Y-84910901D01*
X133283624Y-85079604D01*
X133248000Y-85258699D01*
X76752000Y-85258699D01*
X76752000Y-82481699D01*
X114573000Y-82481699D01*
X114573000Y-82664301D01*
X114608624Y-82843396D01*
X114678504Y-83012099D01*
X114779952Y-83163928D01*
X114909072Y-83293048D01*
X115060901Y-83394496D01*
X115229604Y-83464376D01*
X115408699Y-83500000D01*
X115591301Y-83500000D01*
X115770396Y-83464376D01*
X115939099Y-83394496D01*
X116090928Y-83293048D01*
X116220048Y-83163928D01*
X116321496Y-83012099D01*
X116391376Y-82843396D01*
X116427000Y-82664301D01*
X116427000Y-82481699D01*
X116391376Y-82302604D01*
X116321496Y-82133901D01*
X116227000Y-81992476D01*
X116227000Y-79398132D01*
X116559904Y-79065229D01*
X117805638Y-79065229D01*
X117506188Y-79364679D01*
X117478447Y-79387446D01*
X117432929Y-79442911D01*
X117387598Y-79498147D01*
X117320090Y-79624444D01*
X117278520Y-79761483D01*
X117264483Y-79904000D01*
X117268001Y-79939718D01*
X117268000Y-82049476D01*
X117173504Y-82190901D01*
X117103624Y-82359604D01*
X117068000Y-82538699D01*
X117068000Y-82721301D01*
X117103624Y-82900396D01*
X117173504Y-83069099D01*
X117274952Y-83220928D01*
X117404072Y-83350048D01*
X117555901Y-83451496D01*
X117724604Y-83521376D01*
X117903699Y-83557000D01*
X118086301Y-83557000D01*
X118265396Y-83521376D01*
X118434099Y-83451496D01*
X118585928Y-83350048D01*
X118715048Y-83220928D01*
X118816496Y-83069099D01*
X118886376Y-82900396D01*
X118922000Y-82721301D01*
X118922000Y-82538699D01*
X118886376Y-82359604D01*
X118816496Y-82190901D01*
X118722000Y-82049476D01*
X118722000Y-80205133D01*
X119061904Y-79865229D01*
X122847639Y-79865229D01*
X122611189Y-80101679D01*
X122583446Y-80124447D01*
X122503654Y-80221675D01*
X122492598Y-80235147D01*
X122425090Y-80361444D01*
X122383520Y-80498483D01*
X122369483Y-80641000D01*
X122373000Y-80676708D01*
X122373001Y-82092475D01*
X122278504Y-82233901D01*
X122208624Y-82402604D01*
X122173000Y-82581699D01*
X122173000Y-82764301D01*
X122208624Y-82943396D01*
X122278504Y-83112099D01*
X122379952Y-83263928D01*
X122509072Y-83393048D01*
X122660901Y-83494496D01*
X122829604Y-83564376D01*
X123008699Y-83600000D01*
X123191301Y-83600000D01*
X123370396Y-83564376D01*
X123539099Y-83494496D01*
X123690928Y-83393048D01*
X123820048Y-83263928D01*
X123921496Y-83112099D01*
X123991376Y-82943396D01*
X124027000Y-82764301D01*
X124027000Y-82581699D01*
X123991376Y-82402604D01*
X123921496Y-82233901D01*
X123827000Y-82092476D01*
X123827000Y-80942132D01*
X124103904Y-80665229D01*
X125349639Y-80665229D01*
X125161189Y-80853679D01*
X125133446Y-80876447D01*
X125042597Y-80987148D01*
X125026221Y-81017786D01*
X124975090Y-81113444D01*
X124933520Y-81250483D01*
X124919483Y-81393000D01*
X124923000Y-81428708D01*
X124923001Y-82082476D01*
X124828504Y-82223901D01*
X124758624Y-82392604D01*
X124723000Y-82571699D01*
X124723000Y-82754301D01*
X124758624Y-82933396D01*
X124828504Y-83102099D01*
X124929952Y-83253928D01*
X125059072Y-83383048D01*
X125210901Y-83484496D01*
X125379604Y-83554376D01*
X125558699Y-83590000D01*
X125741301Y-83590000D01*
X125920396Y-83554376D01*
X126089099Y-83484496D01*
X126240928Y-83383048D01*
X126370048Y-83253928D01*
X126471496Y-83102099D01*
X126541376Y-82933396D01*
X126577000Y-82754301D01*
X126577000Y-82571699D01*
X126541376Y-82392604D01*
X126471496Y-82223901D01*
X126377000Y-82082476D01*
X126377000Y-81694132D01*
X126605904Y-81465229D01*
X133557705Y-81465229D01*
X133699130Y-81559725D01*
X133867833Y-81629605D01*
X134046928Y-81665229D01*
X134229530Y-81665229D01*
X134408625Y-81629605D01*
X134577328Y-81559725D01*
X134729157Y-81458277D01*
X134858277Y-81329157D01*
X134959725Y-81177328D01*
X135029605Y-81008625D01*
X135065229Y-80829530D01*
X135065229Y-80646928D01*
X135029605Y-80467833D01*
X134959725Y-80299130D01*
X134858277Y-80147301D01*
X134729157Y-80018181D01*
X134577328Y-79916733D01*
X134408625Y-79846853D01*
X134229530Y-79811229D01*
X134046928Y-79811229D01*
X133867833Y-79846853D01*
X133699130Y-79916733D01*
X133563771Y-80007176D01*
X133563771Y-79846928D01*
X133528147Y-79667833D01*
X133458267Y-79499130D01*
X133356819Y-79347301D01*
X133227699Y-79218181D01*
X133075870Y-79116733D01*
X132907167Y-79046853D01*
X132728072Y-79011229D01*
X132545470Y-79011229D01*
X132366375Y-79046853D01*
X132197672Y-79116733D01*
X132165229Y-79138411D01*
X132165229Y-79046928D01*
X132129605Y-78867833D01*
X132059725Y-78699130D01*
X131958277Y-78547301D01*
X131829157Y-78418181D01*
X131677328Y-78316733D01*
X131508625Y-78246853D01*
X131329530Y-78211229D01*
X131146928Y-78211229D01*
X130967833Y-78246853D01*
X130799130Y-78316733D01*
X130657705Y-78411229D01*
X130056000Y-78411229D01*
X130056000Y-78246928D01*
X130020376Y-78067833D01*
X129950496Y-77899130D01*
X129849048Y-77747301D01*
X129760446Y-77658699D01*
X144448000Y-77658699D01*
X144448000Y-77841301D01*
X144483624Y-78020396D01*
X144553504Y-78189099D01*
X144654952Y-78340928D01*
X144784072Y-78470048D01*
X144935901Y-78571496D01*
X145104604Y-78641376D01*
X145283699Y-78677000D01*
X145466301Y-78677000D01*
X145645396Y-78641376D01*
X145814099Y-78571496D01*
X145955524Y-78477000D01*
X162244476Y-78477000D01*
X162385901Y-78571496D01*
X162554604Y-78641376D01*
X162733699Y-78677000D01*
X162916301Y-78677000D01*
X163095396Y-78641376D01*
X163264099Y-78571496D01*
X163415928Y-78470048D01*
X163545048Y-78340928D01*
X163646496Y-78189099D01*
X163716376Y-78020396D01*
X163752000Y-77841301D01*
X163752000Y-77658699D01*
X163716376Y-77479604D01*
X163646496Y-77310901D01*
X163545048Y-77159072D01*
X163415928Y-77029952D01*
X163264099Y-76928504D01*
X163095396Y-76858624D01*
X162916301Y-76823000D01*
X162733699Y-76823000D01*
X162554604Y-76858624D01*
X162385901Y-76928504D01*
X162244476Y-77023000D01*
X145955524Y-77023000D01*
X145814099Y-76928504D01*
X145645396Y-76858624D01*
X145466301Y-76823000D01*
X145283699Y-76823000D01*
X145104604Y-76858624D01*
X144935901Y-76928504D01*
X144784072Y-77029952D01*
X144654952Y-77159072D01*
X144553504Y-77310901D01*
X144483624Y-77479604D01*
X144448000Y-77658699D01*
X129760446Y-77658699D01*
X129719928Y-77618181D01*
X129568099Y-77516733D01*
X129399396Y-77446853D01*
X129220301Y-77411229D01*
X129037699Y-77411229D01*
X128858604Y-77446853D01*
X128689901Y-77516733D01*
X128548476Y-77611229D01*
X116294478Y-77611229D01*
X116258770Y-77607712D01*
X116116253Y-77621749D01*
X116084358Y-77631424D01*
X115979214Y-77663319D01*
X115852918Y-77730826D01*
X115742217Y-77821675D01*
X115719450Y-77849418D01*
X115011189Y-78557679D01*
X114983446Y-78580447D01*
X114892597Y-78691148D01*
X114846533Y-78777328D01*
X114825090Y-78817444D01*
X114783520Y-78954483D01*
X114769483Y-79097000D01*
X114773000Y-79132708D01*
X114773001Y-81992475D01*
X114678504Y-82133901D01*
X114608624Y-82302604D01*
X114573000Y-82481699D01*
X76752000Y-82481699D01*
X76752000Y-79946999D01*
X82094206Y-79946999D01*
X82125000Y-79950032D01*
X82155794Y-79946999D01*
X82247913Y-79937926D01*
X82366103Y-79902074D01*
X82475028Y-79843852D01*
X82570501Y-79765500D01*
X82648853Y-79670027D01*
X82707075Y-79561102D01*
X82742927Y-79442912D01*
X82755033Y-79319999D01*
X82752000Y-79289205D01*
X82752000Y-76758699D01*
X88348000Y-76758699D01*
X88348000Y-76941301D01*
X88383624Y-77120396D01*
X88453504Y-77289099D01*
X88554952Y-77440928D01*
X88684072Y-77570048D01*
X88835901Y-77671496D01*
X89004604Y-77741376D01*
X89183699Y-77777000D01*
X89366301Y-77777000D01*
X89545396Y-77741376D01*
X89714099Y-77671496D01*
X89865928Y-77570048D01*
X89995048Y-77440928D01*
X90096496Y-77289099D01*
X90166376Y-77120396D01*
X90199559Y-76953574D01*
X90376133Y-76777000D01*
X147889292Y-76777000D01*
X147925000Y-76780517D01*
X148067517Y-76766480D01*
X148093168Y-76758699D01*
X148204557Y-76724910D01*
X148330853Y-76657403D01*
X148441554Y-76566554D01*
X148464325Y-76538807D01*
X148928574Y-76074559D01*
X149095396Y-76041376D01*
X149264099Y-75971496D01*
X149415928Y-75870048D01*
X149545048Y-75740928D01*
X149646496Y-75589099D01*
X149716376Y-75420396D01*
X149752000Y-75241301D01*
X149752000Y-75058699D01*
X149716376Y-74879604D01*
X149673875Y-74777000D01*
X150139292Y-74777000D01*
X150175000Y-74780517D01*
X150317517Y-74766480D01*
X150454557Y-74724910D01*
X150580853Y-74657403D01*
X150691554Y-74566554D01*
X150714326Y-74538806D01*
X151194433Y-74058699D01*
X152948000Y-74058699D01*
X152948000Y-74241301D01*
X152983624Y-74420396D01*
X153053504Y-74589099D01*
X153154952Y-74740928D01*
X153284072Y-74870048D01*
X153435901Y-74971496D01*
X153604604Y-75041376D01*
X153771426Y-75074559D01*
X154335679Y-75638812D01*
X154358446Y-75666554D01*
X154469147Y-75757403D01*
X154595443Y-75824910D01*
X154732482Y-75866480D01*
X154875000Y-75880517D01*
X154910708Y-75877000D01*
X190073868Y-75877000D01*
X190150441Y-75953574D01*
X190183624Y-76120396D01*
X190253504Y-76289099D01*
X190354952Y-76440928D01*
X190484072Y-76570048D01*
X190635901Y-76671496D01*
X190804604Y-76741376D01*
X190983699Y-76777000D01*
X191166301Y-76777000D01*
X191345396Y-76741376D01*
X191514099Y-76671496D01*
X191665928Y-76570048D01*
X191795048Y-76440928D01*
X191896496Y-76289099D01*
X191966376Y-76120396D01*
X192002000Y-75941301D01*
X192002000Y-75758699D01*
X191966376Y-75579604D01*
X191896496Y-75410901D01*
X191795048Y-75259072D01*
X191665928Y-75129952D01*
X191514099Y-75028504D01*
X191345396Y-74958624D01*
X191178574Y-74925441D01*
X190914325Y-74661193D01*
X190891554Y-74633446D01*
X190780853Y-74542597D01*
X190654557Y-74475090D01*
X190517517Y-74433520D01*
X190410708Y-74423000D01*
X190375000Y-74419483D01*
X190339292Y-74423000D01*
X155176133Y-74423000D01*
X154799559Y-74046426D01*
X154766376Y-73879604D01*
X154696496Y-73710901D01*
X154595048Y-73559072D01*
X154465928Y-73429952D01*
X154314099Y-73328504D01*
X154145396Y-73258624D01*
X153966301Y-73223000D01*
X153783699Y-73223000D01*
X153604604Y-73258624D01*
X153435901Y-73328504D01*
X153284072Y-73429952D01*
X153154952Y-73559072D01*
X153053504Y-73710901D01*
X152983624Y-73879604D01*
X152948000Y-74058699D01*
X151194433Y-74058699D01*
X151478574Y-73774559D01*
X151645396Y-73741376D01*
X151814099Y-73671496D01*
X151965928Y-73570048D01*
X152095048Y-73440928D01*
X152196496Y-73289099D01*
X152266376Y-73120396D01*
X152302000Y-72941301D01*
X152302000Y-72758699D01*
X155548000Y-72758699D01*
X155548000Y-72941301D01*
X155583624Y-73120396D01*
X155653504Y-73289099D01*
X155754952Y-73440928D01*
X155884072Y-73570048D01*
X156035901Y-73671496D01*
X156204604Y-73741376D01*
X156371426Y-73774559D01*
X156635679Y-74038811D01*
X156658446Y-74066554D01*
X156769147Y-74157403D01*
X156895443Y-74224910D01*
X157032483Y-74266480D01*
X157139292Y-74277000D01*
X157139294Y-74277000D01*
X157174999Y-74280517D01*
X157210705Y-74277000D01*
X191944476Y-74277000D01*
X192085901Y-74371496D01*
X192254604Y-74441376D01*
X192433699Y-74477000D01*
X192616301Y-74477000D01*
X192795396Y-74441376D01*
X192964099Y-74371496D01*
X193115928Y-74270048D01*
X193245048Y-74140928D01*
X193346496Y-73989099D01*
X193416376Y-73820396D01*
X193452000Y-73641301D01*
X193452000Y-73458699D01*
X193416376Y-73279604D01*
X193346496Y-73110901D01*
X193245048Y-72959072D01*
X193115928Y-72829952D01*
X192964099Y-72728504D01*
X192795396Y-72658624D01*
X192616301Y-72623000D01*
X192433699Y-72623000D01*
X192254604Y-72658624D01*
X192085901Y-72728504D01*
X191944476Y-72823000D01*
X157476133Y-72823000D01*
X157399559Y-72746426D01*
X157366376Y-72579604D01*
X157296496Y-72410901D01*
X157195048Y-72259072D01*
X157065928Y-72129952D01*
X156914099Y-72028504D01*
X156745396Y-71958624D01*
X156566301Y-71923000D01*
X156383699Y-71923000D01*
X156204604Y-71958624D01*
X156035901Y-72028504D01*
X155884072Y-72129952D01*
X155754952Y-72259072D01*
X155653504Y-72410901D01*
X155583624Y-72579604D01*
X155548000Y-72758699D01*
X152302000Y-72758699D01*
X152266376Y-72579604D01*
X152196496Y-72410901D01*
X152095048Y-72259072D01*
X151965928Y-72129952D01*
X151814099Y-72028504D01*
X151645396Y-71958624D01*
X151466301Y-71923000D01*
X151283699Y-71923000D01*
X151104604Y-71958624D01*
X150935901Y-72028504D01*
X150784072Y-72129952D01*
X150654952Y-72259072D01*
X150553504Y-72410901D01*
X150483624Y-72579604D01*
X150450441Y-72746426D01*
X149873868Y-73323000D01*
X94755524Y-73323000D01*
X94614099Y-73228504D01*
X94445396Y-73158624D01*
X94266301Y-73123000D01*
X94083699Y-73123000D01*
X93904604Y-73158624D01*
X93735901Y-73228504D01*
X93584072Y-73329952D01*
X93454952Y-73459072D01*
X93353504Y-73610901D01*
X93283624Y-73779604D01*
X93248000Y-73958699D01*
X93248000Y-74141301D01*
X93283624Y-74320396D01*
X93353504Y-74489099D01*
X93454952Y-74640928D01*
X93584072Y-74770048D01*
X93735901Y-74871496D01*
X93904604Y-74941376D01*
X94083699Y-74977000D01*
X94266301Y-74977000D01*
X94445396Y-74941376D01*
X94614099Y-74871496D01*
X94755524Y-74777000D01*
X147976125Y-74777000D01*
X147933624Y-74879604D01*
X147900441Y-75046426D01*
X147623868Y-75323000D01*
X90110708Y-75323000D01*
X90075000Y-75319483D01*
X89932482Y-75333520D01*
X89841292Y-75361182D01*
X89795443Y-75375090D01*
X89669147Y-75442597D01*
X89558446Y-75533446D01*
X89535683Y-75561183D01*
X89171426Y-75925441D01*
X89004604Y-75958624D01*
X88835901Y-76028504D01*
X88684072Y-76129952D01*
X88554952Y-76259072D01*
X88453504Y-76410901D01*
X88383624Y-76579604D01*
X88348000Y-76758699D01*
X82752000Y-76758699D01*
X82752000Y-70686891D01*
X124553519Y-70686891D01*
X124650843Y-70961252D01*
X124799822Y-71211355D01*
X124994731Y-71427588D01*
X125228080Y-71601641D01*
X125490901Y-71726825D01*
X125638110Y-71771476D01*
X125868000Y-71650155D01*
X125868000Y-70457000D01*
X124674186Y-70457000D01*
X124553519Y-70686891D01*
X82752000Y-70686891D01*
X82752000Y-68146891D01*
X124553519Y-68146891D01*
X124650843Y-68421252D01*
X124799822Y-68671355D01*
X124994731Y-68887588D01*
X125225880Y-69060000D01*
X124994731Y-69232412D01*
X124799822Y-69448645D01*
X124650843Y-69698748D01*
X124553519Y-69973109D01*
X124674186Y-70203000D01*
X125868000Y-70203000D01*
X125868000Y-67917000D01*
X124674186Y-67917000D01*
X124553519Y-68146891D01*
X82752000Y-68146891D01*
X82752000Y-67433109D01*
X124553519Y-67433109D01*
X124674186Y-67663000D01*
X125868000Y-67663000D01*
X125868000Y-66469845D01*
X126122000Y-66469845D01*
X126122000Y-67663000D01*
X126142000Y-67663000D01*
X126142000Y-67917000D01*
X126122000Y-67917000D01*
X126122000Y-70203000D01*
X126142000Y-70203000D01*
X126142000Y-70457000D01*
X126122000Y-70457000D01*
X126122000Y-71650155D01*
X126351890Y-71771476D01*
X126499099Y-71726825D01*
X126761920Y-71601641D01*
X126995269Y-71427588D01*
X127190178Y-71211355D01*
X127321025Y-70991692D01*
X127465414Y-71207787D01*
X127657213Y-71399586D01*
X127882746Y-71550282D01*
X128133344Y-71654083D01*
X128399377Y-71707000D01*
X128670623Y-71707000D01*
X128936656Y-71654083D01*
X129187254Y-71550282D01*
X129412787Y-71399586D01*
X129604586Y-71207787D01*
X129755282Y-70982254D01*
X129805000Y-70862224D01*
X129854718Y-70982254D01*
X130005414Y-71207787D01*
X130197213Y-71399586D01*
X130422746Y-71550282D01*
X130673344Y-71654083D01*
X130939377Y-71707000D01*
X131210623Y-71707000D01*
X131476656Y-71654083D01*
X131727254Y-71550282D01*
X131952787Y-71399586D01*
X132144586Y-71207787D01*
X132295282Y-70982254D01*
X132345000Y-70862224D01*
X132394718Y-70982254D01*
X132545414Y-71207787D01*
X132737213Y-71399586D01*
X132962746Y-71550282D01*
X133213344Y-71654083D01*
X133479377Y-71707000D01*
X133750623Y-71707000D01*
X134016656Y-71654083D01*
X134267254Y-71550282D01*
X134492787Y-71399586D01*
X134684586Y-71207787D01*
X134835282Y-70982254D01*
X134885000Y-70862224D01*
X134934718Y-70982254D01*
X135085414Y-71207787D01*
X135277213Y-71399586D01*
X135502746Y-71550282D01*
X135753344Y-71654083D01*
X136019377Y-71707000D01*
X136290623Y-71707000D01*
X136556656Y-71654083D01*
X136807254Y-71550282D01*
X137032787Y-71399586D01*
X137224586Y-71207787D01*
X137375282Y-70982254D01*
X137425000Y-70862224D01*
X137474718Y-70982254D01*
X137625414Y-71207787D01*
X137817213Y-71399586D01*
X138042746Y-71550282D01*
X138293344Y-71654083D01*
X138559377Y-71707000D01*
X138830623Y-71707000D01*
X139096656Y-71654083D01*
X139347254Y-71550282D01*
X139572787Y-71399586D01*
X139764586Y-71207787D01*
X139915282Y-70982254D01*
X139965000Y-70862224D01*
X140014718Y-70982254D01*
X140165414Y-71207787D01*
X140357213Y-71399586D01*
X140582746Y-71550282D01*
X140833344Y-71654083D01*
X141099377Y-71707000D01*
X141370623Y-71707000D01*
X141636656Y-71654083D01*
X141887254Y-71550282D01*
X142112787Y-71399586D01*
X142304586Y-71207787D01*
X142455282Y-70982254D01*
X142505000Y-70862224D01*
X142554718Y-70982254D01*
X142705414Y-71207787D01*
X142897213Y-71399586D01*
X143122746Y-71550282D01*
X143373344Y-71654083D01*
X143639377Y-71707000D01*
X143910623Y-71707000D01*
X144176656Y-71654083D01*
X144427254Y-71550282D01*
X144652787Y-71399586D01*
X144844586Y-71207787D01*
X144995282Y-70982254D01*
X145045000Y-70862224D01*
X145094718Y-70982254D01*
X145245414Y-71207787D01*
X145437213Y-71399586D01*
X145662746Y-71550282D01*
X145913344Y-71654083D01*
X146179377Y-71707000D01*
X146450623Y-71707000D01*
X146716656Y-71654083D01*
X146967254Y-71550282D01*
X147192787Y-71399586D01*
X147384586Y-71207787D01*
X147535282Y-70982254D01*
X147585000Y-70862224D01*
X147634718Y-70982254D01*
X147785414Y-71207787D01*
X147977213Y-71399586D01*
X148202746Y-71550282D01*
X148453344Y-71654083D01*
X148719377Y-71707000D01*
X148990623Y-71707000D01*
X149256656Y-71654083D01*
X149507254Y-71550282D01*
X149732787Y-71399586D01*
X149924586Y-71207787D01*
X150075282Y-70982254D01*
X150125000Y-70862224D01*
X150174718Y-70982254D01*
X150325414Y-71207787D01*
X150517213Y-71399586D01*
X150742746Y-71550282D01*
X150993344Y-71654083D01*
X151259377Y-71707000D01*
X151530623Y-71707000D01*
X151796656Y-71654083D01*
X152047254Y-71550282D01*
X152272787Y-71399586D01*
X152464586Y-71207787D01*
X152615282Y-70982254D01*
X152665000Y-70862224D01*
X152714718Y-70982254D01*
X152865414Y-71207787D01*
X153057213Y-71399586D01*
X153282746Y-71550282D01*
X153533344Y-71654083D01*
X153799377Y-71707000D01*
X154070623Y-71707000D01*
X154336656Y-71654083D01*
X154587254Y-71550282D01*
X154812787Y-71399586D01*
X155004586Y-71207787D01*
X155155282Y-70982254D01*
X155205000Y-70862224D01*
X155254718Y-70982254D01*
X155405414Y-71207787D01*
X155597213Y-71399586D01*
X155822746Y-71550282D01*
X156073344Y-71654083D01*
X156339377Y-71707000D01*
X156610623Y-71707000D01*
X156876656Y-71654083D01*
X157127254Y-71550282D01*
X157352787Y-71399586D01*
X157544586Y-71207787D01*
X157695282Y-70982254D01*
X157745000Y-70862224D01*
X157794718Y-70982254D01*
X157945414Y-71207787D01*
X158137213Y-71399586D01*
X158362746Y-71550282D01*
X158613344Y-71654083D01*
X158879377Y-71707000D01*
X159150623Y-71707000D01*
X159416656Y-71654083D01*
X159667254Y-71550282D01*
X159892787Y-71399586D01*
X160084586Y-71207787D01*
X160235282Y-70982254D01*
X160285000Y-70862224D01*
X160334718Y-70982254D01*
X160485414Y-71207787D01*
X160677213Y-71399586D01*
X160902746Y-71550282D01*
X161153344Y-71654083D01*
X161419377Y-71707000D01*
X161690623Y-71707000D01*
X161956656Y-71654083D01*
X162207254Y-71550282D01*
X162432787Y-71399586D01*
X162624586Y-71207787D01*
X162775282Y-70982254D01*
X162825000Y-70862224D01*
X162874718Y-70982254D01*
X163025414Y-71207787D01*
X163217213Y-71399586D01*
X163442746Y-71550282D01*
X163693344Y-71654083D01*
X163959377Y-71707000D01*
X164230623Y-71707000D01*
X164496656Y-71654083D01*
X164747254Y-71550282D01*
X164972787Y-71399586D01*
X165164586Y-71207787D01*
X165315282Y-70982254D01*
X165365000Y-70862224D01*
X165414718Y-70982254D01*
X165565414Y-71207787D01*
X165757213Y-71399586D01*
X165982746Y-71550282D01*
X166233344Y-71654083D01*
X166499377Y-71707000D01*
X166770623Y-71707000D01*
X167036656Y-71654083D01*
X167287254Y-71550282D01*
X167512787Y-71399586D01*
X167704586Y-71207787D01*
X167855282Y-70982254D01*
X167905000Y-70862224D01*
X167954718Y-70982254D01*
X168105414Y-71207787D01*
X168297213Y-71399586D01*
X168522746Y-71550282D01*
X168773344Y-71654083D01*
X169039377Y-71707000D01*
X169310623Y-71707000D01*
X169576656Y-71654083D01*
X169827254Y-71550282D01*
X170052787Y-71399586D01*
X170244586Y-71207787D01*
X170395282Y-70982254D01*
X170445000Y-70862224D01*
X170494718Y-70982254D01*
X170645414Y-71207787D01*
X170837213Y-71399586D01*
X171062746Y-71550282D01*
X171313344Y-71654083D01*
X171579377Y-71707000D01*
X171850623Y-71707000D01*
X172116656Y-71654083D01*
X172367254Y-71550282D01*
X172592787Y-71399586D01*
X172784586Y-71207787D01*
X172935282Y-70982254D01*
X172985000Y-70862224D01*
X173034718Y-70982254D01*
X173185414Y-71207787D01*
X173377213Y-71399586D01*
X173602746Y-71550282D01*
X173853344Y-71654083D01*
X174119377Y-71707000D01*
X174390623Y-71707000D01*
X174656656Y-71654083D01*
X174907254Y-71550282D01*
X175132787Y-71399586D01*
X175324586Y-71207787D01*
X175475282Y-70982254D01*
X175579083Y-70731656D01*
X175632000Y-70465623D01*
X175632000Y-70194377D01*
X175579083Y-69928344D01*
X175475282Y-69677746D01*
X175324586Y-69452213D01*
X175132787Y-69260414D01*
X174996798Y-69169549D01*
X175105000Y-69169549D01*
X175208310Y-69159374D01*
X175307650Y-69129239D01*
X175399202Y-69080304D01*
X175479448Y-69014448D01*
X175545304Y-68934202D01*
X175594239Y-68842650D01*
X175624374Y-68743310D01*
X175634549Y-68640000D01*
X175634549Y-66940000D01*
X175624374Y-66836690D01*
X175594239Y-66737350D01*
X175545304Y-66645798D01*
X175479448Y-66565552D01*
X175399202Y-66499696D01*
X175307650Y-66450761D01*
X175208310Y-66420626D01*
X175105000Y-66410451D01*
X173405000Y-66410451D01*
X173301690Y-66420626D01*
X173202350Y-66450761D01*
X173110798Y-66499696D01*
X173030552Y-66565552D01*
X172964696Y-66645798D01*
X172915761Y-66737350D01*
X172885626Y-66836690D01*
X172875451Y-66940000D01*
X172875451Y-67048202D01*
X172784586Y-66912213D01*
X172592787Y-66720414D01*
X172367254Y-66569718D01*
X172116656Y-66465917D01*
X171850623Y-66413000D01*
X171579377Y-66413000D01*
X171313344Y-66465917D01*
X171062746Y-66569718D01*
X170837213Y-66720414D01*
X170645414Y-66912213D01*
X170494718Y-67137746D01*
X170445000Y-67257776D01*
X170395282Y-67137746D01*
X170244586Y-66912213D01*
X170052787Y-66720414D01*
X169827254Y-66569718D01*
X169576656Y-66465917D01*
X169310623Y-66413000D01*
X169039377Y-66413000D01*
X168773344Y-66465917D01*
X168522746Y-66569718D01*
X168297213Y-66720414D01*
X168105414Y-66912213D01*
X167954718Y-67137746D01*
X167905000Y-67257776D01*
X167855282Y-67137746D01*
X167704586Y-66912213D01*
X167512787Y-66720414D01*
X167287254Y-66569718D01*
X167036656Y-66465917D01*
X166770623Y-66413000D01*
X166499377Y-66413000D01*
X166233344Y-66465917D01*
X165982746Y-66569718D01*
X165757213Y-66720414D01*
X165565414Y-66912213D01*
X165414718Y-67137746D01*
X165365000Y-67257776D01*
X165315282Y-67137746D01*
X165164586Y-66912213D01*
X164972787Y-66720414D01*
X164747254Y-66569718D01*
X164496656Y-66465917D01*
X164230623Y-66413000D01*
X163959377Y-66413000D01*
X163693344Y-66465917D01*
X163442746Y-66569718D01*
X163217213Y-66720414D01*
X163025414Y-66912213D01*
X162874718Y-67137746D01*
X162825000Y-67257776D01*
X162775282Y-67137746D01*
X162624586Y-66912213D01*
X162432787Y-66720414D01*
X162207254Y-66569718D01*
X161956656Y-66465917D01*
X161690623Y-66413000D01*
X161419377Y-66413000D01*
X161153344Y-66465917D01*
X160902746Y-66569718D01*
X160677213Y-66720414D01*
X160485414Y-66912213D01*
X160334718Y-67137746D01*
X160285000Y-67257776D01*
X160235282Y-67137746D01*
X160084586Y-66912213D01*
X159892787Y-66720414D01*
X159667254Y-66569718D01*
X159416656Y-66465917D01*
X159150623Y-66413000D01*
X158879377Y-66413000D01*
X158613344Y-66465917D01*
X158362746Y-66569718D01*
X158137213Y-66720414D01*
X157945414Y-66912213D01*
X157794718Y-67137746D01*
X157745000Y-67257776D01*
X157695282Y-67137746D01*
X157544586Y-66912213D01*
X157352787Y-66720414D01*
X157127254Y-66569718D01*
X156876656Y-66465917D01*
X156610623Y-66413000D01*
X156339377Y-66413000D01*
X156073344Y-66465917D01*
X155822746Y-66569718D01*
X155597213Y-66720414D01*
X155405414Y-66912213D01*
X155254718Y-67137746D01*
X155205000Y-67257776D01*
X155155282Y-67137746D01*
X155004586Y-66912213D01*
X154812787Y-66720414D01*
X154587254Y-66569718D01*
X154336656Y-66465917D01*
X154070623Y-66413000D01*
X153799377Y-66413000D01*
X153533344Y-66465917D01*
X153282746Y-66569718D01*
X153057213Y-66720414D01*
X152865414Y-66912213D01*
X152714718Y-67137746D01*
X152665000Y-67257776D01*
X152615282Y-67137746D01*
X152464586Y-66912213D01*
X152272787Y-66720414D01*
X152047254Y-66569718D01*
X151796656Y-66465917D01*
X151530623Y-66413000D01*
X151259377Y-66413000D01*
X150993344Y-66465917D01*
X150742746Y-66569718D01*
X150517213Y-66720414D01*
X150325414Y-66912213D01*
X150174718Y-67137746D01*
X150125000Y-67257776D01*
X150075282Y-67137746D01*
X149924586Y-66912213D01*
X149732787Y-66720414D01*
X149507254Y-66569718D01*
X149256656Y-66465917D01*
X148990623Y-66413000D01*
X148719377Y-66413000D01*
X148453344Y-66465917D01*
X148202746Y-66569718D01*
X147977213Y-66720414D01*
X147785414Y-66912213D01*
X147634718Y-67137746D01*
X147585000Y-67257776D01*
X147535282Y-67137746D01*
X147384586Y-66912213D01*
X147192787Y-66720414D01*
X146967254Y-66569718D01*
X146716656Y-66465917D01*
X146450623Y-66413000D01*
X146179377Y-66413000D01*
X145913344Y-66465917D01*
X145662746Y-66569718D01*
X145437213Y-66720414D01*
X145245414Y-66912213D01*
X145094718Y-67137746D01*
X145045000Y-67257776D01*
X144995282Y-67137746D01*
X144844586Y-66912213D01*
X144652787Y-66720414D01*
X144427254Y-66569718D01*
X144176656Y-66465917D01*
X143910623Y-66413000D01*
X143639377Y-66413000D01*
X143373344Y-66465917D01*
X143122746Y-66569718D01*
X142897213Y-66720414D01*
X142705414Y-66912213D01*
X142554718Y-67137746D01*
X142505000Y-67257776D01*
X142455282Y-67137746D01*
X142304586Y-66912213D01*
X142112787Y-66720414D01*
X141887254Y-66569718D01*
X141636656Y-66465917D01*
X141370623Y-66413000D01*
X141099377Y-66413000D01*
X140833344Y-66465917D01*
X140582746Y-66569718D01*
X140357213Y-66720414D01*
X140165414Y-66912213D01*
X140014718Y-67137746D01*
X139965000Y-67257776D01*
X139915282Y-67137746D01*
X139764586Y-66912213D01*
X139572787Y-66720414D01*
X139347254Y-66569718D01*
X139096656Y-66465917D01*
X138830623Y-66413000D01*
X138559377Y-66413000D01*
X138293344Y-66465917D01*
X138042746Y-66569718D01*
X137817213Y-66720414D01*
X137625414Y-66912213D01*
X137474718Y-67137746D01*
X137425000Y-67257776D01*
X137375282Y-67137746D01*
X137224586Y-66912213D01*
X137032787Y-66720414D01*
X136807254Y-66569718D01*
X136556656Y-66465917D01*
X136290623Y-66413000D01*
X136019377Y-66413000D01*
X135753344Y-66465917D01*
X135502746Y-66569718D01*
X135277213Y-66720414D01*
X135085414Y-66912213D01*
X134934718Y-67137746D01*
X134885000Y-67257776D01*
X134835282Y-67137746D01*
X134684586Y-66912213D01*
X134492787Y-66720414D01*
X134267254Y-66569718D01*
X134016656Y-66465917D01*
X133750623Y-66413000D01*
X133479377Y-66413000D01*
X133213344Y-66465917D01*
X132962746Y-66569718D01*
X132737213Y-66720414D01*
X132545414Y-66912213D01*
X132394718Y-67137746D01*
X132345000Y-67257776D01*
X132295282Y-67137746D01*
X132144586Y-66912213D01*
X131952787Y-66720414D01*
X131727254Y-66569718D01*
X131476656Y-66465917D01*
X131210623Y-66413000D01*
X130939377Y-66413000D01*
X130673344Y-66465917D01*
X130422746Y-66569718D01*
X130197213Y-66720414D01*
X130005414Y-66912213D01*
X129854718Y-67137746D01*
X129805000Y-67257776D01*
X129755282Y-67137746D01*
X129604586Y-66912213D01*
X129412787Y-66720414D01*
X129187254Y-66569718D01*
X128936656Y-66465917D01*
X128670623Y-66413000D01*
X128399377Y-66413000D01*
X128133344Y-66465917D01*
X127882746Y-66569718D01*
X127657213Y-66720414D01*
X127465414Y-66912213D01*
X127321025Y-67128308D01*
X127190178Y-66908645D01*
X126995269Y-66692412D01*
X126761920Y-66518359D01*
X126499099Y-66393175D01*
X126351890Y-66348524D01*
X126122000Y-66469845D01*
X125868000Y-66469845D01*
X125638110Y-66348524D01*
X125490901Y-66393175D01*
X125228080Y-66518359D01*
X124994731Y-66692412D01*
X124799822Y-66908645D01*
X124650843Y-67158748D01*
X124553519Y-67433109D01*
X82752000Y-67433109D01*
X82752000Y-65747000D01*
X217498000Y-65747000D01*
X217498001Y-79289195D01*
%TD*%
M02*
