M48
; DRILL file {KiCad (5.1.6)-1} date 11/03/20 20:56:19
; FORMAT={-:-/ absolute / inch / decimal}
; #@! TF.CreationDate,2020-11-03T20:56:19+09:00
; #@! TF.GenerationSoftware,Kicad,Pcbnew,(5.1.6)-1
; #@! TF.FileFunction,Plated,1,2,PTH
FMAT,2
INCH
T1C0.0118
T2C0.0157
T3C0.0394
%
G90
G05
T1
X3.6368Y-3.3287
X3.6368Y-3.8209
X5.1801Y-3.5768
X5.6722Y-3.2224
X5.6762Y-3.5768
X5.6762Y-3.9311
X6.1644Y-3.5768
X7.7156Y-3.8209
X7.7161Y-3.3293
T2
X3.5148Y-3.0256
X3.7077Y-2.9154
X4.5472Y-3.2509
X4.6455Y-3.2531
X4.8465Y-3.2548
X4.9469Y-3.2544
X5.0463Y-3.7677
X5.0838Y-3.0842
X5.1467Y-3.8228
X5.1669Y-3.1157
X5.2219Y-3.1472
X5.281Y-3.1787
X5.2825Y-3.3602
X5.3248Y-3.748
X5.3583Y-3.7904
X5.7234Y-3.061
X5.8593Y-2.9587
X5.9596Y-2.8681
X6.0581Y-2.9193
X6.1604Y-2.8681
X6.4104Y-3.061
X6.5896Y-3.3602
X7.5226Y-2.9862
X7.5797Y-2.8957
T3
X4.3463Y-4.0114
X4.3463Y-4.1114
X4.4463Y-4.0114
X4.4463Y-4.1114
X4.5463Y-4.0114
X4.5463Y-4.1114
X4.6463Y-4.0114
X4.6463Y-4.1114
X4.7463Y-4.0114
X4.7463Y-4.1114
X4.8463Y-4.0114
X4.8463Y-4.1114
X4.9463Y-4.0114
X4.9463Y-4.1114
X5.0463Y-4.0114
X5.0463Y-4.1114
X5.1463Y-4.0114
X5.1463Y-4.1114
X5.2463Y-4.0114
X5.2463Y-4.1114
X4.9604Y-2.6689
X4.9604Y-2.7689
X5.0604Y-2.6689
X5.0604Y-2.7689
X5.1604Y-2.6689
X5.1604Y-2.7689
X5.2604Y-2.6689
X5.2604Y-2.7689
X5.3604Y-2.6689
X5.3604Y-2.7689
X5.4604Y-2.6689
X5.4604Y-2.7689
X5.5604Y-2.6689
X5.5604Y-2.7689
X5.6604Y-2.6689
X5.6604Y-2.7689
X5.7604Y-2.6689
X5.7604Y-2.7689
X5.8604Y-2.6689
X5.8604Y-2.7689
X5.9604Y-2.6689
X5.9604Y-2.7689
X6.0604Y-2.6689
X6.0604Y-2.7689
X6.1604Y-2.6689
X6.1604Y-2.7689
X6.2604Y-2.6689
X6.2604Y-2.7689
X6.3604Y-2.6689
X6.3604Y-2.7689
X6.4604Y-2.6689
X6.4604Y-2.7689
X6.5604Y-2.6689
X6.5604Y-2.7689
X6.6604Y-2.6689
X6.6604Y-2.7689
X6.7604Y-2.6689
X6.7604Y-2.7689
X6.8604Y-2.6689
X6.8604Y-2.7689
T0
M30
