%TF.GenerationSoftware,KiCad,Pcbnew,(5.1.6)-1*%
%TF.CreationDate,2020-11-03T20:56:16+09:00*%
%TF.ProjectId,FlightComputer-Keypad,466c6967-6874-4436-9f6d-70757465722d,rev?*%
%TF.SameCoordinates,Original*%
%TF.FileFunction,Soldermask,Bot*%
%TF.FilePolarity,Negative*%
%FSLAX46Y46*%
G04 Gerber Fmt 4.6, Leading zero omitted, Abs format (unit mm)*
G04 Created by KiCad (PCBNEW (5.1.6)-1) date 2020-11-03 20:56:16*
%MOMM*%
%LPD*%
G01*
G04 APERTURE LIST*
%ADD10O,1.700000X1.700000*%
%ADD11R,1.700000X1.700000*%
G04 APERTURE END LIST*
D10*
%TO.C,J2*%
X110395000Y-104430000D03*
X110395000Y-101890000D03*
X112935000Y-104430000D03*
X112935000Y-101890000D03*
X115475000Y-104430000D03*
X115475000Y-101890000D03*
X118015000Y-104430000D03*
X118015000Y-101890000D03*
X120555000Y-104430000D03*
X120555000Y-101890000D03*
X123095000Y-104430000D03*
X123095000Y-101890000D03*
X125635000Y-104430000D03*
X125635000Y-101890000D03*
X128175000Y-104430000D03*
X128175000Y-101890000D03*
X130715000Y-104430000D03*
X130715000Y-101890000D03*
X133255000Y-104430000D03*
D11*
X133255000Y-101890000D03*
%TD*%
D10*
%TO.C,J1*%
X125995000Y-70330000D03*
X125995000Y-67790000D03*
X128535000Y-70330000D03*
X128535000Y-67790000D03*
X131075000Y-70330000D03*
X131075000Y-67790000D03*
X133615000Y-70330000D03*
X133615000Y-67790000D03*
X136155000Y-70330000D03*
X136155000Y-67790000D03*
X138695000Y-70330000D03*
X138695000Y-67790000D03*
X141235000Y-70330000D03*
X141235000Y-67790000D03*
X143775000Y-70330000D03*
X143775000Y-67790000D03*
X146315000Y-70330000D03*
X146315000Y-67790000D03*
X148855000Y-70330000D03*
X148855000Y-67790000D03*
X151395000Y-70330000D03*
X151395000Y-67790000D03*
X153935000Y-70330000D03*
X153935000Y-67790000D03*
X156475000Y-70330000D03*
X156475000Y-67790000D03*
X159015000Y-70330000D03*
X159015000Y-67790000D03*
X161555000Y-70330000D03*
X161555000Y-67790000D03*
X164095000Y-70330000D03*
X164095000Y-67790000D03*
X166635000Y-70330000D03*
X166635000Y-67790000D03*
X169175000Y-70330000D03*
X169175000Y-67790000D03*
X171715000Y-70330000D03*
X171715000Y-67790000D03*
X174255000Y-70330000D03*
D11*
X174255000Y-67790000D03*
%TD*%
M02*
