%TF.GenerationSoftware,KiCad,Pcbnew,(5.1.7)-1*%
%TF.CreationDate,2020-12-08T16:49:31+09:00*%
%TF.ProjectId,FlightComputer-Booster,466c6967-6874-4436-9f6d-70757465722d,rev?*%
%TF.SameCoordinates,Original*%
%TF.FileFunction,Copper,L2,Bot*%
%TF.FilePolarity,Positive*%
%FSLAX46Y46*%
G04 Gerber Fmt 4.6, Leading zero omitted, Abs format (unit mm)*
G04 Created by KiCad (PCBNEW (5.1.7)-1) date 2020-12-08 16:49:31*
%MOMM*%
%LPD*%
G01*
G04 APERTURE LIST*
%TA.AperFunction,ComponentPad*%
%ADD10R,0.895000X1.470000*%
%TD*%
%TA.AperFunction,ViaPad*%
%ADD11C,0.500000*%
%TD*%
%TA.AperFunction,Conductor*%
%ADD12C,0.200000*%
%TD*%
%TA.AperFunction,Conductor*%
%ADD13C,0.100000*%
%TD*%
G04 APERTURE END LIST*
%TO.P,J3,1*%
%TO.N,Net-(J3-Pad1)*%
%TA.AperFunction,ComponentPad*%
G36*
G01*
X-34066000Y7872000D02*
X-34066000Y8892000D01*
G75*
G02*
X-33726000Y9232000I340000J0D01*
G01*
X-31806000Y9232000D01*
G75*
G02*
X-31466000Y8892000I0J-340000D01*
G01*
X-31466000Y7872000D01*
G75*
G02*
X-31806000Y7532000I-340000J0D01*
G01*
X-33726000Y7532000D01*
G75*
G02*
X-34066000Y7872000I0J340000D01*
G01*
G37*
%TD.AperFunction*%
%TD*%
%TO.P,J1,2*%
%TO.N,GND*%
%TA.AperFunction,ComponentPad*%
G36*
G01*
X-31775000Y24800000D02*
X-30755000Y24800000D01*
G75*
G02*
X-30415000Y24460000I0J-340000D01*
G01*
X-30415000Y22540000D01*
G75*
G02*
X-30755000Y22200000I-340000J0D01*
G01*
X-31775000Y22200000D01*
G75*
G02*
X-32115000Y22540000I0J340000D01*
G01*
X-32115000Y24460000D01*
G75*
G02*
X-31775000Y24800000I340000J0D01*
G01*
G37*
%TD.AperFunction*%
%TO.P,J1,1*%
%TO.N,VCC_BAT*%
%TA.AperFunction,ComponentPad*%
G36*
G01*
X-29235000Y24800000D02*
X-28215000Y24800000D01*
G75*
G02*
X-27875000Y24460000I0J-340000D01*
G01*
X-27875000Y22540000D01*
G75*
G02*
X-28215000Y22200000I-340000J0D01*
G01*
X-29235000Y22200000D01*
G75*
G02*
X-29575000Y22540000I0J340000D01*
G01*
X-29575000Y24460000D01*
G75*
G02*
X-29235000Y24800000I340000J0D01*
G01*
G37*
%TD.AperFunction*%
%TD*%
%TO.P,J2,2*%
%TO.N,GND*%
%TA.AperFunction,ComponentPad*%
G36*
G01*
X-16350000Y7200000D02*
X-15330000Y7200000D01*
G75*
G02*
X-14990000Y6860000I0J-340000D01*
G01*
X-14990000Y4940000D01*
G75*
G02*
X-15330000Y4600000I-340000J0D01*
G01*
X-16350000Y4600000D01*
G75*
G02*
X-16690000Y4940000I0J340000D01*
G01*
X-16690000Y6860000D01*
G75*
G02*
X-16350000Y7200000I340000J0D01*
G01*
G37*
%TD.AperFunction*%
%TO.P,J2,1*%
%TO.N,VCC_5V*%
%TA.AperFunction,ComponentPad*%
G36*
G01*
X-13810000Y7200000D02*
X-12790000Y7200000D01*
G75*
G02*
X-12450000Y6860000I0J-340000D01*
G01*
X-12450000Y4940000D01*
G75*
G02*
X-12790000Y4600000I-340000J0D01*
G01*
X-13810000Y4600000D01*
G75*
G02*
X-14150000Y4940000I0J340000D01*
G01*
X-14150000Y6860000D01*
G75*
G02*
X-13810000Y7200000I340000J0D01*
G01*
G37*
%TD.AperFunction*%
%TD*%
D10*
%TO.P,U1,17*%
%TO.N,GND*%
X-26917500Y15213000D03*
X-27812500Y15213000D03*
X-28707500Y15213000D03*
X-29602500Y15213000D03*
X-26917500Y13743000D03*
X-27812500Y13743000D03*
X-28707500Y13743000D03*
X-29602500Y13743000D03*
%TD*%
D11*
%TO.N,GND*%
X-29900000Y6700000D03*
X-29100000Y6700000D03*
X-28300000Y6700000D03*
X-27500000Y6700000D03*
X-26700000Y6700000D03*
X-25900000Y6700000D03*
X-27500000Y5900000D03*
X-29100000Y5900000D03*
X-25900000Y5900000D03*
X-29900000Y5900000D03*
X-26700000Y5900000D03*
X-28300000Y5900000D03*
X-29100000Y5100000D03*
X-26700000Y5100000D03*
X-27500000Y5100000D03*
X-28300000Y5100000D03*
X-29900000Y5100000D03*
X-25900000Y5100000D03*
X-32300000Y5900000D03*
X-33100000Y5100000D03*
X-30700000Y5900000D03*
X-32300000Y5100000D03*
X-31500000Y5900000D03*
X-33100000Y5900000D03*
X-31500000Y5100000D03*
X-30700000Y5100000D03*
X-32825000Y20425000D03*
X-33625000Y19625000D03*
X-32825000Y21225000D03*
X-33625000Y21225000D03*
X-32825000Y19625000D03*
X-33625000Y20425000D03*
X-32825000Y18850000D03*
X-33625000Y18850000D03*
X-31400000Y17250000D03*
X-30700000Y6700000D03*
X-32300000Y6700000D03*
X-33100000Y6700000D03*
X-31500000Y6700000D03*
X-32025000Y18850000D03*
X-32025000Y20425000D03*
X-32025000Y21225000D03*
X-32025000Y19625000D03*
%TD*%
D12*
%TO.N,GND*%
X-32455000Y23785000D02*
X-32370000Y23700000D01*
X-31465000Y23700000D01*
X-31465000Y23720000D01*
X-31065000Y23720000D01*
X-31065000Y23700000D01*
X-30160000Y23700000D01*
X-30075000Y23785000D01*
X-30073558Y24675000D01*
X-29836867Y24675000D01*
X-29864126Y24585141D01*
X-29876451Y24460000D01*
X-29876451Y22540000D01*
X-29864126Y22414859D01*
X-29827623Y22294527D01*
X-29768347Y22183629D01*
X-29688574Y22086426D01*
X-29591371Y22006653D01*
X-29480473Y21947377D01*
X-29360141Y21910874D01*
X-29235000Y21898549D01*
X-28215000Y21898549D01*
X-28089859Y21910874D01*
X-27969527Y21947377D01*
X-27858629Y22006653D01*
X-27761426Y22086426D01*
X-27681653Y22183629D01*
X-27622377Y22294527D01*
X-27585874Y22414859D01*
X-27573549Y22540000D01*
X-27573549Y24460000D01*
X-27585874Y24585141D01*
X-27613133Y24675000D01*
X-11525000Y24675000D01*
X-11524999Y4643000D01*
X-12224919Y4643000D01*
X-12197377Y4694527D01*
X-12160874Y4814859D01*
X-12148549Y4940000D01*
X-12148549Y6860000D01*
X-12160874Y6985141D01*
X-12197377Y7105473D01*
X-12256653Y7216371D01*
X-12336426Y7313574D01*
X-12433629Y7393347D01*
X-12544527Y7452623D01*
X-12664859Y7489126D01*
X-12790000Y7501451D01*
X-13810000Y7501451D01*
X-13935141Y7489126D01*
X-14055473Y7452623D01*
X-14166371Y7393347D01*
X-14263574Y7313574D01*
X-14343347Y7216371D01*
X-14402623Y7105473D01*
X-14439126Y6985141D01*
X-14451451Y6860000D01*
X-14451451Y4940000D01*
X-14439126Y4814859D01*
X-14402623Y4694527D01*
X-14375081Y4643000D01*
X-14648425Y4643000D01*
X-14650000Y5615000D01*
X-14735000Y5700000D01*
X-15640000Y5700000D01*
X-15640000Y5680000D01*
X-16040000Y5680000D01*
X-16040000Y5700000D01*
X-16945000Y5700000D01*
X-17030000Y5615000D01*
X-17031575Y4643000D01*
X-33965000Y4643000D01*
X-33965000Y7200000D01*
X-17031645Y7200000D01*
X-17030000Y6185000D01*
X-16945000Y6100000D01*
X-16040000Y6100000D01*
X-16040000Y7455000D01*
X-15640000Y7455000D01*
X-15640000Y6100000D01*
X-14735000Y6100000D01*
X-14650000Y6185000D01*
X-14648355Y7200000D01*
X-14654920Y7266652D01*
X-14674361Y7330742D01*
X-14705933Y7389808D01*
X-14748421Y7441579D01*
X-14800192Y7484067D01*
X-14859258Y7515639D01*
X-14923348Y7535080D01*
X-14990000Y7541645D01*
X-15555000Y7540000D01*
X-15640000Y7455000D01*
X-16040000Y7455000D01*
X-16125000Y7540000D01*
X-16690000Y7541645D01*
X-16756652Y7535080D01*
X-16820742Y7515639D01*
X-16879808Y7484067D01*
X-16931579Y7441579D01*
X-16974067Y7389808D01*
X-17005639Y7330742D01*
X-17025080Y7266652D01*
X-17031645Y7200000D01*
X-33965000Y7200000D01*
X-33965000Y7277413D01*
X-33851141Y7242874D01*
X-33726000Y7230549D01*
X-31806000Y7230549D01*
X-31680859Y7242874D01*
X-31560527Y7279377D01*
X-31449629Y7338653D01*
X-31352426Y7418426D01*
X-31272653Y7515629D01*
X-31213377Y7626527D01*
X-31176874Y7746859D01*
X-31164549Y7872000D01*
X-31164549Y8892000D01*
X-31176874Y9017141D01*
X-31213377Y9137473D01*
X-31272653Y9248371D01*
X-31352426Y9345574D01*
X-31449629Y9425347D01*
X-31560527Y9484623D01*
X-31680859Y9521126D01*
X-31806000Y9533451D01*
X-33726000Y9533451D01*
X-33851141Y9521126D01*
X-33965000Y9486587D01*
X-33965000Y13008000D01*
X-30391645Y13008000D01*
X-30385080Y12941348D01*
X-30365639Y12877258D01*
X-30334067Y12818192D01*
X-30291579Y12766421D01*
X-30239808Y12723933D01*
X-30180742Y12692361D01*
X-30116652Y12672920D01*
X-30050000Y12666355D01*
X-29887500Y12668000D01*
X-29802500Y12753000D01*
X-29802500Y13008000D01*
X-29496645Y13008000D01*
X-29490080Y12941348D01*
X-29470639Y12877258D01*
X-29439067Y12818192D01*
X-29402500Y12773636D01*
X-29402500Y12753000D01*
X-29317500Y12668000D01*
X-29155000Y12666355D01*
X-28992500Y12668000D01*
X-28907500Y12753000D01*
X-28907500Y12773636D01*
X-28870933Y12818192D01*
X-28839361Y12877258D01*
X-28819920Y12941348D01*
X-28813355Y13008000D01*
X-28601645Y13008000D01*
X-28595080Y12941348D01*
X-28575639Y12877258D01*
X-28544067Y12818192D01*
X-28507500Y12773636D01*
X-28507500Y12753000D01*
X-28422500Y12668000D01*
X-28260000Y12666355D01*
X-28097500Y12668000D01*
X-28012500Y12753000D01*
X-28012500Y12773636D01*
X-27975933Y12818192D01*
X-27944361Y12877258D01*
X-27924920Y12941348D01*
X-27918355Y13008000D01*
X-27706645Y13008000D01*
X-27700080Y12941348D01*
X-27680639Y12877258D01*
X-27649067Y12818192D01*
X-27612500Y12773636D01*
X-27612500Y12753000D01*
X-27527500Y12668000D01*
X-27365000Y12666355D01*
X-27202500Y12668000D01*
X-27117500Y12753000D01*
X-27117500Y12773636D01*
X-27080933Y12818192D01*
X-27049361Y12877258D01*
X-27029920Y12941348D01*
X-27023355Y13008000D01*
X-27025000Y13458000D01*
X-27110000Y13543000D01*
X-26717500Y13543000D01*
X-26717500Y12753000D01*
X-26632500Y12668000D01*
X-26470000Y12666355D01*
X-26403348Y12672920D01*
X-26339258Y12692361D01*
X-26280192Y12723933D01*
X-26228421Y12766421D01*
X-26185933Y12818192D01*
X-26154361Y12877258D01*
X-26134920Y12941348D01*
X-26128355Y13008000D01*
X-26130000Y13458000D01*
X-26215000Y13543000D01*
X-26717500Y13543000D01*
X-27110000Y13543000D01*
X-27620000Y13543000D01*
X-27705000Y13458000D01*
X-27706645Y13008000D01*
X-27918355Y13008000D01*
X-27920000Y13458000D01*
X-28005000Y13543000D01*
X-28515000Y13543000D01*
X-28600000Y13458000D01*
X-28601645Y13008000D01*
X-28813355Y13008000D01*
X-28815000Y13458000D01*
X-28900000Y13543000D01*
X-29410000Y13543000D01*
X-29495000Y13458000D01*
X-29496645Y13008000D01*
X-29802500Y13008000D01*
X-29802500Y13543000D01*
X-30305000Y13543000D01*
X-30390000Y13458000D01*
X-30391645Y13008000D01*
X-33965000Y13008000D01*
X-33965000Y14478000D01*
X-30391645Y14478000D01*
X-30390000Y14028000D01*
X-30305000Y13943000D01*
X-29802500Y13943000D01*
X-29802500Y14478000D01*
X-29496645Y14478000D01*
X-29495000Y14028000D01*
X-29410000Y13943000D01*
X-28900000Y13943000D01*
X-28815000Y14028000D01*
X-28813355Y14478000D01*
X-28601645Y14478000D01*
X-28600000Y14028000D01*
X-28515000Y13943000D01*
X-28005000Y13943000D01*
X-27920000Y14028000D01*
X-27918355Y14478000D01*
X-27706645Y14478000D01*
X-27705000Y14028000D01*
X-27620000Y13943000D01*
X-27110000Y13943000D01*
X-27025000Y14028000D01*
X-27023355Y14478000D01*
X-27025000Y14928000D01*
X-27110000Y15013000D01*
X-26717500Y15013000D01*
X-26717500Y13943000D01*
X-26215000Y13943000D01*
X-26130000Y14028000D01*
X-26128355Y14478000D01*
X-26130000Y14928000D01*
X-26215000Y15013000D01*
X-26717500Y15013000D01*
X-27110000Y15013000D01*
X-27620000Y15013000D01*
X-27705000Y14928000D01*
X-27706645Y14478000D01*
X-27918355Y14478000D01*
X-27920000Y14928000D01*
X-28005000Y15013000D01*
X-28515000Y15013000D01*
X-28600000Y14928000D01*
X-28601645Y14478000D01*
X-28813355Y14478000D01*
X-28815000Y14928000D01*
X-28900000Y15013000D01*
X-29410000Y15013000D01*
X-29495000Y14928000D01*
X-29496645Y14478000D01*
X-29802500Y14478000D01*
X-29802500Y15013000D01*
X-30305000Y15013000D01*
X-30390000Y14928000D01*
X-30391645Y14478000D01*
X-33965000Y14478000D01*
X-33965000Y15948000D01*
X-30391645Y15948000D01*
X-30390000Y15498000D01*
X-30305000Y15413000D01*
X-29802500Y15413000D01*
X-29802500Y15948000D01*
X-29496645Y15948000D01*
X-29495000Y15498000D01*
X-29410000Y15413000D01*
X-28900000Y15413000D01*
X-28815000Y15498000D01*
X-28813355Y15948000D01*
X-28601645Y15948000D01*
X-28600000Y15498000D01*
X-28515000Y15413000D01*
X-28005000Y15413000D01*
X-27920000Y15498000D01*
X-27918355Y15948000D01*
X-27706645Y15948000D01*
X-27705000Y15498000D01*
X-27620000Y15413000D01*
X-27110000Y15413000D01*
X-27025000Y15498000D01*
X-27023355Y15948000D01*
X-27029920Y16014652D01*
X-27049361Y16078742D01*
X-27080933Y16137808D01*
X-27117500Y16182364D01*
X-27117500Y16203000D01*
X-26717500Y16203000D01*
X-26717500Y15413000D01*
X-26215000Y15413000D01*
X-26130000Y15498000D01*
X-26128355Y15948000D01*
X-26134920Y16014652D01*
X-26154361Y16078742D01*
X-26185933Y16137808D01*
X-26228421Y16189579D01*
X-26280192Y16232067D01*
X-26339258Y16263639D01*
X-26403348Y16283080D01*
X-26470000Y16289645D01*
X-26632500Y16288000D01*
X-26717500Y16203000D01*
X-27117500Y16203000D01*
X-27202500Y16288000D01*
X-27365000Y16289645D01*
X-27527500Y16288000D01*
X-27612500Y16203000D01*
X-27612500Y16182364D01*
X-27649067Y16137808D01*
X-27680639Y16078742D01*
X-27700080Y16014652D01*
X-27706645Y15948000D01*
X-27918355Y15948000D01*
X-27924920Y16014652D01*
X-27944361Y16078742D01*
X-27975933Y16137808D01*
X-28012500Y16182364D01*
X-28012500Y16203000D01*
X-28097500Y16288000D01*
X-28260000Y16289645D01*
X-28422500Y16288000D01*
X-28507500Y16203000D01*
X-28507500Y16182364D01*
X-28544067Y16137808D01*
X-28575639Y16078742D01*
X-28595080Y16014652D01*
X-28601645Y15948000D01*
X-28813355Y15948000D01*
X-28819920Y16014652D01*
X-28839361Y16078742D01*
X-28870933Y16137808D01*
X-28907500Y16182364D01*
X-28907500Y16203000D01*
X-28992500Y16288000D01*
X-29155000Y16289645D01*
X-29317500Y16288000D01*
X-29402500Y16203000D01*
X-29402500Y16182364D01*
X-29439067Y16137808D01*
X-29470639Y16078742D01*
X-29490080Y16014652D01*
X-29496645Y15948000D01*
X-29802500Y15948000D01*
X-29802500Y16203000D01*
X-29887500Y16288000D01*
X-30050000Y16289645D01*
X-30116652Y16283080D01*
X-30180742Y16263639D01*
X-30239808Y16232067D01*
X-30291579Y16189579D01*
X-30334067Y16137808D01*
X-30365639Y16078742D01*
X-30385080Y16014652D01*
X-30391645Y15948000D01*
X-33965000Y15948000D01*
X-33965000Y22200000D01*
X-32456645Y22200000D01*
X-32450080Y22133348D01*
X-32430639Y22069258D01*
X-32399067Y22010192D01*
X-32356579Y21958421D01*
X-32304808Y21915933D01*
X-32245742Y21884361D01*
X-32181652Y21864920D01*
X-32115000Y21858355D01*
X-31550000Y21860000D01*
X-31465000Y21945000D01*
X-31465000Y23300000D01*
X-31065000Y23300000D01*
X-31065000Y21945000D01*
X-30980000Y21860000D01*
X-30415000Y21858355D01*
X-30348348Y21864920D01*
X-30284258Y21884361D01*
X-30225192Y21915933D01*
X-30173421Y21958421D01*
X-30130933Y22010192D01*
X-30099361Y22069258D01*
X-30079920Y22133348D01*
X-30073355Y22200000D01*
X-30075000Y23215000D01*
X-30160000Y23300000D01*
X-31065000Y23300000D01*
X-31465000Y23300000D01*
X-32370000Y23300000D01*
X-32455000Y23215000D01*
X-32456645Y22200000D01*
X-33965000Y22200000D01*
X-33965000Y24675000D01*
X-32456442Y24675000D01*
X-32455000Y23785000D01*
%TA.AperFunction,Conductor*%
D13*
G36*
X-32455000Y23785000D02*
G01*
X-32370000Y23700000D01*
X-31465000Y23700000D01*
X-31465000Y23720000D01*
X-31065000Y23720000D01*
X-31065000Y23700000D01*
X-30160000Y23700000D01*
X-30075000Y23785000D01*
X-30073558Y24675000D01*
X-29836867Y24675000D01*
X-29864126Y24585141D01*
X-29876451Y24460000D01*
X-29876451Y22540000D01*
X-29864126Y22414859D01*
X-29827623Y22294527D01*
X-29768347Y22183629D01*
X-29688574Y22086426D01*
X-29591371Y22006653D01*
X-29480473Y21947377D01*
X-29360141Y21910874D01*
X-29235000Y21898549D01*
X-28215000Y21898549D01*
X-28089859Y21910874D01*
X-27969527Y21947377D01*
X-27858629Y22006653D01*
X-27761426Y22086426D01*
X-27681653Y22183629D01*
X-27622377Y22294527D01*
X-27585874Y22414859D01*
X-27573549Y22540000D01*
X-27573549Y24460000D01*
X-27585874Y24585141D01*
X-27613133Y24675000D01*
X-11525000Y24675000D01*
X-11524999Y4643000D01*
X-12224919Y4643000D01*
X-12197377Y4694527D01*
X-12160874Y4814859D01*
X-12148549Y4940000D01*
X-12148549Y6860000D01*
X-12160874Y6985141D01*
X-12197377Y7105473D01*
X-12256653Y7216371D01*
X-12336426Y7313574D01*
X-12433629Y7393347D01*
X-12544527Y7452623D01*
X-12664859Y7489126D01*
X-12790000Y7501451D01*
X-13810000Y7501451D01*
X-13935141Y7489126D01*
X-14055473Y7452623D01*
X-14166371Y7393347D01*
X-14263574Y7313574D01*
X-14343347Y7216371D01*
X-14402623Y7105473D01*
X-14439126Y6985141D01*
X-14451451Y6860000D01*
X-14451451Y4940000D01*
X-14439126Y4814859D01*
X-14402623Y4694527D01*
X-14375081Y4643000D01*
X-14648425Y4643000D01*
X-14650000Y5615000D01*
X-14735000Y5700000D01*
X-15640000Y5700000D01*
X-15640000Y5680000D01*
X-16040000Y5680000D01*
X-16040000Y5700000D01*
X-16945000Y5700000D01*
X-17030000Y5615000D01*
X-17031575Y4643000D01*
X-33965000Y4643000D01*
X-33965000Y7200000D01*
X-17031645Y7200000D01*
X-17030000Y6185000D01*
X-16945000Y6100000D01*
X-16040000Y6100000D01*
X-16040000Y7455000D01*
X-15640000Y7455000D01*
X-15640000Y6100000D01*
X-14735000Y6100000D01*
X-14650000Y6185000D01*
X-14648355Y7200000D01*
X-14654920Y7266652D01*
X-14674361Y7330742D01*
X-14705933Y7389808D01*
X-14748421Y7441579D01*
X-14800192Y7484067D01*
X-14859258Y7515639D01*
X-14923348Y7535080D01*
X-14990000Y7541645D01*
X-15555000Y7540000D01*
X-15640000Y7455000D01*
X-16040000Y7455000D01*
X-16125000Y7540000D01*
X-16690000Y7541645D01*
X-16756652Y7535080D01*
X-16820742Y7515639D01*
X-16879808Y7484067D01*
X-16931579Y7441579D01*
X-16974067Y7389808D01*
X-17005639Y7330742D01*
X-17025080Y7266652D01*
X-17031645Y7200000D01*
X-33965000Y7200000D01*
X-33965000Y7277413D01*
X-33851141Y7242874D01*
X-33726000Y7230549D01*
X-31806000Y7230549D01*
X-31680859Y7242874D01*
X-31560527Y7279377D01*
X-31449629Y7338653D01*
X-31352426Y7418426D01*
X-31272653Y7515629D01*
X-31213377Y7626527D01*
X-31176874Y7746859D01*
X-31164549Y7872000D01*
X-31164549Y8892000D01*
X-31176874Y9017141D01*
X-31213377Y9137473D01*
X-31272653Y9248371D01*
X-31352426Y9345574D01*
X-31449629Y9425347D01*
X-31560527Y9484623D01*
X-31680859Y9521126D01*
X-31806000Y9533451D01*
X-33726000Y9533451D01*
X-33851141Y9521126D01*
X-33965000Y9486587D01*
X-33965000Y13008000D01*
X-30391645Y13008000D01*
X-30385080Y12941348D01*
X-30365639Y12877258D01*
X-30334067Y12818192D01*
X-30291579Y12766421D01*
X-30239808Y12723933D01*
X-30180742Y12692361D01*
X-30116652Y12672920D01*
X-30050000Y12666355D01*
X-29887500Y12668000D01*
X-29802500Y12753000D01*
X-29802500Y13008000D01*
X-29496645Y13008000D01*
X-29490080Y12941348D01*
X-29470639Y12877258D01*
X-29439067Y12818192D01*
X-29402500Y12773636D01*
X-29402500Y12753000D01*
X-29317500Y12668000D01*
X-29155000Y12666355D01*
X-28992500Y12668000D01*
X-28907500Y12753000D01*
X-28907500Y12773636D01*
X-28870933Y12818192D01*
X-28839361Y12877258D01*
X-28819920Y12941348D01*
X-28813355Y13008000D01*
X-28601645Y13008000D01*
X-28595080Y12941348D01*
X-28575639Y12877258D01*
X-28544067Y12818192D01*
X-28507500Y12773636D01*
X-28507500Y12753000D01*
X-28422500Y12668000D01*
X-28260000Y12666355D01*
X-28097500Y12668000D01*
X-28012500Y12753000D01*
X-28012500Y12773636D01*
X-27975933Y12818192D01*
X-27944361Y12877258D01*
X-27924920Y12941348D01*
X-27918355Y13008000D01*
X-27706645Y13008000D01*
X-27700080Y12941348D01*
X-27680639Y12877258D01*
X-27649067Y12818192D01*
X-27612500Y12773636D01*
X-27612500Y12753000D01*
X-27527500Y12668000D01*
X-27365000Y12666355D01*
X-27202500Y12668000D01*
X-27117500Y12753000D01*
X-27117500Y12773636D01*
X-27080933Y12818192D01*
X-27049361Y12877258D01*
X-27029920Y12941348D01*
X-27023355Y13008000D01*
X-27025000Y13458000D01*
X-27110000Y13543000D01*
X-26717500Y13543000D01*
X-26717500Y12753000D01*
X-26632500Y12668000D01*
X-26470000Y12666355D01*
X-26403348Y12672920D01*
X-26339258Y12692361D01*
X-26280192Y12723933D01*
X-26228421Y12766421D01*
X-26185933Y12818192D01*
X-26154361Y12877258D01*
X-26134920Y12941348D01*
X-26128355Y13008000D01*
X-26130000Y13458000D01*
X-26215000Y13543000D01*
X-26717500Y13543000D01*
X-27110000Y13543000D01*
X-27620000Y13543000D01*
X-27705000Y13458000D01*
X-27706645Y13008000D01*
X-27918355Y13008000D01*
X-27920000Y13458000D01*
X-28005000Y13543000D01*
X-28515000Y13543000D01*
X-28600000Y13458000D01*
X-28601645Y13008000D01*
X-28813355Y13008000D01*
X-28815000Y13458000D01*
X-28900000Y13543000D01*
X-29410000Y13543000D01*
X-29495000Y13458000D01*
X-29496645Y13008000D01*
X-29802500Y13008000D01*
X-29802500Y13543000D01*
X-30305000Y13543000D01*
X-30390000Y13458000D01*
X-30391645Y13008000D01*
X-33965000Y13008000D01*
X-33965000Y14478000D01*
X-30391645Y14478000D01*
X-30390000Y14028000D01*
X-30305000Y13943000D01*
X-29802500Y13943000D01*
X-29802500Y14478000D01*
X-29496645Y14478000D01*
X-29495000Y14028000D01*
X-29410000Y13943000D01*
X-28900000Y13943000D01*
X-28815000Y14028000D01*
X-28813355Y14478000D01*
X-28601645Y14478000D01*
X-28600000Y14028000D01*
X-28515000Y13943000D01*
X-28005000Y13943000D01*
X-27920000Y14028000D01*
X-27918355Y14478000D01*
X-27706645Y14478000D01*
X-27705000Y14028000D01*
X-27620000Y13943000D01*
X-27110000Y13943000D01*
X-27025000Y14028000D01*
X-27023355Y14478000D01*
X-27025000Y14928000D01*
X-27110000Y15013000D01*
X-26717500Y15013000D01*
X-26717500Y13943000D01*
X-26215000Y13943000D01*
X-26130000Y14028000D01*
X-26128355Y14478000D01*
X-26130000Y14928000D01*
X-26215000Y15013000D01*
X-26717500Y15013000D01*
X-27110000Y15013000D01*
X-27620000Y15013000D01*
X-27705000Y14928000D01*
X-27706645Y14478000D01*
X-27918355Y14478000D01*
X-27920000Y14928000D01*
X-28005000Y15013000D01*
X-28515000Y15013000D01*
X-28600000Y14928000D01*
X-28601645Y14478000D01*
X-28813355Y14478000D01*
X-28815000Y14928000D01*
X-28900000Y15013000D01*
X-29410000Y15013000D01*
X-29495000Y14928000D01*
X-29496645Y14478000D01*
X-29802500Y14478000D01*
X-29802500Y15013000D01*
X-30305000Y15013000D01*
X-30390000Y14928000D01*
X-30391645Y14478000D01*
X-33965000Y14478000D01*
X-33965000Y15948000D01*
X-30391645Y15948000D01*
X-30390000Y15498000D01*
X-30305000Y15413000D01*
X-29802500Y15413000D01*
X-29802500Y15948000D01*
X-29496645Y15948000D01*
X-29495000Y15498000D01*
X-29410000Y15413000D01*
X-28900000Y15413000D01*
X-28815000Y15498000D01*
X-28813355Y15948000D01*
X-28601645Y15948000D01*
X-28600000Y15498000D01*
X-28515000Y15413000D01*
X-28005000Y15413000D01*
X-27920000Y15498000D01*
X-27918355Y15948000D01*
X-27706645Y15948000D01*
X-27705000Y15498000D01*
X-27620000Y15413000D01*
X-27110000Y15413000D01*
X-27025000Y15498000D01*
X-27023355Y15948000D01*
X-27029920Y16014652D01*
X-27049361Y16078742D01*
X-27080933Y16137808D01*
X-27117500Y16182364D01*
X-27117500Y16203000D01*
X-26717500Y16203000D01*
X-26717500Y15413000D01*
X-26215000Y15413000D01*
X-26130000Y15498000D01*
X-26128355Y15948000D01*
X-26134920Y16014652D01*
X-26154361Y16078742D01*
X-26185933Y16137808D01*
X-26228421Y16189579D01*
X-26280192Y16232067D01*
X-26339258Y16263639D01*
X-26403348Y16283080D01*
X-26470000Y16289645D01*
X-26632500Y16288000D01*
X-26717500Y16203000D01*
X-27117500Y16203000D01*
X-27202500Y16288000D01*
X-27365000Y16289645D01*
X-27527500Y16288000D01*
X-27612500Y16203000D01*
X-27612500Y16182364D01*
X-27649067Y16137808D01*
X-27680639Y16078742D01*
X-27700080Y16014652D01*
X-27706645Y15948000D01*
X-27918355Y15948000D01*
X-27924920Y16014652D01*
X-27944361Y16078742D01*
X-27975933Y16137808D01*
X-28012500Y16182364D01*
X-28012500Y16203000D01*
X-28097500Y16288000D01*
X-28260000Y16289645D01*
X-28422500Y16288000D01*
X-28507500Y16203000D01*
X-28507500Y16182364D01*
X-28544067Y16137808D01*
X-28575639Y16078742D01*
X-28595080Y16014652D01*
X-28601645Y15948000D01*
X-28813355Y15948000D01*
X-28819920Y16014652D01*
X-28839361Y16078742D01*
X-28870933Y16137808D01*
X-28907500Y16182364D01*
X-28907500Y16203000D01*
X-28992500Y16288000D01*
X-29155000Y16289645D01*
X-29317500Y16288000D01*
X-29402500Y16203000D01*
X-29402500Y16182364D01*
X-29439067Y16137808D01*
X-29470639Y16078742D01*
X-29490080Y16014652D01*
X-29496645Y15948000D01*
X-29802500Y15948000D01*
X-29802500Y16203000D01*
X-29887500Y16288000D01*
X-30050000Y16289645D01*
X-30116652Y16283080D01*
X-30180742Y16263639D01*
X-30239808Y16232067D01*
X-30291579Y16189579D01*
X-30334067Y16137808D01*
X-30365639Y16078742D01*
X-30385080Y16014652D01*
X-30391645Y15948000D01*
X-33965000Y15948000D01*
X-33965000Y22200000D01*
X-32456645Y22200000D01*
X-32450080Y22133348D01*
X-32430639Y22069258D01*
X-32399067Y22010192D01*
X-32356579Y21958421D01*
X-32304808Y21915933D01*
X-32245742Y21884361D01*
X-32181652Y21864920D01*
X-32115000Y21858355D01*
X-31550000Y21860000D01*
X-31465000Y21945000D01*
X-31465000Y23300000D01*
X-31065000Y23300000D01*
X-31065000Y21945000D01*
X-30980000Y21860000D01*
X-30415000Y21858355D01*
X-30348348Y21864920D01*
X-30284258Y21884361D01*
X-30225192Y21915933D01*
X-30173421Y21958421D01*
X-30130933Y22010192D01*
X-30099361Y22069258D01*
X-30079920Y22133348D01*
X-30073355Y22200000D01*
X-30075000Y23215000D01*
X-30160000Y23300000D01*
X-31065000Y23300000D01*
X-31465000Y23300000D01*
X-32370000Y23300000D01*
X-32455000Y23215000D01*
X-32456645Y22200000D01*
X-33965000Y22200000D01*
X-33965000Y24675000D01*
X-32456442Y24675000D01*
X-32455000Y23785000D01*
G37*
%TD.AperFunction*%
%TD*%
M02*
