%TF.GenerationSoftware,KiCad,Pcbnew,(5.1.7)-1*%
%TF.CreationDate,2020-12-08T16:49:31+09:00*%
%TF.ProjectId,FlightComputer-Booster,466c6967-6874-4436-9f6d-70757465722d,rev?*%
%TF.SameCoordinates,Original*%
%TF.FileFunction,Legend,Top*%
%TF.FilePolarity,Positive*%
%FSLAX46Y46*%
G04 Gerber Fmt 4.6, Leading zero omitted, Abs format (unit mm)*
G04 Created by KiCad (PCBNEW (5.1.7)-1) date 2020-12-08 16:49:31*
%MOMM*%
%LPD*%
G01*
G04 APERTURE LIST*
%ADD10C,0.040000*%
%ADD11C,0.120000*%
%ADD12C,0.150000*%
G04 APERTURE END LIST*
D10*
X-16206666Y7954285D02*
X-15719047Y7954285D01*
X-14621904Y8350476D02*
X-14926666Y8350476D01*
X-14957142Y8045714D01*
X-14926666Y8076190D01*
X-14865714Y8106666D01*
X-14713333Y8106666D01*
X-14652380Y8076190D01*
X-14621904Y8045714D01*
X-14591428Y7984761D01*
X-14591428Y7832380D01*
X-14621904Y7771428D01*
X-14652380Y7740952D01*
X-14713333Y7710476D01*
X-14865714Y7710476D01*
X-14926666Y7740952D01*
X-14957142Y7771428D01*
X-14408571Y8350476D02*
X-14195238Y7710476D01*
X-13981904Y8350476D01*
X-13280952Y7954285D02*
X-12793333Y7954285D01*
X-13037142Y7710476D02*
X-13037142Y8198095D01*
X-31843809Y21454285D02*
X-31356190Y21454285D01*
X-30655238Y21850476D02*
X-30441904Y21210476D01*
X-30228571Y21850476D01*
X-30015238Y21210476D02*
X-30015238Y21637142D01*
X-30015238Y21850476D02*
X-30045714Y21820000D01*
X-30015238Y21789523D01*
X-29984761Y21820000D01*
X-30015238Y21850476D01*
X-30015238Y21789523D01*
X-29710476Y21637142D02*
X-29710476Y21210476D01*
X-29710476Y21576190D02*
X-29680000Y21606666D01*
X-29619047Y21637142D01*
X-29527619Y21637142D01*
X-29466666Y21606666D01*
X-29436190Y21545714D01*
X-29436190Y21210476D01*
X-28643809Y21454285D02*
X-28156190Y21454285D01*
X-28400000Y21210476D02*
X-28400000Y21698095D01*
D11*
%TO.C,J3*%
X-34296000Y9382000D02*
X-31266000Y9382000D01*
X-34266000Y7282000D02*
X-31266000Y7282000D01*
X-31266000Y9382000D02*
X-31266000Y7282000D01*
%TO.C,J1*%
X-30225000Y24900000D02*
X-30225000Y22000000D01*
X-30225000Y22000000D02*
X-32325000Y22000000D01*
X-32325000Y24900000D02*
X-32325000Y22000000D01*
X-27625000Y24900000D02*
X-27625000Y22000000D01*
X-27625000Y22000000D02*
X-29725000Y22000000D01*
X-29725000Y24900000D02*
X-29725000Y22000000D01*
%TO.C,J2*%
X-12200000Y7400000D02*
X-12200000Y4400000D01*
X-14300000Y7400000D02*
X-12200000Y7400000D01*
X-14800000Y7400000D02*
X-14800000Y4400000D01*
X-14800000Y7400000D02*
X-16900000Y7400000D01*
X-16900000Y7400000D02*
X-16900000Y4400000D01*
X-14300000Y4400000D02*
X-14300000Y7400000D01*
D12*
%TO.C,U1*%
X-25435000Y17853000D02*
X-25435000Y12228000D01*
X-30985000Y16728000D02*
X-30985000Y12228000D01*
D11*
%TO.C,L1*%
X-11734000Y11226000D02*
X-14734000Y11226000D01*
X-11734000Y23826000D02*
X-11734000Y11226000D01*
X-14734000Y23826000D02*
X-11734000Y23826000D01*
X-24334000Y23826000D02*
X-21334000Y23826000D01*
X-24334000Y11226000D02*
X-24334000Y23826000D01*
X-21334000Y11226000D02*
X-24334000Y11226000D01*
%TO.C,C5*%
X-24980000Y9805000D02*
X-24980000Y5420000D01*
X-21960000Y9805000D02*
X-24980000Y9805000D01*
X-21960000Y5420000D02*
X-21960000Y9805000D01*
%TO.C,R8*%
X-31870000Y12782379D02*
X-31870000Y13117621D01*
X-32630000Y12782379D02*
X-32630000Y13117621D01*
%TO.C,R7*%
X-33148000Y15650379D02*
X-33148000Y15985621D01*
X-33908000Y15650379D02*
X-33908000Y15985621D01*
%TO.C,R5*%
X-29590000Y8637621D02*
X-29590000Y8302379D01*
X-28830000Y8637621D02*
X-28830000Y8302379D01*
%TO.C,R4*%
X-31878000Y15650379D02*
X-31878000Y15985621D01*
X-32638000Y15650379D02*
X-32638000Y15985621D01*
%TO.C,R2*%
X-28320000Y8647621D02*
X-28320000Y8312379D01*
X-27560000Y8647621D02*
X-27560000Y8312379D01*
%TO.C,R1*%
X-33145000Y12782379D02*
X-33145000Y13117621D01*
X-33905000Y12782379D02*
X-33905000Y13117621D01*
%TO.C,C4*%
X-29684165Y19156000D02*
X-29915835Y19156000D01*
X-29684165Y18436000D02*
X-29915835Y18436000D01*
%TO.C,C3*%
X-28115000Y21085000D02*
X-30600000Y21085000D01*
X-28115000Y19515000D02*
X-28115000Y21085000D01*
X-30600000Y19515000D02*
X-28115000Y19515000D01*
%TO.C,C2*%
X-21130000Y9805000D02*
X-21130000Y5420000D01*
X-18110000Y9805000D02*
X-21130000Y9805000D01*
X-18110000Y5420000D02*
X-18110000Y9805000D01*
%TO.C,C1*%
X-26990000Y8645835D02*
X-26990000Y8414165D01*
X-26270000Y8645835D02*
X-26270000Y8414165D01*
%TO.C,J3*%
D10*
X-33900000Y10228571D02*
X-33900000Y9800000D01*
X-33928571Y9714285D01*
X-33985714Y9657142D01*
X-34071428Y9628571D01*
X-34128571Y9628571D01*
X-33671428Y10228571D02*
X-33300000Y10228571D01*
X-33500000Y10000000D01*
X-33414285Y10000000D01*
X-33357142Y9971428D01*
X-33328571Y9942857D01*
X-33300000Y9885714D01*
X-33300000Y9742857D01*
X-33328571Y9685714D01*
X-33357142Y9657142D01*
X-33414285Y9628571D01*
X-33585714Y9628571D01*
X-33642857Y9657142D01*
X-33671428Y9685714D01*
%TO.C,J1*%
X-27100000Y22628571D02*
X-27100000Y22200000D01*
X-27128571Y22114285D01*
X-27185714Y22057142D01*
X-27271428Y22028571D01*
X-27328571Y22028571D01*
X-26500000Y22028571D02*
X-26842857Y22028571D01*
X-26671428Y22028571D02*
X-26671428Y22628571D01*
X-26728571Y22542857D01*
X-26785714Y22485714D01*
X-26842857Y22457142D01*
%TO.C,J2*%
X-17800000Y5228571D02*
X-17800000Y4800000D01*
X-17828571Y4714285D01*
X-17885714Y4657142D01*
X-17971428Y4628571D01*
X-18028571Y4628571D01*
X-17542857Y5171428D02*
X-17514285Y5200000D01*
X-17457142Y5228571D01*
X-17314285Y5228571D01*
X-17257142Y5200000D01*
X-17228571Y5171428D01*
X-17200000Y5114285D01*
X-17200000Y5057142D01*
X-17228571Y4971428D01*
X-17571428Y4628571D01*
X-17200000Y4628571D01*
%TO.C,U1*%
X-26365142Y18870571D02*
X-26365142Y18384857D01*
X-26336571Y18327714D01*
X-26308000Y18299142D01*
X-26250857Y18270571D01*
X-26136571Y18270571D01*
X-26079428Y18299142D01*
X-26050857Y18327714D01*
X-26022285Y18384857D01*
X-26022285Y18870571D01*
X-25422285Y18270571D02*
X-25765142Y18270571D01*
X-25593714Y18270571D02*
X-25593714Y18870571D01*
X-25650857Y18784857D01*
X-25708000Y18727714D01*
X-25765142Y18699142D01*
%TO.C,L1*%
X-12200000Y10228571D02*
X-12485714Y10228571D01*
X-12485714Y10828571D01*
X-11685714Y10228571D02*
X-12028571Y10228571D01*
X-11857142Y10228571D02*
X-11857142Y10828571D01*
X-11914285Y10742857D01*
X-11971428Y10685714D01*
X-12028571Y10657142D01*
%TO.C,C5*%
X-23468000Y10199714D02*
X-23496571Y10171142D01*
X-23582285Y10142571D01*
X-23639428Y10142571D01*
X-23725142Y10171142D01*
X-23782285Y10228285D01*
X-23810857Y10285428D01*
X-23839428Y10399714D01*
X-23839428Y10485428D01*
X-23810857Y10599714D01*
X-23782285Y10656857D01*
X-23725142Y10714000D01*
X-23639428Y10742571D01*
X-23582285Y10742571D01*
X-23496571Y10714000D01*
X-23468000Y10685428D01*
X-22925142Y10742571D02*
X-23210857Y10742571D01*
X-23239428Y10456857D01*
X-23210857Y10485428D01*
X-23153714Y10514000D01*
X-23010857Y10514000D01*
X-22953714Y10485428D01*
X-22925142Y10456857D01*
X-22896571Y10399714D01*
X-22896571Y10256857D01*
X-22925142Y10199714D01*
X-22953714Y10171142D01*
X-23010857Y10142571D01*
X-23153714Y10142571D01*
X-23210857Y10171142D01*
X-23239428Y10199714D01*
%TO.C,R8*%
X-33148571Y12850000D02*
X-33434285Y12650000D01*
X-33148571Y12507142D02*
X-33748571Y12507142D01*
X-33748571Y12735714D01*
X-33720000Y12792857D01*
X-33691428Y12821428D01*
X-33634285Y12850000D01*
X-33548571Y12850000D01*
X-33491428Y12821428D01*
X-33462857Y12792857D01*
X-33434285Y12735714D01*
X-33434285Y12507142D01*
X-33491428Y13192857D02*
X-33520000Y13135714D01*
X-33548571Y13107142D01*
X-33605714Y13078571D01*
X-33634285Y13078571D01*
X-33691428Y13107142D01*
X-33720000Y13135714D01*
X-33748571Y13192857D01*
X-33748571Y13307142D01*
X-33720000Y13364285D01*
X-33691428Y13392857D01*
X-33634285Y13421428D01*
X-33605714Y13421428D01*
X-33548571Y13392857D01*
X-33520000Y13364285D01*
X-33491428Y13307142D01*
X-33491428Y13192857D01*
X-33462857Y13135714D01*
X-33434285Y13107142D01*
X-33377142Y13078571D01*
X-33262857Y13078571D01*
X-33205714Y13107142D01*
X-33177142Y13135714D01*
X-33148571Y13192857D01*
X-33148571Y13307142D01*
X-33177142Y13364285D01*
X-33205714Y13392857D01*
X-33262857Y13421428D01*
X-33377142Y13421428D01*
X-33434285Y13392857D01*
X-33462857Y13364285D01*
X-33491428Y13307142D01*
%TO.C,R7*%
X-33600000Y17103571D02*
X-33800000Y17389285D01*
X-33942857Y17103571D02*
X-33942857Y17703571D01*
X-33714285Y17703571D01*
X-33657142Y17675000D01*
X-33628571Y17646428D01*
X-33600000Y17589285D01*
X-33600000Y17503571D01*
X-33628571Y17446428D01*
X-33657142Y17417857D01*
X-33714285Y17389285D01*
X-33942857Y17389285D01*
X-33399999Y17703571D02*
X-32999999Y17703571D01*
X-33257142Y17103571D01*
%TO.C,R5*%
X-29310000Y9888571D02*
X-29510000Y10174285D01*
X-29652857Y9888571D02*
X-29652857Y10488571D01*
X-29424285Y10488571D01*
X-29367142Y10460000D01*
X-29338571Y10431428D01*
X-29310000Y10374285D01*
X-29310000Y10288571D01*
X-29338571Y10231428D01*
X-29367142Y10202857D01*
X-29424285Y10174285D01*
X-29652857Y10174285D01*
X-28767142Y10488571D02*
X-29052857Y10488571D01*
X-29081428Y10202857D01*
X-29052857Y10231428D01*
X-28995714Y10260000D01*
X-28852857Y10260000D01*
X-28795714Y10231428D01*
X-28767142Y10202857D01*
X-28738571Y10145714D01*
X-28738571Y10002857D01*
X-28767142Y9945714D01*
X-28795714Y9917142D01*
X-28852857Y9888571D01*
X-28995714Y9888571D01*
X-29052857Y9917142D01*
X-29081428Y9945714D01*
%TO.C,R4*%
X-33156571Y15718000D02*
X-33442285Y15518000D01*
X-33156571Y15375142D02*
X-33756571Y15375142D01*
X-33756571Y15603714D01*
X-33728000Y15660857D01*
X-33699428Y15689428D01*
X-33642285Y15718000D01*
X-33556571Y15718000D01*
X-33499428Y15689428D01*
X-33470857Y15660857D01*
X-33442285Y15603714D01*
X-33442285Y15375142D01*
X-33556571Y16232285D02*
X-33156571Y16232285D01*
X-33785142Y16089428D02*
X-33356571Y15946571D01*
X-33356571Y16318000D01*
%TO.C,R2*%
X-28040000Y9888571D02*
X-28240000Y10174285D01*
X-28382857Y9888571D02*
X-28382857Y10488571D01*
X-28154285Y10488571D01*
X-28097142Y10460000D01*
X-28068571Y10431428D01*
X-28040000Y10374285D01*
X-28040000Y10288571D01*
X-28068571Y10231428D01*
X-28097142Y10202857D01*
X-28154285Y10174285D01*
X-28382857Y10174285D01*
X-27811428Y10431428D02*
X-27782857Y10460000D01*
X-27725714Y10488571D01*
X-27582857Y10488571D01*
X-27525714Y10460000D01*
X-27497142Y10431428D01*
X-27468571Y10374285D01*
X-27468571Y10317142D01*
X-27497142Y10231428D01*
X-27840000Y9888571D01*
X-27468571Y9888571D01*
%TO.C,R1*%
X-33600000Y11103571D02*
X-33800000Y11389285D01*
X-33942857Y11103571D02*
X-33942857Y11703571D01*
X-33714285Y11703571D01*
X-33657142Y11675000D01*
X-33628571Y11646428D01*
X-33600000Y11589285D01*
X-33600000Y11503571D01*
X-33628571Y11446428D01*
X-33657142Y11417857D01*
X-33714285Y11389285D01*
X-33942857Y11389285D01*
X-33028571Y11103571D02*
X-33371428Y11103571D01*
X-33199999Y11103571D02*
X-33199999Y11703571D01*
X-33257142Y11617857D01*
X-33314285Y11560714D01*
X-33371428Y11532142D01*
%TO.C,C4*%
X-29900000Y17421714D02*
X-29928571Y17393142D01*
X-30014285Y17364571D01*
X-30071428Y17364571D01*
X-30157142Y17393142D01*
X-30214285Y17450285D01*
X-30242857Y17507428D01*
X-30271428Y17621714D01*
X-30271428Y17707428D01*
X-30242857Y17821714D01*
X-30214285Y17878857D01*
X-30157142Y17936000D01*
X-30071428Y17964571D01*
X-30014285Y17964571D01*
X-29928571Y17936000D01*
X-29900000Y17907428D01*
X-29385714Y17764571D02*
X-29385714Y17364571D01*
X-29528571Y17993142D02*
X-29671428Y17564571D01*
X-29300000Y17564571D01*
%TO.C,C3*%
X-27525000Y20060714D02*
X-27553571Y20032142D01*
X-27639285Y20003571D01*
X-27696428Y20003571D01*
X-27782142Y20032142D01*
X-27839285Y20089285D01*
X-27867857Y20146428D01*
X-27896428Y20260714D01*
X-27896428Y20346428D01*
X-27867857Y20460714D01*
X-27839285Y20517857D01*
X-27782142Y20575000D01*
X-27696428Y20603571D01*
X-27639285Y20603571D01*
X-27553571Y20575000D01*
X-27525000Y20546428D01*
X-27325000Y20603571D02*
X-26953571Y20603571D01*
X-27153571Y20375000D01*
X-27067857Y20375000D01*
X-27010714Y20346428D01*
X-26982142Y20317857D01*
X-26953571Y20260714D01*
X-26953571Y20117857D01*
X-26982142Y20060714D01*
X-27010714Y20032142D01*
X-27067857Y20003571D01*
X-27239285Y20003571D01*
X-27296428Y20032142D01*
X-27325000Y20060714D01*
%TO.C,C2*%
X-17372000Y9183714D02*
X-17400571Y9155142D01*
X-17486285Y9126571D01*
X-17543428Y9126571D01*
X-17629142Y9155142D01*
X-17686285Y9212285D01*
X-17714857Y9269428D01*
X-17743428Y9383714D01*
X-17743428Y9469428D01*
X-17714857Y9583714D01*
X-17686285Y9640857D01*
X-17629142Y9698000D01*
X-17543428Y9726571D01*
X-17486285Y9726571D01*
X-17400571Y9698000D01*
X-17372000Y9669428D01*
X-17143428Y9669428D02*
X-17114857Y9698000D01*
X-17057714Y9726571D01*
X-16914857Y9726571D01*
X-16857714Y9698000D01*
X-16829142Y9669428D01*
X-16800571Y9612285D01*
X-16800571Y9555142D01*
X-16829142Y9469428D01*
X-17172000Y9126571D01*
X-16800571Y9126571D01*
%TO.C,C1*%
X-26770000Y9945714D02*
X-26798571Y9917142D01*
X-26884285Y9888571D01*
X-26941428Y9888571D01*
X-27027142Y9917142D01*
X-27084285Y9974285D01*
X-27112857Y10031428D01*
X-27141428Y10145714D01*
X-27141428Y10231428D01*
X-27112857Y10345714D01*
X-27084285Y10402857D01*
X-27027142Y10460000D01*
X-26941428Y10488571D01*
X-26884285Y10488571D01*
X-26798571Y10460000D01*
X-26770000Y10431428D01*
X-26198571Y9888571D02*
X-26541428Y9888571D01*
X-26370000Y9888571D02*
X-26370000Y10488571D01*
X-26427142Y10402857D01*
X-26484285Y10345714D01*
X-26541428Y10317142D01*
%TD*%
M02*
