%TF.GenerationSoftware,KiCad,Pcbnew,(5.1.7)-1*%
%TF.CreationDate,2020-12-08T16:49:31+09:00*%
%TF.ProjectId,FlightComputer-Booster,466c6967-6874-4436-9f6d-70757465722d,rev?*%
%TF.SameCoordinates,Original*%
%TF.FileFunction,Copper,L1,Top*%
%TF.FilePolarity,Positive*%
%FSLAX46Y46*%
G04 Gerber Fmt 4.6, Leading zero omitted, Abs format (unit mm)*
G04 Created by KiCad (PCBNEW (5.1.7)-1) date 2020-12-08 16:49:31*
%MOMM*%
%LPD*%
G01*
G04 APERTURE LIST*
%TA.AperFunction,ComponentPad*%
%ADD10R,0.895000X1.470000*%
%TD*%
%TA.AperFunction,SMDPad,CuDef*%
%ADD11R,0.450000X1.050000*%
%TD*%
%TA.AperFunction,SMDPad,CuDef*%
%ADD12R,5.400000X2.900000*%
%TD*%
%TA.AperFunction,ViaPad*%
%ADD13C,0.500000*%
%TD*%
%TA.AperFunction,Conductor*%
%ADD14C,0.250000*%
%TD*%
%TA.AperFunction,Conductor*%
%ADD15C,0.400000*%
%TD*%
%TA.AperFunction,Conductor*%
%ADD16C,0.500000*%
%TD*%
%TA.AperFunction,Conductor*%
%ADD17C,0.200000*%
%TD*%
%TA.AperFunction,Conductor*%
%ADD18C,0.100000*%
%TD*%
G04 APERTURE END LIST*
%TO.P,J3,1*%
%TO.N,Net-(J3-Pad1)*%
%TA.AperFunction,ComponentPad*%
G36*
G01*
X-34066000Y7872000D02*
X-34066000Y8892000D01*
G75*
G02*
X-33726000Y9232000I340000J0D01*
G01*
X-31806000Y9232000D01*
G75*
G02*
X-31466000Y8892000I0J-340000D01*
G01*
X-31466000Y7872000D01*
G75*
G02*
X-31806000Y7532000I-340000J0D01*
G01*
X-33726000Y7532000D01*
G75*
G02*
X-34066000Y7872000I0J340000D01*
G01*
G37*
%TD.AperFunction*%
%TD*%
%TO.P,J1,2*%
%TO.N,GND*%
%TA.AperFunction,ComponentPad*%
G36*
G01*
X-31775000Y24800000D02*
X-30755000Y24800000D01*
G75*
G02*
X-30415000Y24460000I0J-340000D01*
G01*
X-30415000Y22540000D01*
G75*
G02*
X-30755000Y22200000I-340000J0D01*
G01*
X-31775000Y22200000D01*
G75*
G02*
X-32115000Y22540000I0J340000D01*
G01*
X-32115000Y24460000D01*
G75*
G02*
X-31775000Y24800000I340000J0D01*
G01*
G37*
%TD.AperFunction*%
%TO.P,J1,1*%
%TO.N,VCC_BAT*%
%TA.AperFunction,ComponentPad*%
G36*
G01*
X-29235000Y24800000D02*
X-28215000Y24800000D01*
G75*
G02*
X-27875000Y24460000I0J-340000D01*
G01*
X-27875000Y22540000D01*
G75*
G02*
X-28215000Y22200000I-340000J0D01*
G01*
X-29235000Y22200000D01*
G75*
G02*
X-29575000Y22540000I0J340000D01*
G01*
X-29575000Y24460000D01*
G75*
G02*
X-29235000Y24800000I340000J0D01*
G01*
G37*
%TD.AperFunction*%
%TD*%
%TO.P,J2,2*%
%TO.N,GND*%
%TA.AperFunction,ComponentPad*%
G36*
G01*
X-16350000Y7200000D02*
X-15330000Y7200000D01*
G75*
G02*
X-14990000Y6860000I0J-340000D01*
G01*
X-14990000Y4940000D01*
G75*
G02*
X-15330000Y4600000I-340000J0D01*
G01*
X-16350000Y4600000D01*
G75*
G02*
X-16690000Y4940000I0J340000D01*
G01*
X-16690000Y6860000D01*
G75*
G02*
X-16350000Y7200000I340000J0D01*
G01*
G37*
%TD.AperFunction*%
%TO.P,J2,1*%
%TO.N,VCC_5V*%
%TA.AperFunction,ComponentPad*%
G36*
G01*
X-13810000Y7200000D02*
X-12790000Y7200000D01*
G75*
G02*
X-12450000Y6860000I0J-340000D01*
G01*
X-12450000Y4940000D01*
G75*
G02*
X-12790000Y4600000I-340000J0D01*
G01*
X-13810000Y4600000D01*
G75*
G02*
X-14150000Y4940000I0J340000D01*
G01*
X-14150000Y6860000D01*
G75*
G02*
X-13810000Y7200000I340000J0D01*
G01*
G37*
%TD.AperFunction*%
%TD*%
D10*
%TO.P,U1,17*%
%TO.N,GND*%
X-26917500Y15213000D03*
X-27812500Y15213000D03*
X-28707500Y15213000D03*
X-29602500Y15213000D03*
X-26917500Y13743000D03*
X-27812500Y13743000D03*
X-28707500Y13743000D03*
X-29602500Y13743000D03*
D11*
%TO.P,U1,16*%
%TO.N,Net-(U1-Pad16)*%
X-25985000Y11703000D03*
%TO.P,U1,15*%
%TO.N,VCC_5V*%
X-26635000Y11703000D03*
%TO.P,U1,14*%
X-27285000Y11703000D03*
%TO.P,U1,13*%
X-27935000Y11703000D03*
%TO.P,U1,12*%
%TO.N,/FB*%
X-28585000Y11703000D03*
%TO.P,U1,11*%
%TO.N,GND*%
X-29235000Y11703000D03*
%TO.P,U1,10*%
X-29885000Y11703000D03*
%TO.P,U1,9*%
%TO.N,/EN*%
X-30535000Y11703000D03*
%TO.P,U1,8*%
%TO.N,GND*%
X-30535000Y17253000D03*
%TO.P,U1,7*%
%TO.N,/LBI*%
X-29885000Y17253000D03*
%TO.P,U1,6*%
%TO.N,VCC_BAT*%
X-29235000Y17253000D03*
%TO.P,U1,5*%
%TO.N,GND*%
X-28585000Y17253000D03*
%TO.P,U1,4*%
X-27935000Y17253000D03*
%TO.P,U1,3*%
X-27285000Y17253000D03*
%TO.P,U1,2*%
%TO.N,/SW*%
X-26635000Y17253000D03*
%TO.P,U1,1*%
X-25985000Y17253000D03*
%TD*%
D12*
%TO.P,L1,2*%
%TO.N,/SW*%
X-18034000Y12076000D03*
%TO.P,L1,1*%
%TO.N,VCC_BAT*%
X-18034000Y22976000D03*
%TD*%
%TO.P,C5,2*%
%TO.N,GND*%
%TA.AperFunction,SMDPad,CuDef*%
G36*
G01*
X-24395000Y6295000D02*
X-22545000Y6295000D01*
G75*
G02*
X-22295000Y6045000I0J-250000D01*
G01*
X-22295000Y5045000D01*
G75*
G02*
X-22545000Y4795000I-250000J0D01*
G01*
X-24395000Y4795000D01*
G75*
G02*
X-24645000Y5045000I0J250000D01*
G01*
X-24645000Y6045000D01*
G75*
G02*
X-24395000Y6295000I250000J0D01*
G01*
G37*
%TD.AperFunction*%
%TO.P,C5,1*%
%TO.N,VCC_5V*%
%TA.AperFunction,SMDPad,CuDef*%
G36*
G01*
X-24395000Y9545000D02*
X-22545000Y9545000D01*
G75*
G02*
X-22295000Y9295000I0J-250000D01*
G01*
X-22295000Y8295000D01*
G75*
G02*
X-22545000Y8045000I-250000J0D01*
G01*
X-24395000Y8045000D01*
G75*
G02*
X-24645000Y8295000I0J250000D01*
G01*
X-24645000Y9295000D01*
G75*
G02*
X-24395000Y9545000I250000J0D01*
G01*
G37*
%TD.AperFunction*%
%TD*%
%TO.P,R8,2*%
%TO.N,GND*%
%TA.AperFunction,SMDPad,CuDef*%
G36*
G01*
X-32090000Y13190000D02*
X-32410000Y13190000D01*
G75*
G02*
X-32570000Y13350000I0J160000D01*
G01*
X-32570000Y13745000D01*
G75*
G02*
X-32410000Y13905000I160000J0D01*
G01*
X-32090000Y13905000D01*
G75*
G02*
X-31930000Y13745000I0J-160000D01*
G01*
X-31930000Y13350000D01*
G75*
G02*
X-32090000Y13190000I-160000J0D01*
G01*
G37*
%TD.AperFunction*%
%TO.P,R8,1*%
%TO.N,/EN*%
%TA.AperFunction,SMDPad,CuDef*%
G36*
G01*
X-32090000Y11995000D02*
X-32410000Y11995000D01*
G75*
G02*
X-32570000Y12155000I0J160000D01*
G01*
X-32570000Y12550000D01*
G75*
G02*
X-32410000Y12710000I160000J0D01*
G01*
X-32090000Y12710000D01*
G75*
G02*
X-31930000Y12550000I0J-160000D01*
G01*
X-31930000Y12155000D01*
G75*
G02*
X-32090000Y11995000I-160000J0D01*
G01*
G37*
%TD.AperFunction*%
%TD*%
%TO.P,R7,2*%
%TO.N,GND*%
%TA.AperFunction,SMDPad,CuDef*%
G36*
G01*
X-33368000Y16058000D02*
X-33688000Y16058000D01*
G75*
G02*
X-33848000Y16218000I0J160000D01*
G01*
X-33848000Y16613000D01*
G75*
G02*
X-33688000Y16773000I160000J0D01*
G01*
X-33368000Y16773000D01*
G75*
G02*
X-33208000Y16613000I0J-160000D01*
G01*
X-33208000Y16218000D01*
G75*
G02*
X-33368000Y16058000I-160000J0D01*
G01*
G37*
%TD.AperFunction*%
%TO.P,R7,1*%
%TO.N,/LBI*%
%TA.AperFunction,SMDPad,CuDef*%
G36*
G01*
X-33368000Y14863000D02*
X-33688000Y14863000D01*
G75*
G02*
X-33848000Y15023000I0J160000D01*
G01*
X-33848000Y15418000D01*
G75*
G02*
X-33688000Y15578000I160000J0D01*
G01*
X-33368000Y15578000D01*
G75*
G02*
X-33208000Y15418000I0J-160000D01*
G01*
X-33208000Y15023000D01*
G75*
G02*
X-33368000Y14863000I-160000J0D01*
G01*
G37*
%TD.AperFunction*%
%TD*%
%TO.P,R5,2*%
%TO.N,GND*%
%TA.AperFunction,SMDPad,CuDef*%
G36*
G01*
X-29370000Y8230000D02*
X-29050000Y8230000D01*
G75*
G02*
X-28890000Y8070000I0J-160000D01*
G01*
X-28890000Y7675000D01*
G75*
G02*
X-29050000Y7515000I-160000J0D01*
G01*
X-29370000Y7515000D01*
G75*
G02*
X-29530000Y7675000I0J160000D01*
G01*
X-29530000Y8070000D01*
G75*
G02*
X-29370000Y8230000I160000J0D01*
G01*
G37*
%TD.AperFunction*%
%TO.P,R5,1*%
%TO.N,/FB*%
%TA.AperFunction,SMDPad,CuDef*%
G36*
G01*
X-29370000Y9425000D02*
X-29050000Y9425000D01*
G75*
G02*
X-28890000Y9265000I0J-160000D01*
G01*
X-28890000Y8870000D01*
G75*
G02*
X-29050000Y8710000I-160000J0D01*
G01*
X-29370000Y8710000D01*
G75*
G02*
X-29530000Y8870000I0J160000D01*
G01*
X-29530000Y9265000D01*
G75*
G02*
X-29370000Y9425000I160000J0D01*
G01*
G37*
%TD.AperFunction*%
%TD*%
%TO.P,R4,2*%
%TO.N,/LBI*%
%TA.AperFunction,SMDPad,CuDef*%
G36*
G01*
X-32098000Y16058000D02*
X-32418000Y16058000D01*
G75*
G02*
X-32578000Y16218000I0J160000D01*
G01*
X-32578000Y16613000D01*
G75*
G02*
X-32418000Y16773000I160000J0D01*
G01*
X-32098000Y16773000D01*
G75*
G02*
X-31938000Y16613000I0J-160000D01*
G01*
X-31938000Y16218000D01*
G75*
G02*
X-32098000Y16058000I-160000J0D01*
G01*
G37*
%TD.AperFunction*%
%TO.P,R4,1*%
%TO.N,VCC_BAT*%
%TA.AperFunction,SMDPad,CuDef*%
G36*
G01*
X-32098000Y14863000D02*
X-32418000Y14863000D01*
G75*
G02*
X-32578000Y15023000I0J160000D01*
G01*
X-32578000Y15418000D01*
G75*
G02*
X-32418000Y15578000I160000J0D01*
G01*
X-32098000Y15578000D01*
G75*
G02*
X-31938000Y15418000I0J-160000D01*
G01*
X-31938000Y15023000D01*
G75*
G02*
X-32098000Y14863000I-160000J0D01*
G01*
G37*
%TD.AperFunction*%
%TD*%
%TO.P,R2,2*%
%TO.N,/FB*%
%TA.AperFunction,SMDPad,CuDef*%
G36*
G01*
X-28100000Y8240000D02*
X-27780000Y8240000D01*
G75*
G02*
X-27620000Y8080000I0J-160000D01*
G01*
X-27620000Y7685000D01*
G75*
G02*
X-27780000Y7525000I-160000J0D01*
G01*
X-28100000Y7525000D01*
G75*
G02*
X-28260000Y7685000I0J160000D01*
G01*
X-28260000Y8080000D01*
G75*
G02*
X-28100000Y8240000I160000J0D01*
G01*
G37*
%TD.AperFunction*%
%TO.P,R2,1*%
%TO.N,VCC_5V*%
%TA.AperFunction,SMDPad,CuDef*%
G36*
G01*
X-28100000Y9435000D02*
X-27780000Y9435000D01*
G75*
G02*
X-27620000Y9275000I0J-160000D01*
G01*
X-27620000Y8880000D01*
G75*
G02*
X-27780000Y8720000I-160000J0D01*
G01*
X-28100000Y8720000D01*
G75*
G02*
X-28260000Y8880000I0J160000D01*
G01*
X-28260000Y9275000D01*
G75*
G02*
X-28100000Y9435000I160000J0D01*
G01*
G37*
%TD.AperFunction*%
%TD*%
%TO.P,R1,2*%
%TO.N,/EN*%
%TA.AperFunction,SMDPad,CuDef*%
G36*
G01*
X-33365000Y13190000D02*
X-33685000Y13190000D01*
G75*
G02*
X-33845000Y13350000I0J160000D01*
G01*
X-33845000Y13745000D01*
G75*
G02*
X-33685000Y13905000I160000J0D01*
G01*
X-33365000Y13905000D01*
G75*
G02*
X-33205000Y13745000I0J-160000D01*
G01*
X-33205000Y13350000D01*
G75*
G02*
X-33365000Y13190000I-160000J0D01*
G01*
G37*
%TD.AperFunction*%
%TO.P,R1,1*%
%TO.N,Net-(J3-Pad1)*%
%TA.AperFunction,SMDPad,CuDef*%
G36*
G01*
X-33365000Y11995000D02*
X-33685000Y11995000D01*
G75*
G02*
X-33845000Y12155000I0J160000D01*
G01*
X-33845000Y12550000D01*
G75*
G02*
X-33685000Y12710000I160000J0D01*
G01*
X-33365000Y12710000D01*
G75*
G02*
X-33205000Y12550000I0J-160000D01*
G01*
X-33205000Y12155000D01*
G75*
G02*
X-33365000Y11995000I-160000J0D01*
G01*
G37*
%TD.AperFunction*%
%TD*%
%TO.P,C4,2*%
%TO.N,GND*%
%TA.AperFunction,SMDPad,CuDef*%
G36*
G01*
X-30000000Y18951000D02*
X-30000000Y18641000D01*
G75*
G02*
X-30155000Y18486000I-155000J0D01*
G01*
X-30580000Y18486000D01*
G75*
G02*
X-30735000Y18641000I0J155000D01*
G01*
X-30735000Y18951000D01*
G75*
G02*
X-30580000Y19106000I155000J0D01*
G01*
X-30155000Y19106000D01*
G75*
G02*
X-30000000Y18951000I0J-155000D01*
G01*
G37*
%TD.AperFunction*%
%TO.P,C4,1*%
%TO.N,VCC_BAT*%
%TA.AperFunction,SMDPad,CuDef*%
G36*
G01*
X-28865000Y18951000D02*
X-28865000Y18641000D01*
G75*
G02*
X-29020000Y18486000I-155000J0D01*
G01*
X-29445000Y18486000D01*
G75*
G02*
X-29600000Y18641000I0J155000D01*
G01*
X-29600000Y18951000D01*
G75*
G02*
X-29445000Y19106000I155000J0D01*
G01*
X-29020000Y19106000D01*
G75*
G02*
X-28865000Y18951000I0J-155000D01*
G01*
G37*
%TD.AperFunction*%
%TD*%
%TO.P,C3,2*%
%TO.N,GND*%
%TA.AperFunction,SMDPad,CuDef*%
G36*
G01*
X-29975000Y20575001D02*
X-29975000Y20024999D01*
G75*
G02*
X-30224999Y19775000I-249999J0D01*
G01*
X-30975001Y19775000D01*
G75*
G02*
X-31225000Y20024999I0J249999D01*
G01*
X-31225000Y20575001D01*
G75*
G02*
X-30975001Y20825000I249999J0D01*
G01*
X-30224999Y20825000D01*
G75*
G02*
X-29975000Y20575001I0J-249999D01*
G01*
G37*
%TD.AperFunction*%
%TO.P,C3,1*%
%TO.N,VCC_BAT*%
%TA.AperFunction,SMDPad,CuDef*%
G36*
G01*
X-28375000Y20575001D02*
X-28375000Y20024999D01*
G75*
G02*
X-28624999Y19775000I-249999J0D01*
G01*
X-29375001Y19775000D01*
G75*
G02*
X-29625000Y20024999I0J249999D01*
G01*
X-29625000Y20575001D01*
G75*
G02*
X-29375001Y20825000I249999J0D01*
G01*
X-28624999Y20825000D01*
G75*
G02*
X-28375000Y20575001I0J-249999D01*
G01*
G37*
%TD.AperFunction*%
%TD*%
%TO.P,C2,2*%
%TO.N,GND*%
%TA.AperFunction,SMDPad,CuDef*%
G36*
G01*
X-20545000Y6295000D02*
X-18695000Y6295000D01*
G75*
G02*
X-18445000Y6045000I0J-250000D01*
G01*
X-18445000Y5045000D01*
G75*
G02*
X-18695000Y4795000I-250000J0D01*
G01*
X-20545000Y4795000D01*
G75*
G02*
X-20795000Y5045000I0J250000D01*
G01*
X-20795000Y6045000D01*
G75*
G02*
X-20545000Y6295000I250000J0D01*
G01*
G37*
%TD.AperFunction*%
%TO.P,C2,1*%
%TO.N,VCC_5V*%
%TA.AperFunction,SMDPad,CuDef*%
G36*
G01*
X-20545000Y9545000D02*
X-18695000Y9545000D01*
G75*
G02*
X-18445000Y9295000I0J-250000D01*
G01*
X-18445000Y8295000D01*
G75*
G02*
X-18695000Y8045000I-250000J0D01*
G01*
X-20545000Y8045000D01*
G75*
G02*
X-20795000Y8295000I0J250000D01*
G01*
X-20795000Y9295000D01*
G75*
G02*
X-20545000Y9545000I250000J0D01*
G01*
G37*
%TD.AperFunction*%
%TD*%
%TO.P,C1,2*%
%TO.N,GND*%
%TA.AperFunction,SMDPad,CuDef*%
G36*
G01*
X-26785000Y8330000D02*
X-26475000Y8330000D01*
G75*
G02*
X-26320000Y8175000I0J-155000D01*
G01*
X-26320000Y7750000D01*
G75*
G02*
X-26475000Y7595000I-155000J0D01*
G01*
X-26785000Y7595000D01*
G75*
G02*
X-26940000Y7750000I0J155000D01*
G01*
X-26940000Y8175000D01*
G75*
G02*
X-26785000Y8330000I155000J0D01*
G01*
G37*
%TD.AperFunction*%
%TO.P,C1,1*%
%TO.N,VCC_5V*%
%TA.AperFunction,SMDPad,CuDef*%
G36*
G01*
X-26785000Y9465000D02*
X-26475000Y9465000D01*
G75*
G02*
X-26320000Y9310000I0J-155000D01*
G01*
X-26320000Y8885000D01*
G75*
G02*
X-26475000Y8730000I-155000J0D01*
G01*
X-26785000Y8730000D01*
G75*
G02*
X-26940000Y8885000I0J155000D01*
G01*
X-26940000Y9310000D01*
G75*
G02*
X-26785000Y9465000I155000J0D01*
G01*
G37*
%TD.AperFunction*%
%TD*%
D13*
%TO.N,GND*%
X-29900000Y6700000D03*
X-29100000Y6700000D03*
X-28300000Y6700000D03*
X-27500000Y6700000D03*
X-26700000Y6700000D03*
X-25900000Y6700000D03*
X-27500000Y5900000D03*
X-29100000Y5900000D03*
X-25900000Y5900000D03*
X-29900000Y5900000D03*
X-26700000Y5900000D03*
X-28300000Y5900000D03*
X-29100000Y5100000D03*
X-26700000Y5100000D03*
X-27500000Y5100000D03*
X-28300000Y5100000D03*
X-29900000Y5100000D03*
X-25900000Y5100000D03*
X-32300000Y5900000D03*
X-33100000Y5100000D03*
X-30700000Y5900000D03*
X-32300000Y5100000D03*
X-31500000Y5900000D03*
X-33100000Y5900000D03*
X-31500000Y5100000D03*
X-30700000Y5100000D03*
X-32825000Y20425000D03*
X-33625000Y19625000D03*
X-32825000Y21225000D03*
X-33625000Y21225000D03*
X-32825000Y19625000D03*
X-33625000Y20425000D03*
X-32825000Y18850000D03*
X-33625000Y18850000D03*
X-31400000Y17250000D03*
X-30700000Y6700000D03*
X-32300000Y6700000D03*
X-33100000Y6700000D03*
X-31500000Y6700000D03*
X-32025000Y18850000D03*
X-32025000Y20425000D03*
X-32025000Y21225000D03*
X-32025000Y19625000D03*
%TD*%
D14*
%TO.N,GND*%
X-30535000Y17253000D02*
X-31397000Y17253000D01*
X-31397000Y17253000D02*
X-31400000Y17250000D01*
D15*
X-28585000Y15335500D02*
X-28707500Y15213000D01*
X-28585000Y17253000D02*
X-28585000Y15335500D01*
X-27935000Y15335500D02*
X-27812500Y15213000D01*
X-27935000Y17253000D02*
X-27935000Y15335500D01*
X-27285000Y15580500D02*
X-26917500Y15213000D01*
X-27285000Y17253000D02*
X-27285000Y15580500D01*
X-29235000Y13215500D02*
X-28707500Y13743000D01*
X-29235000Y11703000D02*
X-29235000Y13215500D01*
X-29885000Y13460500D02*
X-29602500Y13743000D01*
X-29885000Y11703000D02*
X-29885000Y13460500D01*
%TO.N,VCC_5V*%
X-27935000Y9082500D02*
X-27940000Y9077500D01*
X-27935000Y11703000D02*
X-27935000Y9082500D01*
X-27935000Y11703000D02*
X-27285000Y11703000D01*
X-27285000Y11703000D02*
X-26635000Y11703000D01*
X-26635000Y9102500D02*
X-26630000Y9097500D01*
X-26635000Y11703000D02*
X-26635000Y9102500D01*
D14*
%TO.N,VCC_BAT*%
X-29235000Y16445000D02*
X-29360000Y16320000D01*
X-29235000Y17253000D02*
X-29235000Y16445000D01*
X-29360000Y16320000D02*
X-30600000Y16320000D01*
X-30600000Y16320000D02*
X-30860000Y16060000D01*
X-30860000Y16060000D02*
X-30860000Y15350000D01*
X-30989500Y15220500D02*
X-32258000Y15220500D01*
X-30860000Y15350000D02*
X-30989500Y15220500D01*
D16*
X-29232500Y19392500D02*
X-29000000Y19625000D01*
X-29232500Y18796000D02*
X-29232500Y19392500D01*
X-29000000Y20300000D02*
X-29000000Y19625000D01*
D14*
%TO.N,Net-(J3-Pad1)*%
X-32766000Y10160000D02*
X-33525000Y10919000D01*
X-32766000Y8382000D02*
X-32766000Y10160000D01*
X-33525000Y12352500D02*
X-33525000Y10919000D01*
%TO.N,/EN*%
X-30535000Y11703000D02*
X-32053000Y11703000D01*
X-32250000Y11900000D02*
X-32250000Y12352500D01*
X-32053000Y11703000D02*
X-32250000Y11900000D01*
X-33445000Y13547500D02*
X-32250000Y12352500D01*
X-33525000Y13547500D02*
X-33445000Y13547500D01*
%TO.N,/FB*%
X-27940000Y7882500D02*
X-28292500Y7882500D01*
X-28292500Y7882500D02*
X-28564990Y8154990D01*
X-29210000Y9067500D02*
X-28802510Y9067500D01*
X-28585010Y8345010D02*
X-28564990Y8324990D01*
X-28585010Y8850000D02*
X-28585010Y8345010D01*
X-28802510Y9067500D02*
X-28585010Y8850000D01*
X-28564990Y8154990D02*
X-28564990Y8324990D01*
X-29210000Y9067500D02*
X-29210000Y9690000D01*
X-28585000Y10315000D02*
X-28585000Y11703000D01*
X-29210000Y9690000D02*
X-28585000Y10315000D01*
%TO.N,/LBI*%
X-33453000Y15220500D02*
X-32258000Y16415500D01*
X-33528000Y15220500D02*
X-33453000Y15220500D01*
X-32258000Y17872000D02*
X-32258000Y16415500D01*
X-31969010Y18160990D02*
X-32258000Y17872000D01*
X-30180990Y18160990D02*
X-31969010Y18160990D01*
X-29885000Y17865000D02*
X-30180990Y18160990D01*
X-29885000Y17253000D02*
X-29885000Y17865000D01*
D15*
%TO.N,/SW*%
X-26635000Y17253000D02*
X-25985000Y17253000D01*
%TD*%
D17*
%TO.N,GND*%
X-30390000Y15398000D02*
X-30305000Y15313000D01*
X-29702500Y15313000D01*
X-29702500Y15333000D01*
X-29502500Y15333000D01*
X-29502500Y15313000D01*
X-28807500Y15313000D01*
X-28807500Y15333000D01*
X-28607500Y15333000D01*
X-28607500Y15313000D01*
X-27912500Y15313000D01*
X-27912500Y15333000D01*
X-27712500Y15333000D01*
X-27712500Y15313000D01*
X-27017500Y15313000D01*
X-27017500Y15333000D01*
X-26817500Y15333000D01*
X-26817500Y15313000D01*
X-26215000Y15313000D01*
X-26130000Y15398000D01*
X-26129432Y15587880D01*
X-25500000Y15579138D01*
X-25500000Y12622089D01*
X-25533329Y12649441D01*
X-25585195Y12677164D01*
X-25641473Y12694236D01*
X-25700000Y12700000D01*
X-26324967Y12700000D01*
X-26280192Y12723933D01*
X-26228421Y12766421D01*
X-26185933Y12818192D01*
X-26154361Y12877258D01*
X-26134920Y12941348D01*
X-26128355Y13008000D01*
X-26130000Y13558000D01*
X-26215000Y13643000D01*
X-26817500Y13643000D01*
X-26817500Y13623000D01*
X-27017500Y13623000D01*
X-27017500Y13643000D01*
X-27712500Y13643000D01*
X-27712500Y13623000D01*
X-27912500Y13623000D01*
X-27912500Y13643000D01*
X-28607500Y13643000D01*
X-28607500Y13623000D01*
X-28807500Y13623000D01*
X-28807500Y13643000D01*
X-29502500Y13643000D01*
X-29502500Y12753000D01*
X-29417500Y12668000D01*
X-29155000Y12666355D01*
X-28892500Y12668000D01*
X-28807502Y12752998D01*
X-28807502Y12679379D01*
X-28814805Y12677164D01*
X-28866671Y12649441D01*
X-28912132Y12612132D01*
X-28949441Y12566671D01*
X-28950960Y12563830D01*
X-29010000Y12569645D01*
X-29050000Y12568000D01*
X-29135000Y12483000D01*
X-29135000Y11803000D01*
X-29115000Y11803000D01*
X-29115000Y11603000D01*
X-29135000Y11603000D01*
X-29135000Y10923000D01*
X-29050000Y10838000D01*
X-29010000Y10836355D01*
X-29010000Y10491041D01*
X-29495761Y10005279D01*
X-29511973Y9991974D01*
X-29565083Y9927260D01*
X-29602089Y9858026D01*
X-29604547Y9853427D01*
X-29628850Y9773314D01*
X-29637055Y9690000D01*
X-29634999Y9669124D01*
X-29634999Y9641599D01*
X-29696295Y9591295D01*
X-29753682Y9521368D01*
X-29796325Y9441590D01*
X-29822584Y9355025D01*
X-29831451Y9265000D01*
X-29831451Y8870000D01*
X-29822584Y8779975D01*
X-29796325Y8693410D01*
X-29753682Y8613632D01*
X-29696295Y8543705D01*
X-29683699Y8533368D01*
X-29719808Y8514067D01*
X-29771579Y8471579D01*
X-29814067Y8419808D01*
X-29845639Y8360742D01*
X-29865080Y8296652D01*
X-29871645Y8230000D01*
X-29870000Y8057500D01*
X-29785000Y7972500D01*
X-29310000Y7972500D01*
X-29310000Y7992500D01*
X-29110000Y7992500D01*
X-29110000Y7972500D01*
X-29090000Y7972500D01*
X-29090000Y7772500D01*
X-29110000Y7772500D01*
X-29110000Y7260000D01*
X-29025000Y7175000D01*
X-28890000Y7173355D01*
X-28823348Y7179920D01*
X-28759258Y7199361D01*
X-28700192Y7230933D01*
X-28648421Y7273421D01*
X-28605933Y7325192D01*
X-28574361Y7384258D01*
X-28554920Y7448348D01*
X-28548355Y7515000D01*
X-28548621Y7542895D01*
X-28532863Y7529962D01*
X-28526325Y7508410D01*
X-28483682Y7428632D01*
X-28426295Y7358705D01*
X-28356368Y7301318D01*
X-28276590Y7258675D01*
X-28190025Y7232416D01*
X-28100000Y7223549D01*
X-27780000Y7223549D01*
X-27689975Y7232416D01*
X-27603410Y7258675D01*
X-27523632Y7301318D01*
X-27453705Y7358705D01*
X-27396318Y7428632D01*
X-27353675Y7508410D01*
X-27327416Y7594975D01*
X-27327414Y7595000D01*
X-27281645Y7595000D01*
X-27275080Y7528348D01*
X-27255639Y7464258D01*
X-27224067Y7405192D01*
X-27181579Y7353421D01*
X-27129808Y7310933D01*
X-27070742Y7279361D01*
X-27006652Y7259920D01*
X-26940000Y7253355D01*
X-26815000Y7255000D01*
X-26730000Y7340000D01*
X-26730000Y7862500D01*
X-27195000Y7862500D01*
X-27280000Y7777500D01*
X-27281645Y7595000D01*
X-27327414Y7595000D01*
X-27318549Y7685000D01*
X-27318549Y8080000D01*
X-27327416Y8170025D01*
X-27336509Y8200000D01*
X-27280473Y8200000D01*
X-27280000Y8147500D01*
X-27195000Y8062500D01*
X-26730000Y8062500D01*
X-26730000Y8082500D01*
X-26530000Y8082500D01*
X-26530000Y8062500D01*
X-26510000Y8062500D01*
X-26510000Y7862500D01*
X-26530000Y7862500D01*
X-26530000Y7340000D01*
X-26445000Y7255000D01*
X-26320000Y7253355D01*
X-26253348Y7259920D01*
X-26189258Y7279361D01*
X-26130192Y7310933D01*
X-26078421Y7353421D01*
X-26050000Y7388052D01*
X-26050000Y7300000D01*
X-26044236Y7241473D01*
X-26027164Y7185195D01*
X-25999441Y7133329D01*
X-25962132Y7087868D01*
X-25916671Y7050559D01*
X-25864805Y7022836D01*
X-25808527Y7005764D01*
X-25750000Y7000000D01*
X-18000000Y7000000D01*
X-17941473Y7005764D01*
X-17885195Y7022836D01*
X-17833329Y7050559D01*
X-17787868Y7087868D01*
X-17750559Y7133329D01*
X-17722836Y7185195D01*
X-17718345Y7200000D01*
X-17031645Y7200000D01*
X-17030000Y6085000D01*
X-16945000Y6000000D01*
X-15940000Y6000000D01*
X-15940000Y7455000D01*
X-16025000Y7540000D01*
X-16690000Y7541645D01*
X-16756652Y7535080D01*
X-16820742Y7515639D01*
X-16879808Y7484067D01*
X-16931579Y7441579D01*
X-16974067Y7389808D01*
X-17005639Y7330742D01*
X-17025080Y7266652D01*
X-17031645Y7200000D01*
X-17718345Y7200000D01*
X-17705764Y7241473D01*
X-17700000Y7300000D01*
X-17700000Y8100000D01*
X-14800000Y8100000D01*
X-14800000Y7483909D01*
X-14800192Y7484067D01*
X-14859258Y7515639D01*
X-14923348Y7535080D01*
X-14990000Y7541645D01*
X-15655000Y7540000D01*
X-15740000Y7455000D01*
X-15740000Y6000000D01*
X-15720000Y6000000D01*
X-15720000Y5800000D01*
X-15740000Y5800000D01*
X-15740000Y5780000D01*
X-15940000Y5780000D01*
X-15940000Y5800000D01*
X-16945000Y5800000D01*
X-17030000Y5715000D01*
X-17031582Y4643000D01*
X-18140724Y4643000D01*
X-18129361Y4664258D01*
X-18109920Y4728348D01*
X-18103355Y4795000D01*
X-18105000Y5360000D01*
X-18190000Y5445000D01*
X-19520000Y5445000D01*
X-19520000Y5425000D01*
X-19720000Y5425000D01*
X-19720000Y5445000D01*
X-21050000Y5445000D01*
X-21135000Y5360000D01*
X-21136645Y4795000D01*
X-21130080Y4728348D01*
X-21110639Y4664258D01*
X-21099276Y4643000D01*
X-21990724Y4643000D01*
X-21979361Y4664258D01*
X-21959920Y4728348D01*
X-21953355Y4795000D01*
X-21955000Y5360000D01*
X-22040000Y5445000D01*
X-23370000Y5445000D01*
X-23370000Y5425000D01*
X-23570000Y5425000D01*
X-23570000Y5445000D01*
X-24900000Y5445000D01*
X-24985000Y5360000D01*
X-24986645Y4795000D01*
X-24980080Y4728348D01*
X-24960639Y4664258D01*
X-24949276Y4643000D01*
X-33965000Y4643000D01*
X-33965000Y6295000D01*
X-24986645Y6295000D01*
X-24985000Y5730000D01*
X-24900000Y5645000D01*
X-23570000Y5645000D01*
X-23570000Y6550000D01*
X-23370000Y6550000D01*
X-23370000Y5645000D01*
X-22040000Y5645000D01*
X-21955000Y5730000D01*
X-21953355Y6295000D01*
X-21136645Y6295000D01*
X-21135000Y5730000D01*
X-21050000Y5645000D01*
X-19720000Y5645000D01*
X-19720000Y6550000D01*
X-19520000Y6550000D01*
X-19520000Y5645000D01*
X-18190000Y5645000D01*
X-18105000Y5730000D01*
X-18103355Y6295000D01*
X-18109920Y6361652D01*
X-18129361Y6425742D01*
X-18160933Y6484808D01*
X-18203421Y6536579D01*
X-18255192Y6579067D01*
X-18314258Y6610639D01*
X-18378348Y6630080D01*
X-18445000Y6636645D01*
X-19435000Y6635000D01*
X-19520000Y6550000D01*
X-19720000Y6550000D01*
X-19805000Y6635000D01*
X-20795000Y6636645D01*
X-20861652Y6630080D01*
X-20925742Y6610639D01*
X-20984808Y6579067D01*
X-21036579Y6536579D01*
X-21079067Y6484808D01*
X-21110639Y6425742D01*
X-21130080Y6361652D01*
X-21136645Y6295000D01*
X-21953355Y6295000D01*
X-21959920Y6361652D01*
X-21979361Y6425742D01*
X-22010933Y6484808D01*
X-22053421Y6536579D01*
X-22105192Y6579067D01*
X-22164258Y6610639D01*
X-22228348Y6630080D01*
X-22295000Y6636645D01*
X-23285000Y6635000D01*
X-23370000Y6550000D01*
X-23570000Y6550000D01*
X-23655000Y6635000D01*
X-24645000Y6636645D01*
X-24711652Y6630080D01*
X-24775742Y6610639D01*
X-24834808Y6579067D01*
X-24886579Y6536579D01*
X-24929067Y6484808D01*
X-24960639Y6425742D01*
X-24980080Y6361652D01*
X-24986645Y6295000D01*
X-33965000Y6295000D01*
X-33965000Y7277413D01*
X-33851141Y7242874D01*
X-33726000Y7230549D01*
X-31806000Y7230549D01*
X-31680859Y7242874D01*
X-31560527Y7279377D01*
X-31449629Y7338653D01*
X-31352426Y7418426D01*
X-31273170Y7515000D01*
X-29871645Y7515000D01*
X-29865080Y7448348D01*
X-29845639Y7384258D01*
X-29814067Y7325192D01*
X-29771579Y7273421D01*
X-29719808Y7230933D01*
X-29660742Y7199361D01*
X-29596652Y7179920D01*
X-29530000Y7173355D01*
X-29395000Y7175000D01*
X-29310000Y7260000D01*
X-29310000Y7772500D01*
X-29785000Y7772500D01*
X-29870000Y7687500D01*
X-29871645Y7515000D01*
X-31273170Y7515000D01*
X-31272653Y7515629D01*
X-31213377Y7626527D01*
X-31176874Y7746859D01*
X-31164549Y7872000D01*
X-31164549Y8892000D01*
X-31176874Y9017141D01*
X-31213377Y9137473D01*
X-31272653Y9248371D01*
X-31352426Y9345574D01*
X-31449629Y9425347D01*
X-31560527Y9484623D01*
X-31680859Y9521126D01*
X-31806000Y9533451D01*
X-32341000Y9533451D01*
X-32341000Y10139134D01*
X-32338945Y10160001D01*
X-32341000Y10180868D01*
X-32341000Y10180874D01*
X-32347150Y10243314D01*
X-32371452Y10323427D01*
X-32410916Y10397260D01*
X-32464026Y10461974D01*
X-32480238Y10475279D01*
X-33100000Y11095040D01*
X-33100000Y11778402D01*
X-33038705Y11828705D01*
X-32981318Y11898632D01*
X-32938675Y11978410D01*
X-32912416Y12064975D01*
X-32903549Y12155000D01*
X-32903549Y12405008D01*
X-32871451Y12372910D01*
X-32871451Y12155000D01*
X-32862584Y12064975D01*
X-32836325Y11978410D01*
X-32793682Y11898632D01*
X-32736295Y11828705D01*
X-32666368Y11771318D01*
X-32652904Y11764121D01*
X-32644548Y11736574D01*
X-32605084Y11662741D01*
X-32551974Y11598026D01*
X-32535756Y11584716D01*
X-32368284Y11417244D01*
X-32354974Y11401026D01*
X-32290260Y11347916D01*
X-32216427Y11308452D01*
X-32160617Y11291522D01*
X-32136315Y11284150D01*
X-32127902Y11283321D01*
X-32073874Y11278000D01*
X-32073868Y11278000D01*
X-32053001Y11275945D01*
X-32032134Y11278000D01*
X-31061451Y11278000D01*
X-31061451Y11178000D01*
X-31055659Y11119190D01*
X-31038504Y11062640D01*
X-31010647Y11010523D01*
X-30973158Y10964842D01*
X-30927477Y10927353D01*
X-30875360Y10899496D01*
X-30818810Y10882341D01*
X-30760000Y10876549D01*
X-30310000Y10876549D01*
X-30273931Y10880101D01*
X-30240742Y10862361D01*
X-30176652Y10842920D01*
X-30110000Y10836355D01*
X-30070000Y10838000D01*
X-29985000Y10923000D01*
X-29985000Y11178000D01*
X-29801645Y11178000D01*
X-29795080Y11111348D01*
X-29785000Y11078118D01*
X-29785000Y10923000D01*
X-29700000Y10838000D01*
X-29660000Y10836355D01*
X-29593348Y10842920D01*
X-29560000Y10853036D01*
X-29526652Y10842920D01*
X-29460000Y10836355D01*
X-29420000Y10838000D01*
X-29335000Y10923000D01*
X-29335000Y11078118D01*
X-29324920Y11111348D01*
X-29318355Y11178000D01*
X-29320000Y11518000D01*
X-29335000Y11533000D01*
X-29335000Y11603000D01*
X-29785000Y11603000D01*
X-29785000Y11533000D01*
X-29800000Y11518000D01*
X-29801645Y11178000D01*
X-29985000Y11178000D01*
X-29985000Y11603000D01*
X-30005000Y11603000D01*
X-30005000Y11803000D01*
X-29985000Y11803000D01*
X-29985000Y12228000D01*
X-29801645Y12228000D01*
X-29800000Y11888000D01*
X-29785000Y11873000D01*
X-29785000Y11803000D01*
X-29335000Y11803000D01*
X-29335000Y11873000D01*
X-29320000Y11888000D01*
X-29318355Y12228000D01*
X-29324920Y12294652D01*
X-29335000Y12327882D01*
X-29335000Y12483000D01*
X-29420000Y12568000D01*
X-29460000Y12569645D01*
X-29526652Y12563080D01*
X-29560000Y12552964D01*
X-29593348Y12563080D01*
X-29660000Y12569645D01*
X-29700000Y12568000D01*
X-29785000Y12483000D01*
X-29785000Y12327882D01*
X-29795080Y12294652D01*
X-29801645Y12228000D01*
X-29985000Y12228000D01*
X-29985000Y12483000D01*
X-30070000Y12568000D01*
X-30110000Y12569645D01*
X-30176652Y12563080D01*
X-30240742Y12543639D01*
X-30273931Y12525899D01*
X-30310000Y12529451D01*
X-30760000Y12529451D01*
X-30818810Y12523659D01*
X-30875360Y12506504D01*
X-30927477Y12478647D01*
X-30973158Y12441158D01*
X-31010647Y12395477D01*
X-31038504Y12343360D01*
X-31055659Y12286810D01*
X-31061451Y12228000D01*
X-31061451Y12128000D01*
X-31631208Y12128000D01*
X-31628549Y12155000D01*
X-31628549Y12550000D01*
X-31637416Y12640025D01*
X-31663675Y12726590D01*
X-31706318Y12806368D01*
X-31763705Y12876295D01*
X-31776301Y12886632D01*
X-31740192Y12905933D01*
X-31688421Y12948421D01*
X-31645933Y13000192D01*
X-31641760Y13008000D01*
X-30391645Y13008000D01*
X-30385080Y12941348D01*
X-30365639Y12877258D01*
X-30334067Y12818192D01*
X-30291579Y12766421D01*
X-30239808Y12723933D01*
X-30180742Y12692361D01*
X-30116652Y12672920D01*
X-30050000Y12666355D01*
X-29787500Y12668000D01*
X-29702500Y12753000D01*
X-29702500Y13643000D01*
X-30305000Y13643000D01*
X-30390000Y13558000D01*
X-30391645Y13008000D01*
X-31641760Y13008000D01*
X-31614361Y13059258D01*
X-31594920Y13123348D01*
X-31588355Y13190000D01*
X-31590000Y13362500D01*
X-31675000Y13447500D01*
X-32150000Y13447500D01*
X-32150000Y13427500D01*
X-32350000Y13427500D01*
X-32350000Y13447500D01*
X-32370000Y13447500D01*
X-32370000Y13647500D01*
X-32350000Y13647500D01*
X-32350000Y14160000D01*
X-32150000Y14160000D01*
X-32150000Y13647500D01*
X-31675000Y13647500D01*
X-31590000Y13732500D01*
X-31588355Y13905000D01*
X-31594920Y13971652D01*
X-31614361Y14035742D01*
X-31645933Y14094808D01*
X-31688421Y14146579D01*
X-31740192Y14189067D01*
X-31799258Y14220639D01*
X-31863348Y14240080D01*
X-31930000Y14246645D01*
X-32065000Y14245000D01*
X-32150000Y14160000D01*
X-32350000Y14160000D01*
X-32435000Y14245000D01*
X-32570000Y14246645D01*
X-32636652Y14240080D01*
X-32700742Y14220639D01*
X-32759808Y14189067D01*
X-32811579Y14146579D01*
X-32854067Y14094808D01*
X-32885639Y14035742D01*
X-32905080Y13971652D01*
X-32911645Y13905000D01*
X-32910824Y13818857D01*
X-32912416Y13835025D01*
X-32938675Y13921590D01*
X-32981318Y14001368D01*
X-33038705Y14071295D01*
X-33108632Y14128682D01*
X-33188410Y14171325D01*
X-33274975Y14197584D01*
X-33365000Y14206451D01*
X-33685000Y14206451D01*
X-33775025Y14197584D01*
X-33861590Y14171325D01*
X-33941368Y14128682D01*
X-33965000Y14109288D01*
X-33965000Y14478000D01*
X-30391645Y14478000D01*
X-30390000Y13928000D01*
X-30305000Y13843000D01*
X-29702500Y13843000D01*
X-29702500Y15113000D01*
X-29502500Y15113000D01*
X-29502500Y13843000D01*
X-28807500Y13843000D01*
X-28807500Y15113000D01*
X-28607500Y15113000D01*
X-28607500Y13843000D01*
X-27912500Y13843000D01*
X-27912500Y15113000D01*
X-27712500Y15113000D01*
X-27712500Y13843000D01*
X-27017500Y13843000D01*
X-27017500Y15113000D01*
X-26817500Y15113000D01*
X-26817500Y13843000D01*
X-26215000Y13843000D01*
X-26130000Y13928000D01*
X-26128355Y14478000D01*
X-26130000Y15028000D01*
X-26215000Y15113000D01*
X-26817500Y15113000D01*
X-27017500Y15113000D01*
X-27712500Y15113000D01*
X-27912500Y15113000D01*
X-28607500Y15113000D01*
X-28807500Y15113000D01*
X-29502500Y15113000D01*
X-29702500Y15113000D01*
X-30305000Y15113000D01*
X-30390000Y15028000D01*
X-30391645Y14478000D01*
X-33965000Y14478000D01*
X-33965000Y14656250D01*
X-33944368Y14639318D01*
X-33864590Y14596675D01*
X-33778025Y14570416D01*
X-33688000Y14561549D01*
X-33368000Y14561549D01*
X-33277975Y14570416D01*
X-33191410Y14596675D01*
X-33111632Y14639318D01*
X-33041705Y14696705D01*
X-32984318Y14766632D01*
X-32941675Y14846410D01*
X-32915416Y14932975D01*
X-32906549Y15023000D01*
X-32906549Y15165911D01*
X-32879451Y15193009D01*
X-32879451Y15023000D01*
X-32870584Y14932975D01*
X-32844325Y14846410D01*
X-32801682Y14766632D01*
X-32744295Y14696705D01*
X-32674368Y14639318D01*
X-32594590Y14596675D01*
X-32508025Y14570416D01*
X-32418000Y14561549D01*
X-32098000Y14561549D01*
X-32007975Y14570416D01*
X-31921410Y14596675D01*
X-31841632Y14639318D01*
X-31771705Y14696705D01*
X-31714318Y14766632D01*
X-31698887Y14795500D01*
X-31010367Y14795500D01*
X-30989500Y14793445D01*
X-30968633Y14795500D01*
X-30968626Y14795500D01*
X-30906186Y14801650D01*
X-30826073Y14825952D01*
X-30752240Y14865416D01*
X-30687526Y14918526D01*
X-30674216Y14934745D01*
X-30574248Y15034713D01*
X-30558026Y15048026D01*
X-30504916Y15112740D01*
X-30465452Y15186573D01*
X-30441150Y15266686D01*
X-30435000Y15329126D01*
X-30435000Y15329133D01*
X-30432945Y15350000D01*
X-30435000Y15370867D01*
X-30435000Y15883960D01*
X-30423961Y15895000D01*
X-30391486Y15895000D01*
X-30390000Y15398000D01*
%TA.AperFunction,Conductor*%
D18*
G36*
X-30390000Y15398000D02*
G01*
X-30305000Y15313000D01*
X-29702500Y15313000D01*
X-29702500Y15333000D01*
X-29502500Y15333000D01*
X-29502500Y15313000D01*
X-28807500Y15313000D01*
X-28807500Y15333000D01*
X-28607500Y15333000D01*
X-28607500Y15313000D01*
X-27912500Y15313000D01*
X-27912500Y15333000D01*
X-27712500Y15333000D01*
X-27712500Y15313000D01*
X-27017500Y15313000D01*
X-27017500Y15333000D01*
X-26817500Y15333000D01*
X-26817500Y15313000D01*
X-26215000Y15313000D01*
X-26130000Y15398000D01*
X-26129432Y15587880D01*
X-25500000Y15579138D01*
X-25500000Y12622089D01*
X-25533329Y12649441D01*
X-25585195Y12677164D01*
X-25641473Y12694236D01*
X-25700000Y12700000D01*
X-26324967Y12700000D01*
X-26280192Y12723933D01*
X-26228421Y12766421D01*
X-26185933Y12818192D01*
X-26154361Y12877258D01*
X-26134920Y12941348D01*
X-26128355Y13008000D01*
X-26130000Y13558000D01*
X-26215000Y13643000D01*
X-26817500Y13643000D01*
X-26817500Y13623000D01*
X-27017500Y13623000D01*
X-27017500Y13643000D01*
X-27712500Y13643000D01*
X-27712500Y13623000D01*
X-27912500Y13623000D01*
X-27912500Y13643000D01*
X-28607500Y13643000D01*
X-28607500Y13623000D01*
X-28807500Y13623000D01*
X-28807500Y13643000D01*
X-29502500Y13643000D01*
X-29502500Y12753000D01*
X-29417500Y12668000D01*
X-29155000Y12666355D01*
X-28892500Y12668000D01*
X-28807502Y12752998D01*
X-28807502Y12679379D01*
X-28814805Y12677164D01*
X-28866671Y12649441D01*
X-28912132Y12612132D01*
X-28949441Y12566671D01*
X-28950960Y12563830D01*
X-29010000Y12569645D01*
X-29050000Y12568000D01*
X-29135000Y12483000D01*
X-29135000Y11803000D01*
X-29115000Y11803000D01*
X-29115000Y11603000D01*
X-29135000Y11603000D01*
X-29135000Y10923000D01*
X-29050000Y10838000D01*
X-29010000Y10836355D01*
X-29010000Y10491041D01*
X-29495761Y10005279D01*
X-29511973Y9991974D01*
X-29565083Y9927260D01*
X-29602089Y9858026D01*
X-29604547Y9853427D01*
X-29628850Y9773314D01*
X-29637055Y9690000D01*
X-29634999Y9669124D01*
X-29634999Y9641599D01*
X-29696295Y9591295D01*
X-29753682Y9521368D01*
X-29796325Y9441590D01*
X-29822584Y9355025D01*
X-29831451Y9265000D01*
X-29831451Y8870000D01*
X-29822584Y8779975D01*
X-29796325Y8693410D01*
X-29753682Y8613632D01*
X-29696295Y8543705D01*
X-29683699Y8533368D01*
X-29719808Y8514067D01*
X-29771579Y8471579D01*
X-29814067Y8419808D01*
X-29845639Y8360742D01*
X-29865080Y8296652D01*
X-29871645Y8230000D01*
X-29870000Y8057500D01*
X-29785000Y7972500D01*
X-29310000Y7972500D01*
X-29310000Y7992500D01*
X-29110000Y7992500D01*
X-29110000Y7972500D01*
X-29090000Y7972500D01*
X-29090000Y7772500D01*
X-29110000Y7772500D01*
X-29110000Y7260000D01*
X-29025000Y7175000D01*
X-28890000Y7173355D01*
X-28823348Y7179920D01*
X-28759258Y7199361D01*
X-28700192Y7230933D01*
X-28648421Y7273421D01*
X-28605933Y7325192D01*
X-28574361Y7384258D01*
X-28554920Y7448348D01*
X-28548355Y7515000D01*
X-28548621Y7542895D01*
X-28532863Y7529962D01*
X-28526325Y7508410D01*
X-28483682Y7428632D01*
X-28426295Y7358705D01*
X-28356368Y7301318D01*
X-28276590Y7258675D01*
X-28190025Y7232416D01*
X-28100000Y7223549D01*
X-27780000Y7223549D01*
X-27689975Y7232416D01*
X-27603410Y7258675D01*
X-27523632Y7301318D01*
X-27453705Y7358705D01*
X-27396318Y7428632D01*
X-27353675Y7508410D01*
X-27327416Y7594975D01*
X-27327414Y7595000D01*
X-27281645Y7595000D01*
X-27275080Y7528348D01*
X-27255639Y7464258D01*
X-27224067Y7405192D01*
X-27181579Y7353421D01*
X-27129808Y7310933D01*
X-27070742Y7279361D01*
X-27006652Y7259920D01*
X-26940000Y7253355D01*
X-26815000Y7255000D01*
X-26730000Y7340000D01*
X-26730000Y7862500D01*
X-27195000Y7862500D01*
X-27280000Y7777500D01*
X-27281645Y7595000D01*
X-27327414Y7595000D01*
X-27318549Y7685000D01*
X-27318549Y8080000D01*
X-27327416Y8170025D01*
X-27336509Y8200000D01*
X-27280473Y8200000D01*
X-27280000Y8147500D01*
X-27195000Y8062500D01*
X-26730000Y8062500D01*
X-26730000Y8082500D01*
X-26530000Y8082500D01*
X-26530000Y8062500D01*
X-26510000Y8062500D01*
X-26510000Y7862500D01*
X-26530000Y7862500D01*
X-26530000Y7340000D01*
X-26445000Y7255000D01*
X-26320000Y7253355D01*
X-26253348Y7259920D01*
X-26189258Y7279361D01*
X-26130192Y7310933D01*
X-26078421Y7353421D01*
X-26050000Y7388052D01*
X-26050000Y7300000D01*
X-26044236Y7241473D01*
X-26027164Y7185195D01*
X-25999441Y7133329D01*
X-25962132Y7087868D01*
X-25916671Y7050559D01*
X-25864805Y7022836D01*
X-25808527Y7005764D01*
X-25750000Y7000000D01*
X-18000000Y7000000D01*
X-17941473Y7005764D01*
X-17885195Y7022836D01*
X-17833329Y7050559D01*
X-17787868Y7087868D01*
X-17750559Y7133329D01*
X-17722836Y7185195D01*
X-17718345Y7200000D01*
X-17031645Y7200000D01*
X-17030000Y6085000D01*
X-16945000Y6000000D01*
X-15940000Y6000000D01*
X-15940000Y7455000D01*
X-16025000Y7540000D01*
X-16690000Y7541645D01*
X-16756652Y7535080D01*
X-16820742Y7515639D01*
X-16879808Y7484067D01*
X-16931579Y7441579D01*
X-16974067Y7389808D01*
X-17005639Y7330742D01*
X-17025080Y7266652D01*
X-17031645Y7200000D01*
X-17718345Y7200000D01*
X-17705764Y7241473D01*
X-17700000Y7300000D01*
X-17700000Y8100000D01*
X-14800000Y8100000D01*
X-14800000Y7483909D01*
X-14800192Y7484067D01*
X-14859258Y7515639D01*
X-14923348Y7535080D01*
X-14990000Y7541645D01*
X-15655000Y7540000D01*
X-15740000Y7455000D01*
X-15740000Y6000000D01*
X-15720000Y6000000D01*
X-15720000Y5800000D01*
X-15740000Y5800000D01*
X-15740000Y5780000D01*
X-15940000Y5780000D01*
X-15940000Y5800000D01*
X-16945000Y5800000D01*
X-17030000Y5715000D01*
X-17031582Y4643000D01*
X-18140724Y4643000D01*
X-18129361Y4664258D01*
X-18109920Y4728348D01*
X-18103355Y4795000D01*
X-18105000Y5360000D01*
X-18190000Y5445000D01*
X-19520000Y5445000D01*
X-19520000Y5425000D01*
X-19720000Y5425000D01*
X-19720000Y5445000D01*
X-21050000Y5445000D01*
X-21135000Y5360000D01*
X-21136645Y4795000D01*
X-21130080Y4728348D01*
X-21110639Y4664258D01*
X-21099276Y4643000D01*
X-21990724Y4643000D01*
X-21979361Y4664258D01*
X-21959920Y4728348D01*
X-21953355Y4795000D01*
X-21955000Y5360000D01*
X-22040000Y5445000D01*
X-23370000Y5445000D01*
X-23370000Y5425000D01*
X-23570000Y5425000D01*
X-23570000Y5445000D01*
X-24900000Y5445000D01*
X-24985000Y5360000D01*
X-24986645Y4795000D01*
X-24980080Y4728348D01*
X-24960639Y4664258D01*
X-24949276Y4643000D01*
X-33965000Y4643000D01*
X-33965000Y6295000D01*
X-24986645Y6295000D01*
X-24985000Y5730000D01*
X-24900000Y5645000D01*
X-23570000Y5645000D01*
X-23570000Y6550000D01*
X-23370000Y6550000D01*
X-23370000Y5645000D01*
X-22040000Y5645000D01*
X-21955000Y5730000D01*
X-21953355Y6295000D01*
X-21136645Y6295000D01*
X-21135000Y5730000D01*
X-21050000Y5645000D01*
X-19720000Y5645000D01*
X-19720000Y6550000D01*
X-19520000Y6550000D01*
X-19520000Y5645000D01*
X-18190000Y5645000D01*
X-18105000Y5730000D01*
X-18103355Y6295000D01*
X-18109920Y6361652D01*
X-18129361Y6425742D01*
X-18160933Y6484808D01*
X-18203421Y6536579D01*
X-18255192Y6579067D01*
X-18314258Y6610639D01*
X-18378348Y6630080D01*
X-18445000Y6636645D01*
X-19435000Y6635000D01*
X-19520000Y6550000D01*
X-19720000Y6550000D01*
X-19805000Y6635000D01*
X-20795000Y6636645D01*
X-20861652Y6630080D01*
X-20925742Y6610639D01*
X-20984808Y6579067D01*
X-21036579Y6536579D01*
X-21079067Y6484808D01*
X-21110639Y6425742D01*
X-21130080Y6361652D01*
X-21136645Y6295000D01*
X-21953355Y6295000D01*
X-21959920Y6361652D01*
X-21979361Y6425742D01*
X-22010933Y6484808D01*
X-22053421Y6536579D01*
X-22105192Y6579067D01*
X-22164258Y6610639D01*
X-22228348Y6630080D01*
X-22295000Y6636645D01*
X-23285000Y6635000D01*
X-23370000Y6550000D01*
X-23570000Y6550000D01*
X-23655000Y6635000D01*
X-24645000Y6636645D01*
X-24711652Y6630080D01*
X-24775742Y6610639D01*
X-24834808Y6579067D01*
X-24886579Y6536579D01*
X-24929067Y6484808D01*
X-24960639Y6425742D01*
X-24980080Y6361652D01*
X-24986645Y6295000D01*
X-33965000Y6295000D01*
X-33965000Y7277413D01*
X-33851141Y7242874D01*
X-33726000Y7230549D01*
X-31806000Y7230549D01*
X-31680859Y7242874D01*
X-31560527Y7279377D01*
X-31449629Y7338653D01*
X-31352426Y7418426D01*
X-31273170Y7515000D01*
X-29871645Y7515000D01*
X-29865080Y7448348D01*
X-29845639Y7384258D01*
X-29814067Y7325192D01*
X-29771579Y7273421D01*
X-29719808Y7230933D01*
X-29660742Y7199361D01*
X-29596652Y7179920D01*
X-29530000Y7173355D01*
X-29395000Y7175000D01*
X-29310000Y7260000D01*
X-29310000Y7772500D01*
X-29785000Y7772500D01*
X-29870000Y7687500D01*
X-29871645Y7515000D01*
X-31273170Y7515000D01*
X-31272653Y7515629D01*
X-31213377Y7626527D01*
X-31176874Y7746859D01*
X-31164549Y7872000D01*
X-31164549Y8892000D01*
X-31176874Y9017141D01*
X-31213377Y9137473D01*
X-31272653Y9248371D01*
X-31352426Y9345574D01*
X-31449629Y9425347D01*
X-31560527Y9484623D01*
X-31680859Y9521126D01*
X-31806000Y9533451D01*
X-32341000Y9533451D01*
X-32341000Y10139134D01*
X-32338945Y10160001D01*
X-32341000Y10180868D01*
X-32341000Y10180874D01*
X-32347150Y10243314D01*
X-32371452Y10323427D01*
X-32410916Y10397260D01*
X-32464026Y10461974D01*
X-32480238Y10475279D01*
X-33100000Y11095040D01*
X-33100000Y11778402D01*
X-33038705Y11828705D01*
X-32981318Y11898632D01*
X-32938675Y11978410D01*
X-32912416Y12064975D01*
X-32903549Y12155000D01*
X-32903549Y12405008D01*
X-32871451Y12372910D01*
X-32871451Y12155000D01*
X-32862584Y12064975D01*
X-32836325Y11978410D01*
X-32793682Y11898632D01*
X-32736295Y11828705D01*
X-32666368Y11771318D01*
X-32652904Y11764121D01*
X-32644548Y11736574D01*
X-32605084Y11662741D01*
X-32551974Y11598026D01*
X-32535756Y11584716D01*
X-32368284Y11417244D01*
X-32354974Y11401026D01*
X-32290260Y11347916D01*
X-32216427Y11308452D01*
X-32160617Y11291522D01*
X-32136315Y11284150D01*
X-32127902Y11283321D01*
X-32073874Y11278000D01*
X-32073868Y11278000D01*
X-32053001Y11275945D01*
X-32032134Y11278000D01*
X-31061451Y11278000D01*
X-31061451Y11178000D01*
X-31055659Y11119190D01*
X-31038504Y11062640D01*
X-31010647Y11010523D01*
X-30973158Y10964842D01*
X-30927477Y10927353D01*
X-30875360Y10899496D01*
X-30818810Y10882341D01*
X-30760000Y10876549D01*
X-30310000Y10876549D01*
X-30273931Y10880101D01*
X-30240742Y10862361D01*
X-30176652Y10842920D01*
X-30110000Y10836355D01*
X-30070000Y10838000D01*
X-29985000Y10923000D01*
X-29985000Y11178000D01*
X-29801645Y11178000D01*
X-29795080Y11111348D01*
X-29785000Y11078118D01*
X-29785000Y10923000D01*
X-29700000Y10838000D01*
X-29660000Y10836355D01*
X-29593348Y10842920D01*
X-29560000Y10853036D01*
X-29526652Y10842920D01*
X-29460000Y10836355D01*
X-29420000Y10838000D01*
X-29335000Y10923000D01*
X-29335000Y11078118D01*
X-29324920Y11111348D01*
X-29318355Y11178000D01*
X-29320000Y11518000D01*
X-29335000Y11533000D01*
X-29335000Y11603000D01*
X-29785000Y11603000D01*
X-29785000Y11533000D01*
X-29800000Y11518000D01*
X-29801645Y11178000D01*
X-29985000Y11178000D01*
X-29985000Y11603000D01*
X-30005000Y11603000D01*
X-30005000Y11803000D01*
X-29985000Y11803000D01*
X-29985000Y12228000D01*
X-29801645Y12228000D01*
X-29800000Y11888000D01*
X-29785000Y11873000D01*
X-29785000Y11803000D01*
X-29335000Y11803000D01*
X-29335000Y11873000D01*
X-29320000Y11888000D01*
X-29318355Y12228000D01*
X-29324920Y12294652D01*
X-29335000Y12327882D01*
X-29335000Y12483000D01*
X-29420000Y12568000D01*
X-29460000Y12569645D01*
X-29526652Y12563080D01*
X-29560000Y12552964D01*
X-29593348Y12563080D01*
X-29660000Y12569645D01*
X-29700000Y12568000D01*
X-29785000Y12483000D01*
X-29785000Y12327882D01*
X-29795080Y12294652D01*
X-29801645Y12228000D01*
X-29985000Y12228000D01*
X-29985000Y12483000D01*
X-30070000Y12568000D01*
X-30110000Y12569645D01*
X-30176652Y12563080D01*
X-30240742Y12543639D01*
X-30273931Y12525899D01*
X-30310000Y12529451D01*
X-30760000Y12529451D01*
X-30818810Y12523659D01*
X-30875360Y12506504D01*
X-30927477Y12478647D01*
X-30973158Y12441158D01*
X-31010647Y12395477D01*
X-31038504Y12343360D01*
X-31055659Y12286810D01*
X-31061451Y12228000D01*
X-31061451Y12128000D01*
X-31631208Y12128000D01*
X-31628549Y12155000D01*
X-31628549Y12550000D01*
X-31637416Y12640025D01*
X-31663675Y12726590D01*
X-31706318Y12806368D01*
X-31763705Y12876295D01*
X-31776301Y12886632D01*
X-31740192Y12905933D01*
X-31688421Y12948421D01*
X-31645933Y13000192D01*
X-31641760Y13008000D01*
X-30391645Y13008000D01*
X-30385080Y12941348D01*
X-30365639Y12877258D01*
X-30334067Y12818192D01*
X-30291579Y12766421D01*
X-30239808Y12723933D01*
X-30180742Y12692361D01*
X-30116652Y12672920D01*
X-30050000Y12666355D01*
X-29787500Y12668000D01*
X-29702500Y12753000D01*
X-29702500Y13643000D01*
X-30305000Y13643000D01*
X-30390000Y13558000D01*
X-30391645Y13008000D01*
X-31641760Y13008000D01*
X-31614361Y13059258D01*
X-31594920Y13123348D01*
X-31588355Y13190000D01*
X-31590000Y13362500D01*
X-31675000Y13447500D01*
X-32150000Y13447500D01*
X-32150000Y13427500D01*
X-32350000Y13427500D01*
X-32350000Y13447500D01*
X-32370000Y13447500D01*
X-32370000Y13647500D01*
X-32350000Y13647500D01*
X-32350000Y14160000D01*
X-32150000Y14160000D01*
X-32150000Y13647500D01*
X-31675000Y13647500D01*
X-31590000Y13732500D01*
X-31588355Y13905000D01*
X-31594920Y13971652D01*
X-31614361Y14035742D01*
X-31645933Y14094808D01*
X-31688421Y14146579D01*
X-31740192Y14189067D01*
X-31799258Y14220639D01*
X-31863348Y14240080D01*
X-31930000Y14246645D01*
X-32065000Y14245000D01*
X-32150000Y14160000D01*
X-32350000Y14160000D01*
X-32435000Y14245000D01*
X-32570000Y14246645D01*
X-32636652Y14240080D01*
X-32700742Y14220639D01*
X-32759808Y14189067D01*
X-32811579Y14146579D01*
X-32854067Y14094808D01*
X-32885639Y14035742D01*
X-32905080Y13971652D01*
X-32911645Y13905000D01*
X-32910824Y13818857D01*
X-32912416Y13835025D01*
X-32938675Y13921590D01*
X-32981318Y14001368D01*
X-33038705Y14071295D01*
X-33108632Y14128682D01*
X-33188410Y14171325D01*
X-33274975Y14197584D01*
X-33365000Y14206451D01*
X-33685000Y14206451D01*
X-33775025Y14197584D01*
X-33861590Y14171325D01*
X-33941368Y14128682D01*
X-33965000Y14109288D01*
X-33965000Y14478000D01*
X-30391645Y14478000D01*
X-30390000Y13928000D01*
X-30305000Y13843000D01*
X-29702500Y13843000D01*
X-29702500Y15113000D01*
X-29502500Y15113000D01*
X-29502500Y13843000D01*
X-28807500Y13843000D01*
X-28807500Y15113000D01*
X-28607500Y15113000D01*
X-28607500Y13843000D01*
X-27912500Y13843000D01*
X-27912500Y15113000D01*
X-27712500Y15113000D01*
X-27712500Y13843000D01*
X-27017500Y13843000D01*
X-27017500Y15113000D01*
X-26817500Y15113000D01*
X-26817500Y13843000D01*
X-26215000Y13843000D01*
X-26130000Y13928000D01*
X-26128355Y14478000D01*
X-26130000Y15028000D01*
X-26215000Y15113000D01*
X-26817500Y15113000D01*
X-27017500Y15113000D01*
X-27712500Y15113000D01*
X-27912500Y15113000D01*
X-28607500Y15113000D01*
X-28807500Y15113000D01*
X-29502500Y15113000D01*
X-29702500Y15113000D01*
X-30305000Y15113000D01*
X-30390000Y15028000D01*
X-30391645Y14478000D01*
X-33965000Y14478000D01*
X-33965000Y14656250D01*
X-33944368Y14639318D01*
X-33864590Y14596675D01*
X-33778025Y14570416D01*
X-33688000Y14561549D01*
X-33368000Y14561549D01*
X-33277975Y14570416D01*
X-33191410Y14596675D01*
X-33111632Y14639318D01*
X-33041705Y14696705D01*
X-32984318Y14766632D01*
X-32941675Y14846410D01*
X-32915416Y14932975D01*
X-32906549Y15023000D01*
X-32906549Y15165911D01*
X-32879451Y15193009D01*
X-32879451Y15023000D01*
X-32870584Y14932975D01*
X-32844325Y14846410D01*
X-32801682Y14766632D01*
X-32744295Y14696705D01*
X-32674368Y14639318D01*
X-32594590Y14596675D01*
X-32508025Y14570416D01*
X-32418000Y14561549D01*
X-32098000Y14561549D01*
X-32007975Y14570416D01*
X-31921410Y14596675D01*
X-31841632Y14639318D01*
X-31771705Y14696705D01*
X-31714318Y14766632D01*
X-31698887Y14795500D01*
X-31010367Y14795500D01*
X-30989500Y14793445D01*
X-30968633Y14795500D01*
X-30968626Y14795500D01*
X-30906186Y14801650D01*
X-30826073Y14825952D01*
X-30752240Y14865416D01*
X-30687526Y14918526D01*
X-30674216Y14934745D01*
X-30574248Y15034713D01*
X-30558026Y15048026D01*
X-30504916Y15112740D01*
X-30465452Y15186573D01*
X-30441150Y15266686D01*
X-30435000Y15329126D01*
X-30435000Y15329133D01*
X-30432945Y15350000D01*
X-30435000Y15370867D01*
X-30435000Y15883960D01*
X-30423961Y15895000D01*
X-30391486Y15895000D01*
X-30390000Y15398000D01*
G37*
%TD.AperFunction*%
D17*
X-31100000Y17438000D02*
X-31015000Y17353000D01*
X-30635000Y17353000D01*
X-30635000Y17373000D01*
X-30435000Y17373000D01*
X-30435000Y17353000D01*
X-30415000Y17353000D01*
X-30415000Y17153000D01*
X-30435000Y17153000D01*
X-30435000Y17133000D01*
X-30635000Y17133000D01*
X-30635000Y17153000D01*
X-31015000Y17153000D01*
X-31100000Y17068000D01*
X-31101645Y16728000D01*
X-31095080Y16661348D01*
X-31075639Y16597258D01*
X-31044067Y16538192D01*
X-31016472Y16504568D01*
X-31145756Y16375284D01*
X-31161974Y16361974D01*
X-31215084Y16297259D01*
X-31254548Y16223426D01*
X-31278850Y16143313D01*
X-31285000Y16080873D01*
X-31285000Y16080867D01*
X-31287055Y16060000D01*
X-31285000Y16039133D01*
X-31284999Y15645500D01*
X-31698887Y15645500D01*
X-31714318Y15674368D01*
X-31771705Y15744295D01*
X-31841632Y15801682D01*
X-31872160Y15818000D01*
X-31841632Y15834318D01*
X-31771705Y15891705D01*
X-31714318Y15961632D01*
X-31671675Y16041410D01*
X-31645416Y16127975D01*
X-31636549Y16218000D01*
X-31636549Y16613000D01*
X-31645416Y16703025D01*
X-31671675Y16789590D01*
X-31714318Y16869368D01*
X-31771705Y16939295D01*
X-31833000Y16989598D01*
X-31833000Y17695960D01*
X-31792970Y17735990D01*
X-31101442Y17735990D01*
X-31100000Y17438000D01*
%TA.AperFunction,Conductor*%
D18*
G36*
X-31100000Y17438000D02*
G01*
X-31015000Y17353000D01*
X-30635000Y17353000D01*
X-30635000Y17373000D01*
X-30435000Y17373000D01*
X-30435000Y17353000D01*
X-30415000Y17353000D01*
X-30415000Y17153000D01*
X-30435000Y17153000D01*
X-30435000Y17133000D01*
X-30635000Y17133000D01*
X-30635000Y17153000D01*
X-31015000Y17153000D01*
X-31100000Y17068000D01*
X-31101645Y16728000D01*
X-31095080Y16661348D01*
X-31075639Y16597258D01*
X-31044067Y16538192D01*
X-31016472Y16504568D01*
X-31145756Y16375284D01*
X-31161974Y16361974D01*
X-31215084Y16297259D01*
X-31254548Y16223426D01*
X-31278850Y16143313D01*
X-31285000Y16080873D01*
X-31285000Y16080867D01*
X-31287055Y16060000D01*
X-31285000Y16039133D01*
X-31284999Y15645500D01*
X-31698887Y15645500D01*
X-31714318Y15674368D01*
X-31771705Y15744295D01*
X-31841632Y15801682D01*
X-31872160Y15818000D01*
X-31841632Y15834318D01*
X-31771705Y15891705D01*
X-31714318Y15961632D01*
X-31671675Y16041410D01*
X-31645416Y16127975D01*
X-31636549Y16218000D01*
X-31636549Y16613000D01*
X-31645416Y16703025D01*
X-31671675Y16789590D01*
X-31714318Y16869368D01*
X-31771705Y16939295D01*
X-31833000Y16989598D01*
X-31833000Y17695960D01*
X-31792970Y17735990D01*
X-31101442Y17735990D01*
X-31100000Y17438000D01*
G37*
%TD.AperFunction*%
D17*
X-32455000Y23685000D02*
X-32370000Y23600000D01*
X-31365000Y23600000D01*
X-31365000Y23620000D01*
X-31165000Y23620000D01*
X-31165000Y23600000D01*
X-30160000Y23600000D01*
X-30075000Y23685000D01*
X-30073539Y24675000D01*
X-30050000Y24675000D01*
X-30050000Y21166365D01*
X-30415000Y21165000D01*
X-30500000Y21080000D01*
X-30500000Y20400000D01*
X-30480000Y20400000D01*
X-30480000Y20200000D01*
X-30500000Y20200000D01*
X-30500000Y20180000D01*
X-30700000Y20180000D01*
X-30700000Y20200000D01*
X-31480000Y20200000D01*
X-31565000Y20115000D01*
X-31566645Y19775000D01*
X-31560080Y19708348D01*
X-31540639Y19644258D01*
X-31509067Y19585192D01*
X-31466579Y19533421D01*
X-31414808Y19490933D01*
X-31355742Y19459361D01*
X-31291652Y19439920D01*
X-31225000Y19433355D01*
X-30822153Y19434861D01*
X-30865742Y19421639D01*
X-30924808Y19390067D01*
X-30976579Y19347579D01*
X-31019067Y19295808D01*
X-31050639Y19236742D01*
X-31070080Y19172652D01*
X-31076645Y19106000D01*
X-31075000Y18981000D01*
X-30990000Y18896000D01*
X-30467500Y18896000D01*
X-30467500Y18916000D01*
X-30267500Y18916000D01*
X-30267500Y18896000D01*
X-30247500Y18896000D01*
X-30247500Y18696000D01*
X-30267500Y18696000D01*
X-30267500Y18676000D01*
X-30467500Y18676000D01*
X-30467500Y18696000D01*
X-30990000Y18696000D01*
X-31075000Y18611000D01*
X-31075329Y18585990D01*
X-31948136Y18585990D01*
X-31969010Y18588046D01*
X-31989884Y18585990D01*
X-32052324Y18579840D01*
X-32132437Y18555538D01*
X-32206270Y18516074D01*
X-32270984Y18462964D01*
X-32284294Y18446746D01*
X-32543756Y18187284D01*
X-32559974Y18173974D01*
X-32613084Y18109259D01*
X-32652548Y18035426D01*
X-32676850Y17955313D01*
X-32683000Y17892873D01*
X-32683000Y17892867D01*
X-32685055Y17872000D01*
X-32683000Y17851133D01*
X-32682999Y16989598D01*
X-32744295Y16939295D01*
X-32801682Y16869368D01*
X-32844325Y16789590D01*
X-32866907Y16715148D01*
X-32866355Y16773000D01*
X-32872920Y16839652D01*
X-32892361Y16903742D01*
X-32923933Y16962808D01*
X-32966421Y17014579D01*
X-33018192Y17057067D01*
X-33077258Y17088639D01*
X-33141348Y17108080D01*
X-33208000Y17114645D01*
X-33343000Y17113000D01*
X-33428000Y17028000D01*
X-33428000Y16515500D01*
X-33408000Y16515500D01*
X-33408000Y16315500D01*
X-33428000Y16315500D01*
X-33428000Y16295500D01*
X-33628000Y16295500D01*
X-33628000Y16315500D01*
X-33648000Y16315500D01*
X-33648000Y16515500D01*
X-33628000Y16515500D01*
X-33628000Y17028000D01*
X-33713000Y17113000D01*
X-33848000Y17114645D01*
X-33914652Y17108080D01*
X-33965000Y17092807D01*
X-33965000Y20825000D01*
X-31566645Y20825000D01*
X-31565000Y20485000D01*
X-31480000Y20400000D01*
X-30700000Y20400000D01*
X-30700000Y21080000D01*
X-30785000Y21165000D01*
X-31225000Y21166645D01*
X-31291652Y21160080D01*
X-31355742Y21140639D01*
X-31414808Y21109067D01*
X-31466579Y21066579D01*
X-31509067Y21014808D01*
X-31540639Y20955742D01*
X-31560080Y20891652D01*
X-31566645Y20825000D01*
X-33965000Y20825000D01*
X-33965000Y22200000D01*
X-32456645Y22200000D01*
X-32450080Y22133348D01*
X-32430639Y22069258D01*
X-32399067Y22010192D01*
X-32356579Y21958421D01*
X-32304808Y21915933D01*
X-32245742Y21884361D01*
X-32181652Y21864920D01*
X-32115000Y21858355D01*
X-31450000Y21860000D01*
X-31365000Y21945000D01*
X-31365000Y23400000D01*
X-31165000Y23400000D01*
X-31165000Y21945000D01*
X-31080000Y21860000D01*
X-30415000Y21858355D01*
X-30348348Y21864920D01*
X-30284258Y21884361D01*
X-30225192Y21915933D01*
X-30173421Y21958421D01*
X-30130933Y22010192D01*
X-30099361Y22069258D01*
X-30079920Y22133348D01*
X-30073355Y22200000D01*
X-30075000Y23315000D01*
X-30160000Y23400000D01*
X-31165000Y23400000D01*
X-31365000Y23400000D01*
X-32370000Y23400000D01*
X-32455000Y23315000D01*
X-32456645Y22200000D01*
X-33965000Y22200000D01*
X-33965000Y24675000D01*
X-32456461Y24675000D01*
X-32455000Y23685000D01*
%TA.AperFunction,Conductor*%
D18*
G36*
X-32455000Y23685000D02*
G01*
X-32370000Y23600000D01*
X-31365000Y23600000D01*
X-31365000Y23620000D01*
X-31165000Y23620000D01*
X-31165000Y23600000D01*
X-30160000Y23600000D01*
X-30075000Y23685000D01*
X-30073539Y24675000D01*
X-30050000Y24675000D01*
X-30050000Y21166365D01*
X-30415000Y21165000D01*
X-30500000Y21080000D01*
X-30500000Y20400000D01*
X-30480000Y20400000D01*
X-30480000Y20200000D01*
X-30500000Y20200000D01*
X-30500000Y20180000D01*
X-30700000Y20180000D01*
X-30700000Y20200000D01*
X-31480000Y20200000D01*
X-31565000Y20115000D01*
X-31566645Y19775000D01*
X-31560080Y19708348D01*
X-31540639Y19644258D01*
X-31509067Y19585192D01*
X-31466579Y19533421D01*
X-31414808Y19490933D01*
X-31355742Y19459361D01*
X-31291652Y19439920D01*
X-31225000Y19433355D01*
X-30822153Y19434861D01*
X-30865742Y19421639D01*
X-30924808Y19390067D01*
X-30976579Y19347579D01*
X-31019067Y19295808D01*
X-31050639Y19236742D01*
X-31070080Y19172652D01*
X-31076645Y19106000D01*
X-31075000Y18981000D01*
X-30990000Y18896000D01*
X-30467500Y18896000D01*
X-30467500Y18916000D01*
X-30267500Y18916000D01*
X-30267500Y18896000D01*
X-30247500Y18896000D01*
X-30247500Y18696000D01*
X-30267500Y18696000D01*
X-30267500Y18676000D01*
X-30467500Y18676000D01*
X-30467500Y18696000D01*
X-30990000Y18696000D01*
X-31075000Y18611000D01*
X-31075329Y18585990D01*
X-31948136Y18585990D01*
X-31969010Y18588046D01*
X-31989884Y18585990D01*
X-32052324Y18579840D01*
X-32132437Y18555538D01*
X-32206270Y18516074D01*
X-32270984Y18462964D01*
X-32284294Y18446746D01*
X-32543756Y18187284D01*
X-32559974Y18173974D01*
X-32613084Y18109259D01*
X-32652548Y18035426D01*
X-32676850Y17955313D01*
X-32683000Y17892873D01*
X-32683000Y17892867D01*
X-32685055Y17872000D01*
X-32683000Y17851133D01*
X-32682999Y16989598D01*
X-32744295Y16939295D01*
X-32801682Y16869368D01*
X-32844325Y16789590D01*
X-32866907Y16715148D01*
X-32866355Y16773000D01*
X-32872920Y16839652D01*
X-32892361Y16903742D01*
X-32923933Y16962808D01*
X-32966421Y17014579D01*
X-33018192Y17057067D01*
X-33077258Y17088639D01*
X-33141348Y17108080D01*
X-33208000Y17114645D01*
X-33343000Y17113000D01*
X-33428000Y17028000D01*
X-33428000Y16515500D01*
X-33408000Y16515500D01*
X-33408000Y16315500D01*
X-33428000Y16315500D01*
X-33428000Y16295500D01*
X-33628000Y16295500D01*
X-33628000Y16315500D01*
X-33648000Y16315500D01*
X-33648000Y16515500D01*
X-33628000Y16515500D01*
X-33628000Y17028000D01*
X-33713000Y17113000D01*
X-33848000Y17114645D01*
X-33914652Y17108080D01*
X-33965000Y17092807D01*
X-33965000Y20825000D01*
X-31566645Y20825000D01*
X-31565000Y20485000D01*
X-31480000Y20400000D01*
X-30700000Y20400000D01*
X-30700000Y21080000D01*
X-30785000Y21165000D01*
X-31225000Y21166645D01*
X-31291652Y21160080D01*
X-31355742Y21140639D01*
X-31414808Y21109067D01*
X-31466579Y21066579D01*
X-31509067Y21014808D01*
X-31540639Y20955742D01*
X-31560080Y20891652D01*
X-31566645Y20825000D01*
X-33965000Y20825000D01*
X-33965000Y22200000D01*
X-32456645Y22200000D01*
X-32450080Y22133348D01*
X-32430639Y22069258D01*
X-32399067Y22010192D01*
X-32356579Y21958421D01*
X-32304808Y21915933D01*
X-32245742Y21884361D01*
X-32181652Y21864920D01*
X-32115000Y21858355D01*
X-31450000Y21860000D01*
X-31365000Y21945000D01*
X-31365000Y23400000D01*
X-31165000Y23400000D01*
X-31165000Y21945000D01*
X-31080000Y21860000D01*
X-30415000Y21858355D01*
X-30348348Y21864920D01*
X-30284258Y21884361D01*
X-30225192Y21915933D01*
X-30173421Y21958421D01*
X-30130933Y22010192D01*
X-30099361Y22069258D01*
X-30079920Y22133348D01*
X-30073355Y22200000D01*
X-30075000Y23315000D01*
X-30160000Y23400000D01*
X-31165000Y23400000D01*
X-31365000Y23400000D01*
X-32370000Y23400000D01*
X-32455000Y23315000D01*
X-32456645Y22200000D01*
X-33965000Y22200000D01*
X-33965000Y24675000D01*
X-32456461Y24675000D01*
X-32455000Y23685000D01*
G37*
%TD.AperFunction*%
%TD*%
D17*
%TO.N,VCC_BAT*%
X-20947159Y24639159D02*
X-20984648Y24593478D01*
X-21012505Y24541361D01*
X-21029660Y24484810D01*
X-21035452Y24426000D01*
X-21034000Y23251000D01*
X-20959000Y23176000D01*
X-18234000Y23176000D01*
X-18234000Y23196000D01*
X-17834000Y23196000D01*
X-17834000Y23176000D01*
X-15109000Y23176000D01*
X-15034000Y23251000D01*
X-15032548Y24426000D01*
X-15038340Y24484810D01*
X-15055495Y24541361D01*
X-15083352Y24593478D01*
X-15120841Y24639159D01*
X-15164514Y24675000D01*
X-11525000Y24675000D01*
X-11525000Y19100000D01*
X-27000000Y19100000D01*
X-27058527Y19094236D01*
X-27114805Y19077164D01*
X-27166671Y19049441D01*
X-27212132Y19012132D01*
X-27249441Y18966671D01*
X-27277164Y18914805D01*
X-27294236Y18858527D01*
X-27300000Y18800000D01*
X-27300000Y18079451D01*
X-27510000Y18079451D01*
X-27568810Y18073659D01*
X-27610000Y18061164D01*
X-27651190Y18073659D01*
X-27710000Y18079451D01*
X-28160000Y18079451D01*
X-28218810Y18073659D01*
X-28260000Y18061164D01*
X-28301190Y18073659D01*
X-28360000Y18079451D01*
X-28810000Y18079451D01*
X-28868810Y18073659D01*
X-28909998Y18061164D01*
X-28951190Y18073660D01*
X-29010000Y18079452D01*
X-29035000Y18078000D01*
X-29110000Y18003000D01*
X-29110000Y17792733D01*
X-29111451Y17778000D01*
X-29111451Y17033000D01*
X-29358549Y17033000D01*
X-29358549Y17778000D01*
X-29360000Y17792733D01*
X-29360000Y18003000D01*
X-29435000Y18078000D01*
X-29460000Y18079452D01*
X-29514838Y18074051D01*
X-29529916Y18102260D01*
X-29583026Y18166974D01*
X-29599238Y18180279D01*
X-29603890Y18184931D01*
X-29600000Y18184548D01*
X-29507500Y18186000D01*
X-29432500Y18261000D01*
X-29432500Y18596000D01*
X-29032500Y18596000D01*
X-29032500Y18261000D01*
X-28957500Y18186000D01*
X-28865000Y18184548D01*
X-28806190Y18190340D01*
X-28749639Y18207495D01*
X-28697522Y18235352D01*
X-28651841Y18272841D01*
X-28614352Y18318522D01*
X-28586495Y18370639D01*
X-28569340Y18427190D01*
X-28563548Y18486000D01*
X-28565000Y18521000D01*
X-28640000Y18596000D01*
X-29032500Y18596000D01*
X-29432500Y18596000D01*
X-29452500Y18596000D01*
X-29452500Y18996000D01*
X-29432500Y18996000D01*
X-29432500Y19331000D01*
X-29032500Y19331000D01*
X-29032500Y18996000D01*
X-28640000Y18996000D01*
X-28565000Y19071000D01*
X-28563548Y19106000D01*
X-28569340Y19164810D01*
X-28586495Y19221361D01*
X-28614352Y19273478D01*
X-28651841Y19319159D01*
X-28697522Y19356648D01*
X-28749639Y19384505D01*
X-28806190Y19401660D01*
X-28865000Y19407452D01*
X-28957500Y19406000D01*
X-29032500Y19331000D01*
X-29432500Y19331000D01*
X-29507500Y19406000D01*
X-29600000Y19407452D01*
X-29650000Y19402528D01*
X-29650000Y19476010D01*
X-29625000Y19473548D01*
X-29275000Y19475000D01*
X-29200000Y19550000D01*
X-29200000Y20100000D01*
X-28800000Y20100000D01*
X-28800000Y19550000D01*
X-28725000Y19475000D01*
X-28375000Y19473548D01*
X-28316190Y19479340D01*
X-28259639Y19496495D01*
X-28207522Y19524352D01*
X-28161841Y19561841D01*
X-28124352Y19607522D01*
X-28096495Y19659639D01*
X-28079340Y19716190D01*
X-28073548Y19775000D01*
X-28075000Y20025000D01*
X-28150000Y20100000D01*
X-28800000Y20100000D01*
X-29200000Y20100000D01*
X-29220000Y20100000D01*
X-29220000Y20500000D01*
X-29200000Y20500000D01*
X-29200000Y21050000D01*
X-28800000Y21050000D01*
X-28800000Y20500000D01*
X-28150000Y20500000D01*
X-28075000Y20575000D01*
X-28073548Y20825000D01*
X-28079340Y20883810D01*
X-28096495Y20940361D01*
X-28124352Y20992478D01*
X-28161841Y21038159D01*
X-28207522Y21075648D01*
X-28259639Y21103505D01*
X-28316190Y21120660D01*
X-28375000Y21126452D01*
X-28725000Y21125000D01*
X-28800000Y21050000D01*
X-29200000Y21050000D01*
X-29275000Y21125000D01*
X-29625000Y21126452D01*
X-29650000Y21123990D01*
X-29650000Y21526000D01*
X-21035452Y21526000D01*
X-21029660Y21467190D01*
X-21012505Y21410639D01*
X-20984648Y21358522D01*
X-20947159Y21312841D01*
X-20901478Y21275352D01*
X-20849361Y21247495D01*
X-20792810Y21230340D01*
X-20734000Y21224548D01*
X-18309000Y21226000D01*
X-18234000Y21301000D01*
X-18234000Y22776000D01*
X-17834000Y22776000D01*
X-17834000Y21301000D01*
X-17759000Y21226000D01*
X-15334000Y21224548D01*
X-15275190Y21230340D01*
X-15218639Y21247495D01*
X-15166522Y21275352D01*
X-15120841Y21312841D01*
X-15083352Y21358522D01*
X-15055495Y21410639D01*
X-15038340Y21467190D01*
X-15032548Y21526000D01*
X-15034000Y22701000D01*
X-15109000Y22776000D01*
X-17834000Y22776000D01*
X-18234000Y22776000D01*
X-20959000Y22776000D01*
X-21034000Y22701000D01*
X-21035452Y21526000D01*
X-29650000Y21526000D01*
X-29650000Y21909251D01*
X-29633810Y21904340D01*
X-29575000Y21898548D01*
X-29000000Y21900000D01*
X-28925000Y21975000D01*
X-28925000Y23300000D01*
X-28525000Y23300000D01*
X-28525000Y21975000D01*
X-28450000Y21900000D01*
X-27875000Y21898548D01*
X-27816190Y21904340D01*
X-27759639Y21921495D01*
X-27707522Y21949352D01*
X-27661841Y21986841D01*
X-27624352Y22032522D01*
X-27596495Y22084639D01*
X-27579340Y22141190D01*
X-27573548Y22200000D01*
X-27575000Y23225000D01*
X-27650000Y23300000D01*
X-28525000Y23300000D01*
X-28925000Y23300000D01*
X-28945000Y23300000D01*
X-28945000Y23700000D01*
X-28925000Y23700000D01*
X-28925000Y23720000D01*
X-28525000Y23720000D01*
X-28525000Y23700000D01*
X-27650000Y23700000D01*
X-27575000Y23775000D01*
X-27573725Y24675000D01*
X-20903486Y24675000D01*
X-20947159Y24639159D01*
%TA.AperFunction,Conductor*%
D18*
G36*
X-20947159Y24639159D02*
G01*
X-20984648Y24593478D01*
X-21012505Y24541361D01*
X-21029660Y24484810D01*
X-21035452Y24426000D01*
X-21034000Y23251000D01*
X-20959000Y23176000D01*
X-18234000Y23176000D01*
X-18234000Y23196000D01*
X-17834000Y23196000D01*
X-17834000Y23176000D01*
X-15109000Y23176000D01*
X-15034000Y23251000D01*
X-15032548Y24426000D01*
X-15038340Y24484810D01*
X-15055495Y24541361D01*
X-15083352Y24593478D01*
X-15120841Y24639159D01*
X-15164514Y24675000D01*
X-11525000Y24675000D01*
X-11525000Y19100000D01*
X-27000000Y19100000D01*
X-27058527Y19094236D01*
X-27114805Y19077164D01*
X-27166671Y19049441D01*
X-27212132Y19012132D01*
X-27249441Y18966671D01*
X-27277164Y18914805D01*
X-27294236Y18858527D01*
X-27300000Y18800000D01*
X-27300000Y18079451D01*
X-27510000Y18079451D01*
X-27568810Y18073659D01*
X-27610000Y18061164D01*
X-27651190Y18073659D01*
X-27710000Y18079451D01*
X-28160000Y18079451D01*
X-28218810Y18073659D01*
X-28260000Y18061164D01*
X-28301190Y18073659D01*
X-28360000Y18079451D01*
X-28810000Y18079451D01*
X-28868810Y18073659D01*
X-28909998Y18061164D01*
X-28951190Y18073660D01*
X-29010000Y18079452D01*
X-29035000Y18078000D01*
X-29110000Y18003000D01*
X-29110000Y17792733D01*
X-29111451Y17778000D01*
X-29111451Y17033000D01*
X-29358549Y17033000D01*
X-29358549Y17778000D01*
X-29360000Y17792733D01*
X-29360000Y18003000D01*
X-29435000Y18078000D01*
X-29460000Y18079452D01*
X-29514838Y18074051D01*
X-29529916Y18102260D01*
X-29583026Y18166974D01*
X-29599238Y18180279D01*
X-29603890Y18184931D01*
X-29600000Y18184548D01*
X-29507500Y18186000D01*
X-29432500Y18261000D01*
X-29432500Y18596000D01*
X-29032500Y18596000D01*
X-29032500Y18261000D01*
X-28957500Y18186000D01*
X-28865000Y18184548D01*
X-28806190Y18190340D01*
X-28749639Y18207495D01*
X-28697522Y18235352D01*
X-28651841Y18272841D01*
X-28614352Y18318522D01*
X-28586495Y18370639D01*
X-28569340Y18427190D01*
X-28563548Y18486000D01*
X-28565000Y18521000D01*
X-28640000Y18596000D01*
X-29032500Y18596000D01*
X-29432500Y18596000D01*
X-29452500Y18596000D01*
X-29452500Y18996000D01*
X-29432500Y18996000D01*
X-29432500Y19331000D01*
X-29032500Y19331000D01*
X-29032500Y18996000D01*
X-28640000Y18996000D01*
X-28565000Y19071000D01*
X-28563548Y19106000D01*
X-28569340Y19164810D01*
X-28586495Y19221361D01*
X-28614352Y19273478D01*
X-28651841Y19319159D01*
X-28697522Y19356648D01*
X-28749639Y19384505D01*
X-28806190Y19401660D01*
X-28865000Y19407452D01*
X-28957500Y19406000D01*
X-29032500Y19331000D01*
X-29432500Y19331000D01*
X-29507500Y19406000D01*
X-29600000Y19407452D01*
X-29650000Y19402528D01*
X-29650000Y19476010D01*
X-29625000Y19473548D01*
X-29275000Y19475000D01*
X-29200000Y19550000D01*
X-29200000Y20100000D01*
X-28800000Y20100000D01*
X-28800000Y19550000D01*
X-28725000Y19475000D01*
X-28375000Y19473548D01*
X-28316190Y19479340D01*
X-28259639Y19496495D01*
X-28207522Y19524352D01*
X-28161841Y19561841D01*
X-28124352Y19607522D01*
X-28096495Y19659639D01*
X-28079340Y19716190D01*
X-28073548Y19775000D01*
X-28075000Y20025000D01*
X-28150000Y20100000D01*
X-28800000Y20100000D01*
X-29200000Y20100000D01*
X-29220000Y20100000D01*
X-29220000Y20500000D01*
X-29200000Y20500000D01*
X-29200000Y21050000D01*
X-28800000Y21050000D01*
X-28800000Y20500000D01*
X-28150000Y20500000D01*
X-28075000Y20575000D01*
X-28073548Y20825000D01*
X-28079340Y20883810D01*
X-28096495Y20940361D01*
X-28124352Y20992478D01*
X-28161841Y21038159D01*
X-28207522Y21075648D01*
X-28259639Y21103505D01*
X-28316190Y21120660D01*
X-28375000Y21126452D01*
X-28725000Y21125000D01*
X-28800000Y21050000D01*
X-29200000Y21050000D01*
X-29275000Y21125000D01*
X-29625000Y21126452D01*
X-29650000Y21123990D01*
X-29650000Y21526000D01*
X-21035452Y21526000D01*
X-21029660Y21467190D01*
X-21012505Y21410639D01*
X-20984648Y21358522D01*
X-20947159Y21312841D01*
X-20901478Y21275352D01*
X-20849361Y21247495D01*
X-20792810Y21230340D01*
X-20734000Y21224548D01*
X-18309000Y21226000D01*
X-18234000Y21301000D01*
X-18234000Y22776000D01*
X-17834000Y22776000D01*
X-17834000Y21301000D01*
X-17759000Y21226000D01*
X-15334000Y21224548D01*
X-15275190Y21230340D01*
X-15218639Y21247495D01*
X-15166522Y21275352D01*
X-15120841Y21312841D01*
X-15083352Y21358522D01*
X-15055495Y21410639D01*
X-15038340Y21467190D01*
X-15032548Y21526000D01*
X-15034000Y22701000D01*
X-15109000Y22776000D01*
X-17834000Y22776000D01*
X-18234000Y22776000D01*
X-20959000Y22776000D01*
X-21034000Y22701000D01*
X-21035452Y21526000D01*
X-29650000Y21526000D01*
X-29650000Y21909251D01*
X-29633810Y21904340D01*
X-29575000Y21898548D01*
X-29000000Y21900000D01*
X-28925000Y21975000D01*
X-28925000Y23300000D01*
X-28525000Y23300000D01*
X-28525000Y21975000D01*
X-28450000Y21900000D01*
X-27875000Y21898548D01*
X-27816190Y21904340D01*
X-27759639Y21921495D01*
X-27707522Y21949352D01*
X-27661841Y21986841D01*
X-27624352Y22032522D01*
X-27596495Y22084639D01*
X-27579340Y22141190D01*
X-27573548Y22200000D01*
X-27575000Y23225000D01*
X-27650000Y23300000D01*
X-28525000Y23300000D01*
X-28925000Y23300000D01*
X-28945000Y23300000D01*
X-28945000Y23700000D01*
X-28925000Y23700000D01*
X-28925000Y23720000D01*
X-28525000Y23720000D01*
X-28525000Y23700000D01*
X-27650000Y23700000D01*
X-27575000Y23775000D01*
X-27573725Y24675000D01*
X-20903486Y24675000D01*
X-20947159Y24639159D01*
G37*
%TD.AperFunction*%
%TD*%
D17*
%TO.N,/SW*%
X-11524999Y12000000D02*
X-25100000Y12000000D01*
X-25100000Y13526000D01*
X-21075645Y13526000D01*
X-21074000Y12361000D01*
X-20989000Y12276000D01*
X-18234000Y12276000D01*
X-18234000Y13781000D01*
X-17834000Y13781000D01*
X-17834000Y12276000D01*
X-15079000Y12276000D01*
X-14994000Y12361000D01*
X-14992355Y13526000D01*
X-14998920Y13592652D01*
X-15018361Y13656742D01*
X-15049933Y13715808D01*
X-15092421Y13767579D01*
X-15144192Y13810067D01*
X-15203258Y13841639D01*
X-15267348Y13861080D01*
X-15334000Y13867645D01*
X-17749000Y13866000D01*
X-17834000Y13781000D01*
X-18234000Y13781000D01*
X-18319000Y13866000D01*
X-20734000Y13867645D01*
X-20800652Y13861080D01*
X-20864742Y13841639D01*
X-20923808Y13810067D01*
X-20975579Y13767579D01*
X-21018067Y13715808D01*
X-21049639Y13656742D01*
X-21069080Y13592652D01*
X-21075645Y13526000D01*
X-25100000Y13526000D01*
X-25100000Y15875000D01*
X-25101921Y15894509D01*
X-25107612Y15913268D01*
X-25116853Y15930557D01*
X-25129289Y15945711D01*
X-25144443Y15958147D01*
X-25161732Y15967388D01*
X-25180491Y15973079D01*
X-25198611Y15974990D01*
X-26172539Y15988517D01*
X-26174341Y16006810D01*
X-26191496Y16063360D01*
X-26219353Y16115477D01*
X-26256842Y16161158D01*
X-26302523Y16198647D01*
X-26354640Y16226504D01*
X-26411190Y16243659D01*
X-26470000Y16249451D01*
X-26785000Y16249451D01*
X-26785000Y16448000D01*
X-26760000Y16473000D01*
X-26760000Y16713267D01*
X-26758549Y16728000D01*
X-26551645Y16728000D01*
X-26545080Y16661348D01*
X-26525639Y16597258D01*
X-26510000Y16568000D01*
X-26510000Y16473000D01*
X-26425000Y16388000D01*
X-26410000Y16386355D01*
X-26343348Y16392920D01*
X-26310000Y16403036D01*
X-26276652Y16392920D01*
X-26210000Y16386355D01*
X-26195000Y16388000D01*
X-26110000Y16473000D01*
X-26110000Y16568000D01*
X-26094361Y16597258D01*
X-26074920Y16661348D01*
X-26068355Y16728000D01*
X-26070000Y16968000D01*
X-26110000Y17008000D01*
X-26110000Y17053000D01*
X-25860000Y17053000D01*
X-25860000Y16473000D01*
X-25775000Y16388000D01*
X-25760000Y16386355D01*
X-25693348Y16392920D01*
X-25629258Y16412361D01*
X-25570192Y16443933D01*
X-25518421Y16486421D01*
X-25475933Y16538192D01*
X-25444361Y16597258D01*
X-25424920Y16661348D01*
X-25418355Y16728000D01*
X-25420000Y16968000D01*
X-25505000Y17053000D01*
X-25860000Y17053000D01*
X-26110000Y17053000D01*
X-26510000Y17053000D01*
X-26510000Y17008000D01*
X-26550000Y16968000D01*
X-26551645Y16728000D01*
X-26758549Y16728000D01*
X-26758549Y17778000D01*
X-26551645Y17778000D01*
X-26550000Y17538000D01*
X-26510000Y17498000D01*
X-26510000Y17453000D01*
X-26110000Y17453000D01*
X-26110000Y17498000D01*
X-26070000Y17538000D01*
X-26068355Y17778000D01*
X-26074920Y17844652D01*
X-26094361Y17908742D01*
X-26110000Y17938000D01*
X-26110000Y18033000D01*
X-25860000Y18033000D01*
X-25860000Y17453000D01*
X-25505000Y17453000D01*
X-25420000Y17538000D01*
X-25418355Y17778000D01*
X-25424920Y17844652D01*
X-25444361Y17908742D01*
X-25475933Y17967808D01*
X-25518421Y18019579D01*
X-25570192Y18062067D01*
X-25629258Y18093639D01*
X-25693348Y18113080D01*
X-25760000Y18119645D01*
X-25775000Y18118000D01*
X-25860000Y18033000D01*
X-26110000Y18033000D01*
X-26195000Y18118000D01*
X-26210000Y18119645D01*
X-26276652Y18113080D01*
X-26310000Y18102964D01*
X-26343348Y18113080D01*
X-26410000Y18119645D01*
X-26425000Y18118000D01*
X-26510000Y18033000D01*
X-26510000Y17938000D01*
X-26525639Y17908742D01*
X-26545080Y17844652D01*
X-26551645Y17778000D01*
X-26758549Y17778000D01*
X-26760000Y17792733D01*
X-26760000Y18033000D01*
X-26845000Y18118000D01*
X-26860000Y18119645D01*
X-26900000Y18115705D01*
X-26900000Y18700000D01*
X-11525000Y18700000D01*
X-11524999Y12000000D01*
%TA.AperFunction,Conductor*%
D18*
G36*
X-11524999Y12000000D02*
G01*
X-25100000Y12000000D01*
X-25100000Y13526000D01*
X-21075645Y13526000D01*
X-21074000Y12361000D01*
X-20989000Y12276000D01*
X-18234000Y12276000D01*
X-18234000Y13781000D01*
X-17834000Y13781000D01*
X-17834000Y12276000D01*
X-15079000Y12276000D01*
X-14994000Y12361000D01*
X-14992355Y13526000D01*
X-14998920Y13592652D01*
X-15018361Y13656742D01*
X-15049933Y13715808D01*
X-15092421Y13767579D01*
X-15144192Y13810067D01*
X-15203258Y13841639D01*
X-15267348Y13861080D01*
X-15334000Y13867645D01*
X-17749000Y13866000D01*
X-17834000Y13781000D01*
X-18234000Y13781000D01*
X-18319000Y13866000D01*
X-20734000Y13867645D01*
X-20800652Y13861080D01*
X-20864742Y13841639D01*
X-20923808Y13810067D01*
X-20975579Y13767579D01*
X-21018067Y13715808D01*
X-21049639Y13656742D01*
X-21069080Y13592652D01*
X-21075645Y13526000D01*
X-25100000Y13526000D01*
X-25100000Y15875000D01*
X-25101921Y15894509D01*
X-25107612Y15913268D01*
X-25116853Y15930557D01*
X-25129289Y15945711D01*
X-25144443Y15958147D01*
X-25161732Y15967388D01*
X-25180491Y15973079D01*
X-25198611Y15974990D01*
X-26172539Y15988517D01*
X-26174341Y16006810D01*
X-26191496Y16063360D01*
X-26219353Y16115477D01*
X-26256842Y16161158D01*
X-26302523Y16198647D01*
X-26354640Y16226504D01*
X-26411190Y16243659D01*
X-26470000Y16249451D01*
X-26785000Y16249451D01*
X-26785000Y16448000D01*
X-26760000Y16473000D01*
X-26760000Y16713267D01*
X-26758549Y16728000D01*
X-26551645Y16728000D01*
X-26545080Y16661348D01*
X-26525639Y16597258D01*
X-26510000Y16568000D01*
X-26510000Y16473000D01*
X-26425000Y16388000D01*
X-26410000Y16386355D01*
X-26343348Y16392920D01*
X-26310000Y16403036D01*
X-26276652Y16392920D01*
X-26210000Y16386355D01*
X-26195000Y16388000D01*
X-26110000Y16473000D01*
X-26110000Y16568000D01*
X-26094361Y16597258D01*
X-26074920Y16661348D01*
X-26068355Y16728000D01*
X-26070000Y16968000D01*
X-26110000Y17008000D01*
X-26110000Y17053000D01*
X-25860000Y17053000D01*
X-25860000Y16473000D01*
X-25775000Y16388000D01*
X-25760000Y16386355D01*
X-25693348Y16392920D01*
X-25629258Y16412361D01*
X-25570192Y16443933D01*
X-25518421Y16486421D01*
X-25475933Y16538192D01*
X-25444361Y16597258D01*
X-25424920Y16661348D01*
X-25418355Y16728000D01*
X-25420000Y16968000D01*
X-25505000Y17053000D01*
X-25860000Y17053000D01*
X-26110000Y17053000D01*
X-26510000Y17053000D01*
X-26510000Y17008000D01*
X-26550000Y16968000D01*
X-26551645Y16728000D01*
X-26758549Y16728000D01*
X-26758549Y17778000D01*
X-26551645Y17778000D01*
X-26550000Y17538000D01*
X-26510000Y17498000D01*
X-26510000Y17453000D01*
X-26110000Y17453000D01*
X-26110000Y17498000D01*
X-26070000Y17538000D01*
X-26068355Y17778000D01*
X-26074920Y17844652D01*
X-26094361Y17908742D01*
X-26110000Y17938000D01*
X-26110000Y18033000D01*
X-25860000Y18033000D01*
X-25860000Y17453000D01*
X-25505000Y17453000D01*
X-25420000Y17538000D01*
X-25418355Y17778000D01*
X-25424920Y17844652D01*
X-25444361Y17908742D01*
X-25475933Y17967808D01*
X-25518421Y18019579D01*
X-25570192Y18062067D01*
X-25629258Y18093639D01*
X-25693348Y18113080D01*
X-25760000Y18119645D01*
X-25775000Y18118000D01*
X-25860000Y18033000D01*
X-26110000Y18033000D01*
X-26195000Y18118000D01*
X-26210000Y18119645D01*
X-26276652Y18113080D01*
X-26310000Y18102964D01*
X-26343348Y18113080D01*
X-26410000Y18119645D01*
X-26425000Y18118000D01*
X-26510000Y18033000D01*
X-26510000Y17938000D01*
X-26525639Y17908742D01*
X-26545080Y17844652D01*
X-26551645Y17778000D01*
X-26758549Y17778000D01*
X-26760000Y17792733D01*
X-26760000Y18033000D01*
X-26845000Y18118000D01*
X-26860000Y18119645D01*
X-26900000Y18115705D01*
X-26900000Y18700000D01*
X-11525000Y18700000D01*
X-11524999Y12000000D01*
G37*
%TD.AperFunction*%
%TD*%
D17*
%TO.N,VCC_5V*%
X-27810000Y11903000D02*
X-27410000Y11903000D01*
X-27410000Y11923000D01*
X-27160000Y11923000D01*
X-27160000Y11903000D01*
X-26760000Y11903000D01*
X-26760000Y11923000D01*
X-26511451Y11923000D01*
X-26511451Y11178000D01*
X-26510000Y11163267D01*
X-26510000Y10923000D01*
X-26425000Y10838000D01*
X-26410000Y10836355D01*
X-26343348Y10842920D01*
X-26279258Y10862361D01*
X-26246069Y10880101D01*
X-26210000Y10876549D01*
X-25760000Y10876549D01*
X-25701190Y10882341D01*
X-25644640Y10899496D01*
X-25592523Y10927353D01*
X-25546842Y10964842D01*
X-25509353Y11010523D01*
X-25481496Y11062640D01*
X-25464341Y11119190D01*
X-25458549Y11178000D01*
X-25458549Y11600000D01*
X-21035451Y11600000D01*
X-21035451Y10626000D01*
X-21029659Y10567190D01*
X-21012504Y10510640D01*
X-20984647Y10458523D01*
X-20947158Y10412842D01*
X-20901477Y10375353D01*
X-20849360Y10347496D01*
X-20792810Y10330341D01*
X-20734000Y10324549D01*
X-15334000Y10324549D01*
X-15275190Y10330341D01*
X-15218640Y10347496D01*
X-15166523Y10375353D01*
X-15120842Y10412842D01*
X-15083353Y10458523D01*
X-15055496Y10510640D01*
X-15038341Y10567190D01*
X-15032549Y10626000D01*
X-15032549Y11600000D01*
X-11524999Y11600000D01*
X-11524999Y4643000D01*
X-12108425Y4643000D01*
X-12110000Y5615000D01*
X-12195000Y5700000D01*
X-13100000Y5700000D01*
X-13100000Y5680000D01*
X-13500000Y5680000D01*
X-13500000Y5700000D01*
X-13520000Y5700000D01*
X-13520000Y6100000D01*
X-13500000Y6100000D01*
X-13500000Y7455000D01*
X-13100000Y7455000D01*
X-13100000Y6100000D01*
X-12195000Y6100000D01*
X-12110000Y6185000D01*
X-12108355Y7200000D01*
X-12114920Y7266652D01*
X-12134361Y7330742D01*
X-12165933Y7389808D01*
X-12208421Y7441579D01*
X-12260192Y7484067D01*
X-12319258Y7515639D01*
X-12383348Y7535080D01*
X-12450000Y7541645D01*
X-13015000Y7540000D01*
X-13100000Y7455000D01*
X-13500000Y7455000D01*
X-13585000Y7540000D01*
X-14150000Y7541645D01*
X-14216652Y7535080D01*
X-14280742Y7515639D01*
X-14339808Y7484067D01*
X-14391579Y7441579D01*
X-14400000Y7431318D01*
X-14400000Y8400000D01*
X-14401921Y8419509D01*
X-14407612Y8438268D01*
X-14416853Y8455557D01*
X-14429289Y8470711D01*
X-14444443Y8483147D01*
X-14461732Y8492388D01*
X-14480491Y8498079D01*
X-14500000Y8500000D01*
X-18000000Y8500000D01*
X-18019509Y8498079D01*
X-18038268Y8492388D01*
X-18055557Y8483147D01*
X-18070711Y8470711D01*
X-18083147Y8455557D01*
X-18092388Y8438268D01*
X-18098079Y8419509D01*
X-18100000Y8400000D01*
X-18100000Y7400000D01*
X-25650000Y7400000D01*
X-25650000Y8045000D01*
X-24986645Y8045000D01*
X-24980080Y7978348D01*
X-24960639Y7914258D01*
X-24929067Y7855192D01*
X-24886579Y7803421D01*
X-24834808Y7760933D01*
X-24775742Y7729361D01*
X-24711652Y7709920D01*
X-24645000Y7703355D01*
X-23755000Y7705000D01*
X-23670000Y7790000D01*
X-23670000Y8595000D01*
X-23270000Y8595000D01*
X-23270000Y7790000D01*
X-23185000Y7705000D01*
X-22295000Y7703355D01*
X-22228348Y7709920D01*
X-22164258Y7729361D01*
X-22105192Y7760933D01*
X-22053421Y7803421D01*
X-22010933Y7855192D01*
X-21979361Y7914258D01*
X-21959920Y7978348D01*
X-21953355Y8045000D01*
X-21136645Y8045000D01*
X-21130080Y7978348D01*
X-21110639Y7914258D01*
X-21079067Y7855192D01*
X-21036579Y7803421D01*
X-20984808Y7760933D01*
X-20925742Y7729361D01*
X-20861652Y7709920D01*
X-20795000Y7703355D01*
X-19905000Y7705000D01*
X-19820000Y7790000D01*
X-19820000Y8595000D01*
X-19420000Y8595000D01*
X-19420000Y7790000D01*
X-19335000Y7705000D01*
X-18445000Y7703355D01*
X-18378348Y7709920D01*
X-18314258Y7729361D01*
X-18255192Y7760933D01*
X-18203421Y7803421D01*
X-18160933Y7855192D01*
X-18129361Y7914258D01*
X-18109920Y7978348D01*
X-18103355Y8045000D01*
X-18105000Y8510000D01*
X-18190000Y8595000D01*
X-19420000Y8595000D01*
X-19820000Y8595000D01*
X-21050000Y8595000D01*
X-21135000Y8510000D01*
X-21136645Y8045000D01*
X-21953355Y8045000D01*
X-21955000Y8510000D01*
X-22040000Y8595000D01*
X-23270000Y8595000D01*
X-23670000Y8595000D01*
X-24900000Y8595000D01*
X-24985000Y8510000D01*
X-24986645Y8045000D01*
X-25650000Y8045000D01*
X-25650000Y8500000D01*
X-25651921Y8519509D01*
X-25657612Y8538268D01*
X-25666853Y8555557D01*
X-25679289Y8570711D01*
X-25694443Y8583147D01*
X-25711732Y8592388D01*
X-25730491Y8598079D01*
X-25750000Y8600000D01*
X-26004136Y8600000D01*
X-25984920Y8663348D01*
X-25978355Y8730000D01*
X-25980000Y8812500D01*
X-26065000Y8897500D01*
X-26430000Y8897500D01*
X-26430000Y8877500D01*
X-26830000Y8877500D01*
X-26830000Y8897500D01*
X-27195000Y8897500D01*
X-27280000Y8812500D01*
X-27280391Y8792891D01*
X-27365000Y8877500D01*
X-27740000Y8877500D01*
X-27740000Y8857500D01*
X-28140000Y8857500D01*
X-28140000Y8877500D01*
X-28160000Y8877500D01*
X-28160000Y9277500D01*
X-28140000Y9277500D01*
X-28140000Y9690000D01*
X-27740000Y9690000D01*
X-27740000Y9277500D01*
X-27365000Y9277500D01*
X-27280000Y9362500D01*
X-27279556Y9382056D01*
X-27195000Y9297500D01*
X-26830000Y9297500D01*
X-26830000Y9720000D01*
X-26430000Y9720000D01*
X-26430000Y9297500D01*
X-26065000Y9297500D01*
X-25980000Y9382500D01*
X-25978355Y9465000D01*
X-25984920Y9531652D01*
X-25988968Y9545000D01*
X-24986645Y9545000D01*
X-24985000Y9080000D01*
X-24900000Y8995000D01*
X-23670000Y8995000D01*
X-23670000Y9800000D01*
X-23270000Y9800000D01*
X-23270000Y8995000D01*
X-22040000Y8995000D01*
X-21955000Y9080000D01*
X-21953355Y9545000D01*
X-21136645Y9545000D01*
X-21135000Y9080000D01*
X-21050000Y8995000D01*
X-19820000Y8995000D01*
X-19820000Y9800000D01*
X-19420000Y9800000D01*
X-19420000Y8995000D01*
X-18190000Y8995000D01*
X-18105000Y9080000D01*
X-18103355Y9545000D01*
X-18109920Y9611652D01*
X-18129361Y9675742D01*
X-18160933Y9734808D01*
X-18203421Y9786579D01*
X-18255192Y9829067D01*
X-18314258Y9860639D01*
X-18378348Y9880080D01*
X-18445000Y9886645D01*
X-19335000Y9885000D01*
X-19420000Y9800000D01*
X-19820000Y9800000D01*
X-19905000Y9885000D01*
X-20795000Y9886645D01*
X-20861652Y9880080D01*
X-20925742Y9860639D01*
X-20984808Y9829067D01*
X-21036579Y9786579D01*
X-21079067Y9734808D01*
X-21110639Y9675742D01*
X-21130080Y9611652D01*
X-21136645Y9545000D01*
X-21953355Y9545000D01*
X-21959920Y9611652D01*
X-21979361Y9675742D01*
X-22010933Y9734808D01*
X-22053421Y9786579D01*
X-22105192Y9829067D01*
X-22164258Y9860639D01*
X-22228348Y9880080D01*
X-22295000Y9886645D01*
X-23185000Y9885000D01*
X-23270000Y9800000D01*
X-23670000Y9800000D01*
X-23755000Y9885000D01*
X-24645000Y9886645D01*
X-24711652Y9880080D01*
X-24775742Y9860639D01*
X-24834808Y9829067D01*
X-24886579Y9786579D01*
X-24929067Y9734808D01*
X-24960639Y9675742D01*
X-24980080Y9611652D01*
X-24986645Y9545000D01*
X-25988968Y9545000D01*
X-26004361Y9595742D01*
X-26035933Y9654808D01*
X-26078421Y9706579D01*
X-26130192Y9749067D01*
X-26189258Y9780639D01*
X-26253348Y9800080D01*
X-26320000Y9806645D01*
X-26345000Y9805000D01*
X-26430000Y9720000D01*
X-26830000Y9720000D01*
X-26915000Y9805000D01*
X-26940000Y9806645D01*
X-27006652Y9800080D01*
X-27070742Y9780639D01*
X-27129808Y9749067D01*
X-27181579Y9706579D01*
X-27224067Y9654808D01*
X-27255639Y9595742D01*
X-27275080Y9531652D01*
X-27281477Y9466701D01*
X-27284920Y9501652D01*
X-27304361Y9565742D01*
X-27335933Y9624808D01*
X-27378421Y9676579D01*
X-27430192Y9719067D01*
X-27489258Y9750639D01*
X-27553348Y9770080D01*
X-27620000Y9776645D01*
X-27655000Y9775000D01*
X-27740000Y9690000D01*
X-28140000Y9690000D01*
X-28225000Y9775000D01*
X-28260000Y9776645D01*
X-28326652Y9770080D01*
X-28390742Y9750639D01*
X-28449808Y9719067D01*
X-28501579Y9676579D01*
X-28544067Y9624808D01*
X-28575639Y9565742D01*
X-28595080Y9501652D01*
X-28600000Y9451705D01*
X-28600000Y9698960D01*
X-28299237Y9999722D01*
X-28283026Y10013026D01*
X-28229916Y10077740D01*
X-28190452Y10151573D01*
X-28166150Y10231686D01*
X-28160000Y10294126D01*
X-28160000Y10294132D01*
X-28157945Y10314999D01*
X-28160000Y10335866D01*
X-28160000Y10836355D01*
X-28145000Y10838000D01*
X-28060000Y10923000D01*
X-28060000Y11163267D01*
X-28058549Y11178000D01*
X-27851645Y11178000D01*
X-27845080Y11111348D01*
X-27825639Y11047258D01*
X-27810000Y11018000D01*
X-27810000Y10923000D01*
X-27725000Y10838000D01*
X-27710000Y10836355D01*
X-27643348Y10842920D01*
X-27610000Y10853036D01*
X-27576652Y10842920D01*
X-27510000Y10836355D01*
X-27495000Y10838000D01*
X-27410000Y10923000D01*
X-27410000Y11018000D01*
X-27394361Y11047258D01*
X-27374920Y11111348D01*
X-27368355Y11178000D01*
X-27201645Y11178000D01*
X-27195080Y11111348D01*
X-27175639Y11047258D01*
X-27160000Y11018000D01*
X-27160000Y10923000D01*
X-27075000Y10838000D01*
X-27060000Y10836355D01*
X-26993348Y10842920D01*
X-26960000Y10853036D01*
X-26926652Y10842920D01*
X-26860000Y10836355D01*
X-26845000Y10838000D01*
X-26760000Y10923000D01*
X-26760000Y11018000D01*
X-26744361Y11047258D01*
X-26724920Y11111348D01*
X-26718355Y11178000D01*
X-26720000Y11418000D01*
X-26760000Y11458000D01*
X-26760000Y11503000D01*
X-27160000Y11503000D01*
X-27160000Y11458000D01*
X-27200000Y11418000D01*
X-27201645Y11178000D01*
X-27368355Y11178000D01*
X-27370000Y11418000D01*
X-27410000Y11458000D01*
X-27410000Y11503000D01*
X-27810000Y11503000D01*
X-27810000Y11458000D01*
X-27850000Y11418000D01*
X-27851645Y11178000D01*
X-28058549Y11178000D01*
X-28058549Y11923000D01*
X-27810000Y11923000D01*
X-27810000Y11903000D01*
%TA.AperFunction,Conductor*%
D18*
G36*
X-27810000Y11903000D02*
G01*
X-27410000Y11903000D01*
X-27410000Y11923000D01*
X-27160000Y11923000D01*
X-27160000Y11903000D01*
X-26760000Y11903000D01*
X-26760000Y11923000D01*
X-26511451Y11923000D01*
X-26511451Y11178000D01*
X-26510000Y11163267D01*
X-26510000Y10923000D01*
X-26425000Y10838000D01*
X-26410000Y10836355D01*
X-26343348Y10842920D01*
X-26279258Y10862361D01*
X-26246069Y10880101D01*
X-26210000Y10876549D01*
X-25760000Y10876549D01*
X-25701190Y10882341D01*
X-25644640Y10899496D01*
X-25592523Y10927353D01*
X-25546842Y10964842D01*
X-25509353Y11010523D01*
X-25481496Y11062640D01*
X-25464341Y11119190D01*
X-25458549Y11178000D01*
X-25458549Y11600000D01*
X-21035451Y11600000D01*
X-21035451Y10626000D01*
X-21029659Y10567190D01*
X-21012504Y10510640D01*
X-20984647Y10458523D01*
X-20947158Y10412842D01*
X-20901477Y10375353D01*
X-20849360Y10347496D01*
X-20792810Y10330341D01*
X-20734000Y10324549D01*
X-15334000Y10324549D01*
X-15275190Y10330341D01*
X-15218640Y10347496D01*
X-15166523Y10375353D01*
X-15120842Y10412842D01*
X-15083353Y10458523D01*
X-15055496Y10510640D01*
X-15038341Y10567190D01*
X-15032549Y10626000D01*
X-15032549Y11600000D01*
X-11524999Y11600000D01*
X-11524999Y4643000D01*
X-12108425Y4643000D01*
X-12110000Y5615000D01*
X-12195000Y5700000D01*
X-13100000Y5700000D01*
X-13100000Y5680000D01*
X-13500000Y5680000D01*
X-13500000Y5700000D01*
X-13520000Y5700000D01*
X-13520000Y6100000D01*
X-13500000Y6100000D01*
X-13500000Y7455000D01*
X-13100000Y7455000D01*
X-13100000Y6100000D01*
X-12195000Y6100000D01*
X-12110000Y6185000D01*
X-12108355Y7200000D01*
X-12114920Y7266652D01*
X-12134361Y7330742D01*
X-12165933Y7389808D01*
X-12208421Y7441579D01*
X-12260192Y7484067D01*
X-12319258Y7515639D01*
X-12383348Y7535080D01*
X-12450000Y7541645D01*
X-13015000Y7540000D01*
X-13100000Y7455000D01*
X-13500000Y7455000D01*
X-13585000Y7540000D01*
X-14150000Y7541645D01*
X-14216652Y7535080D01*
X-14280742Y7515639D01*
X-14339808Y7484067D01*
X-14391579Y7441579D01*
X-14400000Y7431318D01*
X-14400000Y8400000D01*
X-14401921Y8419509D01*
X-14407612Y8438268D01*
X-14416853Y8455557D01*
X-14429289Y8470711D01*
X-14444443Y8483147D01*
X-14461732Y8492388D01*
X-14480491Y8498079D01*
X-14500000Y8500000D01*
X-18000000Y8500000D01*
X-18019509Y8498079D01*
X-18038268Y8492388D01*
X-18055557Y8483147D01*
X-18070711Y8470711D01*
X-18083147Y8455557D01*
X-18092388Y8438268D01*
X-18098079Y8419509D01*
X-18100000Y8400000D01*
X-18100000Y7400000D01*
X-25650000Y7400000D01*
X-25650000Y8045000D01*
X-24986645Y8045000D01*
X-24980080Y7978348D01*
X-24960639Y7914258D01*
X-24929067Y7855192D01*
X-24886579Y7803421D01*
X-24834808Y7760933D01*
X-24775742Y7729361D01*
X-24711652Y7709920D01*
X-24645000Y7703355D01*
X-23755000Y7705000D01*
X-23670000Y7790000D01*
X-23670000Y8595000D01*
X-23270000Y8595000D01*
X-23270000Y7790000D01*
X-23185000Y7705000D01*
X-22295000Y7703355D01*
X-22228348Y7709920D01*
X-22164258Y7729361D01*
X-22105192Y7760933D01*
X-22053421Y7803421D01*
X-22010933Y7855192D01*
X-21979361Y7914258D01*
X-21959920Y7978348D01*
X-21953355Y8045000D01*
X-21136645Y8045000D01*
X-21130080Y7978348D01*
X-21110639Y7914258D01*
X-21079067Y7855192D01*
X-21036579Y7803421D01*
X-20984808Y7760933D01*
X-20925742Y7729361D01*
X-20861652Y7709920D01*
X-20795000Y7703355D01*
X-19905000Y7705000D01*
X-19820000Y7790000D01*
X-19820000Y8595000D01*
X-19420000Y8595000D01*
X-19420000Y7790000D01*
X-19335000Y7705000D01*
X-18445000Y7703355D01*
X-18378348Y7709920D01*
X-18314258Y7729361D01*
X-18255192Y7760933D01*
X-18203421Y7803421D01*
X-18160933Y7855192D01*
X-18129361Y7914258D01*
X-18109920Y7978348D01*
X-18103355Y8045000D01*
X-18105000Y8510000D01*
X-18190000Y8595000D01*
X-19420000Y8595000D01*
X-19820000Y8595000D01*
X-21050000Y8595000D01*
X-21135000Y8510000D01*
X-21136645Y8045000D01*
X-21953355Y8045000D01*
X-21955000Y8510000D01*
X-22040000Y8595000D01*
X-23270000Y8595000D01*
X-23670000Y8595000D01*
X-24900000Y8595000D01*
X-24985000Y8510000D01*
X-24986645Y8045000D01*
X-25650000Y8045000D01*
X-25650000Y8500000D01*
X-25651921Y8519509D01*
X-25657612Y8538268D01*
X-25666853Y8555557D01*
X-25679289Y8570711D01*
X-25694443Y8583147D01*
X-25711732Y8592388D01*
X-25730491Y8598079D01*
X-25750000Y8600000D01*
X-26004136Y8600000D01*
X-25984920Y8663348D01*
X-25978355Y8730000D01*
X-25980000Y8812500D01*
X-26065000Y8897500D01*
X-26430000Y8897500D01*
X-26430000Y8877500D01*
X-26830000Y8877500D01*
X-26830000Y8897500D01*
X-27195000Y8897500D01*
X-27280000Y8812500D01*
X-27280391Y8792891D01*
X-27365000Y8877500D01*
X-27740000Y8877500D01*
X-27740000Y8857500D01*
X-28140000Y8857500D01*
X-28140000Y8877500D01*
X-28160000Y8877500D01*
X-28160000Y9277500D01*
X-28140000Y9277500D01*
X-28140000Y9690000D01*
X-27740000Y9690000D01*
X-27740000Y9277500D01*
X-27365000Y9277500D01*
X-27280000Y9362500D01*
X-27279556Y9382056D01*
X-27195000Y9297500D01*
X-26830000Y9297500D01*
X-26830000Y9720000D01*
X-26430000Y9720000D01*
X-26430000Y9297500D01*
X-26065000Y9297500D01*
X-25980000Y9382500D01*
X-25978355Y9465000D01*
X-25984920Y9531652D01*
X-25988968Y9545000D01*
X-24986645Y9545000D01*
X-24985000Y9080000D01*
X-24900000Y8995000D01*
X-23670000Y8995000D01*
X-23670000Y9800000D01*
X-23270000Y9800000D01*
X-23270000Y8995000D01*
X-22040000Y8995000D01*
X-21955000Y9080000D01*
X-21953355Y9545000D01*
X-21136645Y9545000D01*
X-21135000Y9080000D01*
X-21050000Y8995000D01*
X-19820000Y8995000D01*
X-19820000Y9800000D01*
X-19420000Y9800000D01*
X-19420000Y8995000D01*
X-18190000Y8995000D01*
X-18105000Y9080000D01*
X-18103355Y9545000D01*
X-18109920Y9611652D01*
X-18129361Y9675742D01*
X-18160933Y9734808D01*
X-18203421Y9786579D01*
X-18255192Y9829067D01*
X-18314258Y9860639D01*
X-18378348Y9880080D01*
X-18445000Y9886645D01*
X-19335000Y9885000D01*
X-19420000Y9800000D01*
X-19820000Y9800000D01*
X-19905000Y9885000D01*
X-20795000Y9886645D01*
X-20861652Y9880080D01*
X-20925742Y9860639D01*
X-20984808Y9829067D01*
X-21036579Y9786579D01*
X-21079067Y9734808D01*
X-21110639Y9675742D01*
X-21130080Y9611652D01*
X-21136645Y9545000D01*
X-21953355Y9545000D01*
X-21959920Y9611652D01*
X-21979361Y9675742D01*
X-22010933Y9734808D01*
X-22053421Y9786579D01*
X-22105192Y9829067D01*
X-22164258Y9860639D01*
X-22228348Y9880080D01*
X-22295000Y9886645D01*
X-23185000Y9885000D01*
X-23270000Y9800000D01*
X-23670000Y9800000D01*
X-23755000Y9885000D01*
X-24645000Y9886645D01*
X-24711652Y9880080D01*
X-24775742Y9860639D01*
X-24834808Y9829067D01*
X-24886579Y9786579D01*
X-24929067Y9734808D01*
X-24960639Y9675742D01*
X-24980080Y9611652D01*
X-24986645Y9545000D01*
X-25988968Y9545000D01*
X-26004361Y9595742D01*
X-26035933Y9654808D01*
X-26078421Y9706579D01*
X-26130192Y9749067D01*
X-26189258Y9780639D01*
X-26253348Y9800080D01*
X-26320000Y9806645D01*
X-26345000Y9805000D01*
X-26430000Y9720000D01*
X-26830000Y9720000D01*
X-26915000Y9805000D01*
X-26940000Y9806645D01*
X-27006652Y9800080D01*
X-27070742Y9780639D01*
X-27129808Y9749067D01*
X-27181579Y9706579D01*
X-27224067Y9654808D01*
X-27255639Y9595742D01*
X-27275080Y9531652D01*
X-27281477Y9466701D01*
X-27284920Y9501652D01*
X-27304361Y9565742D01*
X-27335933Y9624808D01*
X-27378421Y9676579D01*
X-27430192Y9719067D01*
X-27489258Y9750639D01*
X-27553348Y9770080D01*
X-27620000Y9776645D01*
X-27655000Y9775000D01*
X-27740000Y9690000D01*
X-28140000Y9690000D01*
X-28225000Y9775000D01*
X-28260000Y9776645D01*
X-28326652Y9770080D01*
X-28390742Y9750639D01*
X-28449808Y9719067D01*
X-28501579Y9676579D01*
X-28544067Y9624808D01*
X-28575639Y9565742D01*
X-28595080Y9501652D01*
X-28600000Y9451705D01*
X-28600000Y9698960D01*
X-28299237Y9999722D01*
X-28283026Y10013026D01*
X-28229916Y10077740D01*
X-28190452Y10151573D01*
X-28166150Y10231686D01*
X-28160000Y10294126D01*
X-28160000Y10294132D01*
X-28157945Y10314999D01*
X-28160000Y10335866D01*
X-28160000Y10836355D01*
X-28145000Y10838000D01*
X-28060000Y10923000D01*
X-28060000Y11163267D01*
X-28058549Y11178000D01*
X-27851645Y11178000D01*
X-27845080Y11111348D01*
X-27825639Y11047258D01*
X-27810000Y11018000D01*
X-27810000Y10923000D01*
X-27725000Y10838000D01*
X-27710000Y10836355D01*
X-27643348Y10842920D01*
X-27610000Y10853036D01*
X-27576652Y10842920D01*
X-27510000Y10836355D01*
X-27495000Y10838000D01*
X-27410000Y10923000D01*
X-27410000Y11018000D01*
X-27394361Y11047258D01*
X-27374920Y11111348D01*
X-27368355Y11178000D01*
X-27201645Y11178000D01*
X-27195080Y11111348D01*
X-27175639Y11047258D01*
X-27160000Y11018000D01*
X-27160000Y10923000D01*
X-27075000Y10838000D01*
X-27060000Y10836355D01*
X-26993348Y10842920D01*
X-26960000Y10853036D01*
X-26926652Y10842920D01*
X-26860000Y10836355D01*
X-26845000Y10838000D01*
X-26760000Y10923000D01*
X-26760000Y11018000D01*
X-26744361Y11047258D01*
X-26724920Y11111348D01*
X-26718355Y11178000D01*
X-26720000Y11418000D01*
X-26760000Y11458000D01*
X-26760000Y11503000D01*
X-27160000Y11503000D01*
X-27160000Y11458000D01*
X-27200000Y11418000D01*
X-27201645Y11178000D01*
X-27368355Y11178000D01*
X-27370000Y11418000D01*
X-27410000Y11458000D01*
X-27410000Y11503000D01*
X-27810000Y11503000D01*
X-27810000Y11458000D01*
X-27850000Y11418000D01*
X-27851645Y11178000D01*
X-28058549Y11178000D01*
X-28058549Y11923000D01*
X-27810000Y11923000D01*
X-27810000Y11903000D01*
G37*
%TD.AperFunction*%
%TD*%
M02*
