M48
; DRILL file {KiCad (5.1.7)-1} date 12/08/20 16:49:34
; FORMAT={-:-/ absolute / inch / decimal}
; #@! TF.CreationDate,2020-12-08T16:49:34+09:00
; #@! TF.GenerationSoftware,Kicad,Pcbnew,(5.1.7)-1
; #@! TF.FileFunction,Plated,1,2,PTH
FMAT,2
INCH
T1C0.0079
T2C0.0157
T3C0.0236
%
G90
G05
T1
X-1.3238Y0.8356
X-1.3238Y0.8041
X-1.3238Y0.7726
X-1.3238Y0.7421
X-1.3031Y0.2638
X-1.3031Y0.2323
X-1.3031Y0.2008
X-1.2923Y0.8356
X-1.2923Y0.8041
X-1.2923Y0.7726
X-1.2923Y0.7421
X-1.2717Y0.2638
X-1.2717Y0.2323
X-1.2717Y0.2008
X-1.2608Y0.8356
X-1.2608Y0.8041
X-1.2608Y0.7726
X-1.2608Y0.7421
X-1.2402Y0.2638
X-1.2402Y0.2323
X-1.2402Y0.2008
X-1.2362Y0.6791
X-1.2087Y0.2638
X-1.2087Y0.2323
X-1.2087Y0.2008
X-1.1772Y0.2638
X-1.1772Y0.2323
X-1.1772Y0.2008
X-1.1457Y0.2638
X-1.1457Y0.2323
X-1.1457Y0.2008
X-1.1142Y0.2638
X-1.1142Y0.2323
X-1.1142Y0.2008
X-1.0827Y0.2638
X-1.0827Y0.2323
X-1.0827Y0.2008
X-1.0512Y0.2638
X-1.0512Y0.2323
X-1.0512Y0.2008
X-1.0197Y0.2638
X-1.0197Y0.2323
X-1.0197Y0.2008
T2
X-1.1655Y0.5989
X-1.1655Y0.5411
X-1.1302Y0.5989
X-1.1302Y0.5411
X-1.095Y0.5989
X-1.095Y0.5411
X-1.0597Y0.5989
X-1.0597Y0.5411
T3
X-1.29Y0.33
X-0.6236Y0.2323
X-0.5236Y0.2323
X-1.2309Y0.9252
X-1.1309Y0.9252
T0
M30
